<?xml version="1.0" encoding="utf-8"?>
<!-- Generator: Adobe Illustrator 27.0.0, SVG Export Plug-In . SVG Version: 6.00 Build 0)  -->
<svg version="1.1" xmlns="http://www.w3.org/2000/svg" xmlns:xlink="http://www.w3.org/1999/xlink" x="0px" y="0px"
	 viewBox="0 0 1015.42 755.03" enable-background="new 0 0 1015.42 755.03" xml:space="preserve">
<g>
	<path id="leftMetacarpal5HeadRadial" fill="#9D9D9C" d="M150.25,392.76c-0.03-0.5-0.07-1.21-0.16-2.06c0,0-0.32-3-1.11-5.88
		c-1.43-5.21-3.65-13.29-10.07-16.18c-6.01-2.71-12.63,0.52-14.38,1.44c1.39,5.03,2.78,10.07,4.17,15.1
		C135.88,387.71,143.06,390.23,150.25,392.76z"/>
	<path id="leftMetacarpal5Shaft" fill="#9D9D9C" d="M186.19,493.77c-0.3-0.33-0.74-0.83-1.26-1.44
		c-7.66-8.94-11.19-17.35-15.1-24.81c-4.16-7.94-8.56-16.33-12.58-28.4c-3.06-9.19-6.43-18.99-7.19-32.36
		c-0.33-5.79-0.09-10.63,0.19-13.99c-7.18-2.53-14.37-5.05-21.55-7.58c-4.62,5.02-9.24,10.05-13.86,15.07
		c0.37,1.51,0.88,3.32,1.63,5.36c0.07,0.19,0.12,0.34,0.15,0.42c0,0,1.01,2.72,2.28,5.34c1.73,3.58,4.11,6.8,7.07,12.28
		c0.7,1.3,1.68,3.12,2.77,5.52c1.95,4.3,2.25,6.06,4.25,11.87c1.8,5.24,3.45,9.33,5.57,14.61c0.63,1.56,1.58,3.91,2.9,7.04
		c1.71,4.03,2.37,5.39,3.75,8.75c0.35,0.86,1.14,2.78,2.69,6.86c3.15,8.29,6.77,18.43,7.55,24.45c0.19,1.48,0.32,3,0.32,3
		c0.21,2.44,0.28,4.53,0.28,6.16c6.52,0.18,13.04,0.36,19.56,0.54C179.14,506.23,182.66,500,186.19,493.77z"/>
	<path id="leftMetacarpal5BaseRadial" fill="#9D9D9C" d="M182.19,524.92c1-0.15,8.53-1.38,11.37-7.42
		c1.95-4.16,0.63-8.35-0.63-12.31c-1.76-5.55-4.8-9.34-6.74-11.41c-3.53,6.23-7.05,12.46-10.58,18.69
		C177.81,516.61,180,520.77,182.19,524.92z"/>
	<path id="leftMetacarpal5BaseUlnar" fill="#9D9D9C" d="M156.05,511.92c0.01,1.06,0.1,2.42,0.39,3.97c0.03,0.14,0.42,2.1,1.16,4.12
		c0.33,0.88,5.32,14.06,12.22,14.02c0.48,0,0.89-0.07,1.27-0.2c3.53-1.19,4.47-4.01,8.8-7.35c0.48-0.37,1.26-0.95,2.3-1.57
		c-2.19-4.15-4.39-8.3-6.58-12.46C169.09,512.28,162.57,512.1,156.05,511.92z"/>
	<path id="leftMetacarpal5HeadUlnar" fill="#9D9D9C" d="M124.52,370.08c-2.33,0.58-7.41,2.22-10.07,6.83
		c-1.85,3.21-1.7,6.41-1.44,11.87c0.23,4.9,1.1,8.86,1.81,11.48c4.62-5.02,9.24-10.05,13.86-15.07
		C127.3,380.15,125.91,375.11,124.52,370.08z"/>
	<path id="leftMetacarpal4HeadRadial" fill="#9D9D9C" d="M205.29,362.63c-2.67-4.86-4.26-8.94-5.26-11.97
		c-1.16-3.52-2.19-7.69-6.04-10.7c-0.59-0.46-1.06-0.75-1.15-0.81c-4.46-2.73-9.96-1.62-12.94-0.72c1.36,5.78,2.72,11.57,4.08,17.35
		C191.08,358.07,198.18,360.35,205.29,362.63z"/>
	<path id="leftMetacarpal4BaseRadial" fill="#9D9D9C" d="M213.29,515.7c1.9,0.15,4.78,0.18,8.17-0.54c2.71-0.58,4.07-0.86,5.31-1.89
		c3.48-2.86,3.58-8.52,3.64-10.52c0.02-0.57,0.01-1.09-0.03-1.6c-0.25-3.25-0.99-5.01-2.13-9.19c-0.23-0.85-0.56-2.13-0.92-3.7
		c-5.65,3.21-11.29,6.42-16.94,9.63C211.36,503.83,212.32,509.76,213.29,515.7z"/>
	<path id="leftMetacarpal4BaseUlnar" fill="#9D9D9C" d="M196.86,492.81c-0.67,1.38-1.58,3.66-1.8,6.6c-0.01,0.07-0.1,1.45,0.02,2.8
		c0.34,3.83,2.36,10.58,7.42,12.67c1.11,0.46,2.21,0.58,4.39,0.81c2.64,0.28,4.85,0.16,6.39,0c-0.96-5.93-1.93-11.87-2.89-17.8
		C205.89,496.2,201.38,494.51,196.86,492.81z"/>
	<path id="leftMetacarpal4Shaft" fill="#9D9D9C" d="M167.39,368.95c0.1,1.26,0.35,3.04,1,5.08c0.16,0.51,0.59,1.86,1.48,3.55
		c1.53,2.88,3.37,4.58,6.07,9.04c1.54,2.54,4.21,7.48,8.63,24.81c3.52,13.79,2.53,13.46,6.2,29.3c3.21,13.87,5.31,19.88,6.74,31.82
		c1.22,10.18,0.7,14.14,0.27,16.45c-0.05,0.27-0.19,1.01-0.42,1.96c-0.13,0.54-0.29,1.16-0.5,1.86c4.51,1.7,9.02,3.39,13.53,5.09
		c5.65-3.21,11.29-6.42,16.94-9.63c-0.72-3.11-1.34-5.62-1.78-7.36c-0.56-2.22-0.84-3.27-1.6-6.31c-0.57-2.29-0.5-2.08-1.16-4.72
		c-0.83-3.34-1.5-5.96-1.91-7.57c-0.49-1.93-0.88-3.4-1.02-3.94c-0.82-3.16-1.44-5.44-1.71-6.48c-0.62-2.31-0.71-2.7-3.03-11.7
		c-1.97-7.62-2.95-11.44-3-11.61c-0.63-2.24-1.58-5.47-2.6-10.09c0,0-0.26-1.17-0.51-2.39c-2.93-14.25-4.4-21.37-3.6-28.04
		c0.5-4.19,1.99-10.7,1.99-15.81c0-1.56-0.14-3.24-0.55-5.04c-0.44-1.95-1.07-3.51-1.57-4.57c-7.1-2.28-14.21-4.56-21.31-6.85
		C178.44,360.18,172.91,364.57,167.39,368.95z"/>
	<path id="leftMetacarpal4HeadUlnar" fill="#9D9D9C" d="M179.89,338.44c-2.5,0.28-8.8,1.29-11.51,5.39
		c-0.3,0.45-0.54,0.92-0.57,0.98c-1.94,3.76-1.17,7.61-0.87,9.44c0.52,3.18,0.86,7.77,0.44,14.7c5.53-4.39,11.06-8.78,16.59-13.17
		C182.61,350,181.25,344.22,179.89,338.44z"/>
	<path id="leftProximalPhalanx5HeadRadial" fill="#C6C6C6" d="M99.61,285.76c-0.78-2.12-1.23-3.9-1.49-5.17
		c-0.63-3.08-0.67-5.4-2.56-7.65c0,0-0.26-0.31-0.52-0.56c-3.26-3.21-12.81-0.54-14.58-0.03c1.61,3.75,3.21,7.5,4.82,11.25
		C90.05,284.32,94.83,285.04,99.61,285.76z"/>
	<path id="leftProximalPhalanx5Shaft" fill="#C6C6C6" d="M132.94,339.65c-0.69-0.6-1.69-1.47-2.85-2.54
		c-1.94-1.8-9.56-9.21-17.53-21.57c-3.19-4.96-9-13.95-11.33-23.73c-0.03-0.14-0.4-1.66-0.97-3.7c-0.28-1.03-0.52-1.85-0.67-2.34
		c-4.78-0.72-9.55-1.43-14.33-2.15c-3.27,4-6.54,8-9.8,12.01c2.88,5.2,4.01,7.22,4.18,7.49c0,0,0.01,0.01,0.01,0.02
		c0,0,0.26,0.4,0.51,0.81c0.34,0.58,8.28,20.14,9.2,22.38c1.82,4.43,7.46,17.15,8.17,21.19c0.1,0.59,0.19,1.19,0.19,1.19
		c0.35,2.38,0.45,4.36,0.47,5.74c6.54-0.24,13.07-0.48,19.61-0.72C122.86,349.03,127.9,344.34,132.94,339.65z"/>
	<path id="leftProximalPhalanx5BaseRadial" fill="#C6C6C6" d="M123.57,366.24c1.49-0.66,3.93-1.6,7.06-2.17
		c5.59-1.02,7.56,0.2,9.44-1.35c3.85-3.17,0.7-12.47,0.54-12.94c-1.92-5.5-5.76-8.73-7.67-10.13c-5.04,4.69-10.08,9.38-15.13,14.07
		C119.73,357.89,121.65,362.07,123.57,366.24z"/>
	<path id="leftProximalPhalanx5BaseUlnar" fill="#C6C6C6" d="M98.2,354.44c0.01,1.55,0.17,3.74,0.84,6.26
		c0.24,0.91,0.66,2.29,1.39,3.9c0.98,2.16,4.12,9.09,8.9,9.44c0.43,0.03,0.81,0,1.16-0.08c3.49-0.81,4.92-3.01,8.28-5.32
		c1.01-0.7,2.59-1.64,4.81-2.41c-1.92-4.17-3.84-8.35-5.76-12.52C111.28,353.96,104.74,354.2,98.2,354.44z"/>
	<path id="leftProximalPhalanx5HeadUlnar" fill="#C6C6C6" d="M80.46,272.36c-0.4,0.18-0.96,0.46-1.6,0.84
		c-1.16,0.69-6.83,4.05-7.55,9.44c-0.31,2.31,0.51,4.42,2.16,8.63c0.72,1.83,1.45,3.31,2,4.35c3.27-4,6.54-8,9.8-12.01
		C83.67,279.86,82.06,276.11,80.46,272.36z"/>
	<path id="leftMiddlePhalanx5HeadUlnar" fill="#DADADA" d="M58.9,215.27c-1.27,0.19-3.14,0.58-5.27,1.46
		c-2.17,0.9-3.26,1.34-3.9,2.31c-1.32,2.01-0.36,4.88,0.81,8.36c0.55,1.64,1.31,3.15,1.39,3.3c0.37,0.73,0.72,1.33,0.99,1.77
		c3.17-2.91,6.34-5.82,9.51-8.73C61.26,220.92,60.08,218.09,58.9,215.27z"/>
	<path id="leftMiddlePhalanx5HeadRadial" fill="#DADADA" d="M77.01,226.07c0.15-1.01,0.26-2.55-0.08-4.36
		c-0.1-0.53-0.4-1.97-1.31-3.74c-0.87-1.71-3.05-5.99-6.74-6.47c-1-0.13-1.81,0.1-3.38,0.56c-2.97,0.88-5.19,2.21-6.6,3.21
		c1.18,2.82,2.36,5.65,3.54,8.47C67.3,224.52,72.16,225.3,77.01,226.07z"/>
	<path id="leftMiddlePhalanx5BaseRadial" fill="#DADADA" d="M80.46,269.64c0.38-0.14,0.91-0.36,1.54-0.63c0,0,1.72-0.76,3.33-1.69
		c4.57-2.65,8.04-4.66,8.63-7.55c0.66-3.24-2.36-7.25-7.01-9.98c-3.49,3.66-6.99,7.33-10.48,10.99
		C77.8,263.73,79.13,266.69,80.46,269.64z"/>
	<path id="leftMiddlePhalanx5BaseUlnar" fill="#DADADA" d="M60.96,262.2c0.05,0.9,0.19,2.23,0.64,3.77c0.58,1.95,1.54,5.2,4.04,6.47
		c0.53,0.27,1.74,0.76,7.28-0.54c3.14-0.74,5.71-1.59,7.53-2.26c-1.33-2.95-2.66-5.91-3.99-8.86
		C71.3,261.25,66.13,261.73,60.96,262.2z"/>
	<path id="leftMiddlePhalanx5Shaft" fill="#DADADA" d="M52.93,232.47c0.94,1.3,2.24,3.24,3.55,5.72c1.64,3.1,4.2,8.07,4.85,14.83
		c0.21,2.15,0.3,5.32-0.37,9.18c5.17-0.48,10.34-0.95,15.51-1.43c3.49-3.66,6.99-7.33,10.48-10.99c-5.35-6.18-8.58-11.7-9.44-14.83
		c-0.47-1.7-0.65-3.32-0.65-3.32c-0.25-2.27-0.07-4.2,0.14-5.56c-4.86-0.78-9.71-1.55-14.57-2.33
		C59.27,226.65,56.1,229.56,52.93,232.47z"/>
	<path id="leftDistalPhalanx5TuftRadial" fill="#EDEDED" d="M53.78,174.9c-0.36-1.42-1.2-3.79-3.24-5.93
		c-0.91-0.96-3.6-3.78-7.55-3.78c-1.41,0-2.56,0.37-3.31,0.67c1.41,2.51,2.83,5.03,4.24,7.54C47.21,173.9,50.5,174.4,53.78,174.9z"
		/>
	<path id="leftDistalPhalanx5Shaft" fill="#EDEDED" d="M62.68,195.12c-4.83-3.56-6.32-6.79-6.74-9.17
		c-0.25-1.41-0.31-3.58-1.14-7.25c-0.37-1.61-0.75-2.93-1.02-3.81c-3.28-0.5-6.57-1-9.85-1.49c-2.03,2.87-4.06,5.74-6.09,8.61
		c0.78,0.84,1.73,1.96,2.7,3.35c0.14,0.2,0.76,1.11,1.39,2.2c3.32,5.84,3.74,12,3.78,12.67c0.05,0.79,0.05,1.43,0.05,1.75
		c3.29,0.48,6.58,0.96,9.88,1.43C57.97,200.66,60.32,197.89,62.68,195.12z"/>
	<path id="leftDistalPhalanx5BaseRadial" fill="#EDEDED" d="M59.05,211.77c1.04-0.55,2.48-1.34,4.16-2.36
		c4.99-3.02,7.48-4.56,7.49-6.35c0.01-1.19-1.19-2.29-3.6-4.49c-1.75-1.61-3.35-2.74-4.44-3.45c-2.36,2.77-4.71,5.54-7.07,8.3
		C56.76,206.21,57.91,208.99,59.05,211.77z"/>
	<path id="leftDistalPhalanx5BaseUlnar" fill="#EDEDED" d="M45.74,201.99c-0.1,1.01-0.3,2.87-0.55,5.21
		c-0.56,5.17-0.7,6.07-0.03,6.8c1.21,1.32,3.84,0.75,7.28,0c2.88-0.62,5.14-1.54,6.62-2.23c-1.15-2.78-2.29-5.56-3.44-8.35
		C52.32,202.95,49.03,202.47,45.74,201.99z"/>
	<path id="leftDistalPhalanx5TuftUlnar" fill="#EDEDED" d="M39.69,165.86c-1.77,0.71-2.71,1.71-3.16,2.29
		c-2.66,3.4-1.13,8.34-0.54,10.25c0.41,1.34,1.08,2.47,1.08,2.47c0.29,0.48,0.56,0.87,0.77,1.15c2.03-2.87,4.06-5.74,6.09-8.61
		C42.51,170.89,41.1,168.38,39.69,165.86z"/>
	<path id="leftProximalPhalanx4HeadRadial" fill="#C6C6C6" d="M174.59,220.42c-0.2-2.75-1-8.65-4.85-13.48
		c-1.19-1.49-3.01-3.71-5.93-4.31c-1.13-0.23-2.05-0.15-3.56,0c-1.83,0.18-4.22,0.61-6.96,1.62c0.97,3.87,1.94,7.73,2.91,11.6
		C162.33,217.36,168.46,218.89,174.59,220.42z"/>
	<path id="leftProximalPhalanx4Shaft" fill="#C6C6C6" d="M192.59,309.29c-1.53-1.84-2.56-3.44-3.17-4.47
		c-0.98-1.64-3.12-5.78-6.47-21.03c-1.16-5.28-0.99-5.61-3.51-21.57c-3.27-20.74-3.57-20.28-3.78-25.08
		c-0.25-5.67-0.2-7.5-0.48-11.27c-0.1-1.3-0.27-3.17-0.6-5.45c-6.13-1.53-12.26-3.06-18.39-4.58c-5.28,3.42-10.57,6.83-15.85,10.25
		c0.38,1.86,0.82,3.32,1.15,4.28c1.47,4.34,2.97,5.93,4.78,10.82c0.51,1.37,0.81,2.36,1.18,3.6c1.95,6.5,2.03,11.53,3.14,20.67
		c0.69,5.69,1.73,14.32,2.85,18.85c0.15,0.61,0.73,2.9,1.03,6.06c0.14,1.45,0.16,2.56,0.17,3.13c0.13,6.99-0.26,12.82-0.26,12.82
		c-0.24,3.52-0.44,8.61-0.28,15.22c7.08,0.54,14.16,1.08,21.25,1.62C181.09,318.53,186.84,313.91,192.59,309.29z"/>
	<path id="leftProximalPhalanx4BaseRadial" fill="#C6C6C6" d="M179.89,335.48c3.23-0.94,5.88-1.12,7.71-1.1
		c4.67,0.04,6.96,1.35,9.31-0.16c1.71-1.09,2.31-2.94,2.75-4.31c1.28-3.94,0.04-7.63-1.08-10.52c-0.79-2.04-1.63-3.65-2.21-4.68
		c-1.33-2.35-2.72-4.16-3.79-5.41c-5.75,4.62-11.5,9.25-17.25,13.87C176.86,327.26,178.38,331.37,179.89,335.48z"/>
	<path id="leftProximalPhalanx4BaseUlnar" fill="#C6C6C6" d="M154.1,321.54c-0.4,8.28,2.3,13.55,3.78,15.91
		c1.32,2.12,3.55,5.7,6.47,5.66c2.43-0.03,3.38-2.55,7.01-4.85c3.2-2.03,6.44-2.6,8.54-2.78c-1.52-4.11-3.03-8.21-4.55-12.32
		C168.26,322.62,161.18,322.08,154.1,321.54z"/>
	<path id="leftProximalPhalanx4HeadUlnar" fill="#C6C6C6" d="M153.29,204.24c-1.53,0.2-3.72,0.58-6.28,1.34
		c-2.71,0.81-5.48,1.64-6.99,2.98c-3.29,2.9-2.75,10.07,0.33,17.53c5.28-3.42,10.57-6.83,15.85-10.25
		C155.23,211.97,154.26,208.1,153.29,204.24z"/>
	<path id="leftMiddlePhalanx4HeadRadial" fill="#DADADA" d="M150.45,131.16c0.1-1.47,0.1-3.59-0.39-6.09
		c-0.21-1.06-0.46-1.96-0.69-2.67c-0.92-2.84-2.12-6.58-4.58-7.28c-0.84-0.24-1.39-0.01-4.33,1.12c-2.93,1.13-5.23,1.99-6.54,2.48
		c0.86,3.19,1.72,6.37,2.59,9.56C141.16,129.24,145.8,130.2,150.45,131.16z"/>
	<path id="leftMiddlePhalanx4BaseRadial" fill="#DADADA" d="M154.31,201.44c1.35-0.3,3.17-0.78,5.28-1.53c0.27-0.1,1.65-0.61,3-1.2
		c4.68-2.07,7.02-3.11,8.09-5.39c1.21-2.58,0.16-5.46-1.89-10.79c-1.03-2.68-2.16-4.81-3.04-6.31c-4.95,4.22-9.9,8.43-14.86,12.65
		C152.03,193.06,153.17,197.25,154.31,201.44z"/>
	<path id="leftMiddlePhalanx4BaseUlnar" fill="#DADADA" d="M133.36,185.62c-0.24,0.6-2.68,6.93,0.65,12.28
		c0.39,0.63,2.66,4.19,6.74,5.39c0.18,0.05,0.37,0.1,0.59,0.14c2.75,0.52,4.65-0.06,8.31-0.95c1.09-0.27,2.69-0.64,4.66-1.04
		c-1.14-4.19-2.28-8.39-3.41-12.58C145.05,187.78,139.2,186.7,133.36,185.62z"/>
	<path id="leftMiddlePhalanx4Shaft" fill="#DADADA" d="M123.76,137.76c0.44,0.98,1.13,2.52,2.02,4.38c1.56,3.25,2.6,4.97,3.1,6.13
		c3.01,6.9,3.69,12.92,4.31,18.34c0.14,1.19,0.35,3.08,0.48,5.51c0.19,3.36,0.14,6.19,0.06,8.24c-0.09,2.07-0.24,3.85-0.38,5.25
		c5.85,1.08,11.69,2.16,17.54,3.25c4.95-4.22,9.9-8.43,14.86-12.65c-1.82-2.65-3.99-6.14-6.13-10.41c-3.28-6.58-4.9-11.9-5.93-15.37
		c-1.57-5.26-3.12-10.58-3.24-17.8c-0.01-0.62-0.01-1.14,0-1.48c-4.65-0.96-9.29-1.92-13.94-2.88
		C132.26,131.44,128.01,134.6,123.76,137.76z"/>
	<path id="leftMiddlePhalanx4HeadUlnar" fill="#DADADA" d="M133.93,118.72c-1.2,0.36-2.2,0.57-2.89,0.71
		c-4.58,0.89-7.69,0.4-9.17,2.43c-0.03,0.05-0.07,0.1-0.11,0.17c-0.92,1.46-0.9,3.1-0.7,4.69c0.27,2.08,1.11,6.04,2.7,11.06
		c4.25-3.16,8.5-6.32,12.75-9.48C135.65,125.09,134.79,121.91,133.93,118.72z"/>
	<path id="leftDistalPhalanx4TuftRadial" fill="#EDEDED" d="M131.58,75.2c-1.09-4.63-3.1-7.32-4.84-8.91
		c-0.11-0.1-0.21-0.19-0.28-0.25c-0.77-0.67-4.68-3.92-9.44-3.24c-0.37,0.05-0.93,0.16-1.6,0.38c1.16,3.3,2.32,6.61,3.48,9.91
		C123.12,73.79,127.35,74.5,131.58,75.2z"/>
	<path id="leftDistalPhalanx4Shaft" fill="#EDEDED" d="M138.45,96.54c-1.35-2.06-3.01-4.93-4.18-8.13c-0.6-1.65-0.84-2.74-0.92-3.12
		c-0.41-2.03-0.28-3.08-0.45-4.74c-0.13-1.29-0.45-3.13-1.34-5.35c-4.23-0.7-8.46-1.41-12.69-2.11c-3.02,2.91-6.05,5.81-9.07,8.72
		c0.17,0.53,0.42,1.22,0.73,2.03c0.35,0.9,1.03,2.64,2.02,4.46c1.57,2.89,2.23,2.85,3.09,5.05c0.47,1.19,0.63,2.12,0.82,3.16
		c0.28,1.57,0.54,3.9,0.27,6.8c4.13,0.96,8.26,1.91,12.39,2.87C132.25,102.96,135.35,99.75,138.45,96.54z"/>
	<path id="leftDistalPhalanx4BaseRadial" fill="#EDEDED" d="M133.18,116.51c1.55-0.44,3.8-1.23,6.22-2.75
		c2.57-1.6,5.88-3.67,5.93-6.47c0.02-0.98-0.37-1.66-2.43-4.58c-1.74-2.48-3.27-4.57-4.45-6.16c-3.1,3.21-6.21,6.42-9.31,9.62
		C130.49,109.62,131.83,113.06,133.18,116.51z"/>
	<path id="leftDistalPhalanx4BaseUlnar" fill="#EDEDED" d="M116.75,103.3c-0.11,1.44-0.24,3.46-0.27,5.88
		c-0.08,5.38,0.36,6.23,0.81,6.74c1.42,1.59,3.85,1.73,6.47,1.89c2.48,0.15,4.64-0.25,6.2-0.54c1.33-0.25,2.42-0.53,3.21-0.76
		c-1.35-3.45-2.69-6.89-4.04-10.34C125.01,105.21,120.88,104.26,116.75,103.3z"/>
	<path id="leftDistalPhalanx4TuftUlnar" fill="#EDEDED" d="M115.41,63.18c-1.26,0.41-4.43,1.65-5.95,4.74
		c-0.78,1.6-0.81,3.06-0.82,5.35c-0.01,2.04,0.18,5,1.17,8.54c3.02-2.91,6.05-5.81,9.07-8.72
		C117.73,69.79,116.57,66.48,115.41,63.18z"/>
	<path id="leftMetacarpal3HeadRadial" fill="#9D9D9C" d="M268.97,349.45c0.19-2.84,0.27-6.85-0.27-11.6
		c-0.97-8.44-1.44-14.6-5.93-18.07c-1.83-1.41-3.91-2.08-6.26-2.83c-3.56-1.14-6.69-1.43-8.84-1.48
		c-0.56,7.42-1.12,14.83-1.67,22.25C253.65,341.63,261.31,345.54,268.97,349.45z"/>
	<path id="leftMetacarpal3Shaft" fill="#9D9D9C" d="M266.37,490.56c-0.32-0.83-0.75-2.01-1.17-3.45c0,0-0.31-0.95-0.52-1.93
		c-0.59-2.69-0.7-6.2-1.77-21.53c-1.7-24.35-1.81-20.33-2.29-30.88c-0.2-4.28-0.4-13.46-0.81-31.82
		c-0.22-9.72-0.32-15.69,0.67-23.87c0.88-7.18,2.1-11.94,3.37-15.78c1.65-5,3.58-9.01,5.12-11.87c-7.66-3.91-15.32-7.82-22.98-11.73
		c-7.99,3.33-15.99,6.65-23.98,9.98c-0.05,1.02-0.05,2.25,0.03,3.64c0.04,0.57,0.15,2.11,0.47,3.84c0.46,2.5,0.83,2.55,2.17,6.94
		c0.37,1.22,1.02,3.43,1.67,6.21c0,0,0.23,1,0.45,2.03c1.23,5.83,2.56,18.42,3.05,23.05c0.81,7.63,0.87,7.92,1.18,11.15
		c0.26,2.75,0.44,4.88,0.83,8.66c0.02,0.23,0.34,3.26,0.69,6.34c1.21,10.58,1.96,13.77,2.86,22.57c0.16,1.56,0.41,3.99,0.64,7.23
		c0.35,4.8,0.87,12.12,0.54,21.3c-0.15,4.11-0.5,9.53-1.35,15.91c5.01,3.42,10.03,6.83,15.04,10.25
		C255.66,494.73,261.02,492.65,266.37,490.56z"/>
	<path id="leftMetacarpal3BaseRadial" fill="#9D9D9C" d="M249.56,518.39c2.42,0.5,5.88,0.9,9.92,0.27c3.84-0.6,6.93-1.08,8.77-3.57
		c1.51-2.04,1.57-4.62,1.67-8.84c0.05-2.2-0.12-3.89-0.2-4.57c-0.3-2.56-1.08-6.53-3.35-11.13c-5.35,2.09-10.71,4.17-16.06,6.26
		C250.06,504.01,249.81,511.2,249.56,518.39z"/>
	<path id="leftMetacarpal3BaseUlnar" fill="#9D9D9C" d="M235.26,486.57c-1.35,5.76-2.3,10.71-2.97,14.56
		c-1.41,8.15-1.5,11,0.27,12.94c0.64,0.7,1.52,1.29,6.42,2.43c4.39,1.03,8.06,1.58,10.57,1.89c0.25-7.19,0.5-14.38,0.75-21.57
		C245.29,493.4,240.28,489.99,235.26,486.57z"/>
	<path id="leftMetacarpal3HeadUlnar" fill="#9D9D9C" d="M247.67,315.47c-2.25-0.51-7.91-1.45-12.94,1.62
		c-3.9,2.38-5.47,5.99-7.82,11.6c-1.75,4.17-3.94,10.6-4.89,19.01c7.99-3.33,15.99-6.65,23.98-9.98
		C246.55,330.3,247.11,322.89,247.67,315.47z"/>
	<path id="leftProximalPhalanx3HeadRadial" fill="#C6C6C6" d="M260.61,186.71c0.33-1.4,1.72-7.9-2.16-13.21
		c-1.76-2.42-3.93-3.65-5.12-4.31c-5.06-2.81-10.06-2.47-12.2-2.19c0.45,3.88,0.9,7.75,1.35,11.63
		C248.53,181.31,254.57,184.01,260.61,186.71z"/>
	<path id="leftProximalPhalanx3Shaft" fill="#C6C6C6" d="M269.12,288.99c-3.2-5.56-5.14-10.58-6.35-14.37
		c-2.48-7.77-3.1-14.27-3.51-18.34c-0.79-7.85,0.04-8.05-0.27-22.11c-0.12-5.34-0.43-14.01-0.81-22.11
		c-0.35-7.45-0.57-10.43,0.27-15.1c0.12-0.67,1.09-3.34,1.72-7.1c0.23-1.35,0.36-2.45,0.43-3.15c-6.04-2.7-12.08-5.39-18.12-8.09
		c-6.12,2.89-12.24,5.78-18.36,8.66c0.44,3.04,0.86,4.71,1.19,5.7c0.03,0.09,0.12,0.36,0.24,0.74c0,0,0.49,1.54,0.86,3.13
		c0.77,3.29,1.3,33.55,1.3,33.55c0.03,1.62,0.28,7.4,0.78,18.95c0.14,3.12,0.16,6.24,0.3,9.36c0.18,4.08,0.41,8.02-0.27,13.48
		c-0.02,0.18-0.04,0.31-0.06,0.45c-0.52,3.95-1.38,8.56-2.81,13.76c6.78,3.08,13.56,6.17,20.34,9.25
		C253.7,293.43,261.41,291.21,269.12,288.99z"/>
	<path id="leftProximalPhalanx3BaseRadial" fill="#C6C6C6" d="M245.95,312.53c3.35,0.03,5.9,0.63,7.65,1.19
		c2.3,0.74,4.88,1.73,8.33,1.29c0.27-0.04,0.54-0.1,0.84-0.21c4.53-1.55,6.35-7.34,7.01-9.44c1.78-5.67,0.62-10.84,0-13.75
		c-0.23-1.1-0.48-2-0.66-2.62c-7.71,2.22-15.42,4.44-23.12,6.67C245.98,301.28,245.97,306.91,245.95,312.53z"/>
	<path id="leftProximalPhalanx3BaseUlnar" fill="#C6C6C6" d="M225.65,286.4c-0.23,0.97-0.56,2.39-0.9,4.13
		c-0.93,4.75-1.44,8.2-1.35,12.4c0.09,4.3,0.72,6.13,1.89,7.55c2.04,2.48,5.15,2.98,6.74,3.24c1.04,0.17,1.89,0.2,2.65,0.14
		c3.6-0.28,4.92-1.36,8.41-1.49c0.63-0.02,1.63-0.02,2.87,0.16c0.01-5.63,0.03-11.25,0.04-16.88
		C239.21,292.57,232.43,289.48,225.65,286.4z"/>
	<path id="leftProximalPhalanx3HeadlUlnar" fill="#C6C6C6" d="M241.14,166.99c-1.19,0.12-2.86,0.35-4.79,0.85
		c-4.18,1.06-7.02,1.78-9.17,4.04c-3.4,3.57-3.3,9.12-3.24,12.67c0.02,1.14,0.11,2.09,0.19,2.73c6.12-2.89,12.24-5.78,18.36-8.66
		C242.04,174.74,241.59,170.86,241.14,166.99z"/>
	<path id="leftMiddlePhalanx3HeadRadial" fill="#DADADA" d="M247.62,94.08c0.46-1.34,0.99-3.38,1.01-5.92
		c0-0.49-0.01-0.85-0.02-1.09c-0.13-2.85-0.28-6.12-2.12-7.87c-0.92-0.87-2.16-1.06-4.63-1.44c-2.81-0.43-5.16-0.33-6.69-0.18
		c-0.05,3.6-0.09,7.19-0.14,10.79C239.23,90.27,243.42,92.18,247.62,94.08z"/>
	<path id="leftMiddlePhalanx3Shaft" fill="#DADADA" d="M250.82,143.51c-0.75-1.55-1.67-3.64-2.56-6.18c0,0-0.54-1.53-0.99-3.08
		c-2.43-8.46-2.45-15.55-2.43-20.22c0.02-3.9,0.13-7.46,0.78-11.39c0.1-0.59,0.5-2.57,1.1-5.06c0.35-1.46,0.67-2.66,0.9-3.5
		c-4.2-1.9-8.4-3.81-12.59-5.71c-4.54,2.2-9.09,4.41-13.63,6.61c0.13,0.66,0.32,1.65,0.52,2.87c0.85,5.24,1,9.22,1.08,11.06
		c0.45,10.94,0.95,10.68,1.08,18.88c0.07,4.64,0.01,10.89-0.54,18.34c4.49,2.02,8.98,4.04,13.47,6.07
		C241.61,149.3,246.21,146.41,250.82,143.51z"/>
	<path id="leftMiddlePhalanx3BaseRadial" fill="#DADADA" d="M238.79,164.41c1.45-0.28,3.54-0.56,6.05-0.48
		c6.56,0.21,9.15,2.69,10.79,1.35c1.84-1.52,0.42-6.22-1.62-12.94c-1.1-3.64-2.27-6.64-3.19-8.81c-4.6,2.89-9.21,5.78-13.81,8.68
		C237.6,156.26,238.19,160.33,238.79,164.41z"/>
	<path id="leftMiddlePhalanx3BaseUlnar" fill="#DADADA" d="M223.53,146.12c-0.6,1.96-1.29,4.71-1.63,8.04
		c-0.45,4.45-1.13,11.24,1.9,12.99c1.07,0.62,1.92,0.2,8.63-1.35c2.77-0.64,5.01-1.12,6.35-1.4c-0.59-4.07-1.19-8.14-1.78-12.21
		C232.51,150.17,228.02,148.15,223.53,146.12z"/>
	<path id="leftMiddlePhalanx3HeadUlnar" fill="#DADADA" d="M235.17,77.58c-1.89,0-10.05,0.07-12.22,2.14
		c-0.19,0.19-0.36,0.38-0.36,0.38c-1.22,1.38-1.59,3.08-1.74,5.08c-0.31,4.11,0.38,8.68,0.56,9.8c4.54-2.2,9.09-4.41,13.63-6.61
		C235.07,84.78,235.12,81.18,235.17,77.58z"/>
	<path id="leftDistalPhalanx3TuftRadial" fill="#EDEDED" d="M246.74,30.3c0.3-1.02,0.64-2.56,0.62-4.45c0,0-0.01-0.8-0.1-1.6
		c-0.22-1.96-0.91-8.09-5.39-10.79c-0.86-0.52-2.76-1.45-5.76-1.25c0.12,3.52,0.24,7.04,0.36,10.55
		C239.89,25.27,243.32,27.78,246.74,30.3z"/>
	<path id="leftDistalPhalanx3Shaft" fill="#EDEDED" d="M245.19,58.6c-0.94-3.63-1.15-6.63-1.16-8.75
		c-0.02-3.84,0.62-7.59,1.62-13.48c0.16-0.97,0.35-2.02,0.35-2.02c0.29-1.66,0.55-3.04,0.74-4.06c-3.42-2.51-6.85-5.03-10.27-7.54
		c-3.88,2.51-7.77,5.03-11.65,7.54c0.01,0.36,0.03,0.88,0.07,1.49c0.07,1.24,0.2,3.26,0.61,5.59c0.4,2.27,0.63,2.34,0.85,4.18
		c0,0,0.17,1.46,0.16,3.18c-0.02,2.66-0.84,7.65-2.65,13.87c3.31,1.95,6.62,3.91,9.92,5.86C237.58,62.51,241.38,60.56,245.19,58.6z"
		/>
	<path id="leftDistalPhalanx3BaseRadial" fill="#EDEDED" d="M234.59,74.66c2.99,0.08,5.62,0.08,7.81,0.04
		c2.16-0.03,3.27-0.08,4.33-0.85c1.86-1.35,2.12-3.85,2.16-4.31c0.19-2.2-0.83-3.13-2.97-8.9c-0.32-0.87-0.57-1.59-0.73-2.04
		c-3.81,1.95-7.61,3.91-11.42,5.86C234.04,67.86,234.32,71.26,234.59,74.66z"/>
	<path id="leftDistalPhalanx3BaseUlnar" fill="#EDEDED" d="M223.85,58.6c-0.09,0.18-0.23,0.43-0.4,0.73c0,0-0.22,0.39-0.46,0.77
		c-2.18,3.48-4.53,4.9-4.58,8.36c-0.01,0.52,0,3.58,2.16,5.39c1.05,0.88,2.32,1.22,5.12,1.35c0.15,0.01,0.36,0.02,0.65,0.03
		c0,0,1,0.03,2.16-0.02c0.98-0.04,3.19-0.21,6.09-0.55c-0.27-3.4-0.55-6.8-0.82-10.2C230.46,62.51,227.15,60.55,223.85,58.6z"/>
	<path id="leftDistalPhalanx3TuftUlnar" fill="#EDEDED" d="M236.11,12.2c-1.51,0.08-2.67,0.43-3.41,0.71
		c-3.56,1.37-5.39,4.25-5.93,5.12c0,0-0.21,0.33-0.39,0.68c-1.84,3.43-1.78,8.58-1.57,11.58c3.88-2.51,7.77-5.03,11.65-7.54
		C236.35,19.23,236.23,15.72,236.11,12.2z"/>
	<path id="leftMetacarpal2HeadRadial" fill="#9D9D9C" d="M340.06,349.4c0.15-2.18,0.25-5.36-0.03-9.17
		c-0.52-6.99-0.87-11.78-4.04-16.72c-3.3-5.15-7.9-7.73-9.71-8.63c-2.5-1.25-4.77-1.85-6.41-2.17c-0.89,7.17-1.79,14.34-2.68,21.51
		C324.81,339.27,332.43,344.34,340.06,349.4z"/>
	<path id="leftMetacarpale2Shaft" fill="#9D9D9C" d="M315.14,492.91c-0.22-1.56-0.37-2.81-0.46-3.56
		c-0.84-7.19-1.4-16.64-0.81-28.31c0.14-2.69,0.38-5.88,4.31-33.71c3.91-27.68,2.77-18.08,3.78-25.75
		c1.31-10.03,1.88-15.92,4.31-24.67c1.95-7,3-10.57,5.66-14.56c1.64-2.45,5.73-5.17,7.55-10.79c0.29-0.89,0.46-1.65,0.57-2.15
		c-7.62-5.06-15.25-10.12-22.87-15.18c-9.55,4.43-19.11,8.86-28.66,13.29c0.09,0.67,0.24,1.67,0.46,2.87c0.89,4.68,2.14,7.94,2.5,9
		c1.47,4.27,0.59,7.75,0,14.29c-0.35,3.85,0.09,1.22,0,22.11c-0.05,11.81-0.07,17.71-0.27,22.65c-0.11,2.75-0.56,13.37-2.16,27.24
		c-0.12,1.05-1.08,9.28-2.97,19.15c0,0-1.5,7.85-3.8,13.72c-0.87,2.21-1.86,4.35-1.86,4.35c-0.63,1.37-1.18,2.45-1.66,3.39
		c-0.65,1.28-1.23,2.37-1.68,3.2c5.27,3.62,10.55,7.24,15.82,10.86C300.32,497.85,307.73,495.38,315.14,492.91z"/>
	<path id="leftMetacarpal2BaseRadial" fill="#9D9D9C" d="M291.62,523.24c1.75,0.51,4.21,1.07,7.19,1.26c1.2,0.07,3.32,0.2,5.93-0.18
		c2.18-0.31,5.84-0.84,8.27-2.7c1.12-0.86,4.01-3.54,3.96-14.92c-0.01-1.82-0.14-3.42-0.23-4.43c-0.35-3.91-1.03-7.12-1.6-9.36
		c-7.41,2.47-14.82,4.94-22.22,7.41C292.49,507.96,292.05,515.6,291.62,523.24z"/>
	<path id="leftMetacarpal2BaseUlnar" fill="#9D9D9C" d="M277.1,489.46c-2.22,3.64-3.48,6.63-3.87,7.98
		c-0.42,1.44-0.61,2.82-0.61,2.82c-0.28,1.98,0.03,1.72-0.34,5.67c-0.43,4.57-0.96,6.07-0.25,8.3c0.76,2.38,2.37,3.85,2.7,4.13
		c2.45,2.16,4.36,1.38,11.33,3.24c0.62,0.17,1.11,0.31,1.51,0.43c0.96,0.29,1.3,0.42,2.08,0.66c0.45,0.14,1.13,0.33,1.98,0.53
		c0.43-7.64,0.86-15.27,1.29-22.91C287.64,496.71,282.37,493.08,277.1,489.46z"/>
	<path id="leftMetacarpal2HeadUlnar" fill="#9D9D9C" d="M319.87,312.71c-1.19-0.24-2.88-0.5-4.92-0.53
		c-1.69-0.02-9.07-0.13-15.1,4.31c-5.16,3.8-6.83,9.07-8.9,15.64c-2.01,6.35-2.4,11.85-2.43,15.37c9.55-4.43,19.11-8.86,28.66-13.29
		C318.08,327.05,318.97,319.88,319.87,312.71z"/>
	<path id="leftProximalPhalanx2HeadRadial" fill="#C6C6C6" d="M356.04,200.3c0.16-0.5,0.34-1.12,0.53-1.82c0,0,0.27-1.04,0.5-2.06
		c1.44-6.56,0.9-10.79,0.71-12.04c-0.2-1.32-0.25-1.59-0.36-1.8c-0.83-1.57-2.93-2.11-8.95-2.61c-2.08-0.17-4.77-0.35-7.95-0.45
		c-0.23,3.57-0.45,7.13-0.68,10.7C345.24,193.58,350.64,196.94,356.04,200.3z"/>
	<path id="leftProximalPhalanx2Shaft" fill="#C6C6C6" d="M348.16,286.84c-2.73-7.18-3.36-13.11-3.42-17.26
		c-0.07-5.05,0.66-10.51,2.34-21.39c1.81-11.77,1.13-12.9,2.7-23.37c0.91-6.1,1.56-10.62,3.15-16c0.63-2.12,1.61-5.07,3.11-8.52
		c-5.4-3.36-10.8-6.72-16.2-10.08c-6.66,1.01-13.31,2.01-19.97,3.02c0,2.55-0.06,6.26-0.33,10.73c-0.44,7.27-1.13,11.53-2.43,21.03
		c-1.55,11.42-2.33,17.13-3.01,23.1c0,0-1.26,11.01-4.07,19.92c-0.12,0.39-0.24,0.76-0.24,0.76c-1.41,4.27-2.95,7.53-4.13,9.77
		c5.64,4.8,11.29,9.61,16.93,14.41C331.11,290.92,339.63,288.88,348.16,286.84z"/>
	<path id="leftProximalPhalanx2BaseRadial" fill="#C6C6C6" d="M321.42,309.19c2.1,0.31,3.67,0.9,4.72,1.38
		c2.62,1.21,3.66,2.33,6.79,3.72c0.69,0.31,1.5,0.57,2.56,0.77c1.17,0.22,5.6,1.19,8.55-0.72c1.82-1.18,2.39-3.18,3.52-7.19
		c0.74-2.61,1.79-7.34,1.45-13.67c-0.15-2.79-0.53-5.08-0.84-6.65c-8.53,2.04-17.06,4.07-25.58,6.11
		C322.19,298.37,321.8,303.78,321.42,309.19z"/>
	<path id="leftProximalPhalanx2BaseUlnar" fill="#C6C6C6" d="M305.65,278.54c-0.57,1.16-1.39,2.88-2.34,4.97
		c-2.24,4.95-3.41,7.41-4.04,9.98c-1.08,4.37-2.39,9.28,0.18,12.22c1.35,1.55,3.3,2.03,5.29,2.52c2.85,0.7,4.61,0.26,7.73,0.18
		c2.16-0.06,5.21,0.04,8.95,0.77c0.39-5.41,0.78-10.82,1.16-16.23C316.94,288.15,311.29,283.35,305.65,278.54z"/>
	<path id="leftProximalPhalanx2HeadUlnar" fill="#C6C6C6" d="M340.51,179.52c-2.47-0.92-4.57-1.55-6.07-1.98
		c-7.68-2.16-9.76-1.5-11.01-0.54c-0.19,0.15-0.32,0.26-0.44,0.38c-2.13,2.04-2.18,5.13-2.61,10.41c-0.1,1.24-0.27,3.12-0.52,5.45
		c6.66-1.01,13.31-2.01,19.97-3.02C340.06,186.65,340.29,183.08,340.51,179.52z"/>
	<path id="leftMiddlePhalanx2HeadRadial" fill="#DADADA" d="M371.53,106c0.98-1.4,2.72-4.35,2.7-8.27c-0.01-1.75-0.03-4.51-1.9-6.3
		c-1.06-1.02-2.07-1.11-6.79-2.16c-2.42-0.54-4.38-1-5.6-1.3c-0.35,2.95-0.7,5.9-1.06,8.85C363.11,99.88,367.32,102.94,371.53,106z"
		/>
	<path id="leftMiddlePhalanx2Shaft" fill="#DADADA" d="M361.55,155.43c-0.08-1.12-0.19-2.73-0.26-4.67
		c-0.16-4.52-0.38-10.43,0.72-17.8c0.94-6.27,1.66-11.15,4.49-16.9c0.2-0.41,1.28-2.49,2.78-5.5c0.98-1.96,1.76-3.56,2.25-4.57
		c-4.21-3.06-8.43-6.12-12.64-9.18c-5.66,1.51-11.31,3.03-16.97,4.54c-0.27,2.73-0.7,6.69-1.31,11.47
		c-1.14,8.82-1.71,13.22-2.7,16.9c-0.67,2.47-2.73,9.58-7.37,17.8c-0.98,1.74-1.87,3.16-2.52,4.16c4.96,3.4,9.91,6.81,14.87,10.21
		C349.11,159.74,355.33,157.59,361.55,155.43z"/>
	<path id="leftMiddlePhalanx2BaseRadial" fill="#DADADA" d="M341.15,176.11c2.76,0.47,5.48,0.71,8.17,0.71h0
		c1.86-0.01,4.63-0.05,8.09-0.9c2.84-0.7,4.25-1.04,5.13-2.15c1.39-1.75,0.53-4-0.18-8.63c-0.36-2.33-0.75-5.64-0.82-9.72
		c-6.22,2.16-12.44,4.31-18.65,6.47C342.31,166.64,341.73,171.37,341.15,176.11z"/>
	<path id="leftMiddlePhalanx2BaseUlnar" fill="#DADADA" d="M328.02,151.68c-0.89,1.27-2.04,3.14-2.96,5.6
		c-0.65,1.74-0.93,3.1-0.99,3.37c-0.69,3.21-1.51,6.97,0.54,9.71c1.06,1.42,4.42,2.44,11.15,4.49c0.43,0.13,1.24,0.38,2.32,0.64
		c1.23,0.3,2.29,0.49,3.07,0.62c0.58-4.74,1.16-9.48,1.74-14.21C337.94,158.49,332.98,155.09,328.02,151.68z"/>
	<path id="leftMiddlePhalanx2HeadUlnar" fill="#DADADA" d="M359.95,87.97c-0.27-0.05-0.63-0.11-1.04-0.18c0,0-0.38-0.07-0.78-0.14
		c-7.54-1.37-10-2.46-12.4-0.72c-1.72,1.24-2.49,3.27-2.96,4.51c-0.33,0.88-0.4,1.67-0.72,7.55c-0.05,0.97-0.1,1.78-0.13,2.37
		c5.66-1.51,11.31-3.03,16.97-4.54C359.25,93.87,359.6,90.92,359.95,87.97z"/>
	<path id="leftDistalPhalanx2TuftRadial" fill="#EDEDED" d="M377.94,45.14c0.54-1.66,1.21-4.58,0.59-8.09
		c-0.27-1.55-1.09-5.81-4.85-8.99c-2.08-1.76-4.25-2.5-5.51-2.82c-0.22,3.42-0.43,6.85-0.65,10.27
		C371,38.73,374.47,41.93,377.94,45.14z"/>
	<path id="leftDistalPhalanx2Shaft" fill="#EDEDED" d="M374.23,71.46c-0.1-0.52-0.23-1.29-0.37-2.22c-0.41-2.8-0.82-5.53-0.54-8.99
		c0.23-2.85,0.81-5.01,1.08-5.93c0.22-0.76,0.44-1.39,0.65-1.94c0.66-1.7,1.09-2.42,1.69-3.81c0.33-0.78,0.79-1.93,1.21-3.42
		c-3.47-3.21-6.95-6.42-10.42-9.63c-4.37,2.1-8.74,4.19-13.11,6.29c0.05,2.18,0.23,3.93,0.39,5.14c0.22,1.62,0.48,2.89,0.63,5.12
		c0.08,1.14,0.09,2,0.09,2.25c0.01,0.93,0,4.43-1.08,8.99c-0.27,1.13-0.68,2.67-1.32,4.45c2.94,2.44,5.89,4.87,8.83,7.31
		C366.04,73.86,370.14,72.66,374.23,71.46z"/>
	<path id="leftDistalPhalanx2BaseRadial" fill="#EDEDED" d="M359.95,85.28c0.92,0.12,2.35,0.31,4.09,0.61
		c1.98,0.34,2.18,0.37,3.34,0.61c1.34,0.27,3.3,0.69,5.75,0.18c1.36-0.28,3.36-0.7,4.13-2.16c0.76-1.42-0.21-2.85-1.26-5.93
		c-0.5-1.46-0.53-1.64-0.76-2.45c-0.55-1.96-0.86-3.59-1.03-4.67c-4.09,1.2-8.19,2.41-12.28,3.61
		C361.28,78.47,360.62,81.87,359.95,85.28z"/>
	<path id="leftDistalPhalanx2BaseUlnar" fill="#EDEDED" d="M353.12,67.76c-0.24,0.7-0.68,1.75-1.45,2.9c-0.4,0.58-0.75,1-1,1.28
		c-2.23,2.5-4.27,2.85-4.67,5.09c-0.38,2.16,1.05,4.01,1.25,4.26c0.71,0.88,1.69,1.53,5.85,2.6c1.7,0.44,4.03,0.96,6.85,1.4
		c0.67-3.4,1.33-6.81,2-10.21C359.01,72.63,356.06,70.19,353.12,67.76z"/>
	<path id="leftDistalPhalanx2TuftUlnar" fill="#EDEDED" d="M368.17,25.24c-0.98-0.22-2.48-0.41-4.2-0.05
		c-4.57,0.96-6.91,5.05-7.73,6.47c-2.46,4.29-2.06,8.57-1.83,10.15c4.37-2.1,8.74-4.19,13.11-6.29
		C367.74,32.09,367.96,28.67,368.17,25.24z"/>
	<path id="leftMetacarpal1HeadRadial" fill="#9D9D9C" d="M406.96,452.58c1.38-1.82,3.23-4.56,4.85-8.18
		c2.17-4.84,3.37-7.76,2.88-11.51c-0.65-4.94-4.1-8.1-6.83-10.61c-1.5-1.38-3.21-2.52-3.21-2.52c-1.09-0.73-2.09-1.28-2.92-1.69
		c-2.29,5.84-4.59,11.69-6.88,17.53C398.89,441.27,402.92,446.93,406.96,452.58z"/>
	<path id="leftMetacarpal1BaseRadial" fill="#9D9D9C" d="M328.47,536.57c1.3,0.73,3.11,1.75,5.28,2.94c4,2.2,6.26,3.34,9.49,3.99
		c0.13,0.03,0.24,0.05,0.34,0.06c2.68,0.47,5.79,1.01,8.24-0.69c1.71-1.18,1.9-2.66,3.73-6.7c0.97-2.13,2.63-5.3,4.31-8.45
		c0.75-1.4,1.38-2.55,1.81-3.32c-7.64-1.29-15.27-2.57-22.91-3.86C335.33,525.89,331.9,531.23,328.47,536.57z"/>
	<path id="leftMetacarpal1BaseUlnar" fill="#9D9D9C" d="M331.28,504.9c-2,0.73-5.62,2.37-8.81,5.93c-1.46,1.63-3.2,4.08-4.31,7.37
		c-0.81,2.4-1.58,4.67-0.99,7.28c0.7,3.11,2.94,4.92,6.61,7.82c1.17,0.92,2.5,1.85,2.5,1.85c0.88,0.6,1.64,1.08,2.19,1.42
		c3.43-5.34,6.86-10.68,10.29-16.02C336.26,515.33,333.77,510.12,331.28,504.9z"/>
	<path id="leftMetacarpal1Shaft" fill="#9D9D9C" d="M374.06,440.99c-0.75,2.67-1.75,5.88-3.05,9.49c-0.27,0.74-1.43,3.96-3.07,7.77
		c-2.19,5.11-5.16,11.94-10.43,20.13c-3.18,4.95-6.54,10.18-12.4,15.91c-5.14,5.02-10.14,8.42-13.84,10.61
		c2.49,5.22,4.99,10.43,7.48,15.65c7.64,1.29,15.27,2.57,22.91,3.86c2.59-4.38,4.77-7.92,6.28-10.34
		c3.64-5.83,9.64-15.17,11.16-17.45c0.2-0.31,1.04-1.56,2.11-3.29c0,0,0.2-0.33,0.4-0.66c1.71-2.83,7.03-13.15,10.85-19.66
		c1.69-2.88,3.07-4.98,3.89-6.23c4.05-6.15,7.84-10.93,10.61-14.2c-4.04-5.66-8.07-11.32-12.11-16.98
		C387.92,437.4,380.99,439.19,374.06,440.99z"/>
	<path id="leftMetacarpal1HeadUlnar" fill="#9D9D9C" d="M401.73,418.08c-4.53-1.98-8.44-2.88-11.12-3.34
		c-5.26-0.89-9.14-1.58-11.69,0.72c-1.75,1.58-2.18,3.88-2.7,6.65c-0.77,4.14,0.08,5.86-0.18,10.07c-0.02,0.32-0.04,0.5-0.06,0.77
		c-0.34,3.57-1.2,6.27-1.91,8.04c6.93-1.79,13.86-3.59,20.79-5.38C397.14,429.76,399.43,423.92,401.73,418.08z"/>
	<path id="leftProximalPhalanx1BaseUlnar" fill="#C6C6C6" d="M403.74,415.58c-2.29-1.07-4.24-1.71-5.6-2.09
		c-5.29-1.48-8.51-1.39-12.86-3.69c-0.93-0.49-1.84-1.04-2.24-2.07c-0.39-1-0.53-3.15,4.85-8.99c1.05-1.14,1.92-1.98,2.66-2.67
		c2.34-2.19,4.45-3.8,5.97-4.88c4.39,4.46,8.77,8.93,13.16,13.39C407.7,408.26,405.72,411.92,403.74,415.58z"/>
	<path id="leftProximalPhalanx1BaseRadial" fill="#C6C6C6" d="M427.26,403.61c-0.29,1.39-0.7,3.36-1.21,5.71
		c-1.3,5.98-2.01,7.99-2.57,10.11c-0.98,3.69-2.01,6.71-4.13,7.19c-1.78,0.4-3.76-1.13-5.67-2.61c-0.54-0.42-1.02-0.83-1.45-1.23
		c-1.4-1.3-2.26-2.41-2.51-2.73c-0.85-1.06-2.49-2.58-5.99-4.48c1.98-3.66,3.96-7.32,5.94-10.99
		C415.54,404.27,421.4,403.94,427.26,403.61z"/>
	<path id="leftProximalPhalanx1Shaft" fill="#C6C6C6" d="M451.04,349.4c-2.38,4.03-5.53,9.68-8.85,16.64
		c-3.33,6.97-5.47,12.41-8.09,19.06c-1.87,4.76-4.25,11.03-6.83,18.52c-5.86,0.33-11.72,0.66-17.58,0.99
		c-4.39-4.46-8.77-8.93-13.16-13.39c4.9-5.37,8.84-10.02,11.69-13.48c3-3.66,7.24-8.96,11.87-16c4.46-6.78,5.97-10.12,6.47-14.2
		c0.43-3.49-0.01-6.45-0.46-8.43c5.05-0.91,10.09-1.81,15.14-2.72C444.5,340.71,447.77,345.06,451.04,349.4z"/>
	<path id="leftProximalPhalanx1HeadRadial" fill="#C6C6C6" d="M445.18,326.05c1.69,0.37,6.91,1.75,8.87,6
		c1.64,3.56,0.33,7.73-1.26,12.76c-0.62,1.97-1.28,3.54-1.76,4.58c-3.27-4.34-6.54-8.68-9.81-13.03
		C442.55,332.93,443.87,329.49,445.18,326.05z"/>
	<path id="leftProximalPhalanx1HeadUlnar" fill="#C6C6C6" d="M426.09,339.09c-0.03-0.73-0.01-1.67,0.16-2.75
		c0.03-0.21,0.26-1.54,0.84-3.03c0.56-1.42,1.49-3.73,3.78-5.57c4.07-3.3,9.64-2.51,12.04-2.16c0.96,0.14,1.75,0.33,2.28,0.47
		c-1.32,3.44-2.64,6.88-3.95,10.32C436.18,337.28,431.14,338.18,426.09,339.09z"/>
	<path id="leftDistalPhalanx1TuftRadial" fill="#EDEDED" d="M488.31,282.86c1.81-1.35,2.66-2.81,3.05-3.64
		c0.33-0.69,0.5-1.28,0.62-1.73c0.31-1.1,0.73-2.57,0.48-4.31c-0.26-1.85-1.15-3.21-1.78-3.99c-1.39,1.75-2.77,3.5-4.16,5.24
		C487.13,277.25,487.72,280.05,488.31,282.86z"/>
	<path id="leftDistalPhalanx1Shaft" fill="#EDEDED" d="M463.51,314.57c0.59-1.33,1.44-3.16,2.59-5.25c2.37-4.3,4.59-7.22,6.65-9.89
		c4.33-5.62,8.24-9.52,10.79-12.04c1.9-1.89,3.56-3.42,4.77-4.52c-0.59-2.81-1.18-5.62-1.77-8.42c-3.18,0.09-6.35,0.17-9.53,0.26
		c-1.71,2.99-3.46,5.22-4.8,6.75c-1.2,1.37-2.14,2.43-3.65,3.59c-1.83,1.4-2.66,1.55-4.52,2.88c-1.91,1.37-3.1,2.7-4.05,3.78
		c-3.74,4.2-4.66,7.66-7.43,10.54c-1.4,1.46-3,2.58-3,2.58c-0.63,0.44-1.17,0.77-1.54,0.98c1.27,2.79,2.55,5.58,3.82,8.37
		C455.73,314.3,459.62,314.43,463.51,314.57z"/>
	<path id="leftDistalPhalanx1BaseRadial" fill="#EDEDED" d="M447.16,323.33c0.61,0.23,1.6,0.64,2.75,1.26
		c4.91,2.67,5.75,5.68,8.38,5.58c1.87-0.08,3.61-1.41,4.38-2.88c1.08-2.07-0.12-3.74-0.36-6.65c-0.07-0.89-0.04-1.27-0.01-1.68
		c0.13-1.91,0.72-3.42,1.2-4.4c-3.89-0.13-7.78-0.26-11.67-0.4C450.28,317.22,448.72,320.28,447.16,323.33z"/>
	<path id="leftDistalPhalanx1BaseUlnar" fill="#EDEDED" d="M448.02,305.8c-0.68,0.38-1.67,0.95-2.83,1.67
		c-0.52,0.32-2.12,1.35-3.36,2.21c-3.88,2.69-5.95,4.52-6.47,7.19c-0.13,0.69-0.41,2.11,0.36,3.24c1.06,1.55,3.24,1.24,6.47,1.8l0,0
		c1.68,0.35,3.34,0.83,4.98,1.43c1.56-3.05,3.12-6.11,4.67-9.16C450.56,311.38,449.29,308.59,448.02,305.8z"/>
	<path id="leftDistalPhalanx1TuftUlnar" fill="#EDEDED" d="M490.69,269.19c-0.17-0.18-0.45-0.45-0.86-0.69
		c-2.59-1.47-6.4,0.73-7.91,1.62c-1.23,0.72-2.09,1.44-2.6,1.9c-1.06,0.96-1.8,1.92-2.31,2.67c3.18-0.09,6.35-0.17,9.53-0.26
		C487.92,272.69,489.3,270.94,490.69,269.19z"/>
	<path id="leftTrapezium" fill="#878787" d="M316.41,530.04c-0.72-0.7-2.2-2.14-4.45-2.56c-2.37-0.44-5.37,0.3-6.88,2.29
		c-1.21,1.6-0.84,3.17-0.67,7.15c0.05,1.28,0.26,7.13-0.54,12.54c-0.6,4.05-1.03,6.96-2.83,10.38c-1.61,3.05-2.96,3.95-2.7,5.8
		c0.43,3.04,4.7,4.76,6.61,5.53c4.61,1.86,8.8,1.42,11.73,1.08c1.39-0.16,5.29-0.71,9.84-2.83c3.8-1.77,6.15-3.74,8.76-5.93
		c4.5-3.77,6.76-5.73,7.42-9.03c0.13-0.68,0.66-3.31-0.67-5.8c-0.99-1.85-2.37-2.45-7.69-5.12c-4.77-2.4-7.19-3.62-8.9-4.72
		c-3.6-2.32-5.4-3.47-6.88-5.8C317.99,532.1,317.56,531.17,316.41,530.04z"/>
	<path id="leftTrapezoid" fill="#878787" d="M296.8,527.43c-3.34-0.97-5.93-1.64-6.88-1.89c-4.63-1.23-4.08-1.72-6.74-2.16
		c-2.74-0.45-5.72-0.93-8.09,0.81c-2.28,1.67-2.78,4.49-2.97,5.53c-0.41,2.28,0.21,3.27,0.67,6.88c0.2,1.59,0.23,3.76,0.27,8.09
		c0.06,5.71,0.09,8.57-0.27,9.84c-0.64,2.28-1.51,3.6-0.81,5.12c0.65,1.41,2.21,2.03,3.24,2.43c2.21,0.86,3.15,0.38,6.07,0.67
		c4.21,0.43,4.45,1.66,7.96,1.62c1.45-0.02,3.19-0.06,4.99-1.08c1.91-1.08,2.84-2.67,3.78-4.31c0.41-0.72,1.63-2.96,2.56-7.55
		c0.52-2.57,0.66-4.77,0.94-9.17c0.08-1.2,0.32-4.21,0.13-8.09c-0.13-2.71-0.38-4.16-1.45-5.25
		C299.56,528.27,298.9,528.04,296.8,527.43z"/>
	<path id="leftScaphoid" fill="#878787" d="M271.99,570.63c0.28-1.13,0.95-3.87,3.1-4.85c1.09-0.5,2.25-0.41,4.18-0.27
		c0.94,0.07,1.76,0.2,3.37,0.54c1.9,0.41,3.2,0.75,6.88,1.75c3.46,0.94,3.91,1.07,4.72,1.35c1.91,0.66,3,1.19,4.31,1.75
		c2.96,1.28,5.27,1.98,8.49,2.97c5.81,1.77,6.95,1.57,8.36,3.1c1.73,1.89,1.93,4.31,2.02,5.39c0.12,1.51,0.19,5.9-5.66,12.94
		c-1.66,1.99-4.48,5.04-13.35,11.06c-4.32,2.93-8.92,6.03-15.78,9.57c-6.93,3.58-13.02,6.68-21.57,8.36
		c-6.53,1.29-11.42,2.17-15.37-0.81c-4.24-3.2-4.67-8.79-4.72-9.57c-0.04-0.6-0.3-6.07,3.51-10.11c2.57-2.74,4.37-2.01,10.11-4.72
		c2.76-1.3,8.05-3.86,12.4-9.03c2.76-3.28,5.56-6.6,5.53-11.06C272.51,575.86,271.11,574.25,271.99,570.63z"/>
	<path id="leftCapitate" fill="#878787" d="M224.01,524.87c0.4-1.23,1.66-4.35,4.72-5.93c1.96-1.01,3.8-0.9,7.69-0.4
		c5.85,0.74,8.75,1.37,12,1.89c9.48,1.49,10.89,0.23,14.43,2.43c0.72,0.45,4.16,2.67,5.93,6.88c0.8,1.9,0.95,4.17,1.21,8.63
		c0.17,2.81,0.31,5.31,0.13,8.63c-0.32,5.98-1.25,6.17-1.75,12.27c-0.18,2.17-0.48,6.07,0,11.06c0.47,4.84,1.15,5.31,0.81,7.82
		c-0.57,4.16-3,6.98-5.12,9.44c-2,2.32-5.46,6.33-11.46,7.96c-1.83,0.5-5.52,1.5-9.57,0.13c-2.63-0.89-3.63-2.17-9.44-8.36
		c-7.84-8.35-8.53-8.69-9.03-10.65c-1.05-4.1,1.37-5.1,2.97-13.21c0.69-3.51,2.04-10.36,0.2-18.07c-0.84-3.54-2-5.76-3.51-12.67
		C223.53,529.58,223.19,527.4,224.01,524.87z"/>
	<path id="leftHamate" fill="#878787" d="M173.71,536.8c0.42-1.03,1.51-3.33,4.99-6.34c1.8-1.55,5.3-4.2,10.65-6.07
		c4.49-1.56,8.01-1.79,12.27-2.02c8.54-0.47,15.08-0.83,17.93,2.97c1.1,1.46,0.28,1.72,1.89,7.69c1.38,5.11,2.08,5.3,3.24,9.84
		c1.22,4.81,1.43,8.54,1.48,9.57c0.07,1.49,0.16,5-0.54,9.44c-0.83,5.23-2.34,9.12-3.1,10.92c-1.76,4.15-2.84,6.7-5.39,9.17
		c-0.56,0.54-6.85,6.47-11.73,4.45c-0.57-0.24-2.16-1.01-5.12-7.69c-2.73-6.13-2.29-7.49-4.31-12.13c-1.52-3.48-3.6-8.11-8.09-11.87
		c-2.63-2.2-3.16-1.64-8.53-5.6c-4.97-3.66-6.27-5.44-6.58-7.48C172.49,539.77,173.14,538.2,173.71,536.8z"/>
	<path id="leftPisiform" fill="#878787" d="M153.59,551.16c2.47-3.74,6.2-5.03,6.88-5.26c2.59-0.86,4.84-0.71,6.07-0.54
		c-0.37,2.45-0.78,5.87-0.94,9.98c-0.18,4.38-0.01,7.91,0.27,11.87c0.38,5.31,1.1,13.16,2.56,23.19c-2.58-0.88-6.78-2.73-10.65-6.61
		c-1.71-1.72-5.99-6.12-7.18-12.93c-0.5-2.87-0.1-5.74,0.71-11.47C152.11,553.64,153,552.05,153.59,551.16z"/>
	<path id="leftTriquetral" fill="#878787" d="M171.66,593.9c0.4,2.16,1.14,5.82,3.91,9.17c1.18,1.42,1.98,2.39,3.35,2.83
		c0.94,0.3,3.36,0.5,12.81-7.28c5.6-4.62,8.41-6.92,8.75-10.34c0.25-2.46-0.95-2.46-3.76-10.96c-1.28-3.87-1.31-4.75-2.7-8.36
		c-0.89-2.33-1.88-4.89-3.64-7.55c-0.58-0.88-1.88-2.81-4.02-4.72c-2.39-2.14-3.94-2.56-6.74-4.18c-6.75-3.9-7.74-7.21-9.44-6.61
		c-2.04,0.72-1.93,6.06-1.62,16.72c0.12,4.02,0.35,7.23,0.81,13.48C169.52,578.2,170.07,585.36,171.66,593.9z"/>
	<path id="leftLunate" fill="#878787" d="M184.3,611.08c0.62-2.63,2.17-4.26,3.64-5.8c1.47-1.54,2.13-1.76,5.66-4.31
		c0.36-0.26,3.7-2.69,7.15-5.53c4.8-3.96,4.21-4.12,6.2-5.26c4.42-2.53,5.84-0.9,8.63-3.37c2.19-1.93,2.5-3.98,5.12-4.85
		c0.47-0.16,1.72-0.56,3.1-0.13c1.16,0.35,1.84,1.12,2.43,1.75c1.37,1.5,2.89,2.87,4.18,4.45c1.75,2.15,3.6,3.95,7.28,7.55
		c2.82,2.75,3.46,3.17,3.78,4.45c0.47,1.93-0.47,3.16-1.89,6.61c-2.19,5.31-1.33,5.73-3.24,10.11c-1.51,3.48-2.62,6.04-4.72,7.96
		c-2.41,2.19-5.05,2.56-20.76,2.16c-10.81-0.28-13.86-0.56-17.8-2.29c-6.04-2.65-7.64-5.84-8.09-6.88
		C184.5,616.61,183.6,614.05,184.3,611.08z"/>
	<path id="leftRadius" fill="#706F6F" d="M316.43,637.85
		c-13.58,29.45-17.27,29.8-20.49,42.34c-2.54,9.87-2.49,18.38-2.43,30.74c0.06,10.44,0.97,19.2,1.89,25.62c-22.65,0-45.3,0-67.96,0
		c0.04-8.18,0.03-15.68,0-22.38c-0.1-20.8-0.39-23.31-1.62-26.97c-3.02-8.95-6.52-9.44-8.9-19.69c-0.05-0.23-0.66-5.1-1.89-14.83
		c-0.66-5.28-1.39-8.58-0.27-12.94c0.57-2.21,1.24-4.83,3.39-6.81c2.98-2.73,6.85-2.43,12.79-2.36c0,0,8.12,0.09,20.49-0.81
		c5.24-0.38,10.89-0.79,18.07-2.7c3.49-0.93,10.07-2.72,17.53-7.01L316.43,637.85z"/>
	<path id="leftRadialStyloidProcess" fill="#706F6F" d="M287.04,620.06c6.27-3.6,14.37-10.5,15.37-11.33
		c3.05-2.52,5.91-5.05,10.25-5.39c1.02-0.08,4.67-0.37,7.01,1.89c2.54,2.44,2.13,6.55,1.81,9.7c-1.61,15.48-5.04,22.93-5.04,22.93
		L287.04,620.06z"/>
	<path id="leftUlna" fill="#706F6F" d="M178.1,624.1
		c3.06,2.54,6.42,3.32,8.36,3.78c2.09,0.49,2.23,0.24,9.71,0.81c5.66,0.43,6.54,0.65,7.55,1.08c0.73,0.31,4.33,1.83,6.2,5.39
		c1.11,2.11,1.05,3.88,0.54,9.98c-0.67,7.97-1,11.96-1.35,13.48c-1.49,6.54-3.29,7.83-5.12,13.21c-1.77,5.21-1.74,10.19-1.62,19.96
		c0.14,10.82,1.14,14.59,1.89,27.24c0.44,7.44,0.53,13.48,0.54,17.26c-12.31,0-24.63,0-36.94,0c-0.23-10.39-0.14-18.89,0-24.81
		c0.14-6.18,0.36-10.86,0.54-21.03c0.27-15.13,0.04-18.09-0.81-21.84c-0.9-3.99-1.15-2.91-5.39-15.37
		c-4.33-12.72-4.7-15.71-4.85-17.26L178.1,624.1z"/>
	<path id="leftUlnarStyloidProcess" fill="#706F6F" d="M157.33,635.97c-0.68-6.88,0.42-11.76,1.35-15.91
		c1.21-5.37,2.01-8.76,4.31-9.44c3.44-1.01,8.2,4.58,9.82,6.5c2.96,3.48,2.56,4.73,5.28,6.99L157.33,635.97z"/>
</g>
<g>
	<path id="rightMetacarpal5HeadRadial" fill="#9D9D9C" d="M871.3,392.76
		c0.03-0.5,0.07-1.21,0.16-2.06c0,0,0.32-3,1.11-5.88c1.43-5.21,3.65-13.29,10.07-16.18c6.01-2.71,12.63,0.52,14.38,1.44
		c-1.39,5.03-2.78,10.07-4.17,15.1C885.67,387.71,878.49,390.23,871.3,392.76z"/>
	<path id="rightMetacarpal5Shaft" fill="#9D9D9C" d="M835.36,493.77
		c0.3-0.33,0.74-0.83,1.26-1.44c7.66-8.94,11.19-17.35,15.1-24.81c4.16-7.94,8.56-16.33,12.58-28.4c3.06-9.19,6.43-18.99,7.19-32.36
		c0.33-5.79,0.09-10.63-0.19-13.99c7.18-2.53,14.37-5.05,21.55-7.58c4.62,5.02,9.24,10.05,13.86,15.07
		c-0.37,1.51-0.88,3.32-1.63,5.36c-0.07,0.19-0.12,0.34-0.15,0.42c0,0-1.01,2.72-2.28,5.34c-1.73,3.58-4.11,6.8-7.07,12.28
		c-0.7,1.3-1.68,3.12-2.77,5.52c-1.95,4.3-2.25,6.06-4.25,11.87c-1.8,5.24-3.45,9.33-5.57,14.61c-0.63,1.56-1.58,3.91-2.9,7.04
		c-1.71,4.03-2.37,5.39-3.75,8.75c-0.35,0.86-1.14,2.78-2.69,6.86c-3.15,8.29-6.77,18.43-7.55,24.45c-0.19,1.48-0.32,3-0.32,3
		c-0.21,2.44-0.28,4.53-0.28,6.16c-6.52,0.18-13.04,0.36-19.56,0.54C842.41,506.23,838.89,500,835.36,493.77z"/>
	<path id="rightMetacarpal5BaseRadial" fill="#9D9D9C" d="M839.36,524.92
		c-1-0.15-8.53-1.38-11.37-7.42c-1.95-4.16-0.63-8.35,0.63-12.31c1.76-5.55,4.8-9.34,6.74-11.41c3.53,6.23,7.05,12.46,10.58,18.69
		C843.74,516.61,841.55,520.77,839.36,524.92z"/>
	<path id="rightMetacarpal5BaseUlnar" fill="#9D9D9C" d="M865.5,511.92
		c-0.01,1.06-0.1,2.42-0.39,3.97c-0.03,0.14-0.42,2.1-1.16,4.12c-0.33,0.88-5.32,14.06-12.22,14.02c-0.48,0-0.89-0.07-1.27-0.2
		c-3.53-1.19-4.47-4.01-8.8-7.35c-0.48-0.37-1.26-0.95-2.3-1.57c2.19-4.15,4.39-8.3,6.58-12.46
		C852.46,512.28,858.98,512.1,865.5,511.92z"/>
	<path id="rightMetacarpal5HeadUlnar" fill="#9D9D9C" d="M897.03,370.08
		c2.33,0.58,7.41,2.22,10.07,6.83c1.85,3.21,1.7,6.41,1.44,11.87c-0.23,4.9-1.1,8.86-1.81,11.48c-4.62-5.02-9.24-10.05-13.86-15.07
		C894.25,380.15,895.64,375.11,897.03,370.08z"/>
	<path id="rightMetacarpal4HeadRadial" fill="#9D9D9C" d="M816.26,362.63
		c2.67-4.86,4.26-8.94,5.26-11.97c1.16-3.52,2.19-7.69,6.04-10.7c0.59-0.46,1.06-0.75,1.15-0.81c4.46-2.73,9.96-1.62,12.94-0.72
		c-1.36,5.78-2.72,11.57-4.08,17.35C830.47,358.07,823.37,360.35,816.26,362.63z"/>
	<path id="rightMetacarpal4BaseRadial" fill="#9D9D9C" d="M808.26,515.7
		c-1.9,0.15-4.78,0.18-8.17-0.54c-2.71-0.58-4.07-0.86-5.31-1.89c-3.48-2.86-3.58-8.52-3.64-10.52c-0.02-0.57-0.01-1.09,0.03-1.6
		c0.25-3.25,0.99-5.01,2.13-9.19c0.23-0.85,0.56-2.13,0.92-3.7c5.65,3.21,11.29,6.42,16.94,9.63
		C810.19,503.83,809.23,509.76,808.26,515.7z"/>
	<path id="rightMetacarpal4BaseUlnar" fill="#9D9D9C" d="M824.69,492.81
		c0.67,1.38,1.58,3.66,1.8,6.6c0.01,0.07,0.1,1.45-0.02,2.8c-0.34,3.83-2.36,10.58-7.42,12.67c-1.11,0.46-2.21,0.58-4.39,0.81
		c-2.64,0.28-4.85,0.16-6.39,0c0.96-5.93,1.93-11.87,2.89-17.8C815.66,496.2,820.17,494.51,824.69,492.81z"/>
	<path id="rightMetacarpal4Shaft" fill="#9D9D9C" d="M854.16,368.95
		c-0.1,1.26-0.35,3.04-1,5.08c-0.16,0.51-0.59,1.86-1.48,3.55c-1.53,2.88-3.37,4.58-6.07,9.04c-1.54,2.54-4.21,7.48-8.63,24.81
		c-3.52,13.79-2.53,13.46-6.2,29.3c-3.21,13.87-5.31,19.88-6.74,31.82c-1.22,10.18-0.7,14.14-0.27,16.45
		c0.05,0.27,0.19,1.01,0.42,1.96c0.13,0.54,0.29,1.16,0.5,1.86c-4.51,1.7-9.02,3.39-13.53,5.09c-5.65-3.21-11.29-6.42-16.94-9.63
		c0.72-3.11,1.34-5.62,1.78-7.36c0.56-2.22,0.84-3.27,1.6-6.31c0.57-2.29,0.5-2.08,1.16-4.72c0.83-3.34,1.5-5.96,1.91-7.57
		c0.49-1.93,0.88-3.4,1.02-3.94c0.82-3.16,1.44-5.44,1.71-6.48c0.62-2.31,0.71-2.7,3.03-11.7c1.97-7.62,2.95-11.44,3-11.61
		c0.63-2.24,1.58-5.47,2.6-10.09c0,0,0.26-1.17,0.51-2.39c2.93-14.25,4.4-21.37,3.6-28.04c-0.5-4.19-1.99-10.7-1.99-15.81
		c0-1.56,0.14-3.24,0.55-5.04c0.44-1.95,1.07-3.51,1.57-4.57c7.1-2.28,14.21-4.56,21.31-6.85
		C843.11,360.18,848.64,364.57,854.16,368.95z"/>
	<path id="rightMetacarpal4HeadUlnar" fill="#9D9D9C" d="M841.66,338.44
		c2.5,0.28,8.8,1.29,11.51,5.39c0.3,0.45,0.54,0.92,0.57,0.98c1.94,3.76,1.17,7.61,0.87,9.44c-0.52,3.18-0.86,7.77-0.44,14.7
		c-5.53-4.39-11.06-8.78-16.59-13.17C838.94,350,840.3,344.22,841.66,338.44z"/>
	<path id="rightProximalPhalanx5HeadRadial" fill="#C6C6C6" d="M921.94,285.76
		c0.78-2.12,1.23-3.9,1.49-5.17c0.63-3.08,0.67-5.4,2.56-7.65c0,0,0.26-0.31,0.52-0.56c3.26-3.21,12.81-0.54,14.58-0.03
		c-1.61,3.75-3.21,7.5-4.82,11.25C931.5,284.32,926.72,285.04,921.94,285.76z"/>
	<path id="rightProximalPhalanx5Shaft" fill="#C6C6C6" d="M888.61,339.65
		c0.69-0.6,1.69-1.47,2.85-2.54c1.94-1.8,9.56-9.21,17.53-21.57c3.19-4.96,9-13.95,11.33-23.73c0.03-0.14,0.4-1.66,0.97-3.7
		c0.28-1.03,0.52-1.85,0.67-2.34c4.78-0.72,9.55-1.43,14.33-2.15c3.27,4,6.54,8,9.8,12.01c-2.88,5.2-4.01,7.22-4.18,7.49
		c0,0-0.01,0.01-0.01,0.02c0,0-0.26,0.4-0.51,0.81c-0.34,0.58-8.28,20.14-9.2,22.38c-1.82,4.43-7.46,17.15-8.17,21.19
		c-0.1,0.59-0.19,1.19-0.19,1.19c-0.35,2.38-0.45,4.36-0.47,5.74c-6.54-0.24-13.07-0.48-19.61-0.72
		C898.69,349.03,893.65,344.34,888.61,339.65z"/>
	<path id="rightProximalPhalanx5BaseRadial" fill="#C6C6C6" d="M897.97,366.24
		c-1.49-0.66-3.93-1.6-7.06-2.17c-5.59-1.02-7.56,0.2-9.44-1.35c-3.85-3.17-0.7-12.47-0.54-12.94c1.92-5.5,5.76-8.73,7.67-10.13
		c5.04,4.69,10.08,9.38,15.13,14.07C901.81,357.89,899.89,362.07,897.97,366.24z"/>
	<path id="rightProximalPhalanx5BaseUlnar" fill="#C6C6C6" d="M923.35,354.44
		c-0.01,1.55-0.17,3.74-0.84,6.26c-0.24,0.91-0.66,2.29-1.39,3.9c-0.98,2.16-4.12,9.09-8.9,9.44c-0.43,0.03-0.81,0-1.16-0.08
		c-3.49-0.81-4.92-3.01-8.28-5.32c-1.01-0.7-2.59-1.64-4.81-2.41c1.92-4.17,3.84-8.35,5.76-12.52
		C910.27,353.96,916.81,354.2,923.35,354.44z"/>
	<path id="rightProximalPhalanx5HeadUlnar" fill="#C6C6C6" d="M941.09,272.36
		c0.4,0.18,0.96,0.46,1.6,0.84c1.16,0.69,6.83,4.05,7.55,9.44c0.31,2.31-0.51,4.42-2.16,8.63c-0.72,1.83-1.45,3.31-2,4.35
		c-3.27-4-6.54-8-9.8-12.01C937.88,279.86,939.49,276.11,941.09,272.36z"/>
	<path id="rightMiddlePhalanx5HeadUlnar" fill="#DADADA" d="M962.65,215.27
		c1.27,0.19,3.14,0.58,5.27,1.46c2.17,0.9,3.26,1.34,3.9,2.31c1.32,2.01,0.36,4.88-0.81,8.36c-0.55,1.64-1.31,3.15-1.39,3.3
		c-0.37,0.73-0.72,1.33-0.99,1.77c-3.17-2.91-6.34-5.82-9.51-8.73C960.29,220.92,961.47,218.09,962.65,215.27z"/>
	<path id="rightMiddlePhalanx5HeadRadial" fill="#DADADA" d="M944.54,226.07
		c-0.15-1.01-0.26-2.55,0.08-4.36c0.1-0.53,0.4-1.97,1.31-3.74c0.87-1.71,3.05-5.99,6.74-6.47c1-0.13,1.81,0.1,3.38,0.56
		c2.97,0.88,5.19,2.21,6.6,3.21c-1.18,2.82-2.36,5.65-3.54,8.47C954.25,224.52,949.39,225.3,944.54,226.07z"/>
	<path id="rightMiddlePhalanx5BaseRadial" fill="#DADADA" d="M941.09,269.64
		c-0.38-0.14-0.91-0.36-1.54-0.63c0,0-1.72-0.76-3.33-1.69c-4.57-2.65-8.04-4.66-8.63-7.55c-0.66-3.24,2.36-7.25,7.01-9.98
		c3.49,3.66,6.99,7.33,10.48,10.99C943.75,263.73,942.42,266.69,941.09,269.64z"/>
	<path id="rightMiddlePhalanx5BaseUlnar" fill="#DADADA" d="M960.59,262.2
		c-0.05,0.9-0.19,2.23-0.64,3.77c-0.58,1.95-1.54,5.2-4.04,6.47c-0.53,0.27-1.74,0.76-7.28-0.54c-3.14-0.74-5.71-1.59-7.53-2.26
		c1.33-2.95,2.66-5.91,3.99-8.86C950.25,261.25,955.42,261.73,960.59,262.2z"/>
	<path id="rightMiddlePhalanx5Shaft" fill="#DADADA" d="M968.62,232.47
		c-0.94,1.3-2.24,3.24-3.55,5.72c-1.64,3.1-4.2,8.07-4.85,14.83c-0.21,2.15-0.3,5.32,0.37,9.18c-5.17-0.48-10.34-0.95-15.51-1.43
		c-3.49-3.66-6.99-7.33-10.48-10.99c5.35-6.18,8.58-11.7,9.44-14.83c0.47-1.7,0.65-3.32,0.65-3.32c0.25-2.27,0.07-4.2-0.14-5.56
		c4.86-0.78,9.71-1.55,14.57-2.33C962.28,226.65,965.45,229.56,968.62,232.47z"/>
	<path id="rightDistalPhalanx5TuftRadial" fill="#EDEDED" d="M967.77,174.9
		c0.36-1.42,1.2-3.79,3.24-5.93c0.91-0.96,3.6-3.78,7.55-3.78c1.41,0,2.56,0.37,3.31,0.67c-1.41,2.51-2.83,5.03-4.24,7.54
		C974.34,173.9,971.05,174.4,967.77,174.9z"/>
	<path id="rightDistalPhalanx5Shaft" fill="#EDEDED" d="M958.87,195.12
		c4.83-3.56,6.32-6.79,6.74-9.17c0.25-1.41,0.31-3.58,1.14-7.25c0.37-1.61,0.75-2.93,1.02-3.81c3.28-0.5,6.57-1,9.85-1.49
		c2.03,2.87,4.06,5.74,6.09,8.61c-0.78,0.84-1.73,1.96-2.7,3.35c-0.14,0.2-0.76,1.11-1.39,2.2c-3.32,5.84-3.74,12-3.78,12.67
		c-0.05,0.79-0.05,1.43-0.05,1.75c-3.29,0.48-6.58,0.96-9.88,1.43C963.58,200.66,961.23,197.89,958.87,195.12z"/>
	<path id="rightDistalPhalanx5BaseRadial" fill="#EDEDED" d="M962.5,211.77
		c-1.04-0.55-2.48-1.34-4.16-2.36c-4.99-3.02-7.48-4.56-7.49-6.35c-0.01-1.19,1.19-2.29,3.6-4.49c1.75-1.61,3.35-2.74,4.44-3.45
		c2.36,2.77,4.71,5.54,7.07,8.3C964.79,206.21,963.64,208.99,962.5,211.77z"/>
	<path id="rightDistalPhalanx5BaseUlnar" fill="#EDEDED" d="M975.81,201.99
		c0.1,1.01,0.3,2.87,0.55,5.21c0.56,5.17,0.7,6.07,0.03,6.8c-1.21,1.32-3.84,0.75-7.28,0c-2.88-0.62-5.14-1.54-6.62-2.23
		c1.15-2.78,2.29-5.56,3.44-8.35C969.23,202.95,972.52,202.47,975.81,201.99z"/>
	<path id="rightDistalPhalanx5TuftUlnar" fill="#EDEDED" d="M981.86,165.86
		c1.77,0.71,2.71,1.71,3.16,2.29c2.66,3.4,1.13,8.34,0.54,10.25c-0.41,1.34-1.08,2.47-1.08,2.47c-0.29,0.48-0.56,0.87-0.77,1.15
		c-2.03-2.87-4.06-5.74-6.09-8.61C979.04,170.89,980.45,168.38,981.86,165.86z"/>
	<path id="rightProximalPhalanx4HeadRadial" fill="#C6C6C6" d="M846.96,220.42
		c0.2-2.75,1-8.65,4.85-13.48c1.19-1.49,3.01-3.71,5.93-4.31c1.13-0.23,2.05-0.15,3.56,0c1.83,0.18,4.22,0.61,6.95,1.62
		c-0.97,3.87-1.94,7.73-2.91,11.6C859.22,217.36,853.09,218.89,846.96,220.42z"/>
	<path id="rightProximalPhalanx4Shaft" fill="#C6C6C6" d="M828.96,309.29
		c1.53-1.84,2.56-3.44,3.17-4.47c0.98-1.64,3.12-5.78,6.47-21.03c1.16-5.28,0.99-5.61,3.51-21.57c3.27-20.74,3.57-20.28,3.78-25.08
		c0.25-5.67,0.2-7.5,0.48-11.27c0.1-1.3,0.27-3.17,0.6-5.45c6.13-1.53,12.26-3.06,18.39-4.58c5.28,3.42,10.57,6.83,15.85,10.25
		c-0.38,1.86-0.82,3.32-1.15,4.28c-1.47,4.34-2.97,5.93-4.78,10.82c-0.51,1.37-0.81,2.36-1.18,3.6c-1.95,6.5-2.03,11.53-3.14,20.67
		c-0.69,5.69-1.73,14.32-2.85,18.85c-0.15,0.61-0.73,2.9-1.03,6.06c-0.14,1.45-0.16,2.56-0.17,3.13
		c-0.13,6.99,0.26,12.82,0.26,12.82c0.24,3.52,0.44,8.61,0.28,15.22c-7.08,0.54-14.16,1.08-21.25,1.62
		C840.46,318.53,834.71,313.91,828.96,309.29z"/>
	<path id="rightProximalPhalanx4BaseRadial" fill="#C6C6C6" d="M841.66,335.48
		c-3.23-0.94-5.88-1.12-7.71-1.1c-4.67,0.04-6.96,1.35-9.31-0.16c-1.71-1.09-2.31-2.94-2.75-4.31c-1.28-3.94-0.04-7.63,1.08-10.52
		c0.79-2.04,1.63-3.65,2.21-4.68c1.33-2.35,2.72-4.16,3.79-5.41c5.75,4.62,11.5,9.25,17.25,13.87
		C844.69,327.26,843.17,331.37,841.66,335.48z"/>
	<path id="rightProximalPhalanx4BaseUlnar" fill="#C6C6C6" d="M867.45,321.54
		c0.4,8.28-2.3,13.55-3.78,15.91c-1.32,2.12-3.55,5.7-6.47,5.66c-2.43-0.03-3.38-2.55-7.01-4.85c-3.2-2.03-6.44-2.6-8.54-2.78
		c1.52-4.11,3.03-8.21,4.55-12.32C853.29,322.62,860.37,322.08,867.45,321.54z"/>
	<path id="rightProximalPhalanx4HeadUlnar" fill="#C6C6C6" d="M868.26,204.24
		c1.53,0.2,3.72,0.58,6.28,1.34c2.71,0.81,5.48,1.64,6.99,2.98c3.29,2.9,2.75,10.07-0.33,17.53c-5.28-3.42-10.57-6.83-15.85-10.25
		C866.32,211.97,867.29,208.1,868.26,204.24z"/>
	<path id="rightMiddlePhalanx4HeadRadial" fill="#DADADA" d="M871.1,131.16
		c-0.1-1.47-0.1-3.59,0.39-6.09c0.21-1.06,0.46-1.96,0.69-2.67c0.92-2.84,2.12-6.58,4.58-7.28c0.84-0.24,1.39-0.01,4.33,1.12
		c2.93,1.13,5.23,1.99,6.54,2.48c-0.86,3.19-1.72,6.37-2.59,9.56C880.39,129.24,875.75,130.2,871.1,131.16z"/>
	<path id="rightMiddlePhalanx4BaseRadial" fill="#DADADA" d="M867.24,201.44
		c-1.35-0.3-3.17-0.78-5.28-1.53c-0.27-0.1-1.65-0.61-3-1.2c-4.68-2.07-7.02-3.11-8.09-5.39c-1.21-2.58-0.16-5.46,1.89-10.79
		c1.03-2.68,2.16-4.81,3.04-6.31c4.95,4.22,9.9,8.43,14.86,12.65C869.52,193.06,868.38,197.25,867.24,201.44z"/>
	<path id="rightMiddlePhalanx4BaseUlnar" fill="#DADADA" d="M888.19,185.62
		c0.24,0.6,2.68,6.93-0.65,12.28c-0.39,0.63-2.66,4.19-6.74,5.39c-0.18,0.05-0.37,0.1-0.59,0.14c-2.75,0.52-4.65-0.06-8.31-0.95
		c-1.09-0.27-2.69-0.64-4.66-1.04c1.14-4.19,2.28-8.39,3.41-12.58C876.5,187.78,882.35,186.7,888.19,185.62z"/>
	<path id="rightMiddlePhalanx4Shaft" fill="#DADADA" d="M897.79,137.76
		c-0.44,0.98-1.13,2.52-2.02,4.38c-1.56,3.25-2.6,4.97-3.1,6.13c-3.01,6.9-3.69,12.92-4.31,18.34c-0.14,1.19-0.35,3.08-0.48,5.51
		c-0.19,3.36-0.14,6.19-0.06,8.24c0.09,2.07,0.24,3.85,0.38,5.25c-5.85,1.08-11.69,2.16-17.54,3.25c-4.95-4.22-9.9-8.43-14.86-12.65
		c1.82-2.65,3.99-6.14,6.13-10.41c3.28-6.58,4.9-11.9,5.93-15.37c1.57-5.26,3.12-10.58,3.24-17.8c0.01-0.62,0.01-1.14,0-1.48
		c4.65-0.96,9.29-1.92,13.94-2.88C889.29,131.44,893.54,134.6,897.79,137.76z"/>
	<path id="rightMiddlePhalanx4HeadUlnar" fill="#DADADA" d="M887.62,118.72
		c1.2,0.36,2.2,0.57,2.89,0.71c4.58,0.89,7.69,0.4,9.17,2.43c0.03,0.05,0.07,0.1,0.11,0.17c0.92,1.46,0.9,3.1,0.7,4.69
		c-0.27,2.08-1.11,6.04-2.7,11.06c-4.25-3.16-8.5-6.32-12.75-9.48C885.9,125.09,886.76,121.91,887.62,118.72z"/>
	<path id="rightDistalPhalanx4TuftRadial" fill="#EDEDED" d="M889.97,75.2
		c1.09-4.63,3.1-7.32,4.84-8.91c0.11-0.1,0.21-0.19,0.28-0.25c0.77-0.67,4.68-3.92,9.44-3.24c0.37,0.05,0.93,0.16,1.6,0.38
		c-1.16,3.3-2.32,6.61-3.48,9.91C898.43,73.79,894.2,74.5,889.97,75.2z"/>
	<path id="rightDistalPhalanx4Shaft" fill="#EDEDED" d="M883.09,96.54
		c1.35-2.06,3.01-4.93,4.18-8.13c0.6-1.65,0.84-2.74,0.92-3.12c0.41-2.03,0.28-3.08,0.45-4.74c0.13-1.29,0.45-3.13,1.34-5.35
		c4.23-0.7,8.46-1.41,12.69-2.11c3.02,2.91,6.05,5.81,9.07,8.72c-0.17,0.53-0.42,1.22-0.73,2.03c-0.35,0.9-1.03,2.64-2.02,4.46
		c-1.57,2.89-2.23,2.85-3.09,5.05c-0.47,1.19-0.63,2.12-0.82,3.16c-0.28,1.57-0.54,3.9-0.27,6.8c-4.13,0.96-8.26,1.91-12.39,2.87
		C889.3,102.96,886.2,99.75,883.09,96.54z"/>
	<path id="rightDistalPhalanx4BaseRadial" fill="#EDEDED" d="M888.37,116.51
		c-1.55-0.44-3.8-1.23-6.22-2.75c-2.57-1.6-5.88-3.67-5.93-6.47c-0.02-0.98,0.37-1.66,2.43-4.58c1.74-2.48,3.27-4.57,4.45-6.16
		c3.1,3.21,6.21,6.42,9.31,9.62C891.06,109.62,889.72,113.06,888.37,116.51z"/>
	<path id="rightDistalPhalanx4BaseUlnar" fill="#EDEDED" d="M904.8,103.3
		c0.11,1.44,0.24,3.46,0.27,5.88c0.08,5.38-0.36,6.23-0.81,6.74c-1.42,1.59-3.85,1.73-6.47,1.89c-2.48,0.15-4.64-0.25-6.2-0.54
		c-1.33-0.25-2.42-0.53-3.21-0.76c1.35-3.45,2.69-6.89,4.04-10.34C896.54,105.21,900.67,104.26,904.8,103.3z"/>
	<path id="rightDistalPhalanx4TuftUlnar" fill="#EDEDED" d="M906.14,63.18
		c1.26,0.41,4.43,1.65,5.95,4.74c0.78,1.6,0.81,3.06,0.82,5.35c0.01,2.04-0.18,5-1.17,8.54c-3.02-2.91-6.05-5.81-9.07-8.72
		C903.82,69.79,904.98,66.48,906.14,63.18z"/>
	<path id="rightMetacarpal3HeadRadial" fill="#9D9D9C" d="M752.58,349.45
		c-0.19-2.84-0.27-6.85,0.27-11.6c0.97-8.44,1.44-14.6,5.93-18.07c1.83-1.41,3.91-2.08,6.26-2.83c3.56-1.14,6.69-1.43,8.84-1.48
		c0.56,7.42,1.12,14.83,1.67,22.25C767.9,341.63,760.24,345.54,752.58,349.45z"/>
	<path id="rightMetacarpal3Shaft" fill="#9D9D9C" d="M755.18,490.56
		c0.32-0.83,0.75-2.01,1.17-3.45c0,0,0.31-0.95,0.52-1.93c0.59-2.69,0.7-6.2,1.77-21.53c1.7-24.35,1.81-20.33,2.29-30.88
		c0.2-4.28,0.4-13.46,0.81-31.82c0.22-9.72,0.32-15.69-0.67-23.87c-0.88-7.18-2.1-11.94-3.37-15.78c-1.65-5-3.58-9.01-5.12-11.87
		c7.66-3.91,15.32-7.82,22.98-11.73c7.99,3.33,15.99,6.65,23.98,9.98c0.05,1.02,0.05,2.25-0.03,3.64c-0.04,0.57-0.15,2.11-0.47,3.84
		c-0.46,2.5-0.83,2.55-2.17,6.94c-0.37,1.22-1.02,3.43-1.67,6.21c0,0-0.23,1-0.45,2.03c-1.23,5.83-2.56,18.42-3.05,23.05
		c-0.81,7.63-0.87,7.92-1.18,11.15c-0.26,2.75-0.44,4.88-0.83,8.66c-0.02,0.23-0.34,3.26-0.69,6.34
		c-1.21,10.58-1.96,13.77-2.86,22.57c-0.16,1.56-0.41,3.99-0.64,7.23c-0.35,4.8-0.87,12.12-0.54,21.3c0.15,4.11,0.5,9.53,1.35,15.91
		c-5.01,3.42-10.03,6.83-15.04,10.25C765.89,494.73,760.53,492.65,755.18,490.56z"/>
	<path id="rightMetacarpal3BaseRadial" fill="#9D9D9C" d="M771.99,518.39
		c-2.42,0.5-5.88,0.9-9.92,0.27c-3.84-0.6-6.93-1.08-8.77-3.57c-1.51-2.04-1.57-4.62-1.67-8.84c-0.05-2.2,0.12-3.89,0.2-4.57
		c0.3-2.56,1.08-6.53,3.35-11.13c5.35,2.09,10.71,4.17,16.06,6.26C771.49,504.01,771.74,511.2,771.99,518.39z"/>
	<path id="rightMetacarpal3BaseUlnar" fill="#9D9D9C" d="M786.29,486.57
		c1.35,5.76,2.3,10.71,2.97,14.56c1.41,8.15,1.5,11-0.27,12.94c-0.64,0.7-1.52,1.29-6.42,2.43c-4.39,1.03-8.06,1.58-10.57,1.89
		c-0.25-7.19-0.5-14.38-0.75-21.57C776.26,493.4,781.27,489.99,786.29,486.57z"/>
	<path id="rightMetacarpal3HeadUlnar" fill="#9D9D9C" d="M773.88,315.47
		c2.25-0.51,7.91-1.45,12.94,1.62c3.9,2.38,5.47,5.99,7.82,11.6c1.75,4.17,3.94,10.6,4.89,19.01c-7.99-3.33-15.99-6.65-23.98-9.98
		C775,330.3,774.44,322.89,773.88,315.47z"/>
	<path id="rightProximalPhalanx3HeadRadial" fill="#C6C6C6" d="M760.94,186.71
		c-0.33-1.4-1.72-7.9,2.16-13.21c1.76-2.42,3.93-3.65,5.12-4.31c5.06-2.81,10.06-2.47,12.2-2.19c-0.45,3.88-0.9,7.75-1.35,11.63
		C773.02,181.31,766.98,184.01,760.94,186.71z"/>
	<path id="rightProximalPhalanx3Shaft" fill="#C6C6C6" d="M752.43,288.99
		c3.2-5.56,5.14-10.58,6.35-14.37c2.48-7.77,3.1-14.27,3.51-18.34c0.79-7.85-0.04-8.05,0.27-22.11c0.12-5.34,0.43-14.01,0.81-22.11
		c0.35-7.45,0.57-10.43-0.27-15.1c-0.12-0.67-1.09-3.34-1.72-7.1c-0.23-1.35-0.36-2.45-0.43-3.15c6.04-2.7,12.08-5.39,18.12-8.09
		c6.12,2.89,12.24,5.78,18.36,8.66c-0.44,3.04-0.86,4.71-1.19,5.7c-0.03,0.09-0.12,0.36-0.24,0.74c0,0-0.49,1.54-0.86,3.13
		c-0.77,3.29-1.3,33.55-1.3,33.55c-0.03,1.62-0.28,7.4-0.78,18.95c-0.14,3.12-0.16,6.24-0.3,9.36c-0.18,4.08-0.41,8.02,0.27,13.48
		c0.02,0.18,0.04,0.31,0.06,0.45c0.52,3.95,1.38,8.56,2.81,13.76c-6.78,3.08-13.56,6.17-20.34,9.25
		C767.85,293.43,760.14,291.21,752.43,288.99z"/>
	<path id="rightProximalPhalanx3BaseRadial" fill="#C6C6C6" d="M775.6,312.53
		c-3.35,0.03-5.9,0.63-7.65,1.19c-2.3,0.74-4.88,1.73-8.33,1.29c-0.27-0.04-0.54-0.1-0.84-0.21c-4.53-1.55-6.35-7.34-7.01-9.44
		c-1.78-5.67-0.62-10.84,0-13.75c0.23-1.1,0.48-2,0.66-2.62c7.71,2.22,15.42,4.44,23.12,6.67
		C775.57,301.28,775.58,306.91,775.6,312.53z"/>
	<path id="rightProximalPhalanx3BaseUlnar" fill="#C6C6C6" d="M795.9,286.4
		c0.23,0.97,0.56,2.39,0.9,4.13c0.93,4.75,1.44,8.2,1.35,12.4c-0.09,4.3-0.72,6.13-1.89,7.55c-2.04,2.48-5.15,2.98-6.74,3.24
		c-1.04,0.17-1.89,0.2-2.65,0.14c-3.6-0.28-4.92-1.36-8.41-1.49c-0.63-0.02-1.63-0.02-2.87,0.16c-0.01-5.63-0.03-11.25-0.04-16.88
		C782.34,292.57,789.12,289.48,795.9,286.4z"/>
	<path id="rightProximalPhalanx3HeadlUlnar" fill="#C6C6C6" d="M780.41,166.99
		c1.19,0.12,2.86,0.35,4.79,0.85c4.18,1.06,7.02,1.78,9.17,4.04c3.4,3.57,3.3,9.12,3.24,12.67c-0.02,1.14-0.11,2.09-0.19,2.73
		c-6.12-2.89-12.24-5.78-18.36-8.66C779.51,174.74,779.96,170.86,780.41,166.99z"/>
	<path id="rightMiddlePhalanx3HeadRadial" fill="#DADADA" d="M773.93,94.08
		c-0.46-1.34-0.99-3.38-1.01-5.92c0-0.49,0.01-0.85,0.02-1.09c0.13-2.85,0.28-6.12,2.12-7.87c0.92-0.87,2.16-1.06,4.63-1.44
		c2.81-0.43,5.16-0.33,6.69-0.18c0.05,3.6,0.09,7.19,0.14,10.79C782.32,90.27,778.13,92.18,773.93,94.08z"/>
	<path id="rightMiddlePhalanx3Shaft" fill="#DADADA" d="M770.73,143.51
		c0.75-1.55,1.67-3.64,2.56-6.18c0,0,0.54-1.53,0.99-3.08c2.43-8.46,2.45-15.55,2.43-20.22c-0.02-3.9-0.13-7.46-0.78-11.39
		c-0.1-0.59-0.5-2.57-1.1-5.06c-0.35-1.46-0.67-2.66-0.9-3.5c4.2-1.9,8.4-3.81,12.59-5.71c4.54,2.2,9.09,4.41,13.63,6.61
		c-0.13,0.66-0.32,1.65-0.52,2.87c-0.85,5.24-1,9.22-1.08,11.06c-0.45,10.94-0.95,10.68-1.08,18.88
		c-0.07,4.64-0.01,10.89,0.54,18.34c-4.49,2.02-8.98,4.04-13.47,6.07C779.94,149.3,775.34,146.41,770.73,143.51z"/>
	<path id="rightMiddlePhalanx3BaseRadial" fill="#DADADA" d="M782.76,164.41
		c-1.45-0.28-3.54-0.56-6.05-0.48c-6.56,0.21-9.15,2.69-10.79,1.35c-1.84-1.52-0.42-6.22,1.62-12.94c1.1-3.64,2.27-6.64,3.19-8.81
		c4.6,2.89,9.21,5.78,13.81,8.68C783.95,156.26,783.36,160.33,782.76,164.41z"/>
	<path id="rightMiddlePhalanx3BaseUlnar" fill="#DADADA" d="M798.02,146.12
		c0.6,1.96,1.29,4.71,1.63,8.04c0.45,4.45,1.13,11.24-1.9,12.99c-1.07,0.62-1.92,0.2-8.63-1.35c-2.77-0.64-5.01-1.12-6.35-1.4
		c0.59-4.07,1.19-8.14,1.78-12.21C789.03,150.17,793.53,148.15,798.02,146.12z"/>
	<path id="rightMiddlePhalanx3HeadUlnar" fill="#DADADA" d="M786.38,77.58
		c1.89,0,10.05,0.07,12.22,2.14c0.19,0.19,0.36,0.38,0.36,0.38c1.22,1.38,1.59,3.08,1.74,5.08c0.31,4.11-0.38,8.68-0.56,9.8
		c-4.54-2.2-9.09-4.41-13.63-6.61C786.48,84.78,786.43,81.18,786.38,77.58z"/>
	<path id="rightDistalPhalanx3TuftRadial" fill="#EDEDED" d="M774.81,30.3
		c-0.3-1.02-0.64-2.56-0.62-4.45c0,0,0.01-0.8,0.1-1.6c0.22-1.96,0.91-8.09,5.39-10.79c0.86-0.52,2.76-1.45,5.76-1.25
		c-0.12,3.52-0.24,7.04-0.36,10.55C781.66,25.27,778.23,27.78,774.81,30.3z"/>
	<path id="rightDistalPhalanx3Shaft" fill="#EDEDED" d="M776.36,58.6
		c0.94-3.63,1.15-6.63,1.16-8.75c0.02-3.84-0.62-7.59-1.62-13.48c-0.16-0.97-0.35-2.02-0.35-2.02c-0.29-1.66-0.55-3.04-0.74-4.06
		c3.42-2.51,6.85-5.03,10.27-7.54c3.88,2.51,7.77,5.03,11.65,7.54c-0.01,0.36-0.03,0.88-0.07,1.49c-0.07,1.24-0.2,3.26-0.61,5.59
		c-0.4,2.27-0.63,2.34-0.85,4.18c0,0-0.17,1.46-0.16,3.18c0.02,2.66,0.84,7.65,2.65,13.87c-3.31,1.95-6.62,3.91-9.92,5.86
		C783.97,62.51,780.17,60.56,776.36,58.6z"/>
	<path id="rightDistalPhalanx3BaseRadial" fill="#EDEDED" d="M786.96,74.66
		c-2.99,0.08-5.62,0.08-7.81,0.04c-2.16-0.03-3.27-0.08-4.33-0.85c-1.86-1.35-2.12-3.85-2.16-4.31c-0.19-2.2,0.83-3.13,2.97-8.9
		c0.32-0.87,0.57-1.59,0.73-2.04c3.81,1.95,7.61,3.91,11.42,5.86C787.51,67.86,787.23,71.26,786.96,74.66z"/>
	<path id="rightDistalPhalanx3BaseUlnar" fill="#EDEDED" d="M797.7,58.6
		c0.09,0.18,0.23,0.43,0.4,0.73c0,0,0.22,0.39,0.46,0.77c2.18,3.48,4.53,4.9,4.58,8.36c0.01,0.52,0,3.58-2.16,5.39
		c-1.05,0.88-2.32,1.22-5.12,1.35c-0.15,0.01-0.36,0.02-0.65,0.03c0,0-1,0.03-2.16-0.02c-0.98-0.04-3.19-0.21-6.09-0.55
		c0.27-3.4,0.55-6.8,0.82-10.2C791.09,62.51,794.4,60.55,797.7,58.6z"/>
	<path id="rightDistalPhalanx3TuftUlnar" fill="#EDEDED" d="M785.44,12.2
		c1.51,0.08,2.67,0.43,3.41,0.71c3.56,1.37,5.39,4.25,5.93,5.12c0,0,0.21,0.33,0.39,0.68c1.84,3.43,1.78,8.58,1.57,11.58
		c-3.88-2.51-7.77-5.03-11.65-7.54C785.2,19.23,785.32,15.72,785.44,12.2z"/>
	<path id="rightMetacarpal2HeadRadial" fill="#9D9D9C" d="M681.49,349.4
		c-0.15-2.18-0.25-5.36,0.03-9.17c0.52-6.99,0.87-11.78,4.04-16.72c3.3-5.15,7.9-7.73,9.71-8.63c2.5-1.25,4.77-1.85,6.41-2.17
		c0.89,7.17,1.79,14.34,2.68,21.51C696.74,339.27,689.12,344.34,681.49,349.4z"/>
	<path id="rightMetacarpale2Shaft" fill="#9D9D9C" d="M706.41,492.91
		c0.22-1.56,0.37-2.81,0.46-3.56c0.84-7.19,1.4-16.64,0.81-28.31c-0.14-2.69-0.38-5.88-4.31-33.71
		c-3.91-27.68-2.77-18.08-3.78-25.75c-1.31-10.03-1.88-15.92-4.31-24.67c-1.95-7-3-10.57-5.66-14.56
		c-1.64-2.45-5.73-5.17-7.55-10.79c-0.29-0.89-0.46-1.65-0.57-2.15c7.62-5.06,15.25-10.12,22.87-15.18
		c9.55,4.43,19.11,8.86,28.66,13.29c-0.09,0.67-0.24,1.67-0.46,2.87c-0.89,4.68-2.14,7.94-2.5,9c-1.47,4.27-0.59,7.75,0,14.29
		c0.35,3.85-0.09,1.22,0,22.11c0.05,11.81,0.07,17.71,0.27,22.65c0.11,2.75,0.56,13.37,2.16,27.24c0.12,1.05,1.08,9.28,2.97,19.15
		c0,0,1.5,7.85,3.8,13.72c0.87,2.21,1.86,4.35,1.86,4.35c0.63,1.37,1.18,2.45,1.66,3.39c0.65,1.28,1.23,2.37,1.68,3.2
		c-5.27,3.62-10.55,7.24-15.82,10.86C721.23,497.85,713.82,495.38,706.41,492.91z"/>
	<path id="rightMetacarpal2BaseRadial" fill="#9D9D9C" d="M729.93,523.24
		c-1.75,0.51-4.21,1.07-7.19,1.26c-1.2,0.07-3.32,0.2-5.93-0.18c-2.18-0.31-5.84-0.84-8.27-2.7c-1.12-0.86-4.01-3.54-3.96-14.92
		c0.01-1.82,0.14-3.42,0.23-4.43c0.35-3.91,1.03-7.12,1.6-9.36c7.41,2.47,14.82,4.94,22.22,7.41
		C729.06,507.96,729.5,515.6,729.93,523.24z"/>
	<path id="rightMetacarpal2BaseUlnar" fill="#9D9D9C" d="M744.45,489.46
		c2.22,3.64,3.48,6.63,3.87,7.98c0.42,1.44,0.61,2.82,0.61,2.82c0.28,1.98-0.03,1.72,0.34,5.67c0.43,4.57,0.96,6.07,0.25,8.3
		c-0.76,2.38-2.37,3.85-2.7,4.13c-2.45,2.16-4.36,1.38-11.33,3.24c-0.62,0.17-1.11,0.31-1.51,0.43c-0.96,0.29-1.3,0.42-2.08,0.66
		c-0.45,0.14-1.13,0.33-1.98,0.53c-0.43-7.64-0.86-15.27-1.29-22.91C733.91,496.71,739.18,493.08,744.45,489.46z"/>
	<path id="rightMetacarpal2HeadUlnar" fill="#9D9D9C" d="M701.68,312.71
		c1.19-0.24,2.88-0.5,4.92-0.53c1.69-0.02,9.07-0.13,15.1,4.31c5.16,3.8,6.83,9.07,8.9,15.64c2.01,6.35,2.4,11.85,2.43,15.37
		c-9.55-4.43-19.11-8.86-28.66-13.29C703.47,327.05,702.57,319.88,701.68,312.71z"/>
	<path id="rightProximalPhalanx2HeadRadial" fill="#C6C6C6" d="M665.51,200.3
		c-0.16-0.5-0.34-1.12-0.53-1.82c0,0-0.27-1.04-0.5-2.06c-1.44-6.56-0.9-10.79-0.71-12.04c0.2-1.32,0.25-1.59,0.36-1.8
		c0.83-1.57,2.93-2.11,8.95-2.61c2.08-0.17,4.77-0.35,7.95-0.45c0.23,3.57,0.45,7.13,0.68,10.7
		C676.31,193.58,670.91,196.94,665.51,200.3z"/>
	<path id="rightProximalPhalanx2Shaft" fill="#C6C6C6" d="M673.39,286.84
		c2.73-7.18,3.36-13.11,3.42-17.26c0.07-5.05-0.66-10.51-2.34-21.39c-1.81-11.77-1.13-12.9-2.7-23.37c-0.91-6.1-1.56-10.62-3.15-16
		c-0.63-2.12-1.61-5.07-3.11-8.52c5.4-3.36,10.8-6.72,16.2-10.08c6.66,1.01,13.31,2.01,19.97,3.02c0,2.55,0.06,6.26,0.33,10.73
		c0.44,7.27,1.13,11.53,2.43,21.03c1.55,11.42,2.33,17.13,3.01,23.1c0,0,1.26,11.01,4.07,19.92c0.12,0.39,0.24,0.76,0.24,0.76
		c1.41,4.27,2.95,7.53,4.13,9.77c-5.64,4.8-11.29,9.61-16.93,14.41C690.44,290.92,681.91,288.88,673.39,286.84z"/>
	<path id="rightProximalPhalanx2BaseRadial" fill="#C6C6C6" d="M700.13,309.19
		c-2.1,0.31-3.67,0.9-4.72,1.38c-2.62,1.21-3.66,2.33-6.79,3.72c-0.69,0.31-1.5,0.57-2.56,0.77c-1.17,0.22-5.6,1.19-8.55-0.72
		c-1.82-1.18-2.39-3.18-3.52-7.19c-0.74-2.61-1.79-7.34-1.45-13.67c0.15-2.79,0.53-5.08,0.84-6.65c8.53,2.04,17.06,4.07,25.58,6.11
		C699.36,298.37,699.75,303.78,700.13,309.19z"/>
	<path id="rightProximalPhalanx2BaseUlnar" fill="#C6C6C6" d="M715.9,278.54
		c0.57,1.16,1.39,2.88,2.34,4.97c2.24,4.95,3.41,7.41,4.04,9.98c1.08,4.37,2.39,9.28-0.18,12.22c-1.35,1.55-3.3,2.03-5.29,2.52
		c-2.85,0.7-4.61,0.26-7.73,0.18c-2.16-0.06-5.21,0.04-8.95,0.77c-0.39-5.41-0.78-10.82-1.16-16.23
		C704.61,288.15,710.26,283.35,715.9,278.54z"/>
	<path id="rightProximalPhalanx2HeadUlnar" fill="#C6C6C6" d="M681.04,179.52
		c2.47-0.92,4.57-1.55,6.07-1.98c7.68-2.16,9.76-1.5,11.01-0.54c0.19,0.15,0.32,0.26,0.44,0.38c2.13,2.04,2.18,5.13,2.61,10.41
		c0.1,1.24,0.27,3.12,0.52,5.45c-6.66-1.01-13.31-2.01-19.97-3.02C681.49,186.65,681.26,183.08,681.04,179.52z"/>
	<path id="rightMiddlePhalanx2HeadRadial" fill="#DADADA" d="M650.02,106
		c-0.98-1.4-2.72-4.35-2.7-8.27c0.01-1.75,0.03-4.51,1.9-6.3c1.06-1.02,2.07-1.11,6.79-2.16c2.42-0.54,4.38-1,5.6-1.3
		c0.35,2.95,0.7,5.9,1.06,8.85C658.44,99.88,654.23,102.94,650.02,106z"/>
	<path id="rightMiddlePhalanx2Shaft" fill="#DADADA" d="M660,155.43
		c0.08-1.12,0.19-2.73,0.26-4.67c0.16-4.52,0.38-10.43-0.72-17.8c-0.94-6.27-1.66-11.15-4.49-16.9c-0.2-0.41-1.28-2.49-2.78-5.5
		c-0.98-1.96-1.76-3.56-2.25-4.57c4.21-3.06,8.43-6.12,12.64-9.18c5.66,1.51,11.31,3.03,16.97,4.54c0.27,2.73,0.7,6.69,1.31,11.47
		c1.14,8.82,1.71,13.22,2.7,16.9c0.67,2.47,2.73,9.58,7.37,17.8c0.98,1.74,1.87,3.16,2.52,4.16c-4.96,3.4-9.91,6.81-14.87,10.21
		C672.44,159.74,666.22,157.59,660,155.43z"/>
	<path id="rightMiddlePhalanx2BaseRadial" fill="#DADADA" d="M680.4,176.11
		c-2.76,0.47-5.48,0.71-8.17,0.71h0c-1.86-0.01-4.63-0.05-8.09-0.9c-2.84-0.7-4.25-1.04-5.13-2.15c-1.39-1.75-0.53-4,0.18-8.63
		c0.36-2.33,0.75-5.64,0.82-9.72c6.22,2.16,12.44,4.31,18.65,6.47C679.24,166.64,679.82,171.37,680.4,176.11z"/>
	<path id="rightMiddlePhalanx2BaseUlnar" fill="#DADADA" d="M693.52,151.68
		c0.89,1.27,2.04,3.14,2.96,5.6c0.65,1.74,0.93,3.1,0.99,3.37c0.69,3.21,1.51,6.97-0.54,9.71c-1.06,1.42-4.42,2.44-11.15,4.49
		c-0.43,0.13-1.24,0.38-2.32,0.64c-1.23,0.3-2.29,0.49-3.07,0.62c-0.58-4.74-1.16-9.48-1.74-14.21
		C683.61,158.49,688.57,155.09,693.52,151.68z"/>
	<path id="rightMiddlePhalanx2HeadUlnar" fill="#DADADA" d="M661.6,87.97
		c0.27-0.05,0.63-0.11,1.04-0.18c0,0,0.38-0.07,0.78-0.14c7.54-1.37,10-2.46,12.4-0.72c1.72,1.24,2.49,3.27,2.96,4.51
		c0.33,0.88,0.4,1.67,0.72,7.55c0.05,0.97,0.1,1.78,0.13,2.37c-5.66-1.51-11.31-3.03-16.97-4.54
		C662.3,93.87,661.95,90.92,661.6,87.97z"/>
	<path id="rightDistalPhalanx2TuftRadial" fill="#EDEDED" d="M643.61,45.14
		c-0.54-1.66-1.21-4.58-0.59-8.09c0.27-1.55,1.09-5.81,4.85-8.99c2.08-1.76,4.25-2.5,5.51-2.82c0.22,3.42,0.43,6.85,0.65,10.27
		C650.55,38.73,647.08,41.93,643.61,45.14z"/>
	<path id="rightDistalPhalanx2Shaft" fill="#EDEDED" d="M647.32,71.46
		c0.1-0.52,0.23-1.29,0.37-2.22c0.41-2.8,0.82-5.53,0.54-8.99c-0.23-2.85-0.81-5.01-1.08-5.93c-0.22-0.76-0.44-1.39-0.65-1.94
		c-0.66-1.7-1.09-2.42-1.69-3.81c-0.33-0.78-0.79-1.93-1.21-3.42c3.47-3.21,6.95-6.42,10.42-9.63c4.37,2.1,8.74,4.19,13.11,6.29
		c-0.05,2.18-0.23,3.93-0.39,5.14c-0.22,1.62-0.48,2.89-0.63,5.12c-0.08,1.14-0.09,2-0.09,2.25c-0.01,0.93,0,4.43,1.08,8.99
		c0.27,1.13,0.68,2.67,1.32,4.45c-2.94,2.44-5.89,4.87-8.83,7.31C655.51,73.86,651.41,72.66,647.32,71.46z"/>
	<path id="rightDistalPhalanx2BaseRadial" fill="#EDEDED" d="M661.6,85.28
		c-0.92,0.12-2.35,0.31-4.09,0.61c-1.98,0.34-2.18,0.37-3.34,0.61c-1.34,0.27-3.3,0.69-5.75,0.18c-1.36-0.28-3.36-0.7-4.13-2.16
		c-0.76-1.42,0.21-2.85,1.26-5.93c0.5-1.46,0.53-1.64,0.76-2.45c0.55-1.96,0.86-3.59,1.03-4.67c4.09,1.2,8.19,2.41,12.28,3.61
		C660.27,78.47,660.93,81.87,661.6,85.28z"/>
	<path id="rightDistalPhalanx2BaseUlnar" fill="#EDEDED" d="M668.43,67.76
		c0.24,0.7,0.68,1.75,1.45,2.9c0.4,0.58,0.75,1,1,1.28c2.23,2.5,4.27,2.85,4.67,5.09c0.38,2.16-1.05,4.01-1.25,4.26
		c-0.71,0.88-1.69,1.53-5.85,2.6c-1.7,0.44-4.03,0.96-6.85,1.4c-0.67-3.4-1.33-6.81-2-10.21C662.54,72.63,665.49,70.19,668.43,67.76
		z"/>
	<path id="rightDistalPhalanx2TuftUlnar" fill="#EDEDED" d="M653.38,25.24
		c0.98-0.22,2.48-0.41,4.2-0.05c4.57,0.96,6.91,5.05,7.73,6.47c2.46,4.29,2.06,8.57,1.83,10.15c-4.37-2.1-8.74-4.19-13.11-6.29
		C653.81,32.09,653.59,28.67,653.38,25.24z"/>
	<path id="rightMetacarpal1HeadRadial" fill="#9D9D9C" d="M614.59,452.58
		c-1.38-1.82-3.23-4.56-4.85-8.18c-2.17-4.84-3.37-7.76-2.88-11.51c0.65-4.94,4.1-8.1,6.83-10.61c1.5-1.38,3.21-2.52,3.21-2.52
		c1.09-0.73,2.09-1.28,2.92-1.69c2.29,5.84,4.59,11.69,6.88,17.53C622.66,441.27,618.63,446.93,614.59,452.58z"/>
	<path id="rightMetacarpal1BaseRadial" fill="#9D9D9C" d="M693.08,536.57
		c-1.3,0.73-3.11,1.75-5.28,2.94c-4,2.2-6.26,3.34-9.49,3.99c-0.13,0.03-0.24,0.05-0.34,0.06c-2.68,0.47-5.79,1.01-8.24-0.69
		c-1.71-1.18-1.9-2.66-3.73-6.7c-0.97-2.13-2.63-5.3-4.31-8.45c-0.75-1.4-1.38-2.55-1.81-3.32c7.64-1.29,15.27-2.57,22.91-3.86
		C686.22,525.89,689.65,531.23,693.08,536.57z"/>
	<path id="rightMetacarpal1BaseUlnar" fill="#9D9D9C" d="M690.27,504.9
		c2,0.73,5.62,2.37,8.81,5.93c1.46,1.63,3.2,4.08,4.31,7.37c0.81,2.4,1.58,4.67,0.99,7.28c-0.7,3.11-2.94,4.92-6.61,7.82
		c-1.17,0.92-2.5,1.85-2.5,1.85c-0.88,0.6-1.64,1.08-2.19,1.42c-3.43-5.34-6.86-10.68-10.29-16.02
		C685.29,515.33,687.78,510.12,690.27,504.9z"/>
	<path id="rightMetacarpal1Shaft" fill="#9D9D9C" d="M647.49,440.99
		c0.75,2.67,1.75,5.88,3.05,9.49c0.27,0.74,1.43,3.96,3.07,7.77c2.19,5.11,5.16,11.94,10.43,20.13c3.18,4.95,6.54,10.18,12.4,15.91
		c5.14,5.02,10.14,8.42,13.84,10.61c-2.49,5.22-4.99,10.43-7.48,15.65c-7.64,1.29-15.27,2.57-22.91,3.86
		c-2.59-4.38-4.77-7.92-6.28-10.34c-3.64-5.83-9.64-15.17-11.16-17.45c-0.2-0.31-1.04-1.56-2.11-3.29c0,0-0.2-0.33-0.4-0.66
		c-1.71-2.83-7.03-13.15-10.85-19.66c-1.69-2.88-3.07-4.98-3.89-6.23c-4.05-6.15-7.84-10.93-10.61-14.2
		c4.04-5.66,8.07-11.32,12.11-16.98C633.63,437.4,640.56,439.19,647.49,440.99z"/>
	<path id="rightMetacarpal1HeadUlnar" fill="#9D9D9C" d="M619.82,418.08
		c4.53-1.98,8.44-2.88,11.12-3.34c5.26-0.89,9.14-1.58,11.69,0.72c1.75,1.58,2.18,3.88,2.7,6.65c0.77,4.14-0.08,5.86,0.18,10.07
		c0.02,0.32,0.04,0.5,0.06,0.77c0.34,3.57,1.2,6.27,1.91,8.04c-6.93-1.79-13.86-3.59-20.79-5.38
		C624.41,429.76,622.12,423.92,619.82,418.08z"/>
	<path id="rightProximalPhalanx1BaseUlnar" fill="#C6C6C6" d="M617.81,415.58
		c2.29-1.07,4.24-1.71,5.6-2.09c5.29-1.48,8.51-1.39,12.86-3.69c0.93-0.49,1.84-1.04,2.24-2.07c0.39-1,0.53-3.15-4.85-8.99
		c-1.05-1.14-1.92-1.98-2.66-2.67c-2.34-2.19-4.45-3.8-5.97-4.88c-4.39,4.46-8.77,8.93-13.16,13.39
		C613.85,408.26,615.83,411.92,617.81,415.58z"/>
	<path id="rightProximalPhalanx1BaseRadial" fill="#C6C6C6" d="M594.29,403.61
		c0.29,1.39,0.7,3.36,1.21,5.71c1.3,5.98,2.01,7.99,2.57,10.11c0.98,3.69,2.01,6.71,4.13,7.19c1.78,0.4,3.76-1.13,5.67-2.61
		c0.54-0.42,1.02-0.83,1.45-1.23c1.4-1.3,2.26-2.41,2.51-2.73c0.85-1.06,2.49-2.58,5.99-4.48c-1.98-3.66-3.96-7.32-5.94-10.99
		C606.01,404.27,600.15,403.94,594.29,403.61z"/>
	<path id="rightProximalPhalanx1Shaft" fill="#C6C6C6" d="M570.51,349.4
		c2.38,4.03,5.53,9.68,8.85,16.64c3.33,6.97,5.47,12.41,8.09,19.06c1.87,4.76,4.25,11.03,6.83,18.52
		c5.86,0.33,11.72,0.66,17.58,0.99c4.39-4.46,8.77-8.93,13.16-13.39c-4.9-5.37-8.84-10.02-11.69-13.48c-3-3.66-7.24-8.96-11.87-16
		c-4.46-6.78-5.97-10.12-6.47-14.2c-0.43-3.49,0.01-6.45,0.46-8.43c-5.05-0.91-10.09-1.81-15.14-2.72
		C577.05,340.71,573.78,345.06,570.51,349.4z"/>
	<path id="rightProximalPhalanx1HeadRadial" fill="#C6C6C6" d="M576.36,326.05
		c-1.69,0.37-6.91,1.75-8.87,6c-1.64,3.56-0.33,7.73,1.26,12.76c0.62,1.97,1.28,3.54,1.76,4.58c3.27-4.34,6.54-8.68,9.81-13.03
		C579,332.93,577.68,329.49,576.36,326.05z"/>
	<path id="rightProximalPhalanx1HeadUlnar" fill="#C6C6C6" d="M595.46,339.09
		c0.03-0.73,0.01-1.67-0.16-2.75c-0.03-0.21-0.26-1.54-0.84-3.03c-0.56-1.42-1.49-3.73-3.78-5.57c-4.07-3.3-9.64-2.51-12.04-2.16
		c-0.96,0.14-1.75,0.33-2.28,0.47c1.32,3.44,2.64,6.88,3.95,10.32C585.37,337.28,590.41,338.18,595.46,339.09z"/>
	<path id="rightDistalPhalanx1TuftRadial" fill="#EDEDED" d="M533.24,282.86
		c-1.81-1.35-2.66-2.81-3.05-3.64c-0.33-0.69-0.5-1.28-0.62-1.73c-0.31-1.1-0.73-2.57-0.48-4.31c0.26-1.85,1.15-3.21,1.78-3.99
		c1.39,1.75,2.77,3.5,4.16,5.24C534.42,277.25,533.83,280.05,533.24,282.86z"/>
	<path id="rightDistalPhalanx1Shaft" fill="#EDEDED" d="M558.04,314.57
		c-0.59-1.33-1.44-3.16-2.59-5.25c-2.37-4.3-4.59-7.22-6.65-9.89c-4.33-5.62-8.24-9.52-10.79-12.04c-1.9-1.89-3.56-3.42-4.77-4.52
		c0.59-2.81,1.18-5.62,1.77-8.42c3.18,0.09,6.35,0.17,9.53,0.26c1.71,2.99,3.46,5.22,4.8,6.75c1.2,1.37,2.14,2.43,3.65,3.59
		c1.83,1.4,2.66,1.55,4.52,2.88c1.91,1.37,3.1,2.7,4.05,3.78c3.74,4.2,4.66,7.66,7.43,10.54c1.4,1.46,3,2.58,3,2.58
		c0.63,0.44,1.17,0.77,1.54,0.98c-1.27,2.79-2.55,5.58-3.82,8.37C565.82,314.3,561.93,314.43,558.04,314.57z"/>
	<path id="rightDistalPhalanx1BaseRadial" fill="#EDEDED" d="M574.39,323.33
		c-0.61,0.23-1.6,0.64-2.75,1.26c-4.91,2.67-5.75,5.68-8.38,5.58c-1.87-0.08-3.61-1.41-4.38-2.88c-1.08-2.07,0.12-3.74,0.36-6.65
		c0.07-0.89,0.04-1.27,0.01-1.68c-0.13-1.91-0.72-3.42-1.2-4.4c3.89-0.13,7.78-0.26,11.67-0.4
		C571.27,317.22,572.83,320.28,574.39,323.33z"/>
	<path id="rightDistalPhalanx1BaseUlnar" fill="#EDEDED" d="M573.53,305.8
		c0.68,0.38,1.67,0.95,2.83,1.67c0.52,0.32,2.12,1.35,3.36,2.21c3.88,2.69,5.95,4.52,6.47,7.19c0.13,0.69,0.41,2.11-0.36,3.24
		c-1.06,1.55-3.24,1.24-6.47,1.8l0,0c-1.68,0.35-3.34,0.83-4.98,1.43c-1.56-3.05-3.12-6.11-4.67-9.16
		C570.99,311.38,572.26,308.59,573.53,305.8z"/>
	<path id="rightDistalPhalanx1TuftUlnar" fill="#EDEDED" d="M530.86,269.19
		c0.17-0.18,0.45-0.45,0.86-0.69c2.59-1.47,6.4,0.73,7.91,1.62c1.23,0.72,2.09,1.44,2.6,1.9c1.06,0.96,1.8,1.92,2.31,2.67
		c-3.18-0.09-6.35-0.17-9.53-0.26C533.63,272.69,532.24,270.94,530.86,269.19z"/>
	<path id="rightTrapezium" fill="#878787" d="M705.14,530.04
		c0.72-0.7,2.2-2.14,4.45-2.56c2.37-0.44,5.37,0.3,6.88,2.29c1.21,1.6,0.84,3.17,0.67,7.15c-0.05,1.28-0.26,7.13,0.54,12.54
		c0.6,4.05,1.03,6.96,2.83,10.38c1.61,3.05,2.96,3.95,2.7,5.8c-0.43,3.04-4.7,4.76-6.61,5.53c-4.61,1.86-8.8,1.42-11.73,1.08
		c-1.39-0.16-5.29-0.71-9.84-2.83c-3.8-1.77-6.15-3.74-8.76-5.93c-4.5-3.77-6.76-5.73-7.42-9.03c-0.13-0.68-0.66-3.31,0.67-5.8
		c0.99-1.85,2.37-2.45,7.69-5.12c4.77-2.4,7.19-3.62,8.9-4.72c3.6-2.32,5.4-3.47,6.88-5.8C703.56,532.1,703.99,531.17,705.14,530.04
		z"/>
	<path id="rightTrapezoid" fill="#878787" d="M724.75,527.43
		c3.34-0.97,5.93-1.64,6.88-1.89c4.63-1.23,4.08-1.72,6.74-2.16c2.74-0.45,5.72-0.93,8.09,0.81c2.28,1.67,2.78,4.49,2.97,5.53
		c0.41,2.28-0.21,3.27-0.67,6.88c-0.2,1.59-0.23,3.76-0.27,8.09c-0.06,5.71-0.09,8.57,0.27,9.84c0.64,2.28,1.51,3.6,0.81,5.12
		c-0.65,1.41-2.21,2.03-3.24,2.43c-2.21,0.86-3.15,0.38-6.07,0.67c-4.21,0.43-4.45,1.66-7.96,1.62c-1.45-0.02-3.19-0.06-4.99-1.08
		c-1.91-1.08-2.84-2.67-3.78-4.31c-0.41-0.72-1.63-2.96-2.56-7.55c-0.52-2.57-0.66-4.77-0.94-9.17c-0.08-1.2-0.32-4.21-0.13-8.09
		c0.13-2.71,0.38-4.16,1.45-5.25C721.99,528.27,722.65,528.04,724.75,527.43z"/>
	<path id="rightScaphoid" fill="#878787" d="M749.56,570.63
		c-0.28-1.13-0.95-3.87-3.1-4.85c-1.09-0.5-2.25-0.41-4.18-0.27c-0.94,0.07-1.76,0.2-3.37,0.54c-1.9,0.41-3.2,0.75-6.88,1.75
		c-3.46,0.94-3.91,1.07-4.72,1.35c-1.91,0.66-3,1.19-4.31,1.75c-2.96,1.28-5.27,1.98-8.49,2.97c-5.81,1.77-6.95,1.57-8.36,3.1
		c-1.73,1.89-1.93,4.31-2.02,5.39c-0.12,1.51-0.19,5.9,5.66,12.94c1.66,1.99,4.48,5.04,13.35,11.06c4.32,2.93,8.92,6.03,15.78,9.57
		c6.93,3.58,13.02,6.68,21.57,8.36c6.53,1.29,11.42,2.17,15.37-0.81c4.24-3.2,4.67-8.79,4.72-9.57c0.04-0.6,0.3-6.07-3.51-10.11
		c-2.57-2.74-4.37-2.01-10.11-4.72c-2.76-1.3-8.05-3.86-12.4-9.03c-2.76-3.28-5.56-6.6-5.53-11.06
		C749.04,575.86,750.44,574.25,749.56,570.63z"/>
	<path id="rightCapitate" fill="#878787" d="M797.54,524.87
		c-0.4-1.23-1.66-4.35-4.72-5.93c-1.96-1.01-3.8-0.9-7.69-0.4c-5.85,0.74-8.75,1.37-12,1.89c-9.48,1.49-10.89,0.23-14.43,2.43
		c-0.72,0.45-4.16,2.67-5.93,6.88c-0.8,1.9-0.95,4.17-1.21,8.63c-0.17,2.81-0.31,5.31-0.13,8.63c0.32,5.98,1.25,6.17,1.75,12.27
		c0.18,2.17,0.48,6.07,0,11.06c-0.47,4.84-1.15,5.31-0.81,7.82c0.57,4.16,3,6.98,5.12,9.44c2,2.32,5.46,6.33,11.46,7.96
		c1.83,0.5,5.52,1.5,9.57,0.13c2.63-0.89,3.63-2.17,9.44-8.36c7.84-8.35,8.53-8.69,9.03-10.65c1.05-4.1-1.37-5.1-2.97-13.21
		c-0.69-3.51-2.04-10.36-0.2-18.07c0.84-3.54,2-5.76,3.51-12.67C798.02,529.58,798.36,527.4,797.54,524.87z"/>
	<path id="rightHamate" fill="#878787" d="M847.84,536.8
		c-0.42-1.03-1.51-3.33-4.99-6.34c-1.8-1.55-5.3-4.2-10.65-6.07c-4.49-1.56-8.01-1.79-12.27-2.02c-8.54-0.47-15.08-0.83-17.93,2.97
		c-1.1,1.46-0.28,1.72-1.89,7.69c-1.38,5.11-2.08,5.3-3.24,9.84c-1.22,4.81-1.43,8.54-1.48,9.57c-0.07,1.49-0.16,5,0.54,9.44
		c0.83,5.23,2.34,9.12,3.1,10.92c1.76,4.15,2.84,6.7,5.39,9.17c0.56,0.54,6.85,6.47,11.73,4.45c0.57-0.24,2.16-1.01,5.12-7.69
		c2.73-6.13,2.29-7.49,4.31-12.13c1.52-3.48,3.6-8.11,8.09-11.87c2.63-2.2,3.16-1.64,8.53-5.6c4.97-3.66,6.27-5.44,6.58-7.48
		C849.06,539.77,848.41,538.2,847.84,536.8z"/>
	<path id="rightPisiform" fill="#878787" d="M867.96,551.16
		c-2.47-3.74-6.2-5.03-6.88-5.26c-2.59-0.86-4.84-0.71-6.07-0.54c0.37,2.45,0.78,5.87,0.94,9.98c0.18,4.38,0.01,7.91-0.27,11.87
		c-0.38,5.31-1.1,13.16-2.56,23.19c2.58-0.88,6.78-2.73,10.65-6.61c1.71-1.72,5.99-6.12,7.18-12.93c0.5-2.87,0.1-5.74-0.71-11.47
		C869.44,553.64,868.55,552.05,867.96,551.16z"/>
	<path id="rightTriquetral" fill="#878787" d="M849.89,593.9
		c-0.4,2.16-1.14,5.82-3.91,9.17c-1.18,1.42-1.98,2.39-3.35,2.83c-0.94,0.3-3.36,0.5-12.81-7.28c-5.6-4.62-8.41-6.92-8.75-10.34
		c-0.25-2.46,0.95-2.46,3.76-10.96c1.28-3.87,1.31-4.75,2.7-8.36c0.89-2.33,1.88-4.89,3.64-7.55c0.58-0.88,1.88-2.81,4.02-4.72
		c2.39-2.14,3.94-2.56,6.74-4.18c6.75-3.9,7.74-7.21,9.44-6.61c2.04,0.72,1.93,6.06,1.62,16.72c-0.12,4.02-0.35,7.23-0.81,13.48
		C852.03,578.2,851.48,585.36,849.89,593.9z"/>
	<path id="rightLunate" fill="#878787" d="M837.25,611.08
		c-0.62-2.63-2.17-4.26-3.64-5.8c-1.47-1.54-2.13-1.76-5.66-4.31c-0.36-0.26-3.7-2.69-7.15-5.53c-4.8-3.96-4.21-4.12-6.2-5.26
		c-4.42-2.53-5.84-0.9-8.63-3.37c-2.19-1.93-2.5-3.98-5.12-4.85c-0.47-0.16-1.72-0.56-3.1-0.13c-1.16,0.35-1.84,1.12-2.43,1.75
		c-1.37,1.5-2.89,2.87-4.18,4.45c-1.75,2.15-3.6,3.95-7.28,7.55c-2.82,2.75-3.46,3.17-3.78,4.45c-0.47,1.93,0.47,3.16,1.89,6.61
		c2.19,5.31,1.33,5.73,3.24,10.11c1.51,3.48,2.62,6.04,4.72,7.96c2.41,2.19,5.05,2.56,20.76,2.16c10.81-0.28,13.86-0.56,17.8-2.29
		c6.04-2.65,7.64-5.84,8.09-6.88C837.05,616.61,837.95,614.05,837.25,611.08z"/>
	<path id="rightRadius" fill="#706F6F" d="M705.12,637.85
		c13.58,29.45,17.27,29.8,20.49,42.34c2.54,9.87,2.49,18.38,2.43,30.74c-0.06,10.44-0.97,19.2-1.89,25.62c22.65,0,45.3,0,67.96,0
		c-0.04-8.18-0.03-15.68,0-22.38c0.1-20.8,0.39-23.31,1.62-26.97c3.02-8.95,6.52-9.44,8.9-19.69c0.05-0.23,0.66-5.1,1.89-14.83
		c0.66-5.28,1.39-8.58,0.27-12.94c-0.57-2.21-1.24-4.83-3.39-6.81c-2.98-2.73-6.85-2.43-12.79-2.36c0,0-8.12,0.09-20.49-0.81
		c-5.24-0.38-10.89-0.79-18.07-2.7c-3.49-0.93-10.07-2.72-17.53-7.01L705.12,637.85z"/>
	<path id="rightRadialStyloidProcess" fill="#706F6F" d="M734.51,620.06c-6.27-3.6-14.37-10.5-15.37-11.33
		c-3.05-2.52-5.91-5.05-10.25-5.39c-1.02-0.08-4.67-0.37-7.01,1.89c-2.54,2.44-2.13,6.55-1.81,9.7c1.61,15.48,5.04,22.93,5.04,22.93
		L734.51,620.06z"/>
	<path id="rightUlna" fill="#706F6F" d="M843.45,624.1c-3.06,2.54-6.42,3.32-8.36,3.78c-2.09,0.49-2.23,0.24-9.71,0.81
		c-5.66,0.43-6.54,0.65-7.55,1.08c-0.73,0.31-4.33,1.83-6.2,5.39c-1.11,2.11-1.05,3.88-0.54,9.98c0.67,7.97,1,11.96,1.35,13.48
		c1.49,6.54,3.29,7.83,5.12,13.21c1.77,5.21,1.74,10.19,1.62,19.96c-0.14,10.82-1.14,14.59-1.89,27.24
		c-0.44,7.44-0.53,13.48-0.54,17.26c12.31,0,24.63,0,36.94,0c0.23-10.39,0.14-18.89,0-24.81c-0.14-6.18-0.36-10.86-0.54-21.03
		c-0.27-15.13-0.04-18.09,0.81-21.84c0.9-3.99,1.15-2.91,5.39-15.37c4.33-12.72,4.7-15.71,4.85-17.26L843.45,624.1z"/>
	<path id="rightUlnarStyloidProcess" fill="#706F6F" d="M864.22,635.97c0.68-6.88-0.42-11.76-1.35-15.91
		c-1.21-5.37-2.01-8.76-4.31-9.44c-3.44-1.01-8.2,4.58-9.82,6.5c-2.96,3.48-2.56,4.73-5.28,6.99L864.22,635.97z"/>
</g>
</svg>
