<?xml version="1.0" encoding="UTF-8"?>
<svg xmlns="http://www.w3.org/2000/svg" viewBox="0 0 579.89 766.99">
  <g>
    <path id="leftTalus"
      d="M235.25,510.53c-3.43-4.6-7.64-8.9-13.43-13.26-6.53-4.92-12.92-9.79-22.35-12.12-8.92-2.2-15.85-1.11-25.59,.43-8.28,1.31-19.01,3.12-30.11,10.57-4.44,2.98-9.01,4.56-10.41,8.85-.82,2.49-.07,3.73,.52,10.06,.39,4.21,.87,9.38,.18,14.42-.26,1.9-1.25,8.51-5.58,14.56-4.02,5.61-6.48,4.55-14.52,11.38-5.99,5.09-11.61,9.86-13.63,17.43-1.4,5.26,.41,6.31-1.44,12.4-1.89,6.18-4.18,6.46-6.81,12.87-1.27,3.1-4.33,10.52-2.11,17.15,1.73,5.15,5.7,7.01,11.45,11.27,3.58,2.65,10.07,9.76,23.03,23.97,16.73,18.34,19.98,22.07,19.98,22.07,8.5,9.77,11.12,13.28,16.39,14.09,6.39,.97,12.27-2.73,18.54-6.68,6.96-4.38,6.72-6.36,14.52-11.38,4.19-2.69,5.36-2.83,14.51-7.41,11.06-5.53,16.58-8.29,18.26-9.9,10.75-10.31,9.79-27.36,9.64-30.08-.23-4.11-1.34-8.05-3.56-15.93-4.16-14.79-6.4-15.41-7.86-23.85-1.61-9.31-.31-16.69,1.09-24.64,1.95-11.05,2.93-16.57,7.46-21.95,4.01-4.75,7.29-5.23,8.2-9.38,1.07-4.86-2.25-9.45-6.36-14.96Z"
      fill="#878787" />
    <path id="leftCalcaneus"
      d="M204.42,665.62c1.98,3.85,4.21,9.21,5.36,15.86,.51,2.95,.54,4.33,.55,18.72,.01,14.23,.08,15.08-.64,17.38-1.58,5-3.22,5.08-9.17,14.88-5.73,9.44-4.8,10.33-7.8,14.04-2.55,3.15-5.62,5.46-21.36,11.61-16.93,6.62-25.53,9.9-32.09,8.58-1.7-.34-10.19-2.21-16.34-9.4-5.23-6.1-5.69-12.44-7.28-21.38-1.47-8.26-4.32-17.48-10-35.94-5.93-19.25-8.9-28.88-13.68-36.7-5.21-8.52-9.2-11.97-10.06-20.05-.91-8.55,2.78-12.01,.13-19.14-2.47-6.66-6.44-5.67-10.21-13.54-.9-1.88-4.58-9.57-2.67-18.17,1.47-6.61,4.96-8.04,4.28-13.01-.58-4.2-3.24-4.41-5.92-9.95-2.58-5.33-2.52-10.5-2.58-17.1-.05-6.28,.81-5.99,.34-10.5-.67-6.41-2.72-9.84-1-11.46,1.08-1.02,2.56-.29,6.12-.17,3.13,.1,5.65-.48,10.68-1.66,6.79-1.58,6.8-2.51,14.05-4.48,7.17-1.94,6.97-.97,12.04-2.68,5.89-1.98,7.08-3.61,12.86-5.64,4.51-1.58,8.39-2.2,10.88-2.49,.64,2.28,1.39,5.78,1.33,10.08-.03,2.43-.16,12.71-7.11,20.83-.81,.95-.29,.21-12,9.26-6.66,5.15-8.66,6.81-10.78,9.88-2.9,4.2-4.07,8.23-4.47,9.77-1.5,5.8,.2,6.41-1.1,11.1-1.64,5.92-4.61,5.91-7.74,13.58-.96,2.35-2.12,5.26-2.35,9.23-.12,2.11-.49,8.37,3.27,13.61,2.36,3.29,4.02,2.93,9.89,7.8,.71,.59,2.53,2.13,8,7.87,5.4,5.68,7.69,8.52,13.59,15.05,8.32,9.22,7.84,8.43,12.78,14.04,4.02,4.57,8.12,9.08,12.03,13.75,5.28,6.29,7.02,8.74,10.89,9.97,3.94,1.25,7.51,.42,10.53-.29,5.41-1.26,9.05-3.77,13.3-6.76,5.87-4.12,6.55-5.9,11.96-9.8,4.57-3.3,8.73-5.37,11.51-6.6Z"
      fill="#878787" />
    <path id="leftNavicular"
      d="M238.25,439.7c3.78,3.52,6.34,7.54,11.47,15.6,4.29,6.74,6.45,10.19,7.41,14.51,.5,2.25,1.78,8.45-.8,15.59-.58,1.62-3.81,10.55-12.81,14.47-1.88,.82-3.6,1.57-6,1.61-7.55,.12-9.77-7.09-21.47-14.36-2.63-1.64-7.12-4.38-13.52-6.04-6.13-1.59-10.88-1.36-17.77-.97-6.18,.35-13.96,.78-23.84,3.89-12.19,3.83-20.17,9.4-21.81,10.57-3.94,2.8-6.96,5.55-9.08,7.65-.94-1.79-2.39-4.67-3.98-8.31-2.84-6.54-2.54-7.33-4.58-11.15-2.93-5.47-4.53-5.68-5.53-9.62-.33-1.31-1.2-4.7,0-8.3,1.54-4.64,4.75-4.39,9.57-10.22,4.58-5.54,3.32-7.74,7.36-10.75,2-1.48,2.88-1.37,10.14-3.77,4-1.32,7.93-2.86,11.9-4.29,13.81-4.98,14.52-5.33,15.71-6.07,2.49-1.54,4.3-3.05,7.92-4.3,1.35-.47,3.87-1.32,7.1-1.34,3.4-.02,5.09,.89,8.46,1.79,4.12,1.09,4.9,.6,12.76,1.41,7.04,.73,10.55,1.09,13.89,2.03,8.96,2.53,14.85,7.91,17.51,10.38Z"
      fill="#878787" />
    <path id="leftCuboid"
      d="M130,510.17c.62-1.23-.59-2.51-4.52-10.43-.37-.74-.91-1.82-1.5-3.32-.94-2.4-1.14-3.8-3.57-9.23-1.84-4.13-3.32-7.4-6.05-11.38-1.35-1.96-3.41-4.93-6.84-8.06-3.26-2.97-4.29-2.93-6.95-5.17-4.28-3.6-3.58-5.38-9.1-13.28-5.59-8-8.09-8.73-8.35-12.98-.16-2.55,.51-6.01,1.04-8.75,.51-2.64,1.06-4.53,.81-7.29-.19-1.98-.71-3.57-1.12-4.59-2.43-.41-6.11-.76-10.48-.17-2.76,.38-11.25,1.66-18.39,8.47-6.18,5.89-8.12,12.86-9.6,18.16-.37,1.32-.97,5.04-2.16,12.46-1.2,7.49-1.4,9.76-1.05,12.72,.42,3.55,.78,6.62,3,9.48,2.87,3.71,5.95,3.32,7.46,6.93,.52,1.23,.43,3.12,.24,6.84-.35,6.8-1.05,7.14-.88,10.54,.08,1.72,.37,6.09,3.06,10.2,2.56,3.91,4.44,3.18,6,6.69,1.63,3.69,.36,6.31,2.51,8.08,.27,.22,1.07,.81,4.42,1.06,2.96,.22,5.73,0,9.33-.64,5.23-.93,9.06-2.21,9.89-2.49,4.65-1.57,4.4-2.07,7.94-3.04,4.01-1.1,4.69-.56,8.97-1.69,2.63-.69,4.4-1.43,7.52-2.73,6.76-2.82,6.64-3.64,10.25-4.6,5.08-1.35,7.38-.27,8.14-1.8Z"
      fill="#878787" />
    <path id="leftLateralCuneiform"
      d="M131.8,439.9c-.89,.88-2.15,2.24-3.43,4.09-2.5,3.62-2.19,4.97-3.92,7.83-3.13,5.18-6.03,3.87-9.22,9.11-2.13,3.49-1.99,5.97-3.69,6.28-1.08,.2-1.87-.66-5.58-3.93-4.92-4.34-4.53-3.72-5.37-4.67-2.79-3.15-1.85-4.05-5.14-9.29-1.03-1.64-2.6-3.69-5.74-7.8-3.04-3.98-3-3.73-3.27-4.32-1.97-4.35,1.02-6.91,1.06-13.63,.03-4.83-1.47-8.71-3-12.64-.79-2.03-1.09-2.39-4.15-9.29-2.88-6.51-3.06-7.2-2.79-8.15,.86-2.98,4.55-2.62,12.75-6.89,5.73-2.99,6.29-4.34,11.35-6.41,3.74-1.52,7.01-2.24,9.16-2.61,.44,1.18,1.47,3.44,3.73,5.45,1.87,1.67,3.79,2.45,4.94,2.82-.39,2.15-.85,5.3-1.01,9.11-.14,3.55,.02,6.64,.9,14.36,1.04,9.19,1.56,13.79,2.06,15.34,1.15,3.56,3.74,9.31,10.36,15.25Z"
      fill="#878787" />
    <path id="leftIntermediateCuneiform"
      d="M159.23,371.82c2.08,1.04,2.84,2.89,4.3,5.85,.02,.04,2.79,4.62,8.07,13.91,4.91,8.63,5.81,7.38,7.86,12.49,.74,1.84,4.85,12.57,.49,16.92-.6,.6-.58,.3-4.5,2.2-4.25,2.06-5.07,2.81-8.97,4.75-2.45,1.22-4.21,1.97-6.94,3.13-4.08,1.73-7.11,3.02-10.82,4.2-7.5,2.37-11.25,3.56-14.62,2-2.67-1.23-4.04-3.47-6-6.69-.99-1.62-2.81-4.94-4.26-11.54-.48-2.2-.55-3.05-1.54-17.55-.41-5.97-.62-9.52,.57-14.13,.93-3.63,2.04-5.19,2.72-6.01,1.08-1.3,2.67-2.62,8.97-4.75,5.02-1.7,5.63-1.48,15.18-3.85,5.59-1.39,7.4-1.97,9.48-.92Z"
      fill="#878787" />
    <path id="leftMedialCuneiform"
      d="M227.88,358.32c-.87-1.28-1.94-2.14-10.95-5.54-10.1-3.82-10.89-3.55-16.03-5.82-6.05-2.67-6.3-3.63-12.06-5.8-6.29-2.37-9.51-3.51-12.46-2.16-5.04,2.3-6.43,9.94-6.68,11.32-.5,2.73,.04,3.2-.71,7.37-.44,2.45-.8,4.93-2.21,7.77-1.33,2.7-2.17,3.11-2.46,4.91-.39,2.42,.75,4.38,2.43,7.19,5.27,8.77,7.56,12.15,7.56,12.15,4.1,5.12,5.53,8.15,6.25,9.56,2.23,4.34,3.94,7.68,4.52,12.42,.52,4.26-.31,6.13,1.35,8.18,.38,.47,1.6,1.82,7.01,2.82,5.01,.92,7.26,.42,13.41,.63,3.75,.13,6.21,.22,9.47,.98,6.27,1.46,11.64,4.71,12.74,5.38,3.96,2.4,5.47,4.1,6.44,3.5,1.25-.78-.03-4.37-.87-8.95-.65-3.52-.31-3.68-.58-15.92-.29-12.99-.39-19.5-1.35-23.7-1.45-6.33-2.63-6.97-3.28-12.71-.84-7.48,.74-10.2-1.55-13.58Z"
      fill="#878787" />
    <path id="leftMetatarsal1HeadFibular"
      d="M188.2,198.48c-.35-2.04-.82-5.06-1.23-8.74-1.12-9.99-1.75-15.12,.1-19.5,.7-1.66,3.09-6.72,8.5-10.13,3.42-2.15,7.27-2.54,14.86-3.47,3.65-.45,6.71-.64,8.87-.73l-.26,25.51c-10.28,5.68-20.56,11.37-30.84,17.05Z"
      fill="#9d9d9c" />
    <path id="leftMetatarsal1Shaft"
      d="M176.35,307.61c4.5-10.04,7.09-18.71,8.65-24.94,3.27-13.11,3.94-23.47,4.92-38.69,.46-7.2,.87-13.79,.53-22.78-.34-9.15-1.3-16.88-2.24-22.71,10.28-5.68,20.56-11.37,30.84-17.05,9.6,6.58,19.2,13.17,28.8,19.75-1.03,6.54-2.56,16.37-4.33,28.37-3.1,21.02-5.08,34.55-7.01,51.86-.86,7.75-2.02,18.98-3.08,32.7l-31.64,6.82-25.43-13.33Z"
      fill="#9d9d9c" />
    <path id="leftMetatarsal1BaseFibular"
      d="M197.68,342.05c-2.11-1.3-5.11-2.9-8.94-4.15-1.01-.33-2.33-.73-4.06-1.07-3.99-.79-7.27-1.39-10.45,.19-6.42,3.2-6.98,12.88-7.05,14.33-.21-1.54-.71-3.76-1.98-6.14-.8-1.5-1.69-2.69-2.48-3.57,.53-1.12,1.17-2.49,1.88-4.07,0,0,1.19-2.63,2.35-5.32,1.42-3.31,5-12.34,9.39-24.64l25.43,13.33c-1.36,7.04-2.73,14.08-4.09,21.12Z"
      fill="#9d9d9c" />
    <path id="leftMetatarsal1BaseTibial"
      d="M233.42,314.12c-.24,1.95-.31,4.83,.56,8.66,.03,.12,.04,.18,.05,.23,.33,1.47,1.7,7.98,1.03,16.27-.38,4.67-.96,12.88-5.23,14.53-2.14,.83-3.97-.48-8.54-2.68-9.42-4.55-8.55-2.29-19.77-7.29-.86-.38-1.82-.83-1.82-.83-.83-.38-1.52-.72-2.03-.97,1.36-7.04,2.73-14.08,4.09-21.12l31.64-6.82Z"
      fill="#9d9d9c" />
    <path id="leftMetatarsal1HeadTibial"
      d="M219.29,155.92c2.33-.13,5.6-.18,9.49,.2,3.32,.33,5.94,.59,9.17,1.72,2.49,.87,6.31,2.22,9.52,5.66,.75,.8,3.56,3.97,4.85,10.04,1.29,6.06,0,11.1-2.51,20.79-.74,2.88-1.46,5.23-1.98,6.83-9.6-6.58-19.2-13.17-28.8-19.75l.26-25.51Z"
      fill="#9d9d9c" />
    <path id="leftSesamoid"
      d="M185.58,192.39c.75,4.56,1.14,7.98,1.57,11.77,.39,3.44,.85,7.94,1.25,13.24-1.8-.2-4.73-.81-7.21-2.98-4.17-3.65-4.26-9.28-4.35-14.69-.07-3.89-.08-7.94,2.57-11.86,1.47-2.18,3.25-3.56,4.49-4.36,.47,2.19,1.08,5.23,1.68,8.88Z"
      fill="#9d9d9c" />
    <path id="leftMetatarsal2Shaft"
      d="M116.02,347.85c1.52-2.12,3.57-5.2,5.66-9.11,5.53-10.35,7.26-19.5,8.63-25.12,2.43-9.99,1.65-16.26,4.99-41.94,2.57-19.75,3.12-35.91,3.06-47.55-.05-10.26-.42-20.43-2.85-32.59-1.11-5.57-2.36-10.16-3.34-13.42l19.62-14.21c7.32,5.09,14.65,10.17,21.97,15.26-.2,.85-.53,2.13-1.06,3.65-1.56,4.56-3.58,7.62-4.03,8.34-3.35,5.37-3.82,15.44-4.01,20.2-1.04,25.85-1.56,38.77-1.75,45.99-.44,16.25-1.48,31.69-1.99,39.15-.48,7.1-1.28,17.88-1.12,32.58,.05,4.42,.17,8.07,.27,10.5-6.72,4.72-13.44,9.44-20.16,14.16l-23.91-5.9Z"
      fill="#9d9d9c" />
    <path id="leftMetatarsal2BaseFibular"
      d="M140.45,371.93c-.99,.13-2.28,.35-3.77,.74-.28,.07-1.13,.3-2.22,.67-.42,.14-3.21,1.11-5.91,2.59-5.77,3.18-5.93,5.87-8.57,5.85-3.08-.02-5.35-3.7-6.15-5.01-1.92-3.12-2.02-6.07-2.14-10.01-.06-1.81-.08-6.87,1.92-13.07,.8-2.46,1.7-4.45,2.41-5.85l23.91,5.9,.51,18.19Z"
      fill="#9d9d9c" />
    <path id="leftMetatarsal2BaseTibial"
      d="M160.09,339.59c.13,.56,.34,1.35,.69,2.28,.16,.42,.34,.87,.65,1.52,1.22,2.52,2.12,3.39,3.1,6.59,1.71,5.53,.68,10.86,.68,10.86-.58,2.9-1.21,6.03-3.68,7.45-1.53,.88-2.61,.44-5.46,.48-3.31,.05-3.07,.66-11.17,2.33-1.07,.22-2.02,.4-2.27,.45-.82,.16-1.56,.29-2.19,.4l-.51-18.19c6.72-4.72,13.44-9.44,20.16-14.16Z"
      fill="#9d9d9c" />
    <path id="leftMetatarsal2HeadTibial"
      d="M150.82,146.08c2.25-.15,5.71-.12,9.68,1.04,3.15,.92,9.2,2.69,12.25,7.95,1.55,2.68,1.64,5.75,1.75,11.76,.1,5.13-.32,9.38-.73,12.33-7.32-5.09-14.65-10.17-21.97-15.26l-.97-17.82Z"
      fill="#9d9d9c" />
    <path id="leftMetatarsal2HeadFibular"
      d="M132.17,178.11c-.55-2.89-1.15-7.31-.87-12.32,.3-5.24,1.42-8.59,1.7-9.4,.19-.56,.28-.84,.42-1.13,2.61-5.58,9.18-7.46,12.27-8.29,1.16-.31,2.92-.71,5.13-.89l.97,17.82-19.62,14.21Z"
      fill="#9d9d9c" />
    <path id="leftMetatarsal3HeadFibular"
      d="M88.02,198.46c-.05-1.73-.15-3.99-.39-6.61-.18-1.95-.29-2.92-.44-4.02-1.15-8.34-2.61-9.39-1.45-12.51,1.62-4.38,6.02-6.49,9.4-8.04,1.31-.6,3.24-1.38,5.71-1.98l3.23,18.57c-5.35,4.87-10.7,9.73-16.05,14.6Z"
      fill="#9d9d9c" />
    <path id="leftMetatarsal3Shaft"
      d="M81.43,347.85c2.01-3.14,4.46-7.43,6.73-12.85,0,0,.32-.71,.56-1.38,1.13-3.16,2.05-9.19,4.26-38.39,1.94-25.61,1.28-21.7,2.12-29.42,.07-.69,1.79-16.55,3.05-35.28,.44-6.61,.83-13.82-3.25-20.65-1.92-3.2-3.93-3.61-5.7-7.44-.57-1.23-.9-2.51-.9-2.51-.15-.61-.22-1.12-.27-1.48,5.35-4.87,10.7-9.73,16.05-14.6,6.84,2.87,13.68,5.75,20.51,8.62-.05,.69-.13,1.57-.31,2.56-.33,1.86-.8,3.24-.98,3.72-.89,2.48-1.37,2.33-2.33,4.9-.21,.57-.68,1.9-1.03,3.67,0,0-.3,1.54-.41,3.12-.39,6.04,1.07,12.7,1.07,12.7,.39,1.78,.51,6.82,.76,16.9,.46,18.98,.11,34.28,.11,34.28-.57,25.18-2.15,33.37-.95,53.79,.2,3.36,.42,6.13,.57,7.96l-6.12,8.48c-5.7,4.41-11.41,8.82-17.11,13.23-5.48-3.31-10.96-6.63-16.44-9.94Z"
      fill="#9d9d9c" />
    <path id="leftMetatarsal3BaseFibular"
      d="M95.83,380.12c-1.26,.75-3.14,1.86-5.46,3.17-.65,.37-1.69,.95-3,1.67-7.34,4.02-9.46,4.69-10.95,3.76-.29-.18-1.15-.8-2.05-4.87-.78-3.57-1.19-6.81-.85-9.67,1.22-10.13,3.01-15.06,3.01-15.06,.84-2.34,1.83-4.8,2.99-7.35,.62-1.36,1.25-2.66,1.89-3.91,5.48,3.31,10.96,6.63,16.44,9.94-.68,7.44-1.35,14.89-2.03,22.33Z"
      fill="#9d9d9c" />
    <path id="leftMetatarsal3BaseTibial"
      d="M114.97,344.56c-1.5,2.62-3.15,6.1-4.32,10.39-1.47,5.4-1.55,9.74-1.54,11.23,0,3.53,.47,6.49,.94,8.67-2.39,.46-6.08,1.36-10.27,3.24-.72,.32-1.37,.65-1.45,.68-1.02,.51-1.87,.98-2.49,1.34,.68-7.44,1.35-14.89,2.03-22.33,5.7-4.41,11.41-8.82,17.11-13.23Z"
      fill="#9d9d9c" />
    <path id="leftMetatarsal3HeadTibial"
      d="M100.84,165.29c1.91-.43,5.27-.92,9.27-.05,1.86,.4,4.86,1.05,7.51,3.31,3.05,2.6,3.95,5.89,5.3,11.09,.78,3,1.63,7.39,1.66,12.84-6.84-2.87-13.68-5.75-20.51-8.62l-3.23-18.57Z"
      fill="#9d9d9c" />
    <path id="leftMetatarsal4HeadFibular"
      d="M47.75,221.77c-1.21-4.54-.74-7.12-.04-8.66,1.04-2.27,1.27-3.07,1.8-4.66,.19-.56,.36-1.22,.5-2.04,.52-3.04-.23-3.26,.28-5.08,1.05-3.76,9.08-7.65,9.08-7.65,1.24-.59,3-1.36,5.2-2.09,.76,5.51,1.53,11.02,2.29,16.53-6.37,4.55-12.74,9.1-19.11,13.64Z"
      fill="#9d9d9c" />
    <path id="leftMetatarsal4Shaft"
      d="M48.28,385.86c1.49-2.3,3.58-5.92,5.31-10.67,2.63-7.23,2.99-12.92,3.37-23.39,.47-12.99-.53-22.8-.82-25.91-2.04-21.74,.7-41.09,1.47-49.21,.71-7.5,2.02-18.62,.54-30.91-.48-4.03-1.53-10.4-5.48-17.21-1.73-2.99-3.56-5.26-4.92-6.79,6.37-4.55,12.74-9.1,19.11-13.64,7.06,2.65,14.12,5.3,21.18,7.95,0,.25-.03,.63-.06,1.09-.26,3.58-.98,5.59-2.22,9.94-1.29,4.5-1.38,5.37-3.46,12.61l-.1,.34c-3.12,10.85-1.26,26.82-1.26,26.82,1.52,13.03-1.56,9.86-.79,32.19,.46,13.46,.7,20.19,1.9,25.82,1.27,5.93,2.55,8.97,1.58,13.94-1.05,5.41-3.46,6.41-7.02,14.69-2.88,6.71-3.94,12.2-4.21,13.72-.76,4.19-1.42,10.68-.16,18.78-3.23,3.18-6.46,6.35-9.68,9.53-4.75-3.23-9.51-6.45-14.26-9.68Z"
      fill="#9d9d9c" />
    <path id="leftMetatarsal4BaseFibular"
      d="M64.17,415.19c-.71,.29-1.92,.8-3.33,1.6-8.15,4.58-10.47,11.29-12.8,10.5-1.26-.43-1.27-2.1-2.87-8.05-2.3-8.55-3.14-8.32-3.54-11.6-.04-.35-.08-.73-.09-1.16-.15-4.75,4.12-14.71,4.12-14.71,.68-1.57,1.56-3.58,2.62-5.9,4.75,3.23,9.51,6.45,14.26,9.68l1.63,19.65Z"
      fill="#9d9d9c" />
    <path id="leftMetatarsal4BaseTibial"
      d="M72.22,386.02c1.05,3.71,2.05,6.63,2.84,8.77,.02,.04,.1,.27,.21,.57,.44,1.16,1.18,3.03,3.12,7.62,1.04,2.45,2.45,5.77,4.19,9.74-.98-.1-2.13-.19-3.41-.21,0,0-2.11-.04-4.26,.16-4.74,.44-9.76,2.18-10.75,2.52l-1.63-19.65c3.23-3.18,6.46-6.35,9.68-9.53Z"
      fill="#9d9d9c" />
    <path id="leftMetatarsal4HeadTibial"
      d="M64.56,191.59c.26-.07,.63-.15,1.08-.23,0,0,1.05-.18,2.16-.22,4.66-.14,8.06,1.76,9.24,2.44,4.69,2.7,6.84,6.79,8.01,9.04,2.82,5.41,3.08,10.56,2.98,13.45-7.06-2.65-14.12-5.3-21.18-7.95-.76-5.51-1.53-11.02-2.29-16.53Z"
      fill="#9d9d9c" />
    <path id="leftMetatarsal5HeadFibular"
      d="M6.68,263.86c-.32-1.87-.53-3.42-.67-4.51-1.13-8.78-.47-11.95,.06-13.72,.11-.35,.27-.89,.53-1.57,.61-1.63,2.72-6.95,8.17-10.38,1.31-.83,3.47-1.95,6.45-2.55,1.46,6.18,2.91,12.35,4.37,18.53l-18.91,14.2Z"
      fill="#9d9d9c" />
    <path id="leftMetatarsal5BaseFibular"
      d="M42.02,450.2c-.51,2.86-1.07,6.35-1.61,10.43-.41,3.08-.8,6.59-.02,10.53,.02,.12,.04,.21,.06,.29,.41,1.86,1.29,5.09,4.11,7.76,1.13,1.08,2.26,1.75,3.08,2.17-.54,1.2-1.84,3.66-4.57,5.54-.59,.41-4.61,3.14-8.83,2.22-1.25-.27-4.59-1.31-8.97-9.68-5.72-10.94-6.26-21.09-6.34-22.91-.03-.69-.03-1.3-.04-1.49-.07-6.34,.91-11.36,1.8-14.7l13.26-5.71,8.06,15.55Z"
      fill="#9d9d9c" />
    <path id="leftMetatarsal5BaseTibial"
      d="M41.12,412.39c.18,.57,.41,1.35,.67,2.27,.49,1.76,.67,2.58,1.24,4.73,.17,.65,.38,1.41,.64,2.33,.83,2.9,1.22,3.99,1.71,5.08,.76,1.72,1.57,3.07,2.15,3.96-.88,1.73-2.08,4.35-3.12,7.67,0,0-.11,.37-.23,.75-.88,3.02-2,9.94-2.17,11.01l-8.06-15.55c2.39-7.42,4.78-14.83,7.17-22.25Z"
      fill="#9d9d9c" />
    <path id="leftMetatarsal5Shaft"
      d="M51.46,253.65c.11,.77,.2,1.88,.03,3.19,0,0-.1,.75-.28,1.44-1.04,4-3.4,4.51-5.19,8.76-.49,1.16-1.25,3.36-1.11,10.02,.12,5.66,.79,9.46,1.99,16.61,2.03,12.1,2.05,11.75,3.05,18.32,.52,3.41,1.12,6.82,1.62,10.24,.46,3.15,.89,6.34,2.1,10.55,.38,1.33,.74,2.42,1,3.16,.48,5.59,.55,10.34,.5,13.94-.08,5.07-.17,9.96-1.37,16.27-.62,3.25-1.1,5.79-2.36,9.14-1.58,4.2-2.73,5.29-5.75,11.58-.15,.31-.3,.63-.46,.96-1.56,3.3-2.34,4.95-3.22,7.5-1.75,5.01-2.98,8.68-2.2,13.01,.07,.42,.15,.72,.23,.98,.19,.63,.35,.95,.6,1.6,.13,.35,.32,.84,.5,1.47-2.39,7.42-4.78,14.83-7.17,22.25l-13.26,5.71c.25-1.32,.6-3.09,1.06-5.16,.68-3.08,1.54-6.98,2.97-11.6,1.62-5.24,2.3-5.98,3.38-10.43,0,0,.68-2.79,1.14-5.88,1.44-9.55,.14-23.13-.3-28.13-.99-11.34-.02-7.32-1.26-26.78-.52-8.14-.49-5.75-2.2-27.24-.83-10.4-3.05-20.68-3.44-31.1-.18-4.73-.17-9.29-3.32-13.24-2.69-3.37-5.7-3.82-8.63-7.91-2.29-3.2-3.09-6.6-3.4-9.03l18.91-14.2c8.62,1.33,17.24,2.66,25.86,3.99Z"
      fill="#9d9d9c" />
    <path id="leftMetatarsal5HeadTibial"
      d="M21.23,231.13c2.08-.55,6.85-1.52,12.47,.17,5.43,1.64,8.68,4.87,10.12,6.33,4.31,4.4,5.89,9.23,6.6,11.51,.56,1.8,.87,3.36,1.04,4.5-8.62-1.33-17.24-2.66-25.86-3.99-1.46-6.18-2.91-12.35-4.37-18.53Z"
      fill="#9d9d9c" />
    <path id="leftProximalPhalanx1Shaft"
      d="M250.19,140.9c-2.07-3.77-4.45-8.73-6.53-14.77-2.4-6.97-3.26-12.12-4.32-18.39-1.6-9.5-1.31-13.24-.2-16.77,.71-2.25,1.63-4,2.31-5.15-9.88-2.07-19.77-4.13-29.65-6.2-8.83,4.21-17.67,8.42-26.5,12.62,1.64,4.1,2.64,6.23,3.27,7.43,.19,.37,.89,1.68,1.63,3.52,0,0,.27,.68,.52,1.38,1.98,5.66,2.32,16.22,2.32,16.22,.27,8.27,.38,12.49-.53,16.65-.65,2.98-1.51,5.37-2.16,6.97,9.81,.84,19.61,1.67,29.42,2.51,10.14-2.01,20.29-4.03,30.43-6.04Z"
      fill="#b2b2b2" />
    <path id="leftProximalPhalanx1BaseTibial"
      d="M220.02,153.34c.59-.03,1.48-.06,2.55-.1,4.89-.16,7.34-.32,9.02-.07,3.56,.53,6.07,1.67,9.67,3.3,3.71,1.68,5.57,2.53,7.23,4.24,1.99,2.05,2.37,3.68,3.57,3.66,1.81-.04,3.17-3.76,3.65-5.73,.26-1.06,.69-3.43-.07-7.03-1.04-4.88-3.53-8.49-5.45-10.71-10.14,2.01-20.29,4.03-30.43,6.04,.09,2.13,.17,4.26,.26,6.39Z"
      fill="#b2b2b2" />
    <path id="leftProximalPhalanx1BaseFibular"
      d="M190.34,144.44c-1.1,3.31-1.97,5.42-2.59,6.8-.04,.08-.04,.1-.07,.16-.27,.6-1.02,2.41-1.3,4.84-.24,2.09-.29,5.91,1.1,6.4,.92,.32,1.88-1.01,3.57-2.48,3.49-3.02,7.16-4.05,10.92-5.11,2.13-.6,4.93-.83,10.54-1.28,1.04-.08,2.11-.16,2.13-.16h0c.97-.07,2.7-.16,5.38-.27-.09-2.13-.17-4.26-.26-6.39-9.81-.84-19.61-1.67-29.42-2.51Z"
      fill="#b2b2b2" />
    <path id="leftProximalPhalanx1HeadFibular"
      d="M210.63,69.75c-3.55,.3-7.79,.68-12.58,1.18-8.41,.87-10.94,1.31-12.69,3.46-1.52,1.87-1.68,4.06-1.87,6.87-.35,4.89,.91,8.8,1.81,11.01,8.83-4.21,17.67-8.42,26.5-12.62-.39-3.3-.78-6.59-1.17-9.89Z"
      fill="#b2b2b2" />
    <path id="leftProximalPhalanx1HeadTibial"
      d="M241.45,85.83c.56-.82,1.41-2.33,1.68-4.38,.03-.22,.16-1.19,.02-2.38-.5-4.38-3.48-7.2-3.91-7.6-1.28-1.17-3.32-2.53-7.69-3.3-3.54-.62-5.42-.13-15.43,.99-2.36,.26-4.28,.46-5.49,.58,.39,3.3,.78,6.59,1.17,9.89,9.88,2.07,19.77,4.13,29.65,6.2Z"
      fill="#b2b2b2" />
    <path id="leftProximalPhalanx2HeadTibial"
      d="M162.25,76.41c.44-1.21,1.01-3.39,.46-5.94-.1-.45-1.25-5.49-5-6.66-.25-.08-.43-.11-.76-.18-2.34-.45-3.89,.05-6.25,.43-.94,.15-2.32,.33-4.05,.39l.83,7.36c4.92,1.53,9.85,3.06,14.77,4.59Z"
      fill="#b2b2b2" />
    <path id="leftProximalPhalanx2Shaft"
      d="M168.06,136.53c-1.87-2.34-4.41-6.08-6.03-11.2-.62-1.94-.95-3.98-1.6-7.98-.87-5.37-1.59-9.84-1.93-15.89-.37-6.58-.55-9.86,.13-13,.06-.29,.12-.55,.19-.8,.58-2.28,1.18-3.94,1.37-4.44,.47-1.27,1.15-3.33,2.08-6.81-4.92-1.53-9.85-3.06-14.77-4.59l-15.37,5.14c.56,3.09,.87,4.53,1.05,5.25,.01,.05,.04,.16,.08,.31,.29,1.28,.26,2.24,.25,2.45,0,.73,.51,5.35,1.55,14.58,.85,7.54,1.31,10.54,1.73,16.42,.07,.93,.11,1.82,.2,3.62,0,0,.4,7.79-.31,11.3-.11,.52-.23,1.02-.23,1.02-.27,1.08-.55,1.88-.7,2.3-.59,1.67-1.32,3.15-1.7,3.89l19.92,1.95,14.1-3.5Z"
      fill="#b2b2b2" />
    <path id="leftProximalPhalanx2BaseTibial"
      d="M153.89,143.73c2.07-.08,5.48,.07,9.34,1.53,1.94,.74,5.25,1.99,8.02,5.07,1.92,2.13,2.44,3.87,3.03,3.7,.88-.25,.93-4.51-.38-8.45-.06-.18-.31-.89-.79-1.91-.85-1.79-2.35-4.38-5.05-7.15l-14.1,3.5-.07,3.69Z"
      fill="#b2b2b2" />
    <path id="leftProximalPhalanx2BaseFibular"
      d="M134.03,138.09c-.18,.41-.43,.97-.69,1.66-.48,1.26-.79,2.33-1,3.16-1.29,4.99-3.05,11.8-1.98,12.23,.79,.32,1.73-3.46,5.85-6.5,2.87-2.11,5.84-2.8,9.92-3.75,3.17-.74,5.86-1.03,7.75-1.16l.07-3.69-19.92-1.95Z"
      fill="#b2b2b2" />
    <path id="leftProximalPhalanx2HeadFibular"
      d="M146.65,64.46c-1.49,.24-2.69,.27-3.47,.26-3.58-.05-5.44-.89-8.03,.15-.26,.1-.5,.24-.76,.44-1.8,1.37-2.08,3.77-2.32,6.52-.11,1.29-.17,3.04,.04,5.12l15.37-5.14-.83-7.36Z"
      fill="#b2b2b2" />
    <path id="leftProximalPhalanx3HeadTibial"
      d="M113.65,95.67c.06-1.07,.03-2.99-.87-5.1-.61-1.44-1.44-3.39-3.26-4.23-1.92-.89-3.27,.23-8.4,.92-1.69,.23-3.07,.31-3.92,.35l.79,5.51,15.65,2.56Z"
      fill="#b2b2b2" />
    <path id="leftProximalPhalanx3Shaft"
      d="M115.91,153.1c-.99-1.66-2.32-4.13-3.52-7.27-2.16-5.62-2.74-10.34-3.27-14.69-.5-4.09-.58-7.15-.62-9.15-.11-4.94-.16-7.41,.52-10.51,.64-2.91,1.29-3.52,2.12-5.43,.48-1.11,.74-1.92,1.1-3.15,.81-2.72,1.21-5.32,1.41-7.21l-15.65-2.56-14.72,5.92c.25,.49,.61,1.24,1.01,2.15,1.26,2.89,2.13,5.75,3.1,10.74,0,0,1.56,7.94,2.22,17.13,.14,1.88,.23,3.81,.23,3.81,.14,2.8,.15,4.48,.2,7.34,.16,8.85,.34,10.14-.32,12.84-.4,1.62-.89,2.89-1.22,3.68,4.96,.28,9.92,.56,14.88,.84l12.52-4.47Z"
      fill="#b2b2b2" />
    <path id="leftProximalPhalanx3BaseTibial"
      d="M104.05,161.89c.54-.05,1.17-.09,1.88-.09,0,0,1.04,0,2.09,.1,1.97,.2,6.97,.69,10.84,4.28,2.18,2.02,2.99,4.08,3.58,3.84,.78-.31,.12-4.11-.79-6.97-.8-2.51-2.37-6.11-5.74-9.96l-12.52,4.47,.66,4.33Z"
      fill="#b2b2b2" />
    <path id="leftProximalPhalanx3BaseFibular"
      d="M88.52,156.72c-2.69,5.26-3.47,9.45-3.72,12.09-.12,1.32-.14,2.59,.43,2.85,.99,.45,2.56-2.73,6.38-5.43,2.58-1.82,5.13-2.6,6.77-3.12,2.2-.7,4.15-1.04,5.67-1.22l-.66-4.33c-4.96-.28-9.92-.56-14.88-.84Z"
      fill="#b2b2b2" />
    <path id="leftProximalPhalanx3HeadFibular"
      d="M97.21,87.61c-1.77,.18-3.2,.2-4.16,.18-3.48-.07-5.51-.53-7.85,.63-.25,.12-.48,.28-.71,.48-2.08,1.74-2.19,4.77-2.22,5.61-.02,.63,.03,1.12,.06,1.37,.16,1.4,.61,2.48,.96,3.16l14.72-5.92-.79-5.51Z"
      fill="#b2b2b2" />
    <path id="leftProximalPhalanx4HeadTibial"
      d="M71.11,125.89c.13-.99,.28-3.17-.83-5.52-.26-.56-1.83-3.61-5.21-4.87-.24-.09-.46-.16-.7-.21-2.13-.45-3.42,0-7.31,.46-.28,.03-.79,.09-1.43,.15l.97,7.42,14.5,2.57Z"
      fill="#b2b2b2" />
    <path id="leftProximalPhalanx4Shaft"
      d="M77.17,178.23c-.55-.64-1.21-1.45-1.91-2.43,0,0-.85-1.19-1.62-2.49-2.88-4.88-4.03-9.29-4.89-12.57-.29-1.11-.86-4.85-1.98-12.28-1.27-8.41-1.39-9.25-.94-10.75,1.36-4.47,3.56-5.54,4.77-9.44,.15-.48,.37-1.3,.5-2.39l-14.5-2.57-14.18,5.54c.09,.37,.22,.88,.39,1.49,.46,1.66,.91,2.96,1.2,3.76,.82,2.28,1.23,3.42,2.59,6.56,.76,1.75,1.27,3.79,1.88,15.35,.45,8.46,.67,12.78,.41,17.11-.26,4.44-.78,8.13-1.22,10.73,5.18-.04,10.35-.09,15.53-.13,4.65-1.83,9.3-3.66,13.95-5.49Z"
      fill="#b2b2b2" />
    <path id="leftProximalPhalanx4BaseTibial"
      d="M64.81,188.95c.44-.1,1.02-.21,1.71-.28,0,0,.7-.07,1.42-.06,3.75,.03,6.8,1.47,8.88,2.47,3.7,1.79,4.78,3.27,5.65,2.75,1.38-.81,.35-5.43-.95-8.76-.57-1.47-1.21-2.61-1.58-3.22-.96-1.58-1.97-2.78-2.78-3.62-4.65,1.83-9.3,3.66-13.95,5.49l1.6,5.22Z"
      fill="#b2b2b2" />
    <path id="leftProximalPhalanx4BaseFibular"
      d="M47.69,183.86c-.07,.79-.17,2-.25,3.47-.25,5.13-.54,10.68,.97,11.1,1.01,.29,1.68-1.98,5.01-4.59,2.9-2.28,6.2-3.3,8.14-3.96,1.31-.45,2.44-.74,3.25-.94l-1.6-5.22c-5.18,.04-10.35,.09-15.53,.13Z"
      fill="#b2b2b2" />
    <path id="leftProximalPhalanx4HeadFibular"
      d="M55.63,115.9c-2.87,.15-5.08,.54-6.6,.88-.59,.13-.89,.2-1.24,.32-3.2,1.12-4.73,4.06-4.94,4.47-1.71,3.4-.64,6.67-.43,7.3l14.18-5.54-.97-7.42Z"
      fill="#b2b2b2" />
    <path id="leftProximalPhalanx5HeadTibial"
      d="M30.51,173.29c1.05-3.43,.81-6.89-1.11-8.57-1.68-1.47-4.6-1.5-7.17-1.54-1.11-.01-2.37,.07-2.58,.09-1.66,.12-3.04,.33-4.02,.52l.26,4.96c4.87,1.51,9.75,3.02,14.62,4.53Z"
      fill="#b2b2b2" />
    <path id="leftProximalPhalanx5Shaft"
      d="M37.44,217.54c-.88-.66-2.13-1.71-3.34-3.24-.97-1.22-2.32-3.61-4.5-12.24-.92-3.64-1.25-6.22-1.88-11.2-.61-4.81-.91-7.26-.46-9.34,.29-1.31,1.55-2.79,2.57-5.87,.32-.98,.54-1.8,.68-2.35-4.87-1.51-9.75-3.02-14.62-4.53-4.95,1.34-9.91,2.68-14.86,4.03,.08,.43,.2,1.12,.38,1.97,1.44,7.08,3.01,9.77,3.96,14.27,.45,2.14-.11,.58,.62,9.15,.36,4.22,.82,8.51,.65,13.97-.02,.54-.04,.98-.05,1.14-.24,5.13-.92,8.6-1.14,9.66-.07,.33-.15,.73-.25,1.17,5.95-.39,11.9-.77,17.85-1.16,4.8-1.8,9.61-3.61,14.41-5.41Z"
      fill="#b2b2b2" />
    <path id="leftProximalPhalanx5BaseTibial"
      d="M24.05,227.27c6.21-.31,10.35,1.16,13.04,2.65,2.87,1.59,4.91,3.65,6.21,2.89,1.67-.99,.62-5.74,.56-6-.45-1.98-1.3-3.36-1.6-3.83-.16-.26-.83-1.31-1.82-2.49-1.11-1.32-2.24-2.32-2.99-2.93-4.8,1.8-9.61,3.61-14.41,5.41l1.01,4.31Z"
      fill="#b2b2b2" />
    <path id="leftProximalPhalanx5BaseFibular"
      d="M5.19,224.12c-.76,2.16-1.65,5.43-1.7,9.47,0,.7-.06,6.49,1.31,6.74,.87,.16,1.33-2.1,3.73-4.84,2.33-2.66,4.89-3.96,7.65-5.36,1.84-.93,4.49-2.07,7.87-2.85l-1.01-4.31c-5.95,.39-11.9,.77-17.85,1.16Z"
      fill="#b2b2b2" />
    <path id="leftProximalPhalanx5HeadFibular"
      d="M15.63,163.79c-.97,.03-1.72-.09-2.2-.2-1.49-.33-2.09-.8-3.84-1.27-.42-.11-.9-.2-1.53-.24-.23-.02-4.08-.35-6.19,1.44-2.07,1.76-2.52,5.61-.84,9.26,4.95-1.34,9.91-2.68,14.86-4.03l-.26-4.96Z"
      fill="#b2b2b2" />
    <path id="leftDistalPhalanx1TuftTibial"
      d="M216.84,28.95c-.58-1.84-2.4-6.8-7.42-10.54-6.73-5.01-14.17-4.07-15.68-3.85l4.03,11.54c6.36,.95,12.71,1.9,19.07,2.85Z"
      fill="#dadada" />
    <path id="leftDistalPhalanx1Shaft"
      d="M224.24,53.18c-2.07-3.3-3.3-6.28-4.03-8.47-.42-1.26-.84-2.49-1.17-4.23-.59-3.13-.26-4.47-.87-7.37-.33-1.56-.8-2.95-1.32-4.16-6.36-.95-12.71-1.9-19.07-2.85-5.81,3.58-11.61,7.15-17.42,10.73,1.36,2.84,2.78,6.34,3.93,10.44,1.16,4.14,1.78,7.89,2.1,11.05l22.85,2.16c5-2.43,10-4.87,15.01-7.3Z"
      fill="#dadada" />
    <path id="leftDistalPhalanx1BaseTibial"
      d="M211.18,67.34c1.58-.35,3.82-.79,6.53-1.18,.81-.12,1.77-.26,3.08-.38,5.17-.49,7.98-.16,8.84-.05,3.12,.4,5.29,.68,7.58,2.04,4.38,2.61,5.86,7.19,6.73,6.81,.5-.21,.26-1.79,.14-2.54-.26-1.65-1.04-6.57-5.22-10.19-.91-.79-1.71-1.28-2.47-1.62-3.41-1.51-5.12-1.45-7.46-2.57-1.35-.65-3.09-1.88-4.68-4.49-5,2.43-10,4.87-15.01,7.3,.65,2.29,1.3,4.57,1.94,6.86Z"
      fill="#dadada" />
    <path id="leftDistalPhalanx1BaseFibular"
      d="M186.39,58.32c-2.11,4.3-4.21,7.59-5.81,9.89-2.26,3.24-3.84,4.95-3.51,7.34,.37,2.66,2.93,4.92,3.83,4.54,.64-.28,.05-1.75,.58-3.66,.91-3.29,4.33-5.03,6.16-5.95,1.35-.69,3.31-1.47,10.99-2.23,2.01-.2,3.47-.3,4.65-.36,1.83-.09,2.83-.05,4.71-.2,1.35-.11,2.46-.25,3.19-.35-.65-2.29-1.3-4.57-1.94-6.86l-22.85-2.16Z"
      fill="#dadada" />
    <path id="leftDistalPhalanx1TuftFibular"
      d="M193.74,14.56c-.46,.09-1.13,.25-1.93,.52-5.23,1.75-10.95,6.63-12.17,13.52-.27,1.51-.56,4.5,.72,8.24,5.81-3.58,11.61-7.15,17.42-10.73l-4.03-11.54Z"
      fill="#dadada" />
    <path id="leftMiddlePhalanx2HeadTibial"
      d="M164.96,37.79c.27-.72,1.18-3.46-.17-5.64-1.74-2.81-6.09-2.89-7.66-2.94-1.68-.05-2.16,.24-3.69,.55-1.06,.21-1.94,.3-2.54,.36-.5,.05-.93,.08-1.25,.1l.6,5.53,14.72,2.05Z"
      fill="#c6c6c6" />
    <path id="leftMiddlePhalanx2Shaft"
      d="M161.38,53.59c-.32-2.3-.15-4.1,.05-5.3,.28-1.67,.71-2.59,2.62-7.95,.39-1.1,.71-1.99,.9-2.54l-14.72-2.05-13.09,3.56c.05,.32,.12,.8,.23,1.38,.59,3.17,1.17,4.09,1.2,5.85,.02,1.11-.19,1.89-.47,2.97-.37,1.39-1.19,3.72-3.21,6.19l12.18,2.03c4.77-1.38,9.54-2.76,14.31-4.14Z"
      fill="#c6c6c6" />
    <path id="leftMiddlePhalanx2BaseTibial"
      d="M147.29,61.97c.35-.02,.88-.05,1.51-.09,5.22-.29,7.84-.49,9.36-.28,3.25,.46,4.39,1.35,5.11,.64,.21-.21,.51-.79-1.57-7.62-.13-.42-.24-.77-.32-1.03-4.77,1.38-9.54,2.76-14.31,4.14l.21,4.25Z"
      fill="#c6c6c6" />
    <path id="leftMiddlePhalanx2BaseFibular"
      d="M134.9,55.69c-.12,.14-.28,.34-.48,.59-1.6,2.02-2.76,3.42-3.16,5.15-.29,1.25-.45,3.21,.31,3.58,.81,.39,1.68-1.51,4.11-2.53,1.9-.79,2.91-.27,7.02-.25,.19,0,.31,0,.44,0,.68-.02,1.18-.07,1.32-.09,.43-.05,1.23-.11,2.83-.18l-.21-4.25-12.18-2.03Z"
      fill="#c6c6c6" />
    <path id="leftMiddlePhalanx2HeadFibular"
      d="M149.64,30.21c-.99-.05-2.4-.08-4.09,.02-.35,.02-1.19,.07-2.03,.17-2.63,.32-4.79,.59-5.98,1.79-2.16,2.18-.51,6.8-.39,7.12l13.09-3.56-.6-5.53Z"
      fill="#c6c6c6" />
    <path id="leftMiddlePhalanx3HeadFibular"
      d="M84.39,58.91c-.2-.41-2.32-4.9-.22-7.61,1.18-1.53,3.26-1.92,4.86-2.23,1.57-.3,2.47-.13,6.45-.56,.49-.05,.89-.1,1.16-.13l.82,6.19-13.07,4.35Z"
      fill="#c6c6c6" />
    <path id="leftMiddlePhalanx3Shaft"
      d="M81.8,80.37c1.46-2.97,2.23-5.64,2.65-7.61,.5-2.34,1.04-6.13,.49-10.7-.16-1.31-.37-2.39-.54-3.15l13.07-4.35,13.23,.86c-.4,.77-.9,1.84-1.36,3.15,0,0-.32,.91-.55,1.76-.75,2.83,.03,4.56-.07,9.57,0,0-.06,3.31,.81,5.16,.16,.35,.36,.68,.36,.68,.23,.39,.46,.7,.64,.93l-14.01,4.25-14.72-.54Z"
      fill="#c6c6c6" />
    <path id="leftMiddlePhalanx3BaseFibular"
      d="M96.92,85.73c-.22,.02-.63,.06-1.15,.1-5.17,.38-8.11-.18-10.48,.76-.43,.17-.86,.4-1.3,.73-.79,.57-1.59,1.37-2.25,1.1-1.09-.45-.72-4.36-.68-4.72,.15-1.42,.48-2.56,.75-3.32l14.72,.54,.4,4.82Z"
      fill="#c6c6c6" />
    <path id="leftMiddlePhalanx3BaseTibial"
      d="M110.53,76.67c1.99,2.04,2.57,3.41,2.76,4.2,.02,.06,.03,.12,.03,.12,.13,.58,.52,2.6-.45,3.35-.79,.61-1.84-.12-3.91-.29-1.64-.14-2.47,.21-4.72,.68-1.72,.36-4.19,.79-7.32,1l-.4-4.82,14.01-4.25Z"
      fill="#c6c6c6" />
    <path id="leftMiddlePhalanx3HeadTibial"
      d="M96.64,48.37c.53-.1,1.31-.25,2.26-.41,0,0,.99-.17,1.92-.29,4.66-.59,7.01-.87,8.32,.17,2.03,1.62,1.82,5.3,1.79,5.98-.04,.67-.14,1.21-.23,1.59l-13.23-.86-.82-6.19Z"
      fill="#c6c6c6" />
    <path id="leftMiddlePhalanx4HeadFibular"
      d="M43.13,92.71c-.21-1.69-.18-4.31,1.7-6.39,.03-.04,.13-.15,.28-.29,1.88-1.85,3.96-1.93,7.58-2.75,.88-.2,2.24-.53,3.92-1.04l.4,5.68-13.88,4.79Z"
      fill="#c6c6c6" />
    <path id="leftMiddlePhalanx4BaseFibular"
      d="M56.61,113.3c-.22,.03-.54,.07-.92,.13-3.86,.56-5.96,.89-8.24,1.71-2.67,.97-4.16,1.96-4.85,1.33-.02-.02-.04-.04-.06-.06-.67-.96-.03-2.43,.56-4.49,.22-.76,.49-1.84,.7-3.19l12.6,.44,.2,4.14Z"
      fill="#c6c6c6" />
    <path id="leftMiddlePhalanx4BaseTibial"
      d="M67.13,106.73c.05,.38,.16,.94,.43,1.57,.01,.03,.16,.37,.37,.72,1.03,1.72,2.23,1.75,3.03,3.7,.73,1.79,.63,3.87,.08,4.05-.4,.13-.81-.8-1.87-1.73-1.4-1.24-2.92-1.56-4.68-1.94-3.24-.69-6.12-.25-7.89,.19l-.2-4.14,10.73-2.43Z"
      fill="#c6c6c6" />
    <path id="leftMiddlePhalanx4Shaft"
      d="M71.56,88.67c-1.31,2.47-2.18,4.64-2.75,6.26-.89,2.5-1.62,4.61-1.82,7.49-.12,1.8,0,3.3,.14,4.31l-10.73,2.43-12.6-.44c.12-.53,.23-.95,.31-1.23,.33-1.22,.53-1.66,.71-2.66,.03-.18,.08-.46,.12-.84,.01-.13,.11-1.18-.04-2.35-.24-1.84-.85-2.04-1.34-4.37-.3-1.42-.37-2.78-.4-3.23-.03-.53-.03-.99-.03-1.33l13.88-4.79,14.55,.75Z"
      fill="#c6c6c6" />
    <path id="leftMiddlePhalanx4HeadTibial"
      d="M56.61,82.24c1.15-.35,2.85-.76,4.94-.81,2.61-.07,5.59-.15,7.74,1.85,1.86,1.73,2.21,4.18,2.28,5.4l-14.55-.75-.4-5.68Z"
      fill="#c6c6c6" />
    <path id="leftDistalPhalanx2TuftTibial"
      d="M160.53,8.16c-.32-1.03-1.37-3.9-4.3-6-3.98-2.87-8.37-2.1-9.15-1.95,.54,2.12,1.08,4.23,1.62,6.35,3.94,.54,7.89,1.07,11.83,1.61Z"
      fill="#dadada" />
    <path id="leftDistalPhalanx2Shaft"
      d="M160.84,20.44c-1.77-2.48-1.93-4.26-1.7-5.48,.28-1.47,1.26-2.74,1.4-5.34,.03-.61,.01-1.12-.01-1.45-3.94-.54-7.89-1.07-11.83-1.61l-12.89,5.76c.07,.16,.17,.4,.32,.67,.73,1.33,1.73,2.06,1.91,2.2,.79,.63,1.83,2.51,3.02,7.68l8.04,1.22c3.91-1.21,7.82-2.43,11.74-3.64Z"
      fill="#dadada" />
    <path id="leftDistalPhalanx2BaseTibial"
      d="M149.64,28.15c.45-.07,1.01-.14,1.65-.22,.07,0,.86-.1,1.74-.17,2.49-.2,3.74-.31,4.49-.21,2.48,.31,3.81,1.22,6.39,.88,1.46-.19,1.68-.57,1.74-.69,.4-.8-1.49-2.62-2.91-4.44-.53-.67-1.21-1.63-1.92-2.87-3.91,1.21-7.82,2.43-11.74,3.64l.54,4.07Z"
      fill="#dadada" />
    <path id="leftDistalPhalanx2BaseFibular"
      d="M141.06,22.86c-.35,.43-.83,1.04-1.4,1.79-.6,.8-.91,1.21-1.19,1.68-.68,1.15-1.43,2.42-1,2.98,.39,.51,1.51,.07,3.58-.31,1.77-.33,1.17-.04,5.55-.49,1.01-.1,1.77-.2,2.12-.24,.37-.05,.68-.09,.91-.12l-.54-4.07-8.04-1.22Z"
      fill="#dadada" />
    <path id="leftDistalPhalanx2TuftFibular"
      d="M147.08,.2c-.54,.07-1.22,.19-2,.39,0,0-.38,.1-.74,.21-5.84,1.77-7.78,5.67-7.78,5.67-1.07,2.15-1,4.34-.75,5.84l12.89-5.76c-.54-2.12-1.08-4.23-1.62-6.35Z"
      fill="#dadada" />
    <path id="leftDistalPhalanx3TuftTibial"
      d="M105.96,27.01c-.37-3.22-1.55-5.01-2.32-5.93-.14-.16-.26-.29-.32-.36-.74-.79-2.41-2.3-5.01-2.78-.56-.1-1.06-.13-1.14-.14-.67-.04-1.24,.01-1.66,.07l.81,6.35,9.65,2.8Z"
      fill="#dadada" />
    <path id="leftDistalPhalanx3Shaft"
      d="M105.79,39.48c-.43-1.07-.93-2.73-.96-4.79,0-.19,0-.84,.15-2.26,.15-1.33,.43-3.19,.98-5.42l-9.65-2.8-8.22,5.6c.15,.35,.32,.81,.47,1.37,.04,.17,.26,1.08,.27,2.19,0,.67,0,2.51-1.01,4.32-.48,.86-.67,.77-2.76,3.51-.26,.34-.47,.62-.61,.81l11.46,.54,9.88-3.08Z"
      fill="#dadada" />
    <path id="leftDistalPhalanx3BaseTibial"
      d="M96.23,46.52c1.89-.16,3.39-.47,4.43-.72,1.83-.45,3.55-.95,5.52-.67,.28,.04,.55,.11,.84,.2,1.51,.5,2.54,1.43,3.15,.99,.47-.34,.34-1.52,.17-2.18-.67-2.66-3.4-4.12-4.56-4.65l-9.88,3.08,.32,3.96Z"
      fill="#dadada" />
    <path id="leftDistalPhalanx3BaseFibular"
      d="M84.45,42.01c-.21,.18-.46,.43-.72,.74,0,0-.47,.57-.82,1.25-1.02,1.98-1.38,4.63-.44,5.27,.78,.53,1.86-.77,4.73-1.68,.45-.14,.81-.23,1.16-.29,2.06-.36,3.1-.27,5.27-.45,.59-.05,1.49-.14,2.6-.34l-.32-3.96-11.46-.54Z"
      fill="#dadada" />
    <path id="leftDistalPhalanx3TuftFibular"
      d="M95.5,17.87c-1.95,.32-3.32,1.06-4.1,1.57-2.5,1.63-4.14,4.26-4.32,6.33-.06,.66,.02,1.31,.02,1.31,.15,1.27,.66,2.21,.99,2.74l8.22-5.6-.81-6.35Z"
      fill="#dadada" />
    <path id="leftDistalPhalanx4TuftTibial"
      d="M70.3,64.5c.15-.66,.31-1.77,.06-3.07-.52-2.66-2.37-4.17-2.93-4.62-2.35-1.86-4.96-1.85-5.69-1.81l-.61,5.82,9.17,3.68Z"
      fill="#dadada" />
    <path id="leftDistalPhalanx4Shaft"
      d="M69.56,72.74c-.11-.1-.24-.25-.37-.44-.06-.09-.19-.31-.3-.62-.08-.23-.11-.42-.12-.62-.04-.91,.8-3.39,1.12-4.52,.13-.47,.3-1.16,.4-2.03l-9.17-3.68-10.01,3.73c.12,1.55,.02,2.83-.1,3.76-.17,1.28-.28,2.12-.74,3.17-.11,.26-.31,.66-1.89,2.97-.48,.7-.88,1.28-1.17,1.68l8.99,.54,13.36-3.93Z"
      fill="#dadada" />
    <path id="leftDistalPhalanx4BaseTibial"
      d="M56.61,79.85c.65-.15,1.47-.32,2.44-.45,0,0,.94-.12,1.86-.17,2.93-.16,4.72-.26,6.74,.67,2.54,1.18,3.5,3.1,4.39,2.68,.88-.42,.67-2.71,.55-4.02-.08-.91-.19-2.07-.83-3.36-.31-.62-.66-1.05-.77-1.18-.5-.61-1.02-1.03-1.41-1.29l-13.36,3.93,.4,3.18Z"
      fill="#dadada" />
    <path id="leftDistalPhalanx4BaseFibular"
      d="M47.22,76.13c-.31,.4-.75,.98-1.24,1.7-1.78,2.67-3.75,6.69-2.97,7.3,.42,.33,1.36-.67,3.8-1.96,2.11-1.11,3.98-1.64,6.29-2.35,1.42-.44,2.62-.75,3.51-.96l-.4-3.18-8.99-.54Z"
      fill="#dadada" />
    <path id="leftDistalPhalanx4TuftFibular"
      d="M61.73,55.01c-1.92,.02-3.33,.52-4.13,.87-4.63,2.03-6.04,6.81-6.21,7.4-.15,.54-.23,.98-.28,1.27l10.01-3.73,.61-5.82Z"
      fill="#dadada" />
    <path id="leftMiddlePhalanx5HeadTibial"
      d="M29.16,149.16c.19-.57,.47-1.74,0-2.97-.14-.37-.3-.64-.36-.72-1.26-1.8-3.82-2.07-6.34-2.33-.72-.07-1.3-.08-1.69-.08-1.73,0-3.15,.22-4.13,.44l.19,3.96,12.33,1.7Z"
      fill="#c6c6c6" />
    <path id="leftMiddlePhalanx5Shaft"
      d="M30.06,156.43c-.29-1.44-.54-3-.72-4.69-.09-.89-.15-1.75-.19-2.58l-12.33-1.7-14.05,2.09c.18,.95,.22,1.78,.21,2.41,0,.89-.11,1.59-.17,1.92-.08,.46-.17,.84-.25,1.14,4.64,.78,9.28,1.56,13.92,2.34l13.57-.94Z"
      fill="#c6c6c6" />
    <path id="leftMiddlePhalanx5BaseTibial"
      d="M16.51,161.7c.74,.04,1.32-.03,1.72-.09,.9-.15,1-.31,2-.47,.43-.07,.94-.11,1.64-.08,.83,.03,.85,.12,5.29,.62,1.43,.16,2.16,.23,2.69-.24,.59-.52,.53-1.49,.45-3.11-.04-.81-.14-1.47-.22-1.91l-13.57,.94v4.34Z"
      fill="#c6c6c6" />
    <path id="leftMiddlePhalanx5BaseFibular"
      d="M2.57,155.02c-.07,.26-.14,.58-.18,.96,0,0-.04,.41-.03,.82,.02,.93,.05,2.56,1,3.16,.92,.58,1.71-.45,3.75-.51,.34-.01,.61,0,.87,.05,1.85,.33,3.12,.95,3.94,1.33,.98,.45,2.45,.91,4.59,.86v-4.34c-4.65-.78-9.29-1.56-13.93-2.34Z"
      fill="#c6c6c6" />
    <path id="leftMiddlePhalanx5HeadFibular"
      d="M16.64,143.49c-.73,.08-1.33,.11-1.72,.12-2.25,.09-6.08-.03-7.11,.26-.36,.1-.72,.25-1.13,.46-.05,.03-.12,.07-.22,.12-2.98,1.69-3.55,4.18-3.55,4.18-.05,.2-.11,.51-.13,.91l14.05-2.09-.19-3.96Z"
      fill="#c6c6c6" />
    <path id="leftDistalPhalanx5TuftTibial"
      d="M25.42,123.79c.19-.76,.57-2.77-.39-4.88-1.7-3.73-5.98-4.31-6.15-4.33-.5-.06-.91-.05-1.21-.04l.38,5.88,7.38,3.37Z"
      fill="#dadada" />
    <path id="leftDistalPhalanx5Shaft"
      d="M25.5,133.92c-.16-.13-1.09-.94-1.49-1.91-.19-.45-.26-.9-.26-.9-.05-.28-.06-.53-.04-.76,.07-1.12,.92-3.22,.95-3.29,.3-.73,.65-1.81,.76-3.27l-7.38-3.37-7.52,3.37c-.02,1.23,.1,2.2,.21,2.87,.14,.82,.57,2.91,.41,4.1-.05,.39-.17,.75-.17,.75-.05,.14-.19,.57-.49,1.05-.42,.67-.93,1.1-1.3,1.37l6.9,2.95,9.41-2.95Z"
      fill="#dadada" />
    <path id="leftDistalPhalanx5BaseTibial"
      d="M16.32,141.66c.58-.09,1.35-.2,2.27-.28,1.76-.14,1.52,.04,3.71-.07,1.09-.05,2.13-.14,3.46,.27h0c2.08,.64,2.71,1.32,3.15,.99,.85-.63-.1-4.03-1.85-6.7-.24-.36-.51-.72-.51-.72-.4-.52-.77-.94-1.05-1.24l-9.41,2.95,.23,4.79Z"
      fill="#dadada" />
    <path id="leftDistalPhalanx5BaseFibular"
      d="M9.18,133.92c-.49,.37-1.11,.89-1.76,1.59,0,0-.56,.61-1.04,1.27-1.76,2.46-2.85,5.68-2.06,6.32,.47,.38,1.25-.46,3.15-1.09,.42-.14,.99-.28,1.71-.37,1.44-.19,2.28,.03,3.59,.13,.84,.06,2.05,.09,3.55-.11l-.23-4.79-6.9-2.95Z"
      fill="#dadada" />
    <path id="leftDistalPhalanx5TuftFibular"
      d="M17.67,114.54c-.29,.01-4.4,.27-6.4,3.77-1.39,2.43-.89,4.87-.74,5.48l7.52-3.37-.38-5.88Z" fill="#dadada" />
  </g>
  <g>
    <path id="leftTalus-2" data-name="leftTalus"
      d="M344.64,510.53c3.43-4.6,7.64-8.9,13.43-13.26,6.53-4.92,12.92-9.79,22.35-12.12,8.92-2.2,15.85-1.11,25.59,.43,8.28,1.31,19.01,3.12,30.11,10.57,4.44,2.98,9.01,4.56,10.41,8.85,.82,2.49,.07,3.73-.52,10.06-.39,4.21-.87,9.38-.18,14.42,.26,1.9,1.25,8.51,5.58,14.56,4.02,5.61,6.48,4.55,14.52,11.38,5.99,5.09,11.61,9.86,13.63,17.43,1.4,5.26-.41,6.31,1.44,12.4,1.89,6.18,4.18,6.46,6.81,12.87,1.27,3.1,4.33,10.52,2.11,17.15-1.73,5.15-5.7,7.01-11.45,11.27-3.58,2.65-10.07,9.76-23.03,23.97-16.73,18.34-19.98,22.07-19.98,22.07-8.5,9.77-11.12,13.28-16.39,14.09-6.39,.97-12.27-2.73-18.54-6.68-6.96-4.38-6.72-6.36-14.52-11.38-4.19-2.69-5.36-2.83-14.51-7.41-11.06-5.53-16.58-8.29-18.26-9.9-10.75-10.31-9.79-27.36-9.64-30.08,.23-4.11,1.34-8.05,3.56-15.93,4.16-14.79,6.4-15.41,7.86-23.85,1.61-9.31,.31-16.69-1.09-24.64-1.95-11.05-2.93-16.57-7.46-21.95-4.01-4.75-7.29-5.23-8.2-9.38-1.07-4.86,2.25-9.45,6.36-14.96Z"
      fill="#878787" />
    <path id="leftCalcaneus-2" data-name="leftCalcaneus"
      d="M375.47,665.62c-1.98,3.85-4.21,9.21-5.36,15.86-.51,2.95-.54,4.33-.55,18.72-.01,14.23-.08,15.08,.64,17.38,1.58,5,3.22,5.08,9.17,14.88,5.73,9.44,4.8,10.33,7.8,14.04,2.55,3.15,5.62,5.46,21.36,11.61,16.93,6.62,25.53,9.9,32.09,8.58,1.7-.34,10.19-2.21,16.34-9.4,5.23-6.1,5.69-12.44,7.28-21.38,1.47-8.26,4.32-17.48,10-35.94,5.93-19.25,8.9-28.88,13.68-36.7,5.21-8.52,9.2-11.97,10.06-20.05,.91-8.55-2.78-12.01-.13-19.14,2.47-6.66,6.44-5.67,10.21-13.54,.9-1.88,4.58-9.57,2.67-18.17-1.47-6.61-4.96-8.04-4.28-13.01,.58-4.2,3.24-4.41,5.92-9.95,2.58-5.33,2.52-10.5,2.58-17.1,.05-6.28-.81-5.99-.34-10.5,.67-6.41,2.72-9.84,1-11.46-1.08-1.02-2.56-.29-6.12-.17-3.13,.1-5.65-.48-10.68-1.66-6.79-1.58-6.8-2.51-14.05-4.48-7.17-1.94-6.97-.97-12.04-2.68-5.89-1.98-7.08-3.61-12.86-5.64-4.51-1.58-8.39-2.2-10.88-2.49-.64,2.28-1.39,5.78-1.33,10.08,.03,2.43,.16,12.71,7.11,20.83,.81,.95,.29,.21,12,9.26,6.66,5.15,8.66,6.81,10.78,9.88,2.9,4.2,4.07,8.23,4.47,9.77,1.5,5.8-.2,6.41,1.1,11.1,1.64,5.92,4.61,5.91,7.74,13.58,.96,2.35,2.12,5.26,2.35,9.23,.12,2.11,.49,8.37-3.27,13.61-2.36,3.29-4.02,2.93-9.89,7.8-.71,.59-2.53,2.13-8,7.87-5.4,5.68-7.69,8.52-13.59,15.05-8.32,9.22-7.84,8.43-12.78,14.04-4.02,4.57-8.12,9.08-12.03,13.75-5.28,6.29-7.02,8.74-10.89,9.97-3.94,1.25-7.51,.42-10.53-.29-5.41-1.26-9.05-3.77-13.3-6.76-5.87-4.12-6.55-5.9-11.96-9.8-4.57-3.3-8.73-5.37-11.51-6.6Z"
      fill="#878787" />
    <path id="leftNavicular-2" data-name="leftNavicular"
      d="M341.64,439.7c-3.78,3.52-6.34,7.54-11.47,15.6-4.29,6.74-6.45,10.19-7.41,14.51-.5,2.25-1.78,8.45,.8,15.59,.58,1.62,3.81,10.55,12.81,14.47,1.88,.82,3.6,1.57,6,1.61,7.55,.12,9.77-7.09,21.47-14.36,2.63-1.64,7.12-4.38,13.52-6.04,6.13-1.59,10.88-1.36,17.77-.97,6.18,.35,13.96,.78,23.84,3.89,12.19,3.83,20.17,9.4,21.81,10.57,3.94,2.8,6.96,5.55,9.08,7.65,.94-1.79,2.39-4.67,3.98-8.31,2.84-6.54,2.54-7.33,4.58-11.15,2.93-5.47,4.53-5.68,5.53-9.62,.33-1.31,1.2-4.7,0-8.3-1.54-4.64-4.75-4.39-9.57-10.22-4.58-5.54-3.32-7.74-7.36-10.75-2-1.48-2.88-1.37-10.14-3.77-4-1.32-7.93-2.86-11.9-4.29-13.81-4.98-14.52-5.33-15.71-6.07-2.49-1.54-4.3-3.05-7.92-4.3-1.35-.47-3.87-1.32-7.1-1.34-3.4-.02-5.09,.89-8.46,1.79-4.12,1.09-4.9,.6-12.76,1.41-7.04,.73-10.55,1.09-13.89,2.03-8.96,2.53-14.85,7.91-17.51,10.38Z"
      fill="#878787" />
    <path id="leftCuboid-2" data-name="leftCuboid"
      d="M449.88,510.17c-.62-1.23,.59-2.51,4.52-10.43,.37-.74,.91-1.82,1.5-3.32,.94-2.4,1.14-3.8,3.57-9.23,1.84-4.13,3.32-7.4,6.05-11.38,1.35-1.96,3.41-4.93,6.84-8.06,3.26-2.97,4.29-2.93,6.95-5.17,4.28-3.6,3.58-5.38,9.1-13.28,5.59-8,8.09-8.73,8.35-12.98,.16-2.55-.51-6.01-1.04-8.75-.51-2.64-1.06-4.53-.81-7.29,.19-1.98,.71-3.57,1.12-4.59,2.43-.41,6.11-.76,10.48-.17,2.76,.38,11.25,1.66,18.39,8.47,6.18,5.89,8.12,12.86,9.6,18.16,.37,1.32,.97,5.04,2.16,12.46,1.2,7.49,1.4,9.76,1.05,12.72-.42,3.55-.78,6.62-3,9.48-2.87,3.71-5.95,3.32-7.46,6.93-.52,1.23-.43,3.12-.24,6.84,.35,6.8,1.05,7.14,.88,10.54-.08,1.72-.37,6.09-3.06,10.2-2.56,3.91-4.44,3.18-6,6.69-1.63,3.69-.36,6.31-2.51,8.08-.27,.22-1.07,.81-4.42,1.06-2.96,.22-5.73,0-9.33-.64-5.23-.93-9.06-2.21-9.89-2.49-4.65-1.57-4.4-2.07-7.94-3.04-4.01-1.1-4.69-.56-8.97-1.69-2.63-.69-4.4-1.43-7.52-2.73-6.76-2.82-6.64-3.64-10.25-4.6-5.08-1.35-7.38-.27-8.14-1.8Z"
      fill="#878787" />
    <path id="leftLateralCuneiform-2" data-name="leftLateralCuneiform"
      d="M448.09,439.9c.89,.88,2.15,2.24,3.43,4.09,2.5,3.62,2.19,4.97,3.92,7.83,3.13,5.18,6.03,3.87,9.22,9.11,2.13,3.49,1.99,5.97,3.69,6.28,1.08,.2,1.87-.66,5.58-3.93,4.92-4.34,4.53-3.72,5.37-4.67,2.79-3.15,1.85-4.05,5.14-9.29,1.03-1.64,2.6-3.69,5.74-7.8,3.04-3.98,3-3.73,3.27-4.32,1.97-4.35-1.02-6.91-1.06-13.63-.03-4.83,1.47-8.71,3-12.64,.79-2.03,1.09-2.39,4.15-9.29,2.88-6.51,3.06-7.2,2.79-8.15-.86-2.98-4.55-2.62-12.75-6.89-5.73-2.99-6.29-4.34-11.35-6.41-3.74-1.52-7.01-2.24-9.16-2.61-.44,1.18-1.47,3.44-3.73,5.45-1.87,1.67-3.79,2.45-4.94,2.82,.39,2.15,.85,5.3,1.01,9.11,.14,3.55-.02,6.64-.9,14.36-1.04,9.19-1.56,13.79-2.06,15.34-1.15,3.56-3.74,9.31-10.36,15.25Z"
      fill="#878787" />
    <path id="leftIntermediateCuneiform-2" data-name="leftIntermediateCuneiform"
      d="M420.66,371.82c-2.08,1.04-2.84,2.89-4.3,5.85-.02,.04-2.79,4.62-8.07,13.91-4.91,8.63-5.81,7.38-7.86,12.49-.74,1.84-4.85,12.57-.49,16.92,.6,.6,.58,.3,4.5,2.2,4.25,2.06,5.07,2.81,8.97,4.75,2.45,1.22,4.21,1.97,6.94,3.13,4.08,1.73,7.11,3.02,10.82,4.2,7.5,2.37,11.25,3.56,14.62,2,2.67-1.23,4.04-3.47,6-6.69,.99-1.62,2.81-4.94,4.26-11.54,.48-2.2,.55-3.05,1.54-17.55,.41-5.97,.62-9.52-.57-14.13-.93-3.63-2.04-5.19-2.72-6.01-1.08-1.3-2.67-2.62-8.97-4.75-5.02-1.7-5.63-1.48-15.18-3.85-5.59-1.39-7.4-1.97-9.48-.92Z"
      fill="#878787" />
    <path id="leftMedialCuneiform-2" data-name="leftMedialCuneiform"
      d="M352,358.32c.87-1.28,1.94-2.14,10.95-5.54,10.1-3.82,10.89-3.55,16.03-5.82,6.05-2.67,6.3-3.63,12.06-5.8,6.29-2.37,9.51-3.51,12.46-2.16,5.04,2.3,6.43,9.94,6.68,11.32,.5,2.73-.04,3.2,.71,7.37,.44,2.45,.8,4.93,2.21,7.77,1.33,2.7,2.17,3.11,2.46,4.91,.39,2.42-.75,4.38-2.43,7.19-5.27,8.77-7.56,12.15-7.56,12.15-4.1,5.12-5.53,8.15-6.25,9.56-2.23,4.34-3.94,7.68-4.52,12.42-.52,4.26,.31,6.13-1.35,8.18-.38,.47-1.6,1.82-7.01,2.82-5.01,.92-7.26,.42-13.41,.63-3.75,.13-6.21,.22-9.47,.98-6.27,1.46-11.64,4.71-12.74,5.38-3.96,2.4-5.47,4.1-6.44,3.5-1.25-.78,.03-4.37,.87-8.95,.65-3.52,.31-3.68,.58-15.92,.29-12.99,.39-19.5,1.35-23.7,1.45-6.33,2.63-6.97,3.28-12.71,.84-7.48-.74-10.2,1.55-13.58Z"
      fill="#878787" />
    <path id="leftMetatarsal1HeadFibular-2" data-name="leftMetatarsal1HeadFibular"
      d="M391.69,198.48c.35-2.04,.82-5.06,1.23-8.74,1.12-9.99,1.75-15.12-.1-19.5-.7-1.66-3.09-6.72-8.5-10.13-3.42-2.15-7.27-2.54-14.86-3.47-3.65-.45-6.71-.64-8.87-.73l.26,25.51c10.28,5.68,20.56,11.37,30.84,17.05Z"
      fill="#9d9d9c" />
    <path id="leftMetatarsal1Shaft-2" data-name="leftMetatarsal1Shaft"
      d="M403.54,307.61c-4.5-10.04-7.09-18.71-8.65-24.94-3.27-13.11-3.94-23.47-4.92-38.69-.46-7.2-.87-13.79-.53-22.78,.34-9.15,1.3-16.88,2.24-22.71-10.28-5.68-20.56-11.37-30.84-17.05-9.6,6.58-19.2,13.17-28.8,19.75,1.03,6.54,2.56,16.37,4.33,28.37,3.1,21.02,5.08,34.55,7.01,51.86,.86,7.75,2.02,18.98,3.08,32.7l31.64,6.82,25.43-13.33Z"
      fill="#9d9d9c" />
    <path id="leftMetatarsal1BaseFibular-2" data-name="leftMetatarsal1BaseFibular"
      d="M382.2,342.05c2.11-1.3,5.11-2.9,8.94-4.15,1.01-.33,2.33-.73,4.06-1.07,3.99-.79,7.27-1.39,10.45,.19,6.42,3.2,6.98,12.88,7.05,14.33,.21-1.54,.71-3.76,1.98-6.14,.8-1.5,1.69-2.69,2.48-3.57-.53-1.12-1.17-2.49-1.88-4.07,0,0-1.19-2.63-2.35-5.32-1.42-3.31-5-12.34-9.39-24.64l-25.43,13.33c1.36,7.04,2.73,14.08,4.09,21.12Z"
      fill="#9d9d9c" />
    <path id="leftMetatarsal1BaseTibial-2" data-name="leftMetatarsal1BaseTibial"
      d="M346.47,314.12c.24,1.95,.31,4.83-.56,8.66-.03,.12-.04,.18-.05,.23-.33,1.47-1.7,7.98-1.03,16.27,.38,4.67,.96,12.88,5.23,14.53,2.14,.83,3.97-.48,8.54-2.68,9.42-4.55,8.55-2.29,19.77-7.29,.86-.38,1.82-.83,1.82-.83,.83-.38,1.52-.72,2.03-.97-1.36-7.04-2.73-14.08-4.09-21.12l-31.64-6.82Z"
      fill="#9d9d9c" />
    <path id="leftMetatarsal1HeadTibial-2" data-name="leftMetatarsal1HeadTibial"
      d="M360.6,155.92c-2.33-.13-5.6-.18-9.49,.2-3.32,.33-5.94,.59-9.17,1.72-2.49,.87-6.31,2.22-9.52,5.66-.75,.8-3.56,3.97-4.85,10.04-1.29,6.06,0,11.1,2.51,20.79,.74,2.88,1.46,5.23,1.98,6.83,9.6-6.58,19.2-13.17,28.8-19.75l-.26-25.51Z"
      fill="#9d9d9c" />
    <path id="leftSesamoid-2" data-name="leftSesamoid"
      d="M394.31,192.39c-.75,4.56-1.14,7.98-1.57,11.77-.39,3.44-.85,7.94-1.25,13.24,1.8-.2,4.73-.81,7.21-2.98,4.17-3.65,4.26-9.28,4.35-14.69,.07-3.89,.08-7.94-2.57-11.86-1.47-2.18-3.25-3.56-4.49-4.36-.47,2.19-1.08,5.23-1.68,8.88Z"
      fill="#9d9d9c" />
    <path id="leftMetatarsal2Shaft-2" data-name="leftMetatarsal2Shaft"
      d="M463.87,347.85c-1.52-2.12-3.57-5.2-5.66-9.11-5.53-10.35-7.26-19.5-8.63-25.12-2.43-9.99-1.65-16.26-4.99-41.94-2.57-19.75-3.12-35.91-3.06-47.55,.05-10.26,.42-20.43,2.85-32.59,1.11-5.57,2.36-10.16,3.34-13.42l-19.62-14.21c-7.32,5.09-14.65,10.17-21.97,15.26,.2,.85,.53,2.13,1.06,3.65,1.56,4.56,3.58,7.62,4.03,8.34,3.35,5.37,3.82,15.44,4.01,20.2,1.04,25.85,1.56,38.77,1.75,45.99,.44,16.25,1.48,31.69,1.99,39.15,.48,7.1,1.28,17.88,1.12,32.58-.05,4.42-.17,8.07-.27,10.5,6.72,4.72,13.44,9.44,20.16,14.16l23.91-5.9Z"
      fill="#9d9d9c" />
    <path id="leftMetatarsal2BaseFibular-2" data-name="leftMetatarsal2BaseFibular"
      d="M439.44,371.93c.99,.13,2.28,.35,3.77,.74,.28,.07,1.13,.3,2.22,.67,.42,.14,3.21,1.11,5.91,2.59,5.77,3.18,5.93,5.87,8.57,5.85,3.08-.02,5.35-3.7,6.15-5.01,1.92-3.12,2.02-6.07,2.14-10.01,.06-1.81,.08-6.87-1.92-13.07-.8-2.46-1.7-4.45-2.41-5.85l-23.91,5.9-.51,18.19Z"
      fill="#9d9d9c" />
    <path id="leftMetatarsal2BaseTibial-2" data-name="leftMetatarsal2BaseTibial"
      d="M419.8,339.59c-.13,.56-.34,1.35-.69,2.28-.16,.42-.34,.87-.65,1.52-1.22,2.52-2.12,3.39-3.1,6.59-1.71,5.53-.68,10.86-.68,10.86,.58,2.9,1.21,6.03,3.68,7.45,1.53,.88,2.61,.44,5.46,.48,3.31,.05,3.07,.66,11.17,2.33,1.07,.22,2.02,.4,2.27,.45,.82,.16,1.56,.29,2.19,.4l.51-18.19c-6.72-4.72-13.44-9.44-20.16-14.16Z"
      fill="#9d9d9c" />
    <path id="leftMetatarsal2HeadTibial-2" data-name="leftMetatarsal2HeadTibial"
      d="M429.06,146.08c-2.25-.15-5.71-.12-9.68,1.04-3.15,.92-9.2,2.69-12.25,7.95-1.55,2.68-1.64,5.75-1.75,11.76-.1,5.13,.32,9.38,.73,12.33,7.32-5.09,14.65-10.17,21.97-15.26l.97-17.82Z"
      fill="#9d9d9c" />
    <path id="leftMetatarsal2HeadFibular-2" data-name="leftMetatarsal2HeadFibular"
      d="M447.71,178.11c.55-2.89,1.15-7.31,.87-12.32-.3-5.24-1.42-8.59-1.7-9.4-.19-.56-.28-.84-.42-1.13-2.61-5.58-9.18-7.46-12.27-8.29-1.16-.31-2.92-.71-5.13-.89l-.97,17.82,19.62,14.21Z"
      fill="#9d9d9c" />
    <path id="leftMetatarsal3HeadFibular-2" data-name="leftMetatarsal3HeadFibular"
      d="M491.87,198.46c.05-1.73,.15-3.99,.39-6.61,.18-1.95,.29-2.92,.44-4.02,1.15-8.34,2.61-9.39,1.45-12.51-1.62-4.38-6.02-6.49-9.4-8.04-1.31-.6-3.24-1.38-5.71-1.98l-3.23,18.57c5.35,4.87,10.7,9.73,16.05,14.6Z"
      fill="#9d9d9c" />
    <path id="leftMetatarsal3Shaft-2" data-name="leftMetatarsal3Shaft"
      d="M498.46,347.85c-2.01-3.14-4.46-7.43-6.73-12.85,0,0-.32-.71-.56-1.38-1.13-3.16-2.05-9.19-4.26-38.39-1.94-25.61-1.28-21.7-2.12-29.42-.07-.69-1.79-16.55-3.05-35.28-.44-6.61-.83-13.82,3.25-20.65,1.92-3.2,3.93-3.61,5.7-7.44,.57-1.23,.9-2.51,.9-2.51,.15-.61,.22-1.12,.27-1.48-5.35-4.87-10.7-9.73-16.05-14.6-6.84,2.87-13.68,5.75-20.51,8.62,.05,.69,.13,1.57,.31,2.56,.33,1.86,.8,3.24,.98,3.72,.89,2.48,1.37,2.33,2.33,4.9,.21,.57,.68,1.9,1.03,3.67,0,0,.3,1.54,.41,3.12,.39,6.04-1.07,12.7-1.07,12.7-.39,1.78-.51,6.82-.76,16.9-.46,18.98-.11,34.28-.11,34.28,.57,25.18,2.15,33.37,.95,53.79-.2,3.36-.42,6.13-.57,7.96l6.12,8.48c5.7,4.41,11.41,8.82,17.11,13.23,5.48-3.31,10.96-6.63,16.44-9.94Z"
      fill="#9d9d9c" />
    <path id="leftMetatarsal3BaseFibular-2" data-name="leftMetatarsal3BaseFibular"
      d="M484.05,380.12c1.26,.75,3.14,1.86,5.46,3.17,.65,.37,1.69,.95,3,1.67,7.34,4.02,9.46,4.69,10.95,3.76,.29-.18,1.15-.8,2.05-4.87,.78-3.57,1.19-6.81,.85-9.67-1.22-10.13-3.01-15.06-3.01-15.06-.84-2.34-1.83-4.8-2.99-7.35-.62-1.36-1.25-2.66-1.89-3.91-5.48,3.31-10.96,6.63-16.44,9.94,.68,7.44,1.35,14.89,2.03,22.33Z"
      fill="#9d9d9c" />
    <path id="leftMetatarsal3BaseTibial-2" data-name="leftMetatarsal3BaseTibial"
      d="M464.91,344.56c1.5,2.62,3.15,6.1,4.32,10.39,1.47,5.4,1.55,9.74,1.54,11.23,0,3.53-.47,6.49-.94,8.67,2.39,.46,6.08,1.36,10.27,3.24,.72,.32,1.37,.65,1.45,.68,1.02,.51,1.87,.98,2.49,1.34-.68-7.44-1.35-14.89-2.03-22.33-5.7-4.41-11.41-8.82-17.11-13.23Z"
      fill="#9d9d9c" />
    <path id="leftMetatarsal3HeadTibial-2" data-name="leftMetatarsal3HeadTibial"
      d="M479.05,165.29c-1.91-.43-5.27-.92-9.27-.05-1.86,.4-4.86,1.05-7.51,3.31-3.05,2.6-3.95,5.89-5.3,11.09-.78,3-1.63,7.39-1.66,12.84,6.84-2.87,13.68-5.75,20.51-8.62l3.23-18.57Z"
      fill="#9d9d9c" />
    <path id="leftMetatarsal4HeadFibular-2" data-name="leftMetatarsal4HeadFibular"
      d="M532.14,221.77c1.21-4.54,.74-7.12,.04-8.66-1.04-2.27-1.27-3.07-1.8-4.66-.19-.56-.36-1.22-.5-2.04-.52-3.04,.23-3.26-.28-5.08-1.05-3.76-9.08-7.65-9.08-7.65-1.24-.59-3-1.36-5.2-2.09-.76,5.51-1.53,11.02-2.29,16.53,6.37,4.55,12.74,9.1,19.11,13.64Z"
      fill="#9d9d9c" />
    <path id="leftMetatarsal4Shaft-2" data-name="leftMetatarsal4Shaft"
      d="M531.61,385.86c-1.49-2.3-3.58-5.92-5.31-10.67-2.63-7.23-2.99-12.92-3.37-23.39-.47-12.99,.53-22.8,.82-25.91,2.04-21.74-.7-41.09-1.47-49.21-.71-7.5-2.02-18.62-.54-30.91,.48-4.03,1.53-10.4,5.48-17.21,1.73-2.99,3.56-5.26,4.92-6.79-6.37-4.55-12.74-9.1-19.11-13.64-7.06,2.65-14.12,5.3-21.18,7.95,0,.25,.03,.63,.06,1.09,.26,3.58,.98,5.59,2.22,9.94,1.29,4.5,1.38,5.37,3.46,12.61l.1,.34c3.12,10.85,1.26,26.82,1.26,26.82-1.52,13.03,1.56,9.86,.79,32.19-.46,13.46-.7,20.19-1.9,25.82-1.27,5.93-2.55,8.97-1.58,13.94,1.05,5.41,3.46,6.41,7.02,14.69,2.88,6.71,3.94,12.2,4.21,13.72,.76,4.19,1.42,10.68,.16,18.78,3.23,3.18,6.46,6.35,9.68,9.53,4.75-3.23,9.51-6.45,14.26-9.68Z"
      fill="#9d9d9c" />
    <path id="leftMetatarsal4BaseFibular-2" data-name="leftMetatarsal4BaseFibular"
      d="M515.72,415.19c.71,.29,1.92,.8,3.33,1.6,8.15,4.58,10.47,11.29,12.8,10.5,1.26-.43,1.27-2.1,2.87-8.05,2.3-8.55,3.14-8.32,3.54-11.6,.04-.35,.08-.73,.09-1.16,.15-4.75-4.12-14.71-4.12-14.71-.68-1.57-1.56-3.58-2.62-5.9-4.75,3.23-9.51,6.45-14.26,9.68l-1.63,19.65Z"
      fill="#9d9d9c" />
    <path id="leftMetatarsal4BaseTibial-2" data-name="leftMetatarsal4BaseTibial"
      d="M507.67,386.02c-1.05,3.71-2.05,6.63-2.84,8.77-.02,.04-.1,.27-.21,.57-.44,1.16-1.18,3.03-3.12,7.62-1.04,2.45-2.45,5.77-4.19,9.74,.98-.1,2.13-.19,3.41-.21,0,0,2.11-.04,4.26,.16,4.74,.44,9.76,2.18,10.75,2.52l1.63-19.65c-3.23-3.18-6.46-6.35-9.68-9.53Z"
      fill="#9d9d9c" />
    <path id="leftMetatarsal4HeadTibial-2" data-name="leftMetatarsal4HeadTibial"
      d="M515.33,191.59c-.26-.07-.63-.15-1.08-.23,0,0-1.05-.18-2.16-.22-4.66-.14-8.06,1.76-9.24,2.44-4.69,2.7-6.84,6.79-8.01,9.04-2.82,5.41-3.08,10.56-2.98,13.45,7.06-2.65,14.12-5.3,21.18-7.95,.76-5.51,1.53-11.02,2.29-16.53Z"
      fill="#9d9d9c" />
    <path id="leftMetatarsal5HeadFibular-2" data-name="leftMetatarsal5HeadFibular"
      d="M573.2,263.86c.32-1.87,.53-3.42,.67-4.51,1.13-8.78,.47-11.95-.06-13.72-.11-.35-.27-.89-.53-1.57-.61-1.63-2.72-6.95-8.17-10.38-1.31-.83-3.47-1.95-6.45-2.55-1.46,6.18-2.91,12.35-4.37,18.53l18.91,14.2Z"
      fill="#9d9d9c" />
    <path id="leftMetatarsal5BaseFibular-2" data-name="leftMetatarsal5BaseFibular"
      d="M537.87,450.2c.51,2.86,1.07,6.35,1.61,10.43,.41,3.08,.8,6.59,.02,10.53-.02,.12-.04,.21-.06,.29-.41,1.86-1.29,5.09-4.11,7.76-1.13,1.08-2.26,1.75-3.08,2.17,.54,1.2,1.84,3.66,4.57,5.54,.59,.41,4.61,3.14,8.83,2.22,1.25-.27,4.59-1.31,8.97-9.68,5.72-10.94,6.26-21.09,6.34-22.91,.03-.69,.03-1.3,.04-1.49,.07-6.34-.91-11.36-1.8-14.7l-13.26-5.71-8.06,15.55Z"
      fill="#9d9d9c" />
    <path id="leftMetatarsal5BaseTibial-2" data-name="leftMetatarsal5BaseTibial"
      d="M538.76,412.39c-.18,.57-.41,1.35-.67,2.27-.49,1.76-.67,2.58-1.24,4.73-.17,.65-.38,1.41-.64,2.33-.83,2.9-1.22,3.99-1.71,5.08-.76,1.72-1.57,3.07-2.15,3.96,.88,1.73,2.08,4.35,3.12,7.67,0,0,.11,.37,.23,.75,.88,3.02,2,9.94,2.17,11.01l8.06-15.55c-2.39-7.42-4.78-14.83-7.17-22.25Z"
      fill="#9d9d9c" />
    <path id="leftMetatarsal5Shaft-2" data-name="leftMetatarsal5Shaft"
      d="M528.43,253.65c-.11,.77-.2,1.88-.03,3.19,0,0,.1,.75,.28,1.44,1.04,4,3.4,4.51,5.19,8.76,.49,1.16,1.25,3.36,1.11,10.02-.12,5.66-.79,9.46-1.99,16.61-2.03,12.1-2.05,11.75-3.05,18.32-.52,3.41-1.12,6.82-1.62,10.24-.46,3.15-.89,6.34-2.1,10.55-.38,1.33-.74,2.42-1,3.16-.48,5.59-.55,10.34-.5,13.94,.08,5.07,.17,9.96,1.37,16.27,.62,3.25,1.1,5.79,2.36,9.14,1.58,4.2,2.73,5.29,5.75,11.58,.15,.31,.3,.63,.46,.96,1.56,3.3,2.34,4.95,3.22,7.5,1.75,5.01,2.98,8.68,2.2,13.01-.07,.42-.15,.72-.23,.98-.19,.63-.35,.95-.6,1.6-.13,.35-.32,.84-.5,1.47,2.39,7.42,4.78,14.83,7.17,22.25l13.26,5.71c-.25-1.32-.6-3.09-1.06-5.16-.68-3.08-1.54-6.98-2.97-11.6-1.62-5.24-2.3-5.98-3.38-10.43,0,0-.68-2.79-1.14-5.88-1.44-9.55-.14-23.13,.3-28.13,.99-11.34,.02-7.32,1.26-26.78,.52-8.14,.49-5.75,2.2-27.24,.83-10.4,3.05-20.68,3.44-31.1,.18-4.73,.17-9.29,3.32-13.24,2.69-3.37,5.7-3.82,8.63-7.91,2.29-3.2,3.09-6.6,3.4-9.03l-18.91-14.2c-8.62,1.33-17.24,2.66-25.86,3.99Z"
      fill="#9d9d9c" />
    <path id="leftMetatarsal5HeadTibial-2" data-name="leftMetatarsal5HeadTibial"
      d="M558.66,231.13c-2.08-.55-6.85-1.52-12.47,.17-5.43,1.64-8.68,4.87-10.12,6.33-4.31,4.4-5.89,9.23-6.6,11.51-.56,1.8-.87,3.36-1.04,4.5,8.62-1.33,17.24-2.66,25.86-3.99,1.46-6.18,2.91-12.35,4.37-18.53Z"
      fill="#9d9d9c" />
    <path id="leftProximalPhalanx1Shaft-2" data-name="leftProximalPhalanx1Shaft"
      d="M329.7,140.9c2.07-3.77,4.45-8.73,6.53-14.77,2.4-6.97,3.26-12.12,4.32-18.39,1.6-9.5,1.31-13.24,.2-16.77-.71-2.25-1.63-4-2.31-5.15,9.88-2.07,19.77-4.13,29.65-6.2,8.83,4.21,17.67,8.42,26.5,12.62-1.64,4.1-2.64,6.23-3.27,7.43-.19,.37-.89,1.68-1.63,3.52,0,0-.27,.68-.52,1.38-1.98,5.66-2.32,16.22-2.32,16.22-.27,8.27-.38,12.49,.53,16.65,.65,2.98,1.51,5.37,2.16,6.97-9.81,.84-19.61,1.67-29.42,2.51-10.14-2.01-20.29-4.03-30.43-6.04Z"
      fill="#b2b2b2" />
    <path id="leftProximalPhalanx1BaseTibial-2" data-name="leftProximalPhalanx1BaseTibial"
      d="M359.87,153.34c-.59-.03-1.48-.06-2.55-.1-4.89-.16-7.34-.32-9.02-.07-3.56,.53-6.07,1.67-9.67,3.3-3.71,1.68-5.57,2.53-7.23,4.24-1.99,2.05-2.37,3.68-3.57,3.66-1.81-.04-3.17-3.76-3.65-5.73-.26-1.06-.69-3.43,.07-7.03,1.04-4.88,3.53-8.49,5.45-10.71,10.14,2.01,20.29,4.03,30.43,6.04-.09,2.13-.17,4.26-.26,6.39Z"
      fill="#b2b2b2" />
    <path id="leftProximalPhalanx1BaseFibular-2" data-name="leftProximalPhalanx1BaseFibular"
      d="M389.55,144.44c1.1,3.31,1.97,5.42,2.59,6.8,.04,.08,.04,.1,.07,.16,.27,.6,1.02,2.41,1.3,4.84,.24,2.09,.29,5.91-1.1,6.4-.92,.32-1.88-1.01-3.57-2.48-3.49-3.02-7.16-4.05-10.92-5.11-2.13-.6-4.93-.83-10.54-1.28-1.04-.08-2.11-.16-2.13-.16h0c-.97-.07-2.7-.16-5.38-.27,.09-2.13,.17-4.26,.26-6.39,9.81-.84,19.61-1.67,29.42-2.51Z"
      fill="#b2b2b2" />
    <path id="leftProximalPhalanx1HeadFibular-2" data-name="leftProximalPhalanx1HeadFibular"
      d="M369.26,69.75c3.55,.3,7.79,.68,12.58,1.18,8.41,.87,10.94,1.31,12.69,3.46,1.52,1.87,1.68,4.06,1.87,6.87,.35,4.89-.91,8.8-1.81,11.01-8.83-4.21-17.67-8.42-26.5-12.62,.39-3.3,.78-6.59,1.17-9.89Z"
      fill="#b2b2b2" />
    <path id="leftProximalPhalanx1HeadTibial-2" data-name="leftProximalPhalanx1HeadTibial"
      d="M338.44,85.83c-.56-.82-1.41-2.33-1.68-4.38-.03-.22-.16-1.19-.02-2.38,.5-4.38,3.48-7.2,3.91-7.6,1.28-1.17,3.32-2.53,7.69-3.3,3.54-.62,5.42-.13,15.43,.99,2.36,.26,4.28,.46,5.49,.58-.39,3.3-.78,6.59-1.17,9.89-9.88,2.07-19.77,4.13-29.65,6.2Z"
      fill="#b2b2b2" />
    <path id="leftProximalPhalanx2HeadTibial-2" data-name="leftProximalPhalanx2HeadTibial"
      d="M417.63,76.41c-.44-1.21-1.01-3.39-.46-5.94,.1-.45,1.25-5.49,5-6.66,.25-.08,.43-.11,.76-.18,2.34-.45,3.89,.05,6.25,.43,.94,.15,2.32,.33,4.05,.39l-.83,7.36c-4.92,1.53-9.85,3.06-14.77,4.59Z"
      fill="#b2b2b2" />
    <path id="leftProximalPhalanx2Shaft-2" data-name="leftProximalPhalanx2Shaft"
      d="M411.83,136.53c1.87-2.34,4.41-6.08,6.03-11.2,.62-1.94,.95-3.98,1.6-7.98,.87-5.37,1.59-9.84,1.93-15.89,.37-6.58,.55-9.86-.13-13-.06-.29-.12-.55-.19-.8-.58-2.28-1.18-3.94-1.37-4.44-.47-1.27-1.15-3.33-2.08-6.81,4.92-1.53,9.85-3.06,14.77-4.59l15.37,5.14c-.56,3.09-.87,4.53-1.05,5.25-.01,.05-.04,.16-.08,.31-.29,1.28-.26,2.24-.25,2.45,0,.73-.51,5.35-1.55,14.58-.85,7.54-1.31,10.54-1.73,16.42-.07,.93-.11,1.82-.2,3.62,0,0-.4,7.79,.31,11.3,.11,.52,.23,1.02,.23,1.02,.27,1.08,.55,1.88,.7,2.3,.59,1.67,1.32,3.15,1.7,3.89l-19.92,1.95-14.1-3.5Z"
      fill="#b2b2b2" />
    <path id="leftProximalPhalanx2BaseTibial-2" data-name="leftProximalPhalanx2BaseTibial"
      d="M426,143.73c-2.07-.08-5.48,.07-9.34,1.53-1.94,.74-5.25,1.99-8.02,5.07-1.92,2.13-2.44,3.87-3.03,3.7-.88-.25-.93-4.51,.38-8.45,.06-.18,.31-.89,.79-1.91,.85-1.79,2.35-4.38,5.05-7.15l14.1,3.5,.07,3.69Z"
      fill="#b2b2b2" />
    <path id="leftProximalPhalanx2BaseFibular-2" data-name="leftProximalPhalanx2BaseFibular"
      d="M445.85,138.09c.18,.41,.43,.97,.69,1.66,.48,1.26,.79,2.33,1,3.16,1.29,4.99,3.05,11.8,1.98,12.23-.79,.32-1.73-3.46-5.85-6.5-2.87-2.11-5.84-2.8-9.92-3.75-3.17-.74-5.86-1.03-7.75-1.16l-.07-3.69,19.92-1.95Z"
      fill="#b2b2b2" />
    <path id="leftProximalPhalanx2HeadFibular-2" data-name="leftProximalPhalanx2HeadFibular"
      d="M433.23,64.46c1.49,.24,2.69,.27,3.47,.26,3.58-.05,5.44-.89,8.03,.15,.26,.1,.5,.24,.76,.44,1.8,1.37,2.08,3.77,2.32,6.52,.11,1.29,.17,3.04-.04,5.12l-15.37-5.14,.83-7.36Z"
      fill="#b2b2b2" />
    <path id="leftProximalPhalanx3HeadTibial-2" data-name="leftProximalPhalanx3HeadTibial"
      d="M466.24,95.67c-.06-1.07-.03-2.99,.87-5.1,.61-1.44,1.44-3.39,3.26-4.23,1.92-.89,3.27,.23,8.4,.92,1.69,.23,3.07,.31,3.92,.35l-.79,5.51-15.65,2.56Z"
      fill="#b2b2b2" />
    <path id="leftProximalPhalanx3Shaft-2" data-name="leftProximalPhalanx3Shaft"
      d="M463.98,153.1c.99-1.66,2.32-4.13,3.52-7.27,2.16-5.62,2.74-10.34,3.27-14.69,.5-4.09,.58-7.15,.62-9.15,.11-4.94,.16-7.41-.52-10.51-.64-2.91-1.29-3.52-2.12-5.43-.48-1.11-.74-1.92-1.1-3.15-.81-2.72-1.21-5.32-1.41-7.21l15.65-2.56,14.72,5.92c-.25,.49-.61,1.24-1.01,2.15-1.26,2.89-2.13,5.75-3.1,10.74,0,0-1.56,7.94-2.22,17.13-.14,1.88-.23,3.81-.23,3.81-.14,2.8-.15,4.48-.2,7.34-.16,8.85-.34,10.14,.32,12.84,.4,1.62,.89,2.89,1.22,3.68-4.96,.28-9.92,.56-14.88,.84l-12.52-4.47Z"
      fill="#b2b2b2" />
    <path id="leftProximalPhalanx3BaseTibial-2" data-name="leftProximalPhalanx3BaseTibial"
      d="M475.84,161.89c-.54-.05-1.17-.09-1.88-.09,0,0-1.04,0-2.09,.1-1.97,.2-6.97,.69-10.84,4.28-2.18,2.02-2.99,4.08-3.58,3.84-.78-.31-.12-4.11,.79-6.97,.8-2.51,2.37-6.11,5.74-9.96l12.52,4.47-.66,4.33Z"
      fill="#b2b2b2" />
    <path id="leftProximalPhalanx3BaseFibular-2" data-name="leftProximalPhalanx3BaseFibular"
      d="M491.37,156.72c2.69,5.26,3.47,9.45,3.72,12.09,.12,1.32,.14,2.59-.43,2.85-.99,.45-2.56-2.73-6.38-5.43-2.58-1.82-5.13-2.6-6.77-3.12-2.2-.7-4.15-1.04-5.67-1.22l.66-4.33c4.96-.28,9.92-.56,14.88-.84Z"
      fill="#b2b2b2" />
    <path id="leftProximalPhalanx3HeadFibular-2" data-name="leftProximalPhalanx3HeadFibular"
      d="M482.68,87.61c1.77,.18,3.2,.2,4.16,.18,3.48-.07,5.51-.53,7.85,.63,.25,.12,.48,.28,.71,.48,2.08,1.74,2.19,4.77,2.22,5.61,.02,.63-.03,1.12-.06,1.37-.16,1.4-.61,2.48-.96,3.16l-14.72-5.92,.79-5.51Z"
      fill="#b2b2b2" />
    <path id="leftProximalPhalanx4HeadTibial-2" data-name="leftProximalPhalanx4HeadTibial"
      d="M508.78,125.89c-.13-.99-.28-3.17,.83-5.52,.26-.56,1.83-3.61,5.21-4.87,.24-.09,.46-.16,.7-.21,2.13-.45,3.42,0,7.31,.46,.28,.03,.79,.09,1.43,.15l-.97,7.42-14.5,2.57Z"
      fill="#b2b2b2" />
    <path id="leftProximalPhalanx4Shaft-2" data-name="leftProximalPhalanx4Shaft"
      d="M502.72,178.23c.55-.64,1.21-1.45,1.91-2.43,0,0,.85-1.19,1.62-2.49,2.88-4.88,4.03-9.29,4.89-12.57,.29-1.11,.86-4.85,1.98-12.28,1.27-8.41,1.39-9.25,.94-10.75-1.36-4.47-3.56-5.54-4.77-9.44-.15-.48-.37-1.3-.5-2.39l14.5-2.57,14.18,5.54c-.09,.37-.22,.88-.39,1.49-.46,1.66-.91,2.96-1.2,3.76-.82,2.28-1.23,3.42-2.59,6.56-.76,1.75-1.27,3.79-1.88,15.35-.45,8.46-.67,12.78-.41,17.11,.26,4.44,.78,8.13,1.22,10.73-5.18-.04-10.35-.09-15.53-.13-4.65-1.83-9.3-3.66-13.95-5.49Z"
      fill="#b2b2b2" />
    <path id="leftProximalPhalanx4BaseTibial-2" data-name="leftProximalPhalanx4BaseTibial"
      d="M515.08,188.95c-.44-.1-1.02-.21-1.71-.28,0,0-.7-.07-1.42-.06-3.75,.03-6.8,1.47-8.88,2.47-3.7,1.79-4.78,3.27-5.65,2.75-1.38-.81-.35-5.43,.95-8.76,.57-1.47,1.21-2.61,1.58-3.22,.96-1.58,1.97-2.78,2.78-3.62,4.65,1.83,9.3,3.66,13.95,5.49l-1.6,5.22Z"
      fill="#b2b2b2" />
    <path id="leftProximalPhalanx4BaseFibular-2" data-name="leftProximalPhalanx4BaseFibular"
      d="M532.2,183.86c.07,.79,.17,2,.25,3.47,.25,5.13,.54,10.68-.97,11.1-1.01,.29-1.68-1.98-5.01-4.59-2.9-2.28-6.2-3.3-8.14-3.96-1.31-.45-2.44-.74-3.25-.94l1.6-5.22c5.18,.04,10.35,.09,15.53,.13Z"
      fill="#b2b2b2" />
    <path id="leftProximalPhalanx4HeadFibular-2" data-name="leftProximalPhalanx4HeadFibular"
      d="M524.25,115.9c2.87,.15,5.08,.54,6.6,.88,.59,.13,.89,.2,1.24,.32,3.2,1.12,4.73,4.06,4.94,4.47,1.71,3.4,.64,6.67,.43,7.3l-14.18-5.54,.97-7.42Z"
      fill="#b2b2b2" />
    <path id="leftProximalPhalanx5HeadTibial-2" data-name="leftProximalPhalanx5HeadTibial"
      d="M549.38,173.29c-1.05-3.43-.81-6.89,1.11-8.57,1.68-1.47,4.6-1.5,7.17-1.54,1.11-.01,2.37,.07,2.58,.09,1.66,.12,3.04,.33,4.02,.52l-.26,4.96c-4.87,1.51-9.75,3.02-14.62,4.53Z"
      fill="#b2b2b2" />
    <path id="leftProximalPhalanx5Shaft-2" data-name="leftProximalPhalanx5Shaft"
      d="M542.44,217.54c.88-.66,2.13-1.71,3.34-3.24,.97-1.22,2.32-3.61,4.5-12.24,.92-3.64,1.25-6.22,1.88-11.2,.61-4.81,.91-7.26,.46-9.34-.29-1.31-1.55-2.79-2.57-5.87-.32-.98-.54-1.8-.68-2.35,4.87-1.51,9.75-3.02,14.62-4.53,4.95,1.34,9.91,2.68,14.86,4.03-.08,.43-.2,1.12-.38,1.97-1.44,7.08-3.01,9.77-3.96,14.27-.45,2.14,.11,.58-.62,9.15-.36,4.22-.82,8.51-.65,13.97,.02,.54,.04,.98,.05,1.14,.24,5.13,.92,8.6,1.14,9.66,.07,.33,.15,.73,.25,1.17-5.95-.39-11.9-.77-17.85-1.16-4.8-1.8-9.61-3.61-14.41-5.41Z"
      fill="#b2b2b2" />
    <path id="leftProximalPhalanx5BaseTibial-2" data-name="leftProximalPhalanx5BaseTibial"
      d="M555.84,227.27c-6.21-.31-10.35,1.16-13.04,2.65-2.87,1.59-4.91,3.65-6.21,2.89-1.67-.99-.62-5.74-.56-6,.45-1.98,1.3-3.36,1.6-3.83,.16-.26,.83-1.31,1.82-2.49,1.11-1.32,2.24-2.32,2.99-2.93,4.8,1.8,9.61,3.61,14.41,5.41l-1.01,4.31Z"
      fill="#b2b2b2" />
    <path id="leftProximalPhalanx5BaseFibular-2" data-name="leftProximalPhalanx5BaseFibular"
      d="M574.7,224.12c.76,2.16,1.65,5.43,1.7,9.47,0,.7,.06,6.49-1.31,6.74-.87,.16-1.33-2.1-3.73-4.84-2.33-2.66-4.89-3.96-7.65-5.36-1.84-.93-4.49-2.07-7.87-2.85l1.01-4.31c5.95,.39,11.9,.77,17.85,1.16Z"
      fill="#b2b2b2" />
    <path id="leftProximalPhalanx5HeadFibular-2" data-name="leftProximalPhalanx5HeadFibular"
      d="M564.26,163.79c.97,.03,1.72-.09,2.2-.2,1.49-.33,2.09-.8,3.84-1.27,.42-.11,.9-.2,1.53-.24,.23-.02,4.08-.35,6.19,1.44,2.07,1.76,2.52,5.61,.84,9.26-4.95-1.34-9.91-2.68-14.86-4.03l.26-4.96Z"
      fill="#b2b2b2" />
    <path id="leftDistalPhalanx1TuftTibial-2" data-name="leftDistalPhalanx1TuftTibial"
      d="M363.04,28.95c.58-1.84,2.4-6.8,7.42-10.54,6.73-5.01,14.17-4.07,15.68-3.85l-4.03,11.54c-6.36,.95-12.71,1.9-19.07,2.85Z"
      fill="#dadada" />
    <path id="leftDistalPhalanx1Shaft-2" data-name="leftDistalPhalanx1Shaft"
      d="M355.65,53.18c2.07-3.3,3.3-6.28,4.03-8.47,.42-1.26,.84-2.49,1.17-4.23,.59-3.13,.26-4.47,.87-7.37,.33-1.56,.8-2.95,1.32-4.16,6.36-.95,12.71-1.9,19.07-2.85,5.81,3.58,11.61,7.15,17.42,10.73-1.36,2.84-2.78,6.34-3.93,10.44-1.16,4.14-1.78,7.89-2.1,11.05l-22.85,2.16c-5-2.43-10-4.87-15.01-7.3Z"
      fill="#dadada" />
    <path id="leftDistalPhalanx1BaseTibial-2" data-name="leftDistalPhalanx1BaseTibial"
      d="M368.71,67.34c-1.58-.35-3.82-.79-6.53-1.18-.81-.12-1.77-.26-3.08-.38-5.17-.49-7.98-.16-8.84-.05-3.12,.4-5.29,.68-7.58,2.04-4.38,2.61-5.86,7.19-6.73,6.81-.5-.21-.26-1.79-.14-2.54,.26-1.65,1.04-6.57,5.22-10.19,.91-.79,1.71-1.28,2.47-1.62,3.41-1.51,5.12-1.45,7.46-2.57,1.35-.65,3.09-1.88,4.68-4.49,5,2.43,10,4.87,15.01,7.3-.65,2.29-1.3,4.57-1.94,6.86Z"
      fill="#dadada" />
    <path id="leftDistalPhalanx1BaseFibular-2" data-name="leftDistalPhalanx1BaseFibular"
      d="M393.5,58.32c2.11,4.3,4.21,7.59,5.81,9.89,2.26,3.24,3.84,4.95,3.51,7.34-.37,2.66-2.93,4.92-3.83,4.54-.64-.28-.05-1.75-.58-3.66-.91-3.29-4.33-5.03-6.16-5.95-1.35-.69-3.31-1.47-10.99-2.23-2.01-.2-3.47-.3-4.65-.36-1.83-.09-2.83-.05-4.71-.2-1.35-.11-2.46-.25-3.19-.35,.65-2.29,1.3-4.57,1.94-6.86l22.85-2.16Z"
      fill="#dadada" />
    <path id="leftDistalPhalanx1TuftFibular-2" data-name="leftDistalPhalanx1TuftFibular"
      d="M386.15,14.56c.46,.09,1.13,.25,1.93,.52,5.23,1.75,10.95,6.63,12.17,13.52,.27,1.51,.56,4.5-.72,8.24-5.81-3.58-11.61-7.15-17.42-10.73l4.03-11.54Z"
      fill="#dadada" />
    <path id="leftMiddlePhalanx2HeadTibial-2" data-name="leftMiddlePhalanx2HeadTibial"
      d="M414.93,37.79c-.27-.72-1.18-3.46,.17-5.64,1.74-2.81,6.09-2.89,7.66-2.94,1.68-.05,2.16,.24,3.69,.55,1.06,.21,1.94,.3,2.54,.36,.5,.05,.93,.08,1.25,.1l-.6,5.53-14.72,2.05Z"
      fill="#c6c6c6" />
    <path id="leftMiddlePhalanx2Shaft-2" data-name="leftMiddlePhalanx2Shaft"
      d="M418.5,53.59c.32-2.3,.15-4.1-.05-5.3-.28-1.67-.71-2.59-2.62-7.95-.39-1.1-.71-1.99-.9-2.54l14.72-2.05,13.09,3.56c-.05,.32-.12,.8-.23,1.38-.59,3.17-1.17,4.09-1.2,5.85-.02,1.11,.19,1.89,.47,2.97,.37,1.39,1.19,3.72,3.21,6.19l-12.18,2.03c-4.77-1.38-9.54-2.76-14.31-4.14Z"
      fill="#c6c6c6" />
    <path id="leftMiddlePhalanx2BaseTibial-2" data-name="leftMiddlePhalanx2BaseTibial"
      d="M432.6,61.97c-.35-.02-.88-.05-1.51-.09-5.22-.29-7.84-.49-9.36-.28-3.25,.46-4.39,1.35-5.11,.64-.21-.21-.51-.79,1.57-7.62,.13-.42,.24-.77,.32-1.03,4.77,1.38,9.54,2.76,14.31,4.14l-.21,4.25Z"
      fill="#c6c6c6" />
    <path id="leftMiddlePhalanx2BaseFibular-2" data-name="leftMiddlePhalanx2BaseFibular"
      d="M444.99,55.69c.12,.14,.28,.34,.48,.59,1.6,2.02,2.76,3.42,3.16,5.15,.29,1.25,.45,3.21-.31,3.58-.81,.39-1.68-1.51-4.11-2.53-1.9-.79-2.91-.27-7.02-.25-.19,0-.31,0-.44,0-.68-.02-1.18-.07-1.32-.09-.43-.05-1.23-.11-2.83-.18l.21-4.25,12.18-2.03Z"
      fill="#c6c6c6" />
    <path id="leftMiddlePhalanx2HeadFibular-2" data-name="leftMiddlePhalanx2HeadFibular"
      d="M430.24,30.21c.99-.05,2.4-.08,4.09,.02,.35,.02,1.19,.07,2.03,.17,2.63,.32,4.79,.59,5.98,1.79,2.16,2.18,.51,6.8,.39,7.12l-13.09-3.56,.6-5.53Z"
      fill="#c6c6c6" />
    <path id="leftMiddlePhalanx3HeadFibular-2" data-name="leftMiddlePhalanx3HeadFibular"
      d="M495.5,58.91c.2-.41,2.32-4.9,.22-7.61-1.18-1.53-3.26-1.92-4.86-2.23-1.57-.3-2.47-.13-6.45-.56-.49-.05-.89-.1-1.16-.13l-.82,6.19,13.07,4.35Z"
      fill="#c6c6c6" />
    <path id="leftMiddlePhalanx3Shaft-2" data-name="leftMiddlePhalanx3Shaft"
      d="M498.09,80.37c-1.46-2.97-2.23-5.64-2.65-7.61-.5-2.34-1.04-6.13-.49-10.7,.16-1.31,.37-2.39,.54-3.15l-13.07-4.35-13.23,.86c.4,.77,.9,1.84,1.36,3.15,0,0,.32,.91,.55,1.76,.75,2.83-.03,4.56,.07,9.57,0,0,.06,3.31-.81,5.16-.16,.35-.36,.68-.36,.68-.23,.39-.46,.7-.64,.93l14.01,4.25,14.72-.54Z"
      fill="#c6c6c6" />
    <path id="leftMiddlePhalanx3BaseFibular-2" data-name="leftMiddlePhalanx3BaseFibular"
      d="M482.97,85.73c.22,.02,.63,.06,1.15,.1,5.17,.38,8.11-.18,10.48,.76,.43,.17,.86,.4,1.3,.73,.79,.57,1.59,1.37,2.25,1.1,1.09-.45,.72-4.36,.68-4.72-.15-1.42-.48-2.56-.75-3.32l-14.72,.54-.4,4.82Z"
      fill="#c6c6c6" />
    <path id="leftMiddlePhalanx3BaseTibial-2" data-name="leftMiddlePhalanx3BaseTibial"
      d="M469.36,76.67c-1.99,2.04-2.57,3.41-2.76,4.2-.02,.06-.03,.12-.03,.12-.13,.58-.52,2.6,.45,3.35,.79,.61,1.84-.12,3.91-.29,1.64-.14,2.47,.21,4.72,.68,1.72,.36,4.19,.79,7.32,1l.4-4.82-14.01-4.25Z"
      fill="#c6c6c6" />
    <path id="leftMiddlePhalanx3HeadTibial-2" data-name="leftMiddlePhalanx3HeadTibial"
      d="M483.25,48.37c-.53-.1-1.31-.25-2.26-.41,0,0-.99-.17-1.92-.29-4.66-.59-7.01-.87-8.32,.17-2.03,1.62-1.82,5.3-1.79,5.98,.04,.67,.14,1.21,.23,1.59l13.23-.86,.82-6.19Z"
      fill="#c6c6c6" />
    <path id="leftMiddlePhalanx4HeadFibular-2" data-name="leftMiddlePhalanx4HeadFibular"
      d="M536.76,92.71c.21-1.69,.18-4.31-1.7-6.39-.03-.04-.13-.15-.28-.29-1.88-1.85-3.96-1.93-7.58-2.75-.88-.2-2.24-.53-3.92-1.04l-.4,5.68,13.88,4.79Z"
      fill="#c6c6c6" />
    <path id="leftMiddlePhalanx4BaseFibular-2" data-name="leftMiddlePhalanx4BaseFibular"
      d="M523.28,113.3c.22,.03,.54,.07,.92,.13,3.86,.56,5.96,.89,8.24,1.71,2.67,.97,4.16,1.96,4.85,1.33,.02-.02,.04-.04,.06-.06,.67-.96,.03-2.43-.56-4.49-.22-.76-.49-1.84-.7-3.19l-12.6,.44-.2,4.14Z"
      fill="#c6c6c6" />
    <path id="leftMiddlePhalanx4BaseTibial-2" data-name="leftMiddlePhalanx4BaseTibial"
      d="M512.75,106.73c-.05,.38-.16,.94-.43,1.57-.01,.03-.16,.37-.37,.72-1.03,1.72-2.23,1.75-3.03,3.7-.73,1.79-.63,3.87-.08,4.05,.4,.13,.81-.8,1.87-1.73,1.4-1.24,2.92-1.56,4.68-1.94,3.24-.69,6.12-.25,7.89,.19l.2-4.14-10.73-2.43Z"
      fill="#c6c6c6" />
    <path id="leftMiddlePhalanx4Shaft-2" data-name="leftMiddlePhalanx4Shaft"
      d="M508.32,88.67c1.31,2.47,2.18,4.64,2.75,6.26,.89,2.5,1.62,4.61,1.82,7.49,.12,1.8,0,3.3-.14,4.31l10.73,2.43,12.6-.44c-.12-.53-.23-.95-.31-1.23-.33-1.22-.53-1.66-.71-2.66-.03-.18-.08-.46-.12-.84-.01-.13-.11-1.18,.04-2.35,.24-1.84,.85-2.04,1.34-4.37,.3-1.42,.37-2.78,.4-3.23,.03-.53,.03-.99,.03-1.33l-13.88-4.79-14.55,.75Z"
      fill="#c6c6c6" />
    <path id="leftMiddlePhalanx4HeadTibial-2" data-name="leftMiddlePhalanx4HeadTibial"
      d="M523.28,82.24c-1.15-.35-2.85-.76-4.94-.81-2.61-.07-5.59-.15-7.74,1.85-1.86,1.73-2.21,4.18-2.28,5.4l14.55-.75,.4-5.68Z"
      fill="#c6c6c6" />
    <path id="leftDistalPhalanx2TuftTibial-2" data-name="leftDistalPhalanx2TuftTibial"
      d="M419.36,8.16c.32-1.03,1.37-3.9,4.3-6,3.98-2.87,8.37-2.1,9.15-1.95-.54,2.12-1.08,4.23-1.62,6.35-3.94,.54-7.89,1.07-11.83,1.61Z"
      fill="#dadada" />
    <path id="leftDistalPhalanx2Shaft-2" data-name="leftDistalPhalanx2Shaft"
      d="M419.05,20.44c1.77-2.48,1.93-4.26,1.7-5.48-.28-1.47-1.26-2.74-1.4-5.34-.03-.61-.01-1.12,.01-1.45,3.94-.54,7.89-1.07,11.83-1.61l12.89,5.76c-.07,.16-.17,.4-.32,.67-.73,1.33-1.73,2.06-1.91,2.2-.79,.63-1.83,2.51-3.02,7.68l-8.04,1.22c-3.91-1.21-7.82-2.43-11.74-3.64Z"
      fill="#dadada" />
    <path id="leftDistalPhalanx2BaseTibial-2" data-name="leftDistalPhalanx2BaseTibial"
      d="M430.24,28.15c-.45-.07-1.01-.14-1.65-.22-.07,0-.86-.1-1.74-.17-2.49-.2-3.74-.31-4.49-.21-2.48,.31-3.81,1.22-6.39,.88-1.46-.19-1.68-.57-1.74-.69-.4-.8,1.49-2.62,2.91-4.44,.53-.67,1.21-1.63,1.92-2.87,3.91,1.21,7.82,2.43,11.74,3.64l-.54,4.07Z"
      fill="#dadada" />
    <path id="leftDistalPhalanx2BaseFibular-2" data-name="leftDistalPhalanx2BaseFibular"
      d="M438.83,22.86c.35,.43,.83,1.04,1.4,1.79,.6,.8,.91,1.21,1.19,1.68,.68,1.15,1.43,2.42,1,2.98-.39,.51-1.51,.07-3.58-.31-1.77-.33-1.17-.04-5.55-.49-1.01-.1-1.77-.2-2.12-.24-.37-.05-.68-.09-.91-.12l.54-4.07,8.04-1.22Z"
      fill="#dadada" />
    <path id="leftDistalPhalanx2TuftFibular-2" data-name="leftDistalPhalanx2TuftFibular"
      d="M432.81,.2c.54,.07,1.22,.19,2,.39,0,0,.38,.1,.74,.21,5.84,1.77,7.78,5.67,7.78,5.67,1.07,2.15,1,4.34,.75,5.84l-12.89-5.76c.54-2.12,1.08-4.23,1.62-6.35Z"
      fill="#dadada" />
    <path id="leftDistalPhalanx3TuftTibial-2" data-name="leftDistalPhalanx3TuftTibial"
      d="M473.93,27.01c.37-3.22,1.55-5.01,2.32-5.93,.14-.16,.26-.29,.32-.36,.74-.79,2.41-2.3,5.01-2.78,.56-.1,1.06-.13,1.14-.14,.67-.04,1.24,.01,1.66,.07l-.81,6.35-9.65,2.8Z"
      fill="#dadada" />
    <path id="leftDistalPhalanx3Shaft-2" data-name="leftDistalPhalanx3Shaft"
      d="M474.1,39.48c.43-1.07,.93-2.73,.96-4.79,0-.19,0-.84-.15-2.26-.15-1.33-.43-3.19-.98-5.42l9.65-2.8,8.22,5.6c-.15,.35-.32,.81-.47,1.37-.04,.17-.26,1.08-.27,2.19,0,.67,0,2.51,1.01,4.32,.48,.86,.67,.77,2.76,3.51,.26,.34,.47,.62,.61,.81l-11.46,.54-9.88-3.08Z"
      fill="#dadada" />
    <path id="leftDistalPhalanx3BaseTibial-2" data-name="leftDistalPhalanx3BaseTibial"
      d="M483.66,46.52c-1.89-.16-3.39-.47-4.43-.72-1.83-.45-3.55-.95-5.52-.67-.28,.04-.55,.11-.84,.2-1.51,.5-2.54,1.43-3.15,.99-.47-.34-.34-1.52-.17-2.18,.67-2.66,3.4-4.12,4.56-4.65l9.88,3.08-.32,3.96Z"
      fill="#dadada" />
    <path id="leftDistalPhalanx3BaseFibular-2" data-name="leftDistalPhalanx3BaseFibular"
      d="M495.44,42.01c.21,.18,.46,.43,.72,.74,0,0,.47,.57,.82,1.25,1.02,1.98,1.38,4.63,.44,5.27-.78,.53-1.86-.77-4.73-1.68-.45-.14-.81-.23-1.16-.29-2.06-.36-3.1-.27-5.27-.45-.59-.05-1.49-.14-2.6-.34l.32-3.96,11.46-.54Z"
      fill="#dadada" />
    <path id="leftDistalPhalanx3TuftFibular-2" data-name="leftDistalPhalanx3TuftFibular"
      d="M484.38,17.87c1.95,.32,3.32,1.06,4.1,1.57,2.5,1.63,4.14,4.26,4.32,6.33,.06,.66-.02,1.31-.02,1.31-.15,1.27-.66,2.21-.99,2.74l-8.22-5.6,.81-6.35Z"
      fill="#dadada" />
    <path id="leftDistalPhalanx4TuftTibial-2" data-name="leftDistalPhalanx4TuftTibial"
      d="M509.59,64.5c-.15-.66-.31-1.77-.06-3.07,.52-2.66,2.37-4.17,2.93-4.62,2.35-1.86,4.96-1.85,5.69-1.81l.61,5.82-9.17,3.68Z"
      fill="#dadada" />
    <path id="leftDistalPhalanx4Shaft-2" data-name="leftDistalPhalanx4Shaft"
      d="M510.32,72.74c.11-.1,.24-.25,.37-.44,.06-.09,.19-.31,.3-.62,.08-.23,.11-.42,.12-.62,.04-.91-.8-3.39-1.12-4.52-.13-.47-.3-1.16-.4-2.03l9.17-3.68,10.01,3.73c-.12,1.55-.02,2.83,.1,3.76,.17,1.28,.28,2.12,.74,3.17,.11,.26,.31,.66,1.89,2.97,.48,.7,.88,1.28,1.17,1.68l-8.99,.54-13.36-3.93Z"
      fill="#dadada" />
    <path id="leftDistalPhalanx4BaseTibial-2" data-name="leftDistalPhalanx4BaseTibial"
      d="M523.28,79.85c-.65-.15-1.47-.32-2.44-.45,0,0-.94-.12-1.86-.17-2.93-.16-4.72-.26-6.74,.67-2.54,1.18-3.5,3.1-4.39,2.68-.88-.42-.67-2.71-.55-4.02,.08-.91,.19-2.07,.83-3.36,.31-.62,.66-1.05,.77-1.18,.5-.61,1.02-1.03,1.41-1.29l13.36,3.93-.4,3.18Z"
      fill="#dadada" />
    <path id="leftDistalPhalanx4BaseFibular-2" data-name="leftDistalPhalanx4BaseFibular"
      d="M532.67,76.13c.31,.4,.75,.98,1.24,1.7,1.78,2.67,3.75,6.69,2.97,7.3-.42,.33-1.36-.67-3.8-1.96-2.11-1.11-3.98-1.64-6.29-2.35-1.42-.44-2.62-.75-3.51-.96l.4-3.18,8.99-.54Z"
      fill="#dadada" />
    <path id="leftDistalPhalanx4TuftFibular-2" data-name="leftDistalPhalanx4TuftFibular"
      d="M518.16,55.01c1.92,.02,3.33,.52,4.13,.87,4.63,2.03,6.04,6.81,6.21,7.4,.15,.54,.23,.98,.28,1.27l-10.01-3.73-.61-5.82Z"
      fill="#dadada" />
    <path id="leftMiddlePhalanx5HeadTibial-2" data-name="leftMiddlePhalanx5HeadTibial"
      d="M550.73,149.16c-.19-.57-.47-1.74,0-2.97,.14-.37,.3-.64,.36-.72,1.26-1.8,3.82-2.07,6.34-2.33,.72-.07,1.3-.08,1.69-.08,1.73,0,3.15,.22,4.13,.44l-.19,3.96-12.33,1.7Z"
      fill="#c6c6c6" />
    <path id="leftMiddlePhalanx5Shaft-2" data-name="leftMiddlePhalanx5Shaft"
      d="M549.82,156.43c.29-1.44,.54-3,.72-4.69,.09-.89,.15-1.75,.19-2.58l12.33-1.7,14.05,2.09c-.18,.95-.22,1.78-.21,2.41,0,.89,.11,1.59,.17,1.92,.08,.46,.17,.84,.25,1.14-4.64,.78-9.28,1.56-13.92,2.34l-13.57-.94Z"
      fill="#c6c6c6" />
    <path id="leftMiddlePhalanx5BaseTibial-2" data-name="leftMiddlePhalanx5BaseTibial"
      d="M563.38,161.7c-.74,.04-1.32-.03-1.72-.09-.9-.15-1-.31-2-.47-.43-.07-.94-.11-1.64-.08-.83,.03-.85,.12-5.29,.62-1.43,.16-2.16,.23-2.69-.24-.59-.52-.53-1.49-.45-3.11,.04-.81,.14-1.47,.22-1.91l13.57,.94v4.34Z"
      fill="#c6c6c6" />
    <path id="leftMiddlePhalanx5BaseFibular-2" data-name="leftMiddlePhalanx5BaseFibular"
      d="M577.31,155.02c.07,.26,.14,.58,.18,.96,0,0,.04,.41,.03,.82-.02,.93-.05,2.56-1,3.16-.92,.58-1.71-.45-3.75-.51-.34-.01-.61,0-.87,.05-1.85,.33-3.12,.95-3.94,1.33-.98,.45-2.45,.91-4.59,.86v-4.34c4.65-.78,9.29-1.56,13.93-2.34Z"
      fill="#c6c6c6" />
    <path id="leftMiddlePhalanx5HeadFibular-2" data-name="leftMiddlePhalanx5HeadFibular"
      d="M563.25,143.49c.73,.08,1.33,.11,1.72,.12,2.25,.09,6.08-.03,7.11,.26,.36,.1,.72,.25,1.13,.46,.05,.03,.12,.07,.22,.12,2.98,1.69,3.55,4.18,3.55,4.18,.05,.2,.11,.51,.13,.91l-14.05-2.09,.19-3.96Z"
      fill="#c6c6c6" />
    <path id="leftDistalPhalanx5TuftTibial-2" data-name="leftDistalPhalanx5TuftTibial"
      d="M554.46,123.79c-.19-.76-.57-2.77,.39-4.88,1.7-3.73,5.98-4.31,6.15-4.33,.5-.06,.91-.05,1.21-.04l-.38,5.88-7.38,3.37Z"
      fill="#dadada" />
    <path id="leftDistalPhalanx5Shaft-2" data-name="leftDistalPhalanx5Shaft"
      d="M554.38,133.92c.16-.13,1.09-.94,1.49-1.91,.19-.45,.26-.9,.26-.9,.05-.28,.06-.53,.04-.76-.07-1.12-.92-3.22-.95-3.29-.3-.73-.65-1.81-.76-3.27l7.38-3.37,7.52,3.37c.02,1.23-.1,2.2-.21,2.87-.14,.82-.57,2.91-.41,4.1,.05,.39,.17,.75,.17,.75,.05,.14,.19,.57,.49,1.05,.42,.67,.93,1.1,1.3,1.37l-6.9,2.95-9.41-2.95Z"
      fill="#dadada" />
    <path id="leftDistalPhalanx5BaseTibial-2" data-name="leftDistalPhalanx5BaseTibial"
      d="M563.57,141.66c-.58-.09-1.35-.2-2.27-.28-1.76-.14-1.52,.04-3.71-.07-1.09-.05-2.13-.14-3.46,.27h0c-2.08,.64-2.71,1.32-3.15,.99-.85-.63,.1-4.03,1.85-6.7,.24-.36,.51-.72,.51-.72,.4-.52,.77-.94,1.05-1.24l9.41,2.95-.23,4.79Z"
      fill="#dadada" />
    <path id="leftDistalPhalanx5BaseFibular-2" data-name="leftDistalPhalanx5BaseFibular"
      d="M570.7,133.92c.49,.37,1.11,.89,1.76,1.59,0,0,.56,.61,1.04,1.27,1.76,2.46,2.85,5.68,2.06,6.32-.47,.38-1.25-.46-3.15-1.09-.42-.14-.99-.28-1.71-.37-1.44-.19-2.28,.03-3.59,.13-.84,.06-2.05,.09-3.55-.11l.23-4.79,6.9-2.95Z"
      fill="#dadada" />
    <path id="leftDistalPhalanx5TuftFibular-2" data-name="leftDistalPhalanx5TuftFibular"
      d="M562.22,114.54c.29,.01,4.4,.27,6.4,3.77,1.39,2.43,.89,4.87,.74,5.48l-7.52-3.37,.38-5.88Z" fill="#dadada" />
    <path
      d="M351.37,536.74c1.67-2.05,6.24-7.06,12.93-7.53,7.7-.55,13.86,5.23,17.64,8.76,3.91,3.66,3.49,4.77,6.57,7.43,4.59,3.97,10.01,5.37,20.01,6.44,16.53,1.77,21.78,.42,32,1.36,6.13,.56,15.34,2.02,26.52,6.29"
      fill="none" stroke="#706f6f" stroke-linecap="round" stroke-miterlimit="10" />
    <path d="M354.26,590.41c-.15,7.5-.36,13.87-.55,18.72-.27,6.7-.52,12.8-1.1,20.84-.43,5.92-.9,10.84-1.25,14.33"
      fill="none" stroke="#706f6f" stroke-linecap="round" stroke-miterlimit="10" />
    <path
      d="M381.46,663.17c4.58-.22,9.78-.21,15.5,.27,12.1,1.03,15.55,3.25,22.95,1.65,2.42-.52,5.99-2.25,13.13-5.71,4.73-2.29,9.27-4.5,14.78-8.09,3.34-2.17,7.32-5.03,11.59-8.73"
      fill="none" stroke="#706f6f" stroke-linecap="round" stroke-miterlimit="10" />
  </g>
  <g>
    <path
      d="M228.52,536.74c-1.67-2.05-6.24-7.06-12.93-7.53-7.7-.55-13.86,5.23-17.64,8.76-3.91,3.66-3.49,4.77-6.57,7.43-4.59,3.97-10.01,5.37-20.01,6.44-16.53,1.77-21.78,.42-32,1.36-6.13,.56-15.34,2.02-26.52,6.29"
      fill="none" stroke="#706f6f" stroke-linecap="round" stroke-miterlimit="10" />
    <path d="M225.63,590.41c.15,7.5,.36,13.87,.55,18.72,.27,6.7,.52,12.8,1.1,20.84,.43,5.92,.9,10.84,1.25,14.33"
      fill="none" stroke="#706f6f" stroke-linecap="round" stroke-miterlimit="10" />
    <path
      d="M198.43,663.17c-4.58-.22-9.78-.21-15.5,.27-12.1,1.03-15.55,3.25-22.95,1.65-2.42-.52-5.99-2.25-13.13-5.71-4.73-2.29-9.27-4.5-14.78-8.09-3.34-2.17-7.32-5.03-11.59-8.73"
      fill="none" stroke="#706f6f" stroke-linecap="round" stroke-miterlimit="10" />
  </g>
</svg>