<?xml version="1.0" encoding="UTF-8"?>
<svg xmlns="http://www.w3.org/2000/svg" viewBox="0 0 598.79 766.92">
  <g>
    <path id="rightTalus"
      d="M363.97,510.47c3.43-4.6,7.64-8.9,13.43-13.26,6.53-4.92,12.92-9.79,22.35-12.12,8.92-2.2,15.85-1.11,25.59,.43,8.28,1.31,19.01,3.12,30.11,10.57,4.44,2.98,9.01,4.56,10.41,8.85,.82,2.49,.07,3.73-.52,10.06-.39,4.21-.87,9.38-.18,14.42,.26,1.9,1.25,8.51,5.58,14.56,4.02,5.61,6.48,4.55,14.52,11.38,5.99,5.09,11.61,9.86,13.63,17.43,1.4,5.26-.41,6.31,1.44,12.4,1.89,6.18,4.18,6.46,6.81,12.87,1.27,3.1,4.33,10.52,2.11,17.15-1.73,5.15-5.7,7.01-11.45,11.27-3.58,2.65-10.07,9.76-23.03,23.97-16.73,18.34-19.98,22.07-19.98,22.07-8.5,9.77-11.12,13.28-16.39,14.09-6.39,.97-12.27-2.73-18.54-6.68-6.96-4.38-6.72-6.36-14.52-11.38-4.19-2.69-5.36-2.83-14.51-7.41-11.06-5.53-16.58-8.29-18.26-9.9-10.75-10.31-9.79-27.36-9.64-30.08,.23-4.11,1.34-8.05,3.56-15.93,4.16-14.79,6.4-15.41,7.86-23.86,1.61-9.31,.31-16.69-1.09-24.64-1.95-11.05-2.93-16.57-7.46-21.95-4.01-4.75-7.29-5.23-8.2-9.38-1.07-4.86,2.25-9.45,6.36-14.96Z"
      fill="#878787" />
    <path id="rightCalcaneus"
      d="M394.79,665.56c-1.98,3.85-4.21,9.21-5.36,15.86-.51,2.95-.54,4.33-.55,18.72-.01,14.23-.08,15.08,.64,17.38,1.58,5,3.22,5.08,9.17,14.88,5.73,9.44,4.8,10.33,7.8,14.04,2.55,3.15,5.62,5.46,21.36,11.61,16.93,6.62,25.53,9.9,32.09,8.58,1.7-.34,10.19-2.21,16.34-9.4,5.23-6.1,5.69-12.44,7.28-21.38,1.47-8.26,4.32-17.48,10-35.94,5.93-19.25,8.9-28.88,13.68-36.7,5.21-8.52,9.2-11.97,10.06-20.05,.91-8.55-2.78-12.01-.13-19.14,2.47-6.66,6.44-5.67,10.21-13.54,.9-1.88,4.58-9.57,2.67-18.17-1.47-6.61-4.96-8.04-4.28-13.01,.58-4.2,3.24-4.41,5.92-9.95,2.58-5.33,2.52-10.5,2.58-17.1,.05-6.28-.81-5.99-.34-10.5,.67-6.41,2.72-9.84,1-11.46-1.08-1.02-2.56-.29-6.12-.17-3.13,.1-5.65-.48-10.68-1.66-6.79-1.58-6.8-2.51-14.05-4.48-7.17-1.94-6.97-.97-12.04-2.68-5.89-1.98-7.08-3.61-12.86-5.64-4.51-1.58-8.39-2.2-10.88-2.49-.64,2.28-1.39,5.78-1.33,10.08,.03,2.43,.16,12.71,7.11,20.83,.81,.95,.29,.21,12,9.26,6.66,5.15,8.66,6.81,10.78,9.88,2.9,4.2,4.07,8.23,4.47,9.77,1.5,5.8-.2,6.41,1.1,11.1,1.64,5.92,4.61,5.91,7.74,13.58,.96,2.35,2.12,5.26,2.35,9.23,.12,2.11,.49,8.37-3.27,13.61-2.36,3.29-4.02,2.93-9.89,7.8-.71,.59-2.53,2.13-8,7.87-5.4,5.68-7.69,8.52-13.59,15.05-8.32,9.22-7.84,8.43-12.78,14.04-4.02,4.57-8.12,9.08-12.03,13.75-5.28,6.29-7.02,8.74-10.89,9.97-3.94,1.25-7.51,.42-10.53-.29-5.41-1.26-9.05-3.77-13.3-6.76-5.87-4.12-6.55-5.9-11.96-9.8-4.57-3.3-8.73-5.37-11.51-6.6Z"
      fill="#878787" />
    <path id="rightNavicular"
      d="M360.96,439.64c-3.78,3.52-6.34,7.54-11.47,15.6-4.29,6.74-6.45,10.19-7.41,14.51-.5,2.25-1.78,8.45,.8,15.59,.58,1.62,3.81,10.55,12.81,14.47,1.88,.82,3.6,1.57,6,1.61,7.55,.12,9.77-7.09,21.47-14.36,2.63-1.64,7.12-4.38,13.52-6.04,6.13-1.59,10.88-1.36,17.77-.97,6.18,.35,13.96,.78,23.84,3.89,12.19,3.83,20.17,9.4,21.81,10.57,3.94,2.8,6.96,5.55,9.08,7.65,.94-1.79,2.39-4.67,3.98-8.31,2.84-6.54,2.54-7.33,4.58-11.15,2.93-5.47,4.53-5.68,5.53-9.62,.33-1.31,1.2-4.7,0-8.3-1.54-4.64-4.75-4.39-9.57-10.22-4.58-5.54-3.32-7.74-7.36-10.75-2-1.48-2.88-1.37-10.14-3.77-4-1.32-7.93-2.86-11.9-4.29-13.81-4.98-14.52-5.33-15.71-6.07-2.49-1.54-4.3-3.05-7.92-4.3-1.35-.47-3.87-1.32-7.1-1.34-3.4-.02-5.09,.89-8.46,1.79-4.12,1.09-4.9,.6-12.76,1.41-7.04,.73-10.55,1.09-13.89,2.03-8.96,2.53-14.85,7.91-17.51,10.38Z"
      fill="#878787" />
    <path id="rightCuboid"
      d="M469.21,510.11c-.62-1.23,.59-2.51,4.52-10.43,.37-.74,.91-1.82,1.5-3.32,.94-2.4,1.14-3.8,3.57-9.23,1.84-4.13,3.32-7.4,6.05-11.38,1.35-1.96,3.41-4.93,6.84-8.06,3.26-2.97,4.29-2.93,6.95-5.17,4.28-3.6,3.58-5.38,9.1-13.28,5.59-8,8.09-8.73,8.35-12.98,.16-2.55-.51-6.01-1.04-8.75-.51-2.64-1.06-4.53-.81-7.29,.19-1.98,.71-3.57,1.12-4.59,2.43-.41,6.11-.76,10.48-.17,2.76,.38,11.25,1.66,18.39,8.47,6.18,5.89,8.12,12.86,9.6,18.16,.37,1.32,.97,5.04,2.16,12.46,1.2,7.49,1.4,9.76,1.05,12.72-.42,3.55-.78,6.62-3,9.48-2.87,3.71-5.95,3.32-7.46,6.93-.52,1.23-.43,3.12-.24,6.84,.35,6.8,1.05,7.14,.88,10.54-.08,1.72-.37,6.09-3.06,10.2-2.56,3.91-4.44,3.18-6,6.69-1.63,3.69-.36,6.31-2.51,8.08-.27,.22-1.07,.81-4.42,1.06-2.96,.22-5.73,0-9.33-.64-5.23-.93-9.06-2.21-9.89-2.49-4.65-1.57-4.4-2.07-7.94-3.04-4.01-1.1-4.69-.56-8.97-1.69-2.63-.69-4.4-1.43-7.52-2.73-6.76-2.82-6.64-3.64-10.25-4.6-5.08-1.35-7.38-.27-8.14-1.8Z"
      fill="#878787" />
    <path id="rightLateralCuneiform"
      d="M467.42,439.84c.89,.88,2.15,2.24,3.43,4.09,2.5,3.62,2.19,4.97,3.92,7.83,3.13,5.18,6.03,3.87,9.22,9.11,2.13,3.49,1.99,5.97,3.69,6.28,1.08,.2,1.87-.66,5.58-3.93,4.92-4.34,4.53-3.72,5.37-4.67,2.79-3.15,1.85-4.05,5.14-9.29,1.03-1.64,2.6-3.69,5.74-7.8,3.04-3.98,3-3.73,3.27-4.32,1.97-4.35-1.02-6.91-1.06-13.63-.03-4.83,1.47-8.71,3-12.64,.79-2.03,1.09-2.39,4.15-9.29,2.88-6.51,3.06-7.2,2.79-8.15-.86-2.98-4.55-2.62-12.75-6.89-5.73-2.99-6.29-4.34-11.35-6.41-3.74-1.52-7.01-2.24-9.16-2.61-.44,1.18-1.47,3.44-3.73,5.45-1.87,1.67-3.79,2.45-4.94,2.82,.39,2.15,.85,5.3,1.01,9.11,.14,3.55-.02,6.64-.9,14.36-1.04,9.19-1.56,13.79-2.06,15.34-1.15,3.56-3.74,9.31-10.36,15.25Z"
      fill="#878787" />
    <path id="rightIntermediateCuneiform"
      d="M439.99,371.75c-2.08,1.04-2.84,2.89-4.3,5.85-.02,.04-2.79,4.62-8.07,13.91-4.91,8.63-5.81,7.38-7.86,12.49-.74,1.84-4.85,12.57-.49,16.92,.6,.6,.58,.3,4.5,2.2,4.25,2.06,5.07,2.81,8.97,4.75,2.45,1.22,4.21,1.97,6.94,3.13,4.08,1.73,7.11,3.02,10.82,4.2,7.5,2.37,11.25,3.56,14.62,2,2.67-1.23,4.04-3.47,6-6.69,.99-1.62,2.81-4.94,4.26-11.54,.48-2.2,.55-3.05,1.54-17.55,.41-5.97,.62-9.52-.57-14.13-.93-3.63-2.04-5.19-2.72-6.01-1.08-1.3-2.67-2.62-8.97-4.75-5.02-1.7-5.63-1.48-15.18-3.85-5.59-1.39-7.4-1.97-9.48-.92Z"
      fill="#878787" />
    <path id="rightMedialCuneiform"
      d="M371.33,358.26c.87-1.28,1.94-2.14,10.95-5.54,10.1-3.82,10.89-3.55,16.03-5.82,6.05-2.67,6.3-3.63,12.06-5.8,6.29-2.37,9.51-3.51,12.46-2.16,5.04,2.3,6.43,9.94,6.68,11.32,.5,2.73-.04,3.2,.71,7.37,.44,2.45,.8,4.93,2.21,7.77,1.33,2.7,2.17,3.11,2.46,4.91,.39,2.42-.75,4.38-2.43,7.19-5.27,8.77-7.56,12.15-7.56,12.15-4.1,5.12-5.53,8.15-6.25,9.56-2.23,4.34-3.94,7.68-4.52,12.42-.52,4.26,.31,6.13-1.35,8.18-.38,.47-1.6,1.82-7.01,2.82-5.01,.92-7.26,.42-13.41,.63-3.75,.13-6.21,.22-9.47,.98-6.27,1.46-11.64,4.71-12.74,5.38-3.96,2.4-5.47,4.1-6.44,3.5-1.25-.78,.03-4.37,.87-8.95,.65-3.52,.31-3.68,.58-15.92,.29-12.99,.39-19.5,1.35-23.7,1.45-6.33,2.63-6.97,3.28-12.71,.84-7.48-.74-10.2,1.55-13.58Z"
      fill="#878787" />
    <path id="rightMetatarsal1"
      d="M369.38,353.76c2.14,.83,3.97-.48,8.54-2.68,9.42-4.55,8.55-2.29,19.77-7.29,8.57-3.82,10.42-5.73,16.85-7.01,3.99-.79,7.27-1.39,10.45,.19,6.42,3.2,6.98,12.88,7.05,14.33,.21-1.54,.71-3.76,1.98-6.14,.8-1.5,1.69-2.69,2.48-3.57-1.06-2.25-2.55-5.47-4.23-9.39-3.87-8.99-6.36-15.98-9.39-24.64-5.57-15.89-8.36-23.84-8.65-24.94-3.37-13.02-4-23.47-4.92-38.69-.6-9.94-.91-15.14-.53-22.78,.31-6.33,1.42-17.77,3.47-31.46,1.35-9,2.34-13.71-.1-19.5-.7-1.66-3.09-6.72-8.5-10.13-3.25-2.04-7.12-2.52-14.86-3.47-9.6-1.18-15.77-.76-18.36-.52-5.42,.49-7.99,1.31-9.17,1.72-2.49,.87-6.31,2.22-9.52,5.66-.75,.8-3.56,3.97-4.85,10.04-1.93,9.08,1.16,17.01,2.51,20.79,4,11.23,4.11,23.48,6.3,35.2,2.88,15.38,4.26,27.54,7.01,51.86,2.65,23.42,3.95,35.25,2.52,41.37-.19,.8-1.81,7.63-1.08,16.51,.38,4.67,.96,12.88,5.23,14.53Z"
      fill="#9d9d9c" />
    <path id="rightSesamoideum"
      d="M413.64,192.33c-.75,4.56-1.14,7.98-1.57,11.77-.39,3.44-.85,7.94-1.25,13.24,1.8-.2,4.73-.81,7.21-2.98,4.17-3.65,4.26-9.28,4.35-14.69,.07-3.89,.08-7.94-2.57-11.86-1.47-2.18-3.25-3.56-4.49-4.36-.47,2.19-1.08,5.23-1.68,8.88Z"
      fill="#9d9d9c" />
    <path id="rightMetatarsal2"
      d="M437.78,343.32c-1.22,2.52-2.12,3.39-3.1,6.59-1.71,5.53-.68,10.86-.68,10.86,.58,2.9,1.21,6.03,3.68,7.45,1.53,.88,2.61,.44,5.46,.48,3.31,.05,3.07,.66,11.17,2.33,6.01,1.24,7,1.08,10.45,2.27,1.76,.61,3.69,1.27,5.91,2.59,2.04,1.22,5.09,3.46,7.83,7.45,1.71-.92,4.8-2.91,6.89-6.62,1.89-3.36,2.03-6.47,2.14-10.01,.18-5.79-1.06-10.41-1.92-13.07-2.32-7.1-5.51-10.9-8.07-14.96-4.09-6.48-5.6-12.69-8.63-25.12-2.43-9.99-1.65-16.26-4.99-41.94-2.57-19.75-3.12-35.91-3.06-47.55,.08-16.38,.12-24.57,2.85-32.59,.72-2.12,2.99-6.82,3.34-13.42,.17-3.13-.24-3.47-.52-10.51-.38-9.56,.32-10.1-.73-12.33-2.55-5.47-9.17-7.4-12.27-8.29-1.33-.38-7.42-2.03-14.81,.15-3.41,1-9.27,2.73-12.25,7.95-1.44,2.52-1.54,5.6-1.75,11.76-.14,4.12-.27,7.86,.73,12.33,1.21,5.47,3.16,7.82,5.09,11.99,2.28,4.95,3.13,9.43,4.01,20.2,1.42,17.42,1.39,32.46,1.75,45.99,.39,14.61,.67,24.96,1.99,39.15,1,10.82,.27,21.75,1.12,32.58,.34,4.26,.86,9.18-1.61,14.3Z"
      fill="#9d9d9c" />
    <path id="rightMetatarsal3"
      d="M489.1,165.18c-2.01,.44-4.87,1.04-7.51,3.31-3.07,2.65-3.97,5.93-5.3,11.09-1.11,4.28-2.38,9.23-1.35,15.4,1.04,6.18,3.14,6.04,4.34,12.29,.94,4.88,.22,7.32-.66,15.82-.1,.97-.32,6.28-.76,16.9-.41,9.92-.32,18.18-.11,34.28,.25,18.83,.55,20.66,.64,33.98,.07,11.87-.11,21.53-.26,27.77,1.83,2.02,4.05,4.83,6.12,8.48,2.73,4.83,3.93,8.95,4.32,10.39,1.47,5.39,1.55,9.72,1.54,11.23,0,3.53-.47,6.49-.94,8.67,2.39,.46,6.08,1.36,10.27,3.24,3.75,1.69,5.43,3.05,12.39,6.86,7.34,4.02,9.46,4.69,10.95,3.76,.29-.18,1.15-.8,2.05-4.87,.78-3.57,1.19-6.81,.85-9.67-1.22-10.13-3.01-15.06-3.01-15.06-4.33-11.91-8.41-16.92-11.61-24.11-1.42-3.2-2.26-5.91-4.82-39.76-1.94-25.61-1.28-21.7-2.12-29.42-.07-.69-1.79-16.55-3.05-35.28-.44-6.61-.83-13.82,3.25-20.65,1.92-3.2,3.93-3.61,5.7-7.44,2-4.33,.81-5.97,2-14.62,1.15-8.34,2.61-9.39,1.45-12.51-1.62-4.37-6.01-6.51-9.4-8.04-2.52-1.14-8.09-3.56-14.98-2.03Z"
      fill="#9d9d9c" />
    <path id="rightMetatarsal4"
      d="M526.99,385.95c-.71,2.99-1.88,6.16-2.84,8.77-.42,1.14-1.04,2.77-3.33,8.19-1.04,2.45-2.45,5.77-4.19,9.74,1.96-.21,4.59-.34,7.67-.05,2.29,.22,8.28,.88,14.08,4.12,8.18,4.57,10.13,11.4,12.8,10.5,1.26-.43,1.27-2.1,2.87-8.05,2.3-8.55,3.14-8.32,3.54-11.6,.27-2.25,.26-5.5-4.03-15.87-4.2-10.18-5.69-10.68-7.93-16.57-2.73-7.17-2.99-12.87-3.37-23.39-.47-12.99,.53-22.8,.82-25.91,2.04-21.74-.7-41.09-1.47-49.21-.71-7.5-2.02-18.62-.54-30.91,.96-7.96,1.63-13.02,5.48-17.21,1.67-1.82,3.86-3.4,4.92-6.79,1.22-3.9,.23-7.91,.04-8.66-.75-2.89-1.75-3.46-2.3-6.7-.52-3.04,.23-3.26-.28-5.08-1.07-3.8-5.19-5.78-9.08-7.65-2.78-1.34-5.08-2.44-8.44-2.54-4.66-.14-8.06,1.76-9.24,2.44-4.7,2.71-6.8,6.74-8.01,9.04-.56,1.08-3.18,6.28-2.98,13.45,.05,1.97,.31,3.51,2.28,11.03,1.88,7.14,3.41,12.44,3.56,12.94,2.19,7.62,1.35,12,1.26,26.82-.12,19.53,1.31,17.15,.79,32.19-.36,10.33-1.33,20.11-1.9,25.82-.56,5.68-1.14,10.45-1.58,13.94,1.97,3.46,4.57,8.43,7.02,14.69,1.77,4.52,3.24,8.33,4.21,13.72,.77,4.27,2.02,10.97,.16,18.78Z"
      fill="#9d9d9c" />
    <path id="rightMetatarsal5"
      d="M555.54,421.66c-.83,2.9-1.22,3.99-1.71,5.08-.76,1.72-1.57,3.07-2.15,3.96,.88,1.73,2.08,4.35,3.12,7.67,.47,1.51,.93,3.22,2.4,11.76,.91,5.3,1.37,8,1.61,10.43,.71,7.18,.14,9.98-.04,10.82-.41,1.86-1.29,5.09-4.11,7.76-1.13,1.08-2.26,1.75-3.08,2.17,.54,1.2,1.84,3.66,4.57,5.54,.59,.41,4.61,3.14,8.83,2.22,1.25-.27,4.59-1.31,8.97-9.68,5.72-10.94,6.26-21.09,6.34-22.91,.12-2.87,.12-7.72-2.82-21.36-3.69-17.14-5.96-17.25-7.48-27.9-.56-3.91-.28-12.03,.3-28.13,.31-8.62,.59-16.26,1.26-26.78,.52-8.14,.49-5.75,2.2-27.24,.83-10.4,3.05-20.68,3.44-31.1,.16-4.23,.19-8.92,3.32-13.24,2.93-4.04,5.5-3.53,8.63-7.91,2.72-3.79,3.25-7.61,4.07-13.54,.8-5.79,1.29-9.26-.06-13.72-.52-1.72-2.55-8.1-8.7-11.95-2.54-1.59-4.85-2.16-6.45-2.55-1.92-.46-6.73-1.55-12.47,.17-5.39,1.62-8.64,4.83-10.12,6.33-.94,.95-4.76,4.97-6.6,11.51-.87,3.09-1.65,5.86-.8,9.13,1.04,4,3.4,4.51,5.19,8.76,.49,1.16,1.25,3.36,1.11,10.02-.12,5.66-.79,9.46-1.99,16.61-2.03,12.1-2.05,11.75-3.05,18.32-.52,3.41-1.12,6.82-1.62,10.24-.46,3.15-.89,6.34-2.1,10.55-.38,1.33-.74,2.42-1,3.16-.48,5.59-.55,10.34-.5,13.94,.08,5.07,.17,9.96,1.37,16.27,.62,3.25,1.1,5.79,2.36,9.14,1.65,4.4,2.84,5.39,6.21,12.54,1.56,3.3,2.34,4.95,3.22,7.5,1.75,5.01,2.98,8.68,2.2,13.01-.34,1.92-.62,1.4-2,6.32-.7,2.52-.89,3.59-1.88,7.05Z"
      fill="#9d9d9c" />
    <path id="rightProximalPhalanx1"
      d="M343.5,158.58c-.71-2.93-.29-5.47,.07-7.03,1.13-4.83,3.43-7.6,5.45-10.71,2.9-4.48,4.16-8.06,6.53-14.77,1.33-3.78,3.3-10.21,4.32-18.39,1.04-8.37,1.56-12.56,.2-16.77-1.73-5.38-4.55-7.22-4.01-11.9,.5-4.38,3.48-7.2,3.91-7.6,1.28-1.17,3.32-2.53,7.69-3.3,5.3-.93,8.31,.02,15.43,.99,1.88,.26,7.28,.76,18.07,1.76,7.27,.68,10.31,.9,12.69,3.46,2.36,2.54,2.69,5.9,2.81,7.1,.32,3.25-.59,5.67-2.75,10.77-4.11,9.73-4.38,9.35-5.41,12.34-1.69,4.91-1.9,8.68-2.32,16.22-.46,8.23-.69,12.34,.53,16.65,2.51,8.89,4.75,13.77,4.75,13.77,.16,.35,1.06,2.29,1.37,4.99,.24,2.09,.29,5.91-1.1,6.4-.92,.32-1.88-1.01-3.57-2.48-3.49-3.02-7.16-4.05-10.92-5.11-2.13-.6-4.93-.83-10.54-1.28-3.25-.26-5.52-.35-10.06-.52-5.04-.19-7.59-.28-9.02-.07-3.56,.53-6.07,1.67-9.67,3.3-3.71,1.68-5.57,2.53-7.23,4.24-1.99,2.05-2.37,3.68-3.57,3.66-1.81-.04-3.17-3.76-3.65-5.73Z"
      fill="#b2b2b2" />
    <path id="rightProximalPhalanx2"
      d="M425.31,145.52c1.09-3.28,2.26-3.72,5.84-9.05,2.48-3.69,4.58-6.85,6.03-11.2,.59-1.76,.93-3.86,1.6-7.98,.87-5.37,1.59-9.84,1.93-15.89,.37-6.58,.55-9.86-.13-13-.44-2.04-.73-2.33-3.64-12.05-1.27-4.23-1.76-6-.92-8.02,1.36-3.29,5.1-4.47,5.45-4.58,1.39-.42,2.07-.24,7.02,.25,4.06,.4,6.1,.6,7.52,.66,5.87,.23,7.16-.65,8.79,.59,1.8,1.37,2.07,3.84,2.32,6.52,.46,4.88-.63,8.64-1.09,10.37-.26,.97,.08-.18-1.88,17.34-1.28,11.44-1.68,14.29-1.93,20.04-.35,8.01,.08,10.49,.55,12.32,1.19,4.69,2.66,5.56,4.09,11.01,1.54,5.85,1.62,11.6,.77,11.8-.52,.12-.9-1.96-2.86-4.4-2.73-3.41-6.31-4.75-8.01-5.39-3.98-1.5-7.26-1.36-11.45-1.18-3.27,.14-5.95,.25-9.34,1.53-1.9,.72-5.23,1.97-8.02,5.07-1.92,2.13-2.44,3.87-3.03,3.7-.88-.25-.93-4.51,.38-8.45Z"
      fill="#b2b2b2" />
    <path id="rightProximalPhalanx3"
      d="M477.56,163c1.36-3.94,3.03-5.25,5.74-9.96,2.06-3.56,3.22-6.5,3.52-7.27,2.14-5.5,2.71-10.11,3.27-14.69,.5-4.09,.58-7.15,.62-9.15,.11-4.94,.16-7.41-.52-10.51-.9-4.08-1.8-3.64-3.22-8.58-1.11-3.88-2.26-8.09-.55-12.32,.54-1.34,1.34-3.31,3.26-4.23,2.06-.98,3.5,.17,8.4,.92,1.84,.28,3.92,.36,8.07,.53,5.94,.23,7.17-.06,8.57,1.11,2.08,1.74,2.19,4.77,2.22,5.61,.1,2.68-1,4.44-2.03,6.68-1.02,2.23-1.72,5.06-3.1,10.74-1.39,5.7-1.71,10.08-2.22,17.13-.36,4.95-.41,8.7-.43,11.15-.08,7.39-.13,11.08,.32,12.84,1.34,5.28,4.11,8.61,4.94,15.77,.08,.7,.27,2.54-.43,2.85-.99,.45-2.56-2.73-6.38-5.43-2.6-1.84-5.01-2.58-6.77-3.12-2.13-.66-5.39-1.63-9.64-1.2-1.97,.2-6.97,.69-10.84,4.28-2.18,2.02-2.99,4.08-3.58,3.84-.75-.3-.27-3.88,.79-6.97Z"
      fill="#b2b2b2" />
    <path id="rightProximalPhalanx4"
      d="M516.74,193.77c-1.38-.81-.35-5.43,.95-8.76,2.15-5.52,4.46-5.96,7.89-11.76,2.88-4.88,4.03-9.29,4.89-12.57,.29-1.11,.86-4.85,1.98-12.28,1.27-8.41,1.39-9.25,.94-10.75-1.21-4.01-3.64-4.61-4.77-9.44-.14-.58-1.41-4.24,.33-7.91,.2-.43,1.76-3.58,5.21-4.87,1.29-.48,2-.39,8.01,.25,6.07,.65,7.23,.77,9.27,1.35,2.97,.85,4.45,1.28,5.38,2.46,.71,.9,1.77,2.93-.4,10.79-1.47,5.3-2.55,6.52-3.79,10.32-1.1,3.36-1.36,7.36-1.88,15.35-.53,8.09-.79,12.14-.41,17.11,.4,5.22,1.06,7.02,1.46,14.2,.57,10.06-.47,10.96-.97,11.1-1.01,.29-1.68-1.98-5.01-4.59-2.99-2.34-6.01-3.28-8.14-3.96-2.45-.78-4.09-1.3-6.38-1.28-3.75,.03-6.8,1.47-8.88,2.47-3.7,1.79-4.78,3.27-5.65,2.75Z"
      fill="#b2b2b2" />
    <path id="rightProximalPhalanx5"
      d="M555.36,226.74c.45-1.98,1.3-3.36,1.6-3.83,2.89-4.58,5.64-5.61,8.16-8.67,2.04-2.47,2.86-5.73,4.5-12.24,.92-3.64,1.25-6.22,1.88-11.2,.61-4.81,.91-7.26,.46-9.34-.85-3.88-2.45-4.14-3.25-8.22-.37-1.88-1.23-6.25,1.11-8.57,1.44-1.43,3.48-1.47,7.17-1.54,4.71-.09,5.41,1.06,8.81,.41,2.66-.51,2.89-1.35,5.37-1.52,1.02-.07,4.32-.3,6.19,1.44,2.2,2.05,1.49,5.96,.46,11.23-1.33,6.84-2.91,7.9-3.96,14.27-.1,.61-.27,3.47-.62,9.15-.69,11.36-.72,12.88-.6,15.11,.13,2.45,.3,5.58,1.14,9.66,.9,4.36,1.87,6.45,1.96,10.64,0,.29,.1,6.48-1.31,6.74-.87,.16-1.33-2.1-3.73-4.84-2.35-2.69-4.95-4-7.65-5.36-2.79-1.41-4.9-2.47-7.87-2.85-6.12-.79-11.51,1.87-13.04,2.65-3.5,1.78-5.02,3.59-6.21,2.89-1.67-.99-.62-5.74-.56-6Z"
      fill="#b2b2b2" />
    <path id="rightMiddlePhalanx2"
      d="M435.94,62.18c-.68-.68-.17-2,1.57-7.62,1.62-5.24,1.65-5.63,1.62-6.17-.19-3.18-2.25-3.59-3.98-8.11-.96-2.51-2.22-5.78-.73-8.18,1.71-2.77,6.13-2.9,7.66-2.94,2.36-.07,2.36,.54,6.24,.91,3.58,.34,4.08-.13,7.37,.28,3.32,.42,4.98,.63,5.98,1.79,1.31,1.52,.94,3.87,.16,8.5-1.01,5.97-2.1,6.52-1.5,8.89,.45,1.75,1.79,3.41,4.47,6.71,1.49,1.83,2.66,3,3.16,5.15,.29,1.25,.45,3.21-.31,3.58-.81,.39-1.68-1.51-4.11-2.53-1.9-.79-2.91-.27-7.02-.25-.94,0-.32-.03-6.1-.35-5.39-.31-8.11-.45-9.36-.28-3.25,.46-4.39,1.35-5.11,.64Z"
      fill="#c6c6c6" />
    <path id="rightMiddlePhalanx3"
      d="M490.08,47.79c-1.99,1.58-1.84,4.85-1.79,5.98,.13,2.86,1.31,3.08,2.14,6.5,.64,2.65,.45,4.96,.07,9.57-.23,2.79-.35,4.18-.81,5.16-1.24,2.63-3.1,3.05-3.76,5.81-.08,.35-.63,2.65,.42,3.47,.79,.61,1.84-.12,3.91-.29,1.78-.15,2.83,.25,4.72,.68,2.48,.57,4.48,.75,8.48,1.1,7.5,.66,9.25-.34,11.78,1.48,.79,.57,1.59,1.37,2.25,1.1,1.17-.49,.78-3.91,.68-4.72-.63-5.47-3.18-6.6-4.25-11.2-.69-2.97-.34-5.46,.37-10.43,.88-6.18,2.37-8.7,.76-10.76-1-1.28-2.64-1.69-4.86-2.23-2.2-.54-2.98-.22-6.45-.56-2.56-.25-2.34-.45-5.34-.83-4.66-.59-7.01-.87-8.32,.17Z"
      fill="#c6c6c6" />
    <path id="rightMiddlePhalanx4"
      d="M529.93,83.21c-.16,.15-2.52,2.4-2.28,5.4,.21,2.6,2.15,2.76,3.6,6.27,.93,2.25,.94,4.15,.97,7.48,.03,3.31,.04,4.96-.94,6.6-1.03,1.72-2.23,1.75-3.03,3.7-.73,1.79-.63,3.87-.08,4.05,.4,.13,.81-.8,1.87-1.73,1.44-1.27,3.03-1.61,4.68-1.94,2.64-.53,4.73-.25,8.81,.32,3.96,.55,5.93,.88,8.24,1.71,2.67,.97,4.16,1.96,4.85,1.33,.19-.18,.34-.49-.5-4.56-.52-2.53-.84-3.78-1.01-4.42-.46-1.71-.7-2.23-.82-3.5-.42-4.21,1.63-4.55,1.77-9.95,.07-2.75,.15-5.6-1.67-7.73-.57-.67-1.32-1.25-7.86-3.03-4.45-1.21-6.71-1.82-8.86-1.86-2.92-.05-5.64-.1-7.74,1.85Z"
      fill="#c6c6c6" />
    <path id="rightMiddlePhalanx5"
      d="M568.93,158.27c.34-3.31,.73-5.02,.94-6.6,.58-4.26-.43-4.87,.55-6.27,1.26-1.8,3.82-2.07,6.34-2.33,2.71-.28,3.1,.23,7.54,.48,5.31,.29,6.22-.36,8.24,.72,.46,.25,3.11,1.67,3.77,4.3,.44,1.77-.44,2.38,.08,5.24,.22,1.21,.49,1.71,.47,2.93-.02,.93-.05,2.56-1,3.16-.92,.58-1.71-.45-3.75-.51-1.57-.05-1.79,.54-4.81,1.38-1.56,.44-2.89,.8-4.59,.86-2.73,.09-2.7-.75-5.36-.65-.83,.03-.85,.12-5.29,.62-1.43,.16-2.16,.23-2.69-.24-.67-.6-.6-1.69-.45-3.11Z"
      fill="#c6c6c6" />
    <path id="rightDistalPhalanx1"
      d="M355.14,71.98c.26-1.65,1.04-6.57,5.22-10.19,3.74-3.24,5.67-1.52,9.93-4.18,5.23-3.27,7.28-8.97,8.71-12.95,2.62-7.28,.54-8.97,3.36-15.77,1.19-2.87,3.01-7.23,7.42-10.54,1.21-.91,8.68-6.28,17.62-3.33,6.27,2.07,11.16,7.55,12.17,13.52,.61,3.59-.29,6.74-.72,8.24-1.44,5.04-3.56,5.45-5.24,10.37-.61,1.79-2.14,6.28-.79,11.12,.6,2.15,2.34,4.73,5.81,9.89,2.59,3.84,3.8,5.24,3.51,7.34-.37,2.66-2.93,4.92-3.83,4.54-.64-.28-.05-1.75-.58-3.66-.91-3.29-4.33-5.03-6.16-5.95-1.35-.69-3.31-1.47-10.99-2.23-7.24-.71-7.41-.2-12.55-.92-4.56-.64-5.1-1.14-9.61-1.56-5.17-.49-7.98-.16-8.84-.05-3.12,.4-5.29,.68-7.58,2.04-4.38,2.61-5.86,7.19-6.73,6.81-.5-.21-.26-1.79-.14-2.54Z"
      fill="#dadada" />
    <path id="rightDistalPhalanx2"
      d="M433.55,27.68c-.45-.92,1.28-2.27,2.91-4.44,.98-1.3,3.49-4.61,3.62-8.35,.12-3.38-1.81-3.91-1.39-6.8,.49-3.34,3.47-5.42,4.3-6,4.9-3.43,10.77-1.69,11.89-1.36,1.42,.42,5.75,1.7,7.78,5.67,.33,.65,1.69,3.29,.75,5.84-.43,1.18-.95,1.23-2.24,2.87-1.17,1.49-3.93,5.01-3.02,7.68,.41,1.19,1.14,1.03,2.58,3.47,.68,1.15,1.43,2.42,1,2.98-.39,.51-1.51,.07-3.58-.31-1.77-.33-1.17-.04-5.55-.49-3.49-.36-3.67-.52-6.43-.74-2.49-.2-3.74-.31-4.49-.21-2.48,.31-3.81,1.22-6.39,.88-1.46-.19-1.68-.57-1.74-.69Z"
      fill="#dadada" />
    <path id="rightDistalPhalanx3"
      d="M488.87,44.07c.72-2.38,3.08-2.37,4.56-4.65,.88-1.36,.91-2.71,.96-4.79,.09-3.86-1.36-4.46-1.13-7.68,.06-.85,.29-3.55,2.32-5.93,.47-.55,2.25-2.57,5.33-3.14,3.51-.65,6.19,1.04,6.91,1.51,.54,.35,3.95,2.66,4.32,6.33,.3,2.96-1.7,3.64-1.75,7.61-.01,.99-.04,3.17,1.16,5.33,1.51,2.73,3.36,2.55,4.77,5.29,1.02,1.98,1.38,4.63,.44,5.27-.78,.53-1.86-.77-4.73-1.68-1.92-.61-2.18-.26-6.43-.74-2.23-.25-4.12-.57-7.03-1.07-4.03-.68-4.9-.95-6.37-.47-1.51,.5-2.54,1.43-3.15,.99-.51-.37-.38-1.48-.17-2.18Z"
      fill="#dadada" />
    <path id="rightDistalPhalanx4"
      d="M526.64,78.51c.08-.91,.19-2.07,.83-3.36,1.08-2.16,2.31-1.98,2.84-3.54,.42-1.25-.28-1.68-.99-5.14-.5-2.42-.75-3.63-.46-5.09,.54-2.65,2.51-4.28,2.93-4.62,2.94-2.34,7.01-2.15,9.83-.94,4.55,1.94,5.98,6.6,6.21,7.4,1.06,3.69-.73,4.79,.55,8.17,.99,2.63,2.26,2.47,4.86,6.38,1.95,2.94,3.7,6.73,2.97,7.3-.42,.33-1.36-.67-3.8-1.96-2.14-1.13-3.82-1.63-6.29-2.35-2.6-.77-4.79-1.42-7.8-1.58-2.93-.16-4.72-.26-6.74,.67-2.54,1.18-3.5,3.1-4.39,2.68-.88-.42-.67-2.71-.55-4.02Z"
      fill="#dadada" />
    <path id="rightDistalPhalanx5"
      d="M570.31,142.51c-.85-.63,.1-4.03,1.85-6.7,1.64-2.49,2.99-2.82,3.3-4.76,.22-1.33-.31-1.83-.91-4.05-.69-2.54-1.5-5.58-.37-8.15,.99-2.25,3.42-4.03,6.15-4.33,3.26-.37,6.31,1.43,7.61,3.73,1.05,1.86,.88,4.02,.53,8.35-.25,3.15-.67,3.54-.24,4.85,.77,2.35,2.48,2.33,4.59,5.27,1.76,2.46,2.85,5.68,2.06,6.32-.47,.38-1.25-.46-3.15-1.09-2.94-.96-3.75,.18-8.01-.25-3.04-.3-3.17-.91-5.7-.86-2.52,.05-4.57,.68-4.57,.68-2.08,.64-2.71,1.32-3.15,.99Z"
      fill="#dadada" />
    <path id="leftTalus"
      d="M234.82,510.47c-3.43-4.6-7.64-8.9-13.43-13.26-6.53-4.92-12.92-9.79-22.35-12.12-8.92-2.2-15.85-1.11-25.59,.43-8.28,1.31-19.01,3.12-30.11,10.57-4.44,2.98-9.01,4.56-10.41,8.85-.82,2.49-.07,3.73,.52,10.06,.39,4.21,.87,9.38,.18,14.42-.26,1.9-1.25,8.51-5.58,14.56-4.02,5.61-6.48,4.55-14.52,11.38-5.99,5.09-11.61,9.86-13.63,17.43-1.4,5.26,.41,6.31-1.44,12.4-1.89,6.18-4.18,6.46-6.81,12.87-1.27,3.1-4.33,10.52-2.11,17.15,1.73,5.15,5.7,7.01,11.45,11.27,3.58,2.65,10.07,9.76,23.03,23.97,16.73,18.34,19.98,22.07,19.98,22.07,8.5,9.77,11.12,13.28,16.39,14.09,6.39,.97,12.27-2.73,18.54-6.68,6.96-4.38,6.72-6.36,14.52-11.38,4.19-2.69,5.36-2.83,14.51-7.41,11.06-5.53,16.58-8.29,18.26-9.9,10.75-10.31,9.79-27.36,9.64-30.08-.23-4.11-1.34-8.05-3.56-15.93-4.16-14.79-6.4-15.41-7.86-23.86-1.61-9.31-.31-16.69,1.09-24.64,1.95-11.05,2.93-16.57,7.46-21.95,4.01-4.75,7.29-5.23,8.2-9.38,1.07-4.86-2.25-9.45-6.36-14.96Z"
      fill="#878787" />
    <path id="leftCalcaneus"
      d="M204,665.56c1.98,3.85,4.21,9.21,5.36,15.86,.51,2.95,.54,4.33,.55,18.72,.01,14.23,.08,15.08-.64,17.38-1.58,5-3.22,5.08-9.17,14.88-5.73,9.44-4.8,10.33-7.8,14.04-2.55,3.15-5.62,5.46-21.36,11.61-16.93,6.62-25.53,9.9-32.09,8.58-1.7-.34-10.19-2.21-16.34-9.4-5.23-6.1-5.69-12.44-7.28-21.38-1.47-8.26-4.32-17.48-10-35.94-5.93-19.25-8.9-28.88-13.68-36.7-5.21-8.52-9.2-11.97-10.06-20.05-.91-8.55,2.78-12.01,.13-19.14-2.47-6.66-6.44-5.67-10.21-13.54-.9-1.88-4.58-9.57-2.67-18.17,1.47-6.61,4.96-8.04,4.28-13.01-.58-4.2-3.24-4.41-5.92-9.95-2.58-5.33-2.52-10.5-2.58-17.1-.05-6.28,.81-5.99,.34-10.5-.67-6.41-2.72-9.84-1-11.46,1.08-1.02,2.56-.29,6.12-.17,3.13,.1,5.65-.48,10.68-1.66,6.79-1.58,6.8-2.51,14.05-4.48,7.17-1.94,6.97-.97,12.04-2.68,5.89-1.98,7.08-3.61,12.86-5.64,4.51-1.58,8.39-2.2,10.88-2.49,.64,2.28,1.39,5.78,1.33,10.08-.03,2.43-.16,12.71-7.11,20.83-.81,.95-.29,.21-12,9.26-6.66,5.15-8.66,6.81-10.78,9.88-2.9,4.2-4.07,8.23-4.47,9.77-1.5,5.8,.2,6.41-1.1,11.1-1.64,5.92-4.61,5.91-7.74,13.58-.96,2.35-2.12,5.26-2.35,9.23-.12,2.11-.49,8.37,3.27,13.61,2.36,3.29,4.02,2.93,9.89,7.8,.71,.59,2.53,2.13,8,7.87,5.4,5.68,7.69,8.52,13.59,15.05,8.32,9.22,7.84,8.43,12.78,14.04,4.02,4.57,8.12,9.08,12.03,13.75,5.28,6.29,7.02,8.74,10.89,9.97,3.94,1.25,7.51,.42,10.53-.29,5.41-1.26,9.05-3.77,13.3-6.76,5.87-4.12,6.55-5.9,11.96-9.8,4.57-3.3,8.73-5.37,11.51-6.6Z"
      fill="#878787" />
    <path id="leftNavicular"
      d="M237.83,439.64c3.78,3.52,6.34,7.54,11.47,15.6,4.29,6.74,6.45,10.19,7.41,14.51,.5,2.25,1.78,8.45-.8,15.59-.58,1.62-3.81,10.55-12.81,14.47-1.88,.82-3.6,1.57-6,1.61-7.55,.12-9.77-7.09-21.47-14.36-2.63-1.64-7.12-4.38-13.52-6.04-6.13-1.59-10.88-1.36-17.77-.97-6.18,.35-13.96,.78-23.84,3.89-12.19,3.83-20.17,9.4-21.81,10.57-3.94,2.8-6.96,5.55-9.08,7.65-.94-1.79-2.39-4.67-3.98-8.31-2.84-6.54-2.54-7.33-4.58-11.15-2.93-5.47-4.53-5.68-5.53-9.62-.33-1.31-1.2-4.7,0-8.3,1.54-4.64,4.75-4.39,9.57-10.22,4.58-5.54,3.32-7.74,7.36-10.75,2-1.48,2.88-1.37,10.14-3.77,4-1.32,7.93-2.86,11.9-4.29,13.81-4.98,14.52-5.33,15.71-6.07,2.49-1.54,4.3-3.05,7.92-4.3,1.35-.47,3.87-1.32,7.1-1.34,3.4-.02,5.09,.89,8.46,1.79,4.12,1.09,4.9,.6,12.76,1.41,7.04,.73,10.55,1.09,13.89,2.03,8.96,2.53,14.85,7.91,17.51,10.38Z"
      fill="#878787" />
    <path id="leftCuboid"
      d="M129.58,510.11c.62-1.23-.59-2.51-4.52-10.43-.37-.74-.91-1.82-1.5-3.32-.94-2.4-1.14-3.8-3.57-9.23-1.84-4.13-3.32-7.4-6.05-11.38-1.35-1.96-3.41-4.93-6.84-8.06-3.26-2.97-4.29-2.93-6.95-5.17-4.28-3.6-3.58-5.38-9.1-13.28-5.59-8-8.09-8.73-8.35-12.98-.16-2.55,.51-6.01,1.04-8.75,.51-2.64,1.06-4.53,.81-7.29-.19-1.98-.71-3.57-1.12-4.59-2.43-.41-6.11-.76-10.48-.17-2.76,.38-11.25,1.66-18.39,8.47-6.18,5.89-8.12,12.86-9.6,18.16-.37,1.32-.97,5.04-2.16,12.46-1.2,7.49-1.4,9.76-1.05,12.72,.42,3.55,.78,6.62,3,9.48,2.87,3.71,5.95,3.32,7.46,6.93,.52,1.23,.43,3.12,.24,6.84-.35,6.8-1.05,7.14-.88,10.54,.08,1.72,.37,6.09,3.06,10.2,2.56,3.91,4.44,3.18,6,6.69,1.63,3.69,.36,6.31,2.51,8.08,.27,.22,1.07,.81,4.42,1.06,2.96,.22,5.73,0,9.33-.64,5.23-.93,9.06-2.21,9.89-2.49,4.65-1.57,4.4-2.07,7.94-3.04,4.01-1.1,4.69-.56,8.97-1.69,2.63-.69,4.4-1.43,7.52-2.73,6.76-2.82,6.64-3.64,10.25-4.6,5.08-1.35,7.38-.27,8.14-1.8Z"
      fill="#878787" />
    <path id="leftLateralCuneiform"
      d="M131.37,439.84c-.89,.88-2.15,2.24-3.43,4.09-2.5,3.62-2.19,4.97-3.92,7.83-3.13,5.18-6.03,3.87-9.22,9.11-2.13,3.49-1.99,5.97-3.69,6.28-1.08,.2-1.87-.66-5.58-3.93-4.92-4.34-4.53-3.72-5.37-4.67-2.79-3.15-1.85-4.05-5.14-9.29-1.03-1.64-2.6-3.69-5.74-7.8-3.04-3.98-3-3.73-3.27-4.32-1.97-4.35,1.02-6.91,1.06-13.63,.03-4.83-1.47-8.71-3-12.64-.79-2.03-1.09-2.39-4.15-9.29-2.88-6.51-3.06-7.2-2.79-8.15,.86-2.98,4.55-2.62,12.75-6.89,5.73-2.99,6.29-4.34,11.35-6.41,3.74-1.52,7.01-2.24,9.16-2.61,.44,1.18,1.47,3.44,3.73,5.45,1.87,1.67,3.79,2.45,4.94,2.82-.39,2.15-.85,5.3-1.01,9.11-.14,3.55,.02,6.64,.9,14.36,1.04,9.19,1.56,13.79,2.06,15.34,1.15,3.56,3.74,9.31,10.36,15.25Z"
      fill="#878787" />
    <path id="leftIntermediateCuneiform"
      d="M158.8,371.75c2.08,1.04,2.84,2.89,4.3,5.85,.02,.04,2.79,4.62,8.07,13.91,4.91,8.63,5.81,7.38,7.86,12.49,.74,1.84,4.85,12.57,.49,16.92-.6,.6-.58,.3-4.5,2.2-4.25,2.06-5.07,2.81-8.97,4.75-2.45,1.22-4.21,1.97-6.94,3.13-4.08,1.73-7.11,3.02-10.82,4.2-7.5,2.37-11.25,3.56-14.62,2-2.67-1.23-4.04-3.47-6-6.69-.99-1.62-2.81-4.94-4.26-11.54-.48-2.2-.55-3.05-1.54-17.55-.41-5.97-.62-9.52,.57-14.13,.93-3.63,2.04-5.19,2.72-6.01,1.08-1.3,2.67-2.62,8.97-4.75,5.02-1.7,5.63-1.48,15.18-3.85,5.59-1.39,7.4-1.97,9.48-.92Z"
      fill="#878787" />
    <path id="leftMedialCuneiform"
      d="M227.46,358.26c-.87-1.28-1.94-2.14-10.95-5.54-10.1-3.82-10.89-3.55-16.03-5.82-6.05-2.67-6.3-3.63-12.06-5.8-6.29-2.37-9.51-3.51-12.46-2.16-5.04,2.3-6.43,9.94-6.68,11.32-.5,2.73,.04,3.2-.71,7.37-.44,2.45-.8,4.93-2.21,7.77-1.33,2.7-2.17,3.11-2.46,4.91-.39,2.42,.75,4.38,2.43,7.19,5.27,8.77,7.56,12.15,7.56,12.15,4.1,5.12,5.53,8.15,6.25,9.56,2.23,4.34,3.94,7.68,4.52,12.42,.52,4.26-.31,6.13,1.35,8.18,.38,.47,1.6,1.82,7.01,2.82,5.01,.92,7.26,.42,13.41,.63,3.75,.13,6.21,.22,9.47,.98,6.27,1.46,11.64,4.71,12.74,5.38,3.96,2.4,5.47,4.1,6.44,3.5,1.25-.78-.03-4.37-.87-8.95-.65-3.52-.31-3.68-.58-15.92-.29-12.99-.39-19.5-1.35-23.7-1.45-6.33-2.63-6.97-3.28-12.71-.84-7.48,.74-10.2-1.55-13.58Z"
      fill="#878787" />
    <path id="leftMetatarsal1"
      d="M229.41,353.76c-2.14,.83-3.97-.48-8.54-2.68-9.42-4.55-8.55-2.29-19.77-7.29-8.57-3.82-10.42-5.73-16.85-7.01-3.99-.79-7.27-1.39-10.45,.19-6.42,3.2-6.98,12.88-7.05,14.33-.21-1.54-.71-3.76-1.98-6.14-.8-1.5-1.69-2.69-2.48-3.57,1.06-2.25,2.55-5.47,4.23-9.39,3.87-8.99,6.36-15.98,9.39-24.64,5.57-15.89,8.36-23.84,8.65-24.94,3.37-13.02,4-23.47,4.92-38.69,.6-9.94,.91-15.14,.53-22.78-.31-6.33-1.42-17.77-3.47-31.46-1.35-9-2.34-13.71,.1-19.5,.7-1.66,3.09-6.72,8.5-10.13,3.25-2.04,7.12-2.52,14.86-3.47,9.6-1.18,15.77-.76,18.36-.52,5.42,.49,7.99,1.31,9.17,1.72,2.49,.87,6.31,2.22,9.52,5.66,.75,.8,3.56,3.97,4.85,10.04,1.93,9.08-1.16,17.01-2.51,20.79-4,11.23-4.11,23.48-6.3,35.2-2.88,15.38-4.26,27.54-7.01,51.86-2.65,23.42-3.95,35.25-2.52,41.37,.19,.8,1.81,7.63,1.08,16.51-.38,4.67-.96,12.88-5.23,14.53Z"
      fill="#9d9d9c" />
    <path id="leftSesamoid"
      d="M185.15,192.33c.75,4.56,1.14,7.98,1.57,11.77,.39,3.44,.85,7.94,1.25,13.24-1.8-.2-4.73-.81-7.21-2.98-4.17-3.65-4.26-9.28-4.35-14.69-.07-3.89-.08-7.94,2.57-11.86,1.47-2.18,3.25-3.56,4.49-4.36,.47,2.19,1.08,5.23,1.68,8.88Z"
      fill="#9d9d9c" />
    <path id="leftMetatarsal2"
      d="M161,343.32c1.22,2.52,2.12,3.39,3.1,6.59,1.71,5.53,.68,10.86,.68,10.86-.58,2.9-1.21,6.03-3.68,7.45-1.53,.88-2.61,.44-5.46,.48-3.31,.05-3.07,.66-11.17,2.33-6.01,1.24-7,1.08-10.45,2.27-1.76,.61-3.69,1.27-5.91,2.59-2.04,1.22-5.09,3.46-7.83,7.45-1.71-.92-4.8-2.91-6.89-6.62-1.89-3.36-2.03-6.47-2.14-10.01-.18-5.79,1.06-10.41,1.92-13.07,2.32-7.1,5.51-10.9,8.07-14.96,4.09-6.48,5.6-12.69,8.63-25.12,2.43-9.99,1.65-16.26,4.99-41.94,2.57-19.75,3.12-35.91,3.06-47.55-.08-16.38-.12-24.57-2.85-32.59-.72-2.12-2.99-6.82-3.34-13.42-.17-3.13,.24-3.47,.52-10.51,.38-9.56-.32-10.1,.73-12.33,2.55-5.47,9.17-7.4,12.27-8.29,1.33-.38,7.42-2.03,14.81,.15,3.41,1,9.27,2.73,12.25,7.95,1.44,2.52,1.54,5.6,1.75,11.76,.14,4.12,.27,7.86-.73,12.33-1.21,5.47-3.16,7.82-5.09,11.99-2.28,4.95-3.13,9.43-4.01,20.2-1.42,17.42-1.39,32.46-1.75,45.99-.39,14.61-.67,24.96-1.99,39.15-1,10.82-.27,21.75-1.12,32.58-.34,4.26-.86,9.18,1.61,14.3Z"
      fill="#9d9d9c" />
    <path id="leftMetatarsal3"
      d="M109.69,165.18c2.01,.44,4.87,1.04,7.51,3.31,3.07,2.65,3.97,5.93,5.3,11.09,1.11,4.28,2.38,9.23,1.35,15.4-1.04,6.18-3.14,6.04-4.34,12.29-.94,4.88-.22,7.32,.66,15.82,.1,.97,.32,6.28,.76,16.9,.41,9.92,.32,18.18,.11,34.28-.25,18.83-.55,20.66-.64,33.98-.07,11.87,.11,21.53,.26,27.77-1.83,2.02-4.05,4.83-6.12,8.48-2.73,4.83-3.93,8.95-4.32,10.39-1.47,5.39-1.55,9.72-1.54,11.23,0,3.53,.47,6.49,.94,8.67-2.39,.46-6.08,1.36-10.27,3.24-3.75,1.69-5.43,3.05-12.39,6.86-7.34,4.02-9.46,4.69-10.95,3.76-.29-.18-1.15-.8-2.05-4.87-.78-3.57-1.19-6.81-.85-9.67,1.22-10.13,3.01-15.06,3.01-15.06,4.33-11.91,8.41-16.92,11.61-24.11,1.42-3.2,2.26-5.91,4.82-39.76,1.94-25.61,1.28-21.7,2.12-29.42,.07-.69,1.79-16.55,3.05-35.28,.44-6.61,.83-13.82-3.25-20.65-1.92-3.2-3.93-3.61-5.7-7.44-2-4.33-.81-5.97-2-14.62-1.15-8.34-2.61-9.39-1.45-12.51,1.62-4.37,6.01-6.51,9.4-8.04,2.52-1.14,8.09-3.56,14.98-2.03Z"
      fill="#9d9d9c" />
    <path id="leftMetatarsal4"
      d="M71.8,385.95c.71,2.99,1.88,6.16,2.84,8.77,.42,1.14,1.04,2.77,3.33,8.19,1.04,2.45,2.45,5.77,4.19,9.74-1.96-.21-4.59-.34-7.67-.05-2.29,.22-8.28,.88-14.08,4.12-8.18,4.57-10.13,11.4-12.8,10.5-1.26-.43-1.27-2.1-2.87-8.05-2.3-8.55-3.14-8.32-3.54-11.6-.27-2.25-.26-5.5,4.03-15.87,4.2-10.18,5.69-10.68,7.93-16.57,2.73-7.17,2.99-12.87,3.37-23.39,.47-12.99-.53-22.8-.82-25.91-2.04-21.74,.7-41.09,1.47-49.21,.71-7.5,2.02-18.62,.54-30.91-.96-7.96-1.63-13.02-5.48-17.21-1.67-1.82-3.86-3.4-4.92-6.79-1.22-3.9-.23-7.91-.04-8.66,.75-2.89,1.75-3.46,2.3-6.7,.52-3.04-.23-3.26,.28-5.08,1.07-3.8,5.19-5.78,9.08-7.65,2.78-1.34,5.08-2.44,8.44-2.54,4.66-.14,8.06,1.76,9.24,2.44,4.7,2.71,6.8,6.74,8.01,9.04,.56,1.08,3.18,6.28,2.98,13.45-.05,1.97-.31,3.51-2.28,11.03-1.88,7.14-3.41,12.44-3.56,12.94-2.19,7.62-1.35,12-1.26,26.82,.12,19.53-1.31,17.15-.79,32.19,.36,10.33,1.33,20.11,1.9,25.82,.56,5.68,1.14,10.45,1.58,13.94-1.97,3.46-4.56,8.43-7.02,14.69-1.77,4.52-3.24,8.33-4.21,13.72-.77,4.27-2.02,10.97-.16,18.78Z"
      fill="#9d9d9c" />
    <path id="leftMetatarsal5"
      d="M43.25,421.66c.83,2.9,1.22,3.99,1.71,5.08,.76,1.72,1.57,3.07,2.15,3.96-.88,1.73-2.08,4.35-3.12,7.67-.47,1.51-.93,3.22-2.4,11.76-.91,5.3-1.37,8-1.61,10.43-.71,7.18-.14,9.98,.04,10.82,.41,1.86,1.29,5.09,4.11,7.76,1.13,1.08,2.26,1.75,3.08,2.17-.54,1.2-1.84,3.66-4.57,5.54-.59,.41-4.61,3.14-8.83,2.22-1.25-.27-4.59-1.31-8.97-9.68-5.72-10.94-6.26-21.09-6.34-22.91-.12-2.87-.12-7.72,2.82-21.36,3.69-17.14,5.96-17.25,7.48-27.9,.56-3.91,.28-12.03-.3-28.13-.31-8.62-.59-16.26-1.26-26.78-.52-8.14-.49-5.75-2.2-27.24-.83-10.4-3.05-20.68-3.44-31.1-.16-4.23-.19-8.92-3.32-13.24-2.93-4.04-5.5-3.53-8.63-7.91-2.72-3.79-3.25-7.61-4.07-13.54-.8-5.79-1.29-9.26,.06-13.72,.52-1.72,2.55-8.1,8.7-11.95,2.54-1.59,4.85-2.16,6.45-2.55,1.92-.46,6.73-1.55,12.47,.17,5.39,1.62,8.64,4.83,10.12,6.33,.94,.95,4.76,4.97,6.6,11.51,.87,3.09,1.65,5.86,.8,9.13-1.04,4-3.4,4.51-5.19,8.76-.49,1.16-1.25,3.36-1.11,10.02,.12,5.66,.79,9.46,1.99,16.61,2.03,12.1,2.05,11.75,3.05,18.32,.52,3.41,1.12,6.82,1.62,10.24,.46,3.15,.89,6.34,2.1,10.55,.38,1.33,.74,2.42,1,3.16,.48,5.59,.55,10.34,.5,13.94-.08,5.07-.17,9.96-1.37,16.27-.62,3.25-1.1,5.79-2.36,9.14-1.65,4.4-2.84,5.39-6.21,12.54-1.56,3.3-2.34,4.95-3.22,7.5-1.75,5.01-2.98,8.68-2.2,13.01,.34,1.92,.62,1.4,2,6.32,.7,2.52,.89,3.59,1.88,7.05Z"
      fill="#9d9d9c" />
    <path id="leftProximalPhalanx1"
      d="M255.28,158.58c.71-2.93,.29-5.47-.07-7.03-1.13-4.83-3.43-7.6-5.45-10.71-2.9-4.48-4.16-8.06-6.53-14.77-1.33-3.78-3.3-10.21-4.32-18.39-1.04-8.37-1.56-12.56-.2-16.77,1.73-5.38,4.55-7.22,4.01-11.9-.5-4.38-3.48-7.2-3.91-7.6-1.28-1.17-3.32-2.53-7.69-3.3-5.3-.93-8.31,.02-15.43,.99-1.88,.26-7.28,.76-18.07,1.76-7.27,.68-10.31,.9-12.69,3.46-2.36,2.54-2.69,5.9-2.81,7.1-.32,3.25,.59,5.67,2.75,10.77,4.11,9.73,4.38,9.35,5.41,12.34,1.69,4.91,1.9,8.68,2.32,16.22,.46,8.23,.69,12.34-.53,16.65-2.51,8.89-4.75,13.77-4.75,13.77-.16,.35-1.06,2.29-1.37,4.99-.24,2.09-.29,5.91,1.1,6.4,.92,.32,1.88-1.01,3.57-2.48,3.49-3.02,7.16-4.05,10.92-5.11,2.13-.6,4.93-.83,10.54-1.28,3.25-.26,5.52-.35,10.06-.52,5.04-.19,7.59-.28,9.02-.07,3.56,.53,6.07,1.67,9.67,3.3,3.71,1.68,5.57,2.53,7.23,4.24,1.99,2.05,2.37,3.68,3.57,3.66,1.81-.04,3.17-3.76,3.65-5.73Z"
      fill="#b2b2b2" />
    <path id="leftProximalPhalanx2"
      d="M173.48,145.52c-1.09-3.28-2.26-3.72-5.84-9.05-2.48-3.69-4.58-6.85-6.03-11.2-.59-1.76-.93-3.86-1.6-7.98-.87-5.37-1.59-9.84-1.93-15.89-.37-6.58-.55-9.86,.13-13,.44-2.04,.73-2.33,3.64-12.05,1.27-4.23,1.76-6,.92-8.02-1.36-3.29-5.1-4.47-5.45-4.58-1.39-.42-2.07-.24-7.02,.25-4.06,.4-6.1,.6-7.52,.66-5.87,.23-7.16-.65-8.79,.59-1.8,1.37-2.07,3.84-2.32,6.52-.46,4.88,.63,8.64,1.09,10.37,.26,.97-.08-.18,1.88,17.34,1.28,11.44,1.68,14.29,1.93,20.04,.35,8.01-.08,10.49-.55,12.32-1.19,4.69-2.66,5.56-4.09,11.01-1.54,5.85-1.62,11.6-.77,11.8,.52,.12,.9-1.96,2.86-4.4,2.73-3.41,6.31-4.75,8.01-5.39,3.98-1.5,7.26-1.36,11.45-1.18,3.27,.14,5.95,.25,9.34,1.53,1.9,.72,5.23,1.97,8.02,5.07,1.92,2.13,2.44,3.87,3.03,3.7,.88-.25,.93-4.51-.38-8.45Z"
      fill="#b2b2b2" />
    <path id="leftProximalPhalanx3"
      d="M121.23,163c-1.36-3.94-3.03-5.25-5.74-9.96-2.06-3.56-3.22-6.5-3.52-7.27-2.14-5.5-2.71-10.11-3.27-14.69-.5-4.09-.58-7.15-.62-9.15-.11-4.94-.16-7.41,.52-10.51,.9-4.08,1.8-3.64,3.22-8.58,1.11-3.88,2.26-8.09,.55-12.32-.54-1.34-1.34-3.31-3.26-4.23-2.06-.98-3.5,.17-8.4,.92-1.84,.28-3.92,.36-8.07,.53-5.94,.23-7.17-.06-8.57,1.11-2.08,1.74-2.19,4.77-2.22,5.61-.1,2.68,1,4.44,2.03,6.68,1.02,2.23,1.72,5.06,3.1,10.74,1.39,5.7,1.71,10.08,2.22,17.13,.36,4.95,.41,8.7,.43,11.15,.08,7.39,.13,11.08-.32,12.84-1.34,5.28-4.11,8.61-4.94,15.77-.08,.7-.27,2.54,.43,2.85,.99,.45,2.56-2.73,6.38-5.43,2.6-1.84,5.01-2.58,6.77-3.12,2.13-.66,5.39-1.63,9.64-1.2,1.97,.2,6.97,.69,10.84,4.28,2.18,2.02,2.99,4.08,3.58,3.84,.75-.3,.27-3.88-.79-6.97Z"
      fill="#b2b2b2" />
    <path id="leftProximalPhalanx4"
      d="M82.05,193.77c1.38-.81,.35-5.43-.95-8.76-2.15-5.52-4.46-5.96-7.89-11.76-2.88-4.88-4.03-9.29-4.89-12.57-.29-1.11-.86-4.85-1.98-12.28-1.27-8.41-1.39-9.25-.94-10.75,1.21-4.01,3.64-4.61,4.77-9.44,.14-.58,1.41-4.24-.33-7.91-.2-.43-1.76-3.58-5.21-4.87-1.29-.48-2-.39-8.01,.25-6.07,.65-7.23,.77-9.27,1.35-2.97,.85-4.45,1.28-5.38,2.46-.71,.9-1.77,2.93,.4,10.79,1.47,5.3,2.55,6.52,3.79,10.32,1.1,3.36,1.36,7.36,1.88,15.35,.53,8.09,.79,12.14,.41,17.11-.4,5.22-1.06,7.02-1.46,14.2-.57,10.06,.47,10.96,.97,11.1,1.01,.29,1.68-1.98,5.01-4.59,2.99-2.34,6.01-3.28,8.14-3.96,2.45-.78,4.09-1.3,6.38-1.28,3.75,.03,6.8,1.47,8.88,2.47,3.7,1.79,4.78,3.27,5.65,2.75Z"
      fill="#b2b2b2" />
    <path id="leftProximalPhalanx5"
      d="M43.43,226.74c-.45-1.98-1.3-3.36-1.6-3.83-2.89-4.58-5.64-5.61-8.16-8.67-2.04-2.47-2.86-5.73-4.5-12.24-.92-3.64-1.25-6.22-1.88-11.2-.61-4.81-.91-7.26-.46-9.34,.85-3.88,2.45-4.14,3.25-8.22,.37-1.88,1.23-6.25-1.11-8.57-1.44-1.43-3.48-1.47-7.17-1.54-4.71-.09-5.41,1.06-8.81,.41-2.66-.51-2.89-1.35-5.37-1.52-1.02-.07-4.32-.3-6.19,1.44-2.2,2.05-1.49,5.96-.46,11.23,1.33,6.84,2.91,7.9,3.96,14.27,.1,.61,.27,3.47,.62,9.15,.69,11.36,.72,12.88,.6,15.11-.13,2.45-.3,5.58-1.14,9.66-.9,4.36-1.87,6.45-1.96,10.64,0,.29-.1,6.48,1.31,6.74,.87,.16,1.33-2.1,3.73-4.84,2.35-2.69,4.95-4,7.65-5.36,2.79-1.41,4.9-2.47,7.87-2.85,6.12-.79,11.51,1.87,13.04,2.65,3.5,1.78,5.02,3.59,6.21,2.89,1.67-.99,.62-5.74,.56-6Z"
      fill="#b2b2b2" />
    <path id="leftMiddlePhalanx2"
      d="M162.85,62.18c.68-.68,.17-2-1.57-7.62-1.62-5.24-1.65-5.63-1.62-6.17,.19-3.18,2.25-3.59,3.98-8.11,.96-2.51,2.22-5.78,.73-8.18-1.71-2.77-6.13-2.9-7.66-2.94-2.36-.07-2.36,.54-6.24,.91-3.58,.34-4.08-.13-7.37,.28-3.32,.42-4.98,.63-5.98,1.79-1.31,1.52-.94,3.87-.16,8.5,1.01,5.97,2.1,6.52,1.5,8.89-.45,1.75-1.79,3.41-4.47,6.71-1.49,1.83-2.66,3-3.16,5.15-.29,1.25-.45,3.21,.31,3.58,.81,.39,1.68-1.51,4.11-2.53,1.9-.79,2.91-.27,7.02-.25,.94,0,.32-.03,6.1-.35,5.39-.31,8.11-.45,9.36-.28,3.25,.46,4.39,1.35,5.11,.64Z"
      fill="#c6c6c6" />
    <path id="leftMiddlePhalanx3"
      d="M108.71,47.79c1.99,1.58,1.84,4.85,1.79,5.98-.13,2.86-1.31,3.08-2.14,6.5-.64,2.65-.45,4.96-.07,9.57,.23,2.79,.35,4.18,.81,5.16,1.24,2.63,3.1,3.05,3.76,5.81,.08,.35,.63,2.65-.42,3.47-.79,.61-1.84-.12-3.91-.29-1.78-.15-2.83,.25-4.72,.68-2.48,.57-4.48,.75-8.48,1.1-7.5,.66-9.25-.34-11.78,1.48-.79,.57-1.59,1.37-2.25,1.1-1.17-.49-.78-3.91-.68-4.72,.63-5.47,3.18-6.6,4.25-11.2,.69-2.97,.34-5.46-.37-10.43-.88-6.18-2.37-8.7-.76-10.76,1-1.28,2.64-1.69,4.86-2.23,2.2-.54,2.98-.22,6.45-.56,2.56-.25,2.34-.45,5.34-.83,4.66-.59,7.01-.87,8.32,.17Z"
      fill="#c6c6c6" />
    <path id="leftMiddlePhalanx4"
      d="M68.86,83.21c.16,.15,2.52,2.4,2.28,5.4-.21,2.6-2.15,2.76-3.6,6.27-.93,2.25-.94,4.15-.97,7.48-.03,3.31-.04,4.96,.94,6.6,1.03,1.72,2.23,1.75,3.03,3.7,.73,1.79,.63,3.87,.08,4.05-.4,.13-.81-.8-1.87-1.73-1.44-1.27-3.03-1.61-4.68-1.94-2.64-.53-4.73-.25-8.81,.32-3.96,.55-5.93,.88-8.24,1.71-2.67,.97-4.16,1.96-4.85,1.33-.19-.18-.34-.49,.5-4.56,.52-2.53,.84-3.78,1.01-4.42,.46-1.71,.7-2.23,.82-3.5,.42-4.21-1.63-4.55-1.77-9.95-.07-2.75-.15-5.6,1.67-7.73,.57-.67,1.32-1.25,7.86-3.03,4.45-1.21,6.71-1.82,8.86-1.86,2.92-.05,5.64-.1,7.74,1.85Z"
      fill="#c6c6c6" />
    <path id="leftMiddlePhalanx5"
      d="M29.86,158.27c-.34-3.31-.73-5.02-.94-6.6-.58-4.26,.43-4.87-.55-6.27-1.26-1.8-3.82-2.07-6.34-2.33-2.71-.28-3.1,.23-7.54,.48-5.31,.29-6.22-.36-8.24,.72-.46,.25-3.11,1.67-3.77,4.3-.44,1.77,.44,2.38-.08,5.24-.22,1.21-.49,1.71-.47,2.93,.02,.93,.05,2.56,1,3.16,.92,.58,1.71-.45,3.75-.51,1.57-.05,1.79,.54,4.81,1.38,1.56,.44,2.89,.8,4.59,.86,2.73,.09,2.7-.75,5.36-.65,.83,.03,.85,.12,5.29,.62,1.43,.16,2.16,.23,2.69-.24,.67-.6,.6-1.69,.45-3.11Z"
      fill="#c6c6c6" />
    <path id="leftDistalPhalanx1"
      d="M243.65,71.98c-.26-1.65-1.04-6.57-5.22-10.19-3.74-3.24-5.67-1.52-9.93-4.18-5.23-3.27-7.28-8.97-8.71-12.95-2.62-7.28-.54-8.97-3.36-15.77-1.19-2.87-3.01-7.23-7.42-10.54-1.21-.91-8.68-6.28-17.62-3.33-6.27,2.07-11.16,7.55-12.17,13.52-.61,3.59,.29,6.74,.72,8.24,1.44,5.04,3.56,5.45,5.24,10.37,.61,1.79,2.14,6.28,.79,11.12-.6,2.15-2.34,4.73-5.81,9.89-2.59,3.84-3.8,5.24-3.51,7.34,.37,2.66,2.93,4.92,3.83,4.54,.64-.28,.05-1.75,.58-3.66,.91-3.29,4.33-5.03,6.16-5.95,1.35-.69,3.31-1.47,10.99-2.23,7.24-.71,7.41-.2,12.55-.92,4.56-.64,5.1-1.14,9.61-1.56,5.17-.49,7.98-.16,8.84-.05,3.12,.4,5.29,.68,7.58,2.04,4.38,2.61,5.86,7.19,6.73,6.81,.5-.21,.26-1.79,.14-2.54Z"
      fill="#dadada" />
    <path id="leftDistalPhalanx2"
      d="M165.24,27.68c.45-.92-1.28-2.27-2.91-4.44-.98-1.3-3.49-4.61-3.62-8.35-.12-3.38,1.81-3.91,1.39-6.8-.49-3.34-3.47-5.42-4.3-6-4.9-3.43-10.77-1.69-11.89-1.36-1.42,.42-5.75,1.7-7.78,5.67-.33,.65-1.69,3.29-.75,5.84,.43,1.18,.95,1.23,2.24,2.87,1.17,1.49,3.93,5.01,3.02,7.68-.41,1.19-1.14,1.03-2.58,3.47-.68,1.15-1.43,2.42-1,2.98,.39,.51,1.51,.07,3.58-.31,1.77-.33,1.17-.04,5.55-.49,3.49-.36,3.67-.52,6.43-.74,2.49-.2,3.74-.31,4.49-.21,2.48,.31,3.81,1.22,6.39,.88,1.46-.19,1.68-.57,1.74-.69Z"
      fill="#dadada" />
    <path id="leftDistalPhalanx3"
      d="M109.92,44.07c-.72-2.38-3.08-2.37-4.56-4.65-.88-1.36-.91-2.71-.96-4.79-.09-3.86,1.36-4.46,1.13-7.68-.06-.85-.29-3.55-2.32-5.93-.47-.55-2.25-2.57-5.33-3.14-3.51-.65-6.19,1.04-6.91,1.51-.54,.35-3.95,2.66-4.32,6.33-.3,2.96,1.7,3.64,1.75,7.61,.01,.99,.04,3.17-1.16,5.33-1.51,2.73-3.36,2.55-4.77,5.29-1.02,1.98-1.38,4.63-.44,5.27,.78,.53,1.86-.77,4.73-1.68,1.92-.61,2.18-.26,6.43-.74,2.23-.25,4.12-.57,7.03-1.07,4.03-.68,4.9-.95,6.37-.47,1.51,.5,2.54,1.43,3.15,.99,.51-.37,.38-1.48,.17-2.18Z"
      fill="#dadada" />
    <path id="leftDistalPhalanx4"
      d="M72.15,78.51c-.08-.91-.19-2.07-.83-3.36-1.08-2.16-2.31-1.98-2.84-3.54-.42-1.25,.28-1.68,.99-5.14,.5-2.42,.75-3.63,.46-5.09-.54-2.65-2.51-4.28-2.93-4.62-2.94-2.34-7.01-2.15-9.83-.94-4.55,1.94-5.98,6.6-6.21,7.4-1.06,3.69,.73,4.79-.55,8.17-.99,2.63-2.26,2.47-4.86,6.38-1.95,2.94-3.7,6.73-2.97,7.3,.42,.33,1.36-.67,3.8-1.96,2.14-1.13,3.82-1.63,6.29-2.35,2.6-.77,4.79-1.42,7.8-1.58,2.93-.16,4.72-.26,6.74,.67,2.54,1.18,3.5,3.1,4.39,2.68,.88-.42,.67-2.71,.55-4.02Z"
      fill="#dadada" />
    <path id="leftDistalPhalanx5"
      d="M28.48,142.51c.85-.63-.1-4.03-1.85-6.7-1.64-2.49-2.99-2.82-3.3-4.76-.22-1.33,.31-1.83,.91-4.05,.69-2.54,1.5-5.58,.37-8.15-.99-2.25-3.42-4.03-6.15-4.33-3.26-.37-6.31,1.43-7.61,3.73-1.05,1.86-.88,4.02-.53,8.35,.25,3.15,.67,3.54,.24,4.85-.77,2.35-2.48,2.33-4.59,5.27-1.76,2.46-2.85,5.68-2.06,6.32,.47,.38,1.25-.46,3.15-1.09,2.94-.96,3.75,.18,8.01-.25,3.04-.3,3.17-.91,5.7-.86,2.52,.05,4.57,.68,4.57,.68,2.08,.64,2.71,1.32,3.15,.99Z"
      fill="#dadada" />
  </g>
  <g>
    <path
      d="M370.7,536.68c1.67-2.05,6.24-7.06,12.93-7.53,7.7-.55,13.86,5.23,17.64,8.76,3.91,3.66,3.49,4.77,6.57,7.43,4.59,3.97,10.01,5.37,20.01,6.44,16.53,1.77,21.78,.42,32,1.36,6.13,.56,15.34,2.02,26.52,6.29"
      fill="none" stroke="#706f6f" stroke-linecap="round" stroke-miterlimit="10" />
    <path d="M373.58,590.35c-.15,7.5-.36,13.87-.55,18.72-.27,6.7-.52,12.8-1.1,20.84-.43,5.92-.9,10.84-1.25,14.33"
      fill="none" stroke="#706f6f" stroke-linecap="round" stroke-miterlimit="10" />
    <path
      d="M400.78,663.11c4.58-.22,9.78-.21,15.5,.27,12.1,1.03,15.55,3.25,22.95,1.65,2.42-.52,5.99-2.25,13.13-5.71,4.73-2.29,9.27-4.5,14.78-8.09,3.34-2.17,7.32-5.03,11.59-8.73"
      fill="none" stroke="#706f6f" stroke-linecap="round" stroke-miterlimit="10" />
    <path
      d="M228.09,536.68c-1.67-2.05-6.24-7.06-12.93-7.53-7.7-.55-13.86,5.23-17.64,8.76-3.91,3.66-3.49,4.77-6.57,7.43-4.59,3.97-10.01,5.37-20.01,6.44-16.53,1.77-21.78,.42-32,1.36-6.13,.56-15.34,2.02-26.52,6.29"
      fill="none" stroke="#706f6f" stroke-linecap="round" stroke-miterlimit="10" />
    <path d="M225.21,590.35c.15,7.5,.36,13.87,.55,18.72,.27,6.7,.52,12.8,1.1,20.84,.43,5.92,.9,10.84,1.25,14.33"
      fill="none" stroke="#706f6f" stroke-linecap="round" stroke-miterlimit="10" />
    <path
      d="M198.01,663.11c-4.58-.22-9.78-.21-15.5,.27-12.1,1.03-15.55,3.25-22.95,1.65-2.42-.52-5.99-2.25-13.13-5.71-4.73-2.29-9.27-4.5-14.78-8.09-3.34-2.17-7.32-5.03-11.59-8.73"
      fill="none" stroke="#706f6f" stroke-linecap="round" stroke-miterlimit="10" />
  </g>
</svg>