<?xml version="1.0" encoding="UTF-8"?>
<svg xmlns="http://www.w3.org/2000/svg" viewBox="0 0 880.86 1000">
  <g>
    <path
      d="M379.54,465.46c-1.01-24.11-1.77-44.49-2.31-59.54-.81-22.89-1.73-51.52-2.59-84.57-.73-28.19-1.32-56.39-1.79-84.59-.46-28.2-.79-56.4-.98-84.6-.03-4.9-.19-11.46-.12-20.49,.19-21.9,1.33-39.62,2.27-51.12,5.55-3.13,17.33-8.76,33.17-8.85,16.28-.09,28.37,5.72,33.94,8.85-.22,7.87-.54,19.51-.89,33.58-5.09,203.93-7.63,305.9-2.41,411.39"
      fill="#f2f2f2" />
    <path
      d="M450.3,281.27c3.21-29.34,1.82-22.46,10.74-52.14,7.11-23.66,5.09-16.5,13.88-40.03,2.92-7.83,15.82-5.64,22.87-1.15,3.07,1.96,6.79,3.25,7.65,9.85,.41,3.13-1.79,8.83-2.55,10.52-2.77,6.2-5.2,12.4-5.2,12.4,0,0-1.22,2.44-5.93,14.22-8.58,22.76-7.91,20.43-11.49,45.28-3.1,21.58,.82,44.72,13.3,62.6-1.72-2.47-5.15-4.58-7.62-6.22-2.74-1.82-5.64-3.37-8.67-4.65-6.06-2.56-12.58-4.02-19.16-4.28-3.28-.13-6.57,.04-9.82,.52-1.14,.17-8.16,2.34-8.44,.94-.13-.66,2.34-3.21,2.76-3.87,.93-1.43,1.75-2.93,2.49-4.47,1.48-3.1,3.5-6.25,3.43-9.68-.31-14.68,.38-17.31,1.76-29.84Z"
      fill="#b3b3b3" />
    <path
      d="M479.24,189.46c1.11-2.95,7.14-3.42,13.48-1.05,6.34,2.37,10.58,6.69,9.47,9.65-1.11,2.95-7.14,3.42-13.48,1.05-6.34-2.37-10.58-6.69-9.47-9.65Z"
      fill="#e2e2e2" />
    <path d="M476.68,193.76c1.09,1.7,3.81,5.45,8.86,7.97,5.42,2.7,10.4,2.43,12.4,2.21" fill="none" stroke="#999"
      stroke-linecap="round" stroke-miterlimit="10" />
    <path
      d="M462.56,906.24c9.26-42.39,18.55-85.12,32.49-168.47,10.21-61.03,18.05-64.25,28.24-160.45,2.97-28.02,4.15-95.87,4.13-124.05-.02-24.15-.11-48.78-7.68-71.72-2.74-8.29-6.57-16.24-11.47-23.48s-11.37-14.29-18.8-19.54c-3.67-2.59-7.61-4.8-11.76-6.52-1.04-.43-2.1-.83-3.17-1.21-.96-.33-1.91-.37-2.86-.65-3.26-.96-6.27-2.32-9.65-2.93-3.13-.57-6.33-.78-9.52-.59-6.69,.39-13.16,2.55-18.98,5.83-11.78,6.64-18.05,17.57-21.54,30.64-3.48,13.06-2.67,26.98,.38,40.15,2.55,10.99,6.93,21.94,14.27,30.64,3.37,4,7.54,7.84,12.25,10.19,.91,.46,1.8,.66,2.81,.67,4.64,.06,8.28,3.6,10.47,7.46,.5,.87,.92,1.78,1.28,2.72,1.93,5.06,2.05,10.59,2.14,16.01,.39,21.88-20.07,169.43-23.87,194.79l-14.39,71.38c-19.22,104.21-15.49,73.71-32.21,163.79,10.12,15.46,26.25,25.46,44.32,21.61,13.61-2.9,22.14-7.72,33.12-16.28Z"
      fill="#b3b3b3" />
    <path
      d="M421.83,360.75c-4.58,11.79-4.38,24.95-2.23,37.42,1.58,9.15,4.34,18.42,10.37,25.48,9.69,11.35,29.4,15.31,44.33,7.44,16.37-8.62,18.92-27.49,19.89-34.66,3.05-22.59-9.32-40.74-17.3-48.12-5.95-5.5-12.63-8.26-12.63-8.26-4.41-1.88-8.97-2.41-13.69-2.94-7.94-.88-15.58,4.84-20.64,10.45-3.47,3.85-6.23,8.36-8.1,13.19Z"
      fill="#e2e2e2" />
    <path
      d="M462.44,445.24c5.86-1.33,21.97-5.86,31.64-20.49,5.37-8.12,6.77-16.36,7.91-23.01,1.1-6.44,2.68-16.32-.49-28.26-3.62-13.64-11.49-22.66-16.05-27.11"
      fill="none" stroke="#999" stroke-linecap="round" stroke-miterlimit="10" stroke-width="2" />
    <path
      d="M648.2,512.13c-5.94,.29-13.35,.09-21.68-1.45-13.26-2.44-23.54-7.27-30.35-11.2,15.34-9.17,30.76-18.56,46.25-28.19,4.84-3.01,9.66-6.02,14.45-9.03,2.56-6.68,1.16-14.24-3.61-19.51-4.64-5.12-11.76-7.3-18.52-5.66-12.3,7.93-23.16,13.64-31.35,17.59-22.6,10.89-30.79,11.21-33.97,11.2-5.84-.02-9.3-1.4-26.78-8.11-14.51-5.57-26.34-10.16-34.28-13.25-1.63-.84-15.67-7.81-30.32-.74-10.74,5.18-15.09,14.66-16.18,17.26-2.68,3.61-4.63,9.84-6.2,18.92-.79,4.58-2.86,24.01,10.97,37.92,16.09,16.17,39.78,10.59,41.01,10.28,22.94,3.91,46.19,8.08,69.74,12.52,20.52,3.87,40.76,7.85,60.71,11.92,9.05-2.25,15.99-9.47,17.71-18.43,2.45-12.75-7.09-21.6-7.59-22.04Z"
      fill="#b3b3b3" />
    <path
      d="M464.13,475.31c-2.74,11.23-.29,24.25,1.18,27.59,1.12,2.93,3.77,8.37,10.57,13.38,2.81,2.06,11.29,4.63,20.06,3.17,6.63-1.1,12.13-5.91,15.88-11.49,6.84-10.18,8.76-23.5,5.07-35.2-2.15-6.83-5.7-11.42-7.47-13.66-3.75-4.76-6.83-8.68-12.27-10.11-5.75-1.52-10.8,.62-13.52,1.77-5.98,2.53-9.39,6.59-11.76,9.48-1.66,2.03-5.81,7.17-7.73,15.07Z"
      fill="#e2e2e2" />
    <path d="M510.62,522.91c1.54-1.23,19.62-16.19,17.68-40.23-1.67-20.71-16.91-32.2-19.21-33.87" fill="none"
      stroke="#999" stroke-linecap="round" stroke-miterlimit="10" stroke-width="2" />
    <path
      d="M386.55,734.09c-.23,11.95-.45,23.9-.68,35.85-22.76,2.62-45.51,5.24-68.27,7.87,2.15-5.6,4.69-14.22,4.98-24.97,.34-12.82-2.67-23-4.98-29.03,22.98,3.43,45.96,6.86,68.94,10.29Z"
      fill="#ccc" />
    <path
      d="M440.65,771.05c.23-11.95,.45-23.9,.68-35.85,22.76-2.62,45.51-5.24,68.27-7.87-2.51,3.88-7.4,12.62-7.95,24.73-.67,14.77,5.51,25.48,7.95,29.27-22.98-3.43-45.96-6.86-68.94-10.29Z"
      fill="#ccc" />
    <path
      d="M437.83,525.51c6.29,127.02,1.84,158.22,6.34,330.44,.59,22.44,3.8,46.6,3.96,58.99-3.35,2.1-11.25,6.68-18.69,7.58-2.93,.36-5.01,.44-6.93,.31,0,0-11.58-2-16.04-4.34-4.7-2.46-10.43-8.04-21.34-17.58,.15-7.6,.2-12.48,0-22.94-.08-3.97,0-82.19,1.3-137.75,.66-28.08,.1-56.13-1.3-88.09-1.51-34.4,1.04-52.39-.32-77.5-1.44-26.52-3.37-64.11-5.26-109.16"
      fill="#f2f2f2" />
  </g>
  <g id="level3P">
    <ellipse cx="407.01" cy="169.34" rx="17.9" ry="11.11" fill="gray" />
    <ellipse cx="407.88" cy="262.91" rx="11.11" ry="16.67" transform="translate(-15.67 499.76) rotate(-62.02)"
      fill="gray" />
  </g>
  <g>
    <path
      d="M483.63,611.66c-3.03,4.45-6.67,9.27-11.04,14.22-5.47,6.21-10.91,11.29-15.85,15.41,4.55,4.55,9.1,9.1,13.65,13.65,2.97-4.05,8.3-10.17,16.73-14.97,4.8-2.73,9.31-4.31,12.92-5.25"
      fill="#e2e2e2" />
    <path
      d="M280.15,635.47c3.21,4.69,6.67,9.5,10.38,14.41,4.15,5.47,8.27,10.61,12.33,15.41,5.14-3.08,10.27-6.16,15.41-9.25-4-5.99-8.47-13.78-12.33-23.34-3.93-9.72-6.13-18.58-7.4-25.76"
      fill="#e2e2e2" />
    <path
      d="M335.91,120.71c1.61,10.05,1.16,128.45,1.12,148.5-.06,32.93-8.52,130.41-10.72,145.21-3.54,23.81-5.41,35.98-10.72,48.73-10.6,25.46-17.1,31.27-20.47,33.13-9.62,5.32-20.37,4.4-26.31,3.9-9.08-.77-9.79-2.92-27.29-7.8-18.74-5.22-19.7-6.67-27.29-7.8-18.72-2.79-19.68-21.88-20.39-24.36-3.37-11.74,3-20.79,7.72-38.98,2.03-7.83,4.25-14.16,5.87-18.43-6.18-1.98-12.36-3.96-18.54-5.93-4.67,11.34-20.21,62.17-21.44,64.32-3.65-.68-9.14-2.56-15.73-7.05-6.71-4.58-12.46-9.11-14.41-12.3-4.27,6.66-7.5,12.68-11.77,19.35,2.49,.89,4.66,1.83,6.56,2.81,2.49,1.28,4.2,2.5,4.94,3,7.86,5.41,11.37,6.76,15.41,9.93,3.53,2.76,8.24,7.51,12.12,15.88-8.49,1.29-17.29,2.45-26.37,3.46-5.44,.6-10.8,1.12-16.06,1.57,.48,8.57,.96,17.15,1.44,25.72,6.08-.57,51.67-5.96,60.42-5.85,13.63,.17,49.43,9.49,58.47,14.62,21.36,12.11,21.69,27.06,18.52,42.88-1.36,6.77-9.7,31.09-33.13,43.85-5.93,3.23-38.8,10.08-50.68,9.75-10.05-.28-41.61-3.22-46.78-2.92l.47,15.59c4.6,.4,9.28,.86,14.05,1.39,7.63,.85,15.01,1.84,22.15,2.93-4.97,2.82-10.69,5.69-17.14,8.36-8.5,3.51-16.42,5.89-23.33,7.52,3.37,8.34,2.09,5.16,5.46,13.51,8.51-3.97,15.59-6.73,20.38-8.49,13.63-5,48.9-22.57,63.11-11.7,10.87,13.38-14.45,54.94-17.21,60.49q-6.68,13.41-37.93,51.02c-19.25,10.54-35.01,11.77-37.33,11.88-2.31,.11-4.24,.1-5.64,.08,.42,6.76,.85,13.52,1.27,20.28,3.47-.4,12.38-2.88,24.6-6.4,11.92-3.44,17.9-7.47,21.93-9.83,1.65-.97,2.98-1.82,3.88-2.42-2.26,3.96-13.33,20.13-15.51,23.03-3.96,5.27-10.46,15.24-13.82,20.6-1.22,1.95-2.24,3.55-2.91,4.61,4.85,3.1,9.7,6.2,14.55,9.3,3.53-7.58,8.64-16.76,16.04-26.3,5.72-7.38,11.53-13.31,16.72-17.97-.22,3.15-4.47,47.41-4.65,49.75,6.54,.73,13.09,1.45,19.63,2.18,.28-3.05,.49-49.15,.48-55.75,4.63,4.43,14.32,18.53,16.72,24.72,1.56,4.01,8.31,14.96,10.18,16.48,5.74-5.09,11.47-10.18,17.21-15.27-5.14-5.11-25.51-17.63-29.81-45.32-4.06-26.12,18.63-53.82,30.78-76.95,10.87-20.69,25.2-43.54,32.48-53.56,10.22-14.08,47.94-75.09,54.29-87.74,3.31-6.58,35.36-57.38,39.02-60.35,4.59,3.6,32.74,32.28,45.69,46.54,8.71,9.59,7.32,7.27,24.24,24.96,6.37,6.66,9.48,10.04,27.63,29.57,16.16,17.38,45.48,60.93,55.02,79.38,10.55,20.4,11.79,20.83,14.78,29.08,1.51,4.17,5.08,14.76,6.54,28.6,.9,8.48,.83,16.52,.73,28.12-.04,4.72-.15,8.65-.24,11.39,6.22,.32,12.44,.65,18.66,.97-.12-4.13-.3-10.43-.48-18.18-.25-10.27-.24-11.9-.48-16.24-.54-9.57-.8-14.36-1.7-18.91-1.15-5.85-2.17-7.73-1.21-8.48,2.85-2.22,16.47,10.64,20.6,14.54,7.99,7.55,5.93,7.21,12.6,13.09,.46,.41,2.64,2.49,4.2,4.05,2.87,2.88,3.57,4.02,6.93,7.79,1.24,1.39,3.14,3.48,5.59,5.98,6.3-4.52,8.25-7.24,14.56-11.76-2.52-2.37-6.12-5.77-10.42-9.94-7.57-7.34-9.62-9.57-11.39-11.63-5.33-6.2-1.95-3.56-8.73-12.36-1.14-1.48-2.1-2.68-1.7-3.39,.94-1.65,8.46,.64,12.85,2.42,2.88,1.18,4.25,2.07,8.48,3.64,2.13,.79,3.91,1.35,5.09,1.7,3.55-6.62,7.11-13.25,10.66-19.87-3.51-.99-8.62-2.46-14.78-4.36-7.1-2.19-10.92-3.38-16-5.33-7.16-2.76-10.83-4.01-15.03-7.03-19.71-14.18-30.65-32.33-31.75-33.45-5.78-5.86-22.24-36.55-25.81-47.63-2.25-6.98-3.89-9.62-6.54-19.15-.42-1.52-.75-2.78-.97-3.64,3.51,.52,8.99,1.26,15.75,1.94,7.7,.77,11.01,.84,17.21,1.45,4.79,.47,51.91,7.82,66.65,13.09,17.79,6.36,20.56,6.49,30.05,10.66,2.47,1.09,10.73,5.43,18.66,9.69,5.34,2.87,8.74,4.24,12.72,5.57,2,.67,3.69,1.15,4.85,1.45,2.99-5.9,5.98-11.8,8.97-17.69-3.72-2.34-7.43-4.69-11.15-7.03-3.17-2-6.88-4.02-11.15-5.82-1.75-.74-3.45-1.38-5.09-1.94,5.82-.16,11.63-.32,17.45-.48,3.91-.84,8.86-1.43,14.54-.97,1.91,.15,3.69,.41,5.33,.73l-1.45-19.63c-3.87,.56-23.09,1.17-34.17,0-38.4-.2-66.4-7.73-89.68-18.66-.89-.42-4.77-3.31-5.94-8.73-1.13-5.26,1.17-9.31,1.7-10.18,2.28-5.13,5.61-12.86,9.34-22.39,7.92-20.22,7.6-23.81,9.24-27.12,0,0,.79-1.43,1.83-2.77,4.06-5.2,44.7-43.08,47.27-45.49-5.31-3.1-10.61-6.2-15.92-9.3-1.4,2.4-3.51,5.71-6.41,9.4-4.8,6.1-9.79,10.71-14.11,14.11-5.65,4.58-11.29,9.17-16.94,13.75-1.12-3.98,0-19.48,.59-22.55,.05-.26-.14-.5-.41-.52-7.78-.44-14.66-.21-22.48-.68-.47,3.76,.08,28.21,.24,38.3,.05,2.98,.08,9.7-.73,18.18-.95,10.03-8.47,27.78-14.78,35.39-9.48,11.42-12.72,12.99-14.06,13.57-4.98,2.16-9.37,1.78-15.27,1.21-2.7-.26-43.69-15.5-50.17-19.75-5.19-3.41-36.05-29.54-39.02-32.72-9.61-10.3-12.63-23.06-18.66-48.6-2.4-10.14-5.63-23.82-6.79-42.17-1.06-16.87-1.68-30.96-1.7-37.33-.02-10.67,1.33-231.68,1.93-238.63-23.88-2.09-46.17-.75-70.53,1.35Z"
      fill="#e2e2e2" />
    <path
      d="M411.84,114.02c-.76,5.38-4.59,9.95-9.22,12.79-4.63,2.83-10.02,4.14-15.37,5.11-10.67,1.94-21.55,2.68-32.38,2.21-6.09-.27-12.53-1.05-17.32-4.81-4.8-3.76-6.98-11.44-3.02-16.07,3-1.79,7.54-4.14,13.39-5.8,5.84-1.65,8.17-1.25,17.89-2.2,10.22-1,13.7-2.29,26.21-2.96,5.45-.3,12.16-1.19,15.8,2.88,4.72,5.28,2.54,3.69,4.02,8.86Z"
      fill="#c6c5c5" />
    <path
      d="M336.98,160.67c2.59,1.37,5.73,.7,8.66,.7s6.46,1.3,6.85,4.2c.32,2.33-1.69,4.43-3.92,5.18-2.22,.76-4.64,.55-6.99,.63s-4.88,.54-6.48,2.26c-2.92,3.14-.77,8.73,3.06,10.65,3.83,1.92,8.42,1.21,12.58,.17,20.6-5.14,38.83-16.98,56.16-29.25,2.69-1.91,5.48-3.95,6.93-6.92s.99-7.13-1.85-8.82c-3.29-1.95-7.36,.29-10.7,2.16-5.32,2.98-11.13,5.06-17.12,6.2-6.04,1.15-12.25,1.36-18.35,.61-2.83-.35-5.62-.9-8.35-1.73-1.8-.54-3.56-1.22-5.4-1.6-4.67-.97-10.68-.53-14.64,2.31-3.81,2.73-5.49,8.68-1.79,12.29,.39,.39,.84,.72,1.33,.97Z"
      fill="#c6c5c5" />
    <path
      d="M403.38,174.23c-2.85,.46-5.44,1.86-8.02,3.14-13.08,6.52-27.27,10.8-41.78,12.61-4.39,.55-8.95,.92-12.83,3.05-3.88,2.14-6.86,6.66-5.66,10.91,.78,2.75,3.15,4.83,5.79,5.92,2.64,1.09,5.55,1.33,8.4,1.46,17.83,.77,35.82-2.58,52.17-9.72,3.09-1.35,6.22-2.91,8.34-5.53,2.52-3.12,3.15-7.19,3.02-11.09-.07-2.07-.34-4.13-.68-6.16-.28-1.65-.71-2.44-2.12-3.37-1.94-1.27-4.36-1.6-6.62-1.23Z"
      fill="#c6c5c5" />
    <path
      d="M347.84,220.46c-4.33,.08-9.16,.37-12.11,3.53-2.81,3.01-2.88,7.94-.81,11.5s5.89,5.84,9.87,6.88,8.16,.99,12.28,.82c13.66-.55,27.27-2.27,40.64-5.12,3.75-.8,7.58-1.74,10.69-3.98,4-2.89,6.07-8,3.55-12.53-1.73-3.1-4.77-3.1-7.93-2.69-5.12,.66-10.18,.75-15.34,.85l-19.26,.35-19.18,.35-2.4,.04Z"
      fill="#c6c5c5" />
    <path
      d="M347.52,269.05c.42,.04,.84,.08,1.26,.12l15.83,1.47c1.32,.12,2.64,.24,3.96,.37,.95,.09,1.83,.43,2.77,.47,2.62,.1,5.29-.06,7.91-.19,5.06-.24,10.1-.7,15.12-1.39,6.44-.88,8.65-2.71,13.45-7.1,3.07-2.8,5.15-6.88,4.87-11.03s-3.24-8.17-7.3-9.03c-2.76-.59-5.61,.25-8.33,1.02-11.24,3.15-18.28,5.49-29.93,6.2-6.08,.37-12.18,.4-18.26,.1-1.68-.08-3.39,.04-4.92-.72-3.31-1.65-7.68-.07-9.93,2.69s-2.68,7.06-.92,10.24c1.44,2.61,4.09,4.38,6.9,5.36,2.42,.84,4.97,1.17,7.52,1.42Z"
      fill="#c6c5c5" />
    <path
      d="M408.27,277.72c-2.54-1.48-5.98-1.43-8.74-.6-1.3,.39-2.48,1.1-3.78,1.49-1.99,.59-4.08,.32-6.11,.19l-15.86-1.05c-3.44-.23-6.88-.45-10.33-.58-4.98-.19-9.98-.2-14.94,.27-2.46,.23-4.91,.58-7.33,1.07-1.21,.25-2.42,.53-3.61,.86-1.75,.48-2.87,.99-4.31,2.21-2.53,2.15-4.18,5.58-3.49,8.83,.58,2.73,2.69,4.94,5.14,6.26s5.24,1.89,7.98,2.36c16.83,2.88,34.15,2.89,50.99,.03,3.71-.63,7.45-1.42,10.77-3.19s6.2-4.65,7.19-8.28-.31-7.97-3.56-9.87Z"
      fill="#c6c5c5" />
    <path
      d="M369.68,308.24l28.34-1.82c3.74-.24,7.59-.47,11.14,.73s6.77,4.18,7.06,7.91c.42,5.34-4.9,9.28-9.89,11.22-4.6,1.79-9.44,2.87-14.26,3.94-13.08,2.91-26.15,5.82-39.23,8.73-3.36,.75-6.8,1.5-10.22,1.14-6.2-.66-11.78-5.32-13.55-11.3s.4-12.92,5.25-16.84c5.43-4.39,13.04-4.73,20.01-4.2s14.13,1.71,20.81-.34"
      fill="#c6c5c5" />
    <path
      d="M336.02,348.39c-3.51,.84-7.52,2.21-8.66,5.59-1.06,3.18,1.17,6.69,4.17,8.26s6.53,1.68,9.92,1.76l48.97,1.1c3.52,.08,7.09,.15,10.49-.72s6.68-2.84,8.31-5.91c2.58-4.85,.45-10.79-2.96-14.69-2.42-2.77-5.69-3.07-9.2-3.03-6.29,.07-12.59,.4-18.86,.91-6.72,.55-13.42,1.34-20.08,2.38s-13.28,2.31-19.85,3.82c-.76,.17-1.51,.35-2.27,.53Z"
      fill="#c6c5c5" />
    <path
      d="M347.79,370.95c-3.92,.03-7.91,.07-11.66,1.29s-7.27,3.82-8.73,7.62c-2.38,6.2,1.67,13.46,7.28,16.68s12.31,3.43,18.72,3.56l29.11,.6c5.91,.12,12.01,.21,17.51-2.06s10.31-7.52,10.34-13.69c.02-4.32-2.39-8.17-5.58-10.75-3.79-3.06-8.47-4.21-13.21-4.17-4,.03-8,.5-12,.63s-8.21,.11-12.32,.15l-17.28,.14-2.19,.02Z"
      fill="#c6c5c5" />
    <path
      d="M348.81,404.67c-5.46-.05-11.09-.07-16.12,2.04s-9.36,6.91-9.14,12.36c.18,4.58,3.52,8.57,7.54,10.75s8.67,2.88,13.22,3.41c13.3,1.56,26.73,2.03,40.11,1.43,5.15-.23,10.35-.64,15.25-2.26s9.51-4.57,12.22-8.95,3.2-10.31,.44-14.66c-2.04-3.2-5.73-4.92-9.46-4.92-1.36,0-2.58,.34-3.87,.72-1.76,.51-3.51,.5-5.33,.48l-28.74-.26-16.12-.14Z"
      fill="#c6c5c5" />
    <path
      d="M319.2,443.5c4.1-3.55,9.8-4.57,15.21-4.75,24.04-.8,47.89,12.18,71.37,6.91,3.3-.74,6.54-1.83,9.91-2.05s7.02,.61,9.28,3.11c3.73,4.13,2.08,11.01-1.7,15.09s-9.1,6.29-13.81,9.26c-7.77,4.89-14.07,12.07-17.91,20.41-1.96,4.27-3.32,8.87-6.08,12.67s-7.45,6.74-12.02,5.66c-3.64-.86-6.32-4.04-7.79-7.48s-1.99-7.19-2.94-10.8c-2.68-10.21-8.98-19.43-17.52-25.64-5.37-3.9-11.61-6.59-18.11-7.9-3.02-.61-6.09-.54-9.11-1.03-2.5-.41-3.11-2.37-3.02-4.7,.12-3.31,1.74-6.6,4.24-8.77Z"
      fill="#c6c5c5" />
    <path
      d="M320.15,467.53c-6.07-2.61-13.87-2.14-18.44,2.63-4.76,4.96-4.7,13.1-1.72,19.3s8.3,10.89,13.48,15.41l12.63,11.02c4.5,3.92,9.68,8.09,15.63,7.68,2.9-.2,4.82-1.66,7.14-3.17,.43-.28,.92-.45,1.33-.77,1.14-.89,1.83-2.56,2.28-3.9,1.02-3.07,.92-6.49,0-9.57-1.41-4.74-4.47-8.78-7.62-12.59-1.43-1.73-2.89-3.43-4.26-5.21s-2.53-3.75-3.77-5.67c-.4-.62-.96-1.01-1.46-1.53-.68-.7-1.23-1.56-1.83-2.33-1.29-1.64-2.65-3.24-4.13-4.73-2.67-2.7-5.74-5.07-9.25-6.58Z"
      fill="#c6c5c5" />
    <path
      d="M393.69,504.44c-1.55,2.43-3,5.07-3.27,8.02s.94,6.25,3.44,7.38c3.18,1.44,6.62-1.04,9.32-3.39,3.84-3.35,7.69-6.69,11.53-10.04,.88-.77,1.75-1.21,2.71-1.82,1.46-.91,2.88-1.88,4.27-2.92,2.78-2.06,5.41-4.35,7.87-6.85,2.66-2.7,5.12-5.63,7.33-8.77,1.09-1.54,2.14-3.17,2.6-5.04s.23-4.07-1-5.47c-1.73-1.97-4.63-1.74-7.07-1.16-6.51,1.55-12.72,4.56-18.17,8.75-2.7,2.08-4.99,4.56-7.49,6.87-2.66,2.45-5.15,5.11-7.44,7.98-1.65,2.06-3.19,4.22-4.63,6.47Z"
      fill="#c6c5c5" />
    <path
      d="M414.88,526.8c-1.55,1.6-3.08,3.29-4.04,5.33s-1.27,4.51-.34,6.56c1.14,2.54,3.97,3.93,6.68,4.04s5.36-.87,7.86-1.98c13.95-6.2,25.82-17.25,33.17-30.92,.89-1.65,1.72-3.38,1.9-5.25s-.44-3.93-1.95-4.99c-2.02-1.42-4.76-.63-7.01,.36-2.97,1.32-5.82,2.92-8.5,4.79-2.18,1.52-4.25,3.2-6.41,4.74-4.41,3.15-8.92,6.14-13.09,9.63-2.89,2.41-5.65,4.98-8.28,7.69Z"
      fill="#c6c5c5" />
    <path
      d="M446.71,545.04c-.72,2.5-1.14,5.16-2.48,7.36-1.75,2.88-4.89,4.66-6.25,7.76-1.17,2.63-.77,5.91,.82,8.29,1.59,2.37,4.26,3.83,7,4.03,4.95,.38,9.41-2.97,13.21-6.35,8.39-7.46,15.97-15.94,22.57-25.22,2.17-3.06,4.33-6.53,4.12-10.35-.24-4.22-3.53-7.8-7.36-8.98-3.83-1.18-8-.27-11.58,1.59-3.47,1.81-6.33,4.58-9.58,6.75-3.13,2.09-5.73,5.24-7.66,8.56-1.19,2.05-2.13,4.26-2.8,6.56Z"
      fill="#c6c5c5" />
    <path
      d="M468.24,575.46c-2.86,3.35-5.72,6.95-6.33,11.13-.61,4.18,1.82,9.05,6.43,10.15,4.8,1.14,9.37-2.03,12.88-5.1,15-13.08,27.65-28.28,37.35-44.86,1.26-2.15,2.48-4.38,2.75-6.8s-.61-5.09-2.86-6.51c-2.03-1.29-4.8-1.32-7.13-.58s-4.29,2.15-6.14,3.6c-5.73,4.51-10.52,9.7-14.97,15.21-3.92,4.86-8.65,9.12-12.96,13.7-3.1,3.29-6.11,6.64-9.03,10.06Z"
      fill="#c6c5c5" />
    <path
      d="M528.93,540.76c-2.89,8.74-2.63,18.23,.73,26.85,1.54,3.94,3.88,7.88,7.9,10.23s10.03,2.6,13.44-.37c2.49-2.16,3.08-5.42,3.27-8.45,.24-3.99-.02-8-.77-11.95s-1.98-7.86-3.66-11.61c-1.49-3.31-3.24-6.75-5.69-9.63-1.76-2.07-4.2-3.63-7.32-2.99-3.96,.82-6.21,3.55-7.45,6.69-.16,.4-.3,.81-.44,1.22Z"
      fill="#c6c5c5" />
    <path
      d="M558.85,543.14c4.31,6.25,8.52,13.18,8.36,20.77-.06,3.08-.86,6.14-.69,9.22s1.62,6.41,4.51,7.47c3.82,1.39,7.79-1.81,9.98-5.23,4.77-7.43,5.73-17.17,2.51-25.39-2.27-5.79-6.37-10.64-10.41-15.37l-9.74-11.43c-2.18-2.55-4.6-5.26-7.88-5.96-3.58-.76-7.72,2.23-6.73,6.09,1.21,4.72,2.91,8.89,5.51,13.04,1.45,2.31,3.03,4.55,4.58,6.8Z"
      fill="#c6c5c5" />
    <path
      d="M519.55,576.28c-2.34,.17-4.52,1.52-6.59,2.94-10.52,7.24-20.01,16.97-27.84,28.55-1.29,1.91-2.57,3.94-3.06,6.39s0,5.4,1.67,6.74c1.83,1.48,4.21,.55,6.22-.46,9.2-4.64,18.07-10.36,26.46-17.08,3.37-2.69,6.76-5.68,8.83-10.03,1.36-2.87,2.02-6.43,1.54-9.76-.38-2.65-1.14-4.4-2.89-5.81-1.31-1.05-2.78-1.59-4.33-1.48Z"
      fill="#c6c5c5" />
    <path
      d="M500.48,623.03c-1.82,1.34-3.64,2.79-4.81,4.76s-1.54,4.62-.38,6.6c2.07,3.52,7.11,2.85,10.88,1.59,16.81-5.58,14.44-3.09,28.65-13.98,1.99-1.53,2.07-3.23,3.2-5.52s1.12-5.39-.68-7.15c-2.11-2.07-5.23-3.59-8.01-2.73-6.88,2.13-4.01,1.4-10.31,4.98-5.9,3.36-1.77,.71-7.63,4.19-3.75,2.23-7.39,4.65-10.91,7.26Z"
      fill="#c6c5c5" />
    <path
      d="M514.22,640.67c-2.21,1.92-4.28,4.22-4.92,7.07s.65,6.3,3.42,7.23c2.37,.79,4.9-.4,7.09-1.6,11.97-6.53,7.81-5.03,18.55-13.44,1.64-1.29,3.31-2.65,4.32-4.48s1.48-4.55-.11-5.91c-2.78-2.39-3.84-2.26-5.26-1.67-1.79,.74-3.62,1.32-5.29,2.29-5.04,2.93-7.89,3.95-9.32,4.66-2.24,1.11-6.21,3.89-8.48,5.85Z"
      fill="#c6c5c5" />
    <path
      d="M547.99,643.69l-.49,.27c-1.47,.8-2.96,1.57-4.44,2.35s-2.98,1.66-4.52,2.36l-9.13,4.77-2.28,1.19c-.73,.38-1.52,.72-2.2,1.17-.41,.27-.64,.69-.99,1.01-1.22,1.09-2.41,2.15-3.46,3.38-1.1,1.29-2.06,2.69-2.86,4.16-1.06,1.96-1.56,4.81,.51,5.91,1.16,.62,2.62,.35,3.92,.03,11.86-2.93,22.92-8.52,31.92-16.14,1.92-1.62,3.81-3.44,4.56-5.72s0-5.15-2.34-6.24c-2.59-1.22-5.68,.17-8.19,1.52Z"
      fill="#c6c5c5" />
    <path
      d="M532.76,677.27c-1.19,1.02-2.39,2.09-3.1,3.45s-.83,3.1,.09,4.34c1.01,1.36,3.02,1.78,4.75,1.45s3.24-1.28,4.7-2.21l22.39-14.19c2.79-1.77,5.66-3.61,7.45-6.3,.89-1.34,1.43-2.9,1.5-4.49,.05-1.08,0-3.08-1.3-3.54-1.19-.42-2.77,.51-3.8,.97-1.63,.72-3.24,1.48-4.84,2.26-6.42,3.16-12.58,6.81-18.38,10.91-3.27,2.31-6.43,4.76-9.46,7.35Z"
      fill="#c6c5c5" />
    <path
      d="M565.12,700.21c10.19-3.96,17.28-14.79,16.83-25.72-.1-2.3-.67-4.86-2.63-6.07-1.59-.98-3.71-.74-5.37,.12s-2.96,2.27-4.23,3.65l-7.93,8.59c-2.56,2.77-5.2,5.69-6.21,9.33s.19,8.19,3.64,9.73c2.03,.91,4.43,.61,6.46-.29s3.76-2.33,5.47-3.75"
      fill="#c6c5c5" />
    <path
      d="M551.88,699.42c2.16,.72,4.45,2.02,4.95,4.24,.51,2.26-1.04,4.41-2.5,6.2-1.45,1.78-2.94,3.58-4.87,4.82s-4.42,1.83-6.55,.99c-2.36-.92-3.76-3.3-4.98-5.52l-3.23-5.86c-.72-1.31-2.11-2.92-.42-4.01,1.5-.97,3.6-1.37,5.32-1.68,1.94-.36,3.92-.48,5.89-.38s4.57,.3,6.39,1.2Z"
      fill="#c6c5c5" />
    <path
      d="M554.8,719.75c-3.38,1.64-5.53,5.56-4.95,9.27,.45,2.85,2.51,5.43,5.24,6.38s6.01,.16,7.92-2.01c2.27-2.58,2.72-6.86,2.63-10.17-.03-1.2-.21-2.55-1.3-3.25-.98-.63-2.32-.69-3.43-.89-2.09-.37-4.18-.28-6.11,.66Z"
      fill="#c6c5c5" />
    <path
      d="M550.78,737.41c2.59,.54,5.12,2.02,6.25,4.41,.99,2.1,.78,4.6-.05,6.77-1.07,2.81-3.28,5.32-6.18,6.1s-6.41-.56-7.53-3.35c-.55-1.36-.5-2.87-.45-4.34l.17-4.85c.03-.81,.06-1.62,.08-2.42,.02-.55-.09-1.31,.19-1.82,.5-.93,2.12-.75,3-.79,1.55-.07,3,.09,4.52,.28Z"
      fill="#c6c5c5" />
    <path
      d="M557.63,755.18c-1.18,2.03-1.06,4.75,.3,6.67s3.88,2.94,6.19,2.5c.29-.05,.75-1.65,.84-1.93,.23-.69,.4-1.39,.5-2.11,.21-1.45,.17-2.94-.13-4.38-.2-.96-.48-2.38-1.23-3.09s-2.06-.55-2.97-.31c-1.44,.39-2.74,1.35-3.49,2.64Z"
      fill="#c6c5c5" />
    <path
      d="M610.5,748.07c-1.34,1.48-2.51,3.57-1.82,5.48,.48,1.33,1.8,2.18,3.13,2.4s2.69-.09,3.99-.47c2.84-.84,5.67-2.11,7.74-4.34,1.27-1.37,2.21-3.13,2.56-5.02,.21-1.12,.47-3.29-.67-4-1.24-.76-3.66-.11-4.97,.18-1.76,.38-3.47,1.03-5.06,1.9-1.82,1-3.49,2.31-4.91,3.88Z"
      fill="#c6c5c5" />
    <path
      d="M551.37,773.56c3.3,.62,7.01,.42,10.08-.54,1.71-.54,3.36-1.45,3.42-2.61,.07-1.36-2.01-2.4-4.1-2.92-3.33-.83-7.14-.81-10.52-.09-1.72,.37-3.36,.92-4.74,1.64-.59,.31-1.32,.68-1.19,1.2s1.03,.98,1.6,1.32c1.52,.91,3.4,1.61,5.45,2Z"
      fill="#c6c5c5" />
    <path
      d="M617.36,709.24c-.1,1.66,.15,3.63,1.47,4.41,1.32,.78,2.93-.08,4.15-1.05,2.57-2.04,4.78-4.63,6.49-7.58,.86-1.47,1.59-3.03,2.18-4.66,.54-1.48,1.22-3.25,1.25-4.86,.04-3-2.95-4.27-5.19-3.28-2.72,1.2-5.17,3.92-6.85,6.51-2,3.07-3.27,6.72-3.5,10.51Z"
      fill="#c6c5c5" />
    <path
      d="M603.64,733.51c-.11,2.31,.58,4.71,2.15,6.4s4.09,2.56,6.3,1.89,3.89-3,3.53-5.28c-.22-1.41-1.1-2.6-1.91-3.73-.9-1.24-1.79-2.53-2.84-3.65-1.86-2-4.12-2.18-5.87,.15-.9,1.2-1.3,2.73-1.37,4.22Z"
      fill="#c6c5c5" />
    <path
      d="M597.11,727.5c1.24,1.91,1.7,4.22,1.96,6.48,.13,1.1,.17,2.37-.61,3.16-1,1.01-2.7,.64-3.98,.04-2.85-1.35-6.16-3.96-7.24-7.04s2.57-6.19,5.48-5.7c1.82,.3,3.41,1.55,4.39,3.06Z"
      fill="#c6c5c5" />
    <path
      d="M588.56,710.39c-1.73,1.66-2.79,4.26-1.97,6.51,.74,2.05,2.86,3.34,5,3.72s4.34,0,6.49-.37c1.16-.2,2.6-.69,2.71-1.86,.05-.53-.22-1.03-.47-1.5l-2.39-4.39c-.57-1.05-1.15-2.1-1.77-3.12-.38-.62-1.04-2.19-1.86-2.23s-2.26,.93-2.99,1.32c-.99,.53-1.94,1.15-2.75,1.93Z"
      fill="#c6c5c5" />
    <path
      d="M571.67,702.86c2.92-1.81,7.22-1.91,9.43,.73,1.25,1.5,1.61,3.58,1.39,5.52s-.95,3.77-1.68,5.58c-.9,2.23-2.3,4.84-4.71,4.9-1.51,.04-2.82-1-3.97-1.98l-3.53-3c-.96-.81-2.58-1.74-3.13-2.9-.46-.98,.2-1.96,.7-2.78,.69-1.11,1.44-2.21,2.28-3.21,.93-1.1,1.99-2.1,3.21-2.86Z"
      fill="#c6c5c5" />
    <path
      d="M584.32,685.81c-.58,3.45,.92,7.52,4.21,8.69,1.77,.63,3.77,.34,5.49-.41s3.24-1.9,4.72-3.05c1.17-.9,2.35-1.81,3.2-3.01s1.33-2.75,.93-4.16c-.57-1.99-2.61-3.11-4.47-4.01l-4.57-2.23c-1.13-.55-2.65-1.65-3.98-1.52-.94,.1-1.39,.93-1.81,1.67-.66,1.16-1.41,2.27-2.05,3.44-.78,1.44-1.41,2.97-1.68,4.59Z"
      fill="#c6c5c5" />
    <path
      d="M602.05,698.09c1.16-1.31,2.34-2.65,3.87-3.5s3.48-1.16,5.01-.33c1.36,.73,2.17,2.23,2.46,3.74s.12,3.08-.05,4.61c-.16,1.41-.32,2.84-.87,4.15s-1.56,2.49-2.91,2.92c-2.62,.82-5.72-1.27-8.12-2.12-2.25-.79-2.94-3.01-2.2-5.27,.53-1.62,1.7-2.94,2.81-4.2Z"
      fill="#c6c5c5" />
    <path
      d="M590.88,573.7c-.56,2.54-.82,5.7,1.27,7.26,1.48,1.1,3.65,.85,5.2-.15s2.58-2.62,3.45-4.25c3.6-6.72,5.14-14.53,4.37-22.12-.2-1.93-.7-4.46-2.78-5.23-1.82-.67-3.27,1.11-4.08,2.49-1.21,2.07-2.02,4.46-2.86,6.7s-1.69,4.7-2.41,7.09c-.82,2.71-1.54,5.45-2.15,8.22Z"
      fill="#c6c5c5" />
    <path
      d="M613.31,555.7c-2.44,2.02-2.66,5.63-2.69,8.8l-.14,16.8c-.01,1.77,0,3.64,.94,5.14,1.38,2.17,4.48,2.82,6.87,1.86s4.07-3.2,4.97-5.62,1.1-5.02,1.29-7.58l.62-8.16c.18-2.31,.58-4.73,.39-7.05-.27-3.22-2.42-4.84-5.46-5.39-1.14-.21-2.3-.32-3.46-.16-.62,.08-1.24,.24-1.82,.48-.22,.09-1.5,.62-1.5,.9Z"
      fill="#c6c5c5" />
    <path
      d="M630.06,580.81c-.72,3.77-1.44,7.7-.41,11.39s4.4,7.04,8.22,6.69c2.24-.2,4.25-1.65,5.54-3.49s1.97-4.06,2.39-6.27c.84-4.61,.79-9.27,.47-13.93-.16-2.33-.36-4.67-.56-7-.16-1.87-.27-3.67-1.07-5.39-1.1-2.37-3.41-5-6.23-5.1-3.7-.13-4.75,4.41-5.31,7.23-1.04,5.29-2.04,10.58-3.06,15.88Z"
      fill="#c6c5c5" />
    <path
      d="M654.01,560.48c-2.47,1.92-3.07,5.41-2.93,8.54,.2,4.68,1.65,9.3,4.15,13.26,1.33,2.11,3.45,4.24,5.92,3.86,1.49-.23,2.72-1.37,3.41-2.71s.93-2.86,1.11-4.36c.54-4.66,.54-9.39,.02-14.05-.14-1.27-.12-2.99-.92-4.06-.92-1.24-2.98-1.59-4.39-1.81-2.18-.34-4.58-.07-6.37,1.32Z"
      fill="#c6c5c5" />
    <path
      d="M697.73,570.85c-.24,2.56-.16,5.13,.24,7.67,.21,1.36,.63,2.86,2,3.61,1.4,.77,2.96,2.07,4.24,1.17s2.41-3.88,2.92-5.22c1.47-3.81,1.77-8.33,.16-12.16-.54-1.28-1.45-2.97-3.1-3.47-1.92-.58-3.61,1.03-4.49,2.25-1.34,1.83-1.78,4.02-1.97,6.13Z"
      fill="#c6c5c5" />
    <path
      d="M681.8,615.87c2.91,3.07,7.39-.99,9.73-3.27,1.57-1.53,3-3.29,4.27-5.22,.86-1.31,1.43-2.73,1.19-4.47-.43-3.18-2.99-5.54-5.41-5.95-3.26-.55-6.16,2.99-8.03,5.96s-4.25,8.08-2.49,11.84c.2,.42,.45,.79,.74,1.11Z"
      fill="#c6c5c5" />
    <path
      d="M655.74,590.92c1.97,.55,3.43,2.31,4.13,4.24s.75,4.02,.74,6.07c0,1.67-.22,3.63-1.66,4.46-1.32,.77-2.98,.17-4.39-.43-1.93-.83-3.93-1.57-5.81-2.52-1.12-.56-2.05-1.43-2.22-2.73-.36-2.74,1.91-6.31,4-7.86,1.47-1.1,3.4-1.73,5.22-1.22Z"
      fill="#c6c5c5" />
    <path
      d="M667.35,605.81l11.02-8.86c.82-.66,1.65-1.33,2.22-2.22s.83-2.03,.42-3c-.69-1.63-3.27-2.88-4.84-3.46s-2.93-.25-4.19,.78c-3.04,2.49-4.95,6.4-5.37,10.28-.12,1.09-.12,2.19,0,3.28,.03,.3,.77,3.17,.74,3.19Z"
      fill="#c6c5c5" />
    <path
      d="M673.1,573.58c1.04,2.11,3.43,3.63,5.74,3.2,.76-.14,1.47-.48,2.14-.88,2.19-1.33,3.95-3.5,4.46-6.01s-.34-5.35-2.38-6.91c-1.23-.94-2.75-1.37-4.25-1.63-.73-.13-1.52-.37-2.16-.04-.49,.25-.98,.71-1.41,1.06-1.79,1.43-2.4,3.67-2.75,5.86-.29,1.8-.22,3.7,.61,5.36Z"
      fill="#c6c5c5" />
    <path
      d="M684.67,583.17c-.03-2.23-.04-4.57,1.01-6.55s3.53-3.37,5.56-2.45c1.58,.72,2.35,2.53,2.69,4.24,.27,1.31,.37,2.69,.02,3.98s-1.22,2.49-2.46,3c-2.17,.89-4.56-.5-6.49-1.84"
      fill="#c6c5c5" />
    <path
      d="M576.17,520.43c1.66,.52,3.42,.88,5.14,.65s3.43-1.11,4.33-2.6c.95-1.57,.88-3.59,.2-5.29s-1.9-3.13-3.19-4.43c-4.03-4.06-8.96-7.21-14.33-9.17-2.44-.89-5.7-1.49-7.44,.97-1.22,1.72-1.36,4.61-.99,6.64,.7,3.81,4.88,6.14,7.6,8.43,2.55,2.14,5.5,3.8,8.68,4.8Z"
      fill="#c6c5c5" />
    <path
      d="M575.26,487.1c2.06-.53,4.07-1.44,5.59-2.93s2.51-3.6,2.33-5.72c-.25-2.91-2.67-5.32-5.45-6.23s-5.82-.56-8.64,.21c-2.22,.61-4.49,1.58-5.79,3.47-1.59,2.31-1.62,6.1-.59,8.67,.95,2.38,3.8,2.81,6.06,3.03s4.38,.04,6.49-.51Z"
      fill="#c6c5c5" />
    <path
      d="M582.07,488.1c-1.66,1.26-2.28,3.48-2.35,5.56-.09,2.61,.6,5.36,2.46,7.19s5.05,2.39,7.13,.82c1.49-1.13,2.15-3.1,2.14-4.97s-.59-3.69-1.17-5.47c-.26-.82-.56-1.74-1.24-2.3-.6-.49-1.37-.62-2.08-.87-1.7-.59-3.26-1.19-4.89,.05Z"
      fill="#c6c5c5" />
    <path
      d="M580.85,443.13c-2.25,1.19-3.63,3.62-4.16,6.1s-.33,5.06-.12,7.6l.51,6.23c.09,1.11,.18,2.23,.61,3.25s1.26,1.94,2.34,2.18c1.79,.4,3.42-1.09,4.49-2.57,2.42-3.34,3.87-7.35,4.26-11.46,.2-2.06,.13-4.15-.22-6.19-.23-1.35-.43-3.58-1.48-4.58-1.6-1.52-4.38-1.56-6.24-.58Z"
      fill="#c6c5c5" />
    <path
      d="M578.39,425.65c-2.85,.13-7.92,.31-10.36,1.53-2.44,1.22-4.06,3.87-2.8,5.97,.66,1.09,1.97,1.84,3.37,2.22s2.91,.44,4.39,.43c3.12-.01,6.23-.28,9.28-.79,2.25-.38,6.2-.35,6.99-2.12,.58-1.31-.09-3.23-1.19-4.3s-5.95-3.1-9.69-2.93Z"
      fill="#c6c5c5" />
    <path
      d="M571.72,454.65c-.46,2.42-1.71,4.61-3.16,6.6-.94,1.29-2.46,2.64-3.94,2.02-.98-.41-1.43-1.53-1.74-2.55-.71-2.38-1.18-4.84-1.39-7.32-.18-2.1-.58-4.94,.49-6.86,1.77-3.2,6.98-.7,8.54,1.52,1.33,1.89,1.63,4.37,1.21,6.6Z"
      fill="#c6c5c5" />
    <path
      d="M625.65,416.66c-.61,.65-.76,1.66-.58,2.55s.65,1.69,1.14,2.45c1.22,1.88,2.64,3.62,4.22,5.17,1.28,1.26,2.71,2.42,4.35,3.09s3.56,.83,5.18,.09c1.63-.73,2.91-2.48,2.8-4.36s-1.5-3.51-2.79-4.66c-.87-.78-1.9-1.21-2.97-1.63-1.75-.7-3.4-1.63-5.14-2.34s-4.67-2.03-6.22-.37Z"
      fill="#c6c5c5" />
    <path
      d="M614.91,428.11c-.89,1.97-1.26,4.13-1.62,6.26-.19,1.12-.34,2.39,.37,3.28,.94,1.19,2.77,.97,4.25,.64,1.99-.45,4.13-.98,5.43-2.56,1.44-1.75,1.4-4.37,.49-6.45-.76-1.74-2.05-3.3-3.41-4.61-.51-.5-1.08-.93-1.83-.71-.81,.24-1.55,1.02-2.09,1.64-.66,.75-1.19,1.61-1.6,2.51Z"
      fill="#c6c5c5" />
    <path
      d="M613.52,445.5c-1.87,3.23-1.05,6.69,1.75,7.31,1.38,.3,3.13-.03,4.77-.94,2.41-1.34,4.46-3.92,4.95-6.25,.53-2.49-.83-3.82-2.3-4.99-1.27-1.02-4.16,.2-5.96,1.46-1.29,.9-2.45,2.09-3.21,3.4Z"
      fill="#c6c5c5" />
    <path
      d="M609.52,449.13c-.52,1.99-2.09,3.72-4.07,4.28-2.98,.84-6.44-1.36-6.94-4.42-.46-2.8,1.82-5.64,4.1-7.03,2.42-1.47,5.09,.21,6.32,2.46,.77,1.42,1,3.14,.59,4.71Z"
      fill="#c6c5c5" />
    <path
      d="M599.86,456.55c-2.74,.33-4.98,1.86-6.86,3.46-1.89,1.62-3.62,3.47-4.11,5.63s.59,4.67,3.1,5.62c1.58,.59,3.47,.49,5.09-.02s3.01-1.4,4.27-2.35c2.42-1.83,4.47-3.96,6.05-6.28,.32-.47,.83-1.03,.73-1.59-.09-.49-.51-1.04-.8-1.46-.68-.96-1.71-1.76-2.92-2.3-1.37-.61-2.98-.9-4.55-.71Z"
      fill="#c6c5c5" />
    <path
      d="M336.49,540.07c-1.57-1.13-3.12-2.29-4.69-3.44-1.15-.84-2.51-1.17-3.62-2.03-3.05-2.35-5.99-4.87-8.87-7.42-8.65-7.66-16.33-16.2-24.34-24.5-1.83-1.89-3.77-3.86-6.28-4.65s-5.75,.05-6.74,2.5c-.55,1.35-.31,2.88-.02,4.31,4.24,20.8,19.46,39.03,39.17,46.92,4.02,1.61,8.5,2.82,12.65,1.59,4.04-1.19,7.81-5.86,6.3-10.23-.19-.56-.64-.9-1.1-1.24-.81-.61-1.65-1.21-2.47-1.81Z"
      fill="#c6c5c5" />
    <path
      d="M254.64,503.89c-2.43,3.36-3.25,7.59-4,11.66l-2.09,11.25c-.52,2.8-.84,6.2,1.36,8.02,1.6,1.32,4.02,1.19,5.84,.2s3.13-2.69,4.28-4.41c5.49-8.2,8.45-18.09,8.35-27.96-.01-1.14-.09-2.46-.89-3.35-.71-.79-1.89-.95-2.85-.61-2.25,.8-4.59,.84-6.68,2.13-1.29,.79-2.42,1.84-3.31,3.07Z"
      fill="#c6c5c5" />
    <path
      d="M273.96,536.92c4.16-.31,9.01,.12,11.39,3.55,1.81,2.6,1.52,6.22,.1,9.06s-3.79,5.06-6.11,7.22l-8.37,7.79c-2.4,2.23-5.31,4.63-8.55,4.08-3.52-.6-5.48-4.39-6.48-7.82-1.54-5.29-2.19-10.97-1.7-16.46,.14-1.6,.68-2.79,2.17-3.54,2.4-1.2,5.27-1.81,7.87-2.41,3.18-.73,6.42-1.23,9.67-1.47Z"
      fill="#c6c5c5" />
    <path
      d="M326.99,567.99c.42,1.35,.62,2.68,.23,4.03-1.92,6.67-5.37,12.9-10.01,18.07-1.5,1.67-3.22,3.28-5.37,3.92s-3.79-.19-5.68-.89c-3.06-1.15-5.48-3.49-7.78-5.74-3.94-3.87-7.9-7.87-10.33-12.83s-3.09-11.1-.37-15.9c3.1-5.47,10.02-7.96,16.26-7.21,6.24,.74,11.86,4.18,16.67,8.22,2.72,2.29,5.34,4.94,6.39,8.33Z"
      fill="#c6c5c5" />
    <path
      d="M268.69,581.39c-3.83-.63-7.85-.59-11.47,.8s-6.79,4.26-7.91,7.97c-1.35,4.46,.46,9.42,3.61,12.86s7.45,5.58,11.78,7.29c5.14,2.03,10.73,3.58,16.15,2.49s10.49-5.51,10.68-11.03c.16-4.77-3.07-8.22-5.82-11.71-2.3-2.92-5.35-4.73-8.74-6.22-2.64-1.16-5.43-1.99-8.27-2.45Z"
      fill="#c6c5c5" />
    <path
      d="M265.47,658.17c2.02,1.52,4.29,3.11,6.81,2.93,3.15-.23,5.54-3.41,5.59-6.56s-1.81-6.1-4.23-8.12-5.38-3.27-8.29-4.5l9.62,2.96c2.13,.66,4.32,1.32,6.54,1.14s4.5-1.41,5.27-3.5c.84-2.3-.41-4.93-2.29-6.49s-4.28-2.33-6.57-3.19c-8.95-3.34-17.21-8.53-24.08-15.16-4.45-4.29-8.69-9.4-14.66-11.02-5.1-1.39-10.8,.18-14.43,4.03-2.98,3.15-5.4,7.63-3.19,11.86,1.19,2.27,3.19,3.91,5.15,5.48,2.43,1.96,4.87,3.91,7.32,5.85,4.89,3.88,9.8,7.74,14.74,11.56s9.87,7.59,14.84,11.34c.62,.46,1.23,.93,1.85,1.39Z"
      fill="#c6c5c5" />
    <path
      d="M300.87,596.79c-3.04,1.71-5.19,4.7-6.53,7.91s-1.95,6.68-2.56,10.11c-.19,1.09-.38,2.22-.13,3.3s1.06,2.11,2.16,2.26c.91,.12,1.79-.36,2.56-.87,4.2-2.74,7.72-6.5,10.25-10.83,1.27-2.17,2.29-4.49,3.03-6.89,.5-1.62,1.92-4.73-.17-5.67-2.71-1.22-6.09-.75-8.62,.67Z"
      fill="#c6c5c5" />
    <path
      d="M196.23,624.79c-1.11,2.12-.55,4.68,.02,7l5.54,22.19c.35,1.41,.75,2.9,1.81,3.89,1.24,1.17,3.18,1.37,4.81,.84s2.98-1.67,4.14-2.92c4.21-4.52,6.43-10.83,5.97-16.99-.37-4.89-2.45-10.21-6.03-13.67-1.05-1.02-2.29-1.57-3.69-1.94-2.02-.54-4.19-1.35-6.28-1.47-2.4-.13-5.12,.81-6.29,3.05Z"
      fill="#c6c5c5" />
    <path
      d="M244.1,659.24c-2.18-1.38-4.38-2.76-6.84-3.54s-5.23-.87-7.52,.3c-3.92,2-5.29,7.19-4.28,11.48s3.84,7.88,6.6,11.31c3.47,4.32,7.7,9.01,13.24,9.08,4.14,.05,7.92-2.67,10.25-6.1,1.2-1.76,2.08-3.72,2.8-5.72,.6-1.68,1.44-3.63,1.56-5.43s-1.78-2.52-3.05-3.32l-6.05-3.82-6.71-4.24Z"
      fill="#c6c5c5" />
    <path
      d="M124.89,637c.15,1.26,.47,2.52,1.15,3.54s1.75,1.76,2.89,1.73c1.21-.02,2.31-.9,3.02-2.01s1.09-2.42,1.46-3.71c.5-1.74,1-3.5,1.04-5.32,.07-2.86-1.5-6.34-4.46-6.21-1.06,.05-1.84,.88-2.45,1.77-.92,1.32-1.66,2.81-2.13,4.4-.55,1.87-.75,3.87-.52,5.82Z"
      fill="#c6c5c5" />
    <path
      d="M125.36,672.98c.86,1.98,2.49,3.99,4.68,3.98,1.27,0,2.45-.73,3.23-1.71s1.21-2.2,1.48-3.42c.48-2.16,.51-4.46-.23-6.55-.98-2.79-3.91-5.75-7.18-5.18-2.78,.49-3.2,4.01-3.26,6.26s.37,4.54,1.27,6.63Z"
      fill="#c6c5c5" />
    <path
      d="M141.22,632.43c.65,2.35,2.49,4.53,4.91,4.84,1.79,.23,3.58-.6,4.95-1.77,1.35-1.15,2.41-2.68,2.8-4.41s.04-3.65-1.1-5.01c-1.3-1.54-3.44-2.17-5.45-2.1-1.84,.06-3.64,.62-5.37,1.22-.73,.25-.79,.57-.89,1.33-.12,.94-.22,1.89-.22,2.84,0,1.03,.1,2.07,.37,3.07Z"
      fill="#c6c5c5" />
    <path
      d="M154.25,635.39c.3-.54,.6-1.09,1.07-1.48s1.15-.6,1.71-.36c.52,.23,.82,.77,1,1.3,.7,2.01,.21,4.4-1.24,5.97-.95,1.03-3.08,2.33-4.56,1.79-1.86-.68-.35-2.93,.21-3.95l1.8-3.26Z"
      fill="#c6c5c5" />
    <path
      d="M145.09,659.88c1.87,1.62,4.97,2.1,6.73,.37,1.32-1.31,1.48-3.38,1.32-5.23-.14-1.58-.52-3.27-1.73-4.3-1.37-1.17-3.46-1.12-5.1-.37-1.41,.65-2.99,1.86-3.94,3.11s.14,2.93,.81,4.07c.51,.87,1.13,1.69,1.9,2.36Z"
      fill="#c6c5c5" />
    <path
      d="M165.92,651c1.56,.66,2.86,1.81,4.12,2.95,.93,.84,1.98,1.85,2.22,3.13s-.57,2.46-1.5,3.34c-1.57,1.49-3.47,2.66-5.69,2.74-4.77,.17-7.2-4.88-6.05-9.09,.87-3.17,3.97-4.32,6.9-3.08Z"
      fill="#c6c5c5" />
    <path
      d="M165.35,628.86c-.84,1.8-.84,3.9-.38,5.83s1.34,3.73,2.22,5.52c.65,1.33,1.57,2.84,3.04,2.94,.98,.06,1.87-.55,2.63-1.17,2.62-2.15,4.91-4.95,5.55-8.28,.51-2.62-.26-6.23-2.52-7.92-.75-.56-1.66-.7-2.57-.74-1.46-.07-3-.11-4.38,.44-1.57,.62-2.89,1.85-3.6,3.38Z"
      fill="#c6c5c5" />
    <path
      d="M181.74,650.13c-.87-2.05-1.23-4.4-.53-6.51s2.61-3.9,4.84-4.01c1.72-.09,3.37,.8,4.59,2.02s2.07,2.75,2.9,4.25c.92,1.66,1.86,3.61,1.13,5.36-.53,1.28-1.82,2.06-3.07,2.66-1.67,.8-3.6,1.68-5.44,1.97-.7,.11-.96-.24-1.35-.76-.55-.75-1.1-1.5-1.6-2.28-.55-.86-1.06-1.76-1.46-2.7Z"
      fill="#c6c5c5" />
    <path
      d="M227.05,687.38c1.98,1.66,3.86,4.17,3.05,6.62-.48,1.45-1.83,2.48-3.28,2.96s-3.01,.49-4.54,.48c-3.47-.02-6.94-.11-10.41-.28-2.39-.12-5.24-.57-6.23-2.75-.61-1.35-.27-2.92,.09-4.37,.57-2.28,1.08-4.57,1.7-6.84,.38-1.38,1.1-2.07,2.54-2.13,3.84-.16,7.93,1.01,11.37,2.64,2.04,.97,3.97,2.19,5.7,3.65Z"
      fill="#c6c5c5" />
    <path
      d="M215.77,661.06c1.51,1.95,1.6,4.69,.99,7.08-.27,1.04-.67,2.07-1.37,2.88s-1.76,1.37-2.83,1.27c-1.07-.1-2.01-.83-2.58-1.75s-.82-1.98-.99-3.05c-.2-1.26-.3-2.53-.3-3.81,0-.97-.11-2.29,.29-3.21,.63-1.46,3.07-1.49,4.33-1.1,.96,.3,1.85,.88,2.47,1.68Z"
      fill="#c6c5c5" />
    <path
      d="M228.85,705.79c-3.53,.26-6.8,2.49-8.55,5.58s-2.02,6.91-.97,10.29c.66,2.14,2.02,4.28,4.17,4.93,1.65,.5,3.49,.01,4.93-.93s2.57-2.31,3.61-3.68c1.12-1.47,2.18-2.99,3.18-4.55,.9-1.41,1.98-2.9,2.53-4.49,.94-2.73-1.2-4.58-3.37-5.84-1.66-.97-3.62-1.44-5.54-1.3Z"
      fill="#c6c5c5" />
    <path
      d="M212.8,717.75c-.24,1.8-1.68,3.18-3.15,4.24-2.8,2.01-6.04,3.38-9.43,4-2.15,.39-4.64,.38-6.17-1.17-1.73-1.74-1.42-4.48-.8-6.64,.81-2.82,2.13-5.58,3.61-8.11,1.06-1.82,2.65-3.8,4.93-3.92,2.51-.13,4.65,1.97,6.32,3.57,2.03,1.95,5.11,4.91,4.69,8.02Z"
      fill="#c6c5c5" />
    <path
      d="M213.62,755.02c1.5,.77,3.3,1.55,4.79,.76,1.37-.73,1.82-2.58,1.42-4.08s-1.44-2.74-2.45-3.92c-3.58-4.16-7.27-8.33-11.8-11.42s-10.08-5.05-15.52-4.3c-2.43,.34-5.52,1.51-6.12,4.21-.46,2.07,.28,3.76,2.13,4.69,5.68,2.84,11.35,5.71,17,8.62l10.55,5.45Z"
      fill="#c6c5c5" />
    <path
      d="M185.03,751.47c-1.88-.34-3.82-.52-5.67-.06s-3.6,1.66-4.31,3.43c-.74,1.81-.28,3.94,.76,5.59s2.61,2.9,4.21,4.02c8.1,5.67,17.95,8.8,27.84,8.84,1.79,0,3.65-.1,5.26-.89s2.93-2.42,2.84-4.21c-.11-2.24-2.17-3.6-4.09-4.28-2.4-.85-5.08-.6-7.41-1.65-1.56-.7-2.47-2.11-3.64-3.28-1.91-1.9-4.36-3.33-6.76-4.51-2.85-1.41-5.89-2.43-9.02-2.99Z"
      fill="#c6c5c5" />
    <path
      d="M164.45,776.8c1.41,1.72,3.36,3.42,5.56,3.11,2.1-.3,3.55-2.44,3.77-4.56s-.48-4.2-1.18-6.21c-.86-2.48-1.84-5.13-3.98-6.66-1.53-1.09-3.54-1.46-5.36-.99-1.78,.47-4.39,2.21-4.47,4.28-.04,1.11,.51,2.25,.94,3.25,.57,1.32,1.22,2.61,1.96,3.85,.82,1.37,1.74,2.69,2.76,3.92Z"
      fill="#c6c5c5" />
    <path
      d="M112.02,784.64c-.45,3.59,.71,7.14,2.04,10.46,.42,1.06,.88,2.13,1.6,3s1.77,1.52,2.9,1.51c1.25-.02,2.4-.85,3.12-1.92s1.07-2.33,1.35-3.58c.72-3.18,1.07-6.52,.31-9.66-.64-2.69-2.16-5.01-4.34-6.61-2.06-1.51-4.23,.66-5.4,2.46-.85,1.3-1.4,2.8-1.59,4.34Z"
      fill="#c6c5c5" />
    <path
      d="M233.82,817.22c-3.31,1.46-6.4,3.64-8.41,6.72-1.36,2.08-2.1,5.09-.49,6.96,1.55,1.81,4.35,1.53,6.59,.83,3.86-1.2,7.49-3.21,10.61-5.86,2.5-2.13,4.94-5.25,3.57-8.77-1.02-2.61-3.44-2.47-5.72-1.92-2.09,.51-4.17,1.17-6.14,2.04Z"
      fill="#c6c5c5" />
    <path
      d="M135.55,828.38c-.6,1.24,.06,2.7,.85,3.84,2.22,3.21,5.59,5.65,9.39,6.82,1.36,.42,2.82,.68,4.21,.4s2.72-1.2,3.14-2.51c.35-1.1,.03-2.33-.61-3.3s-1.57-1.73-2.52-2.43c-1.92-1.4-3.99-2.61-6.16-3.61-1-.46-2.12-1.07-3.22-1.25-.81-.13-1.68,.23-2.47,.39-1.05,.22-2.13,.65-2.61,1.65Z"
      fill="#c6c5c5" />
    <path
      d="M192.77,848.9c2.58-.49,5.17-.37,6.75-2.51,.7-.95,1.15-3.33,.74-4.42-.38-1-1.35-1.71-2.39-2.06s-2.17-.41-3.27-.46c-2.28-.1-4.83-.53-7.1-.15-.68,.11-6.48,.68-7.97,1.99-.95,.83-.95,2.3-.49,3.45,.93,2.35,2.22,2.92,4.78,3.46s6.39,1.19,8.95,.7Z"
      fill="#c6c5c5" />
    <path
      d="M192.38,826.99c-1.51,1.45-2.19,3.79-1.45,5.74s3.01,3.28,5.03,2.73c1.94-.52,3.2-2.52,3.48-4.52,.14-.98,.08-1.98-.07-2.96-.11-.73-.18-1.72-.67-2.32-.81-1-2.77-.49-3.78-.16-.94,.31-1.82,.8-2.54,1.49Z"
      fill="#c6c5c5" />
    <path
      d="M183.98,831.15c1.06-1.09,1.53-2.61,1.95-4.07,.56-1.91,1.12-3.93,.61-5.85s-2.51-3.6-4.4-3c-1.85,.59-2.53,2.84-2.71,4.78-.19,2.13-.07,4.24,.22,6.35,.15,1.1,.25,2.78,1.66,2.9,.96,.08,2.01-.44,2.66-1.11Z"
      fill="#c6c5c5" />
    <path
      d="M193.1,801.48c-1.77,1.22-3.15,3.1-3.52,5.22s.38,4.47,2.08,5.79,4.33,1.41,5.97,0c1.52-1.31,1.93-3.48,2-5.49,.06-1.97-.12-3.95-.55-5.86-.12-.52-.22-1.27-.8-1.48-.67-.25-1.77,.24-2.41,.46-.98,.33-1.92,.78-2.77,1.37Z"
      fill="#c6c5c5" />
    <path
      d="M225.11,803.89c1.44-.57,3.16-1.03,4.45-.17,1.22,.81,1.52,2.55,1.09,3.94s-1.42,2.54-2.39,3.64c-1.4,1.59-2.83,3.2-4.65,4.28s-4.12,1.56-6.07,.74c-1.2-.5-2.14-1.44-2.91-2.46s-1.64-1.95-.54-3.01c2.02-1.94,4.36-3.59,6.8-4.96,1.36-.76,2.77-1.44,4.22-2.02Z"
      fill="#c6c5c5" />
    <path
      d="M213.31,795.2c-1.38,1.37-2.77,3.33-1.97,5.1,.55,1.21,1.99,1.82,3.32,1.77s2.58-.62,3.78-1.2c1.6-.77,3.21-1.57,4.54-2.74,1.94-1.71,3.64-5.02,1.72-7.36s-4.73-1.02-6.69,.43c-1.66,1.22-3.23,2.56-4.69,4Z"
      fill="#c6c5c5" />
    <path
      d="M158.48,800.1c.64,1.61,1.82,2.94,3.12,4.08,2.29,2.03,5,3.6,7.9,4.57,2.15,.72,4.91,.95,6.31-.83,.95-1.21,.88-2.97,.24-4.37s-1.76-2.5-2.86-3.58l-4.79-4.68c-1.38-1.35-3.41-3.23-5.55-2.78-.94,.2-1.91,.79-2.72,1.27-.98,.58-1.65,1.49-1.94,2.58-.33,1.22-.18,2.56,.29,3.73Z"
      fill="#c6c5c5" />
    <path
      d="M160.69,820.02c1.65,.7,3.88,1.01,4.94-.43,.59-.8,.59-1.91,.24-2.84s-1.02-1.69-1.71-2.41c-1.62-1.69-3.41-3.2-5.35-4.51-.95-.65-1.94-1.24-2.95-1.78-.88-.47-1.89-1.14-2.93-.95-1.94,.35-2.19,2.55-1.48,4.03,.9,1.87,2.13,3.58,3.59,5.05,1.62,1.62,3.54,2.94,5.65,3.84Z"
      fill="#c6c5c5" />
    <path
      d="M152.48,827.49c.6,.29,1.29,.59,1.92,.37,.74-.26,1.08-1.17,.95-1.94s-.61-1.43-1.09-2.05c-1.97-2.51-4.2-4.82-6.65-6.86-1.25-1.04-2.84-2.15-4.56-1.69-1.37,.37-2.7,1.69-2.91,3.12-.48,3.3,3.89,4.95,6.17,6.05l6.16,2.99Z"
      fill="#c6c5c5" />
    <path
      d="M131.85,788.39c1.16,1.14,2.63,2.2,4.25,2.02,1.47-.17,2.66-1.38,3.23-2.74s.64-2.89,.7-4.37c.07-1.55,.13-3.12-.28-4.62s-1.38-2.91-2.82-3.47c-1.7-.66-3.58-.04-5.25,.39-1.35,.35-3.16,.5-4.22,1.52-1.88,1.82-.06,5.1,.97,6.86,.94,1.62,2.1,3.09,3.42,4.41Z"
      fill="#c6c5c5" />
    <path
      d="M145.72,781.39c.12-2.13,1.06-4.55,3.13-5.08,1.86-.47,3.67,.81,5.16,2.01l4.33,3.49c.78,.63,1.62,1.36,1.73,2.36,.15,1.35-1.09,2.41-2.2,3.2l-4.01,2.85c-.97,.69-2.02,1.6-3.29,1.44-2.31-.29-3.64-3.61-4.24-5.49-.5-1.58-.62-3.14-.62-4.79Z"
      fill="#c6c5c5" />
    <path
      d="M196.7,791.32c4.91,.2,9.89-.21,14.6-1.67,1.73-.53,3.43-1.2,5.03-2.04,1.1-.58,2.23-1.25,2.79-2.41s1.03-2.26,1.54-3.38c.62-1.37,.79-3.13-.18-4.39-1-1.31-2.91-1.58-4.51-1.2s-3.02,1.28-4.52,1.97c-1.56,.72-3.22,1.2-4.92,1.45-1.57,.23-3.15,.06-4.71,.27-1.03,.14-1.99,.43-3.05,.39-2.83-.09-5.67-.76-8.47-1.16-4.11-.59-8.31-.99-12.42-.24-1.54,.28-3.11,.75-4.31,1.76s-1.97,2.66-1.56,4.18c.63,2.3,3.38,3.15,5.72,3.63,6.27,1.29,12.57,2.58,18.97,2.84Z"
      fill="#c6c5c5" />
    <path
      d="M231,508.76c1.87-1.79,4.2-3.38,6.79-3.34,3.95,.06,6.92,4.06,7.28,8s-1.2,7.76-2.73,11.4c-.7,1.67-1.56,3.5-3.24,4.18-1.62,.65-3.43,.01-5.05-.63l-6.19-2.44-3.04-1.2c-.68-.27-2.01-.42-1.93-1.29,.16-1.74,.94-3.61,1.61-5.2,.71-1.69,1.58-3.31,2.61-4.84,.56-.84,1.17-1.65,1.82-2.43,.34-.4,.68-.79,1.04-1.17,.16-.17,1.04-.85,1.04-1.04Z"
      fill="#c6c5c5" />
    <path
      d="M212.19,501.81c.19,2.34,.95,4.92,3.02,6.02,2.11,1.12,4.71,.25,6.79-.91,4.29-2.4,7.87-6.06,10.17-10.41,1.25-2.35,2.12-5.16,1.17-7.65-.89-2.31-3.09-3.68-5.35-4.4-1.78-.57-3.72-1.48-5.63-1.39s-3.87,1.57-5.15,2.99c-1.79,1.98-3.08,4.5-3.93,7.01-.94,2.8-1.33,5.79-1.09,8.74Z"
      fill="#c6c5c5" />
    <path
      d="M191.32,502.04c1.17-1.72,2.93-3.39,5-3.19,2.31,.22,3.72,2.62,4.47,4.81,.95,2.76,1.48,5.66,1.56,8.57,.07,2.45-.32,5.21-2.27,6.69-1.61,1.22-3.78,1.19-5.69,.97-1.11-.13-2.21-.28-3.32-.42-.64-.08-1.33-.17-1.89-.5-1.35-.8-1.32-2.85-1.38-4.22-.1-2.11,.12-4.24,.65-6.29,.59-2.28,1.55-4.47,2.88-6.42Z"
      fill="#c6c5c5" />
    <path
      d="M173.23,492.99c-.89,2.08-1.62,4.35-1.24,6.58s2.22,4.35,4.49,4.34c1.67,0,3.12-1.11,4.42-2.16l20.55-16.54c1.77-1.42,3.58-2.9,4.69-4.88,1.76-3.15,1.12-7.26-1.07-10.04-.88-1.11-2-2.05-3.49-1.86s-2.94,1.05-4.34,1.6c-3.4,1.32-6.63,3.04-9.6,5.17s-5.66,4.62-8.01,7.41-4.32,5.85-5.86,9.14c-.19,.41-.38,.83-.56,1.25Z"
      fill="#c6c5c5" />
    <path
      d="M151.23,506.94c.13-1.81,.45-3.64,1.29-5.26s2.23-3,3.97-3.52c2.57-.77,5.4,.48,7.24,2.42s2.9,4.49,3.92,6.97c1.17,2.85,2.34,6.1,1.1,8.92-.85,1.92-2.66,3.18-4.51,4.04s-4.06,1.75-6.11,1.88c-3.86,.23-5.25-3.95-6.07-7-.73-2.74-1.01-5.61-.82-8.44Z"
      fill="#c6c5c5" />
    <path
      d="M116.03,504.65c-.59,2.06-.42,10.19,.48,13.67,.67,2.61,2.07,5.86,4.62,6.06,2.35,.19,5.42-3.04,6.38-6.06,1.75-5.5,1.84-11.6-.12-17.01-.7-1.94-1.93-3.74-3.86-4.16-1.74-.38-3.45,.52-4.68,1.87-1.87,2.06-2.03,2.84-2.83,5.63Z"
      fill="#c6c5c5" />
    <path
      d="M123.55,456.02c-.32,2.15-.16,4.83,1.55,5.99,1.56,1.04,3.52,.22,5.02-.82,2.7-1.86,5.01-4.38,6.76-7.33s3.69-7.02,2.41-10.64c-2.35-6.61-8.66-1.75-11.18,1.66-2.34,3.17-3.95,7.04-4.56,11.13Z"
      fill="#c6c5c5" />
    <path
      d="M199.61,394.5c-2.18-.63-5.74-1.52-7.97-1.16s-4.36,2.33-4.26,4.69c.06,1.34,.83,2.57,1.82,3.43s2.2,1.39,3.41,1.85c2.26,.87,4.59,1.55,6.96,2.03,1.63,.33,3.32,.56,4.94,.22s3.21-1.34,3.91-2.91c.91-2.04,.1-4.54-1.79-5.59-1.53-.85-5.09-2-7.04-2.56Z"
      fill="#c6c5c5" />
    <path
      d="M184.82,419.13c1.78,.5,3.94,.13,5.02-1.37,1.09-1.52,.76-3.62,.22-5.42-.45-1.5-1.1-3.1-2.48-3.85-1.93-1.05-4.47,.13-5.66,1.98-.54,.84-.88,1.79-1.1,2.77-.12,.53-.19,1.06-.26,1.6-.05,.37-.24,.77-.26,1.13-.05,.77,1.2,1.4,1.77,1.79,.85,.59,1.76,1.09,2.75,1.38Z"
      fill="#c6c5c5" />
    <path
      d="M187.47,423.02c-1.49,.37-3.19,1.14-3.42,2.65-.19,1.23,.7,2.34,1.6,3.2,1.79,1.7,3.86,3.1,6.11,4.12,1.8,.82,3.86,1.4,5.74,.77,2-.67,3.36-2.6,3.92-4.63,.36-1.33,.5-2.82,.4-4.2-.06-.87-.39-1.43-1.22-1.75-2.48-.94-5.56-1.02-8.17-.89-1.66,.08-3.32,.33-4.94,.73Z"
      fill="#c6c5c5" />
    <path
      d="M183.84,445.9c.97-.27,1.94-.67,2.73-1.43s1.41-1.92,1.46-3.2c.08-1.92-1.06-3.53-2.12-4.89-1.34-1.71-2.81-3.52-4.67-3.86-2.09-.39-4.16,1.25-5.42,3.45-.72,1.26-1.23,2.7-1.63,4.18-.26,.93-.91,2.58-.65,3.6,.28,1.11,1.95,1.51,2.7,1.79,1.16,.43,2.36,.69,3.56,.77,1.35,.09,2.72-.04,4.04-.41Z"
      fill="#c6c5c5" />
    <path
      d="M189.23,454.83c-1.82,2.07-2.17,5.31-.82,7.72,.94,1.68,2.82,2.96,4.73,2.69,1.7-.24,3.03-1.6,3.87-3.1,1.22-2.17,1.94-5.41,.99-7.81-.75-1.92-3.19-1.95-4.92-1.63-1.47,.27-2.86,1.01-3.85,2.13Z"
      fill="#c6c5c5" />
    <path
      d="M170.16,463.65c2.05,1.31,4.64,2,6.96,1.24s4.12-3.24,3.59-5.61c-.39-1.73-1.8-3-3.15-4.15-1.43-1.23-3.02-2.52-4.91-2.6-2.39-.1-4.19,1.69-5.49,3.48s-1.68,3.3-.11,5c.92,1,1.97,1.91,3.11,2.64Z"
      fill="#c6c5c5" />
    <path
      d="M151.73,453.38c-2.05-.53-4.56,.11-5.52,2-.66,1.31-.45,2.88-.22,4.33,.32,2.04,.81,4.34,2.57,5.43,2.02,1.24,4.82,.15,6.24-1.75,1.07-1.43,1.56-3.19,1.89-4.93,.15-.79,.54-1.64-.11-2.2-.69-.59-1.41-1.16-2.18-1.65-.82-.53-1.71-.98-2.66-1.22Z"
      fill="#c6c5c5" />
    <path
      d="M138.02,461.98c1.81,.1,3.44,1.17,4.64,2.53,1.13,1.28,1.97,3.1,1.32,4.67-.59,1.42-2.3,2.16-3.82,1.93s-2.83-1.26-3.73-2.5c-.55-.76-.93-1.58-1.32-2.42-.27-.59-.81-1.26-.85-1.93-.08-1.61,2.55-2.34,3.77-2.27Z"
      fill="#c6c5c5" />
    <path
      d="M167.56,468.44c1.14-.14,2.32-.19,3.42,.15s2.11,1.13,2.45,2.23c.54,1.74-.69,3.49-1.85,4.89l-4.75,5.77c-1.39,1.69-2.92,3.47-5.03,4.04-2.13,.58-4.39-.24-6.07-1.56-1.52-1.19-3.51-3.17-3.91-5.13-.43-2.1,1.57-3.68,3-4.87,1.69-1.4,3.57-2.58,5.56-3.5,2.27-1.04,4.7-1.74,7.18-2.04Z"
      fill="#c6c5c5" />
    <path
      d="M135.89,510.4c.46,2,1.18,3.94,2.13,5.76,.64,1.21,1.65,2.52,3.02,2.43,.92-.06,1.69-.8,2.06-1.64s.44-1.79,.49-2.71l.82-13.77c.07-1.26,.15-2.54-.21-3.75-.46-1.55-1.79-2.92-3.52-2.7-1.22,.16-2.73,.93-3.7,1.7-2.13,1.69-1.8,5.12-1.8,7.53s.18,4.8,.71,7.14Z"
      fill="#c6c5c5" />
    <path
      d="M263.41,240.69c27.05,11.8,24.51,9.5,50.19,26.85,20.47,13.83,14.23,9.77,34.08,25.17,6.6,5.12,.67,16.78-5.72,22.17-2.78,2.35-5.13,5.51-11.68,4.37-3.11-.54-7.89-4.34-9.28-5.56-5.09-4.49-10.29-8.66-10.29-8.66,0,0-1.96-1.89-11.81-9.89-12.97-10.54-18.46-13.28-21.97-14.71-8.15-3.3-15.62-2.56-20-2.13-7.14,.71-12.35,2.93-22.48,7.35-14.89,6.5-24.45,10.69-28.76,12.58-1.1-1.01-4.5,2.41-5.99-11.56-1-9.34,1.43-11.68,2.77-12.43,19.2-10.69,26.85-12.58,26.37-14.56-.84-3.48-18.3-.46-21.85-8.32-1.29-2.86-.7-6.99-.28-9.48,.45-2.66,1.44-4.75,2.61-8.05,1.1-3.09,4.17-7,9.88-9.02,1.09-.38,12.93,4.36,16.23,5.31,14.1,4.07,16.41,5.52,27.96,10.56Z"
      fill="#b3b3b3" />
    <path
      d="M346.26,296.45c2.49,1.94,1.14,7.84-3.01,13.18-4.15,5.34-9.54,8.1-12.03,6.17-2.49-1.94-1.14-7.84,3.01-13.18,4.15-5.34,9.54-8.1,12.03-6.17Z"
      fill="#e2e2e2" />
    <path d="M343.07,292.44c-1.96,.63-7.03,2.53-11.12,7.65-4.18,5.23-4.87,10.73-5.03,12.78" fill="none" stroke="#999"
      stroke-linecap="round" stroke-miterlimit="10" />
    <path
      d="M477.03,631.1c.47,.02,3.69,.15,3.99-.05,1.58-1.06,2.19-3.15,1.84-4.98s-1.52-3.43-2.89-4.74c-.84-.8-1.84-1.56-3.01-1.66s-5.86,4.72-5.85,5.87c0,0,.41,5.3,5.92,5.57Z"
      fill="#c6c5c5" />
    <path
      d="M477.77,634.79c-1.75,1.48-2.13,4.08-1.31,6.17s2.61,3.71,4.61,4.87c.37,.21,.77,.42,1.2,.41,.6-.02,1.09-.46,1.51-.87l3.76-3.63c.81-.79,1.65-1.61,2.08-2.64s.34-2.34-.52-3.08c-1.56-1.36-2.84-1.19-5.85-1.8,0,0-3.93-.72-5.47,.58Z"
      fill="#c6c5c5" />
    <ellipse cx="463.16" cy="648.17" rx="3.5" ry="10.48" transform="translate(-317.27 488.25) rotate(-42.87)"
      fill="#c6c5c5" />
    <path
      d="M298.35,622.89c-.88,.72-1.53,1.69-2.08,2.69-.34,.64-.66,1.31-.75,2.03-.12,.89,.11,1.79,.34,2.66,.48,1.83,1.01,3.77,2.37,5.09,1.37,1.34,3.35,1.81,5.22,2.23,.41,.09,.83,.18,1.24,.13,.4-.05,.77-.24,1.12-.45,1.3-.75,2.51-1.82,2.99-3.25,.31-.92,.28-1.92,.16-2.89-.29-2.43-1.13-4.79-2.43-6.87-.45-.71-.95-1.65-1.75-2.01-.92-.41-1.95-.65-2.96-.62-1.25,.04-2.5,.46-3.48,1.25Z"
      fill="#c6c5c5" />
    <path
      d="M287.47,644.44c.45-.73,1.22-1.2,2.03-1.47,1.55-.51,3.31-.32,4.71,.52,.75,.45,1.4,1.06,2.01,1.69,1.53,1.58,2.92,3.29,4.14,5.12,.31,.46,.61,.95,.64,1.5,.03,.58-.27,1.13-.56,1.64-.51,.91-3.14,3.45-4.01,4.01-1.71,1.09-6.01-5.65-6.66-6.22-2.23-1.97-2.88-5.82-2.29-6.78Z"
      fill="#c6c5c5" />
    <ellipse cx="311.15" cy="661.12" rx="9.81" ry="3.18" transform="translate(-288.87 244.15) rotate(-30)"
      fill="#c6c5c5" />
  </g>
  <g id="level11L">
    <ellipse id="level11LGraphic1" cx="534.42" cy="641.65" rx="20.48" ry="12.75" fill="gray" />
    <ellipse id="level11LGraphic2" cx="573.08" cy="545.61" rx="18.18" ry="13.84" fill="gray" />
  </g>
  <g id="level11R">
    <ellipse id="level11RGraphic2" cx="250.5" cy="512.51" rx="9.22" ry="16.82"
      transform="translate(-315 587.53) rotate(-71.51)" fill="gray" />
    <ellipse id="level11RGraphic1" cx="283.46" cy="584.41" rx="21.03" ry="13.29"
      transform="translate(-298.5 295.95) rotate(-37.76)" fill="gray" />
  </g>
  <g id="level10L">
    <ellipse id="level10LGraphic2" cx="461.3" cy="565.42" rx="16.55" ry="10.85" fill="gray" />
    <ellipse id="level10LGraphic1" cx="449.64" cy="525.26" rx="14.11" ry="10.31" fill="gray" />
  </g>
  <g id="level10R">
    <ellipse id="level10RGraphic" cx="311.01" cy="483.06" rx="13.29" ry="20.62"
      transform="translate(-253.36 590.55) rotate(-68.01)" fill="gray" />
  </g>
  <g id="level9">
    <ellipse id="level9Graphic2" cx="352.07" cy="743.68" rx="11.07" ry="17.89"
      transform="translate(-182.27 117.99) rotate(-15.16)" fill="gray" />
    <ellipse id="level9Graphic1" cx="467.57" cy="762.21" rx="10.83" ry="18.58" fill="gray" />
  </g>
  <g id="level8">
    <ellipse id="level8Graphic2" cx="402.6" cy="636.12" rx="11.39" ry="17.63" fill="gray" />
    <ellipse id="level8Graphic1" cx="425.61" cy="839.14" rx="11.39" ry="18.99" fill="gray" />
  </g>
  <g id="level7">
    <ellipse id="level7Graphic" cx="372.35" cy="538.58" rx="21.28" ry="15.06" fill="gray" />
  </g>
  <g id="level6">
    <ellipse id="level6Graphic2" cx="505.48" cy="344.95" rx="10.04" ry="15.46"
      transform="translate(-95.86 458.46) rotate(-45)" fill="gray" />
    <ellipse id="level6Graphic1" cx="518.9" cy="382.87" rx="8.95" ry="16.01" fill="gray" />
  </g>
  <g id="level5">
    <ellipse id="level5Graphic" cx="509.1" cy="430.43" rx="16.01" ry="9.22"
      transform="translate(-33.3 42.8) rotate(-4.66)" fill="gray" />
  </g>
  <g id="level4L">
    <ellipse id="level4LGraphic2" cx="396.41" cy="362.92" rx="10.99" ry="18.45" fill="gray" />
    <ellipse id="level4LGraphic1" cx="398.95" cy="422.19" rx="8.68" ry="17.63"
      transform="translate(-157.64 256.04) rotate(-30)" fill="gray" />
  </g>
  <g id="level4R">
    <ellipse id="level4RGraphic2" cx="341.11" cy="354.34" rx="9.22" ry="15.46" fill="gray" />
    <ellipse id="level4RGraphic1" cx="330.8" cy="401.55" rx="10.31" ry="18.18" fill="gray" />
  </g>
  <g id="level3A">
    <ellipse cx="295.17" cy="261.82" rx="9.81" ry="14.87" fill="gray" />
    <ellipse cx="320.96" cy="307.22" rx="9.1" ry="12.74" transform="translate(-105.58 431.57) rotate(-60)"
      fill="gray" />
  </g>
  <g id="level2L">
    <ellipse id="level2LGraphic3" cx="399.4" cy="221.4" rx="11.94" ry="20.89"
      transform="translate(-49.75 138.89) rotate(-18.59)" fill="gray" />
    <ellipse id="level2LGraphic2" cx="399.95" cy="291.73" rx="11.39" ry="20.75"
      transform="translate(-86.23 198.5) rotate(-25.25)" fill="gray" />
    <ellipse id="level2LGraphic1" cx="483.55" cy="302.39" rx="9.5" ry="16.96" fill="gray" />
  </g>
  <g id="level2R">
    <ellipse id="level2RGraphic2" cx="350.45" cy="267.51" rx="10.58" ry="16.55"
      transform="translate(-4.36 529.22) rotate(-73.77)" fill="gray" />
    <ellipse id="level2RGraphic1" cx="347.48" cy="220.27" rx="9.77" ry="16.28"
      transform="translate(-63.91 224.35) rotate(-32.94)" fill="gray" />
  </g>
  <g id="level1">
    <ellipse id="level1Graphic1" cx="390.94" cy="124.69" rx="20.65" ry="12.46" fill="gray" />
    <ellipse id="level1Graphic2" cx="355.73" cy="160.71" rx="12.27" ry="17.79" fill="gray" />
  </g>
  <g>
    <path
      d="M372.22,484.64c-17.11,30.58-34.22,61.17-51.34,91.75-24.43,42.66-48.87,85.32-73.3,127.98-7.12,12.44-14.25,24.87-21.37,37.31"
      fill="none" stroke="#898787" stroke-linecap="round" stroke-miterlimit="10" stroke-width="7" />
    <path d="M370.36,188.45c.24,76.67,.48,83.66,.73,160.33,.13,42.43,1.14,96.46,1.26,138.9" fill="none" stroke="#898787"
      stroke-linecap="round" stroke-miterlimit="10" stroke-width="7" />
    <line x1="374.35" y1="469.53" x2="453.95" y2="469.53" fill="none" stroke="#898787" stroke-linecap="round"
      stroke-miterlimit="10" stroke-width="7" />
    <path d="M571.65,469.16l-89.14,140.12c-58.87-.08-117.74-.16-176.62-.24" fill="none" stroke="#898787"
      stroke-linecap="round" stroke-miterlimit="10" stroke-width="7" />
    <line x1="301.07" y1="428.24" x2="369.17" y2="428.24" fill="none" stroke="#898787" stroke-linecap="round"
      stroke-miterlimit="10" stroke-width="7" />
    <line x1="250.5" y1="476.02" x2="341.33" y2="535.57" fill="none" stroke="#898787" stroke-linecap="round"
      stroke-miterlimit="10" stroke-width="7" />
    <line x1="527.37" y1="469.01" x2="654.99" y2="469.16" fill="none" stroke="#898787" stroke-linecap="round"
      stroke-miterlimit="10" stroke-width="7" />
    <path
      d="M94.54,905.54c46.38-22.12,95.13-41.3,146.32-45.75,51.19-4.45,110.92,2.03,144.27,41.11,9.83,11.52,18.13,17.62,30.03,20.61,19.48,4.91,37.94-9.25,54.54-20.56,42.49-28.92,73.26-40.25,124.6-37.81s101.71,21.98,141.26,54.79"
      fill="none" stroke="#898787" stroke-miterlimit="10" stroke-width="4" />
    <path d="M372.35,483.06c17.11,30.58,63.91,112.62,71.03,125.05" fill="none" stroke="#898787" stroke-linecap="round"
      stroke-miterlimit="10" stroke-width="7" />
    <path d="M275.8,185.75c63.61-.09,127.21-.17,190.82-.26" fill="none" stroke="#898787" stroke-linecap="round"
      stroke-miterlimit="10" stroke-width="7" />
    <line x1="208.87" y1="324.75" x2="568.97" y2="325.64" fill="none" stroke="#898787" stroke-linecap="round"
      stroke-miterlimit="10" stroke-width="7" />
  </g>
</svg>