<?xml version="1.0" encoding="utf-8"?>
<!-- Generator: Adobe Illustrator 27.0.0, SVG Export Plug-In . SVG Version: 6.00 Build 0)  -->
<svg version="1.1" xmlns="http://www.w3.org/2000/svg" xmlns:xlink="http://www.w3.org/1999/xlink" x="0px" y="0px"
	 viewBox="0 0 474.2 439.2" enable-background="new 0 0 474.2 439.2" xml:space="preserve">
<g>
	<path id="LLLBasalAnterior" fill="#D6D6D6" d="M376.7,353.1c4.9,4.8,9.9,9.6,14.9,14.5c8.2,7.9,16.4,15.5,24.5,22.9
		c1.2-0.6,4.4-2.4,6.5-6.3c2.1-3.9,2-7.5,1.8-8.9c-12.3-9.7-25.6-21.9-38.3-37.3c-3.8-4.6-7.4-9.2-10.6-13.7
		c-3.9,5.3-7.8,10.7-11.7,16C368.2,344.6,372.4,348.8,376.7,353.1z"/>
	<path id="LLLBasalLateral" fill="#D6D6D6" d="M354.1,330.6c0.8,2,1.6,4.1,2.3,6.6c4.6,14.7,4.5,26.1,4.4,43.4
		c-0.1,13-1.2,31.3-6.2,53c1.6,3.2,4.7,5.4,8.3,5.7c3.9,0.3,7.7-1.9,9.5-5.4c2.5-10.3,4.6-22.6,5.6-36.5c1.2-17,0.2-32-1.4-44.2
		L354.1,330.6z"/>
	<path id="LLLBasalAnteriorLateral" fill="#C2C2C2" d="M375.6,324.3c-7.7-10.7-15.1-23.3-19.7-39.7c-5-18-4.8-33.7-3.9-43.5
		l-20.1,25.7c1.2,7.9,3.6,20,8.6,34.2c5.7,16.2,8.5,23.3,13.6,29.7c3.6,4.5,7.2,7.7,9.8,9.8L375.6,324.3z"/>
	<path id="LLLBasalPosterior" fill="#D6D6D6" d="M319.7,349.8c0.6,7.9,2.1,17.6,5.5,28.4c2.2,6.9,4.8,12.9,7.3,18
		c1,0.2,4.7,0.9,8.6-1.3c4.7-2.6,5.8-7.3,6-8.1c-3.3-7.5-7.5-18.4-10.7-31.8c-2.1-8.8-3.3-16.7-4-24.4L319.7,349.8z"/>
	<path id="LLLBasalMedial" fill="#D6D6D6" d="M307.9,331.3c-1.8,9-3.9,16.7-4.9,20.1c-1.9,6.7-3.6,12.9-6.8,21.1
		c-3.8,9.5-7.8,17.3-11.1,23c0.2,3.5,2.3,6.6,5.4,8.1c3.5,1.6,7.6,0.8,10.4-1.9c3.5-6.7,7-14.3,10.2-22.8c4-10.5,6.7-20.3,8.6-28.9
		L307.9,331.3z"/>
	<path id="LLLBasalPosteriorMedial" fill="#C2C2C2" d="M332.4,330.6c-0.6-6.9-1-14.1-1.2-21.6c-0.5-15.1-0.1-29.2,0.8-42.2
		l-16.3-30.2c-0.3,5-0.7,9.1-0.9,11.7c-0.9,9.7-2.4,20.9-2.6,28.3c-0.3,8.2-0.1,8.7-0.4,18.5c-0.2,5.1-0.4,11.2-0.8,16.4
		c-0.4,4.9-1.2,11.6-2.9,19.8c3.9,6.2,7.9,12.4,11.8,18.5C323.9,343.4,328.1,337,332.4,330.6z"/>
	<path id="LLLSuperior" fill="#D6D6D6" d="M316.5,207.2c-0.6,2.9-2,5.7-5.2,11.1c-5.7,9.5-8.2,13.3-10.2,16.7
		c-2.6,4.4-5.9,10.9-8.3,19.8c0.2,0.6,1.5,4.3,5.5,6c4.8,2,9-0.8,9.4-1c0.5-2.5,1.1-5.1,1.9-7.9c1.7-6,4-11.1,6.1-15.4L316.5,207.2z
		"/>
	<path id="LLL" fill="#ADADAD" d="M357.5,213.8c-1.9-4.6-3.8-10.3-5.2-16.9c-1-4.9-1.5-9.4-1.8-13.3l-4-0.6
		c-3.4,0.3-7.7,0.2-12.4-0.7c-1.3-0.3-5.3-1.1-10.1-3.2c-3.2-1.4-5.8-3-7.7-4.3c-0.8,6-1.7,12-2.5,18c3.7,7.1,3.1,12.2,2.7,14.5
		c-0.3,9.8-0.6,19.5-0.8,29.3c5.4,10.1,10.9,20.2,16.3,30.2c6.7-8.6,13.4-17.1,20.1-25.7C353.8,232,355.7,222.9,357.5,213.8z"/>
	<path id="Lingula" fill="#D6D6D6" d="M352,241.1c2.2,4.3,6.1,10.8,12.2,17.5c7,7.5,10.4,8.2,17.5,15.9c6.8,7.5,10.5,14.4,13.6,20.1
		c3.3,6.2,7.3,15,10.2,26.1c0.7,0.3,5.7,2.2,10.4-0.5c2.7-1.5,4-3.8,4.5-4.8c-2.3-6.7-5.1-14-8.4-21.5c-3-6.9-6.2-13.2-9.3-19
		c3.9,1.5,10.6,3.5,19,3.3c8.1-0.1,14.4-2.2,18.3-3.8c0.7-1,1.9-3,2.1-5.8c0.3-5.6-4.1-9.2-4.6-9.6c-4.5,1.5-11.6,3.3-20.2,2.9
		c-18.5-0.8-31.1-10.7-36.7-15.2c-13.9-11.2-19.6-24.6-22.9-32.7L352,241.1z"/>
	<path id="LULAnterior" fill="#D6D6D6" d="M346.4,152.3c5.9,0.1,14.4,0.1,24.5-0.3c13-0.5,19.6-0.7,25.8-2.1
		c7.1-1.6,17.9-5.2,29.9-14.8c0.9,0,6.2,0.1,10,4.4c2.4,2.7,3,5.8,3.1,7c-3.9,4-10,9.3-18.6,13.9c-8.2,4.3-15.7,6.3-21.1,7.3
		c9.6,1.7,21.7,2.9,35.6,2.4c13-0.4,24.2-2.2,33.3-4.3c1.1,1.2,4.8,5.3,5.1,11.5c0.2,3.8-0.8,6.7-1.6,8.3
		c-15.9,4.5-29.1,5.6-38.3,5.8c-20.1,0.4-30.5-5.6-57.8-7.5c-11.2-0.8-20.3-0.6-26-0.4L346.4,152.3z"/>
	<path id="LULPosterior" fill="#D6D6D6" d="M395.6,83.2c3.6-2.7,7.7-5.5,12.5-8.3c5.8-3.3,11.3-5.8,16.2-7.6
		c0.7,0.4,4.1,2.5,5.2,6.8c1,3.9-0.4,7-0.8,7.8c-6.3,3.2-15.1,8.2-25,15.1c-12.4,8.7-21.3,17-29.6,25.2L395.6,83.2z"/>
	<path id="LULApicoposteriorTrunk" fill="#C2C2C2" d="M363.1,99.5c-7.1,9-18.4,21.7-35,35.2l18.4,17.7c9.2-11.1,17.7-20,24.2-26.5
		c1.2-1.2,2.3-2.3,3.5-3.5L363.1,99.5z"/>
	<path id="LULApical" fill="#D6D6D6" d="M395.6,83.2c2.5-4.1,5.5-10.2,6.8-18.2c0.6-3.3,0.7-6.4,0.7-9c-0.5-0.6-3.6-4.4-9-4.8
		c-5.8-0.4-9.5,3.6-10,4.1c-0.8,4.6-2.4,11.2-5.4,18.6c-2.7,6.7-6.8,14.3-15.6,25.6c3.7,7.6,7.4,15.2,11.1,22.9
		C381.3,109.3,388.5,96.3,395.6,83.2z"/>
	<path id="LUL" fill="#ADADAD" d="M315.2,154.4c-0.3-4.9-0.6-9.9-0.8-14.8c2.8,0,5-0.5,6.5-0.9c1.1-0.3,2.6-0.8,4.3-1.8
		c1.3-0.8,2.2-1.6,2.9-2.3c6.1,5.9,12.3,11.8,18.4,17.7c1.4,10.4,2.7,20.8,4.1,31.3c-1.3-0.2-2.6-0.4-4-0.6
		c-3.4,0.3-7.7,0.2-12.4-0.7c-1.3-0.3-5.3-1.1-10.1-3.2c-3.2-1.4-5.8-3-7.7-4.3C316,167.9,315.6,161.2,315.2,154.4z"/>
	<path id="LeftMain" fill="#999999" d="M259.3,129.9c2.5-1.1,6.1-2.6,10.6-3.8c3.8-1,19.2-4.8,38.3,0.2c5,1.3,12,3.7,19.9,8.3
		c-0.6,0.6-1.6,1.5-2.9,2.3c-1.7,1-3.2,1.5-4.3,1.8c-1.5,0.4-3.7,0.9-6.5,0.9c0.7,11.7,1.3,23.4,2,35.1l-2.5,18
		c-3.1-3.4-8.4-4.6-12.6-3.7c-4.9,1-8.5,5-11.3,10.3L259.3,129.9z"/>
	<path id="RLLSuperior" fill="#D6D6D6" d="M137.2,191.5c1.8,3.2,4.3,7.1,7.8,11c6.6,7.2,13.6,11.2,18.4,13.4
		c0.3,0.7,1.7,4.5-0.2,8.7c-1.9,4.3-5.8,5.8-6.5,6c-5.3-2.2-13-6.2-20.6-13.3c-5.5-5.1-9.2-10.3-11.7-14.4c0.5-1.5,2-4.8,5.3-7.6
		C132.6,192.8,135.6,191.9,137.2,191.5z"/>
	<path id="RLLBasalLateral" fill="#D6D6D6" d="M115.5,361.5c-0.8,9-2.7,20.4-7,32.9c-2.8,8.2-6.2,15.3-9.4,21.2
		c-2.5,2.3-6,3-9.1,1.7c-3.1-1.2-5.2-4.1-5.4-7.5c3.3-7.8,5.8-14.5,7.5-19.4c6.6-18.6,7.8-27,8.1-30.1c0.6-4.8,0.7-8.8,0.8-11.5
		c4.7,1.7,9.5,3.4,14.2,5.1C115.3,356.5,115.4,359,115.5,361.5z"/>
	<path id="RLLBasalPosterior" fill="#D6D6D6" d="M128.5,344.1c2.7,9.7,5.1,21.1,6.6,34.1c1.8,16.8,1.5,31.6,0.3,43.7
		c-0.9,3.7-3.9,6.5-7.4,6.9c-4.2,0.5-8.5-2.4-9.6-6.9c1.3-9.6,2-21.4,1-34.8c-0.7-9.6-2.2-18.2-3.9-25.6c-0.1-2.5-0.2-5.1-0.3-7.6
		C119.6,350.6,124,347.4,128.5,344.1z"/>
	<path id="RLLBasalLateralPosterior" fill="#C2C2C2" d="M101,348.9c0-1.5-0.1-3-0.3-4.5c-1.1-9.8-4.6-17.8-8.1-23.7l15.8-19.7
		c7.6,11.8,14.3,25.1,19.1,40c0.3,1.1,0.7,2.1,1,3.2c-4.4,3.3-8.9,6.6-13.3,9.8C110.4,352.2,105.7,350.5,101,348.9z"/>
	<path id="RLLBasalMedial" fill="#D6D6D6" d="M114.7,280.5c2.8,4.6,7.3,10.9,15.1,20c16.7,19.4,22.3,26.5,27.1,38.1
		c1.8,4.2,0.4,9-3.1,11.5c-3.1,2.2-7.4,2.2-10.7,0c-5.1-9.1-11.3-19-18.7-29.1c-5.4-7.4-10.8-14-16-20L114.7,280.5z"/>
	<path id="RLLBasalAnterior" fill="#D6D6D6" d="M91.1,314.3c0-2.5-0.2-5.3-0.5-8.3c-0.3-2.9-0.8-5.5-1.3-7.9c-5.5-1.3-11-2.7-16.4-4
		c0.2,1.5,0.3,3.4,0.5,5.4c0,0,0.3,3.1,0.4,6.2c0.4,6.5,0.8,12.7,0.5,20.6c-0.2,6-0.6,16.6-3.7,30c-1.8,7.6-4,14.1-6,19.3
		c0.3,0.6,2.3,5,7.3,6.5c5.5,1.7,9.9-1.5,10.4-1.8c2-7.7,3.8-15.9,5.4-24.6c2.3-12.4,3.8-24.2,4.8-35.1L91.1,314.3z"/>
	<path id="RLL" fill="#ADADAD" d="M89.3,298.1c0.5,2.4,0.9,5.1,1.3,7.9c0.3,3,0.5,5.7,0.5,8.3l1.5,6.3c5.3-6.6,10.6-13.1,15.8-19.7
		c2.1-6.8,4.2-13.6,6.3-20.4c-1.1-1.6-2.5-4.2-3.7-7.5c0,0-0.3-0.9-0.6-1.7c-2.9-9.4-2.6-17.4-2.4-22.4c0.5-15.6,5.6-27.5,8.7-33.6
		c2.7-5.3,5.6-9.5,7.8-12.4c0.5-1.5,2-4.8,5.3-7.6c2.9-2.5,5.9-3.4,7.5-3.8c-5-12.6-10-25.2-14.9-37.8c-1.4-1-3-1.9-4.7-2.9
		c-2-1.1-3.9-2.1-5.8-2.9c-1.2-0.1-2.4-0.2-3.7-0.3c-5.2,3.6-12,9.1-18.7,17c-6.5,7.7-10.1,14.5-11,16.1c-8,15.3-9.4,30.6-9.3,40.8
		c0.8-0.7,1.9-1.7,3.2-2.9c1.4-1.4,3.9-4,8-10.3c1.9-2.9,4.2-6.6,6.6-11.1c3.6,5.5,7.2,11.1,10.8,16.6c-3.9,7.6-7.8,13-10.6,16.7
		c-1.7,2.2-15.4,21.5-16.1,22.6c-0.4,14.9,0.4,26.6,1.2,34.8c0.2,1.9,0.4,3.8,0.6,6.1L89.3,298.1z"/>
	<path id="RMLMedial" fill="#D6D6D6" d="M58.8,244.3c1.6-1.2,3.4-2.9,5.2-5c1.3-1.5,2.3-2.9,3.1-4.2c1.3,6,2.6,12,3.9,18
		c-4.5,5-10.9,11.2-19.6,16.9c-7.1,4.7-13.8,7.8-19.3,9.9c-0.9-0.5-3.8-2.4-5.2-6.3c-1.7-4.8,0.4-8.9,0.8-9.6c3-1,6.3-2.5,9.8-4.4
		c7-3.8,12.1-8.4,15.7-12.1L58.8,244.3z"/>
	<path id="RMLLateral" fill="#D6D6D6" d="M69.1,221.6c-3.5,2.7-10.3,7.3-20,9.5c-8.9,2-16.3,1.1-20.6,0.3c-0.8,0.9-3.3,4.4-3.1,9.4
		c0.1,3.9,1.8,6.6,2.6,7.7c3.2,0.3,6.7,0.4,10.4,0.4c5.5,0,10.5-0.4,14.9-1l5.5-3.4c1.6-1.2,3.4-2.9,5.2-5c1.3-1.5,2.3-2.9,3.1-4.2
		L69.1,221.6z"/>
	<path id="RML" fill="#ADADAD" d="M71.1,253.2l3.1-4.7c4.3-5.4,8.7-11.4,13-17.8c3.9-5.7,7.4-11.3,10.6-16.7
		c-3.6-5.5-7.2-11.1-10.8-16.6c-2.4,4.5-4.7,8.2-6.6,11.1c-4.1,6.2-6.6,8.9-8,10.3c-1.3,1.3-2.4,2.3-3.2,2.9
		c-0.7,4.5-1.3,9.1-2,13.6C68.4,241.2,69.7,247.2,71.1,253.2z"/>
	<path id="RULPosterior" fill="#D6D6D6" d="M90.5,113.4C86.3,98,81.7,85.4,77.8,76C72,61.9,68.3,55.8,61.7,51.2
		c-5.9-4.1-12-5.5-16.2-6c-0.5-0.7-3.3-4.9-2.1-10.4c1.1-4.7,4.4-7.2,5.2-7.8c3,0.2,8.5,0.9,14.3,4.2c7.1,4,10.9,9.6,12.4,12.3
		c-2.8-6.4-5.6-14.4-7.5-24c-1-5.5-1.6-10.6-1.8-15.1c1-0.9,3.9-3.5,8.6-4.2c4.8-0.7,8.5,1.2,9.6,1.8c0.5,6.5,1.3,13.5,2.6,20.9
		c3.4,19.1,9,35.4,14.8,48.4c0.6,2.5,1.1,5,1.7,7.5c0.1,3.6,0.4,7.9,1.4,12.8c1.2,5.9,3.1,10.8,4.9,14.6L90.5,113.4z"/>
	<path id="RULApical" fill="#D6D6D6" d="M130.6,103.1c-2.5-3.7-9.3-15.2-5.9-28c2.3-8.4,8-13.5,10.2-15.4c9.6-8.4,20.9-8.9,24.2-8.9
		c0.7-0.9,2.3-3.2,2.6-6.5c0.3-4.3-1.8-7.3-2.3-8.1c-4.6,0.2-10.7,1-17.5,3.2c-5,1.6-9.2,3.6-12.5,5.5c1.1-3,3.5-8.3,8.6-13.3
		c4.4-4.2,8.9-6.4,11.7-7.6c0.1-0.5,0.8-5.4-2.9-9.1c-3.3-3.3-7.5-3.1-8.2-3.1c-5.7,3.1-18,10.8-27,26c-8.3,13.8-9.7,27-10,33.4
		c0.6,2.5,1.1,5,1.7,7.5c0.1,3.6,0.4,7.9,1.4,12.8c1.2,5.9,3.1,10.8,4.9,14.6L130.6,103.1z"/>
	<path id="RULAnterior" fill="#D6D6D6" d="M90.5,113.4c-15.5-3.3-27.5-3.1-35.8-2.3c-8.3,0.9-16.6,2.7-28,0.4
		c-6.4-1.3-11.5-3.4-14.7-5c-1.1,0.3-6.3,1.7-9.6,6.8c-3,4.7-2.5,9.4-2.3,10.7c2.8,1.9,6.5,3.9,11.3,5.5c9.2,3,17.3,2.3,21.9,1.6
		c-3.4,2.2-8.5,6.1-13,12.4c-3.9,5.4-6,10.6-7.1,14.2c1.6,4.3,5.3,7.3,9.4,7.6c3.8,0.3,6.6-1.9,7.3-2.5c1.5-4.8,5.6-15.1,15.9-21.7
		c12-7.7,25-5.7,34.4-4.3c4.5,0.7,8.7,1.8,12.4,3.1L90.5,113.4z"/>
	<path id="RUL" fill="#ADADAD" d="M92.6,140c6.3,2.2,11.5,5,15.5,7.6l3.7,0.3c1.8,0.8,3.7,1.7,5.8,2.9c1.7,1,3.3,1.9,4.7,2.9
		c13.6-10.5,27.1-21.1,40.7-31.6c-2.3-0.3-4.1-0.8-5.2-1c-4-1-17.9-5-26.5-17.1c-0.3-0.4-0.5-0.7-0.6-0.9c-7,1-13.9,2-20.9,3
		c-6.4,2.4-12.8,4.9-19.2,7.3L92.6,140z"/>
	<path id="RightMain" fill="#999999" d="M162.9,122.1c3.8,0.5,7.7,0.5,13.2,0.4c14.1-0.2,16-2.3,29.1-3.4c11-0.8,28.8-2,45.8,7.3
		c2.3,1.3,4.1,2.5,5.2,3.2L216,191.4c-7.7-16.3-41-14-42.8-13.9c-17.6,1.4-30.2,9.5-36.1,13.9c-5-12.6-10-25.2-14.9-37.8
		L162.9,122.1z"/>
	<path id="PulmonaryTrunk" fill="#808080" d="M259.3,129.9c-1-0.1-2-0.1-3.1-0.2L216,191.4c0.9,1.9,1.9,4.9-4,29.1
		c-4.5,18.5-6.9,23.9-9.2,35.6c-2.2,11.1-3,21-3.2,28.9c2.7,3.5,7.9,9.2,15.9,13.5c9.6,5.1,18.2,5.7,23.2,5.9
		c14.4,0.7,25.9-3.7,32.2-6.8c3-16.9,4.7-30.9,5.8-40.6c1.8-16.3,2.1-25.2,6.2-38.8c1.9-6.3,4-13.3,7-18.9L259.3,129.9z"/>
</g>
<g>
	<path display="none" fill="none" stroke="#9D9D9C" stroke-width="3" stroke-miterlimit="10" d="M199.6,285c0.2-7.9,1-17.7,3.2-28.9
		c2.3-11.7,4.6-17.1,9.2-35.6c5.9-24.2,4.9-27.2,4-29.1c-7.7-16.3-41-14-42.8-13.9c-17.6,1.4-30.2,9.5-36.1,13.9
		c1.8,3.2,4.3,7.1,7.8,11c6.6,7.2,13.6,11.2,18.4,13.4c0.3,0.7,1.7,4.5-0.2,8.7c-1.9,4.3-5.8,5.8-6.5,6c-5.3-2.2-13-6.2-20.6-13.3
		c-5.5-5.1-9.2-10.3-11.7-14.4c-2.2,2.9-5.1,7-7.8,12.4c-3.1,6.1-8.1,18-8.7,33.6c-0.2,5-0.4,13,2.4,22.4
		c1.2,3.8,3.9,11.1,19.5,29.2c16.7,19.4,22.3,26.5,27.1,38.1c1.8,4.2,0.4,9-3.1,11.5c-3.1,2.2-7.4,2.2-10.7,0
		c-5.1-9.1-11.3-19-18.7-29.1c-5.4-7.4-10.8-14-16-20c9.9,15.3,15.7,29.4,19.1,40c5.1,15.9,6.6,28.8,7.6,37.3
		c1.8,16.8,1.5,31.6,0.3,43.7c-0.9,3.7-3.9,6.5-7.4,6.9c-4.2,0.5-8.5-2.4-9.6-6.9c1.3-9.6,2-21.4,1-34.8c-0.7-9.6-2.2-18.2-3.9-25.6
		c-0.8,9-2.7,20.4-7,32.9c-2.8,8.2-6.2,15.3-9.4,21.2c-2.5,2.3-6,3-9.1,1.7c-3.1-1.2-5.2-4.1-5.4-7.5c3.3-7.8,5.8-14.5,7.5-19.4
		c4.4-12.4,6.9-19.8,8.1-30.1c0.6-4.8,1.2-9.7,0.5-16.1c-1.2-10.7-5.2-18.9-8.1-23.7c-1,10.9-2.5,22.6-4.8,35.1
		c-1.6,8.7-3.4,16.9-5.4,24.6c-0.5,0.4-4.9,3.5-10.4,1.8c-5-1.5-7-5.9-7.3-6.5c2-5.2,4.2-11.7,6-19.3c3.1-13.4,3.5-24,3.7-30
		c0.2-7.9-0.1-14.1-0.5-20.6c-0.5-8.2-1.1-13.3-1.6-17.7c-0.8-8.2-1.6-19.9-1.2-34.8c-4.5,5-10.9,11.2-19.6,16.9
		c-7.1,4.7-13.8,7.8-19.3,9.9c-0.9-0.5-3.8-2.4-5.2-6.3c-1.7-4.8,0.4-8.9,0.8-9.6c3-1,6.3-2.5,9.8-4.4c7-3.8,12.1-8.4,15.7-12.1
		c-4.4,0.6-9.4,1-14.9,1c-3.7,0-7.2-0.1-10.4-0.4c-0.8-1.1-2.4-3.8-2.6-7.7c-0.2-5,2.4-8.4,3.1-9.4c4.3,0.8,11.7,1.7,20.6-0.3
		c9.7-2.2,16.5-6.7,20-9.5c-0.1-10.1,1.3-25.4,9.3-40.8c0.9-1.6,4.5-8.4,11-16.1c6.7-7.9,13.5-13.4,18.7-17
		c-6.4-4.2-15.9-8.9-27.9-10.7c-9.4-1.5-22.4-3.5-34.4,4.3c-10.3,6.6-14.3,16.9-15.9,21.7c-0.7,0.6-3.5,2.7-7.3,2.5
		c-4.1-0.3-7.8-3.3-9.4-7.6c1.1-3.6,3.2-8.8,7.1-14.2c4.5-6.3,9.6-10.2,13-12.4c-4.6,0.7-12.6,1.4-21.9-1.6
		c-4.7-1.5-8.5-3.6-11.3-5.5c-0.2-1.3-0.7-6,2.3-10.7c3.3-5.1,8.4-6.6,9.6-6.8c3.2,1.6,8.3,3.7,14.7,5c11.4,2.3,19.7,0.4,28-0.4
		c8.3-0.9,20.4-1.1,35.8,2.3C86.3,98,81.7,85.4,77.8,76C72,61.9,68.3,55.8,61.7,51.2c-5.9-4.1-12-5.5-16.2-6
		c-0.5-0.7-3.3-4.9-2.1-10.4c1.1-4.7,4.4-7.2,5.2-7.8c3,0.2,8.5,0.9,14.3,4.2c7.1,4,10.9,9.6,12.4,12.3c-2.8-6.4-5.6-14.4-7.5-24
		c-1-5.5-1.6-10.6-1.8-15.1c1-0.9,3.9-3.5,8.6-4.2c4.8-0.7,8.5,1.2,9.6,1.8c0.5,6.5,1.3,13.5,2.6,20.9c3.4,19.1,9,35.4,14.8,48.4
		c0.3-6.4,1.7-19.6,10-33.4c9.1-15.2,21.4-22.9,27-26c0.6,0,4.9-0.2,8.2,3.1c3.7,3.7,3,8.6,2.9,9.1c-2.8,1.1-7.4,3.3-11.7,7.6
		c-5.1,5-7.5,10.3-8.6,13.3c3.3-1.9,7.5-3.9,12.5-5.5c6.8-2.2,12.8-2.9,17.5-3.2c0.6,0.8,2.7,3.8,2.3,8.1c-0.3,3.4-1.9,5.7-2.6,6.5
		c-3.4,0-14.6,0.5-24.2,8.9c-2.2,1.9-7.9,7-10.2,15.4c-3.5,12.8,3.4,24.3,5.9,28c0.1,0.2,0.3,0.5,0.6,0.9
		c8.8,12.3,22.1,16,26.5,17.1c6,1.6,10.4,1.5,18.4,1.4c14.1-0.2,16-2.3,29.1-3.4c11-0.8,28.8-2,45.8,7.3c2.3,1.3,4.1,2.5,5.2,3.2
		c1,0.1,2,0.1,3.1,0.2c2.5-1.1,6.1-2.6,10.6-3.8c3.8-1,19.2-4.8,38.3,0.2c5,1.3,12,3.7,19.9,8.3c16.6-13.4,27.9-26.1,35-35.2
		c8.9-11.3,12.9-18.9,15.6-25.6c3-7.4,4.6-13.9,5.4-18.6c0.5-0.5,4.1-4.5,10-4.1c5.4,0.3,8.5,4.2,9,4.8c0,2.7-0.1,5.7-0.7,9
		c-1.3,8-4.3,14.1-6.8,18.2c3.6-2.7,7.7-5.5,12.5-8.3c5.8-3.3,11.3-5.8,16.2-7.6c0.7,0.4,4.1,2.5,5.2,6.8c1,3.9-0.4,7-0.8,7.8
		c-6.3,3.2-15.1,8.2-25,15.1c-14.2,10-23.7,19.3-33.1,28.7c-6.5,6.5-15,15.3-24.2,26.5c5.9,0.1,14.4,0.1,24.5-0.3
		c13-0.5,19.6-0.7,25.8-2.1c7.1-1.6,17.9-5.2,29.9-14.8c0.9,0,6.2,0.1,10,4.4c2.4,2.7,3,5.8,3.1,7c-3.9,4-10,9.3-18.6,13.9
		c-8.2,4.3-15.7,6.3-21.1,7.3c9.6,1.7,21.7,2.9,35.6,2.4c13-0.4,24.2-2.2,33.3-4.3c1.1,1.2,4.8,5.3,5.1,11.5
		c0.2,3.8-0.8,6.7-1.6,8.3c-15.9,4.5-29.1,5.6-38.3,5.8c-20.1,0.4-30.5-5.6-57.8-7.5c-11.2-0.8-20.3-0.6-26-0.4
		c0.5,7.3,2,18.2,7,30.3c3.3,8.1,9,21.5,22.9,32.7c5.6,4.5,18.2,14.4,36.7,15.2c8.7,0.4,15.8-1.4,20.2-2.9c0.5,0.4,4.9,4,4.6,9.6
		c-0.1,2.8-1.4,4.9-2.1,5.8c-3.8,1.6-10.2,3.6-18.3,3.8c-8.4,0.2-15.1-1.8-19-3.3c3.1,5.8,6.3,12.1,9.3,19
		c3.3,7.5,6.1,14.7,8.4,21.5c-0.5,1.1-1.8,3.3-4.5,4.8c-4.8,2.7-9.8,0.8-10.4,0.5c-2.9-11.1-6.9-19.9-10.2-26.1
		c-3-5.7-6.7-12.6-13.6-20.1c-7-7.7-10.5-8.4-17.5-15.9c-6.2-6.6-10-13.1-12.2-17.5c-0.9,9.8-1.1,25.5,3.9,43.5
		c6.7,24,19.1,39.6,30.2,53.5c8,10,20.4,23.7,38.3,37.3c0.1,1.3,0.3,5-1.8,8.9c-2.1,3.9-5.3,5.7-6.5,6.3
		c-8.1-7.4-16.3-15.1-24.5-22.9c-5.1-4.8-10-9.7-14.9-14.5c1.6,12.2,2.5,27.1,1.4,44.2c-1,13.9-3.1,26.2-5.6,36.5
		c-1.9,3.6-5.6,5.7-9.5,5.4c-3.5-0.2-6.7-2.4-8.3-5.7c5-21.7,6.1-40,6.2-53c0.1-17.3,0.1-28.8-4.4-43.4
		c-4.6-14.7-9.6-18.5-15.9-36.2c-5-14.2-7.4-26.3-8.6-34.2c-1.3,16.9-1.2,31.3-0.8,42.2c0.6,15.7,1.2,29,5.2,46
		c3.2,13.5,7.4,24.3,10.7,31.8c-0.2,0.8-1.3,5.5-6,8.1c-3.9,2.2-7.6,1.5-8.6,1.3c-2.5-5.1-5.1-11.1-7.3-18
		c-3.4-10.8-4.9-20.6-5.5-28.4c-1.9,8.6-4.6,18.4-8.6,28.9c-3.2,8.6-6.8,16.2-10.2,22.8c-2.8,2.7-6.9,3.5-10.4,1.9
		c-3.1-1.4-5.2-4.6-5.4-8.1c3.3-5.7,7.3-13.4,11.1-23c3.2-8.2,5-14.4,6.8-21.1c1.6-5.8,6.5-23.9,7.8-39.9c0.4-5.5,0.7-12.4,0.8-16.4
		c0.4-9.8,0.1-10.3,0.4-18.5c0.3-7.4,1.7-18.6,2.6-28.3c0.3-2.6,0.6-6.7,0.9-11.7c-2.2,4.2-4.4,9.4-6.1,15.4
		c-0.8,2.8-1.4,5.4-1.9,7.9c-0.3,0.2-4.6,3-9.4,1c-4-1.7-5.3-5.4-5.5-6c2.5-8.9,5.7-15.4,8.3-19.8c2-3.3,4.5-7.1,10.2-16.7
		c3.4-5.8,4.6-7.8,5.2-11.1c0.5-2.4,1.8-9.8-2.7-14.5c-3.1-3.4-8.4-4.6-12.6-3.7c-10,2.1-14.6,16.9-18.3,29.2
		c-4.1,13.7-4.4,22.5-6.2,38.8c-1.1,9.7-2.8,23.7-5.8,40.6c-6.3,3.1-17.8,7.6-32.2,6.8c-5-0.3-13.6-0.8-23.2-5.9
		C207.4,294.2,202.3,288.5,199.6,285z"/>
	<path fill="none" stroke="#9D9D9C" stroke-linecap="round" stroke-miterlimit="10" d="M72.3,218.6c2.6-2.9,5.3-6.3,8-10.3
		c2.7-3.9,4.8-7.7,6.6-11.1"/>
	<path fill="none" stroke="#9D9D9C" stroke-linecap="round" stroke-miterlimit="10" d="M74.2,248.4c4.3-5.4,8.7-11.4,13-17.8
		c3.9-5.7,7.4-11.3,10.6-16.7"/>
	<path fill="none" stroke="#B2B2B2" stroke-linecap="round" stroke-miterlimit="10" d="M103.4,78.8c0.1,3.6,0.4,7.9,1.4,12.8
		c1.2,5.9,3.1,10.8,4.9,14.6"/>
	<path fill="none" stroke="#9D9D9C" stroke-linecap="round" stroke-miterlimit="10" d="M111.8,148c1.8,0.8,3.7,1.7,5.8,2.9
		c1.7,1,3.3,1.9,4.7,2.9"/>
	<path fill="none" stroke="#9D9D9C" stroke-linecap="round" stroke-miterlimit="10" d="M325.2,136.9c-1.1,0.6-2.6,1.3-4.3,1.8
		c-2.6,0.8-4.8,0.9-6.5,0.9"/>
	<path fill="none" stroke="#9D9D9C" stroke-linecap="round" stroke-miterlimit="10" d="M316.4,174.7c1.9,1.3,4.5,2.9,7.7,4.3
		c4.8,2.1,8.7,3,10.1,3.2c4.7,0.9,9,1,12.4,0.7"/>
	<path fill="none" stroke="#B2B2B2" stroke-linecap="round" stroke-miterlimit="10" d="M368.1,340.5c0.5,1,1.2,2.1,2,3.2
		c1,1.5,2.1,2.6,3.1,3.6"/>
	<path fill="none" stroke="#9D9D9C" stroke-linecap="round" stroke-miterlimit="10" d="M91.1,314.3c0-2.5-0.2-5.3-0.5-8.3
		c-0.3-2.9-0.8-5.5-1.3-7.9"/>
	<path fill="none" stroke="#B2B2B2" stroke-linecap="round" stroke-miterlimit="10" d="M4.8,122.9c0.6-0.1,4.3-1.1,6.3-4.8
		c1.6-3,1.1-6,0.9-6.7"/>
	<path fill="none" stroke="#B2B2B2" stroke-linecap="round" stroke-miterlimit="10" d="M16.8,157c0.6-0.3,2.8-1.4,5.6-0.9
		c3.3,0.6,5,2.9,5.4,3.4"/>
	<path fill="none" stroke="#B2B2B2" stroke-linecap="round" stroke-miterlimit="10" d="M29.7,266.7c0.7,0.6,1.9,2,2.7,4.1
		c0.8,2.1,0.7,3.9,0.5,4.9"/>
	<path fill="none" stroke="#B2B2B2" stroke-linecap="round" stroke-miterlimit="10" d="M68.9,374.8c0.5-0.3,2.8-1.5,5.8-0.8
		c3.1,0.8,4.6,3.1,4.9,3.6"/>
	<path fill="none" stroke="#B2B2B2" stroke-linecap="round" stroke-miterlimit="10" d="M416,386c-0.1-0.7-0.5-3.4,1.3-6.1
		c1.3-2,3-2.9,3.8-3.2"/>
	<path fill="none" stroke="#B2B2B2" stroke-linecap="round" stroke-miterlimit="10" d="M407.3,318.1c0.3-0.5,1.4-2.6,4-3.6
		c2.8-1.1,5.3-0.1,5.8,0.1"/>
	<path fill="none" stroke="#B2B2B2" stroke-linecap="round" stroke-miterlimit="10" d="M467.8,169.3c-0.5,1-1.4,3.2-1.3,5.9
		c0.3,4.5,3.3,7.3,4,7.9"/>
	<path fill="none" stroke="#B2B2B2" stroke-linecap="round" stroke-miterlimit="10" d="M427.4,137.8c0.5,1.1,1.5,3,3.4,4.7
		c2.2,2,4.5,2.9,5.8,3.2"/>
	<path fill="none" stroke="#B2B2B2" stroke-linecap="round" stroke-miterlimit="10" d="M58.8,244.3c1.6-1.2,3.4-2.9,5.2-5
		c1.3-1.5,2.3-2.9,3.1-4.2"/>
	<path fill="none" stroke="#9D9D9C" stroke-linecap="round" stroke-miterlimit="10" d="M125.3,199.2c0.6-0.9,1.3-2,2.3-3.1
		c1-1.1,1.9-1.9,2.7-2.5"/>
	<path fill="none" stroke="#9D9D9C" stroke-linecap="round" stroke-miterlimit="10" d="M317.5,228c0.2-2.1,0.3-4.3,0.3-6.7
		c0-1.7,0-3.2-0.1-4.8"/>
	<path fill="none" stroke="#B2B2B2" stroke-linecap="round" stroke-miterlimit="10" d="M398.9,271.3c-0.6-1.6-1.5-3.4-2.7-5.3
		c-0.7-1.1-1.5-2.1-2.2-3"/>
	<path fill="none" stroke="#B2B2B2" stroke-linecap="round" stroke-miterlimit="10" d="M390.2,90.9c-1.4,3.5-3,7.3-5,11.2
		c-2.4,4.8-4.9,9.1-7.4,12.9"/>
</g>
</svg>
