<?xml version="1.0" encoding="UTF-8"?>
<svg xmlns="http://www.w3.org/2000/svg" viewBox="0 0 869.93 465.36">
  <g id="leftCerebellum">
    <path
      d="M675.7,316.01c-.34-8.2-1.19-10.13,.36-11.87,2.15-2.41,6.89-1.63,9.35-.72,2.75,1.02,4.33,2.86,4.84,3.51,2.39,3.01,2.45,6.31,2.43,7.28,.5-3.79,3.8-6.58,7.47-6.47,3.9,.12,7.15,3.47,7.09,7.55,.45-1.15,1.24-2.86,2.62-4.67,1.32-1.74,2.77-3.66,5.39-4.67,.99-.38,4.06-1.57,6.83,0,2.42,1.37,3.11,4.08,3.51,5.66,.51,1.98,.41,3.69,.25,4.77,.46-1.16,3.91-9.37,11.34-10.79,3.29-.63,8.47-.13,9.71,2.52,.41,.87,.35,1.9,.26,3.69-.1,1.96-.49,3.54-.81,4.58,1.03-1.24,4.23-4.74,9.54-5.75,1.75-.33,7.69-1.46,10.79,2.16,2.69,3.14,2.42,8.88-1.18,13.57,1.23-.44,3.13-.97,5.49-.99,1.47-.01,4.99-.02,8.27,2.16,.61,.4,6.47,4.41,5.75,9.71-.46,3.43-3.65,5.47-6.83,7.55-2.75,1.8-5.34,2.69-7.02,3.15,1.45,.15,5.97,.82,9.44,4.58,1.11,1.21,3.5,3.8,3.34,7.37-.23,5.09-5.42,7.95-6.57,8.54-3.85,1.96-7.59,1.36-8.9,1.08,.54,1.19,1.24,3.08,1.45,5.48,.17,1.9,.48,5.49-1.72,8.81-3.1,4.67-8.93,5.05-9.98,5.12-4.01,.27-7-1.26-8.09-1.89-4.44-2.56-6.06-6.66-6.47-7.82,.04,1.22,0,3-.35,5.12-.67,4-1.35,8.05-4.67,10.43-4.14,2.96-9.39,1.19-9.71,1.08-4.46-1.58-6.26-5.42-6.57-6.11-.31,1.29-1.11,3.81-3.24,6.2-2.87,3.23-6.31,4.14-7.01,4.31-1.49,.37-4.6,.87-7.99-.45-2.97-1.16-4.61-3.13-6.57-5.48-2.05-2.45-3.3-4.81-4.04-6.47,.11,1.68,.07,4.73-1.35,8.09-.95,2.25-2.1,4.97-4.93,6.38-3.35,1.67-7.85,.92-10.79-1.8-3.47-3.21-3.2-7.74-3.16-8.36-.46,1.2-1.56,3.59-4.03,5.48-.37,.28-5.24,3.91-10.07,2.16-5.5-1.99-6.7-9.51-6.83-10.43-.96-6.61,3.02-8.34,5.39-19.06,1.78-8.05-.2-8.32,1.8-15.46,2.02-7.25,5.7-12.87,7.91-16.18,4.62-6.94,7.36-8.37,8.27-13.66,.3-1.76,.2-4.17,0-8.99Z"
      fill="#5c5c5b" />
  </g>
  <g id="rightCerebellum">
    <path
      d="M557.32,316.01c.34-8.2,1.19-10.13-.36-11.87-2.15-2.41-6.89-1.63-9.35-.72-2.75,1.02-4.33,2.86-4.84,3.51-2.39,3.01-2.45,6.31-2.43,7.28-.5-3.79-3.8-6.58-7.47-6.47-3.9,.12-7.15,3.47-7.09,7.55-.45-1.15-1.24-2.86-2.62-4.67-1.32-1.74-2.77-3.66-5.39-4.67-.99-.38-4.06-1.57-6.83,0-2.42,1.37-3.11,4.08-3.51,5.66-.51,1.98-.41,3.69-.25,4.77-.46-1.16-3.91-9.37-11.34-10.79-3.29-.63-8.47-.13-9.71,2.52-.41,.87-.35,1.9-.26,3.69,.1,1.96,.49,3.54,.81,4.58-1.03-1.24-4.23-4.74-9.54-5.75-1.75-.33-7.69-1.46-10.79,2.16-2.69,3.14-2.42,8.88,1.18,13.57-1.23-.44-3.13-.97-5.49-.99-1.47-.01-4.99-.02-8.27,2.16-.61,.4-6.47,4.41-5.75,9.71,.46,3.43,3.65,5.47,6.83,7.55,2.75,1.8,5.34,2.69,7.02,3.15-1.45,.15-5.97,.82-9.44,4.58-1.11,1.21-3.5,3.8-3.34,7.37,.23,5.09,5.42,7.95,6.57,8.54,3.85,1.96,7.59,1.36,8.9,1.08-.54,1.19-1.24,3.08-1.45,5.48-.17,1.9-.48,5.49,1.72,8.81,3.1,4.67,8.93,5.05,9.98,5.12,4.01,.27,7-1.26,8.09-1.89,4.44-2.56,6.06-6.66,6.47-7.82-.04,1.22,0,3,.35,5.12,.67,4,1.35,8.05,4.67,10.43,4.14,2.96,9.39,1.19,9.71,1.08,4.46-1.58,6.26-5.42,6.57-6.11,.31,1.29,1.11,3.81,3.24,6.2,2.87,3.23,6.31,4.14,7.01,4.31,1.49,.37,4.6,.87,7.99-.45,2.97-1.16,4.61-3.13,6.57-5.48,2.05-2.45,3.3-4.81,4.04-6.47-.11,1.68-.07,4.73,1.35,8.09,.95,2.25,2.1,4.97,4.93,6.38,3.35,1.67,7.85,.92,10.79-1.8,3.47-3.21,3.2-7.74,3.16-8.36,.46,1.2,1.56,3.59,4.03,5.48,.37,.28,5.24,3.91,10.07,2.16,5.5-1.99,6.7-9.51,6.83-10.43,.96-6.61-3.02-8.34-5.39-19.06-1.78-8.05,.2-8.32-1.8-15.46-2.02-7.25-5.7-12.87-7.91-16.18-4.62-6.94-7.36-8.37-8.27-13.66-.3-1.76-.2-4.17,0-8.99Z"
      fill="#5c5c5b" />
  </g>
  <g id="leftBrainstem">
    <path
      d="M667.87,250.57c-1.34,2.69-3.02,6.73-3.96,11.87-1.02,5.59-.71,9.96-.36,14.74,.45,6.15,1.44,10.78,2.16,14.02,1.73,7.86,2.65,8.31,4.31,15.82,1.85,8.37,2.78,12.56,1.44,16.54-.59,1.74-.78,1.32-8.27,11.51-4.3,5.86-5.51,7.72-6.47,10.43-1.39,3.9-1.53,7.41-1.44,9.71-2.61,1.19-6.26,3.34-8.99,7.19-4.01,5.66-3.24,11.06-3.6,20.85-.21,5.69-1.58,14.58-4.31,32.36-1.3,8.46-2.63,15.4-3.6,20.13-5.39,.12-10.79,.24-16.18,.36,.08-22.24,.05-40.31,0-52.85-.05-13.9,.05-27.81,0-41.71,0-.42-.05-15.75,.72-35.96,.77-20.27,1.6-25.06,4.67-30.56,5.92-10.61,15.67-15.79,19.78-17.98,9.84-5.24,19-6.27,24.09-6.47Z"
      fill="#6b6b6a" />
  </g>
  <g id="rightBrainstem">
    <path
      d="M565.15,250.57c1.34,2.69,3.02,6.73,3.96,11.87,1.02,5.59,.71,9.96,.36,14.74-.45,6.15-1.44,10.78-2.16,14.02-1.73,7.86-2.65,8.31-4.31,15.82-1.85,8.37-2.78,12.56-1.44,16.54,.59,1.74,.78,1.32,8.27,11.51,4.3,5.86,5.51,7.72,6.47,10.43,1.39,3.9,1.53,7.41,1.44,9.71,2.61,1.19,6.26,3.34,8.99,7.19,4.01,5.66,3.24,11.06,3.6,20.85,.21,5.69,1.58,14.58,4.31,32.36,1.3,8.46,2.63,15.4,3.6,20.13,5.39,.12,10.79,.24,16.18,.36-.08-22.24-.05-40.31,0-52.85,.05-13.9-.05-27.81,0-41.71,0-.42,.05-15.75-.72-35.96-.77-20.27-1.6-25.06-4.67-30.56-5.92-10.61-15.67-15.79-19.78-17.98-9.84-5.24-19-6.27-24.09-6.47Z"
      fill="#6b6b6a" />
  </g>
  <g id="leftThalamus">
    <path
      d="M628.32,178.48c.68-.93,2.95-3.81,6.83-5.75,1.79-.9,2.24-.75,10.79-2.52,5.31-1.1,5.54-1.24,6.47-1.08,5.28,.92,8.2,7.27,8.99,8.99,3.02,6.57,1.81,12.97,1.08,16.9-.52,2.81-1.79,6.1-4.31,12.67-1.98,5.14-2.99,7.74-4.31,9.62-3.79,5.37-8.89,7.76-10.79,8.63-1.14,.52-13.52,6.02-18.07,1.17-1.1-1.18-1.29-4.04-1.62-9.71-.36-6.15-.2-10.96-.09-13.38,.2-4.53,.37-8.18,1.17-13.04,1.02-6.19,1.57-9.34,3.87-12.49Z"
      fill="#aaaaa9" />
    <path
      d="M275.52,251.76c-4.04-8.2-6.08-12.28-6.99-13.9-2.13-3.84-5.51-9.36-10.51-15.19-5.65-6.58-8.4-7.76-10.66-8.17-.81-.15-4.97-.92-8.07,1.49-1.08,.84-2.76,2.64-3.58,11.12-.81,8.33,0,14.92,.59,18.6,1.04,6.48,1.56,9.71,3.74,13.15,1.13,1.79,4.33,6.28,10.13,8.72,2.94,1.24,6.02,1.39,12.17,1.68,6.07,.29,5.96-.88,11.59-.47,2.93,.21,4.29,.58,5.25-.36,1.58-1.55,.53-5.12-.7-9.16-1.16-3.81-2.5-6.56-2.96-7.5Z"
      fill="#aaaaa9" />
  </g>
  <g id="rightThalamus">
    <path
      d="M189.22,251.76c4.04-8.2,6.08-12.28,6.99-13.9,2.13-3.84,5.51-9.36,10.51-15.19,5.65-6.58,8.4-7.76,10.66-8.17,.81-.15,4.97-.92,8.07,1.49,1.08,.84,2.76,2.64,3.58,11.12,.81,8.33,0,14.92-.59,18.6-1.04,6.48-1.56,9.71-3.74,13.15-1.13,1.79-4.33,6.28-10.13,8.72-2.94,1.24-6.02,1.39-12.17,1.68-6.07,.29-5.96-.88-11.59-.47-2.93,.21-4.29,.58-5.25-.36-1.58-1.55-.53-5.12,.7-9.16,1.16-3.81,2.5-6.56,2.96-7.5Z"
      fill="#aaaaa9" />
    <path
      d="M604.7,178.48c-.68-.93-2.95-3.81-6.83-5.75-1.79-.9-2.24-.75-10.79-2.52-5.31-1.1-5.54-1.24-6.47-1.08-5.28,.92-8.2,7.27-8.99,8.99-3.02,6.57-1.81,12.97-1.08,16.9,.52,2.81,1.79,6.1,4.31,12.67,1.98,5.14,2.99,7.74,4.31,9.62,3.79,5.37,8.89,7.76,10.79,8.63,1.14,.52,13.52,6.02,18.07,1.17,1.1-1.18,1.29-4.04,1.62-9.71,.36-6.15,.2-10.96,.09-13.38-.2-4.53-.37-8.18-1.17-13.04-1.02-6.19-1.57-9.34-3.87-12.49Z"
      fill="#aaaaa9" />
  </g>
  <g id="leftBasalganglia">
    <path
      d="M684.05,150.08c2.97,2.74,6.79,6.57,10.79,11.51,3.11,3.84,6.91,8.58,10.43,15.46,4.2,8.21,5.81,15.2,7.19,21.21,1.87,8.1,.65,6.84,2.88,17.62,1.8,8.71,2.86,10.78,1.44,13.3-3.5,6.23-16.18,4.76-16.9,4.67-5.17-.65-8.6-2.71-15.46-6.83-7.78-4.67-12.59-9.36-14.02-10.79-3.34-3.34-5.81-6.52-7.55-8.99,3.4-7.37,4.16-13.75,4.31-17.62,.16-3.89,.15-9.96-3.24-16.54-1.78-3.46-3.93-5.92-5.48-7.46,2.14-.43,5.25-1.16,8.9-2.43,4.46-1.55,7.31-2.53,10.25-4.85,1.66-1.31,4.36-3.85,6.47-8.27Z"
      fill="#bbbaba" />
    <path
      d="M283.16,141.45c2.09,2.76,5.35,6.9,9.64,11.7,8.15,9.11,10.37,9.8,14.37,15.83,1.03,1.55,5.14,7.94,7.65,17.36,1.52,5.71,1.87,10.34,1.97,12.37,.32,6.55-.71,8.9-1.7,18.64-.83,8.19-.9,14.98-1.02,18.9-.32,11.11,.42,12.95-.75,18.62-1.12,5.39-3,9.57-4.37,12.21-2.99-.61-7.3-1.14-12.42-.59-4.18,.45-7.64,1.48-10.18,2.46-.99-2.18-2.44-5.37-4.24-9.22-4.44-9.5-6.91-15.36-10.91-22.2-6.35-10.86-8.85-14.84-11.48-17.69-1-1.08-2.08-2.04-2.08-2.04-2.15-1.96-4.14-3.37-5.63-4.33,1.75-1.39,6.16-5.3,7.78-11.89,1.4-5.71-.04-10.44-.62-12.26-2.24-7.04-5.84-7.19-7.23-12.52-1.61-6.16,1.1-14.04,6.02-18.34,5.87-5.14,11.48-2.21,18.47-7.87,3.69-2.99,5.66-6.67,6.72-9.15Z"
      fill="#bbbaba" />
  </g>
  <g id="rightBasalganglia">
    <path
      d="M181.57,141.45c-2.09,2.76-5.35,6.9-9.64,11.7-8.15,9.11-10.37,9.8-14.37,15.83-1.03,1.55-5.14,7.94-7.65,17.36-1.52,5.71-1.87,10.34-1.97,12.37-.32,6.55,.71,8.9,1.7,18.64,.83,8.19,.9,14.98,1.02,18.9,.32,11.11-.42,12.95,.75,18.62,1.12,5.39,3,9.57,4.37,12.21,2.99-.61,7.3-1.14,12.42-.59,4.18,.45,7.64,1.48,10.18,2.46,.99-2.18,2.44-5.37,4.24-9.22,4.44-9.5,6.91-15.36,10.91-22.2,6.35-10.86,8.85-14.84,11.48-17.69,1-1.08,2.08-2.04,2.08-2.04,2.15-1.96,4.14-3.37,5.63-4.33-1.75-1.39-6.16-5.3-7.78-11.89-1.4-5.71,.04-10.44,.62-12.26,2.24-7.04,5.84-7.19,7.23-12.52,1.61-6.16-1.1-14.04-6.02-18.34-5.87-5.14-11.48-2.21-18.47-7.87-3.69-2.99-5.66-6.67-6.72-9.15Z"
      fill="#bbbaba" />
    <path
      d="M548.97,150.08c-2.97,2.74-6.79,6.57-10.79,11.51-3.11,3.84-6.91,8.58-10.43,15.46-4.2,8.21-5.81,15.2-7.19,21.21-1.87,8.1-.65,6.84-2.88,17.62-1.8,8.71-2.86,10.78-1.44,13.3,3.5,6.23,16.18,4.76,16.9,4.67,5.17-.65,8.6-2.71,15.46-6.83,7.78-4.67,12.59-9.36,14.02-10.79,3.34-3.34,5.81-6.52,7.55-8.99-3.4-7.37-4.16-13.75-4.31-17.62-.16-3.89-.15-9.96,3.24-16.54,1.78-3.46,3.93-5.92,5.48-7.46-2.14-.43-5.25-1.16-8.9-2.43-4.46-1.55-7.31-2.53-10.25-4.85-1.66-1.31-4.36-3.85-6.47-8.27Z"
      fill="#bbbaba" />
  </g>
  <g id="leftInsula">
    <path
      d="M744.09,214.8c1.25-2.33,1.51-4.27,1.98-7.91,.56-4.3,1.02-7.89-.54-11.87-.6-1.54-2.23-4.96-6.47-7.91-.19-2.38-.76-5.89-2.52-9.71-1.36-2.95-3.6-6.43-12.58-13.66-10.21-8.22-15.74-12.68-19.06-10.79-2.74,1.56-2.57,6.65-2.52,8.27,.21,6.31,3.73,9.56,7.19,15.46,4.7,8.03,6.07,15.49,7.19,21.57,2.37,12.91-.89,18.16,3.6,22.29,4.35,4.01,11.28,2.76,12.49,2.52,.35-.07,7.67-1.66,11.24-8.27Z"
      fill="#cacaca" />
    <path
      d="M335.69,245.72c1.85-1.57,6.25-5.76,7.6-12.54,.52-2.62,1.76-8.8-2.12-13.31-1.98-2.3-4.51-3.26-6-3.67,1.46-1.22,4.8-4.4,5.5-9.27,.57-3.94-.89-6.99-2.89-11.01-1.65-3.32-4.62-8.29-9.94-13.31,1.09-.94,2.73-2.64,3.69-5.19,.79-2.13,1.13-4.91-.16-9.44-.84-2.93-2.5-7.09-10.82-17.07-8.84-10.61-11.95-11.9-14.24-12.43-2.03-.47-3.89-.45-7.29-.41-5.06,.05-9.23,.7-12.11,1.29,1.92,2.47,4.83,6.1,8.54,10.37,8.37,9.63,10.61,10.74,14.3,15.66,7.42,9.9,9.46,20.23,10.03,23.31,.95,5.09,.46,12.38-.53,26.96-.97,14.45-1.72,14.21-1.52,21.33,.22,7.99,1.25,11.53,.04,17.8-1.19,6.18-3.76,10.9-5.69,13.85,1.98,.7,6.19,1.87,11.34,.88,2.06-.4,5.76-1.16,9.1-4.2,.78-.71,5.97-5.56,5.44-12.77-.23-3.18-1.48-5.56-2.28-6.84Z"
      fill="#cacaca" />
  </g>
  <g id="rightInsula">
    <path
      d="M129.05,245.72c-1.85-1.57-6.25-5.76-7.6-12.54-.52-2.62-1.76-8.8,2.12-13.31,1.98-2.3,4.51-3.26,6-3.67-1.46-1.22-4.8-4.4-5.5-9.27-.57-3.94,.89-6.99,2.89-11.01,1.65-3.32,4.62-8.29,9.94-13.31-1.09-.94-2.73-2.64-3.69-5.19-.79-2.13-1.13-4.91,.16-9.44,.84-2.93,2.5-7.09,10.82-17.07,8.84-10.61,11.95-11.9,14.24-12.43,2.03-.47,3.89-.45,7.29-.41,5.06,.05,9.23,.7,12.11,1.29-1.92,2.47-4.83,6.1-8.54,10.37-8.37,9.63-10.61,10.74-14.3,15.66-7.42,9.9-9.46,20.23-10.03,23.31-.95,5.09-.46,12.38,.53,26.96,.97,14.45,1.72,14.21,1.52,21.33-.22,7.99-1.25,11.53-.04,17.8,1.19,6.18,3.76,10.9,5.69,13.85-1.98,.7-6.19,1.87-11.34,.88-2.06-.4-5.76-1.16-9.1-4.2-.78-.71-5.97-5.56-5.44-12.77,.23-3.18,1.48-5.56,2.28-6.84Z"
      fill="#cacaca" />
    <path
      d="M488.93,214.8c-1.25-2.33-1.51-4.27-1.98-7.91-.56-4.3-1.02-7.89,.54-11.87,.6-1.54,2.23-4.96,6.47-7.91,.19-2.38,.76-5.89,2.52-9.71,1.36-2.95,3.6-6.43,12.58-13.66,10.21-8.22,15.74-12.68,19.06-10.79,2.74,1.56,2.57,6.65,2.52,8.27-.21,6.31-3.73,9.56-7.19,15.46-4.7,8.03-6.07,15.49-7.19,21.57-2.37,12.91,.89,18.16-3.6,22.29-4.35,4.01-11.28,2.76-12.49,2.52-.35-.07-7.67-1.66-11.24-8.27Z"
      fill="#cacaca" />
  </g>
  <g id="leftOccipital">
    <path
      d="M312.79,417.11c-4.47-11.11-8.57-20.33-11.8-27.3-3.95-8.52-6-12.39-10-16.55-3.66-3.81-9.79-10.18-18.51-9.93-6.86,.2-11.78,4.38-13.65,6.17-1.61-.69-4.44-1.62-7.84-1.21-8.21,.99-12.36,8.87-13.07,10.3-.56,1.13-1.47,3.23-1.89,13.43-.45,10.98-.67,16.47,1.2,22.36,.64,2.02,2.64,7.77,7.66,12.96,3.9,4.03,6.29,4.27,6.93,4.31,3.78,.24,6.69-2.8,8.81-5.01,3.83-3.99,5.5-8.61,6.26-11.98-.15,1.74-.36,7.01,3.16,11,3.06,3.47,7.18,4,12.22,4.64,3.92,.5,11.05,1.41,18.84-2.49,6.49-3.25,10.09-8.17,11.68-10.72Z"
      fill="#757474" />
  </g>
  <g id="rightOccipital">
    <path
      d="M151.95,417.11c4.47-11.11,8.57-20.33,11.8-27.3,3.95-8.52,6-12.39,10-16.55,3.66-3.81,9.79-10.18,18.51-9.93,6.86,.2,11.78,4.38,13.65,6.17,1.61-.69,4.44-1.62,7.84-1.21,8.21,.99,12.36,8.87,13.07,10.3,.56,1.13,1.47,3.23,1.89,13.43,.45,10.98,.67,16.47-1.2,22.36-.64,2.02-2.64,7.77-7.66,12.96-3.9,4.03-6.29,4.27-6.93,4.31-3.78,.24-6.69-2.8-8.81-5.01-3.83-3.99-5.5-8.61-6.26-11.98,.15,1.74,.36,7.01-3.16,11-3.06,3.47-7.18,4-12.22,4.64-3.92,.5-11.05,1.41-18.84-2.49-6.49-3.25-10.09-8.17-11.68-10.72Z"
      fill="#757474" />
  </g>
  <g id="leftTemporal">
    <path
      d="M291.12,272.52c1.63,1.67,3.8,4.18,5.8,7.59,1.92,3.27,4.52,7.76,4.83,13.94,.29,5.85-1.73,10.68-3.53,13.82,8.55,6.87,15.95,12.46,21.6,16.61,15.94,11.72,22.56,15.43,25.11,16.82,7.23,3.94,13.53,6.61,17.95,8.32,2.86-.8,8.96-2.99,13.33-8.86,1.83-2.46,4.4-5.92,3.86-10.59-.64-5.57-5.23-8.76-6.1-9.33,1.78-.15,6.51-.81,10.71-4.5,5.8-5.1,6.17-12.12,6.23-13.86,.24-6.62-2.89-11.34-4-12.88,1.91-1.99,4.42-5.24,5.76-9.81,.43-1.47,2.99-10.15-1.92-17.5-.97-1.46-2.97-4.35-6.84-5.81-4.62-1.75-8.8-.29-9.98,.17,2.67-.34,7.4-1.38,11.24-5.05,5.59-5.34,5.71-12.82,5.84-20.6,.15-9.18,.27-16.12-4.67-20.15-6.34-5.18-16.34-1.72-19.16-.74-12.17,4.2-17.67,15.27-19.1,18.4-.35,2.35-.96,5.11-2.02,8.13-1.53,4.36-3.5,7.81-5.21,10.34,.49,2.27,1.11,6.59-.34,11.6-.29,.99-3.36,11.08-12.15,14.51-5.81,2.26-12.28,.9-19.97-.73-1.94-.41-4.32-1.15-7.84-1.21-3.97-.07-7.24,.7-9.42,1.38Z"
      fill="#999998" />
    <path
      d="M754.88,191.24c3.37,1.23,8.97,2.73,15.82,2.16,7.03-.59,11.78-2.97,11.78-2.97,4.26-1.98,6.17-4.03,8.63-3.24,2.55,.83,3.6,4.05,4.04,5.39,1.56,4.76-.37,9.1-1.08,10.52,1.47,1.35,3.58,3.71,4.85,7.19,1.12,3.08,1.11,5.71,1.08,7.55-.03,1.81-.07,4.25-1.08,6.83-1.88,4.81-6.05,7.31-7.91,8.27,1.41-.15,5.97-.47,8.99,2.52,1.41,1.39,1.9,3.09,2.88,6.47,.83,2.86,1.79,6.29,1.44,10.79-.19,2.46-.4,5.11-1.98,7.91-2.68,4.75-7.46,6.58-9.35,7.19,.43,1.88,.9,4.95,.36,8.63-1.16,7.9-6.19,12.99-9.17,16-4.14,4.19-8.07,6.19-8.99,6.65-1.92,.95-5.01,2.69-8.99,2.88-6.52,.3-9.21-2.27-16.72-3.96-3.64-.82-6.8-.9-13.12-1.08-9.64-.27-11.93,.72-25.89,1.44-12.67,.65-17.03,.15-20.13-.36-5.7-.94-10.33-1.77-14.92-5.39-6.06-4.8-7.9-11.21-8.27-12.58-1.81-6.74,.07-12.41,1.44-16.54,1.28-3.86,3.25-9.81,8.63-14.02,1.82-1.42,3.37-2.14,14.38-5.03,14.19-3.73,17.35-4.06,21.93-6.83,4.73-2.86,7.83-6.44,9.71-8.99,2.29,.23,6.09,.3,10.43-1.08,2.05-.65,9.22-2.94,12.94-9.35,2.69-4.63,3.93-12.04,3.6-17.26-.07-1.07-.31-3.61,1.08-6.11,1-1.81,2.49-2.93,3.6-3.6Z"
      fill="#999998" />
  </g>
  <g id="rightTemporal">
    <path
      d="M478.14,191.24c-3.37,1.23-8.97,2.73-15.82,2.16-7.03-.59-11.78-2.97-11.78-2.97-4.26-1.98-6.17-4.03-8.63-3.24-2.55,.83-3.6,4.05-4.04,5.39-1.56,4.76,.37,9.1,1.08,10.52-1.47,1.35-3.58,3.71-4.85,7.19-1.12,3.08-1.11,5.71-1.08,7.55,.03,1.81,.07,4.25,1.08,6.83,1.88,4.81,6.05,7.31,7.91,8.27-1.41-.15-5.97-.47-8.99,2.52-1.41,1.39-1.9,3.09-2.88,6.47-.83,2.86-1.79,6.29-1.44,10.79,.19,2.46,.4,5.11,1.98,7.91,2.68,4.75,7.46,6.58,9.35,7.19-.43,1.88-.9,4.95-.36,8.63,1.16,7.9,6.19,12.99,9.17,16,4.14,4.19,8.07,6.19,8.99,6.65,1.92,.95,5.01,2.69,8.99,2.88,6.52,.3,9.21-2.27,16.72-3.96,3.64-.82,6.8-.9,13.12-1.08,9.64-.27,11.93,.72,25.89,1.44,12.67,.65,17.03,.15,20.13-.36,5.7-.94,10.33-1.77,14.92-5.39,6.06-4.8,7.9-11.21,8.27-12.58,1.81-6.74-.07-12.41-1.44-16.54-1.28-3.86-3.25-9.81-8.63-14.02-1.82-1.42-3.37-2.14-14.38-5.03-14.19-3.73-17.35-4.06-21.93-6.83-4.73-2.86-7.83-6.44-9.71-8.99-2.29,.23-6.09,.3-10.43-1.08-2.05-.65-9.22-2.94-12.94-9.35-2.69-4.63-3.93-12.04-3.6-17.26,.07-1.07,.31-3.61-1.08-6.11-1-1.81-2.49-2.93-3.6-3.6Z"
      fill="#999998" />
    <path
      d="M173.62,272.52c-1.63,1.67-3.8,4.18-5.8,7.59-1.92,3.27-4.52,7.76-4.83,13.94-.29,5.85,1.73,10.68,3.53,13.82-8.55,6.87-15.95,12.46-21.6,16.61-15.94,11.72-22.56,15.43-25.11,16.82-7.23,3.94-13.53,6.61-17.95,8.32-2.86-.8-8.96-2.99-13.33-8.86-1.83-2.46-4.4-5.92-3.86-10.59,.64-5.57,5.23-8.76,6.1-9.33-1.78-.15-6.51-.81-10.71-4.5-5.8-5.1-6.17-12.12-6.23-13.86-.24-6.62,2.89-11.34,4-12.88-1.91-1.99-4.42-5.24-5.76-9.81-.43-1.47-2.99-10.15,1.92-17.5,.97-1.46,2.97-4.35,6.84-5.81,4.62-1.75,8.8-.29,9.98,.17-2.67-.34-7.4-1.38-11.24-5.05-5.59-5.34-5.71-12.82-5.84-20.6-.15-9.18-.27-16.12,4.67-20.15,6.34-5.18,16.34-1.72,19.16-.74,12.17,4.2,17.67,15.27,19.1,18.4,.35,2.35,.96,5.11,2.02,8.13,1.53,4.36,3.5,7.81,5.21,10.34-.49,2.27-1.11,6.59,.34,11.6,.29,.99,3.36,11.08,12.15,14.51,5.81,2.26,12.28,.9,19.97-.73,1.94-.41,4.32-1.15,7.84-1.21,3.97-.07,7.24,.7,9.42,1.38Z"
      fill="#999998" />
  </g>
  <g id="leftParietal">
    <path
      d="M686.92,142.71l.09-7.01c1.36-2.09,3.71-5.14,7.46-7.73,5.08-3.51,10.11-4.36,14.38-5.03,8.07-1.27,8.77,.55,16.18-.72,5.37-.92,10.33-1.77,14.29-5.66,3.64-3.58,4.94-8.27,6.56-14.11,1.39-5.01,.97-6.4,2.52-10.07,1.9-4.51,4.69-7.68,6.83-9.71,2.25,.13,6.95,.77,10.79,4.31,4.85,4.49,5.19,10.75,5.39,14.38,.28,5.12-.93,9.19-1.8,11.51,1.44-.03,6.76,.02,11.51,3.96,1.31,1.08,5.67,5.03,6.11,11.51,.39,5.7-2.48,9.76-3.24,10.79-1.25,1.71-2.61,2.87-3.6,3.6,1.58-.16,5.42-.3,8.63,2.16,2.86,2.19,3.73,5.29,4.67,8.63,.3,1.06,.81,3.11,1.08,9.35,.27,6.21,.5,9.35,0,10.79-2.79,7.99-10.5,11.48-12.94,12.58-5.54,2.51-10.41,2.54-14.02,2.52-3.43-.02-13.47-.07-21.93-6.47-4.87-3.68-4.49-5.73-10.07-12.58-1.74-2.14-10.59-12.77-25.08-19.96-5.06-2.51-13.1-5.74-23.82-7.01Z"
      fill="#878787" />
    <path
      d="M361.84,353.55c-11.43-5.62-20.92-11.1-28.32-15.69-11.24-6.96-19.1-12.77-21.02-14.2-6.64-4.93-12.14-9.49-16.41-13.2-1.8,1.27-4.11,2.6-6.95,3.63-8.11,2.94-15.45,1.52-18.87,.6-4.07,1.92-8.63,3.85-13.66,5.63-5.56,1.98-10.79,3.46-15.56,4.59-1.51,.97-3.91,2.86-5.56,6.03-3.18,6.14-1.01,12.25-.57,13.5,1.2,3.39,3.16,5.68,4.44,6.93-3.33,2.31-4.26,4.46-4.48,6.01-.39,2.71,1.25,4.38,2.05,9.4,.32,2.04,.37,3.74,.35,4.85,.99-1.31,3.8-4.67,8.79-6.36,5.61-1.89,10.38-.45,11.87,.06,1.9-1.57,5.45-4.05,10.43-5.04,8.06-1.6,14.57,1.74,17.32,3.2,8.82,4.69,12.78,12.3,19.32,25.28,3.05,6.06,6.88,14.64,10.15,25.44,2.82,.56,9.29,1.41,15.88-1.9,2.7-1.35,7.1-3.56,8.75-8.51,1.35-4.05,.13-7.74-.43-9.16,2.43-1.08,5.83-2.78,9.62-5.29,6.88-4.56,11.7-7.77,14.32-14,2.87-6.84,1.46-13.45,1.08-15.12-.66-2.91-1.71-5.18-2.54-6.7Z"
      fill="#878787" />
  </g>
  <g id="rightParietal">
    <path
      d="M546.1,142.71l-.09-7.01c-1.36-2.09-3.71-5.14-7.46-7.73-5.08-3.51-10.11-4.36-14.38-5.03-8.07-1.27-8.77,.55-16.18-.72-5.37-.92-10.33-1.77-14.29-5.66-3.64-3.58-4.94-8.27-6.56-14.11-1.39-5.01-.97-6.4-2.52-10.07-1.9-4.51-4.69-7.68-6.83-9.71-2.25,.13-6.95,.77-10.79,4.31-4.85,4.49-5.19,10.75-5.39,14.38-.28,5.12,.93,9.19,1.8,11.51-1.44-.03-6.76,.02-11.51,3.96-1.31,1.08-5.67,5.03-6.11,11.51-.39,5.7,2.48,9.76,3.24,10.79,1.25,1.71,2.61,2.87,3.6,3.6-1.58-.16-5.42-.3-8.63,2.16-2.86,2.19-3.73,5.29-4.67,8.63-.3,1.06-.81,3.11-1.08,9.35-.27,6.21-.5,9.35,0,10.79,2.79,7.99,10.5,11.48,12.94,12.58,5.54,2.51,10.41,2.54,14.02,2.52,3.43-.02,13.47-.07,21.93-6.47,4.87-3.68,4.49-5.73,10.07-12.58,1.74-2.14,10.59-12.77,25.08-19.96,5.06-2.51,13.1-5.74,23.82-7.01Z"
      fill="#878787" />
    <path
      d="M102.89,353.55c11.43-5.62,20.92-11.1,28.32-15.69,11.24-6.96,19.1-12.77,21.02-14.2,6.64-4.93,12.14-9.49,16.41-13.2,1.8,1.27,4.11,2.6,6.95,3.63,8.11,2.94,15.45,1.52,18.87,.6,4.07,1.92,8.63,3.85,13.66,5.63,5.56,1.98,10.79,3.46,15.56,4.59,1.51,.97,3.91,2.86,5.56,6.03,3.18,6.14,1.01,12.25,.57,13.5-1.2,3.39-3.16,5.68-4.44,6.93,3.33,2.31,4.26,4.46,4.48,6.01,.39,2.71-1.25,4.38-2.05,9.4-.32,2.04-.37,3.74-.35,4.85-.99-1.31-3.8-4.67-8.79-6.36-5.61-1.89-10.38-.45-11.87,.06-1.9-1.57-5.45-4.05-10.43-5.04-8.06-1.6-14.57,1.74-17.32,3.2-8.82,4.69-12.78,12.3-19.32,25.28-3.05,6.06-6.88,14.64-10.15,25.44-2.82,.56-9.29,1.41-15.88-1.9-2.7-1.35-7.1-3.56-8.75-8.51-1.35-4.05-.13-7.74,.43-9.16-2.43-1.08-5.83-2.78-9.62-5.29-6.88-4.56-11.7-7.77-14.32-14-2.87-6.84-1.46-13.45-1.08-15.12,.66-2.91,1.71-5.18,2.54-6.7Z"
      fill="#878787" />
  </g>
  <g id="leftFrontal">
    <path
      d="M630.11,62.17c-1.93-1.38-7.77-5.94-9.71-14.02-1.37-5.74-.09-10.39,.72-13.3,.84-3.04,3.16-11.43,10.79-16.54,6.69-4.48,13.55-4.43,19.06-4.31,9.63,.2,17.18,3.53,21.75,6.11,2.12-.57,5.38-1.22,9.35-1.08,2.18,.08,7.04,.46,12.04,3.6,2.85,1.78,7.09,4.44,8.45,9.71,1.57,6.07-1.83,11.23-2.52,12.22,.93-1.4,4.17-5.86,9.71-6.83,4.49-.79,8.17,1.13,11.51,2.88,4.47,2.33,4.75,3.92,11.51,8.63,4.96,3.46,4.82,2.62,7.37,4.67,1.92,1.55,8.6,6.98,10.07,15.82,.83,5.04-.36,9.18-1.08,11.69-1.63,5.67-3.51,6.05-5.57,12.94-1.11,3.73-.83,4.5-2.34,9.17-1.35,4.19-2,6.31-3.6,8.27-3.08,3.78-7.18,5.02-9.71,5.75-7.12,2.06-8.58-.53-16.9,.36-9.45,1.01-16.27,5.28-18.7,6.83-3.01,1.93-5.28,3.9-6.83,5.39-1.54-1.32-4.85-3.76-9.71-4.67-3.14-.59-5.8-.32-7.55,0-1.31-2.1-3.6-5.39-7.19-8.63-7.51-6.78-18.09-10.99-26.61-14.38-.86-.34-6.1-2.42-10.79-7.19-2.55-2.59-3.12-4.13-3.08-5.52,.1-3.78,4.76-6.12,5.24-6.35-1.09-1.09-3.38-3.69-4.14-7.7-.32-1.67-1.13-5.94,1.63-9.56,2.34-3.08,5.82-3.79,6.83-3.96Z"
      fill="#dadada" />
    <path
      d="M366.7,137.43c3.68-4.78,4.47-9.06,4.66-11.41,.49-6.12-2.14-10.75-6.25-17.96-3.12-5.47-4.72-8.3-8.15-10.92-6.24-4.77-13.4-4.96-16.54-4.84,.75-2.07,1.81-5.88,1.16-10.54-1.04-7.56-5.86-12.17-7.93-14.16-2.23-2.13-7.23-6.92-15.24-7.56-8.64-.69-14.82,3.92-16.36,5.14,1-1.57,4.65-7.71,2.97-15.16-1.35-6.03-5.43-9.53-8.3-11.99-2.63-2.26-6.26-5.38-11.89-6.1-7.16-.91-12.67,2.69-14.31,3.86-2.41-6.89-8.25-11.79-14.92-12.42-9.28-.87-15.17,7.04-16.57,8.92-1.48,1.99-5.53,7.43-4.19,14.64,1.3,7.01,6.77,10.73,7.89,11.46-1.61,.76-4.09,2.23-5.85,4.96-.59,.92-2.31,3.87-1.39,13.24,.88,8.98,1.37,13.91,5.42,17.17,2.98,2.39,6.54,2.79,8.68,2.82-.86,.01-7.93,.21-10.7,5.04-2.11,3.69-.5,7.93,1.3,12.65,1.2,3.14,3.6,8.09,8.59,13.07,2.44,1.13,4.89,2.25,7.34,3.38,2.27,1.04,4.53,2.08,6.8,3.12,3.57-2.3,6.77-3.24,8.84-3.66,2.19-.45,4.22-.74,6.48,.16,3.42,1.35,4.91,4.58,5.33,5.59,2.37-.58,5.74-1.25,9.84-1.54,2.39-.17,4.68-.32,7.69,0,3.74,.4,7.03,.75,10.3,2.79,3.74,2.33,4.04,4.75,7.59,5.76,1.98,.57,3.8,.36,5.05,.09,.29,1.62,1.2,5.52,4.47,9.09,3.74,4.08,8.24,5.18,9.81,5.49-1.27,3.11-2.83,7.98-2.99,14.08-.13,5.08-.4,15.78,7.13,22.26,.45,.39,9.3,7.78,17.33,3.74,4.69-2.36,6.4-7.26,6.86-8.75,1.56,.61,6.25,2.23,11.33,.34,6.43-2.39,8.8-8.53,9.53-10.42,1.53-3.99,1.03-8.06,.02-16.22-.07-.6-.14-1.07-.17-1.27-.81-5.72-2.29-11.01-3.17-13.03-3.21-7.44-15.44-10.44-17.5-10.92Z"
      fill="#dadada" />
  </g>
  <g id="rightFrontal">
    <path
      d="M602.91,62.17c1.93-1.38,7.77-5.94,9.71-14.02,1.37-5.74,.09-10.39-.72-13.3-.84-3.04-3.16-11.43-10.79-16.54-6.69-4.48-13.55-4.43-19.06-4.31-9.63,.2-17.18,3.53-21.75,6.11-2.12-.57-5.38-1.22-9.35-1.08-2.18,.08-7.04,.46-12.04,3.6-2.85,1.78-7.09,4.44-8.45,9.71-1.57,6.07,1.83,11.23,2.52,12.22-.93-1.4-4.17-5.86-9.71-6.83-4.49-.79-8.17,1.13-11.51,2.88-4.47,2.33-4.75,3.92-11.51,8.63-4.96,3.46-4.82,2.62-7.37,4.67-1.92,1.55-8.6,6.98-10.07,15.82-.83,5.04,.36,9.18,1.08,11.69,1.63,5.67,3.51,6.05,5.57,12.94,1.11,3.73,.83,4.5,2.34,9.17,1.35,4.19,2,6.31,3.6,8.27,3.08,3.78,7.18,5.02,9.71,5.75,7.12,2.06,8.58-.53,16.9,.36,9.45,1.01,16.27,5.28,18.7,6.83,3.01,1.93,5.28,3.9,6.83,5.39,1.54-1.32,4.85-3.76,9.71-4.67,3.14-.59,5.8-.32,7.55,0,1.31-2.1,3.6-5.39,7.19-8.63,7.51-6.78,18.09-10.99,26.61-14.38,.86-.34,6.1-2.42,10.79-7.19,2.55-2.59,3.12-4.13,3.08-5.52-.1-3.78-4.76-6.12-5.24-6.35,1.09-1.09,3.38-3.69,4.14-7.7,.32-1.67,1.13-5.94-1.63-9.56-2.34-3.08-5.82-3.79-6.83-3.96Z"
      fill="#dadada" />
    <path
      d="M98.04,137.43c-3.68-4.78-4.47-9.06-4.66-11.41-.49-6.12,2.14-10.75,6.25-17.96,3.12-5.47,4.72-8.3,8.15-10.92,6.24-4.77,13.4-4.96,16.54-4.84-.75-2.07-1.81-5.88-1.16-10.54,1.04-7.56,5.86-12.17,7.93-14.16,2.23-2.13,7.23-6.92,15.24-7.56,8.64-.69,14.82,3.92,16.36,5.14-1-1.57-4.65-7.71-2.97-15.16,1.35-6.03,5.43-9.53,8.3-11.99,2.63-2.26,6.26-5.38,11.89-6.1,7.16-.91,12.67,2.69,14.31,3.86,2.41-6.89,8.25-11.79,14.92-12.42,9.28-.87,15.17,7.04,16.57,8.92,1.48,1.99,5.53,7.43,4.19,14.64-1.3,7.01-6.77,10.73-7.89,11.46,1.61,.76,4.09,2.23,5.85,4.96,.59,.92,2.31,3.87,1.39,13.24-.88,8.98-1.37,13.91-5.42,17.17-2.98,2.39-6.54,2.79-8.68,2.82,.86,.01,7.93,.21,10.7,5.04,2.11,3.69,.5,7.93-1.3,12.65-1.2,3.14-3.6,8.09-8.59,13.07-2.44,1.13-4.89,2.25-7.34,3.38-2.27,1.04-4.53,2.08-6.8,3.12-3.57-2.3-6.77-3.24-8.84-3.66-2.19-.45-4.22-.74-6.48,.16-3.42,1.35-4.91,4.58-5.33,5.59-2.37-.58-5.74-1.25-9.84-1.54-2.39-.17-4.68-.32-7.69,0-3.74,.4-7.03,.75-10.3,2.79-3.74,2.33-4.04,4.75-7.59,5.76-1.98,.57-3.8,.36-5.05,.09-.29,1.62-1.2,5.52-4.47,9.09-3.74,4.08-8.24,5.18-9.81,5.49,1.27,3.11,2.83,7.98,2.99,14.08,.13,5.08,.4,15.78-7.13,22.26-.45,.39-9.3,7.78-17.33,3.74-4.69-2.36-6.4-7.26-6.86-8.75-1.56,.61-6.25,2.23-11.33,.34-6.43-2.39-8.8-8.53-9.53-10.42-1.53-3.99-1.03-8.06-.02-16.22,.07-.6,.14-1.07,.17-1.27,.81-5.72,2.29-11.01,3.17-13.03,3.21-7.44,15.44-10.44,17.5-10.92Z"
      fill="#dadada" />
  </g>
  <g>
    <path
      d="M282.63,149.68c-.71-.39-2.33,4.21-7.44,6.6-4.08,1.91-5.57,.16-10.03,1.97-5.27,2.14-7.99,6.52-8.85,8.07-1.1,2-3.29,5.94-1.99,9.74,.87,2.54,2.4,2.41,4.78,6.03,2.84,4.32,2.55,7.41,3.73,7.49,1.58,.1,2.14-5.5,5.89-12.69,2.84-5.45,3.98-5.05,7.71-11.28,4.63-7.73,7.1-15.43,6.19-15.93Z"
      fill="none" stroke="#9d9d9c" stroke-miterlimit="10" />
    <path
      d="M286.76,241.67c2.22-6.32,.51-14.05-3.8-27.96-2.24-7.23-3.52-10.77-5.95-15.02-1.97-3.46-5.6-9.82-8.43-9.2-1.87,.41-2.54,3.69-3.79,9.78-1.43,7.01-2.29,11.23-.8,16.2,.4,1.32,2.12,3.96,5.56,9.25,7.19,11.06,6.68,8.53,9.96,14.21,1.98,3.43,3.22,6.19,4.78,6.03,.31-.03,1.4-.26,2.46-3.28Z"
      fill="none" stroke="#9d9d9c" stroke-miterlimit="10" />
    <path
      d="M301.16,254.16c4.88-7.46,5.14-15.41,5.39-20.95,1.25-28.34,3.42-31.62,.19-41.87-.77-2.43-2.49-7.32-6.33-12.48-3.29-4.4-7.2-9.69-13.48-10.19-.56-.05-6.59-.44-10.56,3.94-4.13,4.54-3,10.89-2.65,12.99,.77,4.62,2.72,5.55,7.07,13.54,.66,1.21,3.78,7,6.36,14.27,1.99,5.6,3.75,10.56,4.26,17.19,.6,7.92-1.15,10.96,.36,20.49,1.09,6.88,2.43,8,3.38,8.21,2.32,.52,5.09-3.71,6.02-5.14Z"
      fill="none" stroke="#9d9d9c" stroke-miterlimit="10" />
    <path
      d="M307.91,258.56c1.43-7.83,2.15-14.29,2.55-18.74,1.05-11.82,.14-13.51,1.38-23.76,1.32-10.89,2.66-11.53,2.21-17.66-.13-1.75-.77-8.95-4.97-17.17-3.22-6.29-7.2-10.59-9.94-13.13"
      fill="none" stroke="#9d9d9c" stroke-miterlimit="10" />
    <path
      d="M177.98,241.67c-2.22-6.32-.51-14.05,3.8-27.96,2.24-7.23,3.52-10.77,5.95-15.02,1.97-3.46,5.6-9.82,8.43-9.2,1.87,.41,2.54,3.69,3.79,9.78,1.43,7.01,2.29,11.23,.8,16.2-.4,1.32-2.12,3.96-5.56,9.25-7.19,11.06-6.68,8.53-9.96,14.21-1.98,3.43-3.22,6.19-4.78,6.03-.31-.03-1.4-.26-2.46-3.28Z"
      fill="none" stroke="#9d9d9c" stroke-miterlimit="10" />
    <path
      d="M163.58,254.16c-4.88-7.46-5.14-15.41-5.39-20.95-1.25-28.34-3.42-31.62-.19-41.87,.77-2.43,2.49-7.32,6.33-12.48,3.29-4.4,7.2-9.69,13.48-10.19,.56-.05,6.59-.44,10.56,3.94,4.13,4.54,3,10.89,2.65,12.99-.77,4.62-2.72,5.55-7.07,13.54-.66,1.21-3.78,7-6.36,14.27-1.99,5.6-3.75,10.56-4.26,17.19-.6,7.92,1.15,10.96-.36,20.49-1.09,6.88-2.43,8-3.38,8.21-2.32,.52-5.09-3.71-6.02-5.14Z"
      fill="none" stroke="#9d9d9c" stroke-miterlimit="10" />
    <path
      d="M156.83,258.56c-1.43-7.83-2.15-14.29-2.55-18.74-1.05-11.82-.14-13.51-1.38-23.76-1.32-10.89-2.66-11.53-2.21-17.66,.13-1.75,.77-8.95,4.97-17.17,3.22-6.29,7.2-10.59,9.94-13.13"
      fill="none" stroke="#9d9d9c" stroke-miterlimit="10" />
    <path
      d="M182.1,149.68c.71-.39,2.33,4.21,7.44,6.6,4.08,1.91,5.57,.16,10.03,1.97,5.27,2.14,7.99,6.52,8.85,8.07,1.1,2,3.29,5.94,1.99,9.74-.87,2.54-2.4,2.41-4.78,6.03-2.84,4.32-2.55,7.41-3.73,7.49-1.58,.1-2.14-5.5-5.89-12.69-2.84-5.45-3.98-5.05-7.71-11.28-4.63-7.73-7.1-15.43-6.19-15.93Z"
      fill="none" stroke="#9d9d9c" stroke-miterlimit="10" />
    <path
      d="M224.32,211.37c-1.99,.97-4.26,.19-5.93-.37-5.51-1.88-7.75-7.15-8.22-8.23-.26-.6-2.76-6.73-.05-12.41,1.51-3.16,3.08-2.9,5.52-7.19,.92-1.61,2.45-4.37,2.84-8.04,.52-4.97-1.36-8.8-2.76-11.65-.86-1.75-3.03-6.06-7.65-9.57-2.48-1.89-4.86-2.84-9.63-4.75-7.61-3.05-9.74-2.8-11.5-5.33-1.74-2.5-2.27-6.5-.39-8.64,2.07-2.35,6.24-1.53,7.84-1.21,4.07,.8,5.86,2.78,13.33,8.86,7.04,5.73,7.01,5.24,10.64,8.55,5.21,4.75,7.81,7.13,9.26,10.41,1.04,2.36,1.13,3.96,1.11,13.77-.02,9.24-.04,13.95-.32,18.6-.86,14.05-2.26,16.3-4.08,17.19Z"
      fill="#ededed" stroke="#b2b2b2" stroke-miterlimit="10" />
    <path
      d="M176.82,274.6c-3.62,2.34-5.31,5.67-6.62,8.25-1.07,2.11-4.17,8.46-2.44,16.14,.66,2.93,1.61,7.14,5.23,9.26,4.79,2.8,10.8-.08,12.42-.86,2.29-1.1,5.13-4.19,10.7-10.33,5.33-5.87,8.02-8.84,9.35-10.36,3.41-3.9,5.23-6.09,9.09-10.63,2.82-3.32,6.85-8.05,11.84-13.82-6.23,7.31-12.02,9.68-16.1,10.51-3.61,.73-4.15-.09-16.72-.29-11.32-.18-14.12,.43-16.76,2.13Z"
      fill="#ededed" stroke="#b2b2b2" stroke-miterlimit="10" />
    <path
      d="M240.42,211.37c1.99,.97,4.26,.19,5.93-.37,5.51-1.88,7.75-7.15,8.22-8.23,.26-.6,2.76-6.73,.05-12.41-1.51-3.16-3.08-2.9-5.52-7.19-.92-1.61-2.45-4.37-2.84-8.04-.52-4.97,1.36-8.8,2.76-11.65,.86-1.75,3.03-6.06,7.65-9.57,2.48-1.89,4.86-2.84,9.63-4.75,7.61-3.05,9.74-2.8,11.5-5.33,1.74-2.5,2.27-6.5,.39-8.64-2.07-2.35-6.24-1.53-7.84-1.21-4.07,.8-5.86,2.78-13.33,8.86-7.04,5.73-7.01,5.24-10.64,8.55-5.21,4.75-7.81,7.13-9.26,10.41-1.04,2.36-1.13,3.96-1.11,13.77,.02,9.24,.04,13.95,.32,18.6,.86,14.05,2.26,16.3,4.08,17.19Z"
      fill="#ededed" stroke="#b2b2b2" stroke-miterlimit="10" />
    <path
      d="M287.92,274.6c3.62,2.34,5.31,5.67,6.62,8.25,1.07,2.11,4.17,8.46,2.44,16.14-.66,2.93-1.61,7.14-5.23,9.26-4.79,2.8-10.8-.08-12.42-.86-2.29-1.1-5.13-4.19-10.7-10.33-5.33-5.87-8.02-8.84-9.35-10.36-3.41-3.9-5.23-6.09-9.09-10.63-2.82-3.32-6.85-8.05-11.84-13.82,6.23,7.31,12.02,9.68,16.1,10.51,3.61,.73,4.15-.09,16.72-.29,11.32-.18,14.12,.43,16.76,2.13Z"
      fill="#ededed" stroke="#b2b2b2" stroke-miterlimit="10" />
    <path
      d="M616.63,159.24c3.06-1.01,7.5-2.88,11.87-6.47,5.75-4.73,5.8-7.88,12.22-13.66,2.85-2.57,6.92-6.15,13.3-8.27,5.97-1.98,10.95-1.68,14.38-1.44,6.21,.44,9.98,.71,12.22,3.6,2.93,3.78,1.21,9.42,.36,12.22-.45,1.48-2.2,7.22-7.55,10.79-3.84,2.56-5.37,1.23-14.74,3.96-5.66,1.65-5.02,2.11-11.15,3.96-9.14,2.75-10.18,1.61-14.74,3.96-1.86,.96-6.98,3.68-10.07,9.35-.73,1.35-1.58,3.28-2.52,9.71-1.28,8.73-.9,13.28-1.44,20.49-.27,3.63-.83,8.82-2.16,15.1h-.24c-1.32-6.28-1.89-11.47-2.16-15.1-.54-7.22-.16-11.77-1.44-20.49-.94-6.43-1.78-8.36-2.52-9.71-3.08-5.67-8.2-8.39-10.07-9.35-4.56-2.35-5.6-1.2-14.74-3.96-6.13-1.85-5.49-2.31-11.15-3.96-9.37-2.73-10.9-1.39-14.74-3.96-5.36-3.57-7.1-9.3-7.55-10.79-.85-2.8-2.57-8.45,.36-12.22,2.24-2.89,6.01-3.16,12.22-3.6,3.44-.24,8.41-.55,14.38,1.44,6.39,2.12,10.45,5.7,13.3,8.27,6.42,5.78,6.47,8.93,12.22,13.66,4.36,3.59,8.8,5.46,11.87,6.47h.24Z"
      fill="#ededed" stroke="#b2b2b2" stroke-miterlimit="10" />
  </g>
</svg>