<?xml version="1.0" encoding="utf-8"?>
<!-- Generator: Adobe Illustrator 27.0.0, SVG Export Plug-In . SVG Version: 6.00 Build 0)  -->
<svg version="1.1" xmlns="http://www.w3.org/2000/svg" xmlns:xlink="http://www.w3.org/1999/xlink" x="0px" y="0px"
	 viewBox="0 0 733.4 422.1" enable-background="new 0 0 733.4 422.1" xml:space="preserve">
<g id="leftCerebellum">
	<path fill="#5C5C5B" d="M604.7,302.1c-0.3-8.2-1.2-10.1,0.4-11.9c2.1-2.4,6.9-1.6,9.3-0.7c2.8,1,4.3,2.9,4.8,3.5
		c2.4,3,2.4,6.3,2.4,7.3c0.5-3.8,3.8-6.6,7.5-6.5c3.9,0.1,7.1,3.5,7.1,7.6c0.5-1.2,1.2-2.9,2.6-4.7c1.3-1.7,2.8-3.7,5.4-4.7
		c1-0.4,4.1-1.6,6.8,0c2.4,1.4,3.1,4.1,3.5,5.7c0.5,2,0.4,3.7,0.3,4.8c0.5-1.2,3.9-9.4,11.3-10.8c3.3-0.6,8.5-0.1,9.7,2.5
		c0.4,0.9,0.4,1.9,0.3,3.7c-0.1,2-0.5,3.5-0.8,4.6c1-1.2,4.2-4.7,9.5-5.8c1.8-0.3,7.7-1.5,10.8,2.2c2.7,3.1,2.4,8.9-1.2,13.6
		c1.2-0.4,3.1-1,5.5-1c1.5,0,5,0,8.3,2.2c0.6,0.4,6.5,4.4,5.8,9.7c-0.5,3.4-3.6,5.5-6.8,7.6c-2.8,1.8-5.3,2.7-7,3.1
		c1.5,0.2,6,0.8,9.4,4.6c1.1,1.2,3.5,3.8,3.3,7.4c-0.2,5.1-5.4,8-6.6,8.5c-3.9,2-7.6,1.4-8.9,1.1c0.5,1.2,1.2,3.1,1.4,5.5
		c0.2,1.9,0.5,5.5-1.7,8.8c-3.1,4.7-8.9,5.1-10,5.1c-4,0.3-7-1.3-8.1-1.9c-4.4-2.6-6.1-6.7-6.5-7.8c0,1.2,0,3-0.3,5.1
		c-0.7,4-1.3,8-4.7,10.4c-4.1,3-9.4,1.2-9.7,1.1c-4.5-1.6-6.3-5.4-6.6-6.1c-0.3,1.3-1.1,3.8-3.2,6.2c-2.9,3.2-6.3,4.1-7,4.3
		c-1.5,0.4-4.6,0.9-8-0.4c-3-1.2-4.6-3.1-6.6-5.5c-2-2.5-3.3-4.8-4-6.5c0.1,1.7,0.1,4.7-1.3,8.1c-1,2.2-2.1,5-4.9,6.4
		c-3.3,1.7-7.9,0.9-10.8-1.8c-3.5-3.2-3.2-7.7-3.2-8.4c-0.5,1.2-1.6,3.6-4,5.5c-0.4,0.3-5.2,3.9-10.1,2.2c-5.5-2-6.7-9.5-6.8-10.4
		c-1-6.6,3-8.3,5.4-19.1c1.8-8.1-0.2-8.3,1.8-15.5c2-7.3,5.7-12.9,7.9-16.2c4.6-6.9,7.4-8.4,8.3-13.7
		C605,309.3,604.9,306.9,604.7,302.1z"/>
</g>
<g id="rightCerebellum">
	<path fill="#5C5C5B" d="M486.3,302.1c0.3-8.2,1.2-10.1-0.4-11.9c-2.1-2.4-6.9-1.6-9.3-0.7c-2.8,1-4.3,2.9-4.8,3.5
		c-2.4,3-2.4,6.3-2.4,7.3c-0.5-3.8-3.8-6.6-7.5-6.5c-3.9,0.1-7.1,3.5-7.1,7.6c-0.5-1.2-1.2-2.9-2.6-4.7c-1.3-1.7-2.8-3.7-5.4-4.7
		c-1-0.4-4.1-1.6-6.8,0c-2.4,1.4-3.1,4.1-3.5,5.7c-0.5,2-0.4,3.7-0.3,4.8c-0.5-1.2-3.9-9.4-11.3-10.8c-3.3-0.6-8.5-0.1-9.7,2.5
		c-0.4,0.9-0.4,1.9-0.3,3.7c0.1,2,0.5,3.5,0.8,4.6c-1-1.2-4.2-4.7-9.5-5.8c-1.8-0.3-7.7-1.5-10.8,2.2c-2.7,3.1-2.4,8.9,1.2,13.6
		c-1.2-0.4-3.1-1-5.5-1c-1.5,0-5,0-8.3,2.2c-0.6,0.4-6.5,4.4-5.8,9.7c0.5,3.4,3.6,5.5,6.8,7.6c2.8,1.8,5.3,2.7,7,3.1
		c-1.5,0.2-6,0.8-9.4,4.6c-1.1,1.2-3.5,3.8-3.3,7.4c0.2,5.1,5.4,8,6.6,8.5c3.9,2,7.6,1.4,8.9,1.1c-0.5,1.2-1.2,3.1-1.4,5.5
		c-0.2,1.9-0.5,5.5,1.7,8.8c3.1,4.7,8.9,5.1,10,5.1c4,0.3,7-1.3,8.1-1.9c4.4-2.6,6.1-6.7,6.5-7.8c0,1.2,0,3,0.3,5.1
		c0.7,4,1.3,8,4.7,10.4c4.1,3,9.4,1.2,9.7,1.1c4.5-1.6,6.3-5.4,6.6-6.1c0.3,1.3,1.1,3.8,3.2,6.2c2.9,3.2,6.3,4.1,7,4.3
		c1.5,0.4,4.6,0.9,8-0.4c3-1.2,4.6-3.1,6.6-5.5c2-2.5,3.3-4.8,4-6.5c-0.1,1.7-0.1,4.7,1.3,8.1c1,2.2,2.1,5,4.9,6.4
		c3.3,1.7,7.9,0.9,10.8-1.8c3.5-3.2,3.2-7.7,3.2-8.4c0.5,1.2,1.6,3.6,4,5.5c0.4,0.3,5.2,3.9,10.1,2.2c5.5-2,6.7-9.5,6.8-10.4
		c1-6.6-3-8.3-5.4-19.1c-1.8-8.1,0.2-8.3-1.8-15.5c-2-7.3-5.7-12.9-7.9-16.2c-4.6-6.9-7.4-8.4-8.3-13.7
		C486,309.3,486.1,306.9,486.3,302.1z"/>
</g>
<g id="leftBrainstem">
	<path fill="#6B6B6A" d="M596.8,236.6c-1.3,2.7-3,6.7-4,11.9c-1,5.6-0.7,10-0.4,14.7c0.4,6.2,1.4,10.8,2.2,14
		c1.7,7.9,2.7,8.3,4.3,15.8c1.9,8.4,2.8,12.6,1.4,16.5c-0.6,1.7-0.8,1.3-8.3,11.5c-4.3,5.9-5.5,7.7-6.5,10.4
		c-1.4,3.9-1.5,7.4-1.4,9.7c-2.6,1.2-6.3,3.3-9,7.2c-4,5.7-3.2,11.1-3.6,20.9c-0.2,5.7-1.6,14.6-4.3,32.4
		c-1.3,8.5-2.6,15.4-3.6,20.1c-5.4,0.1-10.8,0.2-16.2,0.4c0.1-22.2,0-40.3,0-52.9c-0.1-13.9,0-27.8,0-41.7c0-0.4-0.1-15.8,0.7-36
		c0.8-20.3,1.6-25.1,4.7-30.6c5.9-10.6,15.7-15.8,19.8-18C582.6,237.9,591.7,236.8,596.8,236.6z"/>
</g>
<g id="rightBrainstem">
	<path fill="#6B6B6A" d="M494.1,236.6c1.3,2.7,3,6.7,4,11.9c1,5.6,0.7,10,0.4,14.7c-0.4,6.2-1.4,10.8-2.2,14
		c-1.7,7.9-2.7,8.3-4.3,15.8c-1.9,8.4-2.8,12.6-1.4,16.5c0.6,1.7,0.8,1.3,8.3,11.5c4.3,5.9,5.5,7.7,6.5,10.4
		c1.4,3.9,1.5,7.4,1.4,9.7c2.6,1.2,6.3,3.3,9,7.2c4,5.7,3.2,11.1,3.6,20.9c0.2,5.7,1.6,14.6,4.3,32.4c1.3,8.5,2.6,15.4,3.6,20.1
		c5.4,0.1,10.8,0.2,16.2,0.4c-0.1-22.2,0-40.3,0-52.9c0.1-13.9,0-27.8,0-41.7c0-0.4,0.1-15.8-0.7-36c-0.8-20.3-1.6-25.1-4.7-30.6
		c-5.9-10.6-15.7-15.8-19.8-18C508.4,237.9,499.2,236.8,494.1,236.6z"/>
</g>
<g id="leftThalamus">
	<path fill="#AAAAA9" d="M557.3,164.5c0.7-0.9,2.9-3.8,6.8-5.8c1.8-0.9,2.2-0.7,10.8-2.5c5.3-1.1,5.5-1.2,6.5-1.1
		c5.3,0.9,8.2,7.3,9,9c3,6.6,1.8,13,1.1,16.9c-0.5,2.8-1.8,6.1-4.3,12.7c-2,5.1-3,7.7-4.3,9.6c-3.8,5.4-8.9,7.8-10.8,8.6
		c-1.1,0.5-13.5,6-18.1,1.2c-1.1-1.2-1.3-4-1.6-9.7c-0.4-6.2-0.2-11-0.1-13.4c0.2-4.5,0.4-8.2,1.2-13
		C554.4,170.8,555,167.7,557.3,164.5z"/>
	<path fill="#AAAAA9" d="M204.5,237.8c-4-8.2-6.1-12.3-7-13.9c-2.1-3.8-5.5-9.4-10.5-15.2c-5.6-6.6-8.4-7.8-10.7-8.2
		c-0.8-0.1-5-0.9-8.1,1.5c-1.1,0.8-2.8,2.6-3.6,11.1c-0.8,8.3,0,14.9,0.6,18.6c1,6.5,1.6,9.7,3.7,13.2c1.1,1.8,4.3,6.3,10.1,8.7
		c2.9,1.2,6,1.4,12.2,1.7c6.1,0.3,6-0.9,11.6-0.5c2.9,0.2,4.3,0.6,5.3-0.4c1.6-1.5,0.5-5.1-0.7-9.2
		C206.3,241.5,204.9,238.7,204.5,237.8z"/>
</g>
<g id="rightThalamus">
	<path fill="#AAAAA9" d="M118.2,237.8c4-8.2,6.1-12.3,7-13.9c2.1-3.8,5.5-9.4,10.5-15.2c5.6-6.6,8.4-7.8,10.7-8.2
		c0.8-0.1,5-0.9,8.1,1.5c1.1,0.8,2.8,2.6,3.6,11.1c0.8,8.3,0,14.9-0.6,18.6c-1,6.5-1.6,9.7-3.7,13.2c-1.1,1.8-4.3,6.3-10.1,8.7
		c-2.9,1.2-6,1.4-12.2,1.7c-6.1,0.3-6-0.9-11.6-0.5c-2.9,0.2-4.3,0.6-5.3-0.4c-1.6-1.5-0.5-5.1,0.7-9.2
		C116.4,241.5,117.7,238.7,118.2,237.8z"/>
	<path fill="#AAAAA9" d="M533.7,164.5c-0.7-0.9-2.9-3.8-6.8-5.8c-1.8-0.9-2.2-0.7-10.8-2.5c-5.3-1.1-5.5-1.2-6.5-1.1
		c-5.3,0.9-8.2,7.3-9,9c-3,6.6-1.8,13-1.1,16.9c0.5,2.8,1.8,6.1,4.3,12.7c2,5.1,3,7.7,4.3,9.6c3.8,5.4,8.9,7.8,10.8,8.6
		c1.1,0.5,13.5,6,18.1,1.2c1.1-1.2,1.3-4,1.6-9.7c0.4-6.2,0.2-11,0.1-13.4c-0.2-4.5-0.4-8.2-1.2-13
		C536.5,170.8,536,167.7,533.7,164.5z"/>
</g>
<g id="leftBasalganglia">
	<path fill="#BBBABA" d="M613,136.1c3,2.7,6.8,6.6,10.8,11.5c3.1,3.8,6.9,8.6,10.4,15.5c4.2,8.2,5.8,15.2,7.2,21.2
		c1.9,8.1,0.6,6.8,2.9,17.6c1.8,8.7,2.9,10.8,1.4,13.3c-3.5,6.2-16.2,4.8-16.9,4.7c-5.2-0.7-8.6-2.7-15.5-6.8
		c-7.8-4.7-12.6-9.4-14-10.8c-3.3-3.3-5.8-6.5-7.6-9c3.4-7.4,4.2-13.8,4.3-17.6c0.2-3.9,0.1-10-3.2-16.5c-1.8-3.5-3.9-5.9-5.5-7.5
		c2.1-0.4,5.3-1.2,8.9-2.4c4.5-1.5,7.3-2.5,10.2-4.9C608.2,143.1,610.9,140.5,613,136.1z"/>
	<path fill="#BBBABA" d="M212.1,127.5c2.1,2.8,5.4,6.9,9.6,11.7c8.1,9.1,10.4,9.8,14.4,15.8c1,1.6,5.1,7.9,7.7,17.4
		c1.5,5.7,1.9,10.3,2,12.4c0.3,6.6-0.7,8.9-1.7,18.6c-0.8,8.2-0.9,15-1,18.9c-0.3,11.1,0.4,12.9-0.8,18.6c-1.1,5.4-3,9.6-4.4,12.2
		c-3-0.6-7.3-1.1-12.4-0.6c-4.2,0.4-7.6,1.5-10.2,2.5c-1-2.2-2.4-5.4-4.2-9.2c-4.4-9.5-6.9-15.4-10.9-22.2
		c-6.3-10.9-8.9-14.8-11.5-17.7c-1-1.1-2.1-2-2.1-2c-2.1-2-4.1-3.4-5.6-4.3c1.7-1.4,6.2-5.3,7.8-11.9c1.4-5.7,0-10.4-0.6-12.3
		c-2.2-7-5.8-7.2-7.2-12.5c-1.6-6.2,1.1-14,6-18.3c5.9-5.1,11.5-2.2,18.5-7.9C209.1,133.7,211.1,130,212.1,127.5z"/>
</g>
<g id="rightBasalganglia">
	<path fill="#BBBABA" d="M110.5,127.5c-2.1,2.8-5.4,6.9-9.6,11.7c-8.1,9.1-10.4,9.8-14.4,15.8c-1,1.6-5.1,7.9-7.7,17.4
		c-1.5,5.7-1.9,10.3-2,12.4c-0.3,6.6,0.7,8.9,1.7,18.6c0.8,8.2,0.9,15,1,18.9c0.3,11.1-0.4,12.9,0.8,18.6c1.1,5.4,3,9.6,4.4,12.2
		c3-0.6,7.3-1.1,12.4-0.6c4.2,0.4,7.6,1.5,10.2,2.5c1-2.2,2.4-5.4,4.2-9.2c4.4-9.5,6.9-15.4,10.9-22.2c6.3-10.9,8.9-14.8,11.5-17.7
		c1-1.1,2.1-2,2.1-2c2.1-2,4.1-3.4,5.6-4.3c-1.7-1.4-6.2-5.3-7.8-11.9c-1.4-5.7,0-10.4,0.6-12.3c2.2-7,5.8-7.2,7.2-12.5
		c1.6-6.2-1.1-14-6-18.3c-5.9-5.1-11.5-2.2-18.5-7.9C113.6,133.7,111.6,130,110.5,127.5z"/>
	<path fill="#BBBABA" d="M477.9,136.1c-3,2.7-6.8,6.6-10.8,11.5c-3.1,3.8-6.9,8.6-10.4,15.5c-4.2,8.2-5.8,15.2-7.2,21.2
		c-1.9,8.1-0.6,6.8-2.9,17.6c-1.8,8.7-2.9,10.8-1.4,13.3c3.5,6.2,16.2,4.8,16.9,4.7c5.2-0.7,8.6-2.7,15.5-6.8
		c7.8-4.7,12.6-9.4,14-10.8c3.3-3.3,5.8-6.5,7.6-9c-3.4-7.4-4.2-13.8-4.3-17.6c-0.2-3.9-0.1-10,3.2-16.5c1.8-3.5,3.9-5.9,5.5-7.5
		c-2.1-0.4-5.3-1.2-8.9-2.4c-4.5-1.5-7.3-2.5-10.2-4.9C482.7,143.1,480,140.5,477.9,136.1z"/>
</g>
<g id="leftInsula">
	<path fill="#CACACA" d="M673.1,200.8c1.3-2.3,1.5-4.3,2-7.9c0.6-4.3,1-7.9-0.5-11.9c-0.6-1.5-2.2-5-6.5-7.9
		c-0.2-2.4-0.8-5.9-2.5-9.7c-1.4-2.9-3.6-6.4-12.6-13.7c-10.2-8.2-15.7-12.7-19.1-10.8c-2.7,1.6-2.6,6.7-2.5,8.3
		c0.2,6.3,3.7,9.6,7.2,15.5c4.7,8,6.1,15.5,7.2,21.6c2.4,12.9-0.9,18.2,3.6,22.3c4.3,4,11.3,2.8,12.5,2.5
		C662.2,209,669.5,207.5,673.1,200.8z"/>
	<path fill="#CACACA" d="M264.6,231.8c1.8-1.6,6.2-5.8,7.6-12.5c0.5-2.6,1.8-8.8-2.1-13.3c-2-2.3-4.5-3.3-6-3.7
		c1.5-1.2,4.8-4.4,5.5-9.3c0.6-3.9-0.9-7-2.9-11c-1.6-3.3-4.6-8.3-9.9-13.3c1.1-0.9,2.7-2.6,3.7-5.2c0.8-2.1,1.1-4.9-0.2-9.4
		c-0.8-2.9-2.5-7.1-10.8-17.1c-8.8-10.6-11.9-11.9-14.2-12.4c-2-0.5-3.9-0.4-7.3-0.4c-5.1,0.1-9.2,0.7-12.1,1.3
		c1.9,2.5,4.8,6.1,8.5,10.4c8.4,9.6,10.6,10.7,14.3,15.7c7.4,9.9,9.5,20.2,10,23.3c0.9,5.1,0.5,12.4-0.5,27
		c-1,14.4-1.7,14.2-1.5,21.3c0.2,8,1.2,11.5,0,17.8c-1.2,6.2-3.8,10.9-5.7,13.9c2,0.7,6.2,1.9,11.3,0.9c2.1-0.4,5.8-1.2,9.1-4.2
		c0.8-0.7,6-5.6,5.4-12.8C266.7,235.4,265.4,233,264.6,231.8z"/>
</g>
<g id="rightInsula">
	<path fill="#CACACA" d="M58,231.8c-1.8-1.6-6.2-5.8-7.6-12.5c-0.5-2.6-1.8-8.8,2.1-13.3c2-2.3,4.5-3.3,6-3.7
		c-1.5-1.2-4.8-4.4-5.5-9.3c-0.6-3.9,0.9-7,2.9-11c1.6-3.3,4.6-8.3,9.9-13.3c-1.1-0.9-2.7-2.6-3.7-5.2c-0.8-2.1-1.1-4.9,0.2-9.4
		c0.8-2.9,2.5-7.1,10.8-17.1c8.8-10.6,11.9-11.9,14.2-12.4c2-0.5,3.9-0.4,7.3-0.4c5.1,0.1,9.2,0.7,12.1,1.3
		c-1.9,2.5-4.8,6.1-8.5,10.4c-8.4,9.6-10.6,10.7-14.3,15.7c-7.4,9.9-9.5,20.2-10,23.3c-0.9,5.1-0.5,12.4,0.5,27
		c1,14.4,1.7,14.2,1.5,21.3c-0.2,8-1.2,11.5,0,17.8c1.2,6.2,3.8,10.9,5.7,13.9c-2,0.7-6.2,1.9-11.3,0.9c-2.1-0.4-5.8-1.2-9.1-4.2
		c-0.8-0.7-6-5.6-5.4-12.8C56,235.4,57.2,233,58,231.8z"/>
	<path fill="#CACACA" d="M417.9,200.8c-1.3-2.3-1.5-4.3-2-7.9c-0.6-4.3-1-7.9,0.5-11.9c0.6-1.5,2.2-5,6.5-7.9
		c0.2-2.4,0.8-5.9,2.5-9.7c1.4-2.9,3.6-6.4,12.6-13.7c10.2-8.2,15.7-12.7,19.1-10.8c2.7,1.6,2.6,6.7,2.5,8.3
		c-0.2,6.3-3.7,9.6-7.2,15.5c-4.7,8-6.1,15.5-7.2,21.6c-2.4,12.9,0.9,18.2-3.6,22.3c-4.3,4-11.3,2.8-12.5,2.5
		C428.8,209,421.5,207.5,417.9,200.8z"/>
</g>
<g id="leftOccipital">
	<path fill="#757474" d="M241.7,403.2c-4.5-11.1-8.6-20.3-11.8-27.3c-3.9-8.5-6-12.4-10-16.5c-3.7-3.8-9.8-10.2-18.5-9.9
		c-6.9,0.2-11.8,4.4-13.6,6.2c-1.6-0.7-4.4-1.6-7.8-1.2c-8.2,1-12.4,8.9-13.1,10.3c-0.6,1.1-1.5,3.2-1.9,13.4
		c-0.4,11-0.7,16.5,1.2,22.4c0.6,2,2.6,7.8,7.7,13c3.9,4,6.3,4.3,6.9,4.3c3.8,0.2,6.7-2.8,8.8-5c3.8-4,5.5-8.6,6.3-12
		c-0.1,1.7-0.4,7,3.2,11c3.1,3.5,7.2,4,12.2,4.6c3.9,0.5,11.1,1.4,18.8-2.5C236.6,410.6,240.2,405.7,241.7,403.2z"/>
</g>
<g id="rightOccipital">
	<path fill="#757474" d="M80.9,403.2c4.5-11.1,8.6-20.3,11.8-27.3c3.9-8.5,6-12.4,10-16.5c3.7-3.8,9.8-10.2,18.5-9.9
		c6.9,0.2,11.8,4.4,13.6,6.2c1.6-0.7,4.4-1.6,7.8-1.2c8.2,1,12.4,8.9,13.1,10.3c0.6,1.1,1.5,3.2,1.9,13.4c0.4,11,0.7,16.5-1.2,22.4
		c-0.6,2-2.6,7.8-7.7,13c-3.9,4-6.3,4.3-6.9,4.3c-3.8,0.2-6.7-2.8-8.8-5c-3.8-4-5.5-8.6-6.3-12c0.1,1.7,0.4,7-3.2,11
		c-3.1,3.5-7.2,4-12.2,4.6c-3.9,0.5-11.1,1.4-18.8-2.5C86.1,410.6,82.5,405.7,80.9,403.2z"/>
</g>
<g id="leftTemporal">
	<path fill="#999998" d="M220.1,258.6c1.6,1.7,3.8,4.2,5.8,7.6c1.9,3.3,4.5,7.8,4.8,13.9c0.3,5.8-1.7,10.7-3.5,13.8
		c8.6,6.9,15.9,12.5,21.6,16.6c15.9,11.7,22.6,15.4,25.1,16.8c7.2,3.9,13.5,6.6,17.9,8.3c2.9-0.8,9-3,13.3-8.9
		c1.8-2.5,4.4-5.9,3.9-10.6c-0.6-5.6-5.2-8.8-6.1-9.3c1.8-0.2,6.5-0.8,10.7-4.5c5.8-5.1,6.2-12.1,6.2-13.9c0.2-6.6-2.9-11.3-4-12.9
		c1.9-2,4.4-5.2,5.8-9.8c0.4-1.5,3-10.2-1.9-17.5c-1-1.5-3-4.3-6.8-5.8c-4.6-1.7-8.8-0.3-10,0.2c2.7-0.3,7.4-1.4,11.2-5.1
		c5.6-5.3,5.7-12.8,5.8-20.6c0.2-9.2,0.3-16.1-4.7-20.1c-6.3-5.2-16.3-1.7-19.2-0.7c-12.2,4.2-17.7,15.3-19.1,18.4
		c-0.4,2.3-1,5.1-2,8.1c-1.5,4.4-3.5,7.8-5.2,10.3c0.5,2.3,1.1,6.6-0.3,11.6c-0.3,1-3.4,11.1-12.2,14.5c-5.8,2.3-12.3,0.9-20-0.7
		c-1.9-0.4-4.3-1.2-7.8-1.2C225.5,257.1,222.3,257.9,220.1,258.6z"/>
	<path fill="#999998" d="M683.8,177.3c3.4,1.2,9,2.7,15.8,2.2c7-0.6,11.8-3,11.8-3c4.3-2,6.2-4,8.6-3.2c2.5,0.8,3.6,4,4,5.4
		c1.6,4.8-0.4,9.1-1.1,10.5c1.5,1.4,3.6,3.7,4.9,7.2c1.1,3.1,1.1,5.7,1.1,7.6c0,1.8-0.1,4.2-1.1,6.8c-1.9,4.8-6.1,7.3-7.9,8.3
		c1.4-0.2,6-0.5,9,2.5c1.4,1.4,1.9,3.1,2.9,6.5c0.8,2.9,1.8,6.3,1.4,10.8c-0.2,2.5-0.4,5.1-2,7.9c-2.7,4.7-7.5,6.6-9.3,7.2
		c0.4,1.9,0.9,5,0.4,8.6c-1.2,7.9-6.2,13-9.2,16c-4.1,4.2-8.1,6.2-9,6.7c-1.9,1-5,2.7-9,2.9c-6.5,0.3-9.2-2.3-16.7-4
		c-3.6-0.8-6.8-0.9-13.1-1.1c-9.6-0.3-11.9,0.7-25.9,1.4c-12.7,0.6-17,0.2-20.1-0.4c-5.7-0.9-10.3-1.8-14.9-5.4
		c-6.1-4.8-7.9-11.2-8.3-12.6c-1.8-6.7,0.1-12.4,1.4-16.5c1.3-3.9,3.2-9.8,8.6-14c1.8-1.4,3.4-2.1,14.4-5
		c14.2-3.7,17.4-4.1,21.9-6.8c4.7-2.9,7.8-6.4,9.7-9c2.3,0.2,6.1,0.3,10.4-1.1c2-0.7,9.2-2.9,12.9-9.3c2.7-4.6,3.9-12,3.6-17.3
		c-0.1-1.1-0.3-3.6,1.1-6.1C681.2,179.1,682.7,178,683.8,177.3z"/>
</g>
<g id="rightTemporal">
	<path fill="#999998" d="M407.1,177.3c-3.4,1.2-9,2.7-15.8,2.2c-7-0.6-11.8-3-11.8-3c-4.3-2-6.2-4-8.6-3.2c-2.5,0.8-3.6,4-4,5.4
		c-1.6,4.8,0.4,9.1,1.1,10.5c-1.5,1.4-3.6,3.7-4.9,7.2c-1.1,3.1-1.1,5.7-1.1,7.6c0,1.8,0.1,4.2,1.1,6.8c1.9,4.8,6.1,7.3,7.9,8.3
		c-1.4-0.2-6-0.5-9,2.5c-1.4,1.4-1.9,3.1-2.9,6.5c-0.8,2.9-1.8,6.3-1.4,10.8c0.2,2.5,0.4,5.1,2,7.9c2.7,4.7,7.5,6.6,9.3,7.2
		c-0.4,1.9-0.9,5-0.4,8.6c1.2,7.9,6.2,13,9.2,16c4.1,4.2,8.1,6.2,9,6.7c1.9,1,5,2.7,9,2.9c6.5,0.3,9.2-2.3,16.7-4
		c3.6-0.8,6.8-0.9,13.1-1.1c9.6-0.3,11.9,0.7,25.9,1.4c12.7,0.6,17,0.2,20.1-0.4c5.7-0.9,10.3-1.8,14.9-5.4
		c6.1-4.8,7.9-11.2,8.3-12.6c1.8-6.7-0.1-12.4-1.4-16.5c-1.3-3.9-3.2-9.8-8.6-14c-1.8-1.4-3.4-2.1-14.4-5
		c-14.2-3.7-17.4-4.1-21.9-6.8c-4.7-2.9-7.8-6.4-9.7-9c-2.3,0.2-6.1,0.3-10.4-1.1c-2-0.7-9.2-2.9-12.9-9.3c-2.7-4.6-3.9-12-3.6-17.3
		c0.1-1.1,0.3-3.6-1.1-6.1C409.7,179.1,408.2,178,407.1,177.3z"/>
	<path fill="#999998" d="M102.6,258.6c-1.6,1.7-3.8,4.2-5.8,7.6c-1.9,3.3-4.5,7.8-4.8,13.9c-0.3,5.8,1.7,10.7,3.5,13.8
		c-8.6,6.9-15.9,12.5-21.6,16.6C58,322.2,51.3,326,48.8,327.3c-7.2,3.9-13.5,6.6-17.9,8.3c-2.9-0.8-9-3-13.3-8.9
		c-1.8-2.5-4.4-5.9-3.9-10.6c0.6-5.6,5.2-8.8,6.1-9.3c-1.8-0.2-6.5-0.8-10.7-4.5c-5.8-5.1-6.2-12.1-6.2-13.9
		c-0.2-6.6,2.9-11.3,4-12.9c-1.9-2-4.4-5.2-5.8-9.8c-0.4-1.5-3-10.2,1.9-17.5c1-1.5,3-4.3,6.8-5.8c4.6-1.7,8.8-0.3,10,0.2
		c-2.7-0.3-7.4-1.4-11.2-5.1C3,232.3,2.8,224.8,2.7,217c-0.2-9.2-0.3-16.1,4.7-20.1c6.3-5.2,16.3-1.7,19.2-0.7
		c12.2,4.2,17.7,15.3,19.1,18.4c0.4,2.3,1,5.1,2,8.1c1.5,4.4,3.5,7.8,5.2,10.3c-0.5,2.3-1.1,6.6,0.3,11.6c0.3,1,3.4,11.1,12.2,14.5
		c5.8,2.3,12.3,0.9,20-0.7c1.9-0.4,4.3-1.2,7.8-1.2C97.1,257.1,100.4,257.9,102.6,258.6z"/>
</g>
<g id="leftParietal">
	<path fill="#878787" d="M615.9,128.8c0-2.3,0.1-4.7,0.1-7c1.4-2.1,3.7-5.1,7.5-7.7c5.1-3.5,10.1-4.4,14.4-5
		c8.1-1.3,8.8,0.5,16.2-0.7c5.4-0.9,10.3-1.8,14.3-5.7c3.6-3.6,4.9-8.3,6.6-14.1c1.4-5,1-6.4,2.5-10.1c1.9-4.5,4.7-7.7,6.8-9.7
		c2.2,0.1,7,0.8,10.8,4.3c4.8,4.5,5.2,10.7,5.4,14.4c0.3,5.1-0.9,9.2-1.8,11.5c1.4,0,6.8,0,11.5,4c1.3,1.1,5.7,5,6.1,11.5
		c0.4,5.7-2.5,9.8-3.2,10.8c-1.3,1.7-2.6,2.9-3.6,3.6c1.6-0.2,5.4-0.3,8.6,2.2c2.9,2.2,3.7,5.3,4.7,8.6c0.3,1.1,0.8,3.1,1.1,9.3
		c0.3,6.2,0.5,9.3,0,10.8c-2.8,8-10.5,11.5-12.9,12.6c-5.5,2.5-10.4,2.5-14,2.5c-3.4,0-13.5-0.1-21.9-6.5
		c-4.9-3.7-4.5-5.7-10.1-12.6c-1.7-2.1-10.6-12.8-25.1-20C634.6,133.3,626.6,130,615.9,128.8z"/>
	<path fill="#878787" d="M290.8,339.6c-11.4-5.6-20.9-11.1-28.3-15.7c-11.2-7-19.1-12.8-21-14.2c-6.6-4.9-12.1-9.5-16.4-13.2
		c-1.8,1.3-4.1,2.6-6.9,3.6c-8.1,2.9-15.4,1.5-18.9,0.6c-4.1,1.9-8.6,3.8-13.7,5.6c-5.6,2-10.8,3.5-15.6,4.6c-1.5,1-3.9,2.9-5.6,6
		c-3.2,6.1-1,12.3-0.6,13.5c1.2,3.4,3.2,5.7,4.4,6.9c-3.3,2.3-4.3,4.5-4.5,6c-0.4,2.7,1.3,4.4,2.1,9.4c0.3,2,0.4,3.7,0.4,4.8
		c1-1.3,3.8-4.7,8.8-6.4c5.6-1.9,10.4-0.5,11.9,0.1c1.9-1.6,5.4-4,10.4-5c8.1-1.6,14.6,1.7,17.3,3.2c8.8,4.7,12.8,12.3,19.3,25.3
		c3.1,6.1,6.9,14.6,10.2,25.4c2.8,0.6,9.3,1.4,15.9-1.9c2.7-1.4,7.1-3.6,8.8-8.5c1.4-4.1,0.1-7.7-0.4-9.2c2.4-1.1,5.8-2.8,9.6-5.3
		c6.9-4.6,11.7-7.8,14.3-14c2.9-6.8,1.5-13.5,1.1-15.1C292.7,343.4,291.6,341.1,290.8,339.6z"/>
</g>
<g id="righhtParietal">
	<path fill="#878787" d="M475.1,128.8c0-2.3-0.1-4.7-0.1-7c-1.4-2.1-3.7-5.1-7.5-7.7c-5.1-3.5-10.1-4.4-14.4-5
		c-8.1-1.3-8.8,0.5-16.2-0.7c-5.4-0.9-10.3-1.8-14.3-5.7c-3.6-3.6-4.9-8.3-6.6-14.1c-1.4-5-1-6.4-2.5-10.1c-1.9-4.5-4.7-7.7-6.8-9.7
		c-2.2,0.1-7,0.8-10.8,4.3c-4.8,4.5-5.2,10.7-5.4,14.4c-0.3,5.1,0.9,9.2,1.8,11.5c-1.4,0-6.8,0-11.5,4c-1.3,1.1-5.7,5-6.1,11.5
		c-0.4,5.7,2.5,9.8,3.2,10.8c1.3,1.7,2.6,2.9,3.6,3.6c-1.6-0.2-5.4-0.3-8.6,2.2c-2.9,2.2-3.7,5.3-4.7,8.6c-0.3,1.1-0.8,3.1-1.1,9.3
		c-0.3,6.2-0.5,9.3,0,10.8c2.8,8,10.5,11.5,12.9,12.6c5.5,2.5,10.4,2.5,14,2.5c3.4,0,13.5-0.1,21.9-6.5c4.9-3.7,4.5-5.7,10.1-12.6
		c1.7-2.1,10.6-12.8,25.1-20C456.3,133.3,464.3,130,475.1,128.8z"/>
	<path fill="#878787" d="M31.9,339.6c11.4-5.6,20.9-11.1,28.3-15.7c11.2-7,19.1-12.8,21-14.2c6.6-4.9,12.1-9.5,16.4-13.2
		c1.8,1.3,4.1,2.6,6.9,3.6c8.1,2.9,15.4,1.5,18.9,0.6c4.1,1.9,8.6,3.8,13.7,5.6c5.6,2,10.8,3.5,15.6,4.6c1.5,1,3.9,2.9,5.6,6
		c3.2,6.1,1,12.3,0.6,13.5c-1.2,3.4-3.2,5.7-4.4,6.9c3.3,2.3,4.3,4.5,4.5,6c0.4,2.7-1.3,4.4-2.1,9.4c-0.3,2-0.4,3.7-0.4,4.8
		c-1-1.3-3.8-4.7-8.8-6.4c-5.6-1.9-10.4-0.5-11.9,0.1c-1.9-1.6-5.4-4-10.4-5c-8.1-1.6-14.6,1.7-17.3,3.2
		c-8.8,4.7-12.8,12.3-19.3,25.3c-3.1,6.1-6.9,14.6-10.2,25.4c-2.8,0.6-9.3,1.4-15.9-1.9c-2.7-1.4-7.1-3.6-8.8-8.5
		c-1.4-4.1-0.1-7.7,0.4-9.2c-2.4-1.1-5.8-2.8-9.6-5.3c-6.9-4.6-11.7-7.8-14.3-14c-2.9-6.8-1.5-13.5-1.1-15.1
		C30,343.4,31,341.1,31.9,339.6z"/>
</g>
<g id="leftFrontal">
	<path fill="#DADADA" d="M559.1,48.2c-1.9-1.4-7.8-5.9-9.7-14c-1.4-5.7-0.1-10.4,0.7-13.3c0.8-3,3.2-11.4,10.8-16.5
		c6.7-4.5,13.5-4.4,19.1-4.3c9.6,0.2,17.2,3.5,21.8,6.1c2.1-0.6,5.4-1.2,9.3-1.1c2.2,0.1,7,0.5,12,3.6c2.8,1.8,7.1,4.4,8.4,9.7
		c1.6,6.1-1.8,11.2-2.5,12.2c0.9-1.4,4.2-5.9,9.7-6.8c4.5-0.8,8.2,1.1,11.5,2.9c4.5,2.3,4.8,3.9,11.5,8.6c5,3.5,4.8,2.6,7.4,4.7
		c1.9,1.6,8.6,7,10.1,15.8c0.8,5-0.4,9.2-1.1,11.7c-1.6,5.7-3.5,6-5.6,12.9c-1.1,3.7-0.8,4.5-2.3,9.2c-1.4,4.2-2,6.3-3.6,8.3
		c-3.1,3.8-7.2,5-9.7,5.8c-7.1,2.1-8.6-0.5-16.9,0.4c-9.5,1-16.3,5.3-18.7,6.8c-3,1.9-5.3,3.9-6.8,5.4c-1.5-1.3-4.8-3.8-9.7-4.7
		c-3.1-0.6-5.8-0.3-7.6,0c-1.3-2.1-3.6-5.4-7.2-8.6c-7.5-6.8-18.1-11-26.6-14.4c-0.9-0.3-6.1-2.4-10.8-7.2c-2.5-2.6-3.1-4.1-3.1-5.5
		c0.1-3.8,4.8-6.1,5.2-6.3c-1.1-1.1-3.4-3.7-4.1-7.7c-0.3-1.7-1.1-5.9,1.6-9.6C554.6,49.1,558.1,48.4,559.1,48.2z"/>
	<path fill="#DADADA" d="M295.7,123.5c3.7-4.8,4.5-9.1,4.7-11.4c0.5-6.1-2.1-10.7-6.2-18c-3.1-5.5-4.7-8.3-8.1-10.9
		c-6.2-4.8-13.4-5-16.5-4.8c0.7-2.1,1.8-5.9,1.2-10.5c-1-7.6-5.9-12.2-7.9-14.2c-2.2-2.1-7.2-6.9-15.2-7.6
		c-8.6-0.7-14.8,3.9-16.4,5.1c1-1.6,4.6-7.7,3-15.2c-1.4-6-5.4-9.5-8.3-12c-2.6-2.3-6.3-5.4-11.9-6.1c-7.2-0.9-12.7,2.7-14.3,3.9
		c-2.4-6.9-8.3-11.8-14.9-12.4c-9.3-0.9-15.2,7-16.6,8.9c-1.5,2-5.5,7.4-4.2,14.6c1.3,7,6.8,10.7,7.9,11.5c-1.6,0.8-4.1,2.2-5.8,5
		c-0.6,0.9-2.3,3.9-1.4,13.2c0.9,9,1.4,13.9,5.4,17.2c3,2.4,6.5,2.8,8.7,2.8c-0.9,0-7.9,0.2-10.7,5c-2.1,3.7-0.5,7.9,1.3,12.7
		c1.2,3.1,3.6,8.1,8.6,13.1c2.4,1.1,4.9,2.3,7.3,3.4c2.3,1,4.5,2.1,6.8,3.1c3.6-2.3,6.8-3.2,8.8-3.7c2.2-0.4,4.2-0.7,6.5,0.2
		c3.4,1.4,4.9,4.6,5.3,5.6c2.4-0.6,5.7-1.2,9.8-1.5c2.4-0.2,4.7-0.3,7.7,0c3.7,0.4,7,0.8,10.3,2.8c3.7,2.3,4,4.7,7.6,5.8
		c2,0.6,3.8,0.4,5.1,0.1c0.3,1.6,1.2,5.5,4.5,9.1c3.7,4.1,8.2,5.2,9.8,5.5c-1.3,3.1-2.8,8-3,14.1c-0.1,5.1-0.4,15.8,7.1,22.3
		c0.4,0.4,9.3,7.8,17.3,3.7c4.7-2.4,6.4-7.3,6.9-8.8c1.6,0.6,6.3,2.2,11.3,0.3c6.4-2.4,8.8-8.5,9.5-10.4c1.5-4,1-8.1,0-16.2
		c-0.1-0.6-0.1-1.1-0.2-1.3c-0.8-5.7-2.3-11-3.2-13C309.9,127,297.7,124,295.7,123.5z"/>
</g>
<g id="rightFrontal">
	<path fill="#DADADA" d="M531.9,48.2c1.9-1.4,7.8-5.9,9.7-14c1.4-5.7,0.1-10.4-0.7-13.3c-0.8-3-3.2-11.4-10.8-16.5
		C523.4-0.1,516.5-0.1,511,0c-9.6,0.2-17.2,3.5-21.8,6.1c-2.1-0.6-5.4-1.2-9.3-1.1c-2.2,0.1-7,0.5-12,3.6c-2.8,1.8-7.1,4.4-8.4,9.7
		c-1.6,6.1,1.8,11.2,2.5,12.2c-0.9-1.4-4.2-5.9-9.7-6.8c-4.5-0.8-8.2,1.1-11.5,2.9c-4.5,2.3-4.8,3.9-11.5,8.6
		c-5,3.5-4.8,2.6-7.4,4.7c-1.9,1.6-8.6,7-10.1,15.8c-0.8,5,0.4,9.2,1.1,11.7c1.6,5.7,3.5,6,5.6,12.9c1.1,3.7,0.8,4.5,2.3,9.2
		c1.4,4.2,2,6.3,3.6,8.3c3.1,3.8,7.2,5,9.7,5.8c7.1,2.1,8.6-0.5,16.9,0.4c9.5,1,16.3,5.3,18.7,6.8c3,1.9,5.3,3.9,6.8,5.4
		c1.5-1.3,4.8-3.8,9.7-4.7c3.1-0.6,5.8-0.3,7.6,0c1.3-2.1,3.6-5.4,7.2-8.6c7.5-6.8,18.1-11,26.6-14.4c0.9-0.3,6.1-2.4,10.8-7.2
		c2.5-2.6,3.1-4.1,3.1-5.5c-0.1-3.8-4.8-6.1-5.2-6.3c1.1-1.1,3.4-3.7,4.1-7.7c0.3-1.7,1.1-5.9-1.6-9.6
		C536.4,49.1,532.9,48.4,531.9,48.2z"/>
	<path fill="#DADADA" d="M27,123.5c-3.7-4.8-4.5-9.1-4.7-11.4c-0.5-6.1,2.1-10.7,6.2-18c3.1-5.5,4.7-8.3,8.1-10.9
		c6.2-4.8,13.4-5,16.5-4.8c-0.7-2.1-1.8-5.9-1.2-10.5c1-7.6,5.9-12.2,7.9-14.2c2.2-2.1,7.2-6.9,15.2-7.6c8.6-0.7,14.8,3.9,16.4,5.1
		c-1-1.6-4.6-7.7-3-15.2c1.4-6,5.4-9.5,8.3-12c2.6-2.3,6.3-5.4,11.9-6.1c7.2-0.9,12.7,2.7,14.3,3.9c2.4-6.9,8.3-11.8,14.9-12.4
		c9.3-0.9,15.2,7,16.6,8.9c1.5,2,5.5,7.4,4.2,14.6c-1.3,7-6.8,10.7-7.9,11.5c1.6,0.8,4.1,2.2,5.8,5c0.6,0.9,2.3,3.9,1.4,13.2
		c-0.9,9-1.4,13.9-5.4,17.2c-3,2.4-6.5,2.8-8.7,2.8c0.9,0,7.9,0.2,10.7,5c2.1,3.7,0.5,7.9-1.3,12.7c-1.2,3.1-3.6,8.1-8.6,13.1
		c-2.4,1.1-4.9,2.3-7.3,3.4c-2.3,1-4.5,2.1-6.8,3.1c-3.6-2.3-6.8-3.2-8.8-3.7c-2.2-0.4-4.2-0.7-6.5,0.2c-3.4,1.4-4.9,4.6-5.3,5.6
		c-2.4-0.6-5.7-1.2-9.8-1.5c-2.4-0.2-4.7-0.3-7.7,0c-3.7,0.4-7,0.8-10.3,2.8c-3.7,2.3-4,4.7-7.6,5.8c-2,0.6-3.8,0.4-5.1,0.1
		c-0.3,1.6-1.2,5.5-4.5,9.1c-3.7,4.1-8.2,5.2-9.8,5.5c1.3,3.1,2.8,8,3,14.1c0.1,5.1,0.4,15.8-7.1,22.3c-0.4,0.4-9.3,7.8-17.3,3.7
		c-4.7-2.4-6.4-7.3-6.9-8.8c-1.6,0.6-6.3,2.2-11.3,0.3c-6.4-2.4-8.8-8.5-9.5-10.4c-1.5-4-1-8.1,0-16.2c0.1-0.6,0.1-1.1,0.2-1.3
		c0.8-5.7,2.3-11,3.2-13C12.7,127,24.9,124,27,123.5z"/>
</g>
<g>
	<path fill="none" stroke="#AAAAA9" stroke-miterlimit="10" d="M211.6,135.7c-0.7-0.4-2.3,4.2-7.4,6.6c-4.1,1.9-5.6,0.2-10,2
		c-5.3,2.1-8,6.5-8.8,8.1c-1.1,2-3.3,5.9-2,9.7c0.9,2.5,2.4,2.4,4.8,6c2.8,4.3,2.6,7.4,3.7,7.5c1.6,0.1,2.1-5.5,5.9-12.7
		c2.8-5.5,4-5,7.7-11.3C210,143.9,212.5,136.2,211.6,135.7z"/>
	<path fill="none" stroke="#AAAAA9" stroke-miterlimit="10" d="M215.7,227.7c2.2-6.3,0.5-14.1-3.8-28c-2.2-7.2-3.5-10.8-5.9-15
		c-2-3.5-5.6-9.8-8.4-9.2c-1.9,0.4-2.5,3.7-3.8,9.8c-1.4,7-2.3,11.2-0.8,16.2c0.4,1.3,2.1,4,5.6,9.3c7.2,11.1,6.7,8.5,10,14.2
		c2,3.4,3.2,6.2,4.8,6C213.6,231,214.7,230.7,215.7,227.7z"/>
	<path fill="none" stroke="#AAAAA9" stroke-miterlimit="10" d="M230.1,240.2c4.9-7.5,5.1-15.4,5.4-21c1.2-28.3,3.4-31.6,0.2-41.9
		c-0.8-2.4-2.5-7.3-6.3-12.5c-3.3-4.4-7.2-9.7-13.5-10.2c-0.6,0-6.6-0.4-10.6,3.9c-4.1,4.5-3,10.9-2.7,13c0.8,4.6,2.7,5.5,7.1,13.5
		c0.7,1.2,3.8,7,6.4,14.3c2,5.6,3.8,10.6,4.3,17.2c0.6,7.9-1.1,11,0.4,20.5c1.1,6.9,2.4,8,3.4,8.2
		C226.4,245.9,229.2,241.6,230.1,240.2z"/>
	<path fill="none" stroke="#AAAAA9" stroke-miterlimit="10" d="M236.9,244.6c1.4-7.8,2.2-14.3,2.5-18.7c1-11.8,0.1-13.5,1.4-23.8
		c1.3-10.9,2.7-11.5,2.2-17.7c-0.1-1.7-0.8-9-5-17.2c-3.2-6.3-7.2-10.6-9.9-13.1"/>
	<path fill="none" stroke="#AAAAA9" stroke-miterlimit="10" d="M106.9,227.7c-2.2-6.3-0.5-14.1,3.8-28c2.2-7.2,3.5-10.8,5.9-15
		c2-3.5,5.6-9.8,8.4-9.2c1.9,0.4,2.5,3.7,3.8,9.8c1.4,7,2.3,11.2,0.8,16.2c-0.4,1.3-2.1,4-5.6,9.3c-7.2,11.1-6.7,8.5-10,14.2
		c-2,3.4-3.2,6.2-4.8,6C109.1,231,108,230.7,106.9,227.7z"/>
	<path fill="none" stroke="#AAAAA9" stroke-miterlimit="10" d="M92.5,240.2c-4.9-7.5-5.1-15.4-5.4-21c-1.2-28.3-3.4-31.6-0.2-41.9
		c0.8-2.4,2.5-7.3,6.3-12.5c3.3-4.4,7.2-9.7,13.5-10.2c0.6,0,6.6-0.4,10.6,3.9c4.1,4.5,3,10.9,2.7,13c-0.8,4.6-2.7,5.5-7.1,13.5
		c-0.7,1.2-3.8,7-6.4,14.3c-2,5.6-3.8,10.6-4.3,17.2c-0.6,7.9,1.1,11-0.4,20.5c-1.1,6.9-2.4,8-3.4,8.2
		C96.2,245.9,93.5,241.6,92.5,240.2z"/>
	<path fill="none" stroke="#AAAAA9" stroke-miterlimit="10" d="M85.8,244.6c-1.4-7.8-2.2-14.3-2.5-18.7c-1-11.8-0.1-13.5-1.4-23.8
		c-1.3-10.9-2.7-11.5-2.2-17.7c0.1-1.7,0.8-9,5-17.2c3.2-6.3,7.2-10.6,9.9-13.1"/>
	<path fill="none" stroke="#AAAAA9" stroke-miterlimit="10" d="M111.1,135.7c0.7-0.4,2.3,4.2,7.4,6.6c4.1,1.9,5.6,0.2,10,2
		c5.3,2.1,8,6.5,8.8,8.1c1.1,2,3.3,5.9,2,9.7c-0.9,2.5-2.4,2.4-4.8,6c-2.8,4.3-2.6,7.4-3.7,7.5c-1.6,0.1-2.1-5.5-5.9-12.7
		c-2.8-5.5-4-5-7.7-11.3C112.6,143.9,110.2,136.2,111.1,135.7z"/>
	<path fill="#EDEDED" stroke="#CDCDCD" stroke-miterlimit="10" d="M153.3,197.4c-2,1-4.3,0.2-5.9-0.4c-5.5-1.9-7.8-7.1-8.2-8.2
		c-0.3-0.6-2.8-6.7-0.1-12.4c1.5-3.2,3.1-2.9,5.5-7.2c0.9-1.6,2.5-4.4,2.8-8c0.5-5-1.4-8.8-2.8-11.6c-0.9-1.8-3-6.1-7.7-9.6
		c-2.5-1.9-4.9-2.8-9.6-4.8c-7.6-3.1-9.7-2.8-11.5-5.3c-1.7-2.5-2.3-6.5-0.4-8.6c2.1-2.3,6.2-1.5,7.8-1.2c4.1,0.8,5.9,2.8,13.3,8.9
		c7,5.7,7,5.2,10.6,8.5c5.2,4.8,7.8,7.1,9.3,10.4c1,2.4,1.1,4,1.1,13.8c0,9.2,0,14-0.3,18.6C156.5,194.3,155.1,196.5,153.3,197.4z"
		/>
	<path fill="#EDEDED" stroke="#CDCDCD" stroke-miterlimit="10" d="M105.8,260.6c-3.6,2.3-5.3,5.7-6.6,8.2c-1.1,2.1-4.2,8.5-2.4,16.1
		c0.7,2.9,1.6,7.1,5.2,9.3c4.8,2.8,10.8-0.1,12.4-0.9c2.3-1.1,5.1-4.2,10.7-10.3c5.3-5.9,8-8.8,9.4-10.4c3.4-3.9,5.2-6.1,9.1-10.6
		c2.8-3.3,6.9-8.1,11.8-13.8c-6.2,7.3-12,9.7-16.1,10.5c-3.6,0.7-4.1-0.1-16.7-0.3C111.2,258.3,108.4,258.9,105.8,260.6z"/>
	<path fill="#EDEDED" stroke="#CDCDCD" stroke-miterlimit="10" d="M169.4,197.4c2,1,4.3,0.2,5.9-0.4c5.5-1.9,7.8-7.1,8.2-8.2
		c0.3-0.6,2.8-6.7,0.1-12.4c-1.5-3.2-3.1-2.9-5.5-7.2c-0.9-1.6-2.5-4.4-2.8-8c-0.5-5,1.4-8.8,2.8-11.6c0.9-1.8,3-6.1,7.7-9.6
		c2.5-1.9,4.9-2.8,9.6-4.8c7.6-3.1,9.7-2.8,11.5-5.3c1.7-2.5,2.3-6.5,0.4-8.6c-2.1-2.3-6.2-1.5-7.8-1.2c-4.1,0.8-5.9,2.8-13.3,8.9
		c-7,5.7-7,5.2-10.6,8.5c-5.2,4.8-7.8,7.1-9.3,10.4c-1,2.4-1.1,4-1.1,13.8c0,9.2,0,14,0.3,18.6C166.2,194.3,167.6,196.5,169.4,197.4
		z"/>
	<path fill="#EDEDED" stroke="#CDCDCD" stroke-miterlimit="10" d="M216.9,260.6c3.6,2.3,5.3,5.7,6.6,8.2c1.1,2.1,4.2,8.5,2.4,16.1
		c-0.7,2.9-1.6,7.1-5.2,9.3c-4.8,2.8-10.8-0.1-12.4-0.9c-2.3-1.1-5.1-4.2-10.7-10.3c-5.3-5.9-8-8.8-9.4-10.4
		c-3.4-3.9-5.2-6.1-9.1-10.6c-2.8-3.3-6.9-8.1-11.8-13.8c6.2,7.3,12,9.7,16.1,10.5c3.6,0.7,4.1-0.1,16.7-0.3
		C211.4,258.3,214.2,258.9,216.9,260.6z"/>
	<path fill="#EDEDED" stroke="#CDCDCD" stroke-miterlimit="10" d="M545.6,145.3c3.1-1,7.5-2.9,11.9-6.5c5.8-4.7,5.8-7.9,12.2-13.7
		c2.9-2.6,6.9-6.1,13.3-8.3c6-2,10.9-1.7,14.4-1.4c6.2,0.4,10,0.7,12.2,3.6c2.9,3.8,1.2,9.4,0.4,12.2c-0.5,1.5-2.2,7.2-7.6,10.8
		c-3.8,2.6-5.4,1.2-14.7,4c-5.7,1.6-5,2.1-11.1,4c-9.1,2.8-10.2,1.6-14.7,4c-1.9,1-7,3.7-10.1,9.3c-0.7,1.3-1.6,3.3-2.5,9.7
		c-1.3,8.7-0.9,13.3-1.4,20.5c-0.3,3.6-0.8,8.8-2.2,15.1h-0.2c-1.3-6.3-1.9-11.5-2.2-15.1c-0.5-7.2-0.2-11.8-1.4-20.5
		c-0.9-6.4-1.8-8.4-2.5-9.7c-3.1-5.7-8.2-8.4-10.1-9.3c-4.6-2.3-5.6-1.2-14.7-4c-6.1-1.8-5.5-2.3-11.1-4c-9.4-2.7-10.9-1.4-14.7-4
		c-5.4-3.6-7.1-9.3-7.6-10.8c-0.9-2.8-2.6-8.4,0.4-12.2c2.2-2.9,6-3.2,12.2-3.6c3.4-0.2,8.4-0.5,14.4,1.4c6.4,2.1,10.4,5.7,13.3,8.3
		c6.4,5.8,6.5,8.9,12.2,13.7c4.4,3.6,8.8,5.5,11.9,6.5H545.6z"/>
</g>
</svg>
