<?xml version="1.0" encoding="UTF-8"?>
<svg id="spine" xmlns="http://www.w3.org/2000/svg" viewBox="0 0 135.53 809.16">
  <path id="C"
    d="M103.7,769.99c-.86,1.35-1.94,3.44-2.39,6.15-.33,2.02-.08,3.01-.07,4.91,.01,1.34-.07,6.18-2.61,11.06-.81,1.56-2.5,4.81-5.99,7.22-2.02,1.39-3.25,1.55-5.38,3.53-.59,.55-3.84,3.66-3.07,5.07,.5,.92,2.5,.72,3.53,.61,4.38-.47,7.72-2.72,10.29-4.76,2.41-1.91,6-5.09,9.83-10.14,2.46-3.23,4.97-6.58,6.91-11.68,1.44-3.76,2.03-7.07,2.3-9.37-4.46-.87-8.91-1.74-13.37-2.61Z"
    fill="#3c3c3b" stroke="#3c3c3b" stroke-linejoin="round" />
  <path id="S"
    d="M9.56,651.17c.81-1.6,2.29-2.56,5.39-3.78,5.06-1.97,8.75-2.38,15.46-3.42,10.91-1.68,8.22-1.68,12.58-2.16,1.4-.15,4.57-.47,8.45-1.8,2.75-.94,4.03-1.78,5.03-2.7,1.79-1.65,2.63-3.55,3.03-4.72,3.21,2.56,6.43,5.12,9.64,7.69-.5,3.38,.64,4.85,1.08,5.33,.47,.5,1.47,1.31,7.89,1.75,2.95,.21,2.73,.03,4.79,.2,5.9,.48,9.17,2.02,9.89,2.34,2.83,1.25,3.68,2.25,4.13,3.06,.75,1.33,.81,2.76,.9,5.03,.1,2.52-.27,2.81,0,4.31,.42,2.35,1.72,3.96,2.16,4.49,2.02,2.44,3.86,2.2,7.19,4.13,1.15,.67,4.54,2.69,6.83,6.47,2.73,4.5,2.7,9.51,2.7,9.89-.03,1.54-.26,2.58,0,4.67,.34,2.67,1.18,4.64,1.44,5.21,.99,2.2,1.58,2.32,2.52,4.31,.38,.82,.86,2.04,1.44,5.57,.76,4.69,.28,4.81,.9,8.63,.59,3.68,1.63,7.26,1.98,8.45,.59,2.03,.83,2.55,1.08,3.96,.23,1.29,.49,3.43,.18,6.65-.36,3.63-1.21,6.21-2.7,10.61-1.93,5.7-2.56,5.45-3.06,8.45-.46,2.77-1.69,9.72-2.16,11.87-.44,2-.67,3.66-.8,4.77-4.46-.77-8.91-1.54-13.37-2.3-.02-1.59-.17-3.97-.76-6.78-1.39-6.6-3.88-7.62-5.03-13.48-.43-2.18-.58-5.64-.9-12.58-.3-6.59-.17-8.54-1.8-10.43-1.97-2.29-3.43-.92-7.55-3.78-2.21-1.53-2.09-2.14-7.19-6.83-2.14-1.97-3.23-2.97-4.13-3.42-3.36-1.67-4.78,.06-8.81-1.08-4.38-1.24-7.08-4.46-7.55-5.03-1.73-2.12-1.25-2.83-3.24-5.21-.71-.86-2.57-3.05-5.57-4.49-3.4-1.63-4.32-.41-8.09-1.98-1.38-.58-4.09-1.7-6.11-4.31-2.13-2.76-1.44-4.52-3.6-6.65-1.6-1.58-3.19-1.82-5.21-2.52-6.73-2.33-11-7.33-12.4-8.99-3.55-4.19-4.87-8.14-5.93-11.33-1.82-5.44-1.12-7.3-.72-8.09Z"
    fill="#575756" stroke="#575756" stroke-linejoin="round" />
  <path id="L5"
    d="M3.26,612.52c1.06-1.81,2.98-2.32,14.02-3.6,.7-.08,7.52-.86,18.16-1.44,2.83-.15,5.9-.97,8.81,.54,.8,.42,1.5,1.04,2.85,1.33,2.74,.57,5-.78,5.26-.94,1.43-.88,2.15-2.04,2.63-2.83,1.19-1.96,1.43-3.87,1.48-4.92,3.73,2.02,7.46,4.04,11.19,6.07,0,.69,.11,1.79,.88,2.43,1.11,.92,2.95,.34,4.11-.04,6.84-2.26,8.88-3.88,12.76-4.67,2.71-.55,5.42-1.1,7.91,.36,3.07,1.8,3.88,5.52,4.31,7.55,.32,1.5,1.01,4.92-.72,8.45-.57,1.16-1.26,2.72-2.88,3.6-1.33,.72-2.42,.53-6.29,0,0,0-2.07-.28-10.43-.9-1.13-.08-2.81-.19-4.49,.72-.46,.25-1.5,.8-2.16,1.98-.36,.65-.5,1.29-.58,2.25-.19,2.15,.09,3.74,.2,4.63,.16,1.37,.16,3.35-.6,5.89-3.21-2.56-6.43-5.12-9.64-7.69,.15-.53,.87-3.28-.74-5.73-.36-.55-1.36-2.06-3.03-2.29-2.26-.32-4.26,1.91-5.06,3.57-.71,1.49-.69,3.15-.67,4.04,.02,1.54,.37,1.86,.18,2.52-.61,2.11-4.28,2.81-6.65,3.24-9.53,1.7-15.64,2.16-15.64,2.16s-4.35,.33-12.58,.57c-6.44,.19-8.26,.08-9.71-1.29-1.28-1.21-1.63-3.62-2.34-8.45-.45-3.08-.57-5.32-.72-8.45-.25-5.12-.37-7.69,.18-8.63Z"
    fill="#878787" stroke="#878787" stroke-linejoin="round" />
  <path id="L4"
    d="M.75,586.09c-.21-5.25-.57-6.28,.36-7.73,.91-1.42,2.27-2.03,3.78-2.7,2.68-1.19,4.94-1.28,8.45-1.38,5.57-.16,9.78-.23,9.89-.23,6.75-.11,10.12-.17,10.43-.18,5.25-.18,7.88,.18,9.35,.72,1.43,.52,2.91,1.32,4.85,.92,1.46-.3,2.47-1.13,3.24-1.75,1.73-1.41,2.73-3.11,3.3-4.45l9.57,5.6c.05,.97,.3,2.15,1.15,2.7,.96,.61,2.19,.12,5.18-.95,1.62-.58,3.26-1.12,4.89-1.7,1.56-.55,5.66-1.97,10.43-1.62,2.55,.19,5.59,.42,7.73,2.7,1.64,1.75,1.93,3.83,2.34,6.83,.34,2.47,.7,5.09-.72,7.73-.43,.8-1.42,2.66-3.42,3.42-1.57,.6-2.61,.06-6.11-.54-2.44-.42-4.13-.53-6.29-.72-4.82-.41-5.98-.11-6.61,.09-1.13,.36-3.12,1-4.11,2.76-.61,1.08-.45,1.88-.47,6.07,0,1.6-.04,2.91-.07,3.78-3.66-2.04-7.33-4.09-10.99-6.13,.47-.67,1.33-2.13,1.28-4.04-.02-.68-.04-1.66-.7-2.56-.97-1.34-2.63-1.54-3.58-1.65-.67-.08-2.14-.24-3.68,.57-1.58,.83-2.32,2.2-2.56,2.7-1.04,2.16-.06,3.49-1.24,5.08-.45,.61-1.03,1.07-1.98,1.44-6.05,2.34-14.02,2.52-14.02,2.52-5.51,.12-11.05-.11-16.54,.36-2.69,.23-5.39-.39-8.09-.42-.89,0-2.39,0-3.42-1.02-.65-.64-.87-1.44-1.08-2.7-.48-2.92-.38-5.26-.36-5.75,.07-1.63-.01-3.66-.18-7.73Z"
    fill="#878787" stroke="#878787" stroke-linejoin="round" />
  <path id="L3"
    d="M3.66,542.22c-.92,5.39-1.08,3.16-1.62,7.73-.12,1-.08,.87-.36,10.25-.06,2-.1,3.2,.72,4.31,.59,.81,1.57,1.5,4.49,2.16,3.09,.69,5.49,.7,7.01,.72,6.07,.08,5.06,.52,10.43,.54,7.2,.02,6.08-.77,9.71-.36,2.86,.32,5.19,1,7.37-.36,.38-.24,1.38-.92,1.98-2.16,.62-1.3,.18-1.94,.73-3.19,.6-1.36,1.75-2.06,2.65-2.61,.71-.43,2.57-1.56,4.76-1.12,.86,.17,1.52,.59,1.76,.74,.4,.24,1.17,.72,1.76,1.6,.64,.96,.74,1.91,.81,2.63,.2,2.15-.51,3.94-1.01,4.92,3.17,1.89,6.34,3.78,9.51,5.66,.07-1.01,.35-3.02,1.75-4.99,.49-.69,1.42-1.96,3.1-2.76,1.85-.88,6.81-.99,7.47-1.01,.52-.01,1.14,.01,2.12,.13,5.5,.66,8.99,1.8,8.99,1.8,1.27,.41,2.5,.9,3.78,.36,1.37-.58,1.99-2.01,2.52-3.24,.43-.99,.83-2.28,1.08-5.75,.24-3.33,.36-5,0-5.93-1.14-2.96-4.39-4.2-6.11-4.85-3.03-1.16-5.86-.78-9.89-.36-2.52,.27-3.78,.4-4.67,.61-2.04,.49-3.39,1.11-5.2,.65-1.25-.32-1.63-.88-1.75-1.08-.58-.97-.08-2.15,0-2.34-3.46-2.59-6.92-5.18-10.38-7.78-.25,.84-.69,2.03-1.54,3.28-.69,1.02-1.44,2.09-2.88,2.88-.26,.14-1.72,.92-3.6,.72-.92-.1-1.49-.38-3.24-1.26-1.32-.66-2.64-1.3-3.96-1.98-1.78-.91-3.23-1.07-8.09-1.44-4.75-.36-7.46-.52-10.43-.72-5.47-.37-6.74-.52-9.71-.54,0,0-2.19-.29-6.11,.18-.85,.1-1.74,.25-2.52,.9-1.08,.91-1.3,2.27-1.44,3.06Z"
    fill="#878787" stroke="#878787" stroke-linejoin="round" />
  <path id="L2"
    d="M9.23,510.76c-.62,2.87-.43,1.48-1.62,6.65-1.65,7.15-.95,5.15-1.44,6.83-.64,2.2-1.21,3.45-.54,4.49,.59,.91,1.76,1.12,2.52,1.26,2.95,.54,5.78,1.71,8.75,2.1,9.63,1.28,9.09,1.44,13.72,1.85,4.12,.36,2.44,.05,7.25,.42,5.1,.39,8.11,.83,8.93-.6,.37-.64-.12-.93,.18-2.16,.62-2.52,3.3-3.74,3.7-3.91,.79-.35,2.09-.93,3.64-.54,2.28,.57,3.27,2.77,3.5,3.28,1.13,2.5,.21,4.87,0,5.35,3.33,2.52,6.65,5.03,9.98,7.55-.08-.74-.4-4.59,2.29-7.55,.48-.52,2.08-2.28,4.58-2.62,1.47-.2,2.72,.26,5.16,1.17,2.51,.94,2.51,1.28,5.44,2.48,2.88,1.18,4.49,1.48,5.93,1.62,2.04,.19,2.8-.11,3.24-.36,1.48-.85,1.89-2.59,2.34-4.49,.12-.5,.34-1.56,.36-6.47,.01-3.52-.1-3.98-.36-4.49-.84-1.67-2.43-2.38-4.31-3.24-2.78-1.26-5.22-1.47-7.01-1.62-1.01-.08-2.72,0-6.11,.18-1.83,.09-3.73,.25-7.55,.36-.53,.01-1.53,.03-2.15-.63-.57-.61-.53-1.49-.49-2.2,.09-1.74,.86-3.1,1.48-3.96-2.68-3.12-5.36-6.23-8.04-9.35-.79,1.6-1.64,2.83-2.3,3.7-.74,.97-1.41,1.81-2.55,2.64-.57,.42-1.3,.93-2.38,1.26-.96,.29-2.45,.74-3.64,.04-.79-.46-.87-1.07-2.39-2.11,0,0-.29-.2-.65-.41-1.92-1.13-4.52-1.79-5.27-1.97-1.94-.48-3.48-.86-5.75-1.23-.34-.06-1.9-.28-5.05-.7-5.35-.71-4.95-.81-7.55-1.08-4.83-.5-7.13-.35-8.63-.18-1.12,.13-2.16-.06-3.24,.54-1.44,.8-2.1,2.25-2.7,3.6-.66,1.5-.83,2.5-1.26,4.49Z"
    fill="#878787" stroke="#878787" stroke-linejoin="round" />
  <path id="L1"
    d="M20.2,470.31c-1.4,3.35-1.87,6.13-2.52,8.81-.85,3.53-1.67,7.07-2.52,10.61-.22,.91-.48,1.97,0,3.06,.75,1.71,2.83,2.37,5.57,3.06,4.34,1.08,7.7,1.57,9.17,1.8,6.61,1.01,9.92,1.51,12.58,2.16,0,0,2.07,.5,7.19,.54,1.27,0,2.06-.15,2.88-.72,1.12-.78,.91-1.58,2.17-3.19,.55-.7,1.65-2.09,3.51-2.7,.6-.2,1.78-.59,3.1-.13,1.63,.56,2.68,2.12,2.95,3.64,.35,2-.72,3.52-.94,3.82,2.67,3.12,5.34,6.25,8.01,9.37,.64-2.7,1.65-4.55,2.4-5.68,.5-.75,.85-1.14,1.34-1.45,2-1.26,4.57-.13,4.85,0,1.08,.48,1.17,.91,2.82,2.43,2.19,2.02,3.98,2.94,6.83,4.67,.4,.24,1.34,.8,2.7,1.08,.88,.18,1.92,.39,2.88,0,.78-.32,1.35-.98,2.7-4.49,1.07-2.79,1.61-4.19,1.62-5.03,.04-2.86-1.77-5.01-2.88-6.29-.2-.23-4.45-5.19-10.43-5.93-.6-.07-2.04-.21-3.99-.72-2.7-.71-3.62-1.42-4.04-1.8-.6-.53-1.6-1.41-1.8-2.88-.22-1.6,.66-2.83,.9-3.15-2.46-3.3-4.91-6.59-7.37-9.89-.43,.84-1.19,2.09-2.52,3.24-.76,.66-1.65,1.44-3.06,1.8-1.91,.49-3.53-.09-4.22-.36-1.64-.62-2.36-1.5-3.33-2.25-2.13-1.66-3.94-1.53-8.54-2.32-.76-.13-3.61-.81-9.31-2.18-1.6-.38-5.51-.93-13.3-2.16-.56-.09-1.83-.27-3.06,.36-1.4,.72-2.02,2.12-2.34,2.88Z"
    fill="#878787" stroke="#878787" stroke-linejoin="round" />
  <path id="Th12"
    d="M32.42,440.83c-1.62,3.28-2.61,7.02-2.7,7.37-1.41,5.45-1.22,7.45-.9,8.81,.18,.76,.4,1.3,.72,1.8,1.16,1.83,3.18,2.44,4.67,2.88,5.29,1.53,7.93,2.3,8.09,2.34,4.39,1.09,9.14,2.58,10.07,2.88,3.2,1.01,5.43,1.82,8.09,1.08,.72-.2,2.05-.5,2.88-1.62,.63-.84,.4-1.35,.99-2.4,.85-1.49,2.28-2.16,2.93-2.46,1.1-.51,3.02-1.41,4.76-.45,1.64,.9,1.95,2.8,1.98,2.97,.21,1.41-.41,2.49-.99,3.51-.75,1.31-1.69,2.14-2.3,2.61,2.48,3.33,4.95,6.65,7.43,9.98,.55-.52,1.4-1.32,2.43-2.34,1.76-1.74,1.97-2.05,2.7-2.43,.39-.2,2.3-1.13,4.22-.36,.73,.29,1.18,.72,1.56,1.08,1.51,1.45,1.35,2.56,2.89,4.93,.3,.47,.69,.97,1.25,1.55,1.64,1.7,3.01,2.27,3.96,2.52,.72,.19,1.56,.41,2.52,.18,1.89-.47,2.86-2.39,4.13-5.03,1.35-2.79,2.02-4.19,1.8-5.75-.38-2.64-2.68-4.31-4.13-5.39-2.09-1.55-2.5-.96-5-2.76-1.49-1.08-3.08-2.25-4.04-4.31-.49-1.06-.81-2.32-1.02-3.17-.43-1.72-.38-2.3-.93-3.44-.18-.37-.62-1.26-1.48-2.16-1.09-1.13-1.76-1.16-2.09-1.96-.19-.47-.28-1.26,.4-2.56-2.56-2.61-5.12-5.21-7.69-7.82-.94,.79-2.44,1.88-4.52,2.63-1,.36-2.89,.92-7.61,.74-4.52-.17-8.05-.86-9.71-1.26-1.02-.24-4.79-1.17-9.53-2.88-2.5-.9-5.15-1.4-7.55-2.52-1.31-.61-2.64-1.33-4.13-.9-1.25,.37-2.21,1.43-2.7,1.98-.8,.89-1.22,1.72-1.44,2.16Z"
    fill="#b2b2b2" stroke="#b2b2b2" stroke-linejoin="round" />
  <path id="Th11"
    d="M42.67,410.45c-.53,.69-1.51,2.11-2.88,6.65-1.49,4.94-.58,4.1-1.8,9.17-.12,.51-.36,1.46,0,2.52,.46,1.35,1.63,2.11,2.34,2.52,3.05,1.78,6.46,2.38,8.09,2.7,1.18,.23,4.09,.93,9.89,2.34,0,0,3.55,.86,9.17,1.44,2.09,.21,2.96-.02,3.78-.54,.96-.62,1.2-1.39,3.43-5.26,1-1.75,1.31-2.21,1.96-2.43,1.62-.54,3.42,1.13,3.64,1.35,.12,.12,1.53,1.5,1.62,3.57,.03,.8-.18,1.52-.61,2.97-.29,.97-.59,1.76-.81,2.29l7.69,7.82c.59-.53,1.53-1.26,2.83-1.82,.96-.41,1.74-.74,2.7-.67,1.56,.12,2.63,1.24,3.84,2.56,.43,.47,1.29,1.45,2.83,4.04,1.84,3.1,1.89,3.84,3.25,5.35,1.11,1.24,2.04,2.3,3.42,2.34,2.02,.06,3.52-2.14,3.78-2.52,1.1-1.61,1.17-3.28,1.26-5.39,.07-1.68,.12-2.89-.36-4.31-.55-1.62-1.34-2.22-3.96-5.03-2.91-3.13-3.63-3.59-4.49-5.21-.29-.54-.9-1.7-1.27-3.35-.63-2.79,.25-3.32-.41-5.26-.54-1.6-1.67-2.76-3.23-4.38-1.16-1.2-1.83-1.61-2.22-2.7-.44-1.21-.24-2.41,0-3.24l-8.7-7.55c-1.04,.99-2.89,2.47-5.56,3.28-.53,.16-2.14,.56-5.57,.54-1.18,0-3.23-.09-8.81-1.26-3.9-.82-6.26-1.32-9.53-2.34-2.5-.78-5.06-1.35-7.55-2.16-1.74-.56-3.11-1.05-4.67-.54-.41,.13-1.57,.57-3.06,2.52Z"
    fill="#b2b2b2" stroke="#b2b2b2" stroke-linejoin="round" />
  <path id="Th10"
    d="M51.66,385.1c-.66,2.62-1.06,4.24-1.44,6.83,0,0-.48,1.64-.36,4.67,.07,1.67-.02,2.36,.36,3.06,.66,1.21,1.92,1.7,2.7,1.98,4.15,1.51,8.15,2.09,8.63,2.16,5.16,.72,3.62,.21,8.99,.9,1.68,.22,3.37,.47,5.57,0,1.35-.29,2.62-.57,3.6-1.62,.88-.94,.7-1.61,1.12-2.78,.05-.15,.28-.86,.68-1.36,.87-1.09,2.78-1.51,4.24-.94,1.44,.56,2.04,1.94,2.49,3.03,1.35,3.24,.56,6.44,.07,7.96,2.9,2.52,5.8,5.03,8.7,7.55,.83-.53,2.79-1.61,5.33-1.42,3.01,.23,4.98,2.3,6.88,4.31,2.14,2.27,2.44,3.45,5.66,8.63,4.42,7.11,5.29,7.18,5.66,7.15,2.2-.22,3.88-6.15,3.4-10.92-.32-3.18-2.11-7.19-4.13-9.35-1.62-1.73-2.74-2-4.33-4.34-.85-1.25-1.78-2.62-1.96-4.52-.2-2.2,.84-2.66,.94-5.39,.05-1.38,.12-3.25-.96-4.81-1.82-2.63-5.94-2.96-7.19-3.06-2.25-.18-3.15,.32-4.12-.49-1.53-1.27-1.13-4-1.08-4.31,.28-1.76,1.3-2.92,1.75-3.37-2.38-1.82-4.76-3.64-7.15-5.46-1.44,1.36-3.69,3.09-6.74,4.11-1.88,.63-3.4,.78-3.78,.81-.89,.08-1.76,.07-4.58-.27-2.82-.34-4.23-.51-6.12-.9-2.47-.51-3.67-.86-5.65-1.17-1.46-.23-1.84-.19-4.24-.81-.5-.13-4.48-1.16-8.63-.9-.59,.04-1.49,.12-2.34,.72-.96,.69-1.31,1.67-1.98,4.31Z"
    fill="#b2b2b2" stroke="#b2b2b2" stroke-linejoin="round" />
  <path id="Th9"
    d="M59.77,356.64c-.66,2.33-1,3.5-1.33,5.08-.36,1.7-.56,3.15-.97,6.04-.37,2.66-.4,3.3,0,3.99,.58,.99,1.62,1.37,3.5,1.93,4.54,1.35,7.13,1.81,7.13,1.81,2.47,.44,1.9,.28,7.98,1.21,0,0,2.57,.39,7.73,.48,.71,.01,1.72,.02,2.66-.6,1.1-.73,1.19-1.74,1.93-3.26,.44-.9,2.12-4.33,4.47-4.58,1.65-.17,3.16,1.23,3.87,2.28,1.32,1.96,1.19,4.74-.29,7.09,2.45,1.87,4.9,3.73,7.35,5.6,1.36-.5,3.74-1.14,6.34-.4,1.44,.41,2.5,1.11,4.99,3.24,3.13,2.68,4.68,4.03,6.74,6.34,5.26,5.86,5.83,8.57,7.55,8.36,2.07-.25,3.49-4.45,3.51-7.42,.02-3.02-1.4-5.5-1.81-6.21-.26-.45-.87-1.29-2.1-2.96-1.72-2.35-2.38-3.04-2.8-3.45-.48-.47-1.01-.95-1.79-1.84-.85-.96-1.83-2.23-2.66-4.11-.73-1.66-.55-2.05-1.47-4.53-.8-2.16-1.2-3.23-2.07-4.22-1.45-1.65-3.3-2.31-4.13-2.61-2.12-.75-2.85-.3-5.02-1.33-1.6-.76-2.15-1.45-2.35-1.73-.86-1.19-.88-2.48-.88-3.05,0-1.85,.86-3.18,1.24-3.69l-6.2-5.21c-1.76,1.98-3.49,2.88-4.58,3.33-1.34,.54-3.12,.78-6.68,1.05-1.61,.12-2.81,.38-4.59,.24-5.84-.45-3.47,.05-9.19-.48-1.04-.1-5.03-.48-10.03-.6-1.74-.04-3.64-.06-4.83,1.21-.42,.44-.6,.88-1.21,3.02Z"
    fill="#b2b2b2" stroke="#b2b2b2" stroke-linejoin="round" />
  <path id="Th8"
    d="M65.08,329.08c-.3,.57-.64,2.07-1.33,5.08-.18,.78-.48,2.16-.48,3.99,0,0-.08,1.17-.12,5.2,.31,.5,.88,1.27,1.81,1.93,1.21,.86,2.4,1.08,3.14,1.21,5.04,.88,6.89,.97,6.89,.97,8.75,.42,7.4-.22,10.27,.24,1.91,.31,4,.83,6.41,0,1.36-.47,1.99-1.1,2.3-1.45,.92-1.08,.61-1.94,1.21-3.63,.29-.81,1.29-3.61,3.19-3.9,1.48-.22,2.96,1.16,3.6,2.34,.56,1.04,.54,2.04,.52,2.95-.04,1.62-.52,2.88-.87,3.61l6.28,5.39c1.1-.58,2.8-1.24,4.76-.99,.93,.12,2.01,.51,7.9,5.95,2.44,2.25,3.23,3.09,3.61,3.49,.86,.92,1.92,2.14,3.78,4.58,4.08,5.38,4.44,6.75,5.26,6.61,1.65-.28,2.03-6.23,1.75-9.84-.16-2.16-.37-4.56-1.9-6.93-.62-.97-1.73-2.34-3.06-3.59-1.04-.97-2.05-1.8-3.28-3.42-.28-.36-.54-.78-.82-1.29-1.32-2.42-1.77-5-1.93-6.28-.05-.36,.06-.99-.12-1.83-.29-1.3-.96-2.17-1.45-2.81-.43-.55-1.63-2.06-3.78-3.06-.61-.29-.36-.09-3.6-1.08-2.3-.7-2.83-.93-3.42-1.26-.31-.18-1-.73-2.38-1.82-1.89-1.5-2.29-1.84-2.36-2.43-.08-.74,.42-1.4,.79-1.78l-6.99-4.56c-.41,.69-1.1,1.7-2.22,2.63-1.46,1.21-2.88,1.67-3.72,1.93-1.66,.52-3.36,.54-6.76,.58-1.96,.02-1.97-.03-3.69,0-2.53,.05-3.38,.18-5.74,0-.63-.05-3.48-.28-7.13-.36-1.32-.03-2.44-.04-3.63,.6-1.48,.8-2.19,2.14-2.66,3.02Z"
    fill="#b2b2b2" stroke="#b2b2b2" stroke-linejoin="round" />
  <path id="Th7"
    d="M67.74,298.99c-.28,.2-.97,.79-1.45,3.14-.45,2.21-.1,2.98-.12,6.28-.02,2.93-.31,3.36,0,5.2,.21,1.25,.42,2.46,1.33,3.63,.37,.48,1.2,1.39,3.26,2.18,2.34,.89,4.14,.81,6.89,.85,.87,0-3.18-.03,8.22,.36,6.12,.21,7.63,.23,8.94-.97,1.1-1,1.53-2.37,1.69-2.9,.02-.06,.04-.13,.06-.22,.61-2.34-.49-3.88,.06-5.1,.51-1.15,2.42-1.8,3.81-1.35,2.23,.72,2.4,4.05,2.43,4.58,.13,2.47-1.2,4.25-1.64,4.81,2.32,1.52,4.64,3.04,6.96,4.56,.74-.93,1.9-2.05,3.44-2.22,2.1-.23,3.66,1.42,7,4.73,5.53,5.47,6.48,6.08,7.55,7.16,.42,.43,.74,.81,1.27,1.42,.47,.54,.88,1.02,1.19,1.39,.44,.53,.53,.65,.64,.78,.54,.63,2.02,2.05,2.98,1.78,1.15-.31,1.31-2.99,1.35-3.64,.05-.89,.07-2.89-1.89-7.69-1.6-3.92-3.24-6.57-3.78-7.42-.99-1.56-1.49-2.34-2.29-3.37-1.06-1.36-1.91-2.19-2.89-3.93-.08-.13-.46-.67-.75-1.47-.88-2.48-1.11-3.55-1.53-4.48-1.02-2.27-3.05-3.45-3.6-3.78-1.59-.93-1.83-.38-4.67-1.71-1.41-.65-1.23-.73-3.13-1.64-1.47-.7-1.93-.8-2.3-1.33-.89-1.3-.33-3.05-.14-3.57-2.29-1.26-4.58-2.52-6.88-3.78-.56,1-1.58,2.52-3.3,3.84-1.47,1.13-2.81,1.62-4.52,2.22-.56,.2-2.95,1.03-6.6,1.46-.69,.08-3.37,.38-6.92,.21-6.16-.3-7.05-.39-7.05-.39-2.28-.13-2.95-.13-3.63,.36Z"
    fill="#b2b2b2" stroke="#b2b2b2" stroke-linejoin="round" />
  <path id="Th6"
    d="M66.67,277.82c0,.17,0,1.58,0,4.39,0,2.06-.01,3.05,.2,4.49,.18,1.21,.38,1.86,.8,2.49,.19,.29,.7,.99,1.79,1.59,1.65,.92,3.14,.8,6.38,.8,4.14,0,3.48,.19,6.18,.1,3.41-.11,2.62-.35,6.18-.5,2.4-.1,3.58-.02,4.88-.9,.32-.21,1.23-.85,1.69-1.99,.05-.13,.1-.26,.13-.39,.3-1.24,.03-2.23-.03-2.7-.21-1.61,1.57-4.17,3.74-4.3,1.36-.08,2.78,.8,3.34,2,.44,.93,.25,1.81-.11,3.39-.37,1.62-.94,2.9-1.42,3.78,2.31,1.28,4.62,2.55,6.93,3.83,.33-.38,.98-1.01,1.97-1.34,1.77-.57,3.35,.25,3.78,.47,.38,.19,.63,.39,.71,.45,5.06,3.88,3.43,2.4,6.57,5.01h0c5.62,6,10.8,11.53,12.4,10.65,1.61-.89-.45-8.29-2.97-13.08-1.67-3.17-3.89-5.88-4.04-6.07-1.47-1.77-2.22-2.68-3.51-3.78-.98-.83-1.85-1.42-2.88-2.72-.42-.54-.96-1.21-1.4-2.19-.84-1.9-.25-2.5-.94-4.43-.3-.83-.93-2.59-2.5-3.41-.44-.23-1.02-.39-2.18-.72-1.68-.48-1.53-.27-2.07-.54-.7-.35-1.35-.91-2.61-2l-.07-.06c-1.02-.9-1.31-2.03-1.4-2.46-2.54-1.42-5.08-2.83-7.62-4.25-.99,1.39-1.96,2.33-2.63,2.9-.66,.56-1.24,.96-1.43,1.09-.7,.47-1.3,.78-1.74,1-1.74,.87-3.25,1.31-4.12,1.52-1.04,.26-2.33,.42-4.88,.6-4.92,.34-4.5,.38-5.68,.4-1.74,.03-2.34-.06-4.88,0-2.64,.06-3.23,.17-3.89,.5-.24,.12-2.06,1.05-2.69,2.99-.26,.8-.09,1.06,0,3.39Z"
    fill="#b2b2b2" stroke="#b2b2b2" stroke-linejoin="round" />
  <path id="Th5"
    d="M65.67,249.11c.02,1.89,.04,2.84,.1,4.29,.11,2.64-.13,2.29,0,4.39,.05,.77,.2,2.65,.9,4.88,.48,1.53,.85,2.04,1.3,2.39,.82,.65,1.78,.68,2.59,.7,3.95,.08,5.92,.12,6.18,.1,1.38-.1,3.45-.28,6.78-.7,2.2-.28,4.35-.58,6.98-1.4,2-.62,3.29-1.21,3.49-2.19,.09-.48-.16-.61-.42-1.84-.26-1.22-.46-2.14-.13-3.03,.54-1.45,2.18-1.99,2.43-2.07,1.22-.4,3.16-.42,4.11,.79,.55,.71,.53,1.53,.5,2.57-.03,.91-.22,2.52-1.24,4.39,2.51,1.36,5.02,2.72,7.52,4.09,.43-.22,1.07-.51,1.9-.68,0,0,.4-.09,.79-.12,.56-.04,1.84,.03,3.79,.9,1.82,.81,2.6,1.84,4.78,4.09,1.77,1.81,2.14,2.04,2.99,2.82,.54,.49,.97,.92,1.25,1.21,.19,.19,.32,.33,.34,.35,.44,.46,8.09,8.13,9.94,6.88,.86-.58,.19-2.91-1.08-7.28-.71-2.44-1.49-5.09-3.24-8.36-2.42-4.54-5.19-7.44-5.82-8.09-1.39-1.43-1.47-1.63-2.69-2.69-1.25-1.09-3.11-4.62-4.07-6.21-.51-.85-.98-1.62-1.8-2.43-2.22-2.18-5.38-2.98-6.42-3.25-.1-.03-.3-.08-.57-.17-.37-.14-1.54-.6-2.36-1.84-.94-1.42-.8-2.89-.74-3.3-2.22-.94-4.45-1.89-6.67-2.83-.95,2.04-2.07,3.47-2.9,4.38-.76,.83-1.44,1.57-2.56,2.22-.48,.28-1.43,.77-4.31,1.28-.73,.13-1.89,.31-4.97,.58-2.29,.2-4.1,.31-5.58,.4-3.42,.2-5.13,.3-5.18,.3-1.73-.08-2.65-.3-3.79,.3-.22,.12-1.26,.69-1.79,1.89-.31,.69-.31,1.27-.3,2.29Z"
    fill="#b2b2b2" stroke="#b2b2b2" stroke-linejoin="round" />
  <path id="Th4"
    d="M62.98,226.89c.22,2.19,.26,4.39,.4,6.58,.09,1.48,.14,2.43,.6,3.69,.28,.77,.59,1.57,1.3,2.19,1.12,.98,2.63,.94,3.69,.9,5.58-.23,8.07-.6,8.07-.6,6.39-.95,7.79-1.37,8.77-1.69,0,0,.59-.13,4.29-1.79,.21-.09,.61-.28,.9-.7,.38-.55,.34-1.19,.3-1.79-.14-1.87-.28-2.13-.3-2.89-.01-.58-.05-2.14,.95-3.4,.16-.2,1.28-1.62,2.7-1.48,1.71,.16,2.59,2.44,2.9,3.24,.83,2.15,.42,4.15,.13,5.12,2.22,.94,4.45,1.89,6.67,2.83,.81-.47,1.97-.96,3.17-.67,.92,.22,1.25,.73,2.43,1.55,.87,.6,1.15,.64,2.19,1.1h0s.81,.37,1.65,.79c3.6,1.82,6.2,3.64,6.2,3.64,1.15,.81,3.32,2.33,5.66,4.72,.85,.87,1.9,2.02,3.72,3.05,1.38,.78,2.37,1.33,2.88,.99,1.45-.95-1.12-8.77-5.48-14.6-2.94-3.92-6.56-6.74-8.27-7.48-2.09-.9-2.82-1.53-4.29-2.79-.84-.72-1.27-1.47-1.5-1.79-2.35-3.36-3.53-5.03-4.79-5.82-1.92-1.21-4.08-1.32-4.08-1.32-1.49-.08-2.83,.29-4.49-.43-.49-.21-.89-.47-1.09-.91-.42-.92,.32-1.92,.36-1.98-2.14-1.12-4.28-2.25-6.43-3.37-.43,.76-1.05,1.76-1.93,2.83-.36,.43-1.56,1.91-3.06,2.97-1.55,1.1-3.48,1.53-7.29,2.36-2.56,.56-4.45,.97-7.08,1.2-3.12,.27-4.68,.4-4.68,.4-1.42-.05-2.59-.24-3.69,.5-.72,.49-1.07,1.15-1.2,1.4-.58,1.14-.43,2.2-.3,3.49Z"
    fill="#b2b2b2" stroke="#b2b2b2" stroke-linejoin="round" />
  <path id="Th3"
    d="M58.3,208.05c.6,2.89,.84,4.51,1.69,7.18,.31,.97,.54,1.56,1.1,2.09,1.07,1.03,2.55,1.09,3.99,1.1,2.84,0,4.7-.23,7.28-.5,3.36-.35,4.33-.35,6.6-.81,.25-.05,2.68-.57,4.76-2.08,.62-.45,1.04-.88,1.3-1.5,.22-.53,.21-.97,.1-2.29-.18-2.17-.39-2.19-.3-2.99,.06-.56,.29-1.67,1.15-2.65,.25-.29,1.17-1.33,2.7-1.53,1.49-.19,3.06,.49,3.97,1.78,.92,1.32,1.02,3.06,.26,4.51,2.13,1.2,4.25,2.4,6.38,3.6,.4-.38,1.08-.95,2.07-1.35,.05-.02,1.05-.42,1.98-.45,1.75-.06,2.85,1.2,4.63,2.47,2.14,1.53,2.22,.79,5.78,2.89,1.73,1.02,1.59,1.05,5.58,3.69,1.99,1.31,3.32,2.17,4.25,2.75,.86,.54,1.28,1.36,2.23,1.44,.16,.01,.77,.06,1.29-.32,.65-.48,.75-1.33,.79-1.68,.36-3.22-4.4-7.91-4.4-7.91-3.19-3.14-6.71-5.38-8.45-6.47-1.39-.88-3.27-1.98-5.37-4.05-1.05-1.04-1.76-1.73-2.39-2.89-1.43-2.6-.57-3.91-1.89-5.68-1.02-1.36-3.06-2.64-4.98-2.39-1.69,.22-2.35,1.5-4.98,1.79-.59,.07-1.14,.08-1.69-.2-1.13-.57-1.44-1.93-1.52-2.31-2.2-1.17-4.4-2.34-6.61-3.51-.34,.95-1.01,2.44-2.34,3.87-.4,.43-1.34,1.38-3.33,2.47-.77,.42-2.47,1.29-6.35,2.27-3.16,.8-7.37,1.56-10.07,1.79-.9,.08-1.79,.28-2.69,.4-1.43,.19-2.04,.22-2.49,.7-.47,.5-.5,1.19-.5,1.89,.01,2.54,.44,4.58,.5,4.88Z"
    fill="#b2b2b2" stroke="#b2b2b2" stroke-linejoin="round" />
  <path id="Th2"
    d="M52.52,185.22c.15,2.32,.25,3.79,.7,5.68,.33,1.38,.5,2.09,1,2.89,.25,.4,1.15,1.82,2.89,2.59,.74,.32,1.61,.53,3.89,.4,2.14-.12,3.57-.43,5.88-.9,4.77-.96,5.02-.92,6.58-1.4,3.76-1.15,4.66-2.12,5.08-2.99,.2-.41,.26-1,.4-2.19,.38-3.37-.11-4.04,.51-5.29,.51-1.01,1.68-2.25,3.06-2.2,1.73,.06,2.73,2.14,3,2.7,.8,1.66,.58,3.24,.46,3.86,2.22,1.23,4.44,2.46,6.66,3.69,.42-.55,1.12-1.34,2.19-2.03,1.08-.7,1.79-1.08,2.74-1.12,1.63-.07,2.68,1.11,4.1,2.18,1.19,.9,1.08,.19,6.78,3.09,5.17,2.63,6.17,2.76,7.21,3.36,.49,.28,.76,.51,1.06,.73,1.59,1.17,3.15,2.31,4.13,1.92,1.03-.4,1.23-2.38,1.17-3.42-.17-2.61-2.39-4.56-2.93-5.04-.06-.05-.1-.09-.17-.15-5.48-4.64-8.22-6.96-10.76-8.07-.74-.32-2.69-1.13-4.98-2.69-1.03-.7-1.72-1.28-2.69-2.09-1.75-1.46-2.63-2.21-3.09-3.19-.57-1.2-.17-1.52-.8-2.59-.14-.24-1.07-1.83-2.69-2.19-1.26-.28-1.7,.45-4.49,1.1-1.67,.38-2.52,.56-3.39,.2-1.38-.58-1.95-2.11-2.16-2.81-1.96-.99-3.91-1.98-5.87-2.97-.72,1.09-1.81,2.52-3.34,3.98-2.47,2.35-4.84,3.56-6.28,4.29,0,0-4.1,2.01-8.87,2.99-1.11,.23-2.2,.54-3.32,.75-2.34,.44-3.08,.39-3.56,1.04-.25,.33-.28,.64-.2,3.19,.05,1.48,.07,2.23,.1,2.69Z"
    fill="#b2b2b2" stroke="#b2b2b2" stroke-linejoin="round" />
  <path id="Th1"
    d="M45.44,163.39c1.17,3.73,.73,3.78,1.79,6.38,.91,2.22,1.6,3.09,2.49,3.69,.78,.52,1.54,.71,1.89,.8,1.54,.37,2.8,.1,4.09-.2,3.96-.91,5.94-1.37,6.58-1.59,2.8-.98,2.94-1.5,5.58-2.49,0,0,.9-.34,2.19-1.1,1.09-.64,1.35-.95,1.5-1.2,.43-.71,.32-1.48,.2-2.29-.64-4.41-.66-4.63-.53-5.01,.54-1.56,2.69-2.85,4.29-2.3,1.04,.35,1.48,1.49,2.13,3.12,.59,1.49,.79,2.82,.87,3.73,1.97,.98,3.94,1.97,5.91,2.95,2.22-2.96,3.87-3.46,4.97-3.36,2.25,.2,3.4,3,8.49,4.46,.02,0-.03,0,0,0,4.52,.74,7.42,2.33,9.27,3.69,1.19,.88,2.18,1.61,4.52,2.97,1.06,.62,1.93,1.07,2.71,.74,.92-.39,1.19-1.63,1.26-1.96,.38-1.77-.56-3.33-1.01-4.05-1.01-1.62-2.57-2.62-5.58-4.68-3.05-2.09-3.61-1.96-8.57-4.78-3.57-2.04-5.41-3.09-7.67-4.98-2.59-2.16-3.88-3.23-4.78-4.88-1.29-2.37-1.34-4.44-3.19-5.28-.58-.26-1.47-.47-2.39-.3-1.65,.3-1.96,1.51-3.19,1.5-1.3-.01-2.26-1.41-2.59-1.89-.61-.88-.81-1.75-.88-2.24-1.96-.61-3.93-1.23-5.89-1.84-.39,1.32-1.17,3.76-2.01,4.98-.07,.1-.16,.23-.16,.23s-.83,1.17-1.74,2.17c-1.77,1.94-7.48,4.19-7.48,4.19-3.72,1.47-5.59,2.17-6.88,2.49-1.93,.49-3.9,.82-5.68,2.39-.67,.6-.94,1.04-1.1,1.4-.57,1.31-.06,2.48,.6,4.59Z"
    fill="#b2b2b2" stroke="#b2b2b2" stroke-linejoin="round" />
  <path id="C7"
    d="M38.06,137.38c.9,4.01,1.71,4.52,2.59,8.07,0,0,.4,1.63,1.5,3.49,.27,.45,.5,.8,.9,1.1,.94,.71,2.08,.64,2.69,.6,4.12-.3,6.48-1,6.48-1,3.94-1.17,6.68-2.6,7.58-3.09,0,0,2.32-.8,3.99-2.49,.29-.29,.44-.54,.6-.9,1.02-2.22-1.2-4-.53-5.61,.68-1.63,4.17-2.69,5.71-1.17,1.07,1.06,.73,2.91,.67,3.19,1.93,.63,3.87,1.26,5.8,1.89,.3-.79,.99-2.17,2.42-2.88,1.67-.83,3.45-.32,4.99,.13,.71,.21,1.49,.59,3.06,1.35,2.58,1.26,3.47,1.87,5.44,2.72,1.19,.51,1.18,.4,3.53,1.87,3,1.87,6.15,3.5,9.07,5.48,.38,.26,2.11,1.44,4.49,1.59,.96,.06,2.15,.13,2.89-.7,.73-.81,.54-2.07,.4-2.89-1.07-6.28-1.61-9.43-3.59-10.76-1.78-1.21-2.37-.13-6.58-1.5-1.71-.55-3.16-1.31-5.98-2.79-5.66-2.97-5.07-3.22-7.58-4.19-2.26-.87-5.1-1.96-8.67-1.69-1.43,.11-2.27,.38-3.99,.2-1.25-.13-3.27-.37-4.98-1.89-.99-.88-1.52-1.86-1.79-2.49-2.16-.73-4.32-1.46-6.48-2.19-.14,.92-.51,2.32-1.59,3.49-.43,.46-.99,.95-4.68,2.29-2.32,.84-3.48,1.26-5.07,1.72-1.8,.52-3.26,.86-4.6,1.17-1.87,.43-3.69,1.09-5.58,1.4-.95,.15-2.37,.34-2.99,1.4-.19,.33-.26,.65-.3,1.3-.15,2.23,.2,3.79,.2,3.79Z"
    fill="#c6c6c6" stroke="#c6c6c6" stroke-linecap="round" stroke-linejoin="round" />
  <path id="C6"
    d="M32.58,114.25c.35,1.71,.01,1.47,.4,4.58,.25,2.04,.51,3.06,.6,3.39,.55,2.1,1.13,2.99,1.79,3.59,.44,.4,.87,.59,1.1,.7,1.07,.51,2.06,.54,3.29,.5,2.33-.08,4.09-.38,4.19-.4,1.94-.34,1.85-.46,5.08-1.2,.06-.01,2.41-.55,5.18-1.5,.63-.21,1.54-.54,2.09-1.4,.32-.49,.33-.88,.5-1.79,.34-1.82,.5-2.73,.93-3.32,1.01-1.38,3.88-1.99,5.05-.67,.8,.91,.48,2.35,.4,2.69,2.16,.7,4.32,1.4,6.48,2.09,.53-.44,1.36-1.03,2.49-1.4,2.07-.67,3.86-.18,7.58,1.1,5.68,1.95,9.58,3.44,9.97,3.59,2.9,1.11,4.81,1.88,5.88,2.3,4.11,1.63,6.18,2.43,6.74,1.98,.97-.78,.59-3.06-.18-4.49-.73-1.36-1.87-1.98-4.13-3.24-1.76-.98-3.8-1.79-4.79-2.13-.25-.09-1.2-.41-2.45-.95-.07-.03-.3-.15-.58-.26-.86-.35-3.94-2.12-4.68-2.57-2.14-1.31-1.65-.84-5.98-3.29-2.21-1.25-2.9-1.69-4.19-2.09-2.18-.69-4.54-.6-4.68-.6-1.17,.02-2.12,.16-3.69-.1-.99-.17-1.68-.32-2.09-.8-.72-.85-.16-2.33-.1-2.49l-5.98-2.29c-1.53,1.67-3.02,2.48-3.99,2.89-1.22,.52-2.65,.73-5.48,1.1-1.66,.22-1.94,.21-4.49,.5-6.16,.69-4.91,.78-6.38,.8-1.36,.02-2.95-.07-4.68,.8-1,.5-1.33,.96-1.5,1.3-.4,.85-.02,1.52,.3,3.09Z"
    fill="#c6c6c6" stroke="#c6c6c6" stroke-linecap="round" stroke-linejoin="round" />
  <path id="C5"
    d="M30.09,91.93c.07,2.38-.05,2.26,0,5.48,.06,3.86,.19,1.07,.4,4.68,.03,.43,.07,1.31,.7,1.99,.19,.21,.48,.45,1.1,.7,.7,.28,1.37,.39,3.4,.41,1.24,0,1.7,0,1.7,0,3.89-.16,6.26-.4,6.26-.4,.44-.05,5.46-.6,8.47-1.89,.44-.19,1.19-.55,1.5-1.3,.19-.45,.13-.9,0-1.79-.22-1.53-.53-1.75-.4-2.39,.22-1.08,1.33-1.66,1.4-1.69,1.47-.74,3.5,.07,4.19,1.3,.35,.62,.16,.99,.3,3.29,.06,.95,.14,1.72,.2,2.19l6.08,2.29c.71-.3,1.69-.65,2.89-.9,.66-.13,2.48-.46,4.88-.2,2.67,.29,4.55,1.11,7.18,2.29,2.72,1.22,4.19,1.89,6.09,3.21,2.5,1.74,4.15,3.53,6.27,3.23,.69-.1,.96-.35,1.1-.5,.93-1.01-.36-3.48-.9-4.49-1.71-3.24-8.35-7.92-10.17-9.33-4.64-3.6-7.94-6.39-11.96-6.58-1.94-.09-2.92-.26-4.88-.6,0,0-1.51-.26-3.46-1.14-.95-.43-1.42-.75-1.68-1.29-.35-.73-.15-1.51-.04-1.85l-4.39-3.39c-.88,.53-2.08,1.16-3.59,1.69-1.66,.59-2.97,.8-3.26,.84-1.25,.19-2.2,.2-5.02,.05-3.5-.18-3.18-.24-4.98-.3,0,0-2.52,.06-6.38,.4-1.06,.09-2.16,.21-2.69,1-.25,.37-.29,.75-.3,2.79,0,1.21-.01,1.82,0,2.19Z"
    fill="#c6c6c6" stroke="#c6c6c6" stroke-linecap="round" stroke-linejoin="round" />
  <path id="C4"
    d="M30.29,70.9c.01,1.55,.02,2.79-.1,4.39-.18,2.35-.45,3.02,0,4.19,.41,1.06,1.06,1.59,1.2,1.69,.84,.66,1.77,.75,2.29,.8,3.34,.29,6.08,.2,6.08,.2,2.97-.1,3.07,.05,5.98-.1,0,0,1.41-.07,4.78-1,.46-.13,1.32-.37,1.69-1.1,.17-.33,.18-.63,.2-1.2,.04-1.22-.28-1.51-.1-2.09,.25-.83,1.21-1.22,1.4-1.3,1.25-.51,2.83-.02,3.69,1,.87,1.03,.73,2.36,.6,3.59-.1,.99-.38,1.77-.6,2.29l4.16,3.25c3.05-1.24,5.71-1.79,7.6-2.06,1.89-.27,3.74-.54,6.18-.2,2.36,.33,4,.57,5.78,1.69,1.7,1.08,4.31,3.75,6.08,3.74,.76,0,1.09-.29,1.2-.4,.54-.55,.37-1.52,.3-1.89-.48-2.61-6.24-6.82-7.27-7.53-4.87-3.36-7.31-5.04-9.07-5.58-4.89-1.51-7.33-2.27-9.37-2.09-.38,.03-1.68,.17-2.39-.6-.35-.38-.41-.88-.5-1.69-.11-.95-.06-1.79,.05-2.48-1.38-1.17-2.76-2.33-4.13-3.5-.58,.58-1.5,1.33-2.79,1.69-1.17,.33-1.89,.12-3.89,0-1.7-.1-2.9-.06-4.78,0-2.93,.1-2.65,.36-5.18,.4-3.02,.04-4.54,.07-5.38-.1,0,0-1.14-.22-2.89,0-.64,.08-.91,.17-1.1,.4-.42,.52-.03,1.31,.2,2.49,.08,.41,.09,1.3,.1,3.09Z"
    fill="#c6c6c6" stroke="#c6c6c6" stroke-linecap="round" stroke-linejoin="round" />
  <path id="C3"
    d="M30.29,49.67c.23,.89,.08,2.32-.2,5.18-.22,2.21-.5,3.22,.2,4.19,.3,.41,.65,.64,.9,.8,1.44,.92,3.14,.68,3.79,.6,0,0,2.76-.07,8.27-.2,2.2-.05,4.38-.49,6.58-.5,.45,0,2.29,0,2.59-.8,.11-.28-.05-.47,0-1.3,.02-.35,.05-.8,.2-1.2,.38-1.01,1.46-1.44,1.59-1.5,1.06-.41,2.51-.24,3.39,.8,.66,.78,.63,1.72,.6,2.59-.05,1.62-.72,2.87-1.2,3.59,.62,.54,1.28,1.09,1.96,1.64,.72,.58,1.43,1.13,2.12,1.65,1.19-.33,1.65-.46,2.9-.8,2.87-.79,4.31-1.18,4.39-1.2,2.71-.47,6.61-.06,9.57,1.99,.22,.16,2.78,1.95,4.98,2.99,.23,.11,.81,.37,1.59,.4,.75,.02,2.04-.16,2.39-.8,.22-.39,.34-1.42-3.29-5.08-1.94-1.97-4.08-4.1-7.87-6.48-4.87-3.06-7.31-4.59-9.97-4.19-.47,.07-1.85,.34-3.59,0-1-.19-2.59-.5-3.09-1.59-.49-1.07,.15-2.44,.6-3.39,.24-.52,.51-.93,.7-1.2-1.36-.96-2.72-1.93-4.09-2.89-.5,.77-1.35,1.81-2.69,2.49-.85,.43-1.7,.64-5.58,.6-3.04-.04-5.62-.15-6.68-.2-1.63-.07-3.26-.04-4.88-.2-2.61-.25-4.47-.67-5.58,.4-.45,.44-.67,1.02-.7,1.1-.36,1-.05,1.9,.1,2.49Z"
    fill="#c6c6c6" stroke="#c6c6c6" stroke-linecap="round" stroke-linejoin="round" />
  <path id="C2"
    d="M30.99,29.83c-.33,1.3-.13,1.3-.4,5.28-.2,2.94-.38,4.01,.4,4.98,.36,.45,.82,.75,1.2,1,1.15,.75,2.24,.99,2.79,1.1,2.35,.45,4.94,.47,7.18,.6,2.35,.13,6.15,.49,8.47-.2,.7-.21,1.24-.5,1.59-1,.38-.52,.26-.84,.6-1.79,.32-.89,.57-1.59,1.2-1.99,.83-.54,2-.37,2.79,.1,.27,.16,1.13,.67,1.3,1.69,.2,1.26-.84,2.15-.9,2.19l3.99,2.79c.49-.12,1.21-.3,2.09-.5,.6-.14,3.04-.7,3.85-.83,2.27-.35,4.28,.77,7.01,2.29,4.58,2.56,5.53,4.63,7.42,4.18,1.35-.33,2.08-1.68,2.83-3.1,1.87-3.51,1.06-7.05,.81-8.09-.48-1.96-.94-3.86-2.56-4.85-2.49-1.53-6.41-.08-8.09,.54,0,0-4.26,1.57-5.62,1.21-.12-.03-.85-.25-1.53-.54-.89-.38-.17-.17-4.85-2.97-1.23-.74-2.4-1.42-2.95-2.8-.22-.55-.28-1.05-.3-1.4l-5.08-1.3c-.54,.44-1.34,.96-2.39,1.3-2.71,.86-5.09-.17-5.78-.5l-.1-2.49-12.96-1.5c-.15,.72-.4,1.8-.8,3.09-.6,1.96-.89,2.29-1.2,3.49Z"
    fill="#dadada" stroke="#dadada" stroke-linecap="round" stroke-linejoin="round" />
  <path id="C1"
    d="M28.29,5.51c-1.01,.84-.8,2.62-.7,3.49,.1,.87,.36,1.77,1.5,3.79,1.56,2.79,2.17,3.06,2.89,4.58,.52,1.11,1.1,2.85,1,5.38l12.96,2.09c1.15-.02,2.52-.05,4.29-.1,0,0,1.89-.06,2.89-.6,.57-.31,.86-.47,1.07-.77,.08-.11,.13-.21,.23-.23,.29-.05,.74,.52,.8,1.1,.04,.47-.19,.84-.3,1l4.49,1.1c0-.36,.08-1.14,.6-1.89,.72-1.05,1.83-1.33,2.09-1.4,1.44-.37,2.57,.31,4.88,1.4,2.4,1.13,3.6,1.7,4.88,2.09,1.93,.6,4.92,1.52,7.48,.1,.43-.24,1.99-1.11,2.49-2.89,.53-1.89-.33-4.07-1.79-5.08-.86-.6-1.46-.45-6.18-.4-3.59,.04-4.61-.03-5.38-.1-1.98-.19-3.26-.32-4.78-1-.9-.4-3.78-1.68-3.79-3.39,0-1.34,1.76-1.7,1.99-3.69,.04-.36,.18-1.53-.5-2.19-.86-.83-2.1,.06-4.58-.5-1.02-.23-1.66-.37-2.29-.9-1.66-1.39-1.02-3.59-2.39-4.19-.61-.26-1.47-.14-1.89,.3-.62,.63-.05,1.59-.7,2.49-.47,.67-1.28,.86-1.5,.9-1.34,.26-2.27-.9-5.18-3.09-2.61-1.97-3.55-2.3-4.49-2.39-.95-.09-2.42,.02-2.79,.8-.24,.51,.2,.88,.4,2.29,.14,.98,.28,1.98-.2,2.39-.53,.47-1.38-.18-3.49-.6-1.76-.35-3.13-.62-3.99,.1Z"
    fill="#ededed" stroke="#ededed" stroke-linecap="round" stroke-linejoin="round" />
</svg>