<svg xmlns="http://www.w3.org/2000/svg" viewBox="0 0 877.24 577.71">
  <path id="leftM2Superior" d="M777,130.34c17.38-7.16,36.43-14.2,57.09-20.71,17.46-5.5,34.17-10,50-13.77A25.91,25.91,0,0,0,875.09,61c-7.18,1.52-17.13,3.8-28.89,7.09-14.77,4.12-25.65,7.93-37.55,12.1C795.86,84.65,785.22,88.73,771.4,94c-6.47,2.48-11.82,4.57-15.5,6Z" transform="translate(-10.16 -15.14)" style="fill: #c6c6c6"/>
  <path id="leftM2Inferior" d="M777,130.34l-16.63,31.55a224.93,224.93,0,0,1,31.95,14.79,233.46,233.46,0,0,1,33.41,23c6.41,5.15,11.58,9.79,15.31,13.28.8.22,10.74,2.78,18.88-4.19,8.3-7.11,7.1-17.6,7-18.35A225,225,0,0,0,801.67,141,224.32,224.32,0,0,0,777,130.34Z" transform="translate(-10.16 -15.14)" style="fill: #c6c6c6"/>
  <path id="leftM1Bifurcation" d="M760.35,161.89,777,130.34,755.9,100c-3.6,1.49-7.56,3-11.86,4.34s-8.56,2.5-12.44,3.37q.09,23.49.17,47a118.24,118.24,0,0,1,28.58,7.18Z" transform="translate(-10.16 -15.14)" style="fill: #b2b2b2"/>
  <path id="leftM1Distal" d="M731.6,107.74q.09,23.49.17,47a202.46,202.46,0,0,0-63.32,5.62q-2.67-19.68-5.35-39.38,18.43-2.82,38.07-6.67Q716.86,111.19,731.6,107.74Z" transform="translate(-10.16 -15.14)" style="fill: #9d9d9c"/>
  <path id="leftM1Proximal" d="M663.1,121q2.67,19.7,5.35,39.38-14.78,3.07-30.33,6.82-15.82,3.84-30.64,8l-10.17-39.19q16.65-4,33.74-7.9Q647.22,124.35,663.1,121Z" transform="translate(-10.16 -15.14)" style="fill: #878787"/>
  <path id="leftACMT" d="M597.31,135.94l10.17,39.19a260.17,260.17,0,0,1-25.62,8.6c-8.87,2.45-15.9,3.87-26.7,7.9-5,1.86-9,3.61-11.67,4.83L522.29,162a111.32,111.32,0,0,1,28.63-12.24,86.89,86.89,0,0,1-10-2.56c-1.81-.58-3.53-1.2-5.15-1.83l38.59-15.94c3.36,1.21,7,2.39,10.79,3.49C589.4,134.14,593.47,135.13,597.31,135.94Z" transform="translate(-10.16 -15.14)" style="fill: #706f6f"/>
  <path id="leftA1" d="M535.76,145.36l38.59-15.94a92.52,92.52,0,0,1-17-6.91c-5.08-2.69-11.74-6.29-18.42-13.2a60.25,60.25,0,0,1-7.44-9.39l-36,4.2q7.84,13.25,15.71,26.48a85.46,85.46,0,0,0,11.4,8.27A86.25,86.25,0,0,0,535.76,145.36Z" transform="translate(-10.16 -15.14)" style="fill: #878787"/>
  <path id="leftA2" d="M495.54,104.12l36-4.2a81.3,81.3,0,0,1-13-42,77.56,77.56,0,0,1,7.22-34.07,26.88,26.88,0,0,0-36.11-3.27,110.54,110.54,0,0,0,5.88,83.5Z" transform="translate(-10.16 -15.14)" style="fill: #9d9d9c"/>
  <path id="leftACI" d="M543.49,196.46a46.21,46.21,0,0,0-10,8.37c-7.23,8.09-9.63,16.65-11.09,22.1a65.07,65.07,0,0,0-2,21.6,34.38,34.38,0,0,1-42.36-6.19,97.06,97.06,0,0,1,2.84-25.61,83.27,83.27,0,0,1,12.38-28.51,84.78,84.78,0,0,1,17.2-18.11A94.55,94.55,0,0,1,522.29,162Z" transform="translate(-10.16 -15.14)" style="fill: #575756"/>
  <path id="leftACP" d="M555.16,191.63l26.7-7.9a138,138,0,0,1,1.59,25.13,150.8,150.8,0,0,1-8.2,43.14c-4.67,13.69-10,23.22-16.21,34.33a294.47,294.47,0,0,1-17,26.9l-32.47-2.15c6.8-9.59,12.3-17.71,16.27-23.65,12.45-18.7,15.83-25.18,17.27-28,3.77-7.42,7.16-14.19,9.76-24a109.08,109.08,0,0,0,3.36-22.9A112.72,112.72,0,0,0,555.16,191.63Z" transform="translate(-10.16 -15.14)" style="fill: #878787"/>
  <path id="leftP2" d="M550,324.38q-1.9,10.94-3.79,21.87c5.46.79,11.25,1.82,17.3,3.18a222.65,222.65,0,0,1,26.65,7.74c4.47,1.61,11.55,4.33,20,8.35,6.43,3.07,12,6.11,16.66,8.85a17.49,17.49,0,0,0,10.5-20.74c-4.25-2.43-9.52-5.25-15.68-8.17a230.79,230.79,0,0,0-22.62-9.3,236.2,236.2,0,0,0-24.15-7C567.9,327.48,559.55,325.76,550,324.38Z" transform="translate(-10.16 -15.14)" style="fill: #b2b2b2"/>
  <path id="leftP1" d="M550,324.38q-1.9,10.94-3.79,21.87a182,182,0,0,0-20.88-2.41c-11-.63-20.72-1.1-32.49,1.69a82.23,82.23,0,0,0-17.42,6.27l-12.81-19.54a121.7,121.7,0,0,1,40-11.86l7-9.32L542,313.23,535,322.57Z" transform="translate(-10.16 -15.14)" style="fill: #9d9d9c"/>
  <path id="leftSCA" d="M464.09,397.05q.89-10.77,1.78-21.55c4-.75,8.91-1.56,14.65-2.2a190.16,190.16,0,0,1,69.74,5.24,17.88,17.88,0,0,1-5.16,21.55c-3.08-1.1-7-2.37-11.52-3.56a132.32,132.32,0,0,0-17.35-3.31,134.09,134.09,0,0,0-18.22-1,135.69,135.69,0,0,0-15.54,1.12A133.48,133.48,0,0,0,464.09,397.05Z" transform="translate(-10.16 -15.14)" style="fill: #dadada"/>
  <path id="leftAICA" d="M463.63,453.3q-.33-11.21-.65-22.39a122.86,122.86,0,0,1,43.11-1A123.93,123.93,0,0,1,543.48,442a14.36,14.36,0,0,1-8.4,19.48,88.13,88.13,0,0,0-28.61-10.94,86.21,86.21,0,0,0-42.84,2.72Z" transform="translate(-10.16 -15.14)" style="fill: #dadada"/>
  <path id="leftPICA" d="M524,551.27q-.48-7.86-.94-15.71c6.19-.68,11.91-1.11,17.06-1.38,4.08-.21,9.61-.41,16.17-.39,3,0,5.62.06,7.65.12a9.28,9.28,0,0,1,5.2,6.84,8.75,8.75,0,0,1-3.56,8.22c-5-.16-9.4-.15-13.06-.06-6.09.14-11.65.5-16.58,1C531.23,550.29,527.18,550.8,524,551.27Z" transform="translate(-10.16 -15.14)" style="fill: #ededed"/>
  <path id="leftV4" d="M457,499.76l14.58-16.44a117,117,0,0,0,11,9c4.54,3.25,6.27,4,14.9,9.63,5.68,3.72,8.57,5.62,10.55,7.41a46.16,46.16,0,0,1,9.72,12.75A55.29,55.29,0,0,1,523,535.56q.47,7.85.94,15.71c.09,5.24.06,10.16,0,14.74-.09,4.26-.26,9.11-.58,14.47-.18,3.13-.38,5.8-.54,7.87a22.48,22.48,0,0,1-27.64-.51c.51-7.23.84-13.32,1.05-17.88,0,0,.33-7.13.47-18.24.12-9,0-11.3-.76-14.38a37.39,37.39,0,0,0-4.79-11.29c-3.73-5.89-8.28-9.17-12.48-12.17s-5.37-3-12-7.31C462.49,503.86,459.18,501.43,457,499.76Z" transform="translate(-10.16 -15.14)" style="fill: #dadada"/>
  <path id="rightM2Superior" d="M120.58,130.34c-17.38-7.16-36.43-14.2-57.08-20.71-17.46-5.5-34.17-10-50-13.77A25.91,25.91,0,0,1,22.48,61c7.18,1.52,17.13,3.8,28.89,7.09C66.14,72.19,77,76,88.91,80.17c12.8,4.48,23.44,8.56,37.26,13.85,6.47,2.48,11.82,4.57,15.5,6Z" transform="translate(-10.16 -15.14)" style="fill: #c6c6c6"/>
  <path id="rightM2Inferior" d="M120.58,130.34q8.33,15.76,16.63,31.55a224.86,224.86,0,0,0-31.94,14.79,233.46,233.46,0,0,0-33.41,23c-6.41,5.15-11.58,9.79-15.31,13.28-.8.22-10.74,2.78-18.88-4.19-8.3-7.11-7.1-17.6-7-18.35a225.57,225.57,0,0,1,89.91-60Z" transform="translate(-10.16 -15.14)" style="fill: #c6c6c6"/>
  <path id="rightM1Bifurcation" d="M137.21,161.89q-8.31-15.78-16.63-31.55L141.67,100c3.6,1.49,7.56,3,11.86,4.34s8.56,2.5,12.43,3.37q-.08,23.49-.16,47a118.47,118.47,0,0,0-28.59,7.18Z" transform="translate(-10.16 -15.14)" style="fill: #b2b2b2"/>
  <path id="rightM1Distal" d="M166,107.74q-.08,23.49-.16,47a202.46,202.46,0,0,1,63.32,5.62q2.67-19.68,5.35-39.38-18.43-2.82-38.07-6.67Q180.71,111.19,166,107.74Z" transform="translate(-10.16 -15.14)" style="fill: #9d9d9c"/>
  <path id="rightM1Proximal" d="M234.47,121q-2.67,19.7-5.35,39.38,14.77,3.07,30.33,6.82,15.82,3.84,30.64,8l10.17-39.19q-16.67-4-33.74-7.9Q250.35,124.35,234.47,121Z" transform="translate(-10.16 -15.14)" style="fill: #878787"/>
  <path id="rightACMT" d="M300.26,135.94l-10.17,39.19a260.17,260.17,0,0,0,25.62,8.6c8.87,2.45,15.9,3.87,26.7,7.9,5,1.86,9,3.61,11.67,4.83q10.59-17.24,21.2-34.47a111.32,111.32,0,0,0-28.63-12.24,87.41,87.41,0,0,0,10-2.56c1.81-.58,3.53-1.2,5.15-1.83l-38.6-15.94c-3.35,1.21-6.95,2.39-10.78,3.49C308.17,134.14,304.1,135.13,300.26,135.94Z" transform="translate(-10.16 -15.14)" style="fill: #706f6f"/>
  <path id="rightA1" d="M361.81,145.36l-38.6-15.94a92.37,92.37,0,0,0,17-6.91c5.08-2.69,11.74-6.29,18.42-13.2a60.25,60.25,0,0,0,7.44-9.39l36,4.2q-7.84,13.25-15.71,26.48a85.46,85.46,0,0,1-11.4,8.27A86.25,86.25,0,0,1,361.81,145.36Z" transform="translate(-10.16 -15.14)" style="fill: #878787"/>
  <path id="rightA2" d="M402,104.12l-36-4.2a81.3,81.3,0,0,0,13-42,77.56,77.56,0,0,0-7.22-34.07,26.87,26.87,0,0,1,36.1-3.27,110.5,110.5,0,0,1-5.87,83.5Z" transform="translate(-10.16 -15.14)" style="fill: #9d9d9c"/>
  <path id="rightACI" d="M354.08,196.46a46.21,46.21,0,0,1,9.95,8.37c7.23,8.09,9.63,16.65,11.09,22.1a65.07,65.07,0,0,1,2,21.6,34.38,34.38,0,0,0,42.36-6.19,96.58,96.58,0,0,0-2.85-25.61,83,83,0,0,0-12.37-28.51,85,85,0,0,0-17.2-18.11A95.3,95.3,0,0,0,375.28,162Q364.67,179.22,354.08,196.46Z" transform="translate(-10.16 -15.14)" style="fill: #575756"/>
  <path id="rightACP" d="M342.41,191.63l-26.7-7.9a137,137,0,0,0-1.59,25.13,150.41,150.41,0,0,0,8.2,43.14c4.67,13.69,10,23.22,16.21,34.33a296.91,296.91,0,0,0,17,26.9L388,311.08c-6.8-9.59-12.3-17.71-16.27-23.65-12.45-18.7-15.83-25.18-17.27-28-3.77-7.42-7.16-14.19-9.76-24a109.08,109.08,0,0,1-3.36-22.9A112.72,112.72,0,0,1,342.41,191.63Z" transform="translate(-10.16 -15.14)" style="fill: #878787"/>
  <path id="rightP2" d="M347.57,324.38q1.89,10.94,3.79,21.87c-5.46.79-11.25,1.82-17.3,3.18a222.06,222.06,0,0,0-26.65,7.74c-4.47,1.61-11.55,4.33-20,8.35-6.42,3.07-12,6.11-16.65,8.85a17.47,17.47,0,0,1-10.5-20.74c4.25-2.43,9.52-5.25,15.68-8.17a230.79,230.79,0,0,1,22.62-9.3,236.2,236.2,0,0,1,24.15-7C329.67,327.48,338,325.76,347.57,324.38Z" transform="translate(-10.16 -15.14)" style="fill: #b2b2b2"/>
  <path id="rightP1" d="M347.57,324.38q1.89,10.94,3.79,21.87a182,182,0,0,1,20.88-2.41c11-.63,20.72-1.1,32.49,1.69a82.23,82.23,0,0,1,17.42,6.27L435,332.26a121.7,121.7,0,0,0-40-11.86l-7-9.32-32.48,2.15,7.08,9.34Z" transform="translate(-10.16 -15.14)" style="fill: #9d9d9c"/>
  <path id="rightSCA" d="M433.48,397.05q-.9-10.77-1.78-21.55c-4-.75-8.91-1.56-14.66-2.2a190.13,190.13,0,0,0-69.73,5.24,17.85,17.85,0,0,0,5.16,21.55c3.08-1.1,7-2.37,11.52-3.56a132.32,132.32,0,0,1,17.35-3.31,134.09,134.09,0,0,1,18.22-1,135.69,135.69,0,0,1,15.54,1.12A133.48,133.48,0,0,1,433.48,397.05Z" transform="translate(-10.16 -15.14)" style="fill: #dadada"/>
  <path id="rightAICA" d="M433.94,453.3q.31-11.21.65-22.39a122.86,122.86,0,0,0-43.11-1A123.93,123.93,0,0,0,354.09,442a14.36,14.36,0,0,0,8.4,19.48,88.18,88.18,0,0,1,28.6-10.94,86.24,86.24,0,0,1,42.85,2.72Z" transform="translate(-10.16 -15.14)" style="fill: #dadada"/>
  <path id="rightPICA" d="M373.61,551.27q.47-7.86.94-15.71c-6.19-.68-11.91-1.11-17.06-1.38-4.08-.21-9.62-.41-16.17-.39-3,0-5.62.06-7.65.12a9.28,9.28,0,0,0-5.2,6.84A8.75,8.75,0,0,0,332,549c5-.16,9.4-.15,13.05-.06,6.1.14,11.66.5,16.58,1C366.34,550.29,370.38,550.8,373.61,551.27Z" transform="translate(-10.16 -15.14)" style="fill: #ededed"/>
  <path id="rightV4" d="M440.57,499.76,426,483.32a117,117,0,0,1-11,9c-4.54,3.25-6.28,4-14.9,9.63-5.69,3.72-8.57,5.62-10.55,7.41a46.16,46.16,0,0,0-9.72,12.75,54.88,54.88,0,0,0-5.24,13.48q-.46,7.85-.94,15.71c-.09,5.24-.07,10.16,0,14.74.09,4.26.26,9.11.58,14.47.18,3.13.38,5.8.54,7.87a22.46,22.46,0,0,0,27.63-.51c-.51-7.23-.83-13.32-1-17.88,0,0-.33-7.13-.48-18.24-.11-9,0-11.3.77-14.38a37.39,37.39,0,0,1,4.79-11.29c3.73-5.89,8.28-9.17,12.48-12.17s5.37-3,12-7.31C435.08,503.86,438.38,501.43,440.57,499.76Z" transform="translate(-10.16 -15.14)" style="fill: #dadada"/>
  <path id="ACA" d="M386.32,130.6q7.86-13.23,15.71-26.48a245.68,245.68,0,0,1,93.51,0q7.84,13.25,15.71,26.48a225.1,225.1,0,0,0-124.93,0Z" transform="translate(-10.16 -15.14)" style="fill: #9d9d9c"/>
  <path id="basilarisHead" d="M422.15,351.8,435,332.26l13.82,8,13.83-8,12.81,19.54-7.58,4.28q-1,9.71-2,19.42H431.7q-1-9.71-2-19.42Z" transform="translate(-10.16 -15.14)" style="fill: #b2b2b2"/>
  <path id="basilaris" d="M426,483.32a27.58,27.58,0,0,0,5.57-8.24c1.8-4.16,2.09-7.76,2.41-11.91a59,59,0,0,0,0-9.87q.31-11.21.65-22.39l-1.11-33.86q-.9-10.77-1.78-21.55h34.17q-.89,10.77-1.78,21.55L463,430.91q.33,11.19.65,22.39a57.54,57.54,0,0,0,0,10.6c.38,4.13.72,7.71,2.63,11.85a26.5,26.5,0,0,0,5.3,7.57L457,499.76l-8.21-7.05-8.21,7.05Z" transform="translate(-10.16 -15.14)" style="fill: #c6c6c6"/>
</svg>
