<?xml version="1.0" encoding="UTF-8"?>
<svg xmlns="http://www.w3.org/2000/svg" viewBox="0 0 934.37 724.38">
  <path id="rightMetacarpal5" d="M844.82,357.91c3.56,1.32,7.65,2.84,10.07,6.83,1.96,3.24,1.79,6.42,1.44,11.87-.59,9.07-3.04,15.78-3.6,17.26-2.92,7.8-5.47,10.63-9.35,17.62-5.15,9.28-3.53,9.49-12.58,32-4.92,12.22-5.49,12.4-9.35,22.65-4.45,11.82-6.69,17.86-7.55,24.45-1.12,8.54,.2,10.87-2.16,17.26-.33,.88-5.32,14.06-12.22,14.02-3.11-.02-3.39-2.7-10.07-7.55-7.93-5.76-11.56-4.73-13.66-8.99-2.05-4.14-.5-8.88,.63-12.31,2.1-6.42,5.82-10.36,8-12.85,4.04-4.63,7.98-11.22,15.1-24.81,4.16-7.94,8.56-16.33,12.58-28.4,4.14-12.42,6.91-20.73,7.19-32.36,.22-8.98-1.22-13.2,1.08-21.93,1.45-5.49,3.55-13.49,10.07-16.18,4.97-2.05,10.26-.09,14.38,1.44Z" fill="#9d9d9c"/>
  <path id="rightMetacarpal4" d="M789.44,326.27c4.18,.78,8.91,1.65,11.51,5.39,1.18,1.7,1.49,3.37,1.44,10.43-.07,10.49-.11,15.74-1.44,19.78-1.84,5.58-3.92,6.6-7.55,12.58-1.54,2.54-4.21,7.48-8.63,24.81-3.52,13.79-2.53,13.46-6.2,29.3-3.21,13.87-5.31,19.88-6.74,31.82-1.22,10.18-.7,14.14-.27,16.45,1.2,6.45,3.2,8.2,2.7,13.21-.08,.8-1.06,9.36-7.42,12.67-2.07,1.08-5,1-10.79,.81-7.47-.25-11.24-.42-13.48-2.43-3.41-3.06-3.57-8.09-3.64-10.52-.09-2.81,.46-4.25,2.16-10.79,.95-3.67,1.76-7.38,2.7-11.06,2.51-9.79,1.85-7.61,4.67-18.61,2.03-7.93,1.96-7.27,5.76-22.11,5.15-20.12,5.18-19.49,6.11-24.09,2.67-13.16,4.01-19.74,3.6-28.04-.54-10.81-3.09-12.85-1.44-20.85,.5-2.41,2.61-7.12,6.83-16.54,3.75-8.37,4.89-10.16,7.19-11.51,4.06-2.37,8.64-1.52,12.94-.72Z" fill="#9d9d9c"/>
  <path id="rightProximalPhalanx5" d="M890.48,261.02c1.39,.81,6.75,3.95,7.55,9.44,.22,1.55,.1,3.35-2.16,8.63-2.93,6.86-6.06,11.64-6.2,11.87-1.25,1.92-1.27,2.19-9.71,23.19-7.73,19.25-8.02,19.77-8.36,22.38-.81,6.29,.01,9.93-2.7,15.91-.98,2.16-4.12,9.09-8.9,9.44-2.74,.2-3.25-1.97-9.44-5.39-2.37-1.31-6.49-3.59-11.87-4.58-5.8-1.07-7.5,.39-9.44-1.35-3.04-2.73-1.94-9.11-.54-12.94,2.14-5.84,6-8.54,10.52-12.67,8.85-8.11,13.97-16.05,17.53-21.57,3.19-4.96,9-13.95,11.33-23.73,.9-3.77,2.09-7.47,3.12-11.21,1.7-6.15,1.94-7.15,3.08-8.21,3.85-3.56,11.53-1.91,16.18,.81Z" fill="#c6c6c6"/>
  <path id="rightMiddlePhalanx5" d="M903.69,260.27c-1.16,.57-2.52,.72-7.28-.54-4.97-1.31-8.18-2.16-12.4-4.58-5.3-3.04-8.28-4.75-8.63-7.55-.36-2.85,2.31-4.34,7.01-9.98,4.61-5.53,7.93-9.51,9.44-14.83,2.15-7.57-1.45-10.46,1.89-16.99,.78-1.53,2.95-5.78,6.74-6.47,2.75-.5,3.66,1.37,9.98,3.78,5.92,2.25,7.93,1.68,9.17,3.78,1.3,2.2,.37,4.98-.81,8.36-1.76,5.03-3.52,6.32-5.93,10.79-1.57,2.9-4.42,8.16-4.85,14.83-.36,5.55,1.24,7.51-.27,12.94-.62,2.21-1.49,5.21-4.04,6.47Z" fill="#dadada"/>
  <path id="rightDistalPhalanx5" d="M926.34,153.02c.47,0,4.22,.11,6.47,2.97,2.73,3.47,1.16,8.34,.54,10.25-1.38,4.28-3.27,4.41-5.93,9.17-.71,1.27-3.39,6.29-3.78,12.67-.47,7.72,2.77,11.7,.54,13.75-1.28,1.17-3.32,.77-7.28,0-1.55-.3-5.77-1.26-10.79-4.58-4.09-2.71-6.42-4.25-6.47-6.47-.05-2.28,2.36-2.92,7.01-7.82,3.49-3.68,5.5-5.8,6.74-9.17,1.52-4.13,.16-5.44,2.16-11.06,.77-2.16,1.47-4.05,3.24-5.93,1.02-1.09,3.6-3.83,7.55-3.78Z" fill="#ededed"/>
  <path id="rightProximalPhalanx4" d="M811.47,325.28c-1.07,1.79-3.36,5.62-6.47,5.66-2.51,.03-3.06-2.44-7.01-4.85-4.68-2.86-9.74-2.93-11.87-2.97-6.04-.09-7.58,2.03-11.06,.54-3.71-1.59-5.18-5.37-5.39-5.93-.85-2.28-1-5.16,1.08-10.52,2.79-7.19,5.88-9.27,9.17-14.56,2.87-4.62,4.07-10.09,6.47-21.03,1.16-5.28,.99-5.61,3.51-21.57,3.27-20.74,3.57-20.28,3.78-25.08,.21-4.88,.07-9.27,1.08-16.72,.77-5.68,1.76-9.83,4.85-13.48,1.2-1.42,3-3.48,5.93-4.31,2.75-.78,4.44,.11,10.52,1.62,8.67,2.16,8.73,1.23,10.25,2.43,5.66,4.46,3.34,16.18,2.7,19.42-1.32,6.65-3.28,8-5.93,15.1-2.18,5.84-2.15,8.39-4.31,24.27-3.41,25.08-3.91,21.86-4.04,28.04-.13,5.83,.33,8.23,.54,28.04,.03,2.93,.02,9.56-3.78,15.91Z" fill="#c6c6c6"/>
  <path id="rightMiddlePhalanx4" d="M835.6,168.2c.41,9.81,2.27,13.2-.27,17.53-.24,.41-2.5,4.14-6.74,5.39-1.12,.33-2.57,.55-8.9-.81-5.44-1.17-8.68-1.89-12.94-3.78-4.68-2.07-7.02-3.11-8.09-5.39-.87-1.86-.82-4.22,1.89-10.79,3.23-7.82,5.61-9.8,9.17-16.72,.65-1.26,3.65-7.19,5.93-15.37,1.83-6.55,3.15-11.3,3.24-17.8,.04-3.3-.24-6.19,1.08-10.25,.98-3.02,2.01-6.18,4.58-7.28,3.52-1.51,5.39,2.76,13.75,4.31,4.67,.87,7.53,.18,9.17,2.43,.29,.4,.93,1.42,.81,4.85-.17,4.98-1.73,8.8-2.7,11.06-2.58,6-3.48,6.73-5.12,10.52-3.01,6.9-3.69,12.92-4.31,18.34-.27,2.32-.81,7.26-.54,13.75Z" fill="#dadada"/>
  <path id="rightDistalPhalanx4" d="M852.32,50.63c3.27,.5,6.05,2.59,7.55,5.12,2.92,4.93,.68,11.07-1.08,15.91-2.76,7.58-5.17,7.14-5.93,12.67-.58,4.22-.11,11.11,0,12.67,.22,3.25,.53,5.23-.81,6.74-1.42,1.59-3.85,1.73-6.47,1.89-.8,.05-2.93,.13-6.2-.54-2.35-.48-5.75-1.2-9.44-3.51-2.62-1.64-5.82-3.64-5.93-6.47-.07-1.84,1.2-3.16,2.43-4.58,0,0,5.63-6.56,8.63-14.29,2.07-5.33,.16-5.67,2.7-13.21,2.19-6.5,4.37-8.52,5.12-9.17,1.02-.88,4.62-3.97,9.44-3.24Z" fill="#ededed"/>
  <path id="rightMetacarpal3" d="M732.73,458.49c.23,6.51,.36,10.43,1.35,15.91,1.07,5.98,2.12,8.06,2.97,14.56,.92,7.05,1.38,10.58-.27,12.94-.78,1.13-2.45,2.82-16.99,4.31-13.34,1.37-15.41,.31-16.72-.81-3.34-2.86-3.51-7.71-3.64-11.33-.28-7.89,2.56-12.11,4.72-19.15,1.12-3.63,.97-4.49,2.29-23.46,1.7-24.35,1.81-20.33,2.29-30.88,.2-4.28,.4-13.46,.81-31.82,.22-9.72,.32-15.69-.67-23.87-.89-7.32-1.34-10.97-3.37-15.78-2.17-5.14-4.12-6.8-5.12-11.87-.78-3.96-.38-6.97,.27-11.6,1.37-9.7,2.06-14.55,5.93-18.07,3.85-3.49,8.71-3.85,15.1-4.31,5.04-.37,9.06-.66,12.94,1.62,3.78,2.22,5.28,5.61,7.82,11.6,2.16,5.09,5.4,12.7,4.85,22.65-.34,6.3-1.81,6.36-4.31,16.99-.88,3.73-1.54,7.3-3.51,25.08-1.74,15.72-1.46,15.29-2.7,26.16-1.95,17.12-2.68,18.47-3.51,29.8-.72,9.91-.71,16.33-.54,21.3Z" fill="#9d9d9c"/>
  <path id="rightProximalPhalanx3" d="M744.59,278.36c.5,2.28,1.47,6.67,1.35,12.4-.09,4.3-.72,6.13-1.89,7.55-2.04,2.48-5.15,2.98-6.74,3.24-4.51,.73-5.39-1.16-11.06-1.35-2.07-.07-4.88,.4-10.52,1.35-6.91,1.16-7.51,1.65-9.17,1.08-4.53-1.55-6.35-7.34-7.01-9.44-.44-1.41-1.7-5.91,0-13.75,1.68-7.78,4.15-9.01,7.01-16.99,2.3-6.41,2.81-11.45,3.51-18.34,.79-7.85-.04-8.05,.27-22.11,.12-5.34,.43-14.01,.81-22.11,.35-7.45,.57-10.43-.27-15.1-.84-4.65-1.75-5.55-2.16-10.25-.38-4.34-.73-9.12,2.16-13.21,1.66-2.36,3.72-3.54,5.12-4.31,6.63-3.68,13.62-2.11,16.99-1.35,4.12,.93,6.89,1.55,9.17,4.04,3.46,3.78,3.32,9.17,3.24,12.67-.12,4.78-1.34,8.33-1.62,9.17-2.24,6.71-1.03,9.17-2.16,36.67-.29,7.1-.71,15.16-1.08,28.31-.19,6.62-.22,9.46,.27,13.48,.15,1.27,.39,2.92,3.78,18.34Z" fill="#c6c6c6"/>
  <path id="rightMiddlePhalanx3" d="M745.8,133.95c1.47,4.97,3.46,7.25,3.24,12.4-.07,1.55-.3,6.96-3.51,8.63-1.8,.94-3.16-.02-8.63-1.35-4.54-1.1-8.26-2.01-12.4-1.89-6.62,.19-9.04,2.85-10.79,1.35-1.18-1.02-1.42-3.39,1.62-12.94,3.35-10.54,4.85-11.48,6.74-18.07,2.43-8.46,2.45-15.55,2.43-20.22-.03-5.49-.24-10.31-1.89-16.45-2.19-8.15-1.91-9.24-1.89-10.52,.05-2.8,.1-5.83,2.12-7.87,.63-.64,2.06-1.78,11.33-1.62,10.12,.17,11.79,1.59,12.58,2.52,1.12,1.32,1.35,2.71,1.74,5.08,.77,4.68-.3,7.88-1.08,12.67-.21,1.27-.5,4.53-1.08,11.06-.8,8.93-1.01,15.95-1.08,18.88-.24,10.19-.36,15.28,.54,18.34Z" fill="#dadada"/>
  <path id="rightDistalPhalanx3" d="M736.64,.74c3.49,1.32,5.25,4.04,5.93,5.12,.89,1.42,2.41,4.43,1.89,13.75-.46,8.09-1.7,7.57-1.62,12.94,.07,4.33,.15,10.02,3.51,15.37,2.18,3.48,4.53,4.9,4.58,8.36,0,.52,0,3.58-2.16,5.39-1.05,.88-2.32,1.22-5.12,1.35-3.94,.17-5.83-.31-8.9-.54-7.39-.55-9.7,1.29-12.13-.81-1.74-1.5-2.07-3.72-2.16-4.31-.48-3.24,1.42-5.15,2.97-8.9,1.59-3.86,1.73-7.08,1.89-10.79,.13-3.08-.45-6.59-1.62-13.48-1.44-8.51-1.95-9.29-1.62-12.13,.31-2.64,.95-8.18,5.39-10.79,4.07-2.39,8.63-.74,9.17-.54Z" fill="#ededed"/>
  <path id="rightMetacarpal2" d="M688.91,470.71c4.79,10.13,7.04,11.84,7.82,17.39,.28,1.98-.03,1.72,.34,5.67,.43,4.57,.96,6.07,.25,8.3-.76,2.38-2.37,3.85-2.7,4.13-2.45,2.16-4.36,1.38-11.33,3.24-2.69,.72-2.72,.92-5.57,1.62-2.35,.58-4.44,1.08-7.19,1.26-1.11,.07-3.28,.2-5.93-.18-2.18-.31-5.84-.84-8.27-2.7-1.12-.86-4.01-3.54-3.96-14.92,.03-6.88,1.09-6.99,2.29-17.35,.6-5.16,1.47-15.38,.81-28.31-.14-2.69-.38-5.88-4.31-33.71-3.91-27.68-2.77-18.08-3.78-25.75-1.31-10.03-1.88-15.92-4.31-24.67-1.95-7-3-10.57-5.66-14.56-3.34-5-5.91-5.96-7.55-10.79-1.13-3.33-.93-6-.54-11.33,.53-7.15,.87-11.79,4.04-16.72,.76-1.18,3.78-5.64,9.71-8.63,1.12-.57,5.39-2.61,11.33-2.7,2.43-.04,9.22-.14,15.1,4.31,4.94,3.74,6.58,8.67,8.9,15.64,1.43,4.29,3.04,9.14,2.43,15.37-.5,5.09-1.97,5.83-2.97,11.87-.83,5.02-.35,7.81,0,14.29,.29,5.43-.08,2.77,0,22.11,.05,11.81,.07,17.71,.27,22.65,.17,4.17,.64,14.28,2.16,27.24,.95,8.08,1.5,12.68,2.97,19.15,1.68,7.41,2.84,12.09,5.66,18.07Z" fill="#9d9d9c"/>
  <path id="rightProximalPhalanx2" d="M648.95,175.62c.85,7.5,.93,12.76,.85,16.18-.03,1.35,.93,7.91,2.43,21.03,.89,7.81,1.67,14.52,3.01,23.1,2.21,14.08,3.7,18.8,4.31,20.67,.97,2.93,3.59,8.7,6.47,14.74,1.95,4.08,3.12,6.25,4.04,9.98,1.08,4.37,2.39,9.28-.18,12.22-1.35,1.55-3.3,2.03-5.29,2.52-3.1,.76-5.07,.31-7.73,.18-.7-.04-7.31-.31-13.66,2.16-4.92,1.91-5.04,3.66-9.35,4.49-1.78,.34-5.24,1.01-8.55-.72-5.3-2.77-6.04-9.49-6.11-10.25,.2-3.88,.68-9.92,1.98-17.26,1.65-9.36,2.92-11.09,3.42-17.26,.55-6.87-.59-10.04-2.34-21.39-1.81-11.77-1.13-12.9-2.7-23.37-1.2-8.03-1.83-12.12-3.15-16-1.09-3.2-2.13-5.35-3.11-8.52-.36-1.17-.68-2.3-1.03-3.88-1.44-6.56-.9-10.79-.71-12.04,.15-1.02,.23-1.52,.36-1.8,1.68-3.46,8.11-2.02,16.9-3.06,10.77-1.27,13.85-4.91,17.08-2.52,1.06,.79,2.08,2.18,3.05,10.79Z" fill="#c6c6c6"/>
  <path id="rightMiddlePhalanx2" d="M627.29,86.82c-.07,1.3,.43,5.48,1.44,13.84,1,8.37,1.51,12.55,2.7,16.9,2.53,9.25,6.77,16.75,7.37,17.8,3.07,5.35,5.3,7.69,6.47,13.12,.69,3.21,1.51,6.97-.54,9.71-1.06,1.42-4.42,2.44-11.15,4.49-1.82,.56-3.31,.91-5.39,1.26-4.49,.76-8.17,.71-8.17,.71-1.86-.01-4.63-.05-8.09-.9-2.84-.7-4.25-1.04-5.13-2.15-1.64-2.06-.53-5.05,.18-8.63,.39-1.98,.62-6.11,1.08-14.38,.17-3.09,.5-9.63-.72-17.8-.94-6.27-1.66-11.15-4.49-16.9-.73-1.49-2.34-4.53-5.03-10.07-1.9-3.92-2.68-5.96-2.7-8.27,0-.75-.02-3.88,1.9-6.3,2.09-2.64,4.55-2.03,14.2-3.78,7.54-1.37,10-2.46,12.4-.72,1.72,1.24,2.49,3.27,2.96,4.51,1.2,3.16,.8,5.9,.72,7.55Z" fill="#dadada"/>
  <path id="rightDistalPhalanx2" d="M614.89,51.13c1.01,3.79,1.67,6.26,3.78,8.63,2.23,2.5,4.27,2.85,4.67,5.09,.38,2.16-1.05,4.01-1.25,4.26-1.24,1.54-2.91,1.95-5.85,2.6-10.11,2.23-8.04,1.37-14.29,2.62-1.34,.27-3.3,.69-5.75,.18-1.36-.28-3.36-.7-4.13-2.16-.76-1.42,.21-2.85,1.26-5.93,1.23-3.62,1.68-6.43,2.16-9.35,.41-2.51,.84-5.31,.54-8.99-.23-2.85-.81-5.01-1.08-5.93-.79-2.73-1.51-3.72-2.34-5.75-.8-1.97-2.63-6.48-1.8-11.51,.22-1.35,.96-5.79,4.85-8.99,.82-.67,4.78-3.92,9.71-2.88,4.72,1,7.06,5.24,7.73,6.47,2.43,4.42,1.99,9.2,1.44,15.28-.3,3.32-.71,4.15-.72,7.37-.01,4.79,.88,8.23,1.08,8.99Z" fill="#ededed"/>
  <path id="rightMetacarpal1" d="M624.22,482.12c4.52,4.22,8.12,7.58,13.84,10.61,3.4,1.8,6.15,2.74,8.81,5.93,2.4,2.88,3.74,5.66,4.31,7.37,.81,2.4,1.58,4.67,.99,7.28-.7,3.11-2.94,4.92-6.61,7.82-3.27,2.58-5.93,4.06-9.98,6.2-6.43,3.41-8.94,3.9-9.82,4.06-2.68,.47-5.79,1.01-8.24-.69-1.71-1.18-1.9-2.66-3.73-6.7-1.31-2.88-2.84-5.65-4.31-8.45-2.97-5.61-5.53-9.65-8.09-13.66-13.56-21.26-12.56-19.57-13.66-21.39-7.88-13.06-7.98-15.72-14.74-25.89-4.28-6.44-6.76-8.76-10.61-14.2-1.66-2.35-3.3-4.73-4.85-8.18-1.87-4.14-3.4-7.53-2.88-11.51,.65-4.94,4.1-8.1,6.83-10.61,5.87-5.38,12.31-6.61,17.26-7.55,4.98-.95,9.04-1.66,11.69,.72,1.75,1.58,2.18,3.88,2.7,6.65,.77,4.14-.08,5.86,.18,10.07,.09,1.38,.3,3.18,1.98,8.81,1.38,4.64,2.93,9.84,6.11,17.26,2.19,5.11,5.16,11.94,10.43,20.13,3.98,6.19,6.96,10.83,12.4,15.91Z" fill="#9d9d9c"/>
  <path id="rightProximalPhalanx1" d="M581.44,386.58c-3.51-3.81-6.18-5.57-8.63-7.55-2.58-2.09-5.62-5.89-11.69-13.48-6.08-7.61-9.12-11.42-11.87-16-4.1-6.86-6.16-10.29-6.47-14.2-.44-5.49,1.62-8.71-.54-14.2-.56-1.42-1.49-3.73-3.78-5.57-4.32-3.5-9.97-2.52-12.04-2.16-2.12,.37-8.63,1.5-11.15,6.47-1.02,2.02-1.46,4.84,1.26,12.76,3.09,8.98,5.93,11.99,10.61,21.21,2.11,4.16,4.1,9.13,8.09,19.06,4.17,10.39,6.26,15.58,6.83,18.52,1.2,6.12,2.06,9.35,3.78,15.82,.98,3.69,2.01,6.71,4.13,7.19,1.78,.4,3.76-1.13,5.67-2.61,2.09-1.62,3.22-3.1,3.96-3.96,3.55-4.11,8.56-5.64,11.59-6.56,4.72-1.44,7.77-1,12.86-3.69,.93-.49,1.84-1.04,2.24-2.07,.39-1,.53-3.15-4.85-8.99Z" fill="#c6c6c6"/>
  <path id="rightDistalPhalanx1" d="M527.51,297.5c3.88,2.69,5.95,4.52,6.47,7.19,.13,.69,.41,2.11-.36,3.24-1.06,1.55-3.24,1.24-6.47,1.8,0,0-4.07,.7-7.73,2.7-4.88,2.66-5.47,5.7-8.38,5.58-1.87-.08-3.61-1.41-4.38-2.88-1.08-2.07,.12-3.74,.36-6.65,.29-3.5-1.07-6.11-3.78-11.33-2.15-4.14-4.28-6.87-6.65-9.89-4.93-6.26-10.11-11.38-10.79-12.04-5.61-5.52-7.61-6.49-8.45-9.89-.76-3.07-.42-7.5,2.16-8.99,2.6-1.5,6.31,.68,7.91,1.62,4.91,2.89,5.41,6.2,9.71,11.33,5.17,6.18,6.48,3.82,12.22,10.25,5.74,6.43,4.91,9.32,10.43,13.12,2.06,1.42,3.45,1.9,7.73,4.85Z" fill="#ededed"/>
  <path id="rightTrapezium" d="M652.93,517.88c.72-.7,2.2-2.14,4.45-2.56,2.37-.44,5.37,.3,6.88,2.29,1.21,1.6,.84,3.17,.67,7.15-.05,1.28-.26,7.13,.54,12.54,.6,4.05,1.03,6.96,2.83,10.38,1.61,3.05,2.96,3.95,2.7,5.8-.43,3.04-4.7,4.76-6.61,5.53-4.61,1.86-8.8,1.42-11.73,1.08-1.39-.16-5.29-.71-9.84-2.83-3.8-1.77-6.15-3.74-8.76-5.93-4.5-3.77-6.76-5.73-7.42-9.03-.13-.68-.66-3.31,.67-5.8,.99-1.85,2.37-2.45,7.69-5.12,4.77-2.4,7.19-3.62,8.9-4.72,3.6-2.32,5.4-3.47,6.88-5.8,.58-.91,1.01-1.85,2.16-2.97Z" fill="#878787"/>
  <path id="rightTrapezoideum" d="M672.53,515.26c3.34-.97,5.93-1.64,6.88-1.89,4.63-1.23,4.08-1.72,6.74-2.16,2.74-.45,5.72-.93,8.09,.81,2.28,1.67,2.78,4.49,2.97,5.53,.41,2.28-.21,3.27-.67,6.88-.2,1.59-.23,3.76-.27,8.09-.06,5.71-.09,8.57,.27,9.84,.64,2.28,1.51,3.6,.81,5.12-.65,1.41-2.21,2.03-3.24,2.43-2.21,.86-3.15,.38-6.07,.67-4.21,.43-4.45,1.66-7.96,1.62-1.45-.02-3.19-.06-4.99-1.08-1.91-1.08-2.84-2.67-3.78-4.31-.41-.72-1.63-2.96-2.56-7.55-.52-2.57-.66-4.77-.94-9.17-.08-1.2-.32-4.21-.13-8.09,.13-2.71,.38-4.16,1.45-5.25,.65-.66,1.31-.88,3.4-1.49Z" fill="#878787"/>
  <path id="rightScaphoid" d="M697.34,558.46c-.28-1.13-.95-3.87-3.1-4.85-1.09-.5-2.25-.41-4.18-.27-.94,.07-1.76,.2-3.37,.54-1.9,.41-3.2,.75-6.88,1.75-3.46,.94-3.91,1.07-4.72,1.35-1.91,.66-3,1.19-4.31,1.75-2.96,1.28-5.27,1.98-8.49,2.97-5.81,1.77-6.95,1.57-8.36,3.1-1.73,1.89-1.93,4.31-2.02,5.39-.12,1.51-.19,5.9,5.66,12.94,1.66,1.99,4.48,5.04,13.35,11.06,4.32,2.93,8.92,6.03,15.78,9.57,6.93,3.58,13.02,6.68,21.57,8.36,6.53,1.29,11.42,2.17,15.37-.81,4.24-3.2,4.67-8.79,4.72-9.57,.04-.6,.3-6.07-3.51-10.11-2.57-2.74-4.37-2.01-10.11-4.72-2.76-1.3-8.05-3.86-12.4-9.03-2.76-3.28-5.56-6.6-5.53-11.06,.02-3.13,1.42-4.74,.54-8.36Z" fill="#878787"/>
  <path id="rightCapitate" d="M745.33,512.7c-.4-1.23-1.66-4.35-4.72-5.93-1.96-1.01-3.8-.9-7.69-.4-5.85,.74-8.75,1.37-12,1.89-9.48,1.49-10.89,.23-14.43,2.43-.72,.45-4.16,2.67-5.93,6.88-.8,1.9-.95,4.17-1.21,8.63-.17,2.81-.31,5.31-.13,8.63,.32,5.98,1.25,6.17,1.75,12.27,.18,2.17,.48,6.07,0,11.06-.47,4.84-1.15,5.31-.81,7.82,.57,4.16,3,6.98,5.12,9.44,2,2.32,5.46,6.33,11.46,7.96,1.83,.5,5.52,1.5,9.57,.13,2.63-.89,3.63-2.17,9.44-8.36,7.84-8.35,8.53-8.69,9.03-10.65,1.05-4.1-1.37-5.1-2.97-13.21-.69-3.51-2.04-10.36-.2-18.07,.84-3.54,2-5.76,3.51-12.67,.68-3.11,1.02-5.29,.2-7.82Z" fill="#878787"/>
  <path id="rightHamate" d="M795.62,524.63c-.42-1.03-1.51-3.33-4.99-6.34-1.8-1.55-5.3-4.2-10.65-6.07-4.49-1.56-8.01-1.79-12.27-2.02-8.54-.47-15.08-.83-17.93,2.97-1.1,1.46-.28,1.72-1.89,7.69-1.38,5.11-2.08,5.3-3.24,9.84-1.22,4.81-1.43,8.54-1.48,9.57-.07,1.49-.16,5,.54,9.44,.83,5.23,2.34,9.12,3.1,10.92,1.76,4.15,2.84,6.7,5.39,9.17,.56,.54,6.85,6.47,11.73,4.45,.57-.24,2.16-1.01,5.12-7.69,2.73-6.13,2.29-7.49,4.31-12.13,1.52-3.48,3.6-8.11,8.09-11.87,2.63-2.2,3.16-1.64,8.53-5.6,4.97-3.66,6.27-5.44,6.58-7.48,.28-1.88-.37-3.45-.94-4.85Z" fill="#878787"/>
  <path id="rightPisiforme" d="M815.75,538.99c-2.47-3.74-6.2-5.03-6.88-5.26-2.59-.86-4.84-.71-6.07-.54,.37,2.45,.78,5.87,.94,9.98,.18,4.38,.01,7.91-.27,11.87-.38,5.31-1.1,13.16-2.56,23.19,2.58-.88,6.78-2.73,10.65-6.61,1.71-1.72,5.99-6.12,7.18-12.93,.5-2.87,.1-5.74-.71-11.47-.81-5.74-1.7-7.33-2.29-8.22Z" fill="#878787"/>
  <path id="rightTriquetrum" d="M797.68,581.73c-.4,2.16-1.14,5.82-3.91,9.17-1.18,1.42-1.98,2.39-3.35,2.83-.94,.3-3.36,.5-12.81-7.28-5.6-4.62-8.41-6.92-8.75-10.34-.25-2.46,.95-2.46,3.76-10.96,1.28-3.87,1.31-4.75,2.7-8.36,.89-2.33,1.88-4.89,3.64-7.55,.58-.88,1.88-2.81,4.02-4.72,2.39-2.14,3.94-2.56,6.74-4.18,6.75-3.9,7.74-7.21,9.44-6.61,2.04,.72,1.93,6.06,1.62,16.72-.12,4.02-.35,7.23-.81,13.48-.15,2.1-.7,9.26-2.29,17.8Z" fill="#878787"/>
  <path id="rightLunate" d="M785.04,598.91c-.62-2.63-2.17-4.26-3.64-5.8-1.47-1.54-2.13-1.76-5.66-4.31-.36-.26-3.7-2.69-7.15-5.53-4.8-3.96-4.21-4.12-6.2-5.26-4.42-2.53-5.84-.9-8.63-3.37-2.19-1.93-2.5-3.98-5.12-4.85-.47-.16-1.72-.56-3.1-.13-1.16,.35-1.84,1.12-2.43,1.75-1.37,1.5-2.89,2.87-4.18,4.45-1.75,2.15-3.6,3.95-7.28,7.55-2.82,2.75-3.46,3.17-3.78,4.45-.47,1.93,.47,3.16,1.89,6.61,2.19,5.31,1.33,5.73,3.24,10.11,1.51,3.48,2.62,6.04,4.72,7.96,2.41,2.19,5.05,2.56,20.76,2.16,10.81-.28,13.86-.56,17.8-2.29,6.04-2.65,7.64-5.84,8.09-6.88,.47-1.08,1.37-3.63,.67-6.61Z" fill="#878787"/>
  <path id="rightRadius" d="M741.89,724.38c-.04-8.18-.03-15.68,0-22.38,.1-20.8,.39-23.31,1.62-26.97,3.02-8.95,6.52-9.44,8.9-19.69,.05-.23,.66-5.1,1.89-14.83,.66-5.28,1.39-8.58,.27-12.94-.57-2.21-1.24-4.83-3.39-6.81-2.98-2.73-6.85-2.43-12.79-2.36,0,0-8.12,.09-20.49-.81-5.24-.38-10.89-.79-18.07-2.7-3.49-.93-10.07-2.72-17.53-7.01-6.27-3.6-14.37-10.5-15.37-11.33-3.05-2.52-5.91-5.05-10.25-5.39-1.02-.08-4.67-.37-7.01,1.89-2.54,2.44-2.13,6.55-1.81,9.7,1.61,15.48,5.04,22.93,5.04,22.93,13.58,29.45,17.27,29.8,20.49,42.34,2.54,9.87,2.49,18.38,2.43,30.74-.06,10.44-.97,19.2-1.89,25.62h67.96Z" fill="#706f6f"/>
  <path id="rightUlna" d="M801.49,724.11c.23-10.39,.14-18.89,0-24.81-.14-6.18-.36-10.86-.54-21.03-.27-15.13-.04-18.09,.81-21.84,.9-3.99,1.15-2.91,5.39-15.37,4.33-12.72,4.7-15.71,4.85-17.26,.68-6.88-.42-11.76-1.35-15.91-1.21-5.37-2.01-8.76-4.31-9.44-3.44-1.01-8.2,4.58-9.82,6.5-2.96,3.48-2.56,4.73-5.28,6.99-3.06,2.54-6.42,3.32-8.36,3.78-2.09,.49-2.23,.24-9.71,.81-5.66,.43-6.54,.65-7.55,1.08-.73,.31-4.33,1.83-6.2,5.39-1.11,2.11-1.05,3.88-.54,9.98,.67,7.97,1,11.96,1.35,13.48,1.49,6.54,3.29,7.83,5.12,13.21,1.77,5.21,1.74,10.19,1.62,19.96-.14,10.82-1.14,14.59-1.89,27.24-.44,7.44-.53,13.48-.54,17.26h36.94Z" fill="#706f6f"/>
  <path id="leftMetacarpal5" d="M89.55,357.91c-3.56,1.32-7.65,2.84-10.07,6.83-1.96,3.24-1.79,6.42-1.44,11.87,.59,9.07,3.04,15.78,3.6,17.26,2.92,7.8,5.47,10.63,9.35,17.62,5.15,9.28,3.53,9.49,12.58,32,4.92,12.22,5.49,12.4,9.35,22.65,4.45,11.82,6.69,17.86,7.55,24.45,1.12,8.54-.2,10.87,2.16,17.26,.33,.88,5.32,14.06,12.22,14.02,3.11-.02,3.39-2.7,10.07-7.55,7.93-5.76,11.56-4.73,13.66-8.99,2.05-4.14,.5-8.88-.63-12.31-2.1-6.42-5.82-10.36-8-12.85-4.04-4.63-7.98-11.22-15.1-24.81-4.16-7.94-8.56-16.33-12.58-28.4-4.14-12.42-6.91-20.73-7.19-32.36-.22-8.98,1.22-13.2-1.08-21.93-1.45-5.49-3.55-13.49-10.07-16.18-4.97-2.05-10.26-.09-14.38,1.44Z" fill="#9d9d9c"/>
  <path id="leftMetacarpal4" d="M144.93,326.27c-4.18,.78-8.91,1.65-11.51,5.39-1.18,1.7-1.49,3.37-1.44,10.43,.07,10.49,.11,15.74,1.44,19.78,1.84,5.58,3.92,6.6,7.55,12.58,1.54,2.54,4.21,7.48,8.63,24.81,3.52,13.79,2.53,13.46,6.2,29.3,3.21,13.87,5.31,19.88,6.74,31.82,1.22,10.18,.7,14.14,.27,16.45-1.2,6.45-3.2,8.2-2.7,13.21,.08,.8,1.06,9.36,7.42,12.67,2.07,1.08,5,1,10.79,.81,7.47-.25,11.24-.42,13.48-2.43,3.41-3.06,3.57-8.09,3.64-10.52,.09-2.81-.46-4.25-2.16-10.79-.95-3.67-1.76-7.38-2.7-11.06-2.51-9.79-1.85-7.61-4.67-18.61-2.03-7.93-1.96-7.27-5.76-22.11-5.15-20.12-5.18-19.49-6.11-24.09-2.67-13.16-4.01-19.74-3.6-28.04,.54-10.81,3.09-12.85,1.44-20.85-.5-2.41-2.61-7.12-6.83-16.54-3.75-8.37-4.89-10.16-7.19-11.51-4.06-2.37-8.64-1.52-12.94-.72Z" fill="#9d9d9c"/>
  <path id="leftProximalPhalanx5" d="M43.89,261.02c-1.39,.81-6.75,3.95-7.55,9.44-.22,1.55-.1,3.35,2.16,8.63,2.93,6.86,6.06,11.64,6.2,11.87,1.25,1.92,1.27,2.19,9.71,23.19,7.73,19.25,8.02,19.77,8.36,22.38,.81,6.29-.01,9.93,2.7,15.91,.98,2.16,4.12,9.09,8.9,9.44,2.74,.2,3.25-1.97,9.44-5.39,2.37-1.31,6.49-3.59,11.87-4.58,5.8-1.07,7.5,.39,9.44-1.35,3.04-2.73,1.94-9.11,.54-12.94-2.14-5.84-6-8.54-10.52-12.67-8.85-8.11-13.97-16.05-17.53-21.57-3.19-4.96-9-13.95-11.33-23.73-.9-3.77-2.09-7.47-3.12-11.21-1.7-6.15-1.94-7.15-3.08-8.21-3.85-3.56-11.53-1.91-16.18,.81Z" fill="#c6c6c6"/>
  <path id="leftMiddlePhalanx5" d="M30.68,260.27c1.16,.57,2.52,.72,7.28-.54,4.97-1.31,8.18-2.16,12.4-4.58,5.3-3.04,8.28-4.75,8.63-7.55,.36-2.85-2.31-4.34-7.01-9.98-4.61-5.53-7.93-9.51-9.44-14.83-2.15-7.57,1.45-10.46-1.89-16.99-.78-1.53-2.95-5.78-6.74-6.47-2.75-.5-3.66,1.37-9.98,3.78-5.92,2.25-7.93,1.68-9.17,3.78-1.3,2.2-.37,4.98,.81,8.36,1.76,5.03,3.52,6.32,5.93,10.79,1.57,2.9,4.42,8.16,4.85,14.83,.36,5.55-1.24,7.51,.27,12.94,.62,2.21,1.49,5.21,4.04,6.47Z" fill="#dadada"/>
  <path id="leftDistalPhalanx5" d="M8.03,153.02c-.47,0-4.22,.11-6.47,2.97-2.73,3.47-1.16,8.34-.54,10.25,1.38,4.28,3.27,4.41,5.93,9.17,.71,1.27,3.39,6.29,3.78,12.67,.47,7.72-2.77,11.7-.54,13.75,1.28,1.17,3.32,.77,7.28,0,1.55-.3,5.77-1.26,10.79-4.58,4.09-2.71,6.42-4.25,6.47-6.47,.05-2.28-2.36-2.92-7.01-7.82-3.49-3.68-5.5-5.8-6.74-9.17-1.52-4.13-.16-5.44-2.16-11.06-.77-2.16-1.47-4.05-3.24-5.93-1.02-1.09-3.6-3.83-7.55-3.78Z" fill="#ededed"/>
  <path id="leftProximalPhalanx4" d="M122.9,325.28c1.07,1.79,3.36,5.62,6.47,5.66,2.51,.03,3.06-2.44,7.01-4.85,4.68-2.86,9.74-2.93,11.87-2.97,6.04-.09,7.58,2.03,11.06,.54,3.71-1.59,5.18-5.37,5.39-5.93,.85-2.28,1-5.16-1.08-10.52-2.79-7.19-5.88-9.27-9.17-14.56-2.87-4.62-4.07-10.09-6.47-21.03-1.16-5.28-.99-5.61-3.51-21.57-3.27-20.74-3.57-20.28-3.78-25.08-.21-4.88-.07-9.27-1.08-16.72-.77-5.68-1.76-9.83-4.85-13.48-1.2-1.42-3-3.48-5.93-4.31-2.75-.78-4.44,.11-10.52,1.62-8.67,2.16-8.73,1.23-10.25,2.43-5.66,4.46-3.34,16.18-2.7,19.42,1.32,6.65,3.28,8,5.93,15.1,2.18,5.84,2.15,8.39,4.31,24.27,3.41,25.08,3.91,21.86,4.04,28.04,.13,5.83-.33,8.23-.54,28.04-.03,2.93-.02,9.56,3.78,15.91Z" fill="#c6c6c6"/>
  <path id="leftMiddlePhalanx4" d="M98.77,168.2c-.41,9.81-2.27,13.2,.27,17.53,.24,.41,2.5,4.14,6.74,5.39,1.12,.33,2.57,.55,8.9-.81,5.44-1.17,8.68-1.89,12.94-3.78,4.68-2.07,7.02-3.11,8.09-5.39,.87-1.86,.82-4.22-1.89-10.79-3.23-7.82-5.61-9.8-9.17-16.72-.65-1.26-3.65-7.19-5.93-15.37-1.83-6.55-3.15-11.3-3.24-17.8-.04-3.3,.24-6.19-1.08-10.25-.98-3.02-2.01-6.18-4.58-7.28-3.52-1.51-5.39,2.76-13.75,4.31-4.67,.87-7.53,.18-9.17,2.43-.29,.4-.93,1.42-.81,4.85,.17,4.98,1.73,8.8,2.7,11.06,2.58,6,3.48,6.73,5.12,10.52,3.01,6.9,3.69,12.92,4.31,18.34,.27,2.32,.81,7.26,.54,13.75Z" fill="#dadada"/>
  <path id="leftDistalPhalanx4" d="M82.05,50.63c-3.27,.5-6.05,2.59-7.55,5.12-2.92,4.93-.68,11.07,1.08,15.91,2.76,7.58,5.17,7.14,5.93,12.67,.58,4.22,.11,11.11,0,12.67-.22,3.25-.53,5.23,.81,6.74,1.42,1.59,3.85,1.73,6.47,1.89,.8,.05,2.93,.13,6.2-.54,2.35-.48,5.75-1.2,9.44-3.51,2.62-1.64,5.82-3.64,5.93-6.47,.07-1.84-1.2-3.16-2.43-4.58,0,0-5.63-6.56-8.63-14.29-2.07-5.33-.16-5.67-2.7-13.21-2.19-6.5-4.37-8.52-5.12-9.17-1.02-.88-4.62-3.97-9.44-3.24Z" fill="#ededed"/>
  <path id="leftMetacarpal3" d="M201.64,458.49c-.23,6.51-.36,10.43-1.35,15.91-1.07,5.98-2.12,8.06-2.97,14.56-.92,7.05-1.38,10.58,.27,12.94,.78,1.13,2.45,2.82,16.99,4.31,13.34,1.37,15.41,.31,16.72-.81,3.34-2.86,3.51-7.71,3.64-11.33,.28-7.89-2.56-12.11-4.72-19.15-1.12-3.63-.97-4.49-2.29-23.46-1.7-24.35-1.81-20.33-2.29-30.88-.2-4.28-.4-13.46-.81-31.82-.22-9.72-.32-15.69,.67-23.87,.89-7.32,1.34-10.97,3.37-15.78,2.17-5.14,4.12-6.8,5.12-11.87,.78-3.96,.38-6.97-.27-11.6-1.37-9.7-2.06-14.55-5.93-18.07-3.85-3.49-8.71-3.85-15.1-4.31-5.04-.37-9.06-.66-12.94,1.62-3.78,2.22-5.28,5.61-7.82,11.6-2.16,5.09-5.4,12.7-4.85,22.65,.34,6.3,1.81,6.36,4.31,16.99,.88,3.73,1.54,7.3,3.51,25.08,1.74,15.72,1.46,15.29,2.7,26.16,1.95,17.12,2.68,18.47,3.51,29.8,.72,9.91,.71,16.33,.54,21.3Z" fill="#9d9d9c"/>
  <path id="leftProximalPhalanx3" d="M189.78,278.36c-.5,2.28-1.47,6.67-1.35,12.4,.09,4.3,.72,6.13,1.89,7.55,2.04,2.48,5.15,2.98,6.74,3.24,4.51,.73,5.39-1.16,11.06-1.35,2.07-.07,4.88,.4,10.52,1.35,6.91,1.16,7.51,1.65,9.17,1.08,4.53-1.55,6.35-7.34,7.01-9.44,.44-1.41,1.7-5.91,0-13.75-1.68-7.78-4.15-9.01-7.01-16.99-2.3-6.41-2.81-11.45-3.51-18.34-.79-7.85,.04-8.05-.27-22.11-.12-5.34-.43-14.01-.81-22.11-.35-7.45-.57-10.43,.27-15.1,.84-4.65,1.75-5.55,2.16-10.25,.38-4.34,.73-9.12-2.16-13.21-1.66-2.36-3.72-3.54-5.12-4.31-6.63-3.68-13.62-2.11-16.99-1.35-4.12,.93-6.89,1.55-9.17,4.04-3.46,3.78-3.32,9.17-3.24,12.67,.12,4.78,1.34,8.33,1.62,9.17,2.24,6.71,1.03,9.17,2.16,36.67,.29,7.1,.71,15.16,1.08,28.31,.19,6.62,.22,9.46-.27,13.48-.15,1.27-.39,2.92-3.78,18.34Z" fill="#c6c6c6"/>
  <path id="leftMiddlePhalanx3" d="M188.57,133.95c-1.47,4.97-3.46,7.25-3.24,12.4,.07,1.55,.3,6.96,3.51,8.63,1.8,.94,3.16-.02,8.63-1.35,4.54-1.1,8.26-2.01,12.4-1.89,6.62,.19,9.04,2.85,10.79,1.35,1.18-1.02,1.42-3.39-1.62-12.94-3.35-10.54-4.85-11.48-6.74-18.07-2.43-8.46-2.45-15.55-2.43-20.22,.03-5.49,.24-10.31,1.89-16.45,2.19-8.15,1.91-9.24,1.89-10.52-.05-2.8-.1-5.83-2.12-7.87-.63-.64-2.06-1.78-11.33-1.62-10.12,.17-11.79,1.59-12.58,2.52-1.12,1.32-1.35,2.71-1.74,5.08-.77,4.68,.3,7.88,1.08,12.67,.21,1.27,.5,4.53,1.08,11.06,.8,8.93,1.01,15.95,1.08,18.88,.24,10.19,.36,15.28-.54,18.34Z" fill="#dadada"/>
  <path id="leftDistalPhalanx3" d="M197.73,.74c-3.49,1.32-5.25,4.04-5.93,5.12-.89,1.42-2.41,4.43-1.89,13.75,.46,8.09,1.7,7.57,1.62,12.94-.07,4.33-.15,10.02-3.51,15.37-2.18,3.48-4.53,4.9-4.58,8.36,0,.52,0,3.58,2.16,5.39,1.05,.88,2.32,1.22,5.12,1.35,3.94,.17,5.83-.31,8.9-.54,7.39-.55,9.7,1.29,12.13-.81,1.74-1.5,2.07-3.72,2.16-4.31,.48-3.24-1.42-5.15-2.97-8.9-1.59-3.86-1.73-7.08-1.89-10.79-.13-3.08,.45-6.59,1.62-13.48,1.44-8.51,1.95-9.29,1.62-12.13-.31-2.64-.95-8.18-5.39-10.79-4.07-2.39-8.63-.74-9.17-.54Z" fill="#ededed"/>
  <path id="leftMetacarpal2" d="M245.46,470.71c-4.79,10.13-7.04,11.84-7.82,17.39-.28,1.98,.03,1.72-.34,5.67-.43,4.57-.96,6.07-.25,8.3,.76,2.38,2.37,3.85,2.7,4.13,2.45,2.16,4.36,1.38,11.33,3.24,2.69,.72,2.72,.92,5.57,1.62,2.35,.58,4.44,1.08,7.19,1.26,1.11,.07,3.28,.2,5.93-.18,2.18-.31,5.84-.84,8.27-2.7,1.12-.86,4.01-3.54,3.96-14.92-.03-6.88-1.09-6.99-2.29-17.35-.6-5.16-1.47-15.38-.81-28.31,.14-2.69,.38-5.88,4.31-33.71,3.91-27.68,2.77-18.08,3.78-25.75,1.31-10.03,1.88-15.92,4.31-24.67,1.95-7,3-10.57,5.66-14.56,3.34-5,5.91-5.96,7.55-10.79,1.13-3.33,.93-6,.54-11.33-.53-7.15-.87-11.79-4.04-16.72-.76-1.18-3.78-5.64-9.71-8.63-1.12-.57-5.39-2.61-11.33-2.7-2.43-.04-9.22-.14-15.1,4.31-4.94,3.74-6.58,8.67-8.9,15.64-1.43,4.29-3.04,9.14-2.43,15.37,.5,5.09,1.97,5.83,2.97,11.87,.83,5.02,.35,7.81,0,14.29-.29,5.43,.08,2.77,0,22.11-.05,11.81-.07,17.71-.27,22.65-.17,4.17-.64,14.28-2.16,27.24-.95,8.08-1.5,12.68-2.97,19.15-1.68,7.41-2.84,12.09-5.66,18.07Z" fill="#9d9d9c"/>
  <path id="leftProximalPhalanx2" d="M285.42,175.62c-.85,7.5-.93,12.76-.85,16.18,.03,1.35-.93,7.91-2.43,21.03-.89,7.81-1.67,14.52-3.01,23.1-2.21,14.08-3.7,18.8-4.31,20.67-.97,2.93-3.59,8.7-6.47,14.74-1.95,4.08-3.12,6.25-4.04,9.98-1.08,4.37-2.39,9.28,.18,12.22,1.35,1.55,3.3,2.03,5.29,2.52,3.1,.76,5.07,.31,7.73,.18,.7-.04,7.31-.31,13.66,2.16,4.92,1.91,5.04,3.66,9.35,4.49,1.78,.34,5.24,1.01,8.55-.72,5.3-2.77,6.04-9.49,6.11-10.25-.2-3.88-.68-9.92-1.98-17.26-1.65-9.36-2.92-11.09-3.42-17.26-.55-6.87,.59-10.04,2.34-21.39,1.81-11.77,1.13-12.9,2.7-23.37,1.2-8.03,1.83-12.12,3.15-16,1.09-3.2,2.13-5.35,3.11-8.52,.36-1.17,.68-2.3,1.03-3.88,1.44-6.56,.9-10.79,.71-12.04-.15-1.02-.23-1.52-.36-1.8-1.68-3.46-8.11-2.02-16.9-3.06-10.77-1.27-13.85-4.91-17.08-2.52-1.06,.79-2.08,2.18-3.05,10.79Z" fill="#c6c6c6"/>
  <path id="leftMiddlePhalanx2" d="M307.08,86.82c.07,1.3-.43,5.48-1.44,13.84-1,8.37-1.51,12.55-2.7,16.9-2.53,9.25-6.77,16.75-7.37,17.8-3.07,5.35-5.3,7.69-6.47,13.12-.69,3.21-1.51,6.97,.54,9.71,1.06,1.42,4.42,2.44,11.15,4.49,1.82,.56,3.31,.91,5.39,1.26,4.49,.76,8.17,.71,8.17,.71,1.86-.01,4.63-.05,8.09-.9,2.84-.7,4.25-1.04,5.13-2.15,1.64-2.06,.53-5.05-.18-8.63-.39-1.98-.62-6.11-1.08-14.38-.17-3.09-.5-9.63,.72-17.8,.94-6.27,1.66-11.15,4.49-16.9,.73-1.49,2.34-4.53,5.03-10.07,1.9-3.92,2.68-5.96,2.7-8.27,0-.75,.02-3.88-1.9-6.3-2.09-2.64-4.55-2.03-14.2-3.78-7.54-1.37-10-2.46-12.4-.72-1.72,1.24-2.49,3.27-2.96,4.51-1.2,3.16-.8,5.9-.72,7.55Z" fill="#dadada"/>
  <path id="leftDistalPhalanx2" d="M319.48,51.13c-1.01,3.79-1.67,6.26-3.78,8.63-2.23,2.5-4.27,2.85-4.67,5.09-.38,2.16,1.05,4.01,1.25,4.26,1.24,1.54,2.91,1.95,5.85,2.6,10.11,2.23,8.04,1.37,14.29,2.62,1.34,.27,3.3,.69,5.75,.18,1.36-.28,3.36-.7,4.13-2.16,.76-1.42-.21-2.85-1.26-5.93-1.23-3.62-1.68-6.43-2.16-9.35-.41-2.51-.84-5.31-.54-8.99,.23-2.85,.81-5.01,1.08-5.93,.79-2.73,1.51-3.72,2.34-5.75,.8-1.97,2.63-6.48,1.8-11.51-.22-1.35-.96-5.79-4.85-8.99-.82-.67-4.78-3.92-9.71-2.88-4.72,1-7.06,5.24-7.73,6.47-2.43,4.42-1.99,9.2-1.44,15.28,.3,3.32,.71,4.15,.72,7.37,.01,4.79-.88,8.23-1.08,8.99Z" fill="#ededed"/>
  <path id="leftMetacarpal1" d="M310.15,482.12c-4.52,4.22-8.12,7.58-13.84,10.61-3.4,1.8-6.15,2.74-8.81,5.93-2.4,2.88-3.74,5.66-4.31,7.37-.81,2.4-1.58,4.67-.99,7.28,.7,3.11,2.94,4.92,6.61,7.82,3.27,2.58,5.93,4.06,9.98,6.2,6.43,3.41,8.94,3.9,9.82,4.06,2.68,.47,5.79,1.01,8.24-.69,1.71-1.18,1.9-2.66,3.73-6.7,1.31-2.88,2.84-5.65,4.31-8.45,2.97-5.61,5.53-9.65,8.09-13.66,13.56-21.26,12.56-19.57,13.66-21.39,7.88-13.06,7.98-15.72,14.74-25.89,4.28-6.44,6.76-8.76,10.61-14.2,1.66-2.35,3.3-4.73,4.85-8.18,1.87-4.14,3.4-7.53,2.88-11.51-.65-4.94-4.1-8.1-6.83-10.61-5.87-5.38-12.31-6.61-17.26-7.55-4.98-.95-9.04-1.66-11.69,.72-1.75,1.58-2.18,3.88-2.7,6.65-.77,4.14,.08,5.86-.18,10.07-.09,1.38-.3,3.18-1.98,8.81-1.38,4.64-2.93,9.84-6.11,17.26-2.19,5.11-5.16,11.94-10.43,20.13-3.98,6.19-6.96,10.83-12.4,15.91Z" fill="#9d9d9c"/>
  <path id="leftProximalPhalanx1" d="M352.93,386.58c3.51-3.81,6.18-5.57,8.63-7.55,2.58-2.09,5.62-5.89,11.69-13.48,6.08-7.61,9.12-11.42,11.87-16,4.1-6.86,6.16-10.29,6.47-14.2,.44-5.49-1.62-8.71,.54-14.2,.56-1.42,1.49-3.73,3.78-5.57,4.32-3.5,9.97-2.52,12.04-2.16,2.12,.37,8.63,1.5,11.15,6.47,1.02,2.02,1.46,4.84-1.26,12.76-3.09,8.98-5.93,11.99-10.61,21.21-2.11,4.16-4.1,9.13-8.09,19.06-4.17,10.39-6.26,15.58-6.83,18.52-1.2,6.12-2.06,9.35-3.78,15.82-.98,3.69-2.01,6.71-4.13,7.19-1.78,.4-3.76-1.13-5.67-2.61-2.09-1.62-3.22-3.1-3.96-3.96-3.55-4.11-8.56-5.64-11.59-6.56-4.72-1.44-7.77-1-12.86-3.69-.93-.49-1.84-1.04-2.24-2.07-.39-1-.53-3.15,4.85-8.99Z" fill="#c6c6c6"/>
  <path id="leftDistalPhalanx1" d="M406.86,297.5c-3.88,2.69-5.95,4.52-6.47,7.19-.13,.69-.41,2.11,.36,3.24,1.06,1.55,3.24,1.24,6.47,1.8,0,0,4.07,.7,7.73,2.7,4.88,2.66,5.47,5.7,8.38,5.58,1.87-.08,3.61-1.41,4.38-2.88,1.08-2.07-.12-3.74-.36-6.65-.29-3.5,1.07-6.11,3.78-11.33,2.15-4.14,4.28-6.87,6.65-9.89,4.93-6.26,10.11-11.38,10.79-12.04,5.61-5.52,7.61-6.49,8.45-9.89,.76-3.07,.42-7.5-2.16-8.99-2.6-1.5-6.31,.68-7.91,1.62-4.91,2.89-5.41,6.2-9.71,11.33-5.17,6.18-6.48,3.82-12.22,10.25-5.74,6.43-4.91,9.32-10.43,13.12-2.06,1.42-3.45,1.9-7.73,4.85Z" fill="#ededed"/>
  <path id="leftTrapezium" d="M281.44,517.88c-.72-.7-2.2-2.14-4.45-2.56-2.37-.44-5.37,.3-6.88,2.29-1.21,1.6-.84,3.17-.67,7.15,.05,1.28,.26,7.13-.54,12.54-.6,4.05-1.03,6.96-2.83,10.38-1.61,3.05-2.96,3.95-2.7,5.8,.43,3.04,4.7,4.76,6.61,5.53,4.61,1.86,8.8,1.42,11.73,1.08,1.39-.16,5.29-.71,9.84-2.83,3.8-1.77,6.15-3.74,8.76-5.93,4.5-3.77,6.76-5.73,7.42-9.03,.13-.68,.66-3.31-.67-5.8-.99-1.85-2.37-2.45-7.69-5.12-4.77-2.4-7.19-3.62-8.9-4.72-3.6-2.32-5.4-3.47-6.88-5.8-.58-.91-1.01-1.85-2.16-2.97Z" fill="#878787"/>
  <path id="leftTrapezoideum" d="M261.84,515.26c-3.34-.97-5.93-1.64-6.88-1.89-4.63-1.23-4.08-1.72-6.74-2.16-2.74-.45-5.72-.93-8.09,.81-2.28,1.67-2.78,4.49-2.97,5.53-.41,2.28,.21,3.27,.67,6.88,.2,1.59,.23,3.76,.27,8.09,.06,5.71,.09,8.57-.27,9.84-.64,2.28-1.51,3.6-.81,5.12,.65,1.41,2.21,2.03,3.24,2.43,2.21,.86,3.15,.38,6.07,.67,4.21,.43,4.45,1.66,7.96,1.62,1.45-.02,3.19-.06,4.99-1.08,1.91-1.08,2.84-2.67,3.78-4.31,.41-.72,1.63-2.96,2.56-7.55,.52-2.57,.66-4.77,.94-9.17,.08-1.2,.32-4.21,.13-8.09-.13-2.71-.38-4.16-1.45-5.25-.65-.66-1.31-.88-3.4-1.49Z" fill="#878787"/>
  <path id="leftScaphoid" d="M237.03,558.46c.28-1.13,.95-3.87,3.1-4.85,1.09-.5,2.25-.41,4.18-.27,.94,.07,1.76,.2,3.37,.54,1.9,.41,3.2,.75,6.88,1.75,3.46,.94,3.91,1.07,4.72,1.35,1.91,.66,3,1.19,4.31,1.75,2.96,1.28,5.27,1.98,8.49,2.97,5.81,1.77,6.95,1.57,8.36,3.1,1.73,1.89,1.93,4.31,2.02,5.39,.12,1.51,.19,5.9-5.66,12.94-1.66,1.99-4.48,5.04-13.35,11.06-4.32,2.93-8.92,6.03-15.78,9.57-6.93,3.58-13.02,6.68-21.57,8.36-6.53,1.29-11.42,2.17-15.37-.81-4.24-3.2-4.67-8.79-4.72-9.57-.04-.6-.3-6.07,3.51-10.11,2.57-2.74,4.37-2.01,10.11-4.72,2.76-1.3,8.05-3.86,12.4-9.03,2.76-3.28,5.56-6.6,5.53-11.06-.02-3.13-1.42-4.74-.54-8.36Z" fill="#878787"/>
  <path id="leftCapitate" d="M189.04,512.7c.4-1.23,1.66-4.35,4.72-5.93,1.96-1.01,3.8-.9,7.69-.4,5.85,.74,8.75,1.37,12,1.89,9.48,1.49,10.89,.23,14.43,2.43,.72,.45,4.16,2.67,5.93,6.88,.8,1.9,.95,4.17,1.21,8.63,.17,2.81,.31,5.31,.13,8.63-.32,5.98-1.25,6.17-1.75,12.27-.18,2.17-.48,6.07,0,11.06,.47,4.84,1.15,5.31,.81,7.82-.57,4.16-3,6.98-5.12,9.44-2,2.32-5.46,6.33-11.46,7.96-1.83,.5-5.52,1.5-9.57,.13-2.63-.89-3.63-2.17-9.44-8.36-7.84-8.35-8.53-8.69-9.03-10.65-1.05-4.1,1.37-5.1,2.97-13.21,.69-3.51,2.04-10.36,.2-18.07-.84-3.54-2-5.76-3.51-12.67-.68-3.11-1.02-5.29-.2-7.82Z" fill="#878787"/>
  <path id="leftHamate" d="M138.75,524.63c.42-1.03,1.51-3.33,4.99-6.34,1.8-1.55,5.3-4.2,10.65-6.07,4.49-1.56,8.01-1.79,12.27-2.02,8.54-.47,15.08-.83,17.93,2.97,1.1,1.46,.28,1.72,1.89,7.69,1.38,5.11,2.08,5.3,3.24,9.84,1.22,4.81,1.43,8.54,1.48,9.57,.07,1.49,.16,5-.54,9.44-.83,5.23-2.34,9.12-3.1,10.92-1.76,4.15-2.84,6.7-5.39,9.17-.56,.54-6.85,6.47-11.73,4.45-.57-.24-2.16-1.01-5.12-7.69-2.73-6.13-2.29-7.49-4.31-12.13-1.52-3.48-3.6-8.11-8.09-11.87-2.63-2.2-3.16-1.64-8.53-5.6-4.97-3.66-6.27-5.44-6.58-7.48-.28-1.88,.37-3.45,.94-4.85Z" fill="#878787"/>
  <path id="leftPisiforme" d="M118.62,538.99c2.47-3.74,6.2-5.03,6.88-5.26,2.59-.86,4.84-.71,6.07-.54-.37,2.45-.78,5.87-.94,9.98-.18,4.38-.01,7.91,.27,11.87,.38,5.31,1.1,13.16,2.56,23.19-2.58-.88-6.78-2.73-10.65-6.61-1.71-1.72-5.99-6.12-7.18-12.93-.5-2.87-.1-5.74,.71-11.47,.81-5.74,1.7-7.33,2.29-8.22Z" fill="#878787"/>
  <path id="leftTriquetrum" d="M136.69,581.73c.4,2.16,1.14,5.82,3.91,9.17,1.18,1.42,1.98,2.39,3.35,2.83,.94,.3,3.36,.5,12.81-7.28,5.6-4.62,8.41-6.92,8.75-10.34,.25-2.46-.95-2.46-3.76-10.96-1.28-3.87-1.31-4.75-2.7-8.36-.89-2.33-1.88-4.89-3.64-7.55-.58-.88-1.88-2.81-4.02-4.72-2.39-2.14-3.94-2.56-6.74-4.18-6.75-3.9-7.74-7.21-9.44-6.61-2.04,.72-1.93,6.06-1.62,16.72,.12,4.02,.35,7.23,.81,13.48,.15,2.1,.7,9.26,2.29,17.8Z" fill="#878787"/>
  <path id="leftLunate" d="M149.33,598.91c.62-2.63,2.17-4.26,3.64-5.8,1.47-1.54,2.13-1.76,5.66-4.31,.36-.26,3.7-2.69,7.15-5.53,4.8-3.96,4.21-4.12,6.2-5.26,4.42-2.53,5.84-.9,8.63-3.37,2.19-1.93,2.5-3.98,5.12-4.85,.47-.16,1.72-.56,3.1-.13,1.16,.35,1.84,1.12,2.43,1.75,1.37,1.5,2.89,2.87,4.18,4.45,1.75,2.15,3.6,3.95,7.28,7.55,2.82,2.75,3.46,3.17,3.78,4.45,.47,1.93-.47,3.16-1.89,6.61-2.19,5.31-1.33,5.73-3.24,10.11-1.51,3.48-2.62,6.04-4.72,7.96-2.41,2.19-5.05,2.56-20.76,2.16-10.81-.28-13.86-.56-17.8-2.29-6.04-2.65-7.64-5.84-8.09-6.88-.47-1.08-1.37-3.63-.67-6.61Z" fill="#878787"/>
  <path id="leftRadius" d="M192.48,724.38c.04-8.18,.03-15.68,0-22.38-.1-20.8-.39-23.31-1.62-26.97-3.02-8.95-6.52-9.44-8.9-19.69-.05-.23-.66-5.1-1.89-14.83-.66-5.28-1.39-8.58-.27-12.94,.57-2.21,1.24-4.83,3.39-6.81,2.98-2.73,6.85-2.43,12.79-2.36,0,0,8.12,.09,20.49-.81,5.24-.38,10.89-.79,18.07-2.7,3.49-.93,10.07-2.72,17.53-7.01,6.27-3.6,14.37-10.5,15.37-11.33,3.05-2.52,5.91-5.05,10.25-5.39,1.02-.08,4.67-.37,7.01,1.89,2.54,2.44,2.13,6.55,1.81,9.7-1.61,15.48-5.04,22.93-5.04,22.93-13.58,29.45-17.27,29.8-20.49,42.34-2.54,9.87-2.49,18.38-2.43,30.74,.06,10.44,.97,19.2,1.89,25.62h-67.96Z" fill="#706f6f"/>
  <path id="leftUlna" d="M132.88,724.11c-.23-10.39-.14-18.89,0-24.81,.14-6.18,.36-10.86,.54-21.03,.27-15.13,.04-18.09-.81-21.84-.9-3.99-1.15-2.91-5.39-15.37-4.33-12.72-4.7-15.71-4.85-17.26-.68-6.88,.42-11.76,1.35-15.91,1.21-5.37,2.01-8.76,4.31-9.44,3.44-1.01,8.2,4.58,9.82,6.5,2.96,3.48,2.56,4.73,5.28,6.99,3.06,2.54,6.42,3.32,8.36,3.78,2.09,.49,2.23,.24,9.71,.81,5.66,.43,6.54,.65,7.55,1.08,.73,.31,4.33,1.83,6.2,5.39,1.11,2.11,1.05,3.88,.54,9.98-.67,7.97-1,11.96-1.35,13.48-1.49,6.54-3.29,7.83-5.12,13.21-1.77,5.21-1.74,10.19-1.62,19.96,.14,10.82,1.14,14.59,1.89,27.24,.44,7.44,.53,13.48,.54,17.26h-36.94Z" fill="#706f6f"/>
</svg>