<?xml version="1.0" encoding="UTF-8"?>
<svg xmlns="http://www.w3.org/2000/svg" viewBox="0 0 951.53 724.38">
  <g>
    <path id="leftMetacarpal5HeadRadial" d="M115.24,380.59c-.03-.5-.07-1.21-.16-2.06,0,0-.32-3-1.11-5.88-1.43-5.21-3.65-13.29-10.07-16.18-6.01-2.71-12.63,.52-14.38,1.44,1.39,5.03,2.78,10.07,4.17,15.1,7.18,2.53,14.37,5.05,21.55,7.58Z" fill="#9d9d9c"/>
    <path id="leftMetacarpal5Shaft" d="M151.18,481.6c-.3-.33-.74-.83-1.26-1.44-7.66-8.94-11.19-17.35-15.1-24.81-4.16-7.94-8.56-16.33-12.58-28.4-3.06-9.19-6.43-18.99-7.19-32.36-.33-5.79-.09-10.63,.19-13.99-7.18-2.53-14.37-5.05-21.55-7.58-4.62,5.02-9.24,10.05-13.86,15.07,.37,1.51,.88,3.32,1.63,5.36,.07,.19,.12,.34,.15,.42,0,0,1.01,2.72,2.28,5.34,1.73,3.58,4.11,6.8,7.07,12.28,.7,1.3,1.68,3.12,2.77,5.52,1.95,4.3,2.25,6.06,4.25,11.87,1.8,5.24,3.45,9.33,5.57,14.61,.63,1.56,1.58,3.91,2.9,7.04,1.71,4.03,2.37,5.39,3.75,8.75,.35,.86,1.14,2.78,2.69,6.86,3.15,8.29,6.77,18.43,7.55,24.45,.19,1.48,.32,3,.32,3,.21,2.44,.28,4.53,.28,6.16l19.56,.54c3.53-6.23,7.05-12.46,10.58-18.69Z" fill="#9d9d9c"/>
    <path id="leftMetacarpal5BaseRadial" d="M147.18,512.75c1-.15,8.53-1.38,11.37-7.42,1.95-4.16,.63-8.35-.63-12.31-1.76-5.55-4.8-9.34-6.74-11.41-3.53,6.23-7.05,12.46-10.58,18.69,2.19,4.15,4.39,8.3,6.58,12.46Z" fill="#9d9d9c"/>
    <path id="leftMetacarpal5BaseUlnar" d="M121.04,499.75c.01,1.06,.1,2.42,.39,3.97,.03,.14,.42,2.1,1.16,4.12,.33,.88,5.32,14.06,12.22,14.02,.48,0,.89-.07,1.27-.2,3.53-1.19,4.47-4.01,8.8-7.35,.48-.37,1.26-.95,2.3-1.57-2.19-4.15-4.39-8.3-6.58-12.46l-19.56-.54Z" fill="#9d9d9c"/>
    <path id="leftMetacarpal5HeadUlnar" d="M89.51,357.91c-2.33,.58-7.41,2.22-10.07,6.83-1.85,3.21-1.7,6.41-1.44,11.87,.23,4.9,1.1,8.86,1.81,11.48,4.62-5.02,9.24-10.05,13.86-15.07-1.39-5.03-2.78-10.07-4.17-15.1Z" fill="#9d9d9c"/>
    <path id="leftMetacarpal4HeadRadial" d="M170.28,350.46c-2.67-4.86-4.26-8.94-5.26-11.97-1.16-3.52-2.19-7.69-6.04-10.7-.59-.46-1.06-.75-1.15-.81-4.46-2.73-9.96-1.62-12.94-.72,1.36,5.78,2.72,11.57,4.08,17.35,7.1,2.28,14.21,4.56,21.31,6.85Z" fill="#9d9d9c"/>
    <path id="leftMetacarpal4BaseRadial" d="M178.28,503.53c1.9,.15,4.78,.18,8.17-.54,2.71-.58,4.07-.86,5.31-1.89,3.48-2.86,3.58-8.52,3.64-10.52,.02-.57,0-1.09-.03-1.6-.25-3.25-.99-5.01-2.13-9.19-.23-.85-.56-2.13-.92-3.7-5.65,3.21-11.29,6.42-16.94,9.63,.96,5.93,1.93,11.87,2.89,17.8Z" fill="#9d9d9c"/>
    <path id="leftMetacarpal4BaseUlnar" d="M161.86,480.64c-.67,1.38-1.58,3.66-1.8,6.6,0,.07-.1,1.45,.02,2.8,.34,3.83,2.36,10.58,7.42,12.67,1.11,.46,2.21,.58,4.39,.81,2.64,.28,4.85,.16,6.39,0-.96-5.93-1.93-11.87-2.89-17.8-4.51-1.7-9.02-3.39-13.53-5.09Z" fill="#9d9d9c"/>
    <path id="leftMetacarpal4Shaft" d="M132.38,356.78c.1,1.26,.35,3.04,1,5.08,.16,.51,.59,1.86,1.48,3.55,1.53,2.88,3.37,4.58,6.07,9.04,1.54,2.54,4.21,7.48,8.63,24.81,3.52,13.79,2.53,13.46,6.2,29.3,3.21,13.87,5.31,19.88,6.74,31.82,1.22,10.18,.7,14.14,.27,16.45-.05,.27-.19,1.01-.42,1.96-.13,.54-.29,1.16-.5,1.86,4.51,1.7,9.02,3.39,13.53,5.09,5.65-3.21,11.29-6.42,16.94-9.63-.72-3.11-1.34-5.62-1.78-7.36-.56-2.22-.84-3.27-1.6-6.31-.57-2.29-.5-2.08-1.16-4.72-.83-3.34-1.5-5.96-1.91-7.57-.49-1.93-.88-3.4-1.02-3.94-.82-3.16-1.44-5.44-1.71-6.48-.62-2.31-.71-2.7-3.03-11.7-1.97-7.62-2.95-11.44-3-11.61-.63-2.24-1.58-5.47-2.6-10.09,0,0-.26-1.17-.51-2.39-2.93-14.25-4.4-21.37-3.6-28.04,.5-4.19,1.99-10.7,1.99-15.81,0-1.56-.14-3.24-.55-5.04-.44-1.95-1.07-3.51-1.57-4.57-7.1-2.28-14.21-4.56-21.31-6.85-5.53,4.39-11.06,8.78-16.59,13.17Z" fill="#9d9d9c"/>
    <path id="leftMetacarpal4HeadUlnar" d="M144.88,326.27c-2.5,.28-8.8,1.29-11.51,5.39-.3,.45-.54,.92-.57,.98-1.94,3.76-1.17,7.61-.87,9.44,.52,3.18,.86,7.77,.44,14.7,5.53-4.39,11.06-8.78,16.59-13.17-1.36-5.78-2.72-11.57-4.08-17.35Z" fill="#9d9d9c"/>
    <path id="leftProximalPhalanx5HeadRadial" d="M64.6,273.58c-.78-2.12-1.23-3.9-1.49-5.17-.63-3.08-.67-5.4-2.56-7.65,0,0-.26-.31-.52-.56-3.26-3.21-12.81-.54-14.58-.03,1.61,3.75,3.21,7.5,4.82,11.25,4.78,.72,9.55,1.43,14.33,2.15Z" fill="#c6c6c6"/>
    <path id="leftProximalPhalanx5Shaft" d="M97.93,327.48c-.69-.6-1.69-1.47-2.85-2.54-1.94-1.8-9.56-9.21-17.53-21.57-3.19-4.96-9-13.95-11.33-23.73-.03-.14-.4-1.66-.97-3.7-.28-1.03-.52-1.85-.67-2.34-4.78-.72-9.55-1.43-14.33-2.15-3.27,4-6.54,8-9.8,12.01,2.88,5.2,4.01,7.22,4.18,7.49v.02s.27,.4,.52,.81c.34,.58,8.28,20.14,9.2,22.38,1.82,4.43,7.46,17.15,8.17,21.19,.1,.59,.19,1.19,.19,1.19,.35,2.38,.45,4.36,.47,5.74l19.61-.72c5.04-4.69,10.08-9.38,15.13-14.07Z" fill="#c6c6c6"/>
    <path id="leftProximalPhalanx5BaseRadial" d="M88.57,354.07c1.49-.66,3.93-1.6,7.06-2.17,5.59-1.02,7.56,.2,9.44-1.35,3.85-3.17,.7-12.47,.54-12.94-1.92-5.5-5.76-8.73-7.67-10.13-5.04,4.69-10.08,9.38-15.13,14.07,1.92,4.17,3.84,8.35,5.76,12.52Z" fill="#c6c6c6"/>
    <path id="leftProximalPhalanx5BaseUlnar" d="M63.19,342.27c0,1.55,.17,3.74,.84,6.26,.24,.91,.66,2.29,1.39,3.9,.98,2.16,4.12,9.09,8.9,9.44,.43,.03,.81,0,1.16-.08,3.49-.81,4.92-3.01,8.28-5.32,1.01-.7,2.59-1.64,4.81-2.41-1.92-4.17-3.84-8.35-5.76-12.52l-19.61,.72Z" fill="#c6c6c6"/>
    <path id="leftProximalPhalanx5HeadUlnar" d="M45.45,260.18c-.4,.18-.96,.46-1.6,.84-1.16,.69-6.83,4.05-7.55,9.44-.31,2.31,.51,4.42,2.16,8.63,.72,1.83,1.45,3.31,2,4.35,3.27-4,6.54-8,9.8-12.01-1.61-3.75-3.21-7.5-4.82-11.25Z" fill="#c6c6c6"/>
    <path id="leftMiddlePhalanx5HeadUlnar" d="M23.9,203.1c-1.27,.19-3.14,.58-5.27,1.46-2.17,.9-3.26,1.34-3.9,2.31-1.32,2.01-.36,4.88,.81,8.36,.55,1.64,1.31,3.15,1.39,3.3,.37,.73,.72,1.33,.99,1.77l9.51-8.73c-1.18-2.82-2.36-5.65-3.54-8.47Z" fill="#dadada"/>
    <path id="leftMiddlePhalanx5HeadRadial" d="M42,213.9c.15-1.01,.26-2.55-.08-4.36-.1-.53-.4-1.97-1.31-3.74-.87-1.71-3.05-5.99-6.74-6.47-1-.13-1.81,.1-3.38,.56-2.97,.88-5.19,2.21-6.6,3.21,1.18,2.82,2.36,5.65,3.54,8.47,4.86,.78,9.71,1.55,14.57,2.33Z" fill="#dadada"/>
    <path id="leftMiddlePhalanx5BaseRadial" d="M45.45,257.47c.38-.14,.91-.36,1.54-.63,0,0,1.72-.76,3.33-1.69,4.57-2.65,8.04-4.66,8.63-7.55,.66-3.24-2.36-7.25-7.01-9.98-3.49,3.66-6.99,7.33-10.48,10.99l3.99,8.86Z" fill="#dadada"/>
    <path id="leftMiddlePhalanx5BaseUlnar" d="M25.95,250.03c.05,.9,.19,2.23,.64,3.77,.58,1.95,1.54,5.2,4.04,6.47,.53,.27,1.74,.76,7.28-.54,3.14-.74,5.71-1.59,7.53-2.26l-3.99-8.86c-5.17,.48-10.34,.95-15.51,1.43Z" fill="#dadada"/>
    <path id="leftMiddlePhalanx5Shaft" d="M17.92,220.3c.94,1.3,2.24,3.24,3.55,5.72,1.64,3.1,4.2,8.07,4.85,14.83,.21,2.15,.3,5.32-.37,9.18,5.17-.48,10.34-.95,15.51-1.43,3.49-3.66,6.99-7.33,10.48-10.99-5.35-6.18-8.58-11.7-9.44-14.83-.47-1.7-.65-3.32-.65-3.32-.25-2.27-.07-4.2,.14-5.56-4.86-.78-9.71-1.55-14.57-2.33l-9.51,8.73Z" fill="#dadada"/>
    <path id="leftDistalPhalanx5TuftRadial" d="M18.77,162.73c-.36-1.42-1.2-3.79-3.24-5.93-.91-.96-3.6-3.78-7.55-3.78-1.41,0-2.56,.37-3.31,.67,1.41,2.51,2.83,5.03,4.24,7.54,3.28,.5,6.57,1,9.85,1.49Z" fill="#ededed"/>
    <path id="leftDistalPhalanx5Shaft" d="M27.67,182.95c-4.83-3.56-6.32-6.79-6.74-9.17-.25-1.41-.31-3.58-1.14-7.25-.37-1.61-.75-2.93-1.02-3.81-3.28-.5-6.57-1-9.85-1.49l-6.09,8.61c.78,.84,1.73,1.96,2.7,3.35,.14,.2,.76,1.11,1.39,2.2,3.32,5.84,3.74,12,3.78,12.67,.05,.79,.05,1.43,.05,1.75l9.88,1.43,7.07-8.3Z" fill="#ededed"/>
    <path id="leftDistalPhalanx5BaseRadial" d="M24.05,199.6c1.04-.55,2.48-1.34,4.16-2.36,4.99-3.02,7.48-4.56,7.49-6.35,0-1.19-1.19-2.29-3.6-4.49-1.75-1.61-3.35-2.74-4.44-3.45l-7.07,8.3c1.15,2.78,2.29,5.56,3.44,8.35Z" fill="#ededed"/>
    <path id="leftDistalPhalanx5BaseUlnar" d="M10.73,189.82c-.1,1.01-.3,2.87-.55,5.21-.56,5.17-.7,6.07-.03,6.8,1.21,1.32,3.84,.75,7.28,0,2.88-.62,5.14-1.54,6.62-2.23-1.15-2.78-2.29-5.56-3.44-8.35l-9.88-1.43Z" fill="#ededed"/>
    <path id="leftDistalPhalanx5TuftUlnar" d="M4.68,153.69c-1.77,.71-2.71,1.71-3.16,2.29-2.66,3.4-1.13,8.34-.54,10.25,.41,1.34,1.08,2.47,1.08,2.47,.29,.48,.56,.87,.77,1.15l6.09-8.61c-1.41-2.51-2.83-5.03-4.24-7.54Z" fill="#ededed"/>
    <path id="leftProximalPhalanx4HeadRadial" d="M139.58,208.24c-.2-2.75-1-8.65-4.85-13.48-1.19-1.49-3.01-3.71-5.93-4.31-1.13-.23-2.05-.15-3.56,0-1.83,.18-4.22,.61-6.96,1.62,.97,3.87,1.94,7.73,2.91,11.6,6.13,1.53,12.26,3.06,18.39,4.58Z" fill="#c6c6c6"/>
    <path id="leftProximalPhalanx4Shaft" d="M157.58,297.12c-1.53-1.84-2.56-3.44-3.17-4.47-.98-1.64-3.12-5.78-6.47-21.03-1.16-5.28-.99-5.61-3.51-21.57-3.27-20.74-3.57-20.28-3.78-25.08-.25-5.67-.2-7.5-.48-11.27-.1-1.3-.27-3.17-.6-5.45-6.13-1.53-12.26-3.06-18.39-4.58-5.28,3.42-10.57,6.83-15.85,10.25,.38,1.86,.82,3.32,1.15,4.28,1.47,4.34,2.97,5.93,4.78,10.82,.51,1.37,.81,2.36,1.18,3.6,1.95,6.5,2.03,11.53,3.14,20.67,.69,5.69,1.73,14.32,2.85,18.85,.15,.61,.73,2.9,1.03,6.06,.14,1.45,.16,2.56,.17,3.13,.13,6.99-.26,12.82-.26,12.82-.24,3.52-.44,8.61-.28,15.22,7.08,.54,14.16,1.08,21.25,1.62,5.75-4.62,11.5-9.25,17.25-13.87Z" fill="#c6c6c6"/>
    <path id="leftProximalPhalanx4BaseRadial" d="M144.88,323.31c3.23-.94,5.88-1.12,7.71-1.1,4.67,.04,6.96,1.35,9.31-.16,1.71-1.09,2.31-2.94,2.75-4.31,1.28-3.94,.04-7.63-1.08-10.52-.79-2.04-1.63-3.65-2.21-4.68-1.33-2.35-2.72-4.16-3.79-5.41-5.75,4.62-11.5,9.25-17.25,13.87,1.52,4.11,3.03,8.21,4.55,12.32Z" fill="#c6c6c6"/>
    <path id="leftProximalPhalanx4BaseUlnar" d="M119.09,309.37c-.4,8.28,2.3,13.55,3.78,15.91,1.32,2.12,3.55,5.7,6.47,5.66,2.43-.03,3.38-2.55,7.01-4.85,3.2-2.03,6.44-2.6,8.54-2.78-1.52-4.11-3.03-8.21-4.55-12.32-7.08-.54-14.16-1.08-21.25-1.62Z" fill="#c6c6c6"/>
    <path id="leftProximalPhalanx4HeadUlnar" d="M118.28,192.07c-1.53,.2-3.72,.58-6.28,1.34-2.71,.81-5.48,1.64-6.99,2.98-3.29,2.9-2.75,10.07,.33,17.53,5.28-3.42,10.57-6.83,15.85-10.25-.97-3.87-1.94-7.73-2.91-11.6Z" fill="#c6c6c6"/>
    <path id="leftMiddlePhalanx4HeadRadial" d="M115.44,118.99c.1-1.47,.1-3.59-.39-6.09-.21-1.06-.46-1.96-.69-2.67-.92-2.84-2.12-6.58-4.58-7.28-.84-.24-1.39,0-4.33,1.12-2.93,1.13-5.23,1.99-6.54,2.48,.86,3.19,1.72,6.37,2.59,9.56l13.94,2.88Z" fill="#dadada"/>
    <path id="leftMiddlePhalanx4BaseRadial" d="M119.3,189.27c1.35-.3,3.17-.78,5.28-1.53,.27-.1,1.65-.61,3-1.2,4.68-2.07,7.02-3.11,8.09-5.39,1.21-2.58,.16-5.46-1.89-10.79-1.03-2.68-2.16-4.81-3.04-6.31-4.95,4.22-9.9,8.43-14.86,12.65,1.14,4.19,2.28,8.39,3.41,12.58Z" fill="#dadada"/>
    <path id="leftMiddlePhalanx4BaseUlnar" d="M98.35,173.45c-.24,.6-2.68,6.93,.65,12.28,.39,.63,2.66,4.19,6.74,5.39,.18,.05,.37,.1,.59,.14,2.75,.52,4.65-.06,8.31-.95,1.09-.27,2.69-.64,4.66-1.04-1.14-4.19-2.28-8.39-3.41-12.58-5.85-1.08-11.69-2.16-17.54-3.25Z" fill="#dadada"/>
    <path id="leftMiddlePhalanx4Shaft" d="M88.75,125.59c.44,.98,1.13,2.52,2.02,4.38,1.56,3.25,2.6,4.97,3.1,6.13,3.01,6.9,3.69,12.92,4.31,18.34,.14,1.19,.35,3.08,.48,5.51,.19,3.36,.14,6.19,.06,8.24-.09,2.07-.24,3.85-.38,5.25,5.85,1.08,11.69,2.16,17.54,3.25,4.95-4.22,9.9-8.43,14.86-12.65-1.82-2.65-3.99-6.14-6.13-10.41-3.28-6.58-4.9-11.9-5.93-15.37-1.57-5.26-3.12-10.58-3.24-17.8-.01-.62,0-1.14,0-1.48l-13.94-2.88-12.75,9.48Z" fill="#dadada"/>
    <path id="leftMiddlePhalanx4HeadUlnar" d="M98.92,106.55c-1.2,.36-2.2,.57-2.89,.71-4.58,.89-7.69,.4-9.17,2.43-.03,.05-.07,.1-.11,.17-.92,1.46-.9,3.1-.7,4.69,.27,2.08,1.11,6.04,2.7,11.06l12.75-9.48c-.86-3.19-1.72-6.37-2.59-9.56Z" fill="#dadada"/>
    <path id="leftDistalPhalanx4TuftRadial" d="M96.57,63.03c-1.09-4.63-3.1-7.32-4.84-8.91-.11-.1-.21-.19-.28-.25-.77-.67-4.68-3.92-9.44-3.24-.37,.05-.93,.16-1.6,.38l3.48,9.91,12.69,2.11Z" fill="#ededed"/>
    <path id="leftDistalPhalanx4Shaft" d="M103.45,84.37c-1.35-2.06-3.01-4.93-4.18-8.13-.6-1.65-.84-2.74-.92-3.12-.41-2.03-.28-3.08-.45-4.74-.13-1.29-.45-3.13-1.34-5.35l-12.69-2.11c-3.02,2.91-6.05,5.81-9.07,8.72,.17,.53,.42,1.22,.73,2.03,.35,.9,1.03,2.64,2.02,4.46,1.57,2.89,2.23,2.85,3.09,5.05,.47,1.19,.63,2.12,.82,3.16,.28,1.57,.54,3.9,.27,6.8l12.39,2.87c3.1-3.21,6.21-6.42,9.31-9.62Z" fill="#ededed"/>
    <path id="leftDistalPhalanx4BaseRadial" d="M98.17,104.34c1.55-.44,3.8-1.23,6.22-2.75,2.57-1.6,5.88-3.67,5.93-6.47,.02-.98-.37-1.66-2.43-4.58-1.74-2.48-3.27-4.57-4.45-6.16-3.1,3.21-6.21,6.42-9.31,9.62,1.35,3.45,2.69,6.89,4.04,10.34Z" fill="#ededed"/>
    <path id="leftDistalPhalanx4BaseUlnar" d="M81.74,91.13c-.11,1.44-.24,3.46-.27,5.88-.08,5.38,.36,6.23,.81,6.74,1.42,1.59,3.85,1.73,6.47,1.89,2.48,.15,4.64-.25,6.2-.54,1.33-.25,2.42-.53,3.21-.76-1.35-3.45-2.69-6.89-4.04-10.34l-12.39-2.87Z" fill="#ededed"/>
    <path id="leftDistalPhalanx4TuftUlnar" d="M80.4,51.01c-1.26,.41-4.43,1.65-5.95,4.74-.78,1.6-.81,3.06-.82,5.35-.01,2.04,.18,5,1.17,8.54,3.02-2.91,6.05-5.81,9.07-8.72l-3.48-9.91Z" fill="#ededed"/>
    <path id="leftMetacarpal3HeadRadial" d="M233.96,337.28c.19-2.84,.27-6.85-.27-11.6-.97-8.44-1.44-14.6-5.93-18.07-1.83-1.41-3.91-2.08-6.26-2.83-3.56-1.14-6.69-1.43-8.84-1.48-.56,7.42-1.12,14.83-1.67,22.25,7.66,3.91,15.32,7.82,22.98,11.73Z" fill="#9d9d9c"/>
    <path id="leftMetacarpal3Shaft" d="M231.36,478.39c-.32-.83-.75-2.01-1.17-3.45,0,0-.31-.95-.52-1.93-.59-2.69-.7-6.2-1.77-21.53-1.7-24.35-1.81-20.33-2.29-30.88-.2-4.28-.4-13.46-.81-31.82-.22-9.72-.32-15.69,.67-23.87,.88-7.18,2.1-11.94,3.37-15.78,1.65-5,3.58-9.01,5.12-11.87-7.66-3.91-15.32-7.82-22.98-11.73l-23.98,9.98c-.05,1.02-.05,2.25,.03,3.64,.04,.57,.15,2.11,.47,3.84,.46,2.5,.83,2.55,2.17,6.94,.37,1.22,1.02,3.43,1.67,6.21,0,0,.23,1,.45,2.03,1.23,5.83,2.56,18.42,3.05,23.05,.81,7.63,.87,7.92,1.18,11.15,.26,2.75,.44,4.88,.83,8.66,.02,.23,.34,3.26,.69,6.34,1.21,10.58,1.96,13.77,2.86,22.57,.16,1.56,.41,3.99,.64,7.23,.35,4.8,.87,12.12,.54,21.3-.15,4.11-.5,9.53-1.35,15.91,5.01,3.42,10.03,6.83,15.04,10.25,5.35-2.09,10.71-4.17,16.06-6.26Z" fill="#9d9d9c"/>
    <path id="leftMetacarpal3BaseRadial" d="M214.55,506.22c2.42,.5,5.88,.9,9.92,.27,3.84-.6,6.93-1.08,8.77-3.57,1.51-2.04,1.57-4.62,1.67-8.84,.05-2.2-.12-3.89-.2-4.57-.3-2.56-1.08-6.53-3.35-11.13-5.35,2.09-10.71,4.17-16.06,6.26-.25,7.19-.5,14.38-.75,21.57Z" fill="#9d9d9c"/>
    <path id="leftMetacarpal3BaseUlnar" d="M200.26,474.4c-1.35,5.76-2.3,10.71-2.97,14.56-1.41,8.15-1.5,11,.27,12.94,.64,.7,1.52,1.29,6.42,2.43,4.39,1.03,8.06,1.58,10.57,1.89,.25-7.19,.5-14.38,.75-21.57-5.01-3.42-10.03-6.83-15.04-10.25Z" fill="#9d9d9c"/>
    <path id="leftMetacarpal3HeadUlnar" d="M212.66,303.3c-2.25-.51-7.91-1.45-12.94,1.62-3.9,2.38-5.47,5.99-7.82,11.6-1.75,4.17-3.94,10.6-4.89,19.01l23.98-9.98c.56-7.42,1.12-14.83,1.67-22.25Z" fill="#9d9d9c"/>
    <path id="leftProximalPhalanx3HeadRadial" d="M225.6,174.54c.33-1.4,1.72-7.9-2.16-13.21-1.76-2.42-3.93-3.65-5.12-4.31-5.06-2.81-10.06-2.47-12.2-2.19,.45,3.88,.9,7.75,1.35,11.63l18.12,8.09Z" fill="#c6c6c6"/>
    <path id="leftProximalPhalanx3Shaft" d="M234.11,276.82c-3.2-5.56-5.14-10.58-6.35-14.37-2.48-7.77-3.1-14.27-3.51-18.34-.79-7.85,.04-8.05-.27-22.11-.12-5.34-.43-14.01-.81-22.11-.35-7.45-.57-10.43,.27-15.1,.12-.67,1.09-3.34,1.72-7.1,.23-1.35,.36-2.45,.43-3.15l-18.12-8.09c-6.12,2.89-12.24,5.78-18.36,8.66,.44,3.04,.86,4.71,1.19,5.7,.03,.09,.12,.36,.24,.74,0,0,.49,1.54,.86,3.13,.77,3.29,1.3,33.55,1.3,33.55,.03,1.62,.28,7.4,.78,18.95,.14,3.12,.16,6.24,.3,9.36,.18,4.08,.41,8.02-.27,13.48-.02,.18-.04,.31-.06,.45-.52,3.95-1.38,8.56-2.81,13.76,6.78,3.08,13.56,6.17,20.34,9.25,7.71-2.22,15.42-4.44,23.12-6.67Z" fill="#c6c6c6"/>
    <path id="leftProximalPhalanx3BaseRadial" d="M210.94,300.36c3.35,.03,5.9,.63,7.65,1.19,2.3,.74,4.88,1.73,8.33,1.29,.27-.04,.54-.1,.84-.21,4.53-1.55,6.35-7.34,7.01-9.44,1.78-5.67,.62-10.84,0-13.75-.23-1.1-.48-2-.66-2.62-7.71,2.22-15.42,4.44-23.12,6.67-.01,5.63-.03,11.25-.04,16.88Z" fill="#c6c6c6"/>
    <path id="leftProximalPhalanx3BaseUlnar" d="M190.64,274.23c-.23,.97-.56,2.39-.9,4.13-.93,4.75-1.44,8.2-1.35,12.4,.09,4.3,.72,6.13,1.89,7.55,2.04,2.48,5.15,2.98,6.74,3.24,1.04,.17,1.89,.2,2.65,.14,3.6-.28,4.92-1.36,8.41-1.49,.63-.02,1.63-.02,2.87,.16,.01-5.63,.03-11.25,.04-16.88-6.78-3.08-13.56-6.17-20.34-9.25Z" fill="#c6c6c6"/>
    <path id="leftProximalPhalanx3HeadlUlnar" d="M206.13,154.81c-1.19,.12-2.86,.35-4.79,.85-4.18,1.06-7.02,1.78-9.17,4.04-3.4,3.57-3.3,9.12-3.24,12.67,.02,1.14,.11,2.09,.19,2.73,6.12-2.89,12.24-5.78,18.36-8.66-.45-3.88-.9-7.75-1.35-11.63Z" fill="#c6c6c6"/>
    <path id="leftMiddlePhalanx3HeadRadial" d="M212.61,81.91c.46-1.34,.99-3.38,1.01-5.92,0-.49-.01-.85-.02-1.09-.13-2.85-.28-6.12-2.12-7.87-.92-.87-2.16-1.06-4.63-1.44-2.81-.43-5.16-.33-6.69-.18-.05,3.6-.09,7.19-.14,10.79,4.2,1.9,8.4,3.81,12.59,5.71Z" fill="#dadada"/>
    <path id="leftMiddlePhalanx3Shaft" d="M215.81,131.34c-.75-1.55-1.67-3.64-2.56-6.18,0,0-.54-1.53-.99-3.08-2.43-8.46-2.45-15.55-2.43-20.22,.02-3.9,.13-7.46,.78-11.39,.1-.59,.5-2.57,1.1-5.06,.35-1.46,.67-2.66,.9-3.5-4.2-1.9-8.4-3.81-12.59-5.71-4.54,2.2-9.09,4.41-13.63,6.61,.13,.66,.32,1.65,.52,2.87,.85,5.24,1,9.22,1.08,11.06,.45,10.94,.95,10.68,1.08,18.88,.07,4.64,.01,10.89-.54,18.34l13.47,6.07c4.6-2.89,9.21-5.78,13.81-8.68Z" fill="#dadada"/>
    <path id="leftMiddlePhalanx3BaseRadial" d="M203.78,152.23c1.45-.28,3.54-.56,6.05-.48,6.56,.21,9.15,2.69,10.79,1.35,1.84-1.52,.42-6.22-1.62-12.94-1.1-3.64-2.27-6.64-3.19-8.81-4.6,2.89-9.21,5.78-13.81,8.68,.59,4.07,1.19,8.14,1.78,12.21Z" fill="#dadada"/>
    <path id="leftMiddlePhalanx3BaseUlnar" d="M188.52,133.95c-.6,1.96-1.29,4.71-1.63,8.04-.45,4.45-1.13,11.24,1.9,12.99,1.07,.62,1.92,.2,8.63-1.35,2.77-.64,5.01-1.12,6.35-1.4-.59-4.07-1.19-8.14-1.78-12.21l-13.47-6.07Z" fill="#dadada"/>
    <path id="leftMiddlePhalanx3HeadUlnar" d="M200.16,65.41c-1.89,0-10.05,.07-12.22,2.14-.19,.19-.36,.38-.36,.38-1.22,1.38-1.59,3.08-1.74,5.08-.31,4.11,.38,8.68,.56,9.8,4.54-2.2,9.09-4.41,13.63-6.61,.05-3.6,.09-7.19,.14-10.79Z" fill="#dadada"/>
    <path id="leftDistalPhalanx3TuftRadial" d="M211.73,18.12c.3-1.02,.64-2.56,.62-4.45,0,0,0-.8-.1-1.6-.22-1.96-.91-8.09-5.39-10.79-.86-.52-2.76-1.45-5.76-1.25,.12,3.52,.24,7.04,.36,10.55,3.42,2.51,6.85,5.03,10.27,7.54Z" fill="#ededed"/>
    <path id="leftDistalPhalanx3Shaft" d="M210.18,46.43c-.94-3.63-1.15-6.63-1.16-8.75-.02-3.84,.62-7.59,1.62-13.48,.16-.97,.35-2.02,.35-2.02,.29-1.66,.55-3.04,.74-4.06-3.42-2.51-6.85-5.03-10.27-7.54-3.88,2.51-7.77,5.03-11.65,7.54,.01,.36,.03,.88,.07,1.49,.07,1.24,.2,3.26,.61,5.59,.4,2.27,.63,2.34,.85,4.18,0,0,.17,1.46,.16,3.18-.02,2.66-.84,7.65-2.65,13.87,3.31,1.95,6.62,3.91,9.92,5.86l11.42-5.86Z" fill="#ededed"/>
    <path id="leftDistalPhalanx3BaseRadial" d="M199.58,62.49c2.99,.08,5.62,.08,7.81,.04,2.16-.03,3.27-.08,4.33-.85,1.86-1.35,2.12-3.85,2.16-4.31,.19-2.2-.83-3.13-2.97-8.9-.32-.87-.57-1.59-.73-2.04l-11.42,5.86c.27,3.4,.55,6.8,.82,10.2Z" fill="#ededed"/>
    <path id="leftDistalPhalanx3BaseUlnar" d="M188.84,46.43c-.09,.18-.23,.43-.4,.73,0,0-.22,.39-.46,.77-2.18,3.48-4.53,4.9-4.58,8.36,0,.52,0,3.58,2.16,5.39,1.05,.88,2.32,1.22,5.12,1.35,.15,0,.36,.02,.65,.03,0,0,1,.03,2.16-.02,.98-.04,3.19-.21,6.09-.55-.27-3.4-.55-6.8-.82-10.2-3.31-1.95-6.62-3.91-9.92-5.86Z" fill="#ededed"/>
    <path id="leftDistalPhalanx3TuftUlnar" d="M201.1,.03c-1.51,.08-2.67,.43-3.41,.71-3.56,1.37-5.39,4.25-5.93,5.12,0,0-.21,.33-.39,.68-1.84,3.43-1.78,8.58-1.57,11.58,3.88-2.51,7.77-5.03,11.65-7.54-.12-3.52-.24-7.04-.36-10.55Z" fill="#ededed"/>
    <path id="leftMetacarpal2HeadRadial" d="M305.05,337.23c.15-2.18,.25-5.36-.03-9.17-.52-6.99-.87-11.78-4.04-16.72-3.3-5.15-7.9-7.73-9.71-8.63-2.5-1.25-4.77-1.85-6.41-2.17-.89,7.17-1.79,14.34-2.68,21.51,7.62,5.06,15.25,10.12,22.87,15.18Z" fill="#9d9d9c"/>
    <path id="leftMetacarpale2Shaft" d="M280.13,480.74c-.22-1.56-.37-2.81-.46-3.56-.84-7.19-1.4-16.64-.81-28.31,.14-2.69,.38-5.88,4.31-33.71,3.91-27.68,2.77-18.08,3.78-25.75,1.31-10.03,1.88-15.92,4.31-24.67,1.95-7,3-10.57,5.66-14.56,1.64-2.45,5.73-5.17,7.55-10.79,.29-.89,.46-1.65,.57-2.15-7.62-5.06-15.25-10.12-22.87-15.18-9.55,4.43-19.11,8.86-28.66,13.29,.09,.67,.24,1.67,.46,2.87,.89,4.68,2.14,7.94,2.5,9,1.47,4.27,.59,7.75,0,14.29-.35,3.85,.09,1.22,0,22.11-.05,11.81-.07,17.71-.27,22.65-.11,2.75-.56,13.37-2.16,27.24-.12,1.05-1.08,9.28-2.97,19.15,0,0-1.5,7.85-3.8,13.72-.87,2.21-1.86,4.35-1.86,4.35-.63,1.37-1.18,2.45-1.66,3.39-.65,1.28-1.23,2.37-1.68,3.2,5.27,3.62,10.55,7.24,15.82,10.86,7.41-2.47,14.82-4.94,22.22-7.41Z" fill="#9d9d9c"/>
    <path id="leftMetacarpal2BaseRadial" d="M256.61,511.07c1.75,.51,4.21,1.07,7.19,1.26,1.2,.07,3.32,.2,5.93-.18,2.18-.31,5.84-.84,8.27-2.7,1.12-.86,4.01-3.54,3.96-14.92,0-1.82-.14-3.42-.23-4.43-.35-3.91-1.03-7.12-1.6-9.36-7.41,2.47-14.82,4.94-22.22,7.41-.43,7.64-.86,15.27-1.29,22.91Z" fill="#9d9d9c"/>
    <path id="leftMetacarpal2BaseUlnar" d="M242.09,477.29c-2.22,3.64-3.48,6.63-3.87,7.98-.42,1.44-.61,2.82-.61,2.82-.28,1.98,.03,1.72-.34,5.67-.43,4.57-.96,6.07-.25,8.3,.76,2.38,2.37,3.85,2.7,4.13,2.45,2.16,4.36,1.38,11.33,3.24,.62,.17,1.11,.31,1.51,.43,.96,.29,1.3,.42,2.08,.66,.45,.14,1.13,.33,1.98,.53,.43-7.64,.86-15.27,1.29-22.91-5.27-3.62-10.55-7.24-15.82-10.86Z" fill="#9d9d9c"/>
    <path id="leftMetacarpal2HeadUlnar" d="M284.86,300.54c-1.19-.24-2.88-.5-4.92-.53-1.69-.02-9.07-.13-15.1,4.31-5.16,3.8-6.83,9.07-8.9,15.64-2.01,6.35-2.4,11.85-2.43,15.37,9.55-4.43,19.11-8.86,28.66-13.29,.89-7.17,1.79-14.34,2.68-21.51Z" fill="#9d9d9c"/>
    <path id="leftProximalPhalanx2HeadRadial" d="M321.03,188.13c.16-.5,.34-1.12,.53-1.82,0,0,.27-1.04,.5-2.06,1.44-6.56,.9-10.79,.71-12.04-.2-1.32-.25-1.59-.36-1.8-.83-1.57-2.93-2.11-8.95-2.61-2.08-.17-4.77-.35-7.95-.45-.23,3.57-.45,7.13-.68,10.7,5.4,3.36,10.8,6.72,16.2,10.08Z" fill="#c6c6c6"/>
    <path id="leftProximalPhalanx2Shaft" d="M313.15,274.67c-2.73-7.18-3.36-13.11-3.42-17.26-.07-5.05,.66-10.51,2.34-21.39,1.81-11.77,1.13-12.9,2.7-23.37,.91-6.1,1.56-10.62,3.15-16,.63-2.12,1.61-5.07,3.11-8.52-5.4-3.36-10.8-6.72-16.2-10.08-6.66,1.01-13.31,2.01-19.97,3.02,0,2.55-.06,6.26-.33,10.73-.44,7.27-1.13,11.53-2.43,21.03-1.55,11.42-2.33,17.13-3.01,23.1,0,0-1.26,11.01-4.07,19.92-.12,.39-.24,.76-.24,.76-1.41,4.27-2.95,7.53-4.13,9.77,5.64,4.8,11.29,9.61,16.93,14.41,8.53-2.04,17.06-4.07,25.58-6.11Z" fill="#c6c6c6"/>
    <path id="leftProximalPhalanx2BaseRadial" d="M286.41,297.02c2.1,.31,3.67,.9,4.72,1.38,2.62,1.21,3.66,2.33,6.79,3.72,.69,.31,1.5,.57,2.56,.77,1.17,.22,5.6,1.19,8.55-.72,1.82-1.18,2.39-3.18,3.52-7.19,.74-2.61,1.79-7.34,1.45-13.67-.15-2.79-.53-5.08-.84-6.65-8.53,2.04-17.06,4.07-25.58,6.11l-1.16,16.23Z" fill="#c6c6c6"/>
    <path id="leftProximalPhalanx2BaseUlnar" d="M270.64,266.37c-.57,1.16-1.39,2.88-2.34,4.97-2.24,4.95-3.41,7.41-4.04,9.98-1.08,4.37-2.39,9.28,.18,12.22,1.35,1.55,3.3,2.03,5.29,2.52,2.85,.7,4.61,.26,7.73,.18,2.16-.06,5.21,.04,8.95,.77l1.16-16.23c-5.64-4.8-11.29-9.61-16.93-14.41Z" fill="#c6c6c6"/>
    <path id="leftProximalPhalanx2HeadUlnar" d="M305.5,167.35c-2.47-.92-4.57-1.55-6.07-1.98-7.68-2.16-9.76-1.5-11.01-.54-.19,.15-.32,.26-.44,.38-2.13,2.04-2.18,5.13-2.61,10.41-.1,1.24-.27,3.12-.52,5.45,6.66-1.01,13.31-2.01,19.97-3.02,.23-3.57,.45-7.13,.68-10.7Z" fill="#c6c6c6"/>
    <path id="leftMiddlePhalanx2HeadRadial" d="M336.52,93.83c.98-1.4,2.72-4.35,2.7-8.27-.01-1.75-.03-4.51-1.9-6.3-1.06-1.02-2.07-1.11-6.79-2.16-2.42-.54-4.38-1-5.6-1.3-.35,2.95-.7,5.9-1.06,8.85,4.21,3.06,8.43,6.12,12.64,9.18Z" fill="#dadada"/>
    <path id="leftMiddlePhalanx2Shaft" d="M326.54,143.26c-.08-1.12-.19-2.73-.26-4.67-.16-4.52-.38-10.43,.72-17.8,.94-6.27,1.66-11.15,4.49-16.9,.2-.41,1.28-2.49,2.78-5.5,.98-1.96,1.76-3.56,2.25-4.57-4.21-3.06-8.43-6.12-12.64-9.18-5.66,1.51-11.31,3.03-16.97,4.54-.27,2.73-.7,6.69-1.31,11.47-1.14,8.82-1.71,13.22-2.7,16.9-.67,2.47-2.73,9.58-7.37,17.8-.98,1.74-1.87,3.16-2.52,4.16,4.96,3.4,9.91,6.81,14.87,10.21,6.22-2.16,12.44-4.31,18.65-6.47Z" fill="#dadada"/>
    <path id="leftMiddlePhalanx2BaseRadial" d="M306.14,163.94c2.76,.47,5.48,.71,8.17,.71h0c1.86-.01,4.63-.05,8.09-.9,2.84-.7,4.25-1.04,5.13-2.15,1.39-1.75,.53-4-.18-8.63-.36-2.33-.75-5.64-.82-9.72-6.22,2.16-12.44,4.31-18.65,6.47l-1.74,14.21Z" fill="#dadada"/>
    <path id="leftMiddlePhalanx2BaseUlnar" d="M293.02,139.51c-.89,1.27-2.04,3.14-2.96,5.6-.65,1.74-.93,3.1-.99,3.37-.69,3.21-1.51,6.97,.54,9.71,1.06,1.42,4.42,2.44,11.15,4.49,.43,.13,1.24,.38,2.32,.64,1.23,.3,2.29,.49,3.07,.62l1.74-14.21c-4.96-3.4-9.91-6.81-14.87-10.21Z" fill="#dadada"/>
    <path id="leftMiddlePhalanx2HeadUlnar" d="M324.94,75.8c-.27-.05-.63-.11-1.04-.18,0,0-.38-.07-.78-.14-7.54-1.37-10-2.46-12.4-.72-1.72,1.24-2.49,3.27-2.96,4.51-.33,.88-.4,1.67-.72,7.55-.05,.97-.1,1.78-.13,2.37,5.66-1.51,11.31-3.03,16.97-4.54,.35-2.95,.7-5.9,1.06-8.85Z" fill="#dadada"/>
    <path id="leftDistalPhalanx2TuftRadial" d="M342.93,32.97c.54-1.66,1.21-4.58,.59-8.09-.27-1.55-1.09-5.81-4.85-8.99-2.08-1.76-4.25-2.5-5.51-2.82l-.65,10.27c3.47,3.21,6.95,6.42,10.42,9.63Z" fill="#ededed"/>
    <path id="leftDistalPhalanx2Shaft" d="M339.22,59.29c-.1-.52-.23-1.29-.37-2.22-.41-2.8-.82-5.53-.54-8.99,.23-2.85,.81-5.01,1.08-5.93,.22-.76,.44-1.39,.65-1.94,.66-1.7,1.09-2.42,1.69-3.81,.33-.78,.79-1.93,1.21-3.42-3.47-3.21-6.95-6.42-10.42-9.63-4.37,2.1-8.74,4.19-13.11,6.29,.05,2.18,.23,3.93,.39,5.14,.22,1.62,.48,2.89,.63,5.12,.08,1.14,.09,2,.09,2.25,0,.93,0,4.43-1.08,8.99-.27,1.13-.68,2.67-1.32,4.45,2.94,2.44,5.89,4.87,8.83,7.31,4.09-1.2,8.19-2.41,12.28-3.61Z" fill="#ededed"/>
    <path id="leftDistalPhalanx2BaseRadial" d="M324.94,73.11c.92,.12,2.35,.31,4.09,.61,1.98,.34,2.18,.37,3.34,.61,1.34,.27,3.3,.69,5.75,.18,1.36-.28,3.36-.7,4.13-2.16,.76-1.42-.21-2.85-1.26-5.93-.5-1.46-.53-1.64-.76-2.45-.55-1.96-.86-3.59-1.03-4.67-4.09,1.2-8.19,2.41-12.28,3.61-.67,3.4-1.33,6.81-2,10.21Z" fill="#ededed"/>
    <path id="leftDistalPhalanx2BaseUlnar" d="M318.11,55.58c-.24,.7-.68,1.75-1.45,2.9-.4,.58-.75,1-1,1.28-2.23,2.5-4.27,2.85-4.67,5.09-.38,2.16,1.05,4.01,1.25,4.26,.71,.88,1.69,1.53,5.85,2.6,1.7,.44,4.03,.96,6.85,1.4,.67-3.4,1.33-6.81,2-10.21-2.94-2.44-5.89-4.87-8.83-7.31Z" fill="#ededed"/>
    <path id="leftDistalPhalanx2TuftUlnar" d="M333.16,13.07c-.98-.22-2.48-.41-4.2-.05-4.57,.96-6.91,5.05-7.73,6.47-2.46,4.29-2.06,8.57-1.83,10.15,4.37-2.1,8.74-4.19,13.11-6.29l.65-10.27Z" fill="#ededed"/>
    <path id="leftMetacarpal1HeadRadial" d="M371.95,440.41c1.38-1.82,3.23-4.56,4.85-8.18,2.17-4.84,3.37-7.76,2.88-11.51-.65-4.94-4.1-8.1-6.83-10.61-1.5-1.38-3.21-2.52-3.21-2.52-1.09-.73-2.09-1.28-2.92-1.69-2.29,5.84-4.59,11.69-6.88,17.53,4.04,5.66,8.07,11.32,12.11,16.98Z" fill="#9d9d9c"/>
    <path id="leftMetacarpal1BaseRadial" d="M293.46,524.4c1.3,.73,3.11,1.75,5.28,2.94,4,2.2,6.26,3.34,9.49,3.99,.13,.03,.24,.05,.34,.06,2.68,.47,5.79,1.01,8.24-.69,1.71-1.18,1.9-2.66,3.73-6.7,.97-2.13,2.63-5.3,4.31-8.45,.75-1.4,1.38-2.55,1.81-3.32-7.64-1.29-15.27-2.57-22.91-3.86-3.43,5.34-6.86,10.68-10.29,16.02Z" fill="#9d9d9c"/>
    <path id="leftMetacarpal1BaseUlnar" d="M296.27,492.73c-2,.73-5.62,2.37-8.81,5.93-1.46,1.63-3.2,4.08-4.31,7.37-.81,2.4-1.58,4.67-.99,7.28,.7,3.11,2.94,4.92,6.61,7.82,1.17,.92,2.5,1.85,2.5,1.85,.88,.6,1.64,1.08,2.19,1.42,3.43-5.34,6.86-10.68,10.29-16.02-2.49-5.22-4.99-10.43-7.48-15.65Z" fill="#9d9d9c"/>
    <path id="leftMetacarpal1Shaft" d="M339.05,428.82c-.75,2.67-1.75,5.88-3.05,9.49-.27,.74-1.43,3.96-3.07,7.77-2.19,5.11-5.16,11.94-10.43,20.13-3.18,4.95-6.54,10.18-12.4,15.91-5.14,5.02-10.14,8.42-13.84,10.61,2.49,5.22,4.99,10.43,7.48,15.65,7.64,1.29,15.27,2.57,22.91,3.86,2.59-4.38,4.77-7.92,6.28-10.34,3.64-5.83,9.64-15.17,11.16-17.45,.2-.31,1.04-1.56,2.11-3.29,0,0,.2-.33,.4-.66,1.71-2.83,7.03-13.15,10.85-19.66,1.69-2.88,3.07-4.98,3.89-6.23,4.05-6.15,7.84-10.93,10.61-14.2-4.04-5.66-8.07-11.32-12.11-16.98l-20.79,5.38Z" fill="#9d9d9c"/>
    <path id="leftMetacarpal1HeadUlnar" d="M366.72,405.91c-4.53-1.98-8.44-2.88-11.12-3.34-5.26-.89-9.14-1.58-11.69,.72-1.75,1.58-2.18,3.88-2.7,6.65-.77,4.14,.08,5.86-.18,10.07-.02,.32-.04,.5-.06,.77-.34,3.57-1.2,6.27-1.91,8.04l20.79-5.38c2.29-5.84,4.59-11.69,6.88-17.53Z" fill="#9d9d9c"/>
    <path id="leftProximalPhalanx1BaseUlnar" d="M368.73,403.41c-2.29-1.07-4.24-1.71-5.6-2.09-5.29-1.48-8.51-1.39-12.86-3.69-.93-.49-1.84-1.04-2.24-2.07-.39-1-.53-3.15,4.85-8.99,1.05-1.14,1.92-1.98,2.66-2.67,2.34-2.19,4.45-3.8,5.97-4.88l13.16,13.39-5.94,10.99Z" fill="#c6c6c6"/>
    <path id="leftProximalPhalanx1BaseRadial" d="M392.26,391.44c-.29,1.39-.7,3.36-1.21,5.71-1.3,5.98-2.01,7.99-2.57,10.11-.98,3.69-2.01,6.71-4.13,7.19-1.78,.4-3.76-1.13-5.67-2.61-.54-.42-1.02-.83-1.45-1.23-1.4-1.3-2.26-2.41-2.51-2.73-.85-1.06-2.49-2.58-5.99-4.48l5.94-10.99,17.58-.99Z" fill="#c6c6c6"/>
    <path id="leftProximalPhalanx1Shaft" d="M416.03,337.23c-2.38,4.03-5.53,9.68-8.85,16.64-3.33,6.97-5.47,12.41-8.09,19.06-1.87,4.76-4.25,11.03-6.83,18.52l-17.58,.99-13.16-13.39c4.9-5.37,8.84-10.02,11.69-13.48,3-3.66,7.24-8.96,11.87-16,4.46-6.78,5.97-10.12,6.47-14.2,.43-3.49,0-6.45-.46-8.43,5.05-.91,10.09-1.81,15.14-2.72,3.27,4.34,6.54,8.68,9.81,13.03Z" fill="#c6c6c6"/>
    <path id="leftProximalPhalanx1HeadRadial" d="M410.18,313.88c1.69,.37,6.91,1.75,8.87,6,1.64,3.56,.33,7.73-1.26,12.76-.62,1.97-1.28,3.54-1.76,4.58-3.27-4.34-6.54-8.68-9.81-13.03,1.32-3.44,2.64-6.88,3.95-10.32Z" fill="#c6c6c6"/>
    <path id="leftProximalPhalanx1HeadUlnar" d="M391.08,326.92c-.03-.73-.01-1.67,.16-2.75,.03-.21,.26-1.54,.84-3.03,.56-1.42,1.49-3.73,3.78-5.57,4.07-3.3,9.64-2.51,12.04-2.16,.96,.14,1.75,.33,2.28,.47-1.32,3.44-2.64,6.88-3.95,10.32-5.05,.91-10.09,1.81-15.14,2.72Z" fill="#c6c6c6"/>
    <path id="leftDistalPhalanx1TuftRadial" d="M453.3,270.69c1.81-1.35,2.66-2.81,3.05-3.64,.33-.69,.5-1.28,.62-1.73,.31-1.1,.73-2.57,.48-4.31-.26-1.85-1.15-3.21-1.78-3.99-1.39,1.75-2.77,3.5-4.16,5.24,.59,2.81,1.18,5.62,1.77,8.42Z" fill="#ededed"/>
    <path id="leftDistalPhalanx1Shaft" d="M428.5,302.39c.59-1.33,1.44-3.16,2.59-5.25,2.37-4.3,4.59-7.22,6.65-9.89,4.33-5.62,8.24-9.52,10.79-12.04,1.9-1.89,3.56-3.42,4.77-4.52-.59-2.81-1.18-5.62-1.77-8.42l-9.53,.26c-1.71,2.99-3.46,5.22-4.8,6.75-1.2,1.37-2.14,2.43-3.65,3.59-1.83,1.4-2.66,1.55-4.52,2.88-1.91,1.37-3.1,2.7-4.05,3.78-3.74,4.2-4.66,7.66-7.43,10.54-1.4,1.46-3,2.58-3,2.58-.63,.44-1.17,.77-1.54,.98,1.27,2.79,2.55,5.58,3.82,8.37,3.89,.13,7.78,.26,11.67,.4Z" fill="#ededed"/>
    <path id="leftDistalPhalanx1BaseRadial" d="M412.15,311.16c.61,.23,1.6,.64,2.75,1.26,4.91,2.67,5.75,5.68,8.38,5.58,1.87-.08,3.61-1.41,4.38-2.88,1.08-2.07-.12-3.74-.36-6.65-.07-.89-.04-1.27-.01-1.68,.13-1.91,.72-3.42,1.2-4.4-3.89-.13-7.78-.26-11.67-.4-1.56,3.05-3.12,6.11-4.67,9.16Z" fill="#ededed"/>
    <path id="leftDistalPhalanx1BaseUlnar" d="M413.01,293.63c-.68,.38-1.67,.95-2.83,1.67-.52,.32-2.12,1.35-3.36,2.21-3.88,2.69-5.95,4.52-6.47,7.19-.13,.69-.41,2.11,.36,3.24,1.06,1.55,3.24,1.24,6.47,1.8h0c1.68,.35,3.34,.83,4.98,1.43,1.56-3.05,3.12-6.11,4.67-9.16-1.27-2.79-2.55-5.58-3.82-8.37Z" fill="#ededed"/>
    <path id="leftDistalPhalanx1TuftUlnar" d="M455.68,257.02c-.17-.18-.45-.45-.86-.69-2.59-1.47-6.4,.73-7.91,1.62-1.23,.72-2.09,1.44-2.6,1.9-1.06,.96-1.8,1.92-2.31,2.67l9.53-.26c1.39-1.75,2.77-3.5,4.16-5.24Z" fill="#ededed"/>
    <path id="leftTrapezium" d="M281.4,517.87c-.72-.7-2.2-2.14-4.45-2.56-2.37-.44-5.37,.3-6.88,2.29-1.21,1.6-.84,3.17-.67,7.15,.05,1.28,.26,7.13-.54,12.54-.6,4.05-1.03,6.96-2.83,10.38-1.61,3.05-2.96,3.95-2.7,5.8,.43,3.04,4.7,4.76,6.61,5.53,4.61,1.86,8.8,1.42,11.73,1.08,1.39-.16,5.29-.71,9.84-2.83,3.8-1.77,6.15-3.74,8.76-5.93,4.5-3.77,6.76-5.73,7.42-9.03,.13-.68,.66-3.31-.67-5.8-.99-1.85-2.37-2.45-7.69-5.12-4.77-2.4-7.19-3.62-8.9-4.72-3.6-2.32-5.4-3.47-6.88-5.8-.58-.91-1.01-1.85-2.16-2.97Z" fill="#878787"/>
    <path id="leftTrapezoid" d="M261.79,515.26c-3.34-.97-5.93-1.64-6.88-1.89-4.63-1.23-4.08-1.72-6.74-2.16-2.74-.45-5.72-.93-8.09,.81-2.28,1.67-2.78,4.49-2.97,5.53-.41,2.28,.21,3.27,.67,6.88,.2,1.59,.23,3.76,.27,8.09,.06,5.71,.09,8.57-.27,9.84-.64,2.28-1.51,3.6-.81,5.12,.65,1.41,2.21,2.03,3.24,2.43,2.21,.86,3.15,.38,6.07,.67,4.21,.43,4.45,1.66,7.96,1.62,1.45-.02,3.19-.06,4.99-1.08,1.91-1.08,2.84-2.67,3.78-4.31,.41-.72,1.63-2.96,2.56-7.55,.52-2.57,.66-4.77,.94-9.17,.08-1.2,.32-4.21,.13-8.09-.13-2.71-.38-4.16-1.45-5.25-.65-.66-1.31-.88-3.4-1.49Z" fill="#878787"/>
    <path id="leftScaphoid" d="M236.99,558.46c.28-1.13,.95-3.87,3.1-4.85,1.09-.5,2.25-.41,4.18-.27,.94,.07,1.76,.2,3.37,.54,1.9,.41,3.2,.75,6.88,1.75,3.46,.94,3.91,1.07,4.72,1.35,1.91,.66,3,1.19,4.31,1.75,2.96,1.28,5.27,1.98,8.49,2.97,5.81,1.77,6.95,1.57,8.36,3.1,1.73,1.89,1.93,4.31,2.02,5.39,.12,1.51,.19,5.9-5.66,12.94-1.66,1.99-4.48,5.04-13.35,11.06-4.32,2.93-8.92,6.03-15.78,9.57-6.93,3.58-13.02,6.68-21.57,8.36-6.53,1.29-11.42,2.17-15.37-.81-4.24-3.2-4.67-8.79-4.72-9.57-.04-.6-.3-6.07,3.51-10.11,2.57-2.74,4.37-2.01,10.11-4.72,2.76-1.3,8.05-3.86,12.4-9.03,2.76-3.28,5.56-6.6,5.53-11.06-.02-3.13-1.42-4.74-.54-8.36Z" fill="#878787"/>
    <path id="leftCapitate" d="M189,512.69c.4-1.23,1.66-4.35,4.72-5.93,1.96-1.01,3.8-.9,7.69-.4,5.85,.74,8.75,1.37,12,1.89,9.48,1.49,10.89,.23,14.43,2.43,.72,.45,4.16,2.67,5.93,6.88,.8,1.9,.95,4.17,1.21,8.63,.17,2.81,.31,5.31,.13,8.63-.32,5.98-1.25,6.17-1.75,12.27-.18,2.17-.48,6.07,0,11.06,.47,4.84,1.15,5.31,.81,7.82-.57,4.16-3,6.98-5.12,9.44-2,2.32-5.46,6.33-11.46,7.96-1.83,.5-5.52,1.5-9.57,.13-2.63-.89-3.63-2.17-9.44-8.36-7.84-8.35-8.53-8.69-9.03-10.65-1.05-4.1,1.37-5.1,2.97-13.21,.69-3.51,2.04-10.36,.2-18.07-.84-3.54-2-5.76-3.51-12.67-.68-3.11-1.02-5.29-.2-7.82Z" fill="#878787"/>
    <path id="leftHamate" d="M138.7,524.63c.42-1.03,1.51-3.33,4.99-6.34,1.8-1.55,5.3-4.2,10.65-6.07,4.49-1.56,8.01-1.79,12.27-2.02,8.54-.47,15.08-.83,17.93,2.97,1.1,1.46,.28,1.72,1.89,7.69,1.38,5.11,2.08,5.3,3.24,9.84,1.22,4.81,1.43,8.54,1.48,9.57,.07,1.49,.16,5-.54,9.44-.83,5.23-2.34,9.12-3.1,10.92-1.76,4.15-2.84,6.7-5.39,9.17-.56,.54-6.85,6.47-11.73,4.45-.57-.24-2.16-1.01-5.12-7.69-2.73-6.13-2.29-7.49-4.31-12.13-1.52-3.48-3.6-8.11-8.09-11.87-2.63-2.2-3.16-1.64-8.53-5.6-4.97-3.66-6.27-5.44-6.58-7.48-.28-1.88,.37-3.45,.94-4.85Z" fill="#878787"/>
    <path id="leftPisiform" d="M118.58,538.99c2.47-3.74,6.2-5.03,6.88-5.26,2.59-.86,4.84-.71,6.07-.54-.37,2.45-.78,5.87-.94,9.98-.18,4.38-.01,7.91,.27,11.87,.38,5.31,1.1,13.16,2.56,23.19-2.58-.88-6.78-2.73-10.65-6.61-1.71-1.72-5.99-6.12-7.18-12.93-.5-2.87-.1-5.74,.71-11.47,.81-5.74,1.7-7.33,2.29-8.22Z" fill="#878787"/>
    <path id="leftTriquetral" d="M136.65,581.73c.4,2.16,1.14,5.82,3.91,9.17,1.18,1.42,1.98,2.39,3.35,2.83,.94,.3,3.36,.5,12.81-7.28,5.6-4.62,8.41-6.92,8.75-10.34,.25-2.46-.95-2.46-3.76-10.96-1.28-3.87-1.31-4.75-2.7-8.36-.89-2.33-1.88-4.89-3.64-7.55-.58-.88-1.88-2.81-4.02-4.72-2.39-2.14-3.94-2.56-6.74-4.18-6.75-3.9-7.74-7.21-9.44-6.61-2.04,.72-1.93,6.06-1.62,16.72,.12,4.02,.35,7.23,.81,13.48,.15,2.1,.7,9.26,2.29,17.8Z" fill="#878787"/>
    <path id="leftLunate" d="M149.29,598.91c.62-2.63,2.17-4.26,3.64-5.8,1.47-1.54,2.13-1.76,5.66-4.31,.36-.26,3.7-2.69,7.15-5.53,4.8-3.96,4.21-4.12,6.2-5.26,4.42-2.53,5.84-.9,8.63-3.37,2.19-1.93,2.5-3.98,5.12-4.85,.47-.16,1.72-.56,3.1-.13,1.16,.35,1.84,1.12,2.43,1.75,1.37,1.5,2.89,2.87,4.18,4.45,1.75,2.15,3.6,3.95,7.28,7.55,2.82,2.75,3.46,3.17,3.78,4.45,.47,1.93-.47,3.16-1.89,6.61-2.19,5.31-1.33,5.73-3.24,10.11-1.51,3.48-2.62,6.04-4.72,7.96-2.41,2.19-5.05,2.56-20.76,2.16-10.81-.28-13.86-.56-17.8-2.29-6.04-2.65-7.64-5.84-8.09-6.88-.47-1.08-1.37-3.63-.67-6.61Z" fill="#878787"/>
    <path id="leftRadius" d="M281.42,625.68c-13.58,29.45-17.27,29.8-20.49,42.34-2.54,9.87-2.49,18.38-2.43,30.74,.06,10.44,.97,19.2,1.89,25.62h-67.96c.04-8.18,.03-15.68,0-22.38-.1-20.8-.39-23.31-1.62-26.97-3.02-8.95-6.52-9.44-8.9-19.69-.05-.23-.66-5.1-1.89-14.83-.66-5.28-1.39-8.58-.27-12.94,.57-2.21,1.24-4.83,3.39-6.81,2.98-2.73,6.85-2.43,12.79-2.36,0,0,8.12,.09,20.49-.81,5.24-.38,10.89-.79,18.07-2.7,3.49-.93,10.07-2.72,17.53-7.01l29.39,17.8Z" fill="#706f6f"/>
    <path id="leftRadialStyloidProcess" d="M252.03,607.89c6.27-3.6,14.37-10.5,15.37-11.33,3.05-2.52,5.91-5.05,10.25-5.39,1.02-.08,4.67-.37,7.01,1.89,2.54,2.44,2.13,6.55,1.81,9.7-1.61,15.48-5.04,22.93-5.04,22.93l-29.39-17.8Z" fill="#706f6f"/>
    <path id="leftUlna" d="M143.09,611.93c3.06,2.54,6.42,3.32,8.36,3.78,2.09,.49,2.23,.24,9.71,.81,5.66,.43,6.54,.65,7.55,1.08,.73,.31,4.33,1.83,6.2,5.39,1.11,2.11,1.05,3.88,.54,9.98-.67,7.97-1,11.96-1.35,13.48-1.49,6.54-3.29,7.83-5.12,13.21-1.77,5.21-1.74,10.19-1.62,19.96,.14,10.82,1.14,14.59,1.89,27.24,.44,7.44,.53,13.48,.54,17.26h-36.94c-.23-10.39-.14-18.89,0-24.81,.14-6.18,.36-10.86,.54-21.03,.27-15.13,.04-18.09-.81-21.84-.9-3.99-1.15-2.91-5.39-15.37-4.33-12.72-4.7-15.71-4.85-17.26l20.76-11.87Z" fill="#706f6f"/>
    <path id="leftUlnarStyloidProcess" d="M122.32,623.8c-.68-6.88,.42-11.76,1.35-15.91,1.21-5.37,2.01-8.76,4.31-9.44,3.44-1.01,8.2,4.58,9.82,6.5,2.96,3.48,2.56,4.73,5.28,6.99l-20.76,11.87Z" fill="#706f6f"/>
  </g>
  <g id="right">
    <path id="leftMetacarpal5HeadRadial-2" data-name="leftMetacarpal5HeadRadial" d="M836.3,380.59c.03-.5,.07-1.21,.16-2.06,0,0,.32-3,1.11-5.88,1.43-5.21,3.65-13.29,10.07-16.18,6.01-2.71,12.63,.52,14.38,1.44-1.39,5.03-2.78,10.07-4.17,15.1-7.18,2.53-14.37,5.05-21.55,7.58Z" fill="#9d9d9c"/>
    <path id="leftMetacarpal5Shaft-2" data-name="leftMetacarpal5Shaft" d="M800.35,481.6c.3-.33,.74-.83,1.26-1.44,7.66-8.94,11.19-17.35,15.1-24.81,4.16-7.94,8.56-16.33,12.58-28.4,3.06-9.19,6.43-18.99,7.19-32.36,.33-5.79,.09-10.63-.19-13.99,7.18-2.53,14.37-5.05,21.55-7.58,4.62,5.02,9.24,10.05,13.86,15.07-.37,1.51-.88,3.32-1.63,5.36-.07,.19-.12,.34-.15,.42,0,0-1.01,2.72-2.28,5.34-1.73,3.58-4.11,6.8-7.07,12.28-.7,1.3-1.68,3.12-2.77,5.52-1.95,4.3-2.25,6.06-4.25,11.87-1.8,5.24-3.45,9.33-5.57,14.61-.63,1.56-1.58,3.91-2.9,7.04-1.71,4.03-2.37,5.39-3.75,8.75-.35,.86-1.14,2.78-2.69,6.86-3.15,8.29-6.77,18.43-7.55,24.45-.19,1.48-.32,3-.32,3-.21,2.44-.28,4.53-.28,6.16l-19.56,.54c-3.53-6.23-7.05-12.46-10.58-18.69Z" fill="#9d9d9c"/>
    <path id="leftMetacarpal5BaseRadial-2" data-name="leftMetacarpal5BaseRadial" d="M804.35,512.75c-1-.15-8.53-1.38-11.37-7.42-1.95-4.16-.63-8.35,.63-12.31,1.76-5.55,4.8-9.34,6.74-11.41,3.53,6.23,7.05,12.46,10.58,18.69-2.19,4.15-4.39,8.3-6.58,12.46Z" fill="#9d9d9c"/>
    <path id="leftMetacarpal5BaseUlnar-2" data-name="leftMetacarpal5BaseUlnar" d="M830.49,499.75c-.01,1.06-.1,2.42-.39,3.97-.03,.14-.42,2.1-1.16,4.12-.33,.88-5.32,14.06-12.22,14.02-.48,0-.89-.07-1.27-.2-3.53-1.19-4.47-4.01-8.8-7.35-.48-.37-1.26-.95-2.3-1.57,2.19-4.15,4.39-8.3,6.58-12.46l19.56-.54Z" fill="#9d9d9c"/>
    <path id="leftMetacarpal5HeadUlnar-2" data-name="leftMetacarpal5HeadUlnar" d="M862.02,357.91c2.33,.58,7.41,2.22,10.07,6.83,1.85,3.21,1.7,6.41,1.44,11.87-.23,4.9-1.1,8.86-1.81,11.48-4.62-5.02-9.24-10.05-13.86-15.07,1.39-5.03,2.78-10.07,4.17-15.1Z" fill="#9d9d9c"/>
    <path id="leftMetacarpal4HeadRadial-2" data-name="leftMetacarpal4HeadRadial" d="M781.25,350.46c2.67-4.86,4.26-8.94,5.26-11.97,1.16-3.52,2.19-7.69,6.04-10.7,.59-.46,1.06-.75,1.15-.81,4.46-2.73,9.96-1.62,12.94-.72-1.36,5.78-2.72,11.57-4.08,17.35-7.1,2.28-14.21,4.56-21.31,6.85Z" fill="#9d9d9c"/>
    <path id="leftMetacarpal4BaseRadial-2" data-name="leftMetacarpal4BaseRadial" d="M773.25,503.53c-1.9,.15-4.78,.18-8.17-.54-2.71-.58-4.07-.86-5.31-1.89-3.48-2.86-3.58-8.52-3.64-10.52-.02-.57,0-1.09,.03-1.6,.25-3.25,.99-5.01,2.13-9.19,.23-.85,.56-2.13,.92-3.7,5.65,3.21,11.29,6.42,16.94,9.63-.96,5.93-1.93,11.87-2.89,17.8Z" fill="#9d9d9c"/>
    <path id="leftMetacarpal4BaseUlnar-2" data-name="leftMetacarpal4BaseUlnar" d="M789.68,480.64c.67,1.38,1.58,3.66,1.8,6.6,0,.07,.1,1.45-.02,2.8-.34,3.83-2.36,10.58-7.42,12.67-1.11,.46-2.21,.58-4.39,.81-2.64,.28-4.85,.16-6.39,0,.96-5.93,1.93-11.87,2.89-17.8,4.51-1.7,9.02-3.39,13.53-5.09Z" fill="#9d9d9c"/>
    <path id="leftMetacarpal4Shaft-2" data-name="leftMetacarpal4Shaft" d="M819.16,356.78c-.1,1.26-.35,3.04-1,5.08-.16,.51-.59,1.86-1.48,3.55-1.53,2.88-3.37,4.58-6.07,9.04-1.54,2.54-4.21,7.48-8.63,24.81-3.52,13.79-2.53,13.46-6.2,29.3-3.21,13.87-5.31,19.88-6.74,31.82-1.22,10.18-.7,14.14-.27,16.45,.05,.27,.19,1.01,.42,1.96,.13,.54,.29,1.16,.5,1.86-4.51,1.7-9.02,3.39-13.53,5.09-5.65-3.21-11.29-6.42-16.94-9.63,.72-3.11,1.34-5.62,1.78-7.36,.56-2.22,.84-3.27,1.6-6.31,.57-2.29,.5-2.08,1.16-4.72,.83-3.34,1.5-5.96,1.91-7.57,.49-1.93,.88-3.4,1.02-3.94,.82-3.16,1.44-5.44,1.71-6.48,.62-2.31,.71-2.7,3.03-11.7,1.97-7.62,2.95-11.44,3-11.61,.63-2.24,1.58-5.47,2.6-10.09,0,0,.26-1.17,.51-2.39,2.93-14.25,4.4-21.37,3.6-28.04-.5-4.19-1.99-10.7-1.99-15.81,0-1.56,.14-3.24,.55-5.04,.44-1.95,1.07-3.51,1.57-4.57,7.1-2.28,14.21-4.56,21.31-6.85,5.53,4.39,11.06,8.78,16.59,13.17Z" fill="#9d9d9c"/>
    <path id="leftMetacarpal4HeadUlnar-2" data-name="leftMetacarpal4HeadUlnar" d="M806.65,326.27c2.5,.28,8.8,1.29,11.51,5.39,.3,.45,.54,.92,.57,.98,1.94,3.76,1.17,7.61,.87,9.44-.52,3.18-.86,7.77-.44,14.7-5.53-4.39-11.06-8.78-16.59-13.17,1.36-5.78,2.72-11.57,4.08-17.35Z" fill="#9d9d9c"/>
    <path id="leftProximalPhalanx5HeadRadial-2" data-name="leftProximalPhalanx5HeadRadial" d="M886.93,273.58c.78-2.12,1.23-3.9,1.49-5.17,.63-3.08,.67-5.4,2.56-7.65,0,0,.26-.31,.52-.56,3.26-3.21,12.81-.54,14.58-.03-1.61,3.75-3.21,7.5-4.82,11.25-4.78,.72-9.55,1.43-14.33,2.15Z" fill="#c6c6c6"/>
    <path id="leftProximalPhalanx5Shaft-2" data-name="leftProximalPhalanx5Shaft" d="M853.6,327.48c.69-.6,1.69-1.47,2.85-2.54,1.94-1.8,9.56-9.21,17.53-21.57,3.19-4.96,9-13.95,11.33-23.73,.03-.14,.4-1.66,.97-3.7,.28-1.03,.52-1.85,.67-2.34,4.78-.72,9.55-1.43,14.33-2.15,3.27,4,6.54,8,9.8,12.01-2.88,5.2-4.01,7.22-4.18,7.49v.02s-.27,.4-.52,.81c-.34,.58-8.28,20.14-9.2,22.38-1.82,4.43-7.46,17.15-8.17,21.19-.1,.59-.19,1.19-.19,1.19-.35,2.38-.45,4.36-.47,5.74l-19.61-.72c-5.04-4.69-10.08-9.38-15.13-14.07Z" fill="#c6c6c6"/>
    <path id="leftProximalPhalanx5BaseRadial-2" data-name="leftProximalPhalanx5BaseRadial" d="M862.97,354.07c-1.49-.66-3.93-1.6-7.06-2.17-5.59-1.02-7.56,.2-9.44-1.35-3.85-3.17-.7-12.47-.54-12.94,1.92-5.5,5.76-8.73,7.67-10.13,5.04,4.69,10.08,9.38,15.13,14.07-1.92,4.17-3.84,8.35-5.76,12.52Z" fill="#c6c6c6"/>
    <path id="leftProximalPhalanx5BaseUlnar-2" data-name="leftProximalPhalanx5BaseUlnar" d="M888.34,342.27c0,1.55-.17,3.74-.84,6.26-.24,.91-.66,2.29-1.39,3.9-.98,2.16-4.12,9.09-8.9,9.44-.43,.03-.81,0-1.16-.08-3.49-.81-4.92-3.01-8.28-5.32-1.01-.7-2.59-1.64-4.81-2.41,1.92-4.17,3.84-8.35,5.76-12.52l19.61,.72Z" fill="#c6c6c6"/>
    <path id="leftProximalPhalanx5HeadUlnar-2" data-name="leftProximalPhalanx5HeadUlnar" d="M906.08,260.18c.4,.18,.96,.46,1.6,.84,1.16,.69,6.83,4.05,7.55,9.44,.31,2.31-.51,4.42-2.16,8.63-.72,1.83-1.45,3.31-2,4.35-3.27-4-6.54-8-9.8-12.01,1.61-3.75,3.21-7.5,4.82-11.25Z" fill="#c6c6c6"/>
    <path id="leftMiddlePhalanx5HeadUlnar-2" data-name="leftMiddlePhalanx5HeadUlnar" d="M927.64,203.1c1.27,.19,3.14,.58,5.27,1.46,2.17,.9,3.26,1.34,3.9,2.31,1.32,2.01,.36,4.88-.81,8.36-.55,1.64-1.31,3.15-1.39,3.3-.37,.73-.72,1.33-.99,1.77l-9.51-8.73c1.18-2.82,2.36-5.65,3.54-8.47Z" fill="#dadada"/>
    <path id="leftMiddlePhalanx5HeadRadial-2" data-name="leftMiddlePhalanx5HeadRadial" d="M909.53,213.9c-.15-1.01-.26-2.55,.08-4.36,.1-.53,.4-1.97,1.31-3.74,.87-1.71,3.05-5.99,6.74-6.47,1-.13,1.81,.1,3.38,.56,2.97,.88,5.19,2.21,6.6,3.21-1.18,2.82-2.36,5.65-3.54,8.47-4.86,.78-9.71,1.55-14.57,2.33Z" fill="#dadada"/>
    <path id="leftMiddlePhalanx5BaseRadial-2" data-name="leftMiddlePhalanx5BaseRadial" d="M906.08,257.47c-.38-.14-.91-.36-1.54-.63,0,0-1.72-.76-3.33-1.69-4.57-2.65-8.04-4.66-8.63-7.55-.66-3.24,2.36-7.25,7.01-9.98,3.49,3.66,6.99,7.33,10.48,10.99l-3.99,8.86Z" fill="#dadada"/>
    <path id="leftMiddlePhalanx5BaseUlnar-2" data-name="leftMiddlePhalanx5BaseUlnar" d="M925.58,250.03c-.05,.9-.19,2.23-.64,3.77-.58,1.95-1.54,5.2-4.04,6.47-.53,.27-1.74,.76-7.28-.54-3.14-.74-5.71-1.59-7.53-2.26l3.99-8.86c5.17,.48,10.34,.95,15.51,1.43Z" fill="#dadada"/>
    <path id="leftMiddlePhalanx5Shaft-2" data-name="leftMiddlePhalanx5Shaft" d="M933.61,220.3c-.94,1.3-2.24,3.24-3.55,5.72-1.64,3.1-4.2,8.07-4.85,14.83-.21,2.15-.3,5.32,.37,9.18-5.17-.48-10.34-.95-15.51-1.43-3.49-3.66-6.99-7.33-10.48-10.99,5.35-6.18,8.58-11.7,9.44-14.83,.47-1.7,.65-3.32,.65-3.32,.25-2.27,.07-4.2-.14-5.56,4.86-.78,9.71-1.55,14.57-2.33l9.51,8.73Z" fill="#dadada"/>
    <path id="leftDistalPhalanx5TuftRadial-2" data-name="leftDistalPhalanx5TuftRadial" d="M932.76,162.73c.36-1.42,1.2-3.79,3.24-5.93,.91-.96,3.6-3.78,7.55-3.78,1.41,0,2.56,.37,3.31,.67-1.41,2.51-2.83,5.03-4.24,7.54-3.28,.5-6.57,1-9.85,1.49Z" fill="#ededed"/>
    <path id="leftDistalPhalanx5Shaft-2" data-name="leftDistalPhalanx5Shaft" d="M923.86,182.95c4.83-3.56,6.32-6.79,6.74-9.17,.25-1.41,.31-3.58,1.14-7.25,.37-1.61,.75-2.93,1.02-3.81,3.28-.5,6.57-1,9.85-1.49l6.09,8.61c-.78,.84-1.73,1.96-2.7,3.35-.14,.2-.76,1.11-1.39,2.2-3.32,5.84-3.74,12-3.78,12.67-.05,.79-.05,1.43-.05,1.75l-9.88,1.43-7.07-8.3Z" fill="#ededed"/>
    <path id="leftDistalPhalanx5BaseRadial-2" data-name="leftDistalPhalanx5BaseRadial" d="M927.49,199.6c-1.04-.55-2.48-1.34-4.16-2.36-4.99-3.02-7.48-4.56-7.49-6.35,0-1.19,1.19-2.29,3.6-4.49,1.75-1.61,3.35-2.74,4.44-3.45l7.07,8.3c-1.15,2.78-2.29,5.56-3.44,8.35Z" fill="#ededed"/>
    <path id="leftDistalPhalanx5BaseUlnar-2" data-name="leftDistalPhalanx5BaseUlnar" d="M940.8,189.82c.1,1.01,.3,2.87,.55,5.21,.56,5.17,.7,6.07,.03,6.8-1.21,1.32-3.84,.75-7.28,0-2.88-.62-5.14-1.54-6.62-2.23,1.15-2.78,2.29-5.56,3.44-8.35l9.88-1.43Z" fill="#ededed"/>
    <path id="leftDistalPhalanx5TuftUlnar-2" data-name="leftDistalPhalanx5TuftUlnar" d="M946.85,153.69c1.77,.71,2.71,1.71,3.16,2.29,2.66,3.4,1.13,8.34,.54,10.25-.41,1.34-1.08,2.47-1.08,2.47-.29,.48-.56,.87-.77,1.15l-6.09-8.61c1.41-2.51,2.83-5.03,4.24-7.54Z" fill="#ededed"/>
    <path id="leftProximalPhalanx4HeadRadial-2" data-name="leftProximalPhalanx4HeadRadial" d="M811.95,208.24c.2-2.75,1-8.65,4.85-13.48,1.19-1.49,3.01-3.71,5.93-4.31,1.13-.23,2.05-.15,3.56,0,1.83,.18,4.22,.61,6.96,1.62-.97,3.87-1.94,7.73-2.91,11.6-6.13,1.53-12.26,3.06-18.39,4.58Z" fill="#c6c6c6"/>
    <path id="leftProximalPhalanx4Shaft-2" data-name="leftProximalPhalanx4Shaft" d="M793.95,297.12c1.53-1.84,2.56-3.44,3.17-4.47,.98-1.64,3.12-5.78,6.47-21.03,1.16-5.28,.99-5.61,3.51-21.57,3.27-20.74,3.57-20.28,3.78-25.08,.25-5.67,.2-7.5,.48-11.27,.1-1.3,.27-3.17,.6-5.45,6.13-1.53,12.26-3.06,18.39-4.58,5.28,3.42,10.57,6.83,15.85,10.25-.38,1.86-.82,3.32-1.15,4.28-1.47,4.34-2.97,5.93-4.78,10.82-.51,1.37-.81,2.36-1.18,3.6-1.95,6.5-2.03,11.53-3.14,20.67-.69,5.69-1.73,14.32-2.85,18.85-.15,.61-.73,2.9-1.03,6.06-.14,1.45-.16,2.56-.17,3.13-.13,6.99,.26,12.82,.26,12.82,.24,3.52,.44,8.61,.28,15.22-7.08,.54-14.16,1.08-21.25,1.62-5.75-4.62-11.5-9.25-17.25-13.87Z" fill="#c6c6c6"/>
    <path id="leftProximalPhalanx4BaseRadial-2" data-name="leftProximalPhalanx4BaseRadial" d="M806.65,323.31c-3.23-.94-5.88-1.12-7.71-1.1-4.67,.04-6.96,1.35-9.31-.16-1.71-1.09-2.31-2.94-2.75-4.31-1.28-3.94-.04-7.63,1.08-10.52,.79-2.04,1.63-3.65,2.21-4.68,1.33-2.35,2.72-4.16,3.79-5.41,5.75,4.62,11.5,9.25,17.25,13.87-1.52,4.11-3.03,8.21-4.55,12.32Z" fill="#c6c6c6"/>
    <path id="leftProximalPhalanx4BaseUlnar-2" data-name="leftProximalPhalanx4BaseUlnar" d="M832.45,309.37c.4,8.28-2.3,13.55-3.78,15.91-1.32,2.12-3.55,5.7-6.47,5.66-2.43-.03-3.38-2.55-7.01-4.85-3.2-2.03-6.44-2.6-8.54-2.78,1.52-4.11,3.03-8.21,4.55-12.32,7.08-.54,14.16-1.08,21.25-1.62Z" fill="#c6c6c6"/>
    <path id="leftProximalPhalanx4HeadUlnar-2" data-name="leftProximalPhalanx4HeadUlnar" d="M833.25,192.07c1.53,.2,3.72,.58,6.28,1.34,2.71,.81,5.48,1.64,6.99,2.98,3.29,2.9,2.75,10.07-.33,17.53-5.28-3.42-10.57-6.83-15.85-10.25,.97-3.87,1.94-7.73,2.91-11.6Z" fill="#c6c6c6"/>
    <path id="leftMiddlePhalanx4HeadRadial-2" data-name="leftMiddlePhalanx4HeadRadial" d="M836.09,118.99c-.1-1.47-.1-3.59,.39-6.09,.21-1.06,.46-1.96,.69-2.67,.92-2.84,2.12-6.58,4.58-7.28,.84-.24,1.39,0,4.33,1.12,2.93,1.13,5.23,1.99,6.54,2.48-.86,3.19-1.72,6.37-2.59,9.56l-13.94,2.88Z" fill="#dadada"/>
    <path id="leftMiddlePhalanx4BaseRadial-2" data-name="leftMiddlePhalanx4BaseRadial" d="M832.23,189.27c-1.35-.3-3.17-.78-5.28-1.53-.27-.1-1.65-.61-3-1.2-4.68-2.07-7.02-3.11-8.09-5.39-1.21-2.58-.16-5.46,1.89-10.79,1.03-2.68,2.16-4.81,3.04-6.31,4.95,4.22,9.9,8.43,14.86,12.65-1.14,4.19-2.28,8.39-3.41,12.58Z" fill="#dadada"/>
    <path id="leftMiddlePhalanx4BaseUlnar-2" data-name="leftMiddlePhalanx4BaseUlnar" d="M853.18,173.45c.24,.6,2.68,6.93-.65,12.28-.39,.63-2.66,4.19-6.74,5.39-.18,.05-.37,.1-.59,.14-2.75,.52-4.65-.06-8.31-.95-1.09-.27-2.69-.64-4.66-1.04,1.14-4.19,2.28-8.39,3.41-12.58,5.85-1.08,11.69-2.16,17.54-3.25Z" fill="#dadada"/>
    <path id="leftMiddlePhalanx4Shaft-2" data-name="leftMiddlePhalanx4Shaft" d="M862.78,125.59c-.44,.98-1.13,2.52-2.02,4.38-1.56,3.25-2.6,4.97-3.1,6.13-3.01,6.9-3.69,12.92-4.31,18.34-.14,1.19-.35,3.08-.48,5.51-.19,3.36-.14,6.19-.06,8.24,.09,2.07,.24,3.85,.38,5.25-5.85,1.08-11.69,2.16-17.54,3.25-4.95-4.22-9.9-8.43-14.86-12.65,1.82-2.65,3.99-6.14,6.13-10.41,3.28-6.58,4.9-11.9,5.93-15.37,1.57-5.26,3.12-10.58,3.24-17.8,.01-.62,0-1.14,0-1.48l13.94-2.88,12.75,9.48Z" fill="#dadada"/>
    <path id="leftMiddlePhalanx4HeadUlnar-2" data-name="leftMiddlePhalanx4HeadUlnar" d="M852.61,106.55c1.2,.36,2.2,.57,2.89,.71,4.58,.89,7.69,.4,9.17,2.43,.03,.05,.07,.1,.11,.17,.92,1.46,.9,3.1,.7,4.69-.27,2.08-1.11,6.04-2.7,11.06l-12.75-9.48c.86-3.19,1.72-6.37,2.59-9.56Z" fill="#dadada"/>
    <path id="leftDistalPhalanx4TuftRadial-2" data-name="leftDistalPhalanx4TuftRadial" d="M854.96,63.03c1.09-4.63,3.1-7.32,4.84-8.91,.11-.1,.21-.19,.28-.25,.77-.67,4.68-3.92,9.44-3.24,.37,.05,.93,.16,1.6,.38l-3.48,9.91-12.69,2.11Z" fill="#ededed"/>
    <path id="leftDistalPhalanx4Shaft-2" data-name="leftDistalPhalanx4Shaft" d="M848.09,84.37c1.35-2.06,3.01-4.93,4.18-8.13,.6-1.65,.84-2.74,.92-3.12,.41-2.03,.28-3.08,.45-4.74,.13-1.29,.45-3.13,1.34-5.35l12.69-2.11c3.02,2.91,6.05,5.81,9.07,8.72-.17,.53-.42,1.22-.73,2.03-.35,.9-1.03,2.64-2.02,4.46-1.57,2.89-2.23,2.85-3.09,5.05-.47,1.19-.63,2.12-.82,3.16-.28,1.57-.54,3.9-.27,6.8l-12.39,2.87c-3.1-3.21-6.21-6.42-9.31-9.62Z" fill="#ededed"/>
    <path id="leftDistalPhalanx4BaseRadial-2" data-name="leftDistalPhalanx4BaseRadial" d="M853.36,104.34c-1.55-.44-3.8-1.23-6.22-2.75-2.57-1.6-5.88-3.67-5.93-6.47-.02-.98,.37-1.66,2.43-4.58,1.74-2.48,3.27-4.57,4.45-6.16,3.1,3.21,6.21,6.42,9.31,9.62-1.35,3.45-2.69,6.89-4.04,10.34Z" fill="#ededed"/>
    <path id="leftDistalPhalanx4BaseUlnar-2" data-name="leftDistalPhalanx4BaseUlnar" d="M869.79,91.13c.11,1.44,.24,3.46,.27,5.88,.08,5.38-.36,6.23-.81,6.74-1.42,1.59-3.85,1.73-6.47,1.89-2.48,.15-4.64-.25-6.2-.54-1.33-.25-2.42-.53-3.21-.76,1.35-3.45,2.69-6.89,4.04-10.34l12.39-2.87Z" fill="#ededed"/>
    <path id="leftDistalPhalanx4TuftUlnar-2" data-name="leftDistalPhalanx4TuftUlnar" d="M871.13,51.01c1.26,.41,4.43,1.65,5.95,4.74,.78,1.6,.81,3.06,.82,5.35,.01,2.04-.18,5-1.17,8.54-3.02-2.91-6.05-5.81-9.07-8.72l3.48-9.91Z" fill="#ededed"/>
    <path id="leftMetacarpal3HeadRadial-2" data-name="leftMetacarpal3HeadRadial" d="M717.57,337.28c-.19-2.84-.27-6.85,.27-11.6,.97-8.44,1.44-14.6,5.93-18.07,1.83-1.41,3.91-2.08,6.26-2.83,3.56-1.14,6.69-1.43,8.84-1.48,.56,7.42,1.12,14.83,1.67,22.25-7.66,3.91-15.32,7.82-22.98,11.73Z" fill="#9d9d9c"/>
    <path id="leftMetacarpal3Shaft-2" data-name="leftMetacarpal3Shaft" d="M720.17,478.39c.32-.83,.75-2.01,1.17-3.45,0,0,.31-.95,.52-1.93,.59-2.69,.7-6.2,1.77-21.53,1.7-24.35,1.81-20.33,2.29-30.88,.2-4.28,.4-13.46,.81-31.82,.22-9.72,.32-15.69-.67-23.87-.88-7.18-2.1-11.94-3.37-15.78-1.65-5-3.58-9.01-5.12-11.87,7.66-3.91,15.32-7.82,22.98-11.73l23.98,9.98c.05,1.02,.05,2.25-.03,3.64-.04,.57-.15,2.11-.47,3.84-.46,2.5-.83,2.55-2.17,6.94-.37,1.22-1.02,3.43-1.67,6.21,0,0-.23,1-.45,2.03-1.23,5.83-2.56,18.42-3.05,23.05-.81,7.63-.87,7.92-1.18,11.15-.26,2.75-.44,4.88-.83,8.66-.02,.23-.34,3.26-.69,6.34-1.21,10.58-1.96,13.77-2.86,22.57-.16,1.56-.41,3.99-.64,7.23-.35,4.8-.87,12.12-.54,21.3,.15,4.11,.5,9.53,1.35,15.91-5.01,3.42-10.03,6.83-15.04,10.25-5.35-2.09-10.71-4.17-16.06-6.26Z" fill="#9d9d9c"/>
    <path id="leftMetacarpal3BaseRadial-2" data-name="leftMetacarpal3BaseRadial" d="M736.98,506.22c-2.42,.5-5.88,.9-9.92,.27-3.84-.6-6.93-1.08-8.77-3.57-1.51-2.04-1.57-4.62-1.67-8.84-.05-2.2,.12-3.89,.2-4.57,.3-2.56,1.08-6.53,3.35-11.13,5.35,2.09,10.71,4.17,16.06,6.26,.25,7.19,.5,14.38,.75,21.57Z" fill="#9d9d9c"/>
    <path id="leftMetacarpal3BaseUlnar-2" data-name="leftMetacarpal3BaseUlnar" d="M751.28,474.4c1.35,5.76,2.3,10.71,2.97,14.56,1.41,8.15,1.5,11-.27,12.94-.64,.7-1.52,1.29-6.42,2.43-4.39,1.03-8.06,1.58-10.57,1.89-.25-7.19-.5-14.38-.75-21.57,5.01-3.42,10.03-6.83,15.04-10.25Z" fill="#9d9d9c"/>
    <path id="leftMetacarpal3HeadUlnar-2" data-name="leftMetacarpal3HeadUlnar" d="M738.87,303.3c2.25-.51,7.91-1.45,12.94,1.62,3.9,2.38,5.47,5.99,7.82,11.6,1.75,4.17,3.94,10.6,4.89,19.01l-23.98-9.98c-.56-7.42-1.12-14.83-1.67-22.25Z" fill="#9d9d9c"/>
    <path id="leftProximalPhalanx3HeadRadial-2" data-name="leftProximalPhalanx3HeadRadial" d="M725.93,174.54c-.33-1.4-1.72-7.9,2.16-13.21,1.76-2.42,3.93-3.65,5.12-4.31,5.06-2.81,10.06-2.47,12.2-2.19-.45,3.88-.9,7.75-1.35,11.63l-18.12,8.09Z" fill="#c6c6c6"/>
    <path id="leftProximalPhalanx3Shaft-2" data-name="leftProximalPhalanx3Shaft" d="M717.42,276.82c3.2-5.56,5.14-10.58,6.35-14.37,2.48-7.77,3.1-14.27,3.51-18.34,.79-7.85-.04-8.05,.27-22.11,.12-5.34,.43-14.01,.81-22.11,.35-7.45,.57-10.43-.27-15.1-.12-.67-1.09-3.34-1.72-7.1-.23-1.35-.36-2.45-.43-3.15l18.12-8.09c6.12,2.89,12.24,5.78,18.36,8.66-.44,3.04-.86,4.71-1.19,5.7-.03,.09-.12,.36-.24,.74,0,0-.49,1.54-.86,3.13-.77,3.29-1.3,33.55-1.3,33.55-.03,1.62-.28,7.4-.78,18.95-.14,3.12-.16,6.24-.3,9.36-.18,4.08-.41,8.02,.27,13.48,.02,.18,.04,.31,.06,.45,.52,3.95,1.38,8.56,2.81,13.76-6.78,3.08-13.56,6.17-20.34,9.25-7.71-2.22-15.42-4.44-23.12-6.67Z" fill="#c6c6c6"/>
    <path id="leftProximalPhalanx3BaseRadial-2" data-name="leftProximalPhalanx3BaseRadial" d="M740.59,300.36c-3.35,.03-5.9,.63-7.65,1.19-2.3,.74-4.88,1.73-8.33,1.29-.27-.04-.54-.1-.84-.21-4.53-1.55-6.35-7.34-7.01-9.44-1.78-5.67-.62-10.84,0-13.75,.23-1.1,.48-2,.66-2.62,7.71,2.22,15.42,4.44,23.12,6.67,.01,5.63,.03,11.25,.04,16.88Z" fill="#c6c6c6"/>
    <path id="leftProximalPhalanx3BaseUlnar-2" data-name="leftProximalPhalanx3BaseUlnar" d="M760.89,274.23c.23,.97,.56,2.39,.9,4.13,.93,4.75,1.44,8.2,1.35,12.4-.09,4.3-.72,6.13-1.89,7.55-2.04,2.48-5.15,2.98-6.74,3.24-1.04,.17-1.89,.2-2.65,.14-3.6-.28-4.92-1.36-8.41-1.49-.63-.02-1.63-.02-2.87,.16-.01-5.63-.03-11.25-.04-16.88,6.78-3.08,13.56-6.17,20.34-9.25Z" fill="#c6c6c6"/>
    <path id="leftProximalPhalanx3HeadlUlnar-2" data-name="leftProximalPhalanx3HeadlUlnar" d="M745.4,154.81c1.19,.12,2.86,.35,4.79,.85,4.18,1.06,7.02,1.78,9.17,4.04,3.4,3.57,3.3,9.12,3.24,12.67-.02,1.14-.11,2.09-.19,2.73-6.12-2.89-12.24-5.78-18.36-8.66,.45-3.88,.9-7.75,1.35-11.63Z" fill="#c6c6c6"/>
    <path id="leftMiddlePhalanx3HeadRadial-2" data-name="leftMiddlePhalanx3HeadRadial" d="M738.92,81.91c-.46-1.34-.99-3.38-1.01-5.92,0-.49,.01-.85,.02-1.09,.13-2.85,.28-6.12,2.12-7.87,.92-.87,2.16-1.06,4.63-1.44,2.81-.43,5.16-.33,6.69-.18,.05,3.6,.09,7.19,.14,10.79-4.2,1.9-8.4,3.81-12.59,5.71Z" fill="#dadada"/>
    <path id="leftMiddlePhalanx3Shaft-2" data-name="leftMiddlePhalanx3Shaft" d="M735.72,131.34c.75-1.55,1.67-3.64,2.56-6.18,0,0,.54-1.53,.99-3.08,2.43-8.46,2.45-15.55,2.43-20.22-.02-3.9-.13-7.46-.78-11.39-.1-.59-.5-2.57-1.1-5.06-.35-1.46-.67-2.66-.9-3.5,4.2-1.9,8.4-3.81,12.59-5.71,4.54,2.2,9.09,4.41,13.63,6.61-.13,.66-.32,1.65-.52,2.87-.85,5.24-1,9.22-1.08,11.06-.45,10.94-.95,10.68-1.08,18.88-.07,4.64-.01,10.89,.54,18.34l-13.47,6.07c-4.6-2.89-9.21-5.78-13.81-8.68Z" fill="#dadada"/>
    <path id="leftMiddlePhalanx3BaseRadial-2" data-name="leftMiddlePhalanx3BaseRadial" d="M747.75,152.23c-1.45-.28-3.54-.56-6.05-.48-6.56,.21-9.15,2.69-10.79,1.35-1.84-1.52-.42-6.22,1.62-12.94,1.1-3.64,2.27-6.64,3.19-8.81,4.6,2.89,9.21,5.78,13.81,8.68-.59,4.07-1.19,8.14-1.78,12.21Z" fill="#dadada"/>
    <path id="leftMiddlePhalanx3BaseUlnar-2" data-name="leftMiddlePhalanx3BaseUlnar" d="M763.01,133.95c.6,1.96,1.29,4.71,1.63,8.04,.45,4.45,1.13,11.24-1.9,12.99-1.07,.62-1.92,.2-8.63-1.35-2.77-.64-5.01-1.12-6.35-1.4,.59-4.07,1.19-8.14,1.78-12.21l13.47-6.07Z" fill="#dadada"/>
    <path id="leftMiddlePhalanx3HeadUlnar-2" data-name="leftMiddlePhalanx3HeadUlnar" d="M751.37,65.41c1.89,0,10.05,.07,12.22,2.14,.19,.19,.36,.38,.36,.38,1.22,1.38,1.59,3.08,1.74,5.08,.31,4.11-.38,8.68-.56,9.8-4.54-2.2-9.09-4.41-13.63-6.61-.05-3.6-.09-7.19-.14-10.79Z" fill="#dadada"/>
    <path id="leftDistalPhalanx3TuftRadial-2" data-name="leftDistalPhalanx3TuftRadial" d="M739.8,18.12c-.3-1.02-.64-2.56-.62-4.45,0,0,0-.8,.1-1.6,.22-1.96,.91-8.09,5.39-10.79,.86-.52,2.76-1.45,5.76-1.25-.12,3.52-.24,7.04-.36,10.55-3.42,2.51-6.85,5.03-10.27,7.54Z" fill="#ededed"/>
    <path id="leftDistalPhalanx3Shaft-2" data-name="leftDistalPhalanx3Shaft" d="M741.35,46.43c.94-3.63,1.15-6.63,1.16-8.75,.02-3.84-.62-7.59-1.62-13.48-.16-.97-.35-2.02-.35-2.02-.29-1.66-.55-3.04-.74-4.06,3.42-2.51,6.85-5.03,10.27-7.54,3.88,2.51,7.77,5.03,11.65,7.54-.01,.36-.03,.88-.07,1.49-.07,1.24-.2,3.26-.61,5.59-.4,2.27-.63,2.34-.85,4.18,0,0-.17,1.46-.16,3.18,.02,2.66,.84,7.65,2.65,13.87-3.31,1.95-6.62,3.91-9.92,5.86l-11.42-5.86Z" fill="#ededed"/>
    <path id="leftDistalPhalanx3BaseRadial-2" data-name="leftDistalPhalanx3BaseRadial" d="M751.95,62.49c-2.99,.08-5.62,.08-7.81,.04-2.16-.03-3.27-.08-4.33-.85-1.86-1.35-2.12-3.85-2.16-4.31-.19-2.2,.83-3.13,2.97-8.9,.32-.87,.57-1.59,.73-2.04l11.42,5.86c-.27,3.4-.55,6.8-.82,10.2Z" fill="#ededed"/>
    <path id="leftDistalPhalanx3BaseUlnar-2" data-name="leftDistalPhalanx3BaseUlnar" d="M762.69,46.43c.09,.18,.23,.43,.4,.73,0,0,.22,.39,.46,.77,2.18,3.48,4.53,4.9,4.58,8.36,0,.52,0,3.58-2.16,5.39-1.05,.88-2.32,1.22-5.12,1.35-.15,0-.36,.02-.65,.03,0,0-1,.03-2.16-.02-.98-.04-3.19-.21-6.09-.55,.27-3.4,.55-6.8,.82-10.2,3.31-1.95,6.62-3.91,9.92-5.86Z" fill="#ededed"/>
    <path id="leftDistalPhalanx3TuftUlnar-2" data-name="leftDistalPhalanx3TuftUlnar" d="M750.43,.03c1.51,.08,2.67,.43,3.41,.71,3.56,1.37,5.39,4.25,5.93,5.12,0,0,.21,.33,.39,.68,1.84,3.43,1.78,8.58,1.57,11.58-3.88-2.51-7.77-5.03-11.65-7.54,.12-3.52,.24-7.04,.36-10.55Z" fill="#ededed"/>
    <path id="leftMetacarpal2HeadRadial-2" data-name="leftMetacarpal2HeadRadial" d="M646.48,337.23c-.15-2.18-.25-5.36,.03-9.17,.52-6.99,.87-11.78,4.04-16.72,3.3-5.15,7.9-7.73,9.71-8.63,2.5-1.25,4.77-1.85,6.41-2.17,.89,7.17,1.79,14.34,2.68,21.51-7.62,5.06-15.25,10.12-22.87,15.18Z" fill="#9d9d9c"/>
    <path id="leftMetacarpale2Shaft-2" data-name="leftMetacarpale2Shaft" d="M671.4,480.74c.22-1.56,.37-2.81,.46-3.56,.84-7.19,1.4-16.64,.81-28.31-.14-2.69-.38-5.88-4.31-33.71-3.91-27.68-2.77-18.08-3.78-25.75-1.31-10.03-1.88-15.92-4.31-24.67-1.95-7-3-10.57-5.66-14.56-1.64-2.45-5.73-5.17-7.55-10.79-.29-.89-.46-1.65-.57-2.15,7.62-5.06,15.25-10.12,22.87-15.18,9.55,4.43,19.11,8.86,28.66,13.29-.09,.67-.24,1.67-.46,2.87-.89,4.68-2.14,7.94-2.5,9-1.47,4.27-.59,7.75,0,14.29,.35,3.85-.09,1.22,0,22.11,.05,11.81,.07,17.71,.27,22.65,.11,2.75,.56,13.37,2.16,27.24,.12,1.05,1.08,9.28,2.97,19.15,0,0,1.5,7.85,3.8,13.72,.87,2.21,1.86,4.35,1.86,4.35,.63,1.37,1.18,2.45,1.66,3.39,.65,1.28,1.23,2.37,1.68,3.2-5.27,3.62-10.55,7.24-15.82,10.86-7.41-2.47-14.82-4.94-22.22-7.41Z" fill="#9d9d9c"/>
    <path id="leftMetacarpal2BaseRadial-2" data-name="leftMetacarpal2BaseRadial" d="M694.92,511.07c-1.75,.51-4.21,1.07-7.19,1.26-1.2,.07-3.32,.2-5.93-.18-2.18-.31-5.84-.84-8.27-2.7-1.12-.86-4.01-3.54-3.96-14.92,0-1.82,.14-3.42,.23-4.43,.35-3.91,1.03-7.12,1.6-9.36,7.41,2.47,14.82,4.94,22.22,7.41,.43,7.64,.86,15.27,1.29,22.91Z" fill="#9d9d9c"/>
    <path id="leftMetacarpal2BaseUlnar-2" data-name="leftMetacarpal2BaseUlnar" d="M709.44,477.29c2.22,3.64,3.48,6.63,3.87,7.98,.42,1.44,.61,2.82,.61,2.82,.28,1.98-.03,1.72,.34,5.67,.43,4.57,.96,6.07,.25,8.3-.76,2.38-2.37,3.85-2.7,4.13-2.45,2.16-4.36,1.38-11.33,3.24-.62,.17-1.11,.31-1.51,.43-.96,.29-1.3,.42-2.08,.66-.45,.14-1.13,.33-1.98,.53-.43-7.64-.86-15.27-1.29-22.91,5.27-3.62,10.55-7.24,15.82-10.86Z" fill="#9d9d9c"/>
    <path id="leftMetacarpal2HeadUlnar-2" data-name="leftMetacarpal2HeadUlnar" d="M666.67,300.54c1.19-.24,2.88-.5,4.92-.53,1.69-.02,9.07-.13,15.1,4.31,5.16,3.8,6.83,9.07,8.9,15.64,2.01,6.35,2.4,11.85,2.43,15.37-9.55-4.43-19.11-8.86-28.66-13.29-.89-7.17-1.79-14.34-2.68-21.51Z" fill="#9d9d9c"/>
    <path id="leftProximalPhalanx2HeadRadial-2" data-name="leftProximalPhalanx2HeadRadial" d="M630.5,188.13c-.16-.5-.34-1.12-.53-1.82,0,0-.27-1.04-.5-2.06-1.44-6.56-.9-10.79-.71-12.04,.2-1.32,.25-1.59,.36-1.8,.83-1.57,2.93-2.11,8.95-2.61,2.08-.17,4.77-.35,7.95-.45,.23,3.57,.45,7.13,.68,10.7-5.4,3.36-10.8,6.72-16.2,10.08Z" fill="#c6c6c6"/>
    <path id="leftProximalPhalanx2Shaft-2" data-name="leftProximalPhalanx2Shaft" d="M638.38,274.67c2.73-7.18,3.36-13.11,3.42-17.26,.07-5.05-.66-10.51-2.34-21.39-1.81-11.77-1.13-12.9-2.7-23.37-.91-6.1-1.56-10.62-3.15-16-.63-2.12-1.61-5.07-3.11-8.52,5.4-3.36,10.8-6.72,16.2-10.08,6.66,1.01,13.31,2.01,19.97,3.02,0,2.55,.06,6.26,.33,10.73,.44,7.27,1.13,11.53,2.43,21.03,1.55,11.42,2.33,17.13,3.01,23.1,0,0,1.26,11.01,4.07,19.92,.12,.39,.24,.76,.24,.76,1.41,4.27,2.95,7.53,4.13,9.77-5.64,4.8-11.29,9.61-16.93,14.41-8.53-2.04-17.06-4.07-25.58-6.11Z" fill="#c6c6c6"/>
    <path id="leftProximalPhalanx2BaseRadial-2" data-name="leftProximalPhalanx2BaseRadial" d="M665.13,297.02c-2.1,.31-3.67,.9-4.72,1.38-2.62,1.21-3.66,2.33-6.79,3.72-.69,.31-1.5,.57-2.56,.77-1.17,.22-5.6,1.19-8.55-.72-1.82-1.18-2.39-3.18-3.52-7.19-.74-2.61-1.79-7.34-1.45-13.67,.15-2.79,.53-5.08,.84-6.65,8.53,2.04,17.06,4.07,25.58,6.11l1.16,16.23Z" fill="#c6c6c6"/>
    <path id="leftProximalPhalanx2BaseUlnar-2" data-name="leftProximalPhalanx2BaseUlnar" d="M680.89,266.37c.57,1.16,1.39,2.88,2.34,4.97,2.24,4.95,3.41,7.41,4.04,9.98,1.08,4.37,2.39,9.28-.18,12.22-1.35,1.55-3.3,2.03-5.29,2.52-2.85,.7-4.61,.26-7.73,.18-2.16-.06-5.21,.04-8.95,.77l-1.16-16.23c5.64-4.8,11.29-9.61,16.93-14.41Z" fill="#c6c6c6"/>
    <path id="leftProximalPhalanx2HeadUlnar-2" data-name="leftProximalPhalanx2HeadUlnar" d="M646.03,167.35c2.47-.92,4.57-1.55,6.07-1.98,7.68-2.16,9.76-1.5,11.01-.54,.19,.15,.32,.26,.44,.38,2.13,2.04,2.18,5.13,2.61,10.41,.1,1.24,.27,3.12,.52,5.45-6.66-1.01-13.31-2.01-19.97-3.02-.23-3.57-.45-7.13-.68-10.7Z" fill="#c6c6c6"/>
    <path id="leftMiddlePhalanx2HeadRadial-2" data-name="leftMiddlePhalanx2HeadRadial" d="M615.01,93.83c-.98-1.4-2.72-4.35-2.7-8.27,.01-1.75,.03-4.51,1.9-6.3,1.06-1.02,2.07-1.11,6.79-2.16,2.42-.54,4.38-1,5.6-1.3,.35,2.95,.7,5.9,1.06,8.85-4.21,3.06-8.43,6.12-12.64,9.18Z" fill="#dadada"/>
    <path id="leftMiddlePhalanx2Shaft-2" data-name="leftMiddlePhalanx2Shaft" d="M624.99,143.26c.08-1.12,.19-2.73,.26-4.67,.16-4.52,.38-10.43-.72-17.8-.94-6.27-1.66-11.15-4.49-16.9-.2-.41-1.28-2.49-2.78-5.5-.98-1.96-1.76-3.56-2.25-4.57,4.21-3.06,8.43-6.12,12.64-9.18,5.66,1.51,11.31,3.03,16.97,4.54,.27,2.73,.7,6.69,1.31,11.47,1.14,8.82,1.71,13.22,2.7,16.9,.67,2.47,2.73,9.58,7.37,17.8,.98,1.74,1.87,3.16,2.52,4.16-4.96,3.4-9.91,6.81-14.87,10.21-6.22-2.16-12.44-4.31-18.65-6.47Z" fill="#dadada"/>
    <path id="leftMiddlePhalanx2BaseRadial-2" data-name="leftMiddlePhalanx2BaseRadial" d="M645.39,163.94c-2.76,.47-5.48,.71-8.17,.71h0c-1.86-.01-4.63-.05-8.09-.9-2.84-.7-4.25-1.04-5.13-2.15-1.39-1.75-.53-4,.18-8.63,.36-2.33,.75-5.64,.82-9.72,6.22,2.16,12.44,4.31,18.65,6.47l1.74,14.21Z" fill="#dadada"/>
    <path id="leftMiddlePhalanx2BaseUlnar-2" data-name="leftMiddlePhalanx2BaseUlnar" d="M658.52,139.51c.89,1.27,2.04,3.14,2.96,5.6,.65,1.74,.93,3.1,.99,3.37,.69,3.21,1.51,6.97-.54,9.71-1.06,1.42-4.42,2.44-11.15,4.49-.43,.13-1.24,.38-2.32,.64-1.23,.3-2.29,.49-3.07,.62l-1.74-14.21c4.96-3.4,9.91-6.81,14.87-10.21Z" fill="#dadada"/>
    <path id="leftMiddlePhalanx2HeadUlnar-2" data-name="leftMiddlePhalanx2HeadUlnar" d="M626.59,75.8c.27-.05,.63-.11,1.04-.18,0,0,.38-.07,.78-.14,7.54-1.37,10-2.46,12.4-.72,1.72,1.24,2.49,3.27,2.96,4.51,.33,.88,.4,1.67,.72,7.55,.05,.97,.1,1.78,.13,2.37-5.66-1.51-11.31-3.03-16.97-4.54-.35-2.95-.7-5.9-1.06-8.85Z" fill="#dadada"/>
    <path id="leftDistalPhalanx2HeadRadial" d="M608.6,32.97c-.54-1.66-1.21-4.58-.59-8.09,.27-1.55,1.09-5.81,4.85-8.99,2.08-1.76,4.25-2.5,5.51-2.82l.65,10.27c-3.47,3.21-6.95,6.42-10.42,9.63Z" fill="#ededed"/>
    <path id="leftDistalPhalanx2Shaft-2" data-name="leftDistalPhalanx2Shaft" d="M612.31,59.29c.1-.52,.23-1.29,.37-2.22,.41-2.8,.82-5.53,.54-8.99-.23-2.85-.81-5.01-1.08-5.93-.22-.76-.44-1.39-.65-1.94-.66-1.7-1.09-2.42-1.69-3.81-.33-.78-.79-1.93-1.21-3.42,3.47-3.21,6.95-6.42,10.42-9.63,4.37,2.1,8.74,4.19,13.11,6.29-.05,2.18-.23,3.93-.39,5.14-.22,1.62-.48,2.89-.63,5.12-.08,1.14-.09,2-.09,2.25,0,.93,0,4.43,1.08,8.99,.27,1.13,.68,2.67,1.32,4.45-2.94,2.44-5.89,4.87-8.83,7.31-4.09-1.2-8.19-2.41-12.28-3.61Z" fill="#ededed"/>
    <path id="leftDistalPhalanx2BaseRadial-2" data-name="leftDistalPhalanx2BaseRadial" d="M626.59,73.11c-.92,.12-2.35,.31-4.09,.61-1.98,.34-2.18,.37-3.34,.61-1.34,.27-3.3,.69-5.75,.18-1.36-.28-3.36-.7-4.13-2.16-.76-1.42,.21-2.85,1.26-5.93,.5-1.46,.53-1.64,.76-2.45,.55-1.96,.86-3.59,1.03-4.67,4.09,1.2,8.19,2.41,12.28,3.61,.67,3.4,1.33,6.81,2,10.21Z" fill="#ededed"/>
    <path id="leftDistalPhalanx2BaseUlnar-2" data-name="leftDistalPhalanx2BaseUlnar" d="M633.42,55.58c.24,.7,.68,1.75,1.45,2.9,.4,.58,.75,1,1,1.28,2.23,2.5,4.27,2.85,4.67,5.09,.38,2.16-1.05,4.01-1.25,4.26-.71,.88-1.69,1.53-5.85,2.6-1.7,.44-4.03,.96-6.85,1.4-.67-3.4-1.33-6.81-2-10.21,2.94-2.44,5.89-4.87,8.83-7.31Z" fill="#ededed"/>
    <path id="leftDistalPhalanx2TuftUlnar-2" data-name="leftDistalPhalanx2TuftUlnar" d="M618.37,13.07c.98-.22,2.48-.41,4.2-.05,4.57,.96,6.91,5.05,7.73,6.47,2.46,4.29,2.06,8.57,1.83,10.15-4.37-2.1-8.74-4.19-13.11-6.29l-.65-10.27Z" fill="#ededed"/>
    <path id="leftMetacarpal1HeadRadial-2" data-name="leftMetacarpal1HeadRadial" d="M579.58,440.41c-1.38-1.82-3.23-4.56-4.85-8.18-2.17-4.84-3.37-7.76-2.88-11.51,.65-4.94,4.1-8.1,6.83-10.61,1.5-1.38,3.21-2.52,3.21-2.52,1.09-.73,2.09-1.28,2.92-1.69,2.29,5.84,4.59,11.69,6.88,17.53-4.04,5.66-8.07,11.32-12.11,16.98Z" fill="#9d9d9c"/>
    <path id="leftMetacarpal1BaseRadial-2" data-name="leftMetacarpal1BaseRadial" d="M658.07,524.4c-1.3,.73-3.11,1.75-5.28,2.94-4,2.2-6.26,3.34-9.49,3.99-.13,.03-.24,.05-.34,.06-2.68,.47-5.79,1.01-8.24-.69-1.71-1.18-1.9-2.66-3.73-6.7-.97-2.13-2.63-5.3-4.31-8.45-.75-1.4-1.38-2.55-1.81-3.32,7.64-1.29,15.27-2.57,22.91-3.86,3.43,5.34,6.86,10.68,10.29,16.02Z" fill="#9d9d9c"/>
    <path id="leftMetacarpal1BaseUlnar-2" data-name="leftMetacarpal1BaseUlnar" d="M655.27,492.73c2,.73,5.62,2.37,8.81,5.93,1.46,1.63,3.2,4.08,4.31,7.37,.81,2.4,1.58,4.67,.99,7.28-.7,3.11-2.94,4.92-6.61,7.82-1.17,.92-2.5,1.85-2.5,1.85-.88,.6-1.64,1.08-2.19,1.42-3.43-5.34-6.86-10.68-10.29-16.02,2.49-5.22,4.99-10.43,7.48-15.65Z" fill="#9d9d9c"/>
    <path id="leftMetacarpal1Shaft-2" data-name="leftMetacarpal1Shaft" d="M612.48,428.82c.75,2.67,1.75,5.88,3.05,9.49,.27,.74,1.43,3.96,3.07,7.77,2.19,5.11,5.16,11.94,10.43,20.13,3.18,4.95,6.54,10.18,12.4,15.91,5.14,5.02,10.14,8.42,13.84,10.61-2.49,5.22-4.99,10.43-7.48,15.65-7.64,1.29-15.27,2.57-22.91,3.86-2.59-4.38-4.77-7.92-6.28-10.34-3.64-5.83-9.64-15.17-11.16-17.45-.2-.31-1.04-1.56-2.11-3.29,0,0-.2-.33-.4-.66-1.71-2.83-7.03-13.15-10.85-19.66-1.69-2.88-3.07-4.98-3.89-6.23-4.05-6.15-7.84-10.93-10.61-14.2,4.04-5.66,8.07-11.32,12.11-16.98l20.79,5.38Z" fill="#9d9d9c"/>
    <path id="leftMetacarpal1HeadUlnar-2" data-name="leftMetacarpal1HeadUlnar" d="M584.81,405.91c4.53-1.98,8.44-2.88,11.12-3.34,5.26-.89,9.14-1.58,11.69,.72,1.75,1.58,2.18,3.88,2.7,6.65,.77,4.14-.08,5.86,.18,10.07,.02,.32,.04,.5,.06,.77,.34,3.57,1.2,6.27,1.91,8.04l-20.79-5.38c-2.29-5.84-4.59-11.69-6.88-17.53Z" fill="#9d9d9c"/>
    <path id="leftProximalPhalanx1BaseUlnar-2" data-name="leftProximalPhalanx1BaseUlnar" d="M582.8,403.41c2.29-1.07,4.24-1.71,5.6-2.09,5.29-1.48,8.51-1.39,12.86-3.69,.93-.49,1.84-1.04,2.24-2.07,.39-1,.53-3.15-4.85-8.99-1.05-1.14-1.92-1.98-2.66-2.67-2.34-2.19-4.45-3.8-5.97-4.88l-13.16,13.39,5.94,10.99Z" fill="#c6c6c6"/>
    <path id="leftProximalPhalanx1BaseRadial-2" data-name="leftProximalPhalanx1BaseRadial" d="M559.28,391.44c.29,1.39,.7,3.36,1.21,5.71,1.3,5.98,2.01,7.99,2.57,10.11,.98,3.69,2.01,6.71,4.13,7.19,1.78,.4,3.76-1.13,5.67-2.61,.54-.42,1.02-.83,1.45-1.23,1.4-1.3,2.26-2.41,2.51-2.73,.85-1.06,2.49-2.58,5.99-4.48l-5.94-10.99-17.58-.99Z" fill="#c6c6c6"/>
    <path id="leftProximalPhalanx1Shaft-2" data-name="leftProximalPhalanx1Shaft" d="M535.5,337.23c2.38,4.03,5.53,9.68,8.85,16.64,3.33,6.97,5.47,12.41,8.09,19.06,1.87,4.76,4.25,11.03,6.83,18.52l17.58,.99,13.16-13.39c-4.9-5.37-8.84-10.02-11.69-13.48-3-3.66-7.24-8.96-11.87-16-4.46-6.78-5.97-10.12-6.47-14.2-.43-3.49,0-6.45,.46-8.43-5.05-.91-10.09-1.81-15.14-2.72-3.27,4.34-6.54,8.68-9.81,13.03Z" fill="#c6c6c6"/>
    <path id="leftProximalPhalanx1HeadRadial-2" data-name="leftProximalPhalanx1HeadRadial" d="M541.36,313.88c-1.69,.37-6.91,1.75-8.87,6-1.64,3.56-.33,7.73,1.26,12.76,.62,1.97,1.28,3.54,1.76,4.58,3.27-4.34,6.54-8.68,9.81-13.03-1.32-3.44-2.64-6.88-3.95-10.32Z" fill="#c6c6c6"/>
    <path id="leftProximalPhalanx1HeadUlnar-2" data-name="leftProximalPhalanx1HeadUlnar" d="M560.45,326.92c.03-.73,.01-1.67-.16-2.75-.03-.21-.26-1.54-.84-3.03-.56-1.42-1.49-3.73-3.78-5.57-4.07-3.3-9.64-2.51-12.04-2.16-.96,.14-1.75,.33-2.28,.47,1.32,3.44,2.64,6.88,3.95,10.32,5.05,.91,10.09,1.81,15.14,2.72Z" fill="#c6c6c6"/>
    <path id="leftDistalPhalanx1TuftRadial-2" data-name="leftDistalPhalanx1TuftRadial" d="M498.23,270.69c-1.81-1.35-2.66-2.81-3.05-3.64-.33-.69-.5-1.28-.62-1.73-.31-1.1-.73-2.57-.48-4.31,.26-1.85,1.15-3.21,1.78-3.99,1.39,1.75,2.77,3.5,4.16,5.24-.59,2.81-1.18,5.62-1.77,8.42Z" fill="#ededed"/>
    <path id="leftDistalPhalanx1Shaft-2" data-name="leftDistalPhalanx1Shaft" d="M523.03,302.39c-.59-1.33-1.44-3.16-2.59-5.25-2.37-4.3-4.59-7.22-6.65-9.89-4.33-5.62-8.24-9.52-10.79-12.04-1.9-1.89-3.56-3.42-4.77-4.52,.59-2.81,1.18-5.62,1.77-8.42l9.53,.26c1.71,2.99,3.46,5.22,4.8,6.75,1.2,1.37,2.14,2.43,3.65,3.59,1.83,1.4,2.66,1.55,4.52,2.88,1.91,1.37,3.1,2.7,4.05,3.78,3.74,4.2,4.66,7.66,7.43,10.54,1.4,1.46,3,2.58,3,2.58,.63,.44,1.17,.77,1.54,.98-1.27,2.79-2.55,5.58-3.82,8.37-3.89,.13-7.78,.26-11.67,.4Z" fill="#ededed"/>
    <path id="leftDistalPhalanx1BaseRadial-2" data-name="leftDistalPhalanx1BaseRadial" d="M539.38,311.16c-.61,.23-1.6,.64-2.75,1.26-4.91,2.67-5.75,5.68-8.38,5.58-1.87-.08-3.61-1.41-4.38-2.88-1.08-2.07,.12-3.74,.36-6.65,.07-.89,.04-1.27,.01-1.68-.13-1.91-.72-3.42-1.2-4.4,3.89-.13,7.78-.26,11.67-.4,1.56,3.05,3.12,6.11,4.67,9.16Z" fill="#ededed"/>
    <path id="leftDistalPhalanx1BaseUlnar-2" data-name="leftDistalPhalanx1BaseUlnar" d="M538.52,293.63c.68,.38,1.67,.95,2.83,1.67,.52,.32,2.12,1.35,3.36,2.21,3.88,2.69,5.95,4.52,6.47,7.19,.13,.69,.41,2.11-.36,3.24-1.06,1.55-3.24,1.24-6.47,1.8h0c-1.68,.35-3.34,.83-4.98,1.43-1.56-3.05-3.12-6.11-4.67-9.16,1.27-2.79,2.55-5.58,3.82-8.37Z" fill="#ededed"/>
    <path id="leftDistalPhalanx1TuftUlnar-2" data-name="leftDistalPhalanx1TuftUlnar" d="M495.85,257.02c.17-.18,.45-.45,.86-.69,2.59-1.47,6.4,.73,7.91,1.62,1.23,.72,2.09,1.44,2.6,1.9,1.06,.96,1.8,1.92,2.31,2.67l-9.53-.26c-1.39-1.75-2.77-3.5-4.16-5.24Z" fill="#ededed"/>
    <path id="leftTrapezium-2" data-name="leftTrapezium" d="M670.13,517.87c.72-.7,2.2-2.14,4.45-2.56,2.37-.44,5.37,.3,6.88,2.29,1.21,1.6,.84,3.17,.67,7.15-.05,1.28-.26,7.13,.54,12.54,.6,4.05,1.03,6.96,2.83,10.38,1.61,3.05,2.96,3.95,2.7,5.8-.43,3.04-4.7,4.76-6.61,5.53-4.61,1.86-8.8,1.42-11.73,1.08-1.39-.16-5.29-.71-9.84-2.83-3.8-1.77-6.15-3.74-8.76-5.93-4.5-3.77-6.76-5.73-7.42-9.03-.13-.68-.66-3.31,.67-5.8,.99-1.85,2.37-2.45,7.69-5.12,4.77-2.4,7.19-3.62,8.9-4.72,3.6-2.32,5.4-3.47,6.88-5.8,.58-.91,1.01-1.85,2.16-2.97Z" fill="#878787"/>
    <path id="leftTrapezoid-2" data-name="leftTrapezoid" d="M689.74,515.26c3.34-.97,5.93-1.64,6.88-1.89,4.63-1.23,4.08-1.72,6.74-2.16,2.74-.45,5.72-.93,8.09,.81,2.28,1.67,2.78,4.49,2.97,5.53,.41,2.28-.21,3.27-.67,6.88-.2,1.59-.23,3.76-.27,8.09-.06,5.71-.09,8.57,.27,9.84,.64,2.28,1.51,3.6,.81,5.12-.65,1.41-2.21,2.03-3.24,2.43-2.21,.86-3.15,.38-6.07,.67-4.21,.43-4.45,1.66-7.96,1.62-1.45-.02-3.19-.06-4.99-1.08-1.91-1.08-2.84-2.67-3.78-4.31-.41-.72-1.63-2.96-2.56-7.55-.52-2.57-.66-4.77-.94-9.17-.08-1.2-.32-4.21-.13-8.09,.13-2.71,.38-4.16,1.45-5.25,.65-.66,1.31-.88,3.4-1.49Z" fill="#878787"/>
    <path id="leftScaphoid-2" data-name="leftScaphoid" d="M714.55,558.46c-.28-1.13-.95-3.87-3.1-4.85-1.09-.5-2.25-.41-4.18-.27-.94,.07-1.76,.2-3.37,.54-1.9,.41-3.2,.75-6.88,1.75-3.46,.94-3.91,1.07-4.72,1.35-1.91,.66-3,1.19-4.31,1.75-2.96,1.28-5.27,1.98-8.49,2.97-5.81,1.77-6.95,1.57-8.36,3.1-1.73,1.89-1.93,4.31-2.02,5.39-.12,1.51-.19,5.9,5.66,12.94,1.66,1.99,4.48,5.04,13.35,11.06,4.32,2.93,8.92,6.03,15.78,9.57,6.93,3.58,13.02,6.68,21.57,8.36,6.53,1.29,11.42,2.17,15.37-.81,4.24-3.2,4.67-8.79,4.72-9.57,.04-.6,.3-6.07-3.51-10.11-2.57-2.74-4.37-2.01-10.11-4.72-2.76-1.3-8.05-3.86-12.4-9.03-2.76-3.28-5.56-6.6-5.53-11.06,.02-3.13,1.42-4.74,.54-8.36Z" fill="#878787"/>
    <path id="leftCapitate-2" data-name="leftCapitate" d="M762.53,512.69c-.4-1.23-1.66-4.35-4.72-5.93-1.96-1.01-3.8-.9-7.69-.4-5.85,.74-8.75,1.37-12,1.89-9.48,1.49-10.89,.23-14.43,2.43-.72,.45-4.16,2.67-5.93,6.88-.8,1.9-.95,4.17-1.21,8.63-.17,2.81-.31,5.31-.13,8.63,.32,5.98,1.25,6.17,1.75,12.27,.18,2.17,.48,6.07,0,11.06-.47,4.84-1.15,5.31-.81,7.82,.57,4.16,3,6.98,5.12,9.44,2,2.32,5.46,6.33,11.46,7.96,1.83,.5,5.52,1.5,9.57,.13,2.63-.89,3.63-2.17,9.44-8.36,7.84-8.35,8.53-8.69,9.03-10.65,1.05-4.1-1.37-5.1-2.97-13.21-.69-3.51-2.04-10.36-.2-18.07,.84-3.54,2-5.76,3.51-12.67,.68-3.11,1.02-5.29,.2-7.82Z" fill="#878787"/>
    <path id="leftHamate-2" data-name="leftHamate" d="M812.83,524.63c-.42-1.03-1.51-3.33-4.99-6.34-1.8-1.55-5.3-4.2-10.65-6.07-4.49-1.56-8.01-1.79-12.27-2.02-8.54-.47-15.08-.83-17.93,2.97-1.1,1.46-.28,1.72-1.89,7.69-1.38,5.11-2.08,5.3-3.24,9.84-1.22,4.81-1.43,8.54-1.48,9.57-.07,1.49-.16,5,.54,9.44,.83,5.23,2.34,9.12,3.1,10.92,1.76,4.15,2.84,6.7,5.39,9.17,.56,.54,6.85,6.47,11.73,4.45,.57-.24,2.16-1.01,5.12-7.69,2.73-6.13,2.29-7.49,4.31-12.13,1.52-3.48,3.6-8.11,8.09-11.87,2.63-2.2,3.16-1.64,8.53-5.6,4.97-3.66,6.27-5.44,6.58-7.48,.28-1.88-.37-3.45-.94-4.85Z" fill="#878787"/>
    <path id="leftPisiform-2" data-name="leftPisiform" d="M832.95,538.99c-2.47-3.74-6.2-5.03-6.88-5.26-2.59-.86-4.84-.71-6.07-.54,.37,2.45,.78,5.87,.94,9.98,.18,4.38,.01,7.91-.27,11.87-.38,5.31-1.1,13.16-2.56,23.19,2.58-.88,6.78-2.73,10.65-6.61,1.71-1.72,5.99-6.12,7.18-12.93,.5-2.87,.1-5.74-.71-11.47-.81-5.74-1.7-7.33-2.29-8.22Z" fill="#878787"/>
    <path id="leftTriquetral-2" data-name="leftTriquetral" d="M814.88,581.73c-.4,2.16-1.14,5.82-3.91,9.17-1.18,1.42-1.98,2.39-3.35,2.83-.94,.3-3.36,.5-12.81-7.28-5.6-4.62-8.41-6.92-8.75-10.34-.25-2.46,.95-2.46,3.76-10.96,1.28-3.87,1.31-4.75,2.7-8.36,.89-2.33,1.88-4.89,3.64-7.55,.58-.88,1.88-2.81,4.02-4.72,2.39-2.14,3.94-2.56,6.74-4.18,6.75-3.9,7.74-7.21,9.44-6.61,2.04,.72,1.93,6.06,1.62,16.72-.12,4.02-.35,7.23-.81,13.48-.15,2.1-.7,9.26-2.29,17.8Z" fill="#878787"/>
    <path id="leftLunate-2" data-name="leftLunate" d="M802.24,598.91c-.62-2.63-2.17-4.26-3.64-5.8-1.47-1.54-2.13-1.76-5.66-4.31-.36-.26-3.7-2.69-7.15-5.53-4.8-3.96-4.21-4.12-6.2-5.26-4.42-2.53-5.84-.9-8.63-3.37-2.19-1.93-2.5-3.98-5.12-4.85-.47-.16-1.72-.56-3.1-.13-1.16,.35-1.84,1.12-2.43,1.75-1.37,1.5-2.89,2.87-4.18,4.45-1.75,2.15-3.6,3.95-7.28,7.55-2.82,2.75-3.46,3.17-3.78,4.45-.47,1.93,.47,3.16,1.89,6.61,2.19,5.31,1.33,5.73,3.24,10.11,1.51,3.48,2.62,6.04,4.72,7.96,2.41,2.19,5.05,2.56,20.76,2.16,10.81-.28,13.86-.56,17.8-2.29,6.04-2.65,7.64-5.84,8.09-6.88,.47-1.08,1.37-3.63,.67-6.61Z" fill="#878787"/>
    <path id="leftRadius-2" data-name="leftRadius" d="M670.11,625.68c13.58,29.45,17.27,29.8,20.49,42.34,2.54,9.87,2.49,18.38,2.43,30.74-.06,10.44-.97,19.2-1.89,25.62h67.96c-.04-8.18-.03-15.68,0-22.38,.1-20.8,.39-23.31,1.62-26.97,3.02-8.95,6.52-9.44,8.9-19.69,.05-.23,.66-5.1,1.89-14.83,.66-5.28,1.39-8.58,.27-12.94-.57-2.21-1.24-4.83-3.39-6.81-2.98-2.73-6.85-2.43-12.79-2.36,0,0-8.12,.09-20.49-.81-5.24-.38-10.89-.79-18.07-2.7-3.49-.93-10.07-2.72-17.53-7.01l-29.39,17.8Z" fill="#706f6f"/>
    <path id="rightRadialStyloidProcess" d="M699.5,607.89c-6.27-3.6-14.37-10.5-15.37-11.33-3.05-2.52-5.91-5.05-10.25-5.39-1.02-.08-4.67-.37-7.01,1.89-2.54,2.44-2.13,6.55-1.81,9.7,1.61,15.48,5.04,22.93,5.04,22.93l29.39-17.8Z" fill="#706f6f"/>
    <path id="rightUlna" d="M808.44,611.93c-3.06,2.54-6.42,3.32-8.36,3.78-2.09,.49-2.23,.24-9.71,.81-5.66,.43-6.54,.65-7.55,1.08-.73,.31-4.33,1.83-6.2,5.39-1.11,2.11-1.05,3.88-.54,9.98,.67,7.97,1,11.96,1.35,13.48,1.49,6.54,3.29,7.83,5.12,13.21,1.77,5.21,1.74,10.19,1.62,19.96-.14,10.82-1.14,14.59-1.89,27.24-.44,7.44-.53,13.48-.54,17.26h36.94c.23-10.39,.14-18.89,0-24.81-.14-6.18-.36-10.86-.54-21.03-.27-15.13-.04-18.09,.81-21.84,.9-3.99,1.15-2.91,5.39-15.37,4.33-12.72,4.7-15.71,4.85-17.26l-20.76-11.87Z" fill="#706f6f"/>
    <path id="rightUlnarStyloidProcess" d="M829.21,623.8c.68-6.88-.42-11.76-1.35-15.91-1.21-5.37-2.01-8.76-4.31-9.44-3.44-1.01-8.2,4.58-9.82,6.5-2.96,3.48-2.56,4.73-5.28,6.99l20.76,11.87Z" fill="#706f6f"/>
  </g>
</svg>