<?xml version="1.0" encoding="UTF-8"?>
<svg xmlns="http://www.w3.org/2000/svg" viewBox="0 0 521 443.27">
  <path d="M235.19,220.2c-.43,7.86-1.03,17.76-1.95,30.83-.2,2.78-1.07,13.78-6.24,23.03-.81,1.44-2.02,3.37-4.21,5.02-5.1,3.84-11.35,3.04-13.35,2.78-2.72-.35-6.19-1.48-12.1-5.46-4.11-2.77-4.83-4.4-5.07-5.07-.76-2.07-.26-3.5,0-7.42,.13-1.96,.2-4.77-.09-8.22-.06-.11-1.15-1.82-3.22-1.84-2.13-.03-3.26,1.76-3.31,1.84,.06,2.1,.15,4.25,.28,6.44,.15,2.62,.33,5.16,.55,7.64-1.22-1.39-2.63-2.85-4.23-4.33-1.07-.98-2.12-1.87-3.13-2.67-.28,.03-1.91,.21-3.04,1.66-1.22,1.56-.88,3.34-.83,3.59,.5,.68,1.29,1.72,2.3,2.95,2.18,2.63,3.18,3.43,4.51,5.16,.87,1.13,2.02,2.84,3.05,5.23-1.3,.04-2.87,.19-4.62,.57-1.91,.42-3.52,1-4.79,1.57-1.37,1.24-2,3.07-1.57,4.7,.59,2.2,3.03,3.76,5.71,3.31,1.32-.75,2.95-1.54,4.88-2.21,1.51-.52,2.91-.87,4.14-1.1,.93,.93,2.42,2.31,4.42,3.77,3.07,2.24,4.75,2.77,7.64,4.88,2.42,1.76,3.81,3.05,4.97,4.42,1.14,1.34,1.88,2.23,2.3,3.54,.73,2.3,0,4.4-.92,6.81-2.91,7.72-4.33,10.68-4.33,10.68-2.47,5.17-3.71,7.75-5.34,10.4-2.38,3.88-3.69,6.15-6.26,8.65-1.51,1.48-3.47,3.38-6.58,4.79-2.38,1.07-4.96,1.36-10.13,1.93-3.95,.44-6.94,.53-8.19,.55-2.98,.06-5.59-.04-7.73-.18-.25,.27-1.87,2.08-1.57,4.7,.24,2.01,1.48,3.25,1.84,3.59,1.42,.14,3.57,.28,6.17,.09,4.02-.29,6.65-1.16,6.81-.74,.1,.25-.66,.95-4.79,3.04-.86,1.49-.75,3.34,.28,4.7,1.08,1.42,2.97,2.02,4.7,1.47,.96-.64,2.48-1.66,4.33-2.95,3.24-2.25,4.34-3.12,6.35-4.33,1.11-.67,2.8-1.61,4.97-2.58-1.05,.9-2.6,2.3-4.33,4.14-3.47,3.71-4.05,5.4-6.44,8.1-3.29,3.71-6.75,5.64-9.67,7.27-4.28,2.4-8.25,3.69-11.23,4.42-.16,.44-.87,2.48,.09,4.79,.96,2.28,2.88,3.21,3.31,3.41,2.11-.71,4.65-1.76,7.37-3.31,2.78-1.59,5.01-3.29,6.72-4.79-1.69,2.27-3.53,4.61-5.52,7-2.24,2.67-4.03,4.62-4.6,5.25-2,2.17-3.82,4-5.34,5.48-.54,1.41-.29,2.99,.64,4.14,1.03,1.26,2.72,1.8,4.33,1.38,1.52-1.52,3.06-3.12,4.6-4.79,.84-.9,1.65-1.8,2.44-2.7-.1,1.41-.26,2.93-.51,4.54-.28,1.8-.63,3.46-1.01,4.97,.09,.16,1.11,1.85,3.13,2.03,1.5,.13,2.96-.62,3.77-1.93,.07-1.37,.14-3.48,.09-6.08-.06-2.94-.21-3.63-.09-5.34,.2-2.9,.95-5.05,1.57-6.81,.7-2,1.73-3.88,3.77-7.64,2.11-3.88,3.23-5.5,3.77-6.26,1.07-1.5,2.05-2.68,2.76-3.5,.24,2.23,.44,4.6,.55,7.09,.12,2.69,.14,5.24,.09,7.64,.62,1.86,2.34,3.12,4.23,3.13,2.08,.01,3.95-1.48,4.42-3.59-.51-2.53-1.15-6.08-1.72-10.37-1.05-7.93-.69-9.87-.54-10.61,.44-2.1,1.82-6.35,7.19-10.61,.07,1.65,.14,3.3,.22,4.95,.14,.11,1.4,1.03,3.02,.58,1.55-.43,2.16-1.77,2.24-1.95l-.8-8.43c2.24-1.97,4.72-4.4,7.19-7.37,3.05-3.66,13.21-20.68,15.19-23.73,4.21-6.48,13.44-23.55,14.38-26.25,.08-.12,1.36-2.14,3.78-2.16,2.19-.02,3.46,1.62,3.6,1.8,3.28,4.37,4.56,5.82,7.73,9.17,1.84,1.95,1.83,2.47,15.75,14.63,6.38,5.57,12.05,10.52,17.12,15.17,8.35,7.65,12.14,10.97,16.55,16.09,2.93,3.39,5.17,6.36,6.67,8.45-.68,.86-1.52,1.8-2.53,2.76-1.21,1.15-2.4,2.05-3.45,2.76-.06,.25-.41,1.69,.46,2.99,.83,1.23,2.43,1.83,4.02,1.49,1-1.11,1.99-2.22,2.99-3.33l1.95-1.84c1.19,1.66,2.68,3.94,4.14,6.78,.35,.68,1.59,3.14,2.87,6.67,1.3,3.57,.88,3.41,2.64,8.73,.69,2.09,1.17,3.38,2.18,6.55,.45,1.4,.8,2.56,1.03,3.33-1.84,1.07-3.68,2.15-5.52,3.22-.11,.19-.96,1.77-.23,3.45,.63,1.45,2.19,2.38,3.91,2.3l3.68-2.3c-.21,1.99-.48,4.06-.8,6.21-.34,2.24-.73,4.39-1.15,6.44,.12,.2,1.07,1.7,2.99,1.95,1.96,.26,3.29-1,3.45-1.15,.33-2.22,.63-4.48,.92-6.78,.4-3.25,.75-6.43,1.03-9.54,.87,2.23,1.72,4.61,2.53,7.13,.55,1.73,1.05,3.42,1.49,5.06,.28,.17,2.01,1.2,4.14,.57,1.76-.52,2.65-1.83,2.87-2.18-1.25-2.44-1.98-4.46-2.41-5.86-.38-1.21-.73-2.59-1.72-4.25-.63-1.04-1.27-1.81-1.72-2.3l3.79,2.41c.3-.06,2.04-.46,3.1-2.18,1.03-1.68,.65-3.37,.57-3.68-1.52-.66-3.52-1.71-5.63-3.33-2.56-1.97-4.11-3.9-4.48-4.37-1.76-2.23-2.38-3.89-4.02-7.58-1.39-3.13-2.93-6.2-4.37-9.31-4.19-9.09-.15-.38-5.29-11.72-1.89-4.18-2.38-5.24-2.76-7.13-.7-3.51-.32-6.56,.11-8.62,1.61-.1,5.32-.13,9.31,1.95,3.53,1.84,5.54,4.42,6.44,5.75,1.73,2.67,3.75,5.48,6.09,8.33,.96,1.17,1.92,2.28,2.87,3.33,.1,.03,2.29,.61,3.91-.92,1.18-1.12,1.55-2.91,.92-4.48-2.18-2.6-4.37-5.21-6.55-7.81,2.02,.71,4.05,1.44,6.09,2.18,2.4,.88,4.78,1.76,7.13,2.64,1.7-.35,3.04-1.65,3.45-3.33,.4-1.65-.18-3.39-1.49-4.48-1.53-.29-3.78-.78-6.44-1.61-4.65-1.45-7.7-3.05-10.46-4.37-3.19-1.52-7.8-3.54-13.79-5.52,2.96-1.55,5.99-3.19,9.08-4.94,3.44-1.95,6.73-3.91,9.88-5.86,1.33-1.61,1.55-3.86,.57-5.63-1.07-1.95-3.39-2.96-5.63-2.41-2.83,1.65-5.67,3.29-8.5,4.94,1.34-1.81,3.14-4.59,4.6-8.27,1.36-3.44,1.79-6.11,2.41-9.88,.57-3.42,1.47-8.78,2.76-16.2-.39-1.88-1.98-3.25-3.79-3.33-1.57-.07-3.06,.84-3.79,2.3v7.36c-1.07-2.34-2.15-4.67-3.22-7.01-1.29-.41-2.71-.11-3.68,.8-1.08,1.01-1.44,2.6-.92,4.02,.78,1.06,1.8,2.68,2.53,4.83,1.21,3.6,.89,6.62,.34,11.26-.49,4.21-.74,6.32-1.95,9.08-.94,2.15-2.39,5.46-5.75,7.7-1.35,.9-4.75,2.79-12.53,1.61-2.26-.34-10.5-1.8-23.96-11.66-6.65-4.87-12.32-9.03-17.93-16.66-1.25-1.69-6.76-9.4-10.23-21.15-1.89-6.41-2.36-11.25-2.99-18.16-.65-7.14-1.12-17.2-.23-29.42-.51-.72-4.33-6-11.38-6.55-7.78-.61-12.63,5.08-13.07,5.62Z" fill="rgba(204, 204, 204, .5)"/>
  <g id="rightSegment1">
    <path id="rightSegment1Lateral" d="M179.22,50.61c4.45-2.1,7.91-4.13,10.27-5.62,4.66-2.93,6.63-4.75,11.44-7.56,3.42-2,6.36-3.39,8.32-4.25-6.29-6.4-10.96-11.57-14.1-15.17-2.27-2.59-4.59-5.34-8.55-8.31-2.34-1.75-5.18-3.85-9.41-5.33-2.07-.72-7.46-2.54-14.13-1.34-5.67,1.02-9.33,3.7-13.25,6.56-3.03,2.21-7.39,5.93-11.46,11.73,5.81,3.24,10.25,6.26,13.15,8.35,6.23,4.5,8.83,7.23,15.89,12.6,4.98,3.79,9.19,6.62,11.82,8.34Z" fill="#f7f7f7"/>
    <path id="rightSegment1Medial" d="M110.44,264.33c-2.46,3.27-5.62,7.93-8.65,13.88-1.16,2.29-3.68,7.47-7.08,18.28-2.14,6.82-4.65,15.95-6.71,27.05-3.54-6.57-6.81-11.81-9.26-15.54-3.82-5.81-5.85-8.87-9.38-12.69-3.12-3.38-6.86-7.36-12.97-10.61-4-2.13-7.64-3.21-10.22-3.8,2.09-2.59,5.29-6.69,8.92-11.99,4.61-6.75,5.28-8.65,8.45-11.48,5.06-4.53,10.56-6.11,14.1-7.14,4.97-1.43,9.14-2.64,14.36-1.42,5.79,1.36,9.57,4.94,12.07,7.31,3.17,3,5.18,6.04,6.38,8.15Z" fill="#f7f7f7"/>
    <path id="rightSegment1Bronchus" d="M185.61,255.63c.05-.08,1.24-1.88,3.4-1.8,2.02,.08,3.07,1.74,3.15,1.86,.09,1.07,.16,2.2,.19,3.38,.01,.44,.03,1.32,0,2.46-.05,2.18-.2,3.01-.3,4.91-.12,2.19-.23,3.28-.06,3.98,.3,1.25,.96,2.2,1.55,2.85-.43-.12-1.63-.39-3.03,.1-1.39,.48-2.16,1.43-2.43,1.79-.09-.27-.21-.64-.35-1.09-.26-.86-.76-2.46-1.11-4.3-.35-1.83-.46-3.27-.61-5.14-.03-.4-.07-1-.17-3.1-.07-1.49-.16-3.49-.23-5.9Z" fill="#f7f7f7"/>
  </g>
  <g id="rightSegment2">
    <path id="rightSegment2Lateral" d="M179.39,90.51c-.41-5.81-.53-10.53-.56-13.74-.03-3.53,.03-5.65,.19-14.73,.09-4.97,.16-8.98,.19-11.44-2.64-1.72-6.84-4.54-11.82-8.34-7.06-5.37-9.67-8.1-15.89-12.6-2.9-2.09-7.33-5.12-13.15-8.35-2.23,3.88-4.46,7.98-6.66,12.29-2.82,5.52-5.17,10.49-7.4,15.63,.52,2.23,.97,5.16,2.02,9.13,.68,2.58,2.11,7.01,5.32,11.91,3.65,5.56,4.85,7.17,7.57,10.76,.09,.11,.21,.28,.38,.5,2.46,3.15,7.82,7.57,8.64,8.25,1.54,1.27,3.8,3.17,6.54,5.64,2.87-1.29,5.46-2.17,7.58-2.78,4.03-1.15,7.46-1.65,9.79-1.88,2.88-.29,5.36-.3,7.27-.24Z" fill="#f0f0f0"/>
    <path id="rightSegment2Medial" d="M110.44,264.33c-2.43,3.24-5.56,7.84-8.57,13.72-1.17,2.3-3.73,7.53-7.16,18.44-2.14,6.82-4.65,15.95-6.71,27.05,2.4-6.81,5.68-11.07,8.29-13.72,.99-1.01,3.87-3.29,9.57-7.79,6.87-5.43,7.93-6.13,9.76-8.06,2.56-2.69,4.94-5.99,6.91-10.07-1.67-3.53-3.31-6.47-4.69-8.77-1.98-3.3-3.72-5.76-4.67-7.11-1.06-1.5-2-2.75-2.72-3.69Z" fill="#f0f0f0"/>
    <path id="rightSegment2Bronchus" d="M187.73,274.07c-.37-1.43-.74-2.87-1.11-4.3-1.01-1.03-1.87-1.89-2.53-2.53-1.15-1.12-1.97-1.92-3.13-2.92-.76-.66-1.41-1.19-1.87-1.54-.28,.03-1.91,.21-3.04,1.66-1.22,1.56-.88,3.34-.83,3.59,.49,.66,1.28,1.71,2.3,2.95,2.29,2.76,3.33,3.56,4.69,5.39,.8,1.08,1.9,2.75,2.86,5.1,.06-.48,.27-1.58,1.12-2.64,.91-1.14,2.03-1.58,2.48-1.74l-.94-3.03Z" fill="#f0f0f0"/>
  </g>
  <g id="rightSegment3">
    <path id="rightSegment3Lateral" d="M179.22,50.61c4.21-1.99,7.46-3.88,9.59-5.2,5.06-3.13,7.08-5.03,12.12-7.98,3.48-2.04,6.45-3.43,8.32-4.25,2.81,2.35,6.85,5.79,11.61,10.09,6.35,5.74,9.52,8.62,11.74,11.49,5.53,7.16,7.46,14.27,8.94,19.68,1.99,7.34,2.36,13.28,2.97,23.07,.19,2.99,.41,7.84,1.01,16.5,.17,2.51,.33,4.58,.43,5.96-2.28-2.03-4.49-4.46-8.27-7.61-7.54-6.29-10.09-7.46-11.74-8.09-4.44-1.7-3.93-.99-12.19-1.92-4.77-.54-9.55-2.69-12.02-4.41-5.96-4.15-6.91-4.43-11.86-6.01-4.23-1.35-7.98-1.49-10.49-1.4-.41-5.81-.53-10.53-.56-13.74-.03-3.53,.03-5.65,.19-14.73,.09-4.97,.16-8.98,.19-11.44Z" fill="#e0e0e0"/>
    <path id="rightSegment3Medial" d="M3.4,363.28c3.16,.25,7.71,.19,12.6-1.63,6.38-2.38,9.82-6.44,13.86-10.32,0,0,5.06-4.86,20.93-15.04,7.45-4.78,19.25-10.45,37.22-12.75-3.43-6.64-6.9-11.78-9.26-15.54-5.51-8.78-12.5-18.13-22.36-23.3-4.1-2.15-7.79-3.23-10.22-3.8-1.62,1.94-4.08,4.81-7.23,8.18-7.85,8.38-11.09,10.34-16.04,16.07-6.07,7.03-9.35,13.54-10.16,15.2-4.06,8.28-5.3,15.25-7.12,25.48-1.3,7.3-1.9,13.37-2.21,17.46Z" fill="#e0e0e0"/>
    <path id="rightSegment3Bronchus" d="M188.11,281.15c-.54,.18-1.42,.43-2.52,.54-1.89,.2-2.42-.21-4.23,.04-.84,.11-1.54,.33-2.94,.76-1.12,.35-2.05,.69-2.74,.96-.13,.12-2.12,1.97-1.68,4.33,.42,2.27,2.91,4.09,5.85,3.77,1.2-.66,2.26-1.15,3.07-1.5,.92-.4,1.86-.8,3.14-1.19,1.12-.34,2.08-.53,2.78-.65l1.76-.3c.15-.39,.71-1.97,.04-3.81-.68-1.89-2.19-2.75-2.55-2.95Z" fill="#e0e0e0"/>
  </g>
  <g id="rightSegment4">
    <path id="rightSegment4Lateral" d="M155.03,95.41c2.94-1.36,7.18-3,12.48-4.02,4.59-.89,11.55-2.24,19.5-.13,1.94,.51,6.07,2.44,14.35,6.28,1.25,.58,4.03,2.68,8.3,3.92,1.71,.5,3.15,.75,4.11,.88,.37,2.13,.85,5.32,1.13,9.22,.45,6.32,.08,10.33-.34,17.52-.62,10.73-.93,16.09-.85,20.75,.12,6.56,.62,12.11-1.53,19.73-.43,1.53-.86,2.77-1.17,3.6-2.91,.77-5.83,1.54-8.74,2.31-1.69-4.64-3.34-9.62-4.89-14.92-1.86-6.4-1.63-8.32-3.4-13.1-1.8-4.86-3.77-8.12-6.44-12.55-2.36-3.91-5.11-7.63-10.61-15.07-3.78-5.12-5.72-7.72-7.78-9.97-2.32-2.52-3.7-3.69-8.18-8.26-2.56-2.61-4.61-4.78-5.92-6.18Z" fill="#d1d1d1"/>
    <path id="rightSegment4Medial" d="M29.64,411.74c-1.39,5.42-2.78,10.84-4.17,16.25-2.07-.49-4.64-.92-7.6-1-3.92-.11-7.24,.41-9.73,1,.06-.83,.88-9.78,8.73-14.35,5.66-3.3,11.35-2.21,12.77-1.9Z" fill="#d1d1d1"/>
    <path id="rightSegment4Bronchus" d="M171.92,348.36c-.3,.03-.64,.06-1.04,.08-.61,.04-1.71,.12-3.55,.16-1.86,.03-2.71,.03-3.71,.02-1.23,0-2.87-.06-4.92-.18-.25,.26-1.7,1.84-1.6,4.3,.1,2.37,1.5,3.98,1.88,4.01,2.03,.16,3.53,.21,4.65,.16,2.04-.08,2.92-.22,4.69-.45,.2-.03,2.62-.46,2.88-.48,.07,0,.18-.02,.33-.01,.25,0,.45,.04,.58,.07,.55-.46,1.02-.86,1.39-1.17,.68-.58,1.03-.89,1.19-1.03,.19-.17,.34-.3,.62-.55,1.7-1.52,2.3-2.13,3.3-3,.29-.26,.35-.51,.42-.77,.22-.81-.16-1.57-.36-1.92-1.4,.17-4.55,.56-6.74,.76Z" fill="#d1d1d1"/>
  </g>
  <g id="rightSegment5">
    <path id="rightSegment5Lateral" d="M213.76,102.34c2.1-.12,5.19-.07,8.76,.85,4.12,1.07,6.95,2.81,8.68,3.89,.85,.53,2.61,1.68,8.25,6.78,2.77,2.5,4.99,4.63,6.51,6.09-.55,8.56-.13,15.41,.39,20.19,.41,3.84,1.17,8.99,.3,15.97-.74,5.94-2.04,8.23-3.29,9.75-3.03,3.69-7.36,4.8-9,5.23-2.1,.54-4.47,.56-9.21,.58-3.88,.02-5.38-.21-8.38,.18-2.5,.33-4.5,.88-5.77,1.29,.3-.82,.74-2.06,1.17-3.6,2.15-7.62,1.65-13.17,1.53-19.73-.08-4.66,.23-10.02,.85-20.75,.42-7.19,.79-11.2,.34-17.52-.28-3.9-.76-7.09-1.13-9.22Z" fill="#c2c2c2"/>
    <path id="rightSegment5Medial" d="M88.01,323.54c-2.54,13.09-7.62,20.97-11.83,25.76-2.22,2.52-3.68,3.61-6.89,6.63-3.46,3.25-5.09,4.97-6.09,6.04-4.63,4.96-7.7,9.44-9.72,12.41-1.02,1.51-2.29,3.54-4.82,7.62-3.54,5.7-6,9.81-6.91,11.31-2.61,4.32-6.53,10.52-12.11,18.43-1.42-.31-7.12-1.4-12.77,1.9-7.85,4.57-8.66,13.52-8.73,14.35-1.36,.13-6.16-3.36-6.59-4.04-1.79-2.85-1.58-5.89-1.51-8,.2-5.56,1.05-8.62,1.8-13.06,1.14-6.77,1.28-12.22,1.4-16.51,.11-4.06-.07-4.62-.04-11.78,.02-4.84,.12-8.78,.2-11.33,3.16,.25,7.71,.19,12.6-1.63,6.38-2.38,9.82-6.44,13.86-10.32,0,0,5.06-4.86,20.93-15.04,7.45-4.78,19.25-10.45,37.22-12.75Z" fill="#c2c2c2"/>
    <path id="rightSegment5Bronchus" d="M179.13,349.84c-2.37,2.11-4.75,4.21-7.12,6.32-.45,.5-.87,.8-1.18,.98-.59,.35-3.29,1.79-3.66,1.99-.83,1.5-.76,3.35,.28,4.7,1.09,1.41,2.97,2.01,4.7,1.47,.71-.47,1.61-1.07,2.65-1.79,3.8-2.62,5.14-3.78,7.91-5.42,.76-.45,1.71-.99,2.82-1.55,.04-.48,.17-2.55-1.29-4.38-1.88-2.37-4.79-2.32-5.11-2.31Z" fill="#c2c2c2"/>
  </g>
  <g id="rightSegment6">
    <path id="rightSegment6Lateral" d="M124.29,49.24c.31,2.33,.88,5.5,2.02,9.13,1.76,5.65,4.01,9.62,5.32,11.91,1.49,2.6,3.62,5.9,6.57,9.44,1.22,1.71,2.9,3.79,5.13,5.92,1.64,1.56,2.7,2.31,5.41,4.56,1.63,1.36,3.68,3.11,6.01,5.22-3.98,4.27-6.46,8.14-7.98,10.89-1.75,3.16-2.04,4.46-4.29,8.23-2.96,4.96-3.22,4.86-5.22,6.98-2.8,2.98-5.5,3.71-9.9,3.85-6.08,.18-12.62,.85-16.16,2.26-1.55,.62-2.79,1.24-3.63,1.7-.1-2.4-.2-5.72-.16-9.69,.04-4.38,.12-10.24,1.02-17.23,.84-6.5,2.01-11.05,3.69-17.59,2.05-7.95,4.05-13.86,5.38-17.76,1.69-4.94,3.91-10.98,6.79-17.81Z" fill="#b3b3b3"/>
    <path id="rightSegment6Medial" d="M122.53,283.9c-1.97,4.08-4.35,7.38-6.91,10.07-1.83,1.93-2.88,2.63-9.76,8.06-5.71,4.51-8.58,6.78-9.57,7.79-2.61,2.66-5.89,6.91-8.29,13.72,.08,4.15,.15,8.31,.23,12.46,1.46,1.31,3.81,3.14,7.08,4.42,5.55,2.19,7.43,.33,17.69,.88,7.45,.4,10.43,1.59,18.87,1.18,1.59-.08,2.9-.19,3.75-.27-.27-7.52-1.02-14.08-1.86-19.46-1.64-10.57-3.92-18.46-4.76-21.28-2.09-6.96-4.4-12.87-6.46-17.58Z" fill="#b3b3b3"/>
    <path id="rightSegment6Bronchus" d="M201.66,351.89c1.34-1.43,3.33-3.43,4.67-4.85,.31,1.39,.27,2.77,.48,4.42,.18,1.44,.29,2.8,.34,4.06-.06,.14-.77,1.7-2.51,2.03-1.49,.29-2.61-.55-2.77-.68,.04-1.9-.25-3.08-.21-4.98Z" fill="rgba(179, 179, 179, .5)"/>
  </g>
  <g id="rightSegment7">
    <path id="rightSegment7Medial" d="M88.23,336c1.27,9.03,4.47,16.25,8.84,24.18,4.05,7.33,4.36,7.07,5.6,10.91,2.26,7.01,1.76,12.95,1.1,20.06-.45,4.86-1.51,11.73-4.16,19.75-2.81,2.65-5.63,5.31-8.44,7.96-6.34-.17-12.69-.35-19.03-.52-2.62-.55-6.81-1.36-12.03-2.02-8.37-1.05-12-.42-19.09-1.62-4.78-.81-8.67-1.99-11.39-2.95,5.48-7.83,9.45-14.09,12.11-18.43,4.41-7.21,6.91-11.31,6.91-11.31,4.07-6.69,4.38-7.25,5.53-8.91,1.66-2.39,4.7-6.54,9.01-11.12,1.13-1.2,2.73-2.88,6.09-6.04,3.21-3.01,4.67-4.1,6.89-6.63,4.21-4.79,9.29-12.67,11.83-25.76-.52,5.23-.19,9.48,.23,12.46Z" fill="#a3a3a3"/>
    <path id="rightSegment7Bronchus" d="M187.12,366.83c.25-.61,1.16-1.5,2.52-2.5,1.99-1.47,4.14-1.35,4.72-1.3-.05,.75-.1,1.82-.07,3.1,.03,1.41,.14,2.54,.43,4.86,.26,2.07,.45,3.6,.83,5.98,.28,1.76,.65,3.98,1.15,6.56-.38,1.98-2.03,3.47-4,3.64-2.07,.18-4.02-1.14-4.65-3.17,.04-2.21,.03-4.09,0-5.55-.02-1.09-.02-.54-.12-3.55-.09-2.9-.76-7.66-.82-8.06Z" fill="#a3a3a3"/>
  </g>
  <g id="rightSegment8">
    <path id="rightSegment8ILateral" d="M154.76,95.41c-1.99,1.95-3.44,3.76-4.43,5.11-2.09,2.86-3.4,5.46-3.81,6.25-1.02,1.96-1.86,4.35-4.29,8.18-1.6,2.53-2.95,4.83-5.37,6.97-1.86,1.65-3.19,2.26-3.66,2.46-2.38,1.03-4.57,1.06-5.84,.97-.06,.46,.87,10.61,2.77,19.82,1.51,7.27,2.08,9.81,3.55,16.07,.25,1.06,2.04,8.44,3.47,14.48,.7,2.95,2.43,11.48,2.57,13.63,.02,.3,.08,1.31,.22,2.67,.08,.7,.16,1.31,.23,1.8,2.25-.45,4.56-.95,6.91-1.5,1.81-.42,4.62-1.07,7.82-1.95,2.88-.79,4.41-1.31,10.47-3.28,9.44-3.08,7.39-2.39,10.42-3.38,7.5-2.45,8.43-2.79,12.02-3.93,6.02-1.92,9.39-2.91,10.29-3.16,1.7-.49,3.13-.88,4.15-1.16-.46-1.54-.92-3.08-1.38-4.62-.48-1.61-.96-3.22-1.45-4.83-.53-1.77-1.76-5.87-1.76-5.88-2.4-8.04-2.65-8.93-3.36-10.99-.79-2.29-1.28-3.69-1.93-5.21-.33-.77-1.06-2.45-2.16-4.54-.77-1.47-2.21-4.07-6.69-10.45-.48-.68,0,0-4.83-6.66-1.75-2.42-2.66-3.68-4.06-5.59-2.49-3.4-3.73-5.1-4.38-5.86-1.4-1.66-2.97-3.21-6.12-6.29-1.77-1.73-2.51-2.4-3.63-3.5-.53-.51-.81-.8-1.24-1.22-1.04-1.03-2.56-2.52-4.52-4.41Z" fill="#949494"/>
    <path id="rightSegment8Medial" d="M29.64,411.74c-1.39,5.42-2.78,10.84-4.17,16.25,7.31,1.53,7,2.08,11.02,3.24,10.19,2.95,14.84,5.05,24.51,7.32,5.44,1.28,9.96,2.03,12.9,2.46-.27-3.7-.55-7.41-.84-11.12-.3-3.87-.6-7.73-.91-11.57-2.62-.55-6.81-1.36-12.03-2.02-8.66-1.09-14.59-.59-20.82-1.92-5.74-1.23-1.59-.35-9.66-2.65Z" fill="#949494"/>
    <path id="rightSegment8Bronchus" d="M176.98,367.79c-.64,.68-1.55,1.6-2.72,2.6-2.46,2.1-5,3.5-6.9,4.57-1.76,.99-3.49,1.89-7.09,3.19-2.13,.77-2.99,.9-4.14,1.23-.16,.4-.9,2.42,.09,4.79,.95,2.26,2.89,3.22,3.31,3.41,1.4-.49,3.06-1.11,5.03-2.05,1.16-.55,3.08-1.51,5.32-3.16,1.43-1.05,1.53-1.02,3.73-2.89,1.94-1.6,5.42-4.78,7.36-6.38,0-.47-.07-1.96-1.16-3.36-1.04-1.34-2.38-1.79-2.84-1.93Z" fill="#949494"/>
  </g>
  <g id="rightSegment9">
    <path id="rightSegment9Lateral" d="M127.36,125.36c.76,8.27,1.86,15.01,2.77,19.82,1.05,5.5,2.24,10.55,3.55,16.07,1.04,4.39,1.7,6.91,3.47,14.48,.94,4.02,1.89,8.11,2.57,13.63,.23,1.86,.37,3.4,.45,4.47-1.85,.66-4.52,1.43-7.82,1.79-1.97,.21-5.37,.55-9.57-.39-3.66-.82-6.96-1.56-8.58-4.26-.27-.45-.64-1.2-1.04-6.44-.26-3.47-.31-5.92-.34-7-.13-4.07-.65-4.96-1.73-12-.4-2.59-.82-6.27-1.66-13.65-.67-5.88-1.01-8.89-1.29-12.34-.34-4.29-.5-7.82-.57-10.21,1.11-.6,2.28-1.27,3.63-1.7,7.13-2.26,11.49-1.93,16.16-2.26Z" fill="#858585"/>
    <path id="rightSegment9Medial" d="M72.15,418.32c6.34,.17,12.69,.35,19.03,.52,3.46,.64,8.88,2.12,14.45,5.9,1.28,.86,5.49,3.84,9.43,9.14,2.26,3.04,3.73,5.9,4.68,8.08-2.88,.19-7.04,.45-12.07,.72-8.87,.49-10.7,.5-12.03,.48-1.52-.01-6.59-.09-13.23-.87-3.38-.4-6.27-.87-8.51-1.29-.58-7.56-1.17-15.13-1.75-22.69Z" fill="#858585"/>
    <path id="rightSegment9Bronchus" d="M171.76,381.84c-1.76,2.26-3.13,4.01-4.48,5.58-.85,1-2.94,3.46-6.29,6.92-.93,.96-2.27,2.25-2.86,2.84-.05,.13-.81,2.21,.56,4.02,1,1.32,2.77,1.99,4.43,1.51,1.79-1.66,3.12-3.07,4.07-4.15,1.12-1.27,1.72-1.75,2.98-3.33,.78-.98,1.7-2.45,2.76-3.82,.96-1.24,1.75-2.28,2.3-3.01,.09-.34,.62-2.33-.57-4.27-.97-1.59-2.47-2.15-2.89-2.29Z" fill="rgba(133, 133, 133, .5)"/>
  </g>
  <g id="rightSegment10">
    <path id="rightSegment10Medial" d="M88.23,336c1.46,1.31,3.81,3.14,7.08,4.42,5.55,2.19,7.43,.33,17.69,.88,7.45,.4,10.43,1.59,18.87,1.18,1.59-.08,2.9-.19,3.75-.27,.43,4.74,.95,11.55,1.28,19.76,.61,15.25-.3,14.19-.35,40.96-.02,7.54-1.22,15.04-1.53,22.58-.2,4.88-.27,8.57-2.88,11.69-3.53,4.23-9.47,4.74-12.39,4.77-.95-2.18-2.42-5.04-4.68-8.08-3.94-5.3-8.16-8.28-9.43-9.14-5.56-3.77-10.99-5.26-14.45-5.9,2.81-2.65,5.63-5.31,8.44-7.96,2.75-8.36,3.81-15.54,4.24-20.64,.57-6.73,1.06-12.43-1.18-19.16-.31-.92-3.17-6.62-5.6-10.91-2.97-5.23-7.07-12.95-8.84-24.18Z" fill="#767676"/>
    <path id="rightSegment10Bronchus" d="M176.09,390.3c-.15-.12-.49-.38-1.01-.46-.45-.07-.81,.02-.99,.08-.83,1.1-3.52,4.8-3.92,5.31-.18,1.29-.18,2.15-.39,3.48-.19,1.18-.38,2.34-.58,3.48l-.57,2.56c.08,.13,1.21,1.94,3.41,2.01,2.3,.07,3.56-1.84,3.62-1.93,.08-1.71,.1-3.52,.06-5.42-.02-.86-.17-2.12-.19-4,0-1.08,.02-1.81,.11-2.6,.12-1.04,.3-1.9,.46-2.51Z" fill="#767676"/>
  </g>
  <g id="leftSegment12">
    <path id="leftSegment12Lateral" d="M296.17,24.91c1.28-1.1,3.28-2.81,5.71-4.92,6.94-6.05,7.94-7.17,11.31-9.93,5.8-4.76,8.71-7.14,12.09-8.4,6.14-2.29,11.61-1.63,13.98-1.32,7.34,.97,12.33,4.27,15.37,6.33,5.23,3.55,8.18,7.42,11.84,12.16,3.76,4.87,6.37,9.33,8.08,12.59-1.23,4.63-2.96,10.81-5.24,18.05-2.62,8.3-4.51,14.29-7.85,22.28-.89,2.13-3.82,9.01-8.36,17.66-1.23,2.35-2.31,4.3-3.1,5.72-.23-2.49-.64-6.06-1.38-10.33-1.77-10.19-2.76-15.92-5.9-21.36-2.47-4.28-7.41-7.96-17.29-15.33-7.6-5.66-9.86-6.51-16.38-11.66-5.81-4.59-10.16-8.79-12.87-11.53Z" fill="#f0f0f0"/>
    <path id="leftSegment12Medial" d="M400.31,287.6c1.87-3.7,3.61-6.97,5.13-9.74,3.87-7.07,5.23-8.98,5.75-9.69,2.65-3.63,5.09-5.99,7.3-8.1,3.69-3.53,7.02-6.7,12.18-9.42,3.16-1.66,6.93-3.69,12.35-4.16,2.59-.23,8.28-.73,13.39,2.54,1.78,1.14,3.11,2.66,5.79,5.71,2.87,3.27,4.23,5.44,6.18,8.09,1.9,2.6,4.78,6.25,8.85,10.41-2.77,2.27-6.35,5.48-10.16,9.69-8.21,9.06-12.77,17.58-14.71,21.48-4.39,8.86-6.68,17.04-7.93,23.42-7.11-2.77-12-6.17-15.1-8.71-2.61-2.14-5.15-4.85-10.24-10.27-3.09-3.29-5.31-5.8-8.87-9.84-2.55-2.89-5.94-6.77-9.91-11.42Z" fill="#f0f0f0"/>
    <path id="leftSegment12Bronchus" d="M337.1,314.74c2.27-2.64,3.62-5.08,4.44-6.82,1.73-3.7,2.52-7.47,3.28-10.97,.73-3.37,.63-3.97,1.83-11.05,.47-2.75,.87-5,1.14-6.48-.45-1.62-1.85-2.8-3.5-2.97-1.6-.16-3.16,.64-3.96,2.06-.14,1.58-.21,3.31-.15,5.18,.03,.9,.08,1.76,.15,2.59-.59-1.42-1.23-2.87-1.9-4.34-.5-1.1-1.01-2.16-1.52-3.2-.1-.03-2.13-.58-3.66,.84-1.11,1.03-1.48,2.66-.95,4.13,.75,.95,1.7,2.4,2.41,4.32,.58,1.56,.82,2.97,.91,4.04,.03,1.92-.02,4.03-.22,6.3-.21,2.54-.57,4.86-.98,6.94-.22,1.47-.84,4.19-2.78,6.97-1.72,2.48-3.74,3.93-4.97,4.68-.13,.29-.37,.93-.29,1.75,.08,.88,.47,1.49,.65,1.74,.81-.47,1.5-.86,2.04-1.17,0,0,1.5-.86,3.21-1.8,1.32-.74,1.41-.77,2.17-1.21,1.12-.64,2.04-1.17,2.65-1.54Z" fill="#f0f0f0"/>
  </g>
  <g id="leftSegment3">
    <path id="leftSegment3Lateral" d="M296.17,24.91c2.8,2.84,7.14,7,12.87,11.53,6.65,5.26,8.81,5.99,16.38,11.66,10.02,7.5,15.03,11.25,17.61,15.89,2.91,5.25,3.85,10.74,5.59,20.79,.74,4.29,1.15,7.87,1.38,10.33-1.86-1.91-5.24-4.83-10.16-6.07-2.45-.62-4.94-.73-11.66,.39-7.73,1.3-13.16,2.21-20.31,5.11-5.13,2.08-8.88,4.36-16.38,8.91-2.85,1.73-6.22,3.98-12.32,7.99-2.74,1.8-4.99,3.29-6.52,4.31-.85-1.26-2.23-3.23-4.06-5.54-4.29-5.43-5.98-6.34-7.67-9.17-.82-1.38-1.79-3.48-2.44-12.65-.56-7.91-1.05-12.01-.24-17.85,.48-3.44,1.26-8.76,4.3-14.97,.7-1.43,3.31-6.57,8.39-11.85,2.9-3.01,5.55-4.98,6.95-6,4.36-3.2,6.17-3.6,10.71-6.73,1.84-1.27,4.53-3.26,7.58-6.09Z" fill="#e0e0e0"/>
    <path id="leftSegment3Medial" d="M477.23,273.25c-2.77,2.27-6.35,5.48-10.16,9.69-8.21,9.06-12.77,17.58-14.71,21.48-4.39,8.86-6.68,17.04-7.93,23.42,3.92-.98,10.07-1.94,17.42-.97,3.41,.45,6.5,1.06,16.45,5.61,5.52,2.52,9.55,4.78,21.48,12,4.79,2.9,10.82,6.56,17.78,10.86,1.05-3.27,2.09-6.55,3.14-9.82,.17-1.79,.36-4.56,.29-7.95-.08-4.03-.52-8.08-2.85-19.31-2.04-9.86-2.47-11.98-3.12-14.06-2.1-6.7-4.03-9.83-5.04-11.33-1.6-2.38-3.31-4.94-6.46-7.07-2.6-1.76-3.21-1.22-10.47-4.01-3.21-1.23-5.84-2.26-8.98-4-2.98-1.65-5.27-3.32-6.82-4.55Z" fill="#e0e0e0"/>
    <path id="leftSegment3Bronchus" d="M332.68,327.79c2.88-1.62,5.24-2.9,6.85-3.77,3.22-1.74,4.82-2.55,7.28-4.02,1.96-1.17,3.57-2.21,4.73-2.97,1.26-1.66,1.4-3.92,.33-5.69-1.1-1.84-3.28-2.78-5.4-2.34-2.43,1.25-4.43,2.46-5.98,3.47-1.43,.93-1.55,1.08-3.01,2.01-1.91,1.21-2.95,1.74-5.9,3.39-1.09,.61-2.66,1.49-4.56,2.59-.06,.45-.3,2.7,1.26,4.77,1.62,2.16,3.99,2.5,4.41,2.55Z" fill="#e0e0e0"/>
  </g>
  <g id="leftSegment4">
    <path id="leftSegment4Lateral" d="M349.99,95.11c-1.25,2.22-3.1,5.41-5.44,9.19-4.21,6.77-8.45,13.6-14.72,21.08-4.64,5.54-5.6,5.72-10.97,12.31-3.41,4.19-6,7.78-7.67,10.17-.56-2.26-1.58-5.48-3.52-9.02-2.35-4.28-3.68-6.71-6.32-7.76-1.01-.4-3.4-1.07-13.34,3.44-4.44,2.01-7.97,3.97-10.4,5.4-.77-5.32-1.28-9.22-1.64-12.06-.31-2.49-.64-5.31-1.95-8.89-.5-1.35-1-2.45-1.37-3.19,1.53-1.02,3.78-2.51,6.52-4.31,5.97-3.93,9.46-6.22,12.32-7.99,6.36-3.95,10.48-6.51,16.38-8.91,7.25-2.95,12.73-3.86,20.8-5.19,6.02-.99,8.5-.98,11.17-.31,4.9,1.23,8.29,4.13,10.16,6.07Z" fill="#d1d1d1"/>
    <path id="leftSegment4Medial" d="M517.55,355.34c-1.21,3.83-2,7.01-2.5,9.23-.68,3.04-.94,4.79-2.5,13.17-.39,2.09-.71,3.81-.93,4.94-7.24-7.21-13.65-12.88-18.5-16.96-6.96-5.87-10.92-9.18-17.14-12.94-4.45-2.69-10.31-6.17-18.76-8.57-5.89-1.67-10.99-2.23-14.56-2.43l1.75-13.96c3.67-.93,9.86-2.01,17.42-.97,5.84,.8,9.84,2.61,16.45,5.61,5.53,2.51,9.55,4.78,21.48,12,4.79,2.9,10.82,6.56,17.78,10.86Z" fill="#d1d1d1"/>
    <path id="leftSegment4Bronchus" d="M347.33,341.8c-.1-.48-.37-2.07,.47-3.8,.83-1.69,2.21-2.46,2.65-2.68,.73,.34,1.68,.76,2.8,1.2,.42,.17,1.96,.76,4.04,1.39,1.61,.48,2.9,.79,4.28,1.11,.71,.17,1.3,.3,1.72,.39,.16,.14,1.85,1.63,1.63,3.86-.19,1.88-1.65,3.49-3.64,3.95-2-.77-3.63-1.39-4.73-1.81-2.44-.92-3.5-1.3-5.33-2.02-1.68-.66-3.03-1.23-3.87-1.59Z" fill="#d1d1d1"/>
  </g>
  <g id="leftSegment5">
    <path id="leftSegment5Lateral" d="M311.19,147.86c-.97,1.51-2.29,3.51-3.87,5.85-1.46,2.14-3.8,5.59-6.89,9.72-2.31,3.09-5.35,6.98-9.12,11.38-3.64,.98-6.72,1.51-8.95,1.82-6.01,.83-7.23,.22-7.92-.36-1.78-1.48-1.77-4.19-1.76-6.69,0-2.08,.36-3.93,2.16-9.29,1.68-5.02,2.45-5.19,3-8.31,.47-2.69,.41-5.13,.37-6.46-.07-2.28-.33-4.2-.58-5.62,2.43-1.43,5.97-3.39,10.4-5.4,9.94-4.51,12.33-3.84,13.34-3.44,2.63,1.05,3.97,3.48,6.32,7.76,1.94,3.54,2.96,6.77,3.52,9.02Z" fill="#c2c2c2"/>
    <path id="leftSegment5Medial" d="M442.67,341.79c3.57,.19,8.66,.75,14.56,2.43,8.45,2.4,14.31,5.88,18.76,8.57,6.22,3.76,10.18,7.07,17.14,12.94,4.84,4.09,11.25,9.75,18.5,16.96-1.48,4.52-1.78,8.19-1.78,10.69,0,3.94,.73,5.41,.24,9.63-.38,3.3-.79,6.43-3.24,8.26-1.45,1.09-3.27,1.2-5.15,1.37-2.09,.19-3.84-.04-5.03-.27-1.54-4.29-3.07-8.59-4.61-12.88-2.38-2.92-4.27-4.71-7.3-8.04h0s-4.01-4.4-9.42-8.42c-1.44-1.07-2.52-1.8-3.45-2.38-1.55-.97-2.81-1.68-3.6-2.12-.34-.19-.59-.32-.66-.36-7.34-3.99-11.44-7.42-11.44-7.42-2.02-1.69-2.12-2.24-6.61-7.7-3.51-4.27-6.48-7.62-8.44-9.78,.51-3.83,1.02-7.66,1.54-11.48Z" fill="#c2c2c2"/>
    <path id="leftSegment5Bronchus" d="M349.79,355.51c1.48,.48,3.11,.05,4.16-1.09,1.05-1.15,1.34-2.81,.73-4.24-.57-.66-1.32-1.54-2.17-2.59-1.34-1.66-1.8-2.31-2.76-3.38-.61-.68-1.41-1.51-2.43-2.41-.72,.08-1.9,.31-3.18,1.01-1.28,.7-2.11,1.57-2.57,2.13,.98,1.56,1.88,2.84,2.59,3.8,1.06,1.44,1.94,2.49,2.8,3.53,1.11,1.33,2.08,2.43,2.82,3.24Z" fill="#c2c2c2"/>
  </g>
  <g id="leftSegment6">
    <path id="leftSegment6Lateral" d="M349.99,95.11c1.41-2.52,3.2-5.82,5.17-9.75,4.25-8.49,6.92-15.12,7.55-16.7,1.65-4.12,4.56-11.79,7.31-21.76,1.77-6.42,3.01-12.08,3.87-16.64,1.78,3.09,4.07,7.42,6.24,12.83,2.54,6.33,3.83,11.4,5.02,16.17,1.55,6.18,1.29,6.5,3.49,17.15,1.92,9.3,2.48,10.77,4.5,20.47,1.29,6.19,2.24,11.26,2.85,14.56-7.48-1.74-15.76-4.08-24.58-7.27-5.07-1.83-9.27-3.59-10.46-4.09-4.05-1.71-7.72-3.4-10.96-4.98Z" fill="#b3b3b3"/>
    <path id="leftSegment6Medial" d="M442.67,341.79c.61-4.68,1.19-9.34,1.75-13.96-4.08-1.63-9.5-4.3-15.1-8.71-4.51-3.56-7.86-7.23-10.24-10.27-2.94-3.2-5.9-6.48-8.87-9.84-3.4-3.84-6.7-7.64-9.91-11.42-1.7,2.56-3.86,6.03-6.05,10.32-1.66,3.23-4.15,8.15-6.18,14.8-1.78,5.8-2.35,10.12-3.36,17.78-.67,5.06-1.21,9.13-1.29,14.69-.1,6.47,.48,11.9,1.07,15.82,8.76-2.15,15.98-2.75,21.06-2.88,9.15-.24,14.7,.94,23.77-.97,5.1-1.08,9.15-2.67,11.81-3.88,.52-3.8,1.04-7.63,1.54-11.48Z" fill="#b3b3b3"/>
    <path id="leftSegment6Bronchus" d="M314.65,352.85c.39,.65,.83,1.34,1.35,2.05,.63,.86,1.26,1.63,1.86,2.29-.91,.97-1.82,1.97-2.74,2.99-.8,.89-1.59,1.78-2.36,2.66-1.34,.35-2.76-.06-3.67-1.08-1.3-1.45-.81-3.31-.77-3.43,.9-.66,1.84-1.38,2.79-2.19,1.32-1.12,2.5-2.22,3.54-3.29Z" fill="#b3b3b3"/>
  </g>
  <g id="leftSegment7">
    <path id="leftSegment7Medial" d="M441.13,353.28c1.96,2.16,4.93,5.51,8.44,9.78,4.05,4.92,4.48,5.79,6.61,7.7,1.69,1.51,2.48,1.91,11.44,7.42,6.49,3.99,7.05,4.37,7.72,4.86,3.89,2.82,6.47,5.44,9.42,8.42,1.98,1.99,4.51,4.69,7.3,8.04,.96,2.63,1.92,5.26,2.87,7.89-2.6-.67-6.35-1.45-10.91-1.75-6.27-.41-11.02,.3-16.15,1.09-3.98,.61-9.22,1.65-15.28,3.49-3.4,.21-7.89,.85-12.88,2.62-3.29,1.16-6.05,2.55-8.27,3.87,1.18-3.51,2.36-7.03,3.53-10.54-1.36-10.32-1.65-18.92-1.62-25.23,.04-7.89,.58-12.14,2.1-16.66,1.65-4.91,3.95-8.61,5.66-11Z" fill="#a3a3a3"/>
    <path id="leftSegment7Bronchus" d="M329.5,375.47c.58,.7,1.37,1.79,1.98,3.28,.75,1.82,.82,3.21,.94,5.68,.14,2.72-.2,3.62-.68,4.27-.39,.53-.81,.82-1.15,1.04-1.07,.72-2.91,1.87-5.68,3.28-.05,.1-1.04,1.94,0,3.75,.74,1.28,2.19,2.02,3.7,1.88,1.36-.91,2.72-1.82,4.08-2.73,1.4-1.26,2.35-2.5,2.96-3.42,.64-.97,1.75-2.67,2.29-5.16,.23-1.04,.3-1.93,.31-2.55-.76-1.6-1.54-3.22-2.35-4.85-1.23-2.49-2.46-4.92-3.7-7.3-.48,.23-1.25,.68-1.93,1.51-.38,.47-.63,.93-.78,1.3Z" fill="#a3a3a3"/>
  </g>
  <g id="leftSegment8">
    <path id="leftSegment8Lateral" d="M291.3,174.81c3.96-4.62,7.16-8.74,9.63-12.07,4.09-5.5,7.22-10.25,7.98-11.41,1.12-1.71,1.32-2.06,2.27-3.47,1.58-2.32,3.84-5.5,7.07-9.43,3.3-4.03,3.46-3.79,7.61-8.61,4.86-5.64,8.18-10.07,8.99-11.15,3.48-4.67,5.89-8.37,7.42-10.74,2.24-3.45,4.89-7.75,7.7-12.81l10.96,4.98c.58,3.63,1.19,8.52,1.44,14.32,.09,1.97,.4,10.31-.9,21.83-.55,4.89-1.25,8.67-2.66,16.24-2.04,10.99-4.07,19.39-5.18,23.79-1.02,4.04-1.94,7.44-2.65,9.97-6.05-.72-10.88-1.66-14.12-2.36-1.53-.33-2.46-.56-14.77-3.78-5.08-1.33-7.97-2.08-12.22-3.08-5.31-1.25-8.18-1.79-11.66-2.07-2.9-.23-5.31-.21-6.94-.14Z" fill="#949494"/>
    <path id="leftSegment8Medial" d="M457.8,427.95c-1.73-5.91-3.47-11.83-5.2-17.74,6.06-1.84,11.3-2.88,15.28-3.49,5.13-.79,9.88-1.5,16.15-1.09,4.56,.3,8.31,1.07,10.91,1.75,.58,1.66,1.16,3.33,1.73,4.99-1.91,.46-4.87,1.26-8.38,2.65-3.45,1.37-4.55,2.16-7.66,3.41-4.71,1.89-6.56,1.83-10.3,2.99-3.18,.99-7.58,2.82-12.54,6.53Z" fill="#949494"/>
    <path id="leftSegment8Bronchus" d="M332.22,372.67c.78,1.42,1.9,3.54,3.15,6.17,1.41,2.96,1.81,4.13,2.89,5.97,.87,1.48,2.24,3.51,4.38,5.69,1,.73,2.03,1.47,3.08,2.21,.7,.49,1.4,.97,2.09,1.43,.3-.06,2.08-.44,3.18-2.19,1.09-1.73,.68-3.49,.61-3.79-.92-.38-2.11-.93-3.42-1.72-.93-.57-2.85-1.81-4.88-3.88-1.54-1.58-2.8-2.86-3.76-4.93-.45-.96-.71-1.85-1.69-3.88-.45-.94-.84-1.7-1.12-2.21-.59-.02-1.38,.02-2.28,.24-.95,.23-1.71,.59-2.23,.88Z" fill="#949494"/>
  </g>
  <g id="leftSegment9">
    <path id="leftSegment9Lateral" d="M360.96,100.09c3.33,1.4,6.82,2.77,10.46,4.09,8.66,3.13,16.91,5.48,24.58,7.27,.62,5.87,.91,11.05,1.05,15.34,.31,9.76-.14,17.19-.28,19.33-.29,4.41-.72,8.54-1.2,13.21-.31,2.94-.53,4.83-1.06,9.88-.62,5.9-.24,6.37-.85,8.29-1.53,4.85-4.93,7.81-6.15,8.78-4.34,3.45-8.87,3.93-10.46,4.07-1.31,.12-3.79-.3-8.73-1.11-3.75-.61-5.47-.98-10.01-1.78-3.12-.55-5.66-.96-7.29-1.22,.71-2.53,1.64-5.93,2.65-9.97,1.11-4.41,3.14-12.81,5.18-23.79,1.41-7.56,2.11-11.34,2.66-16.24,1.3-11.52,.98-19.86,.9-21.83-.25-5.8-.87-10.69-1.44-14.32Z" fill="#858585"/>
    <path id="leftSegment9Medial" d="M405.85,441.19c1.79-3.16,4.21-6.79,7.46-10.46,6.36-7.18,13.22-11.5,18.14-14.03,2.22-1.31,4.98-2.7,8.27-3.87,4.99-1.77,9.47-2.41,12.88-2.62,1.73,5.91,3.47,11.83,5.2,17.74-2.44,2.19-6,5.04-10.71,7.71-3.92,2.22-11.98,6.67-23.29,7.48-4.04,.29-10.4,.25-17.95-1.96Z" fill="#858585"/>
    <path id="leftSegment9Bronchus" d="M338.28,384.79c.23,.41,.53,.92,.9,1.48,.09,.14,.44,.67,.95,1.34,.45,.59,.83,1.05,1.06,1.32,.46,.53,.4,.43,.67,.75,0,0,.49,.51,.73,.77,0,0,.08,.09,.15,.16,.05,.04,.1,.09,.16,.14,.3,.26,.76,.68,1.27,1.24,.43,.46,.98,1.06,1.53,1.88,.19,.28,.69,1.08,1.36,2.87,.55,1.47,.63,2.08,.97,3.18,.33,1.04,.88,2.51,1.88,4.23-.2,.32-1.13,1.72-2.99,2.21-2.12,.55-3.79-.5-4.06-.68-.46-1.74-.98-3.55-1.59-5.41-.75-2.3-.9-2.28-1.31-3.79-.07-.28-.62-2.29-1.23-4-.14-.39-.29-.73-.47-1.05-.08-.14-.23-.38-.44-.66-.26-.34-.52-.61-.72-.8,.25-.54,.49-1.18,.69-1.9,.35-1.24,.47-2.36,.49-3.25Z" fill="#858585"/>
  </g>
  <g id="leftSegment10">
    <path id="leftSegment10Medial" d="M441.13,353.28c-1.72,2.39-4.01,6.09-5.66,11-1.52,4.52-2.06,8.77-2.1,16.66-.03,6.31,.26,14.91,1.62,25.23-1.18,3.51-2.36,7.03-3.53,10.54-4.92,2.53-11.78,6.85-18.14,14.03-3.25,3.67-5.67,7.29-7.46,10.46-2.38-.13-7.84-.79-12.12-4.93-3.08-2.98-4.18-6.43-5.25-9.8-1.16-3.64-1.06-5.37-1.84-12.65-.98-9.21-1.31-8.17-1.95-15.25-.49-5.45-.86-9.64-.68-15.36,.16-4.89,.59-6.56,.69-12.29,.07-4.21-.08-7.66-.23-9.9,9.12-2.22,16.57-2.79,21.71-2.89,8.72-.17,14.25,.91,23.12-.96,5.15-1.09,9.2-2.7,11.81-3.88Z" fill="#767676"/>
    <path id="leftSegment10Bronchus1" d="M337.07,389.91c-.42,.92-.84,1.68-1.21,2.27-.3,.48-.8,1.27-1.6,2.2-.57,.66-1.12,1.17-1.55,1.55-.13,.57-.33,1.5-.52,2.66-.28,1.75-.24,2.21-.53,4.17-.12,.77-.27,1.56-.56,3.15-.24,1.28-.45,2.35-.61,3.12,.12,.19,1.12,1.75,3.11,1.97,1.95,.22,3.26-1.02,3.42-1.18,.25-2.06,.47-3.74,.62-4.9,.31-2.35,.45-3.27,.64-4.9,.19-1.68,.32-3.27,.42-4.41,.09-1.09,.17-2.01,.22-2.68l-.17-.42c-.03-.12-.08-.27-.15-.44-.03-.07-.11-.26-.25-.52-.29-.54-.6-.92-.71-1.05-.14-.16-.32-.37-.55-.58Z" fill="#767676"/>
    <path id="leftSegment10Bronchus2" d="M326.44,376.75c.2-.25,.62-.68,1.28-.98,.77-.35,1.46-.33,1.79-.3,.18,.21,.58,.75,.73,.95,.05,.08,.59,.93,.76,1.25,.19,.36,.56,1.22,.65,1.44,.04,.11,.48,1.76,.49,1.79,.16,.86,.17,1.74,.25,3.19,.08,1.44,.14,1.84,.05,2.66-.09,.92-.26,1.31-.38,1.53-.4,.78-1.05,1.2-1.42,1.4-.19-.58-.49-1.49-.86-2.61-.81-2.44-1.03-3.08-1.61-4.86-.58-1.79-.87-2.7-1.05-3.28-.28-.89-.5-1.65-.66-2.19Z" fill="#767676"/>
  </g>
  <g>
    <path d="M447.27,358.94c1.14,2.45,3.1,6.01,6.37,9.56,4.51,4.89,7.28,4.83,15.97,10.65,3.87,2.59,9.44,6.68,15.15,12.3,3.19,3.14,5.63,5.98,7.3,8.04,1.54,4.29,3.07,8.59,4.61,12.88" fill="none" stroke="#666" stroke-miterlimit="10"/>
    <path d="M96.3,309.82c1.82-1.55,4.61-3.88,8.11-6.64,6.2-4.9,8.38-6.21,11.22-9.21,1.98-2.08,4.59-5.32,6.91-10.07" fill="none" stroke="#666" stroke-miterlimit="10"/>
    <path d="M25.47,427.99c1.39-5.42,2.78-10.84,4.17-16.25,3.56-5.2,6.59-9.81,9.04-13.61,2.44-3.79,5.92-9.05,9.98-16.13,3.58-6.23,8.23-12.51,10.57-15.53,3.59-4.64,2.88-3.5,11.79-12.06,3.5-3.36,6.27-6.16,8.03-7.96" fill="none" stroke="#666" stroke-miterlimit="10"/>
    <path d="M400.31,287.6c3.93,4.62,7.31,8.48,9.91,11.42,4.62,5.23,7.72,8.71,12.05,13.17,3.15,3.24,5.85,5.87,7.78,7.7" fill="none" stroke="#666" stroke-miterlimit="10"/>
    <path d="M124.29,49.24c2.96,15.88,4.99,18.03,14.89,31.77,4.29,5.96,10.91,9.64,15.57,14.41,2.78,2.84,14.21,13.47,16.55,16.68,3.38,4.65,6.75,9.29,10.13,13.94,3.7,5.09,7.42,10.22,10.08,15.93,2,4.29,3.36,8.84,4.72,13.38l6.03,20.12" fill="none" stroke="#666" stroke-miterlimit="10"/>
    <path d="M155.03,95.41c3.54-1.66,9.11-3.8,16.21-4.57,4.05-.44,7.15-.37,8.15-.33,3.86,.17,9.73,.43,15.82,3.4,4.72,2.3,5.9,4.04,11.98,6.67,1.28,.55,2.75,1.03,4.6,1.41,5.8,1.19,12.68,1.03,16.37,3.23q5.23,3.11,17.79,14.74" fill="none" stroke="#666" stroke-miterlimit="10"/>
    <path d="M373.9,30.27c-1.99,10.47-5.17,22.82-10.33,36.22-1.26,3.27-5.73,14.62-13.58,28.62-2.51,4.48-7.91,13.76-16.09,24.86-12.07,16.39-13.66,14.31-22.71,27.88-2.85,4.28-7.11,11.1-14.48,20.38-2.22,2.8-4.12,5.05-5.41,6.57" fill="none" stroke="#666" stroke-miterlimit="10"/>
    <path d="M91.76,303.17c-2.94-1.31-6.23,.15-7.26,.61-3.01,1.33-2.69,2.69-5.75,4.24-3.77,1.9-5.69,.56-7.26,2.42-.93,1.1-.48,1.83-.91,6.96-.29,3.52-.47,5.61-1.21,8.17-1.07,3.69-1.99,3.78-1.82,5.45,.28,2.69,2.72,2.83,6.35,7.26,0,0,1.73,2.11,5.14,8.17,0,0,2.69,1.53,4.24,2.12,2.44,.92,6.12,1.03,8.47-.61,1.36-.94,2.28-2.47,3.33-9.68,.83-5.75,.68-7.75,1.21-14.83,.6-7.91,1.13-9.92,0-13.62-.68-2.23-1.7-5.4-4.54-6.66Z" fill="#eae9ea"/>
    <path d="M83.98,314.29c.36,1.64,1.56,2.95,2.31,4.45,.76,1.52,1.06,3.23,1.71,4.8,.53,1.28,1.29,2.45,2.04,3.62,.33,.5,.75,1.06,1.35,1.08,.33,0,.65-.16,.91-.37,1.39-1.09,1.63-3.06,1.77-4.82l.43-5.43c.13-1.7,.27-3.43-.1-5.11-.33-1.53-1.16-2.89-2.28-3.98-.78-.76-1.68-.9-2.73-.76-1.57,.2-3.08,.79-4.15,2.01-.95,1.08-1.5,2.55-1.35,4,.02,.17,.05,.35,.08,.52Z" fill="#b3b3b3"/>
    <path d="M74.48,312.02c-1.29,1-1.97,2.66-2.09,4.29s.25,3.27,.72,4.84c.61,2.03,1.46,4.11,3.14,5.39,.49,.37,1.04,.67,1.59,.93,.53,.25,1.1,.47,1.68,.49,1.46,.04,2.67-1.26,3.06-2.66s.13-2.89-.13-4.33c-.39-2.2-.8-4.42-1.65-6.49-.36-.87-.78-1.81-1.4-2.54-.43-.51-1-.65-1.64-.72-1.17-.13-2.32,.07-3.28,.81Z" fill="#b3b3b3"/>
    <path d="M70.52,331.34c1.26,1.88,3.09,3.29,4.88,4.66,.65,.5,1.4,1.02,2.22,.91,.48-.07,.9-.35,1.3-.64,.57-.41,1.16-.9,1.33-1.58,.27-1.07-.58-2.06-1.37-2.84-.95-.94-1.9-1.87-2.84-2.81-.57-.57-1.04-1.24-1.64-1.77-1.2-1.06-3.58-.78-4.42,.62-.66,1.11-.11,2.46,.54,3.44Z" fill="#b3b3b3"/>
    <path d="M81.8,337.55c-.96,1.57-1.28,3.55-.68,5.29s2.17,3.15,3.99,3.37c.75,.09,1.52,0,2.26-.17,2.04-.45,4.09-1.52,5.04-3.39,.77-1.52,.68-3.39,0-4.96-.41-.94-1.03-1.78-1.75-2.5-.46-.46-.92-1.09-1.54-1.34-.77-.32-1.77-.15-2.53,.08-.93,.28-1.82,.75-2.61,1.31-.86,.62-1.62,1.4-2.17,2.3Z" fill="#b3b3b3"/>
    <path d="M430.05,319.89c.46-1.48,1.61-4.43,4.46-6.85,1.27-1.08,2.54-1.77,3.56-2.21h0s1.45-.57,9.21-1.15c3.82-.24,3.48,1.9,3.67,2.32,.83,1.82,.64,3.54,2.08,4.87,3.78,3.49,5.22,5.69,5.47,6.33,.97,2.54-.82,3.9-3.17,10.65-1.21,3.47-.73,3.1-3.17,12.37-1.53,5.85-.93,6.98-2.38,9.51-1.02,1.79-2.17,2.89-2.51,3.21-.93,.87-5.22,4.86-10.07,3.39-2.39-.72-4.67-2.69-5.47-5.18-.92-2.87,.93-4.14,.29-8.06-.38-2.33-1.19-2.84-2.59-6.04-1.57-3.61-2.34-7.1-2.59-9.21-.27-2.26-.45-7.37,3.21-13.96Z" fill="#eae9ea"/>
    <path d="M435.77,349.14c-.36,.51-.63,1.07-.87,1.65-.4,.94-.73,1.96-.57,2.97,.19,1.21,1.08,2.23,2.15,2.83s2.31,.83,3.53,.94c.59,.06,1.19,.09,1.78-.02,1.85-.34,3.17-1.98,4.07-3.64,.51-.94,.95-1.94,1.02-3.01s-.29-2.2-1.14-2.86c-.48-.37-1.07-.56-1.65-.74-.63-.2-1.29-.48-1.95-.55-.59-.06-1.15-.13-1.74-.08-1.15,.09-2.29,.48-3.24,1.14-.53,.37-1,.83-1.38,1.37Z" fill="#b3b3b3"/>
    <path d="M443.56,313.05c-1.08-.24-3.8-.66-6.56,.88-.88,.49-3.05,1.7-3.85,4.33-.14,.47-.9,3.13,.61,5.34,1.84,2.7,5.7,2.79,8.04,2.16,3.95-1.06,5.52-4.7,5.88-5.54,.5-1.17,1.17-2.72,.54-4.26-.84-2.04-3.39-2.62-4.66-2.91Z" fill="#b3b3b3"/>
    <path d="M453.09,321.63c-.9-.01-3.07-.04-4.8,1.35-2.28,1.82-2.25,4.84-2.23,7.77,.02,2.07,.06,4.04,1.49,5.14,.78,.6,2.06,1,3.04,.54,.37-.18,.9-.57,1.89-3.85,.93-3.1,.67-3.44,1.42-4.6,.84-1.3,1.46-1.32,1.82-2.5,.3-.97,.36-2.5-.54-3.31-.14-.12-.62-.52-2.1-.54Z" fill="#b3b3b3"/>
    <path d="M438.32,328.17c-.59-.03-2.52-.11-4.33,1.08-1.74,1.15-2.37,2.82-3.04,4.6-.58,1.55-1.12,2.96-.81,4.8,.09,.56,.5,3.02,2.7,4.46,1.52,1,3.97,1.55,5.47,.47,.6-.43,1.01-1.46,1.82-3.51,.91-2.29,.73-2.58,1.42-3.51,.86-1.16,1.46-1.15,2.1-2.37,.29-.55,.8-1.52,.54-2.57-.31-1.26-1.52-1.91-2.64-2.5-.5-.27-1.64-.86-3.24-.95Z" fill="#b3b3b3"/>
    <path d="M186.77,256.08c.4,.19,1.17,.49,2.17,.48,1.13,0,1.97-.39,2.37-.61" fill="none" stroke="#666" stroke-linecap="round" stroke-miterlimit="10" stroke-width=".25"/>
    <path d="M176.34,283.97c.23,.04,2.25,.45,3.24,2.41,1.08,2.14-.04,4.18-.13,4.33" fill="none" stroke="#666" stroke-linecap="round" stroke-miterlimit="10" stroke-width=".25"/>
    <path d="M159.32,349.21c.3,.4,1.09,1.59,1.13,3.3,.04,1.79-.77,3.04-1.06,3.45" fill="none" stroke="#666" stroke-linecap="round" stroke-miterlimit="10" stroke-width=".25"/>
    <path d="M168.01,359.56c.26,0,1.85,0,3.02,1.28,1.45,1.58,.95,3.65,.91,3.8" fill="none" stroke="#666" stroke-linecap="round" stroke-miterlimit="10" stroke-width=".25"/>
    <path d="M156.93,379.97c.24,.07,2.2,.64,3.06,2.67,.88,2.08-.14,3.93-.26,4.13" fill="none" stroke="#666" stroke-linecap="round" stroke-miterlimit="10" stroke-width=".25"/>
    <path d="M188.95,383.46c.14-.19,1.28-1.71,3.33-1.82,2.1-.1,3.39,1.34,3.54,1.52" fill="none" stroke="#666" stroke-linecap="round" stroke-miterlimit="10" stroke-width=".25"/>
    <path d="M201.88,351.41c1.38-1.5,2.76-3.01,4.14-4.51" fill="none" stroke="#666" stroke-linecap="round" stroke-miterlimit="10" stroke-width=".25"/>
    <path d="M314.4,352.56l3.44,4.82" fill="none" stroke="#666" stroke-linecap="round" stroke-miterlimit="10" stroke-width=".25"/>
    <path d="M325.59,393.3c.28,.02,1.48,.14,2.38,1.17,1.28,1.46,.72,3.39,.69,3.5" fill="none" stroke="#666" stroke-linecap="round" stroke-miterlimit="10" stroke-width=".25"/>
    <path d="M350.74,388.67c-.17,0-1.64,.01-2.57,1.23-.72,.94-.84,2.22-.33,3.33" fill="none" stroke="#666" stroke-linecap="round" stroke-miterlimit="10" stroke-width=".25"/>
    <path d="M350.11,354.7c-.03-.16-.25-1.7,.9-2.9,1.17-1.21,2.74-1.02,2.9-1" fill="none" stroke="#666" stroke-linecap="round" stroke-miterlimit="10" stroke-width=".25"/>
    <path d="M361.11,346.21c-.13-.14-1.32-1.44-1-3.25,.25-1.39,1.3-2.53,2.7-2.95" fill="none" stroke="#666" stroke-linecap="round" stroke-miterlimit="10" stroke-width=".25"/>
    <path d="M347.09,309.62c-.95,1.38-1.03,3.2-.19,4.65,.83,1.44,2.43,2.28,4.09,2.16" fill="none" stroke="#666" stroke-linecap="round" stroke-miterlimit="10" stroke-width=".25"/>
    <path d="M189.36,354.44c1.58-.98,3.34-2.19,5.15-3.69,1.75-1.44,3.22-2.88,4.45-4.2" fill="none" stroke="#666" stroke-linecap="round" stroke-miterlimit="10" stroke-width=".25"/>
    <path d="M175.24,377.72c.27-.26,.54-.52,.82-.78,2.52-2.36,5.08-4.44,7.64-6.28" fill="none" stroke="#666" stroke-linecap="round" stroke-miterlimit="10" stroke-width=".25"/>
    <path d="M170.46,394.59c.97-1.24,1.94-2.48,2.91-3.75,.63-.81,1.25-1.63,1.86-2.44" fill="none" stroke="#666" stroke-linecap="round" stroke-miterlimit="10" stroke-width=".25"/>
    <path d="M187.44,369.06c-.02-.39-.06-.83-.14-1.29-.07-.45-.16-.87-.26-1.24" fill="none" stroke="#666" stroke-linecap="round" stroke-miterlimit="10" stroke-width=".25"/>
    <path d="M186.56,269.41c.44,1.86,.94,3.78,1.52,5.74,.19,.65,.39,1.3,.6,1.93" fill="none" stroke="#666" stroke-linecap="round" stroke-miterlimit="10" stroke-width=".25"/>
    <path d="M185.4,281.61c.36-.01,.76-.05,1.19-.11,.57-.09,1.08-.21,1.52-.35" fill="none" stroke="#000" stroke-linecap="round" stroke-miterlimit="10" stroke-width=".25"/>
    <path d="M171.96,356.08c1.1-.88,2.22-1.81,3.35-2.79,1.35-1.17,2.62-2.32,3.82-3.46" fill="none" stroke="#000" stroke-linecap="round" stroke-miterlimit="10" stroke-width=".25"/>
    <path d="M330.83,389.59c.41-.32,1-.88,1.35-1.75,.28-.69,.29-1.27,.26-2.24-.07-2.44-.1-3.66-.34-4.7-.17-.75-.46-1.98-1.24-3.42-.47-.87-.98-1.54-1.37-2.01" fill="none" stroke="#000" stroke-linecap="round" stroke-miterlimit="10" stroke-width=".25"/>
    <path d="M332.69,395.94c1.39-1.25,2.34-2.49,2.96-3.42,.58-.87,1.42-2.16,2.01-4.06,.45-1.47,.57-2.76,.6-3.65,.59,1,1.31,2.09,2.2,3.21,.64,.82,1.28,1.54,1.9,2.19l2.26,1.72" fill="none" stroke="#000" stroke-linecap="round" stroke-miterlimit="10" stroke-width=".25"/>
    <path d="M338.91,392.92c-.1-.32-.23-.68-.42-1.08-.22-.45-.45-.82-.67-1.11" fill="none" stroke="#000" stroke-linecap="round" stroke-miterlimit="10" stroke-width=".25"/>
    <path d="M337.28,314.61c-1.78,1.06-3.23,1.88-4.22,2.44-1.27,.71-2.37,1.32-4.35,2.45-.72,.41-1.31,.75-1.69,.97" fill="none" stroke="#000" stroke-linecap="round" stroke-miterlimit="10" stroke-width=".25"/>
    <path d="M340.32,285.69c.1,1.76,.14,3.7,.05,5.78-.07,1.61-.21,3.13-.38,4.53" fill="none" stroke="#000" stroke-linecap="round" stroke-miterlimit="10" stroke-width=".25"/>
    <path d="M498.07,401.65c2.42,.59,4.75,1.57,6.87,2.89" fill="none" stroke="#666" stroke-linecap="round" stroke-miterlimit="10"/>
    <path d="M102.82,411.79c14.6,5.34,23.36,14.12,26.83,18.97" fill="none" stroke="#666" stroke-linecap="round" stroke-miterlimit="10"/>
    <path d="M41.82,404.96c19.14-3.57,38.78-1.62,52.31,5.02" fill="none" stroke="#666" stroke-linecap="round" stroke-miterlimit="10"/>
    <path d="M6.42,422.04c3.54-8.25,8.22-11.09,16.44-12.93" fill="none" stroke="#666" stroke-linecap="round" stroke-miterlimit="10"/>
    <path d="M392.89,426.92c9.24-9.64,20.94-16.91,33.68-20.91" fill="none" stroke="#666" stroke-linecap="round" stroke-miterlimit="10"/>
    <path d="M439.38,402.17c14.05-3.32,32.35-4.15,46.65-2.12" fill="none" stroke="#666" stroke-linecap="round" stroke-miterlimit="10"/>
  </g>
</svg>