<?xml version="1.0" encoding="utf-8"?>
<!-- Generator: Adobe Illustrator 27.0.0, SVG Export Plug-In . SVG Version: 6.00 Build 0)  -->
<svg version="1.1" xmlns="http://www.w3.org/2000/svg" xmlns:xlink="http://www.w3.org/1999/xlink" x="0px" y="0px"
	viewBox="0 0 934.4 724.4" enable-background="new 0 0 934.4 724.4" xml:space="preserve">
	<path id="rightMetacarpal5" fill="#9D9D9C"
		d="M844.8,357.9c3.6,1.3,7.7,2.8,10.1,6.8c2,3.2,1.8,6.4,1.4,11.9
	c-0.6,9.1-3,15.8-3.6,17.3c-2.9,7.8-5.5,10.6-9.3,17.6c-5.2,9.3-3.5,9.5-12.6,32c-4.9,12.2-5.5,12.4-9.3,22.6
	c-4.5,11.8-6.7,17.9-7.5,24.5c-1.1,8.5,0.2,10.9-2.2,17.3c-0.3,0.9-5.3,14.1-12.2,14c-3.1,0-3.4-2.7-10.1-7.5
	c-7.9-5.8-11.6-4.7-13.7-9c-2-4.1-0.5-8.9,0.6-12.3c2.1-6.4,5.8-10.4,8-12.9c4-4.6,8-11.2,15.1-24.8c4.2-7.9,8.6-16.3,12.6-28.4
	c4.1-12.4,6.9-20.7,7.2-32.4c0.2-9-1.2-13.2,1.1-21.9c1.5-5.5,3.5-13.5,10.1-16.2C835.4,354.4,840.7,356.4,844.8,357.9z" />
	<path id="rightMetacarpal4" fill="#9D9D9C" d="M789.4,326.3c4.2,0.8,8.9,1.6,11.5,5.4c1.2,1.7,1.5,3.4,1.4,10.4
	c-0.1,10.5-0.1,15.7-1.4,19.8c-1.8,5.6-3.9,6.6-7.5,12.6c-1.5,2.5-4.2,7.5-8.6,24.8c-3.5,13.8-2.5,13.5-6.2,29.3
	c-3.2,13.9-5.3,19.9-6.7,31.8c-1.2,10.2-0.7,14.1-0.3,16.5c1.2,6.5,3.2,8.2,2.7,13.2c-0.1,0.8-1.1,9.4-7.4,12.7
	c-2.1,1.1-5,1-10.8,0.8c-7.5-0.2-11.2-0.4-13.5-2.4c-3.4-3.1-3.6-8.1-3.6-10.5c-0.1-2.8,0.5-4.2,2.2-10.8c1-3.7,1.8-7.4,2.7-11.1
	c2.5-9.8,1.8-7.6,4.7-18.6c2-7.9,2-7.3,5.8-22.1c5.2-20.1,5.2-19.5,6.1-24.1c2.7-13.2,4-19.7,3.6-28c-0.5-10.8-3.1-12.9-1.4-20.9
	c0.5-2.4,2.6-7.1,6.8-16.5c3.8-8.4,4.9-10.2,7.2-11.5C780.6,324.6,785.1,325.5,789.4,326.3z" />
	<path id="rightProximalPhalanx5" fill="#C6C6C6" d="M890.5,261c1.4,0.8,6.8,4,7.5,9.4c0.2,1.5,0.1,3.4-2.2,8.6
	c-2.9,6.9-6.1,11.6-6.2,11.9c-1.2,1.9-1.3,2.2-9.7,23.2c-7.7,19.2-8,19.8-8.4,22.4c-0.8,6.3,0,9.9-2.7,15.9c-1,2.2-4.1,9.1-8.9,9.4
	c-2.7,0.2-3.2-2-9.4-5.4c-2.4-1.3-6.5-3.6-11.9-4.6c-5.8-1.1-7.5,0.4-9.4-1.4c-3-2.7-1.9-9.1-0.5-12.9c2.1-5.8,6-8.5,10.5-12.7
	c8.8-8.1,14-16,17.5-21.6c3.2-5,9-14,11.3-23.7c0.9-3.8,2.1-7.5,3.1-11.2c1.7-6.1,1.9-7.1,3.1-8.2
	C878.2,256.7,885.8,258.3,890.5,261z" />
	<path id="rightMiddlePhalanx5" fill="#DADADA" d="M903.7,260.3c-1.2,0.6-2.5,0.7-7.3-0.5c-5-1.3-8.2-2.2-12.4-4.6
	c-5.3-3-8.3-4.8-8.6-7.5c-0.4-2.9,2.3-4.3,7-10c4.6-5.5,7.9-9.5,9.4-14.8c2.2-7.6-1.5-10.5,1.9-17c0.8-1.5,3-5.8,6.7-6.5
	c2.8-0.5,3.7,1.4,10,3.8c5.9,2.2,7.9,1.7,9.2,3.8c1.3,2.2,0.4,5-0.8,8.4c-1.8,5-3.5,6.3-5.9,10.8c-1.6,2.9-4.4,8.2-4.8,14.8
	c-0.4,5.5,1.2,7.5-0.3,12.9C907.1,256,906.2,259,903.7,260.3z" />
	<path id="rightDistalPhalanx5" fill="#EDEDED" d="M926.3,153c0.5,0,4.2,0.1,6.5,3c2.7,3.5,1.2,8.3,0.5,10.2
	c-1.4,4.3-3.3,4.4-5.9,9.2c-0.7,1.3-3.4,6.3-3.8,12.7c-0.5,7.7,2.8,11.7,0.5,13.8c-1.3,1.2-3.3,0.8-7.3,0c-1.5-0.3-5.8-1.3-10.8-4.6
	c-4.1-2.7-6.4-4.2-6.5-6.5c0-2.3,2.4-2.9,7-7.8c3.5-3.7,5.5-5.8,6.7-9.2c1.5-4.1,0.2-5.4,2.2-11.1c0.8-2.2,1.5-4.1,3.2-5.9
	C919.8,155.7,922.4,153,926.3,153z" />
	<path id="rightProximalPhalanx4" fill="#C6C6C6" d="M811.5,325.3c-1.1,1.8-3.4,5.6-6.5,5.7c-2.5,0-3.1-2.4-7-4.9
	c-4.7-2.9-9.7-2.9-11.9-3c-6-0.1-7.6,2-11.1,0.5c-3.7-1.6-5.2-5.4-5.4-5.9c-0.8-2.3-1-5.2,1.1-10.5c2.8-7.2,5.9-9.3,9.2-14.6
	c2.9-4.6,4.1-10.1,6.5-21c1.2-5.3,1-5.6,3.5-21.6c3.3-20.7,3.6-20.3,3.8-25.1c0.2-4.9,0.1-9.3,1.1-16.7c0.8-5.7,1.8-9.8,4.8-13.5
	c1.2-1.4,3-3.5,5.9-4.3c2.8-0.8,4.4,0.1,10.5,1.6c8.7,2.2,8.7,1.2,10.2,2.4c5.7,4.5,3.3,16.2,2.7,19.4c-1.3,6.6-3.3,8-5.9,15.1
	c-2.2,5.8-2.2,8.4-4.3,24.3c-3.4,25.1-3.9,21.9-4,28c-0.1,5.8,0.3,8.2,0.5,28C815.3,312.3,815.3,318.9,811.5,325.3z" />
	<path id="rightMiddlePhalanx4" fill="#DADADA" d="M835.6,168.2c0.4,9.8,2.3,13.2-0.3,17.5c-0.2,0.4-2.5,4.1-6.7,5.4
	c-1.1,0.3-2.6,0.6-8.9-0.8c-5.4-1.2-8.7-1.9-12.9-3.8c-4.7-2.1-7-3.1-8.1-5.4c-0.9-1.9-0.8-4.2,1.9-10.8c3.2-7.8,5.6-9.8,9.2-16.7
	c0.7-1.3,3.7-7.2,5.9-15.4c1.8-6.6,3.2-11.3,3.2-17.8c0-3.3-0.2-6.2,1.1-10.2c1-3,2-6.2,4.6-7.3c3.5-1.5,5.4,2.8,13.8,4.3
	c4.7,0.9,7.5,0.2,9.2,2.4c0.3,0.4,0.9,1.4,0.8,4.8c-0.2,5-1.7,8.8-2.7,11.1c-2.6,6-3.5,6.7-5.1,10.5c-3,6.9-3.7,12.9-4.3,18.3
	C835.9,156.8,835.3,161.7,835.6,168.2z" />
	<path id="rightDistalPhalanx4" fill="#EDEDED" d="M852.3,50.6c3.3,0.5,6,2.6,7.5,5.1c2.9,4.9,0.7,11.1-1.1,15.9
	c-2.8,7.6-5.2,7.1-5.9,12.7c-0.6,4.2-0.1,11.1,0,12.7c0.2,3.2,0.5,5.2-0.8,6.7c-1.4,1.6-3.8,1.7-6.5,1.9c-0.8,0.1-2.9,0.1-6.2-0.5
	c-2.3-0.5-5.8-1.2-9.4-3.5c-2.6-1.6-5.8-3.6-5.9-6.5c-0.1-1.8,1.2-3.2,2.4-4.6c0,0,5.6-6.6,8.6-14.3c2.1-5.3,0.2-5.7,2.7-13.2
	c2.2-6.5,4.4-8.5,5.1-9.2C843.9,53,847.5,49.9,852.3,50.6z" />
	<path id="rightMetacarpal3" fill="#9D9D9C"
		d="M732.7,458.5c0.2,6.5,0.4,10.4,1.3,15.9c1.1,6,2.1,8.1,3,14.6
	c0.9,7,1.4,10.6-0.3,12.9c-0.8,1.1-2.5,2.8-17,4.3c-13.3,1.4-15.4,0.3-16.7-0.8c-3.3-2.9-3.5-7.7-3.6-11.3
	c-0.3-7.9,2.6-12.1,4.7-19.1c1.1-3.6,1-4.5,2.3-23.5c1.7-24.4,1.8-20.3,2.3-30.9c0.2-4.3,0.4-13.5,0.8-31.8
	c0.2-9.7,0.3-15.7-0.7-23.9c-0.9-7.3-1.3-11-3.4-15.8c-2.2-5.1-4.1-6.8-5.1-11.9c-0.8-4-0.4-7,0.3-11.6c1.4-9.7,2.1-14.5,5.9-18.1
	c3.8-3.5,8.7-3.9,15.1-4.3c5-0.4,9.1-0.7,12.9,1.6c3.8,2.2,5.3,5.6,7.8,11.6c2.2,5.1,5.4,12.7,4.8,22.6c-0.3,6.3-1.8,6.4-4.3,17
	c-0.9,3.7-1.5,7.3-3.5,25.1c-1.7,15.7-1.5,15.3-2.7,26.2c-2,17.1-2.7,18.5-3.5,29.8C732.5,447.1,732.6,453.5,732.7,458.5z" />
	<path id="rightProximalPhalanx3" fill="#C6C6C6" d="M744.6,278.4c0.5,2.3,1.5,6.7,1.3,12.4c-0.1,4.3-0.7,6.1-1.9,7.5
	c-2,2.5-5.2,3-6.7,3.2c-4.5,0.7-5.4-1.2-11.1-1.4c-2.1-0.1-4.9,0.4-10.5,1.4c-6.9,1.2-7.5,1.6-9.2,1.1c-4.5-1.5-6.3-7.3-7-9.4
	c-0.4-1.4-1.7-5.9,0-13.8c1.7-7.8,4.2-9,7-17c2.3-6.4,2.8-11.5,3.5-18.3c0.8-7.9,0-8.1,0.3-22.1c0.1-5.3,0.4-14,0.8-22.1
	c0.3-7.4,0.6-10.4-0.3-15.1c-0.8-4.6-1.8-5.6-2.2-10.2c-0.4-4.3-0.7-9.1,2.2-13.2c1.7-2.4,3.7-3.5,5.1-4.3c6.6-3.7,13.6-2.1,17-1.4
	c4.1,0.9,6.9,1.6,9.2,4c3.5,3.8,3.3,9.2,3.2,12.7c-0.1,4.8-1.3,8.3-1.6,9.2c-2.2,6.7-1,9.2-2.2,36.7c-0.3,7.1-0.7,15.2-1.1,28.3
	c-0.2,6.6-0.2,9.5,0.3,13.5C741,261.3,741.2,262.9,744.6,278.4z" />
	<path id="rightMiddlePhalanx3" fill="#DADADA" d="M745.8,134c1.5,5,3.5,7.2,3.2,12.4c-0.1,1.6-0.3,7-3.5,8.6c-1.8,0.9-3.2,0-8.6-1.4
	c-4.5-1.1-8.3-2-12.4-1.9c-6.6,0.2-9,2.9-10.8,1.4c-1.2-1-1.4-3.4,1.6-12.9c3.3-10.5,4.8-11.5,6.7-18.1c2.4-8.5,2.5-15.6,2.4-20.2
	c0-5.5-0.2-10.3-1.9-16.4c-2.2-8.2-1.9-9.2-1.9-10.5c0-2.8,0.1-5.8,2.1-7.9c0.6-0.6,2.1-1.8,11.3-1.6c10.1,0.2,11.8,1.6,12.6,2.5
	c1.1,1.3,1.3,2.7,1.7,5.1c0.8,4.7-0.3,7.9-1.1,12.7c-0.2,1.3-0.5,4.5-1.1,11.1c-0.8,8.9-1,15.9-1.1,18.9
	C745,125.8,744.9,130.9,745.8,134z" />
	<path id="rightDistalPhalanx3" fill="#EDEDED" d="M736.6,0.7c3.5,1.3,5.2,4,5.9,5.1c0.9,1.4,2.4,4.4,1.9,13.8
	c-0.5,8.1-1.7,7.6-1.6,12.9c0.1,4.3,0.2,10,3.5,15.4c2.2,3.5,4.5,4.9,4.6,8.4c0,0.5,0,3.6-2.2,5.4c-1,0.9-2.3,1.2-5.1,1.3
	c-3.9,0.2-5.8-0.3-8.9-0.5c-7.4-0.6-9.7,1.3-12.1-0.8c-1.7-1.5-2.1-3.7-2.2-4.3c-0.5-3.2,1.4-5.2,3-8.9c1.6-3.9,1.7-7.1,1.9-10.8
	c0.1-3.1-0.5-6.6-1.6-13.5c-1.4-8.5-2-9.3-1.6-12.1c0.3-2.6,1-8.2,5.4-10.8C731.5-1.1,736.1,0.5,736.6,0.7z" />
	<path id="rightMetacarpal2" fill="#9D9D9C" d="M688.9,470.7c4.8,10.1,7,11.8,7.8,17.4c0.3,2,0,1.7,0.3,5.7c0.4,4.6,1,6.1,0.2,8.3
	c-0.8,2.4-2.4,3.8-2.7,4.1c-2.5,2.2-4.4,1.4-11.3,3.2c-2.7,0.7-2.7,0.9-5.6,1.6c-2.3,0.6-4.4,1.1-7.2,1.3c-1.1,0.1-3.3,0.2-5.9-0.2
	c-2.2-0.3-5.8-0.8-8.3-2.7c-1.1-0.9-4-3.5-4-14.9c0-6.9,1.1-7,2.3-17.4c0.6-5.2,1.5-15.4,0.8-28.3c-0.1-2.7-0.4-5.9-4.3-33.7
	c-3.9-27.7-2.8-18.1-3.8-25.8c-1.3-10-1.9-15.9-4.3-24.7c-2-7-3-10.6-5.7-14.6c-3.3-5-5.9-6-7.5-10.8c-1.1-3.3-0.9-6-0.5-11.3
	c0.5-7.1,0.9-11.8,4-16.7c0.8-1.2,3.8-5.6,9.7-8.6c1.1-0.6,5.4-2.6,11.3-2.7c2.4,0,9.2-0.1,15.1,4.3c4.9,3.7,6.6,8.7,8.9,15.6
	c1.4,4.3,3,9.1,2.4,15.4c-0.5,5.1-2,5.8-3,11.9c-0.8,5-0.3,7.8,0,14.3c0.3,5.4-0.1,2.8,0,22.1c0,11.8,0.1,17.7,0.3,22.6
	c0.2,4.2,0.6,14.3,2.2,27.2c1,8.1,1.5,12.7,3,19.1C684.9,460.1,686.1,464.7,688.9,470.7z" />
	<path id="rightProximalPhalanx2" fill="#C6C6C6" d="M649,175.6c0.8,7.5,0.9,12.8,0.8,16.2c0,1.4,0.9,7.9,2.4,21
	c0.9,7.8,1.7,14.5,3,23.1c2.2,14.1,3.7,18.8,4.3,20.7c1,2.9,3.6,8.7,6.5,14.7c2,4.1,3.1,6.2,4,10c1.1,4.4,2.4,9.3-0.2,12.2
	c-1.3,1.5-3.3,2-5.3,2.5c-3.1,0.8-5.1,0.3-7.7,0.2c-0.7,0-7.3-0.3-13.7,2.2c-4.9,1.9-5,3.7-9.3,4.5c-1.8,0.3-5.2,1-8.5-0.7
	c-5.3-2.8-6-9.5-6.1-10.2c0.2-3.9,0.7-9.9,2-17.3c1.7-9.4,2.9-11.1,3.4-17.3c0.5-6.9-0.6-10-2.3-21.4c-1.8-11.8-1.1-12.9-2.7-23.4
	c-1.2-8-1.8-12.1-3.2-16c-1.1-3.2-2.1-5.4-3.1-8.5c-0.4-1.2-0.7-2.3-1-3.9c-1.4-6.6-0.9-10.8-0.7-12c0.2-1,0.2-1.5,0.4-1.8
	c1.7-3.5,8.1-2,16.9-3.1c10.8-1.3,13.8-4.9,17.1-2.5C647,165.6,648,167,649,175.6z" />
	<path id="rightMiddlePhalanx2" fill="#DADADA" d="M627.3,86.8c-0.1,1.3,0.4,5.5,1.4,13.8c1,8.4,1.5,12.6,2.7,16.9
	c2.5,9.2,6.8,16.8,7.4,17.8c3.1,5.4,5.3,7.7,6.5,13.1c0.7,3.2,1.5,7-0.5,9.7c-1.1,1.4-4.4,2.4-11.2,4.5c-1.8,0.6-3.3,0.9-5.4,1.3
	c-4.5,0.8-8.2,0.7-8.2,0.7c-1.9,0-4.6-0.1-8.1-0.9c-2.8-0.7-4.2-1-5.1-2.1c-1.6-2.1-0.5-5.1,0.2-8.6c0.4-2,0.6-6.1,1.1-14.4
	c0.2-3.1,0.5-9.6-0.7-17.8c-0.9-6.3-1.7-11.2-4.5-16.9c-0.7-1.5-2.3-4.5-5-10.1c-1.9-3.9-2.7-6-2.7-8.3c0-0.8,0-3.9,1.9-6.3
	c2.1-2.6,4.5-2,14.2-3.8c7.5-1.4,10-2.5,12.4-0.7c1.7,1.2,2.5,3.3,3,4.5C627.8,82.4,627.4,85.2,627.3,86.8z" />
	<path id="rightDistalPhalanx2" fill="#EDEDED" d="M614.9,51.1c1,3.8,1.7,6.3,3.8,8.6c2.2,2.5,4.3,2.8,4.7,5.1c0.4,2.2-1,4-1.2,4.3
	c-1.2,1.5-2.9,1.9-5.8,2.6c-10.1,2.2-8,1.4-14.3,2.6c-1.3,0.3-3.3,0.7-5.8,0.2c-1.4-0.3-3.4-0.7-4.1-2.2c-0.8-1.4,0.2-2.8,1.3-5.9
	c1.2-3.6,1.7-6.4,2.2-9.3c0.4-2.5,0.8-5.3,0.5-9c-0.2-2.8-0.8-5-1.1-5.9c-0.8-2.7-1.5-3.7-2.3-5.8c-0.8-2-2.6-6.5-1.8-11.5
	c0.2-1.3,1-5.8,4.8-9c0.8-0.7,4.8-3.9,9.7-2.9c4.7,1,7.1,5.2,7.7,6.5c2.4,4.4,2,9.2,1.4,15.3c-0.3,3.3-0.7,4.2-0.7,7.4
	C613.8,46.9,614.7,50.4,614.9,51.1z" />
	<path id="rightMetacarpal1" fill="#9D9D9C" d="M624.2,482.1c4.5,4.2,8.1,7.6,13.8,10.6c3.4,1.8,6.2,2.7,8.8,5.9
	c2.4,2.9,3.7,5.7,4.3,7.4c0.8,2.4,1.6,4.7,1,7.3c-0.7,3.1-2.9,4.9-6.6,7.8c-3.3,2.6-5.9,4.1-10,6.2c-6.4,3.4-8.9,3.9-9.8,4.1
	c-2.7,0.5-5.8,1-8.2-0.7c-1.7-1.2-1.9-2.7-3.7-6.7c-1.3-2.9-2.8-5.7-4.3-8.5c-3-5.6-5.5-9.7-8.1-13.7
	c-13.6-21.3-12.6-19.6-13.7-21.4c-7.9-13.1-8-15.7-14.7-25.9c-4.3-6.4-6.8-8.8-10.6-14.2c-1.7-2.4-3.3-4.7-4.8-8.2
	c-1.9-4.1-3.4-7.5-2.9-11.5c0.7-4.9,4.1-8.1,6.8-10.6c5.9-5.4,12.3-6.6,17.3-7.5c5-1,9-1.7,11.7,0.7c1.8,1.6,2.2,3.9,2.7,6.6
	c0.8,4.1-0.1,5.9,0.2,10.1c0.1,1.4,0.3,3.2,2,8.8c1.4,4.6,2.9,9.8,6.1,17.3c2.2,5.1,5.2,11.9,10.4,20.1
	C615.8,472.4,618.8,477,624.2,482.1z" />
	<path id="rightProximalPhalanx1" fill="#C6C6C6" d="M581.4,386.6c-3.5-3.8-6.2-5.6-8.6-7.5c-2.6-2.1-5.6-5.9-11.7-13.5
	c-6.1-7.6-9.1-11.4-11.9-16c-4.1-6.9-6.2-10.3-6.5-14.2c-0.4-5.5,1.6-8.7-0.5-14.2c-0.6-1.4-1.5-3.7-3.8-5.6c-4.3-3.5-10-2.5-12-2.2
	c-2.1,0.4-8.6,1.5-11.2,6.5c-1,2-1.5,4.8,1.3,12.8c3.1,9,5.9,12,10.6,21.2c2.1,4.2,4.1,9.1,8.1,19.1c4.2,10.4,6.3,15.6,6.8,18.5
	c1.2,6.1,2.1,9.4,3.8,15.8c1,3.7,2,6.7,4.1,7.2c1.8,0.4,3.8-1.1,5.7-2.6c2.1-1.6,3.2-3.1,4-4c3.5-4.1,8.6-5.6,11.6-6.6
	c4.7-1.4,7.8-1,12.9-3.7c0.9-0.5,1.8-1,2.2-2.1C586.7,394.6,586.8,392.4,581.4,386.6z" />
	<path id="rightDistalPhalanx1" fill="#EDEDED" d="M527.5,297.5c3.9,2.7,6,4.5,6.5,7.2c0.1,0.7,0.4,2.1-0.4,3.2
	c-1.1,1.5-3.2,1.2-6.5,1.8c0,0-4.1,0.7-7.7,2.7c-4.9,2.7-5.5,5.7-8.4,5.6c-1.9-0.1-3.6-1.4-4.4-2.9c-1.1-2.1,0.1-3.7,0.4-6.6
	c0.3-3.5-1.1-6.1-3.8-11.3c-2.2-4.1-4.3-6.9-6.7-9.9c-4.9-6.3-10.1-11.4-10.8-12c-5.6-5.5-7.6-6.5-8.5-9.9c-0.8-3.1-0.4-7.5,2.2-9
	c2.6-1.5,6.3,0.7,7.9,1.6c4.9,2.9,5.4,6.2,9.7,11.3c5.2,6.2,6.5,3.8,12.2,10.2c5.7,6.4,4.9,9.3,10.4,13.1
	C521.8,294.1,523.2,294.6,527.5,297.5z" />
	<path id="rightTrapezium" fill="#878787" d="M652.9,517.9c0.7-0.7,2.2-2.1,4.5-2.6c2.4-0.4,5.4,0.3,6.9,2.3c1.2,1.6,0.8,3.2,0.7,7.2
	c0,1.3-0.3,7.1,0.5,12.5c0.6,4,1,7,2.8,10.4c1.6,3,3,4,2.7,5.8c-0.4,3-4.7,4.8-6.6,5.5c-4.6,1.9-8.8,1.4-11.7,1.1
	c-1.4-0.2-5.3-0.7-9.8-2.8c-3.8-1.8-6.2-3.7-8.8-5.9c-4.5-3.8-6.8-5.7-7.4-9c-0.1-0.7-0.7-3.3,0.7-5.8c1-1.8,2.4-2.5,7.7-5.1
	c4.8-2.4,7.2-3.6,8.9-4.7c3.6-2.3,5.4-3.5,6.9-5.8C651.4,519.9,651.8,519,652.9,517.9z" />
	<path id="rightTrapezoideum" fill="#878787" d="M672.5,515.3c3.3-1,5.9-1.6,6.9-1.9c4.6-1.2,4.1-1.7,6.7-2.2
	c2.7-0.5,5.7-0.9,8.1,0.8c2.3,1.7,2.8,4.5,3,5.5c0.4,2.3-0.2,3.3-0.7,6.9c-0.2,1.6-0.2,3.8-0.3,8.1c-0.1,5.7-0.1,8.6,0.3,9.8
	c0.6,2.3,1.5,3.6,0.8,5.1c-0.7,1.4-2.2,2-3.2,2.4c-2.2,0.9-3.2,0.4-6.1,0.7c-4.2,0.4-4.5,1.7-8,1.6c-1.5,0-3.2-0.1-5-1.1
	c-1.9-1.1-2.8-2.7-3.8-4.3c-0.4-0.7-1.6-3-2.6-7.5c-0.5-2.6-0.7-4.8-0.9-9.2c-0.1-1.2-0.3-4.2-0.1-8.1c0.1-2.7,0.4-4.2,1.5-5.2
	C669.8,516.1,670.4,515.9,672.5,515.3z" />
	<path id="rightScaphoid" fill="#878787" d="M697.3,558.5c-0.3-1.1-1-3.9-3.1-4.8c-1.1-0.5-2.2-0.4-4.2-0.3c-0.9,0.1-1.8,0.2-3.4,0.5
	c-1.9,0.4-3.2,0.8-6.9,1.8c-3.5,0.9-3.9,1.1-4.7,1.3c-1.9,0.7-3,1.2-4.3,1.8c-3,1.3-5.3,2-8.5,3c-5.8,1.8-7,1.6-8.4,3.1
	c-1.7,1.9-1.9,4.3-2,5.4c-0.1,1.5-0.2,5.9,5.7,12.9c1.7,2,4.5,5,13.3,11.1c4.3,2.9,8.9,6,15.8,9.6c6.9,3.6,13,6.7,21.6,8.4
	c6.5,1.3,11.4,2.2,15.4-0.8c4.2-3.2,4.7-8.8,4.7-9.6c0-0.6,0.3-6.1-3.5-10.1c-2.6-2.7-4.4-2-10.1-4.7c-2.8-1.3-8-3.9-12.4-9
	c-2.8-3.3-5.6-6.6-5.5-11.1C696.8,563.7,698.2,562.1,697.3,558.5z" />
	<path id="rightCapitate" fill="#878787" d="M745.3,512.7c-0.4-1.2-1.7-4.3-4.7-5.9c-2-1-3.8-0.9-7.7-0.4c-5.8,0.7-8.8,1.4-12,1.9
	c-9.5,1.5-10.9,0.2-14.4,2.4c-0.7,0.5-4.2,2.7-5.9,6.9c-0.8,1.9-1,4.2-1.2,8.6c-0.2,2.8-0.3,5.3-0.1,8.6c0.3,6,1.2,6.2,1.8,12.3
	c0.2,2.2,0.5,6.1,0,11.1c-0.5,4.8-1.2,5.3-0.8,7.8c0.6,4.2,3,7,5.1,9.4c2,2.3,5.5,6.3,11.5,8c1.8,0.5,5.5,1.5,9.6,0.1
	c2.6-0.9,3.6-2.2,9.4-8.4c7.8-8.3,8.5-8.7,9-10.7c1-4.1-1.4-5.1-3-13.2c-0.7-3.5-2-10.4-0.2-18.1c0.8-3.5,2-5.8,3.5-12.7
	C745.8,517.4,746.2,515.2,745.3,512.7z" />
	<path id="rightHamate" fill="#878787" d="M795.6,524.6c-0.4-1-1.5-3.3-5-6.3c-1.8-1.5-5.3-4.2-10.7-6.1c-4.5-1.6-8-1.8-12.3-2
	c-8.5-0.5-15.1-0.8-17.9,3c-1.1,1.5-0.3,1.7-1.9,7.7c-1.4,5.1-2.1,5.3-3.2,9.8c-1.2,4.8-1.4,8.5-1.5,9.6c-0.1,1.5-0.2,5,0.5,9.4
	c0.8,5.2,2.3,9.1,3.1,10.9c1.8,4.2,2.8,6.7,5.4,9.2c0.6,0.5,6.8,6.5,11.7,4.5c0.6-0.2,2.2-1,5.1-7.7c2.7-6.1,2.3-7.5,4.3-12.1
	c1.5-3.5,3.6-8.1,8.1-11.9c2.6-2.2,3.2-1.6,8.5-5.6c5-3.7,6.3-5.4,6.6-7.5C796.8,527.6,796.2,526,795.6,524.6z" />
	<path id="rightPisiforme" fill="#878787" d="M815.7,539c-2.5-3.7-6.2-5-6.9-5.3c-2.6-0.9-4.8-0.7-6.1-0.5c0.4,2.5,0.8,5.9,0.9,10
	c0.2,4.4,0,7.9-0.3,11.9c-0.4,5.3-1.1,13.2-2.6,23.2c2.6-0.9,6.8-2.7,10.7-6.6c1.7-1.7,6-6.1,7.2-12.9c0.5-2.9,0.1-5.7-0.7-11.5
	C817.2,541.5,816.3,539.9,815.7,539z" />
	<path id="rightTriquetrum" fill="#878787" d="M797.7,581.7c-0.4,2.2-1.1,5.8-3.9,9.2c-1.2,1.4-2,2.4-3.3,2.8
	c-0.9,0.3-3.4,0.5-12.8-7.3c-5.6-4.6-8.4-6.9-8.8-10.3c-0.2-2.5,1-2.5,3.8-11c1.3-3.9,1.3-4.8,2.7-8.4c0.9-2.3,1.9-4.9,3.6-7.5
	c0.6-0.9,1.9-2.8,4-4.7c2.4-2.1,3.9-2.6,6.7-4.2c6.8-3.9,7.7-7.2,9.4-6.6c2,0.7,1.9,6.1,1.6,16.7c-0.1,4-0.3,7.2-0.8,13.5
	C799.8,566,799.3,573.2,797.7,581.7z" />
	<path id="rightLunate" fill="#878787" d="M785,598.9c-0.6-2.6-2.2-4.3-3.6-5.8c-1.5-1.5-2.1-1.8-5.7-4.3c-0.4-0.3-3.7-2.7-7.2-5.5
	c-4.8-4-4.2-4.1-6.2-5.3c-4.4-2.5-5.8-0.9-8.6-3.4c-2.2-1.9-2.5-4-5.1-4.8c-0.5-0.2-1.7-0.6-3.1-0.1c-1.2,0.3-1.8,1.1-2.4,1.8
	c-1.4,1.5-2.9,2.9-4.2,4.5c-1.8,2.2-3.6,4-7.3,7.5c-2.8,2.8-3.5,3.2-3.8,4.5c-0.5,1.9,0.5,3.2,1.9,6.6c2.2,5.3,1.3,5.7,3.2,10.1
	c1.5,3.5,2.6,6,4.7,8c2.4,2.2,5,2.6,20.8,2.2c10.8-0.3,13.9-0.6,17.8-2.3c6-2.7,7.6-5.8,8.1-6.9C784.8,604.4,785.7,601.9,785,598.9z
	" />
	<path id="rightRadius" fill="#706F6F" d="M741.9,724.4c0-8.2,0-15.7,0-22.4c0.1-20.8,0.4-23.3,1.6-27c3-9,6.5-9.4,8.9-19.7
	c0-0.2,0.7-5.1,1.9-14.8c0.7-5.3,1.4-8.6,0.3-12.9c-0.6-2.2-1.2-4.8-3.4-6.8c-3-2.7-6.8-2.4-12.8-2.4c0,0-8.1,0.1-20.5-0.8
	c-5.2-0.4-10.9-0.8-18.1-2.7c-3.5-0.9-10.1-2.7-17.5-7c-6.3-3.6-14.4-10.5-15.4-11.3c-3-2.5-5.9-5-10.2-5.4c-1-0.1-4.7-0.4-7,1.9
	c-2.5,2.4-2.1,6.5-1.8,9.7c1.6,15.5,5,22.9,5,22.9c13.6,29.5,17.3,29.8,20.5,42.3c2.5,9.9,2.5,18.4,2.4,30.7
	c-0.1,10.4-1,19.2-1.9,25.6C696.6,724.4,719.2,724.4,741.9,724.4z" />
	<path id="rightUlna" fill="#706F6F" d="M801.5,724.1c0.2-10.4,0.1-18.9,0-24.8c-0.1-6.2-0.4-10.9-0.5-21c-0.3-15.1,0-18.1,0.8-21.8
	c0.9-4,1.2-2.9,5.4-15.4c4.3-12.7,4.7-15.7,4.8-17.3c0.7-6.9-0.4-11.8-1.3-15.9c-1.2-5.4-2-8.8-4.3-9.4c-3.4-1-8.2,4.6-9.8,6.5
	c-3,3.5-2.6,4.7-5.3,7c-3.1,2.5-6.4,3.3-8.4,3.8c-2.1,0.5-2.2,0.2-9.7,0.8c-5.7,0.4-6.5,0.7-7.5,1.1c-0.7,0.3-4.3,1.8-6.2,5.4
	c-1.1,2.1-1,3.9-0.5,10c0.7,8,1,12,1.3,13.5c1.5,6.5,3.3,7.8,5.1,13.2c1.8,5.2,1.7,10.2,1.6,20c-0.1,10.8-1.1,14.6-1.9,27.2
	c-0.4,7.4-0.5,13.5-0.5,17.3C776.9,724.1,789.2,724.1,801.5,724.1z" />
	<path id="leftMetacarpal5" fill="#9D9D9C" d="M89.6,357.9c-3.6,1.3-7.7,2.8-10.1,6.8c-2,3.2-1.8,6.4-1.4,11.9
	c0.6,9.1,3,15.8,3.6,17.3c2.9,7.8,5.5,10.6,9.3,17.6c5.1,9.3,3.5,9.5,12.6,32c4.9,12.2,5.5,12.4,9.4,22.6
	c4.4,11.8,6.7,17.9,7.6,24.5c1.1,8.5-0.2,10.9,2.2,17.3c0.3,0.9,5.3,14.1,12.2,14c3.1,0,3.4-2.7,10.1-7.5c7.9-5.8,11.6-4.7,13.7-9
	c2.1-4.1,0.5-8.9-0.6-12.3c-2.1-6.4-5.8-10.4-8-12.9c-4-4.6-8-11.2-15.1-24.8c-4.2-7.9-8.6-16.3-12.6-28.4
	c-4.1-12.4-6.9-20.7-7.2-32.4c-0.2-9,1.2-13.2-1.1-21.9c-1.4-5.5-3.6-13.5-10.1-16.2C99,354.4,93.7,356.4,89.6,357.9z" />
	<path id="leftMetacarpal4" fill="#9D9D9C" d="M144.9,326.3c-4.2,0.8-8.9,1.6-11.5,5.4c-1.2,1.7-1.5,3.4-1.4,10.4
	c0.1,10.5,0.1,15.7,1.4,19.8c1.8,5.6,3.9,6.6,7.6,12.6c1.5,2.5,4.2,7.5,8.6,24.8c3.5,13.8,2.5,13.5,6.2,29.3
	c3.2,13.9,5.3,19.9,6.7,31.8c1.2,10.2,0.7,14.1,0.3,16.5c-1.2,6.5-3.2,8.2-2.7,13.2c0.1,0.8,1.1,9.4,7.4,12.7c2.1,1.1,5,1,10.8,0.8
	c7.5-0.2,11.2-0.4,13.5-2.4c3.4-3.1,3.6-8.1,3.6-10.5c0.1-2.8-0.5-4.2-2.2-10.8c-0.9-3.7-1.8-7.4-2.7-11.1
	c-2.5-9.8-1.9-7.6-4.7-18.6c-2-7.9-2-7.3-5.8-22.1c-5.1-20.1-5.2-19.5-6.1-24.1c-2.7-13.2-4-19.7-3.6-28c0.5-10.8,3.1-12.9,1.4-20.9
	c-0.5-2.4-2.6-7.1-6.8-16.5c-3.8-8.4-4.9-10.2-7.2-11.5C153.8,324.6,149.2,325.5,144.9,326.3z" />
	<path id="leftProximalPhalanx5" fill="#C6C6C6" d="M43.9,261c-1.4,0.8-6.8,4-7.6,9.4c-0.2,1.5-0.1,3.4,2.2,8.6
	c2.9,6.9,6.1,11.6,6.2,11.9c1.2,1.9,1.3,2.2,9.7,23.2c7.7,19.2,8,19.8,8.4,22.4c0.8,6.3,0,9.9,2.7,15.9c1,2.2,4.1,9.1,8.9,9.4
	c2.7,0.2,3.2-2,9.4-5.4c2.4-1.3,6.5-3.6,11.9-4.6c5.8-1.1,7.5,0.4,9.4-1.4c3-2.7,1.9-9.1,0.5-12.9c-2.1-5.8-6-8.5-10.5-12.7
	c-8.8-8.1-14-16-17.5-21.6c-3.2-5-9-14-11.3-23.7c-0.9-3.8-2.1-7.5-3.1-11.2c-1.7-6.1-1.9-7.1-3.1-8.2
	C56.2,256.7,48.5,258.3,43.9,261z" />
	<path id="leftMiddlePhalanx5" fill="#DADADA" d="M30.7,260.3c1.2,0.6,2.5,0.7,7.3-0.5c5-1.3,8.2-2.2,12.4-4.6c5.3-3,8.3-4.8,8.6-7.5
	c0.4-2.9-2.3-4.3-7-10c-4.6-5.5-7.9-9.5-9.4-14.8c-2.2-7.6,1.4-10.5-1.9-17c-0.8-1.5-2.9-5.8-6.7-6.5c-2.8-0.5-3.7,1.4-10,3.8
	c-5.9,2.2-7.9,1.7-9.2,3.8c-1.3,2.2-0.4,5,0.8,8.4c1.8,5,3.5,6.3,5.9,10.8c1.6,2.9,4.4,8.2,4.8,14.8c0.4,5.5-1.2,7.5,0.3,12.9
	C27.3,256,28.1,259,30.7,260.3z" />
	<path id="leftDistalPhalanx5" fill="#EDEDED"
		d="M8,153c-0.5,0-4.2,0.1-6.5,3c-2.7,3.5-1.2,8.3-0.5,10.2c1.4,4.3,3.3,4.4,5.9,9.2
	c0.7,1.3,3.4,6.3,3.8,12.7c0.5,7.7-2.8,11.7-0.5,13.8c1.3,1.2,3.3,0.8,7.3,0c1.5-0.3,5.8-1.3,10.8-4.6c4.1-2.7,6.4-4.2,6.5-6.5
	c0.1-2.3-2.4-2.9-7-7.8c-3.5-3.7-5.5-5.8-6.7-9.2c-1.5-4.1-0.2-5.4-2.2-11.1c-0.8-2.2-1.5-4.1-3.2-5.9C14.6,155.7,12,153,8,153z" />
	<path id="leftProximalPhalanx4" fill="#C6C6C6" d="M122.9,325.3c1.1,1.8,3.4,5.6,6.5,5.7c2.5,0,3.1-2.4,7-4.9
	c4.7-2.9,9.7-2.9,11.9-3c6-0.1,7.6,2,11.1,0.5c3.7-1.6,5.2-5.4,5.4-5.9c0.9-2.3,1-5.2-1.1-10.5c-2.8-7.2-5.9-9.3-9.2-14.6
	c-2.9-4.6-4.1-10.1-6.5-21c-1.2-5.3-1-5.6-3.5-21.6c-3.3-20.7-3.6-20.3-3.8-25.1c-0.2-4.9-0.1-9.3-1.1-16.7
	c-0.8-5.7-1.8-9.8-4.9-13.5c-1.2-1.4-3-3.5-5.9-4.3c-2.8-0.8-4.4,0.1-10.5,1.6c-8.7,2.2-8.7,1.2-10.2,2.4
	c-5.7,4.5-3.3,16.2-2.7,19.4c1.3,6.6,3.3,8,5.9,15.1c2.2,5.8,2.1,8.4,4.3,24.3c3.4,25.1,3.9,21.9,4,28c0.1,5.8-0.3,8.2-0.5,28
	C119.1,312.3,119.1,318.9,122.9,325.3z" />
	<path id="leftMiddlePhalanx4" fill="#DADADA" d="M98.8,168.2c-0.4,9.8-2.3,13.2,0.3,17.5c0.2,0.4,2.5,4.1,6.7,5.4
	c1.1,0.3,2.6,0.6,8.9-0.8c5.4-1.2,8.7-1.9,12.9-3.8c4.7-2.1,7-3.1,8.1-5.4c0.9-1.9,0.8-4.2-1.9-10.8c-3.2-7.8-5.6-9.8-9.2-16.7
	c-0.6-1.3-3.6-7.2-5.9-15.4c-1.8-6.6-3.1-11.3-3.2-17.8c0-3.3,0.2-6.2-1.1-10.2c-1-3-2-6.2-4.6-7.3c-3.5-1.5-5.4,2.8-13.8,4.3
	c-4.7,0.9-7.5,0.2-9.2,2.4c-0.3,0.4-0.9,1.4-0.8,4.8c0.2,5,1.7,8.8,2.7,11.1c2.6,6,3.5,6.7,5.1,10.5c3,6.9,3.7,12.9,4.3,18.3
	C98.5,156.8,99,161.7,98.8,168.2z" />
	<path id="leftDistalPhalanx4" fill="#EDEDED" d="M82.1,50.6c-3.3,0.5-6.1,2.6-7.6,5.1c-2.9,4.9-0.7,11.1,1.1,15.9
	c2.8,7.6,5.2,7.1,5.9,12.7c0.6,4.2,0.1,11.1,0,12.7c-0.2,3.2-0.5,5.2,0.8,6.7c1.4,1.6,3.8,1.7,6.5,1.9c0.8,0.1,2.9,0.1,6.2-0.5
	c2.4-0.5,5.8-1.2,9.4-3.5c2.6-1.6,5.8-3.6,5.9-6.5c0.1-1.8-1.2-3.2-2.4-4.6c0,0-5.6-6.6-8.6-14.3c-2.1-5.3-0.2-5.7-2.7-13.2
	c-2.2-6.5-4.4-8.5-5.1-9.2C90.5,53,86.9,49.9,82.1,50.6z" />
	<path id="leftMetacarpal3" fill="#9D9D9C" d="M201.6,458.5c-0.2,6.5-0.4,10.4-1.4,15.9c-1.1,6-2.1,8.1-3,14.6
	c-0.9,7-1.4,10.6,0.3,12.9c0.8,1.1,2.4,2.8,17,4.3c13.3,1.4,15.4,0.3,16.7-0.8c3.3-2.9,3.5-7.7,3.6-11.3c0.3-7.9-2.6-12.1-4.7-19.1
	c-1.1-3.6-1-4.5-2.3-23.5c-1.7-24.4-1.8-20.3-2.3-30.9c-0.2-4.3-0.4-13.5-0.8-31.8c-0.2-9.7-0.3-15.7,0.7-23.9
	c0.9-7.3,1.3-11,3.4-15.8c2.2-5.1,4.1-6.8,5.1-11.9c0.8-4,0.4-7-0.3-11.6c-1.4-9.7-2.1-14.5-5.9-18.1c-3.9-3.5-8.7-3.9-15.1-4.3
	c-5-0.4-9.1-0.7-12.9,1.6c-3.8,2.2-5.3,5.6-7.8,11.6c-2.2,5.1-5.4,12.7-4.9,22.6c0.3,6.3,1.8,6.4,4.3,17c0.9,3.7,1.5,7.3,3.5,25.1
	c1.7,15.7,1.5,15.3,2.7,26.2c1.9,17.1,2.7,18.5,3.5,29.8C201.8,447.1,201.8,453.5,201.6,458.5z" />
	<path id="leftProximalPhalanx3" fill="#C6C6C6" d="M189.8,278.4c-0.5,2.3-1.5,6.7-1.4,12.4c0.1,4.3,0.7,6.1,1.9,7.5
	c2,2.5,5.1,3,6.7,3.2c4.5,0.7,5.4-1.2,11.1-1.4c2.1-0.1,4.9,0.4,10.5,1.4c6.9,1.2,7.5,1.6,9.2,1.1c4.5-1.5,6.4-7.3,7-9.4
	c0.4-1.4,1.7-5.9,0-13.8c-1.7-7.8-4.1-9-7-17c-2.3-6.4-2.8-11.5-3.5-18.3c-0.8-7.9,0-8.1-0.3-22.1c-0.1-5.3-0.4-14-0.8-22.1
	c-0.4-7.4-0.6-10.4,0.3-15.1c0.8-4.6,1.8-5.6,2.2-10.2c0.4-4.3,0.7-9.1-2.2-13.2c-1.7-2.4-3.7-3.5-5.1-4.3c-6.6-3.7-13.6-2.1-17-1.4
	c-4.1,0.9-6.9,1.6-9.2,4c-3.5,3.8-3.3,9.2-3.2,12.7c0.1,4.8,1.3,8.3,1.6,9.2c2.2,6.7,1,9.2,2.2,36.7c0.3,7.1,0.7,15.2,1.1,28.3
	c0.2,6.6,0.2,9.5-0.3,13.5C193.4,261.3,193.2,262.9,189.8,278.4z" />
	<path id="leftMiddlePhalanx3" fill="#DADADA" d="M188.6,134c-1.5,5-3.5,7.2-3.2,12.4c0.1,1.6,0.3,7,3.5,8.6c1.8,0.9,3.2,0,8.6-1.4
	c4.5-1.1,8.3-2,12.4-1.9c6.6,0.2,9,2.9,10.8,1.4c1.2-1,1.4-3.4-1.6-12.9c-3.4-10.5-4.9-11.5-6.7-18.1c-2.4-8.5-2.4-15.6-2.4-20.2
	c0-5.5,0.2-10.3,1.9-16.4c2.2-8.2,1.9-9.2,1.9-10.5c-0.1-2.8-0.1-5.8-2.1-7.9c-0.6-0.6-2.1-1.8-11.3-1.6
	c-10.1,0.2-11.8,1.6-12.6,2.5c-1.1,1.3-1.4,2.7-1.7,5.1c-0.8,4.7,0.3,7.9,1.1,12.7c0.2,1.3,0.5,4.5,1.1,11.1
	c0.8,8.9,1,15.9,1.1,18.9C189.3,125.8,189.5,130.9,188.6,134z" />
	<path id="leftDistalPhalanx3" fill="#EDEDED" d="M197.7,0.7c-3.5,1.3-5.2,4-5.9,5.1c-0.9,1.4-2.4,4.4-1.9,13.8
	c0.5,8.1,1.7,7.6,1.6,12.9c-0.1,4.3-0.1,10-3.5,15.4c-2.2,3.5-4.5,4.9-4.6,8.4c0,0.5,0,3.6,2.2,5.4c1.1,0.9,2.3,1.2,5.1,1.3
	c3.9,0.2,5.8-0.3,8.9-0.5c7.4-0.6,9.7,1.3,12.1-0.8c1.7-1.5,2.1-3.7,2.2-4.3c0.5-3.2-1.4-5.2-3-8.9c-1.6-3.9-1.7-7.1-1.9-10.8
	c-0.1-3.1,0.4-6.6,1.6-13.5c1.4-8.5,1.9-9.3,1.6-12.1c-0.3-2.6-0.9-8.2-5.4-10.8C202.8-1.1,198.3,0.5,197.7,0.7z" />
	<path id="leftMetacarpal2" fill="#9D9D9C" d="M245.5,470.7c-4.8,10.1-7,11.8-7.8,17.4c-0.3,2,0,1.7-0.3,5.7c-0.4,4.6-1,6.1-0.2,8.3
	c0.8,2.4,2.4,3.8,2.7,4.1c2.5,2.2,4.4,1.4,11.3,3.2c2.7,0.7,2.7,0.9,5.6,1.6c2.4,0.6,4.4,1.1,7.2,1.3c1.1,0.1,3.3,0.2,5.9-0.2
	c2.2-0.3,5.8-0.8,8.3-2.7c1.1-0.9,4-3.5,4-14.9c0-6.9-1.1-7-2.3-17.4c-0.6-5.2-1.5-15.4-0.8-28.3c0.1-2.7,0.4-5.9,4.3-33.7
	c3.9-27.7,2.8-18.1,3.8-25.8c1.3-10,1.9-15.9,4.3-24.7c2-7,3-10.6,5.7-14.6c3.3-5,5.9-6,7.5-10.8c1.1-3.3,0.9-6,0.5-11.3
	c-0.5-7.1-0.9-11.8-4-16.7c-0.8-1.2-3.8-5.6-9.7-8.6c-1.1-0.6-5.4-2.6-11.3-2.7c-2.4,0-9.2-0.1-15.1,4.3c-4.9,3.7-6.6,8.7-8.9,15.6
	c-1.4,4.3-3,9.1-2.4,15.4c0.5,5.1,2,5.8,3,11.9c0.8,5,0.4,7.8,0,14.3c-0.3,5.4,0.1,2.8,0,22.1c0,11.8-0.1,17.7-0.3,22.6
	c-0.2,4.2-0.6,14.3-2.2,27.2c-1,8.1-1.5,12.7-3,19.1C249.4,460.1,248.3,464.7,245.5,470.7z" />
	<path id="leftProximalPhalanx2" fill="#C6C6C6" d="M285.4,175.6c-0.9,7.5-0.9,12.8-0.9,16.2c0,1.4-0.9,7.9-2.4,21
	c-0.9,7.8-1.7,14.5-3,23.1c-2.2,14.1-3.7,18.8-4.3,20.7c-1,2.9-3.6,8.7-6.5,14.7c-2,4.1-3.1,6.2-4,10c-1.1,4.4-2.4,9.3,0.2,12.2
	c1.4,1.5,3.3,2,5.3,2.5c3.1,0.8,5.1,0.3,7.7,0.2c0.7,0,7.3-0.3,13.7,2.2c4.9,1.9,5,3.7,9.4,4.5c1.8,0.3,5.2,1,8.5-0.7
	c5.3-2.8,6-9.5,6.1-10.2c-0.2-3.9-0.7-9.9-2-17.3c-1.6-9.4-2.9-11.1-3.4-17.3c-0.5-6.9,0.6-10,2.3-21.4c1.8-11.8,1.1-12.9,2.7-23.4
	c1.2-8,1.8-12.1,3.1-16c1.1-3.2,2.1-5.4,3.1-8.5c0.4-1.2,0.7-2.3,1-3.9c1.4-6.6,0.9-10.8,0.7-12c-0.1-1-0.2-1.5-0.4-1.8
	c-1.7-3.5-8.1-2-16.9-3.1c-10.8-1.3-13.9-4.9-17.1-2.5C287.4,165.6,286.4,167,285.4,175.6z" />
	<path id="leftMiddlePhalanx2" fill="#DADADA" d="M307.1,86.8c0.1,1.3-0.4,5.5-1.4,13.8c-1,8.4-1.5,12.6-2.7,16.9
	c-2.5,9.2-6.8,16.8-7.4,17.8c-3.1,5.4-5.3,7.7-6.5,13.1c-0.7,3.2-1.5,7,0.5,9.7c1.1,1.4,4.4,2.4,11.1,4.5c1.8,0.6,3.3,0.9,5.4,1.3
	c4.5,0.8,8.2,0.7,8.2,0.7c1.9,0,4.6-0.1,8.1-0.9c2.8-0.7,4.2-1,5.1-2.1c1.6-2.1,0.5-5.1-0.2-8.6c-0.4-2-0.6-6.1-1.1-14.4
	c-0.2-3.1-0.5-9.6,0.7-17.8c0.9-6.3,1.7-11.2,4.5-16.9c0.7-1.5,2.3-4.5,5-10.1c1.9-3.9,2.7-6,2.7-8.3c0-0.8,0-3.9-1.9-6.3
	c-2.1-2.6-4.5-2-14.2-3.8c-7.5-1.4-10-2.5-12.4-0.7c-1.7,1.2-2.5,3.3-3,4.5C306.6,82.4,307,85.2,307.1,86.8z" />
	<path id="leftDistalPhalanx2" fill="#EDEDED" d="M319.5,51.1c-1,3.8-1.7,6.3-3.8,8.6c-2.2,2.5-4.3,2.8-4.7,5.1c-0.4,2.2,1,4,1.2,4.3
	c1.2,1.5,2.9,1.9,5.9,2.6c10.1,2.2,8,1.4,14.3,2.6c1.3,0.3,3.3,0.7,5.8,0.2c1.4-0.3,3.4-0.7,4.1-2.2c0.8-1.4-0.2-2.8-1.3-5.9
	c-1.2-3.6-1.7-6.4-2.2-9.3c-0.4-2.5-0.8-5.3-0.5-9c0.2-2.8,0.8-5,1.1-5.9c0.8-2.7,1.5-3.7,2.3-5.8c0.8-2,2.6-6.5,1.8-11.5
	c-0.2-1.3-1-5.8-4.9-9c-0.8-0.7-4.8-3.9-9.7-2.9c-4.7,1-7.1,5.2-7.7,6.5c-2.4,4.4-2,9.2-1.4,15.3c0.3,3.3,0.7,4.2,0.7,7.4
	C320.6,46.9,319.7,50.4,319.5,51.1z" />
	<path id="leftMetacarpal1" fill="#9D9D9C" d="M310.2,482.1c-4.5,4.2-8.1,7.6-13.8,10.6c-3.4,1.8-6.1,2.7-8.8,5.9
	c-2.4,2.9-3.7,5.7-4.3,7.4c-0.8,2.4-1.6,4.7-1,7.3c0.7,3.1,2.9,4.9,6.6,7.8c3.3,2.6,5.9,4.1,10,6.2c6.4,3.4,8.9,3.9,9.8,4.1
	c2.7,0.5,5.8,1,8.2-0.7c1.7-1.2,1.9-2.7,3.7-6.7c1.3-2.9,2.8-5.7,4.3-8.5c3-5.6,5.5-9.7,8.1-13.7c13.6-21.3,12.6-19.6,13.7-21.4
	c7.9-13.1,8-15.7,14.7-25.9c4.3-6.4,6.8-8.8,10.6-14.2c1.7-2.4,3.3-4.7,4.9-8.2c1.9-4.1,3.4-7.5,2.9-11.5c-0.6-4.9-4.1-8.1-6.8-10.6
	c-5.9-5.4-12.3-6.6-17.3-7.5c-5-1-9-1.7-11.7,0.7c-1.8,1.6-2.2,3.9-2.7,6.6c-0.8,4.1,0.1,5.9-0.2,10.1c-0.1,1.4-0.3,3.2-2,8.8
	c-1.4,4.6-2.9,9.8-6.1,17.3c-2.2,5.1-5.2,11.9-10.4,20.1C318.6,472.4,315.6,477,310.2,482.1z" />
	<path id="leftProximalPhalanx1" fill="#C6C6C6" d="M352.9,386.6c3.5-3.8,6.2-5.6,8.6-7.5c2.6-2.1,5.6-5.9,11.7-13.5
	c6.1-7.6,9.1-11.4,11.9-16c4.1-6.9,6.2-10.3,6.5-14.2c0.4-5.5-1.6-8.7,0.5-14.2c0.6-1.4,1.5-3.7,3.8-5.6c4.3-3.5,10-2.5,12-2.2
	c2.1,0.4,8.6,1.5,11.1,6.5c1,2,1.5,4.8-1.3,12.8c-3.1,9-5.9,12-10.6,21.2c-2.1,4.2-4.1,9.1-8.1,19.1c-4.2,10.4-6.3,15.6-6.8,18.5
	c-1.2,6.1-2.1,9.4-3.8,15.8c-1,3.7-2,6.7-4.1,7.2c-1.8,0.4-3.8-1.1-5.7-2.6c-2.1-1.6-3.2-3.1-4-4c-3.5-4.1-8.6-5.6-11.6-6.6
	c-4.7-1.4-7.8-1-12.9-3.7c-0.9-0.5-1.8-1-2.2-2.1C347.7,394.6,347.5,392.4,352.9,386.6z" />
	<path id="leftDistalPhalanx1" fill="#EDEDED" d="M406.9,297.5c-3.9,2.7-6,4.5-6.5,7.2c-0.1,0.7-0.4,2.1,0.4,3.2
	c1.1,1.5,3.2,1.2,6.5,1.8c0,0,4.1,0.7,7.7,2.7c4.9,2.7,5.5,5.7,8.4,5.6c1.9-0.1,3.6-1.4,4.4-2.9c1.1-2.1-0.1-3.7-0.4-6.6
	c-0.3-3.5,1.1-6.1,3.8-11.3c2.1-4.1,4.3-6.9,6.6-9.9c4.9-6.3,10.1-11.4,10.8-12c5.6-5.5,7.6-6.5,8.5-9.9c0.8-3.1,0.4-7.5-2.2-9
	c-2.6-1.5-6.3,0.7-7.9,1.6c-4.9,2.9-5.4,6.2-9.7,11.3c-5.2,6.2-6.5,3.8-12.2,10.2s-4.9,9.3-10.4,13.1
	C412.5,294.1,411.1,294.6,406.9,297.5z" />
	<path id="leftTrapezium" fill="#878787" d="M281.4,517.9c-0.7-0.7-2.2-2.1-4.5-2.6c-2.4-0.4-5.4,0.3-6.9,2.3
	c-1.2,1.6-0.8,3.2-0.7,7.2c0,1.3,0.3,7.1-0.5,12.5c-0.6,4-1,7-2.8,10.4c-1.6,3-3,4-2.7,5.8c0.4,3,4.7,4.8,6.6,5.5
	c4.6,1.9,8.8,1.4,11.7,1.1c1.4-0.2,5.3-0.7,9.8-2.8c3.8-1.8,6.1-3.7,8.8-5.9c4.5-3.8,6.8-5.7,7.4-9c0.1-0.7,0.7-3.3-0.7-5.8
	c-1-1.8-2.4-2.5-7.7-5.1c-4.8-2.4-7.2-3.6-8.9-4.7c-3.6-2.3-5.4-3.5-6.9-5.8C283,519.9,282.6,519,281.4,517.9z" />
	<path id="leftTrapezoideum" fill="#878787" d="M261.8,515.3c-3.3-1-5.9-1.6-6.9-1.9c-4.6-1.2-4.1-1.7-6.7-2.2
	c-2.7-0.5-5.7-0.9-8.1,0.8c-2.3,1.7-2.8,4.5-3,5.5c-0.4,2.3,0.2,3.3,0.7,6.9c0.2,1.6,0.2,3.8,0.3,8.1c0.1,5.7,0.1,8.6-0.3,9.8
	c-0.6,2.3-1.5,3.6-0.8,5.1c0.6,1.4,2.2,2,3.2,2.4c2.2,0.9,3.1,0.4,6.1,0.7c4.2,0.4,4.5,1.7,8,1.6c1.5,0,3.2-0.1,5-1.1
	c1.9-1.1,2.8-2.7,3.8-4.3c0.4-0.7,1.6-3,2.6-7.5c0.5-2.6,0.7-4.8,0.9-9.2c0.1-1.2,0.3-4.2,0.1-8.1c-0.1-2.7-0.4-4.2-1.5-5.2
	C264.6,516.1,263.9,515.9,261.8,515.3z" />
	<path id="leftScaphoid" fill="#878787" d="M237,558.5c0.3-1.1,1-3.9,3.1-4.8c1.1-0.5,2.2-0.4,4.2-0.3c0.9,0.1,1.8,0.2,3.4,0.5
	c1.9,0.4,3.2,0.8,6.9,1.8c3.5,0.9,3.9,1.1,4.7,1.3c1.9,0.7,3,1.2,4.3,1.8c3,1.3,5.3,2,8.5,3c5.8,1.8,7,1.6,8.4,3.1
	c1.7,1.9,1.9,4.3,2,5.4c0.1,1.5,0.2,5.9-5.7,12.9c-1.7,2-4.5,5-13.4,11.1c-4.3,2.9-8.9,6-15.8,9.6c-6.9,3.6-13,6.7-21.6,8.4
	c-6.5,1.3-11.4,2.2-15.4-0.8c-4.2-3.2-4.7-8.8-4.7-9.6c0-0.6-0.3-6.1,3.5-10.1c2.6-2.7,4.4-2,10.1-4.7c2.8-1.3,8-3.9,12.4-9
	c2.8-3.3,5.6-6.6,5.5-11.1C237.5,563.7,236.1,562.1,237,558.5z" />
	<path id="leftCapitate" fill="#878787" d="M189,512.7c0.4-1.2,1.7-4.3,4.7-5.9c2-1,3.8-0.9,7.7-0.4c5.9,0.7,8.8,1.4,12,1.9
	c9.5,1.5,10.9,0.2,14.4,2.4c0.7,0.5,4.2,2.7,5.9,6.9c0.8,1.9,1,4.2,1.2,8.6c0.2,2.8,0.3,5.3,0.1,8.6c-0.3,6-1.2,6.2-1.8,12.3
	c-0.2,2.2-0.5,6.1,0,11.1c0.5,4.8,1.1,5.3,0.8,7.8c-0.6,4.2-3,7-5.1,9.4c-2,2.3-5.5,6.3-11.5,8c-1.8,0.5-5.5,1.5-9.6,0.1
	c-2.6-0.9-3.6-2.2-9.4-8.4c-7.8-8.3-8.5-8.7-9-10.7c-1.1-4.1,1.4-5.1,3-13.2c0.7-3.5,2-10.4,0.2-18.1c-0.8-3.5-2-5.8-3.5-12.7
	C188.6,517.4,188.2,515.2,189,512.7z" />
	<path id="leftHamate" fill="#878787" d="M138.7,524.6c0.4-1,1.5-3.3,5-6.3c1.8-1.5,5.3-4.2,10.6-6.1c4.5-1.6,8-1.8,12.3-2
	c8.5-0.5,15.1-0.8,17.9,3c1.1,1.5,0.3,1.7,1.9,7.7c1.4,5.1,2.1,5.3,3.2,9.8c1.2,4.8,1.4,8.5,1.5,9.6c0.1,1.5,0.2,5-0.5,9.4
	c-0.8,5.2-2.3,9.1-3.1,10.9c-1.8,4.2-2.8,6.7-5.4,9.2c-0.6,0.5-6.9,6.5-11.7,4.5c-0.6-0.2-2.2-1-5.1-7.7c-2.7-6.1-2.3-7.5-4.3-12.1
	c-1.5-3.5-3.6-8.1-8.1-11.9c-2.6-2.2-3.2-1.6-8.5-5.6c-5-3.7-6.3-5.4-6.6-7.5C137.5,527.6,138.2,526,138.7,524.6z" />
	<path id="leftPisiforme" fill="#878787" d="M118.6,539c2.5-3.7,6.2-5,6.9-5.3c2.6-0.9,4.8-0.7,6.1-0.5c-0.4,2.5-0.8,5.9-0.9,10
	c-0.2,4.4,0,7.9,0.3,11.9c0.4,5.3,1.1,13.2,2.6,23.2c-2.6-0.9-6.8-2.7-10.6-6.6c-1.7-1.7-6-6.1-7.2-12.9c-0.5-2.9-0.1-5.7,0.7-11.5
	C117.1,541.5,118,539.9,118.6,539z" />
	<path id="leftTriquetrum" fill="#878787" d="M136.7,581.7c0.4,2.2,1.1,5.8,3.9,9.2c1.2,1.4,2,2.4,3.4,2.8c0.9,0.3,3.4,0.5,12.8-7.3
	c5.6-4.6,8.4-6.9,8.8-10.3c0.2-2.5-0.9-2.5-3.8-11c-1.3-3.9-1.3-4.8-2.7-8.4c-0.9-2.3-1.9-4.9-3.6-7.5c-0.6-0.9-1.9-2.8-4-4.7
	c-2.4-2.1-3.9-2.6-6.7-4.2c-6.8-3.9-7.7-7.2-9.4-6.6c-2,0.7-1.9,6.1-1.6,16.7c0.1,4,0.4,7.2,0.8,13.5
	C134.6,566,135.1,573.2,136.7,581.7z" />
	<path id="leftLunate" fill="#878787" d="M149.3,598.9c0.6-2.6,2.2-4.3,3.6-5.8s2.1-1.8,5.7-4.3c0.4-0.3,3.7-2.7,7.1-5.5
	c4.8-4,4.2-4.1,6.2-5.3c4.4-2.5,5.8-0.9,8.6-3.4c2.2-1.9,2.5-4,5.1-4.8c0.5-0.2,1.7-0.6,3.1-0.1c1.2,0.3,1.8,1.1,2.4,1.8
	c1.4,1.5,2.9,2.9,4.2,4.5c1.8,2.2,3.6,4,7.3,7.5c2.8,2.8,3.5,3.2,3.8,4.5c0.5,1.9-0.5,3.2-1.9,6.6c-2.2,5.3-1.3,5.7-3.2,10.1
	c-1.5,3.5-2.6,6-4.7,8c-2.4,2.2-5.1,2.6-20.8,2.2c-10.8-0.3-13.9-0.6-17.8-2.3c-6-2.7-7.6-5.8-8.1-6.9
	C149.5,604.4,148.6,601.9,149.3,598.9z" />
	<path id="leftRadius" fill="#706F6F" d="M192.5,724.4c0-8.2,0-15.7,0-22.4c-0.1-20.8-0.4-23.3-1.6-27c-3-9-6.5-9.4-8.9-19.7
	c-0.1-0.2-0.7-5.1-1.9-14.8c-0.7-5.3-1.4-8.6-0.3-12.9c0.6-2.2,1.2-4.8,3.4-6.8c3-2.7,6.9-2.4,12.8-2.4c0,0,8.1,0.1,20.5-0.8
	c5.2-0.4,10.9-0.8,18.1-2.7c3.5-0.9,10.1-2.7,17.5-7c6.3-3.6,14.4-10.5,15.4-11.3c3-2.5,5.9-5,10.2-5.4c1-0.1,4.7-0.4,7,1.9
	c2.5,2.4,2.1,6.5,1.8,9.7c-1.6,15.5-5,22.9-5,22.9c-13.6,29.5-17.3,29.8-20.5,42.3c-2.5,9.9-2.5,18.4-2.4,30.7
	c0.1,10.4,1,19.2,1.9,25.6C237.8,724.4,215.1,724.4,192.5,724.4z" />
	<path id="leftUlna" fill="#706F6F" d="M132.9,724.1c-0.2-10.4-0.1-18.9,0-24.8c0.1-6.2,0.4-10.9,0.5-21c0.3-15.1,0-18.1-0.8-21.8
	c-0.9-4-1.1-2.9-5.4-15.4c-4.3-12.7-4.7-15.7-4.9-17.3c-0.7-6.9,0.4-11.8,1.4-15.9c1.2-5.4,2-8.8,4.3-9.4c3.4-1,8.2,4.6,9.8,6.5
	c3,3.5,2.6,4.7,5.3,7c3.1,2.5,6.4,3.3,8.4,3.8c2.1,0.5,2.2,0.2,9.7,0.8c5.7,0.4,6.5,0.7,7.6,1.1c0.7,0.3,4.3,1.8,6.2,5.4
	c1.1,2.1,1.1,3.9,0.5,10c-0.7,8-1,12-1.4,13.5c-1.5,6.5-3.3,7.8-5.1,13.2c-1.8,5.2-1.7,10.2-1.6,20c0.1,10.8,1.1,14.6,1.9,27.2
	c0.4,7.4,0.5,13.5,0.5,17.3C157.5,724.1,145.2,724.1,132.9,724.1z" />
</svg>