<?xml version="1.0" encoding="utf-8"?>
<!-- Generator: Adobe Illustrator 27.0.0, SVG Export Plug-In . SVG Version: 6.00 Build 0)  -->
<svg version="1.1" xmlns="http://www.w3.org/2000/svg" xmlns:xlink="http://www.w3.org/1999/xlink" x="0px" y="0px"
	 viewBox="0 0 766.6 618.2" enable-background="new 0 0 766.6 618.2" xml:space="preserve">
<g>
	<path fill="#DADADA" d="M153.6,432.7c-9.9-1.7-10.5-4.9-32.2-15.7c-22.2-11.1-24.2-9-34.7-16.5c-9.5-6.8-15.1-13.7-24.8-25.6
		c-6.5-8-15.1-18.7-22.3-32.2c-6-11.4-19.6-36.9-16.5-70.2c1-10.4,4-39.3,27.3-62.8c20.4-20.6,50-30.8,76-28.1
		c15.5,1.6,16.1,6.4,52.9,14c22.6,4.7,34.2,5.4,43.8-0.8c7.3-4.7,6.8-9.1,15.7-18.2c11-11.3,24.5-17.5,33.1-19.8
		c35.4-9.8,69.9,22.9,72.7,25.6c23.8,23.1,27.8,52.1,29.8,66.1c0.9,6.6,3.6,29.8-5,57.9c-2.8,9-11.5,34.5-34.7,57.9
		c-21.2,21.4-43.9,30.5-57,35.5c-16.2,6.3-15.7,3.3-44.6,13.2c-17.6,6-26.1,10-44.6,14.9C164,434.1,156.6,433.2,153.6,432.7z"/>
	<path fill="#DADADA" d="M109,178.1c-9.3,0.6-30.3,3.3-50.4,18.2c-16.5,12.2-24.5,26.9-26.4,30.6c-3.4,6.5-5.4,12.3-6.6,16.5
		c-3.6-2.1-8.3-5.7-10.7-11.6c-2-4.7-1.2-7.8-0.8-18.2c0.5-15.7-1.1-15.2,0-24c1.3-10.5,2.1-16.4,6.6-21.5
		c9.4-10.5,27.3-8.5,28.9-8.3c7.4,0.9,9.7,3.6,18.2,3.3c6.9-0.2,7.1-2,14-2.5c3.8-0.3,17.5-1.2,24,7.4
		C106.9,169.9,108.7,173,109,178.1z"/>
	<path fill="#DADADA" d="M525.6,2.2C569.8,1.5,614,0.8,658.3,0c3.9,15.3,11.7,38.4,28,62.6c10.4,15.3,14.5,16.7,31.3,38.8
		c22.6,30,34,45,37.8,64.7c1.7,8.7-0.7,3.3,0,53.9c0.2,12.6-1.8,25.3,0,37.8c0.8,5.4,2,11.8-0.6,19.4c-0.3,0.8-3.4,9.5-11.3,15.1
		c-9.5,6.8-19,4-42.1,2.2c-37.9-3.1-40.5,2.2-49.6-4.3c-5.3-3.8-19.7-16.4-23.7-32.4c-0.6-2.2-1.8-7.8-6.5-11.9
		c-3.4-2.9-9.1-5.3-12.9-3.2c-3.7,2-3.8,7-5.2,12.4c-2.7,10.8-9.1,17.7-15.3,24.3c-10.3,11.1-23.5,13.7-39.9,17.3
		c-19.8,4.3-35.9,7.8-46.4-1.1c-4.6-3.9-6.8-14.2-10.8-34.5c-3.6-18-5.9-30.2-6.5-47.5c-0.4-12.8-0.6-20.3,1.1-30.2
		c1.5-8.7,4.1-16.8,25.9-59.3c10.1-19.7,11.2-21.1,12.9-27c3.4-11.5,3.8-20.9,3.2-44.2C527.4,38.8,526.8,21.7,525.6,2.2z"/>
	<path fill="#DADADA" d="M571.2,618.2c30.5,0,60.9-0.1,91.4-0.1c0.1-12.8,1-30.3,4.3-50.7c3.9-24.5,9.5-42,16.2-62.6
		c12.8-39.6,19.2-59.4,30.2-73.3c11.4-14.5,21.2-20.3,28-38.8c1.1-3,2.9-12.8,6.5-32.4c5.6-30.7,6.7-38.3,2.2-42.1
		c-3.2-2.7-6.8-1.3-18.3,0c-9,1-26.1,3-41,1.1c-22-2.9-25.9-12.6-38.8-8.6c-7.6,2.3-8.6,6.4-19.4,9.7c-3.1,1-10,2.7-21.6,2.2
		c-20.7-1-22.2-7.9-39.9-9.7c-13.7-1.4-24.2,1.5-42.1,6.5c-12.1,3.4-18.3,5.2-21.6,9.7c-8.3,11.4,0.2,30.5,4.3,39.9
		c10.4,23.4,21,24.8,36.7,50.7c3.5,5.8,11.9,20.3,17.3,38.8c7.2,24.8,5.3,43.9,4.3,63.6C568.6,545,568,577.4,571.2,618.2z"/>
	<path fill="#DADADA" d="M534.2,618.2c0.5-29.9,0.3-53.3,0-69.6c-0.1-4.8,0.1-19.6,0.5-49c0.2-13.2,0.3-20,2.3-28.7
		c3.6-15.4,10.7-26.9,16-34.1c-2.3-5.2-6.1-13-12.1-21.7c-2.1-3-2.9-3.9-11.3-14.2c-14.8-18.2-16.3-20.6-17.3-22.1
		c-3.2-5.1-7.3-12.9-10.2-23.8c-3,1.9-7.2,4.8-11.3,9.2c-7.4,7.9-10.4,16-12.7,22.2c-2.5,6.8-6.2,17.1-5.1,30.6
		c1.1,13.8,6.6,24,10,30.3c3,5.6,4.3,6.6,6.7,10.8c7.9,13.7,8.6,27.5,8.9,37.9c0.9,28.2,0.8,47.7,0.5,60.2c-0.1,4.7-0.2,5.8-0.3,9.4
		c-0.1,3.2-0.2,5.9-0.2,6.2c-0.1,3.5-0.6,21.6-1.2,46.3c6.1,0,12.2,0.1,18.4,0.1C521.9,618.2,528.1,618.2,534.2,618.2z"/>
</g>
<g id="medialMeniscus">
	<path fill="#878787" d="M656.4,309.8c1.5,0.1,3.7,0.3,6.2,1.1c1.6,0.5,2.7,1,4.2,1.6c3.8,1.7,7.3,3,8.8,3.6c4.1,1.5,7.4,2.2,10,2.7
		c1.5,0.3,5,0.9,10.7,1.2c7.2,0.4,12.8,0.1,17.6-0.2c7.2-0.4,13-1.1,19.3-1.9c0.6-0.1,3.3-0.5,6.9-0.9c0.6-0.1,1.1-0.1,1.4-0.2
		c0.8-0.6,1.9-1.5,2.8-3c1.5-2.5,1.5-4.9,1.5-7.6s0-5.6-1.9-8.6c-1.1-1.8-2.4-2.9-3.4-3.6c-0.8,0.4-1.9,1-3.4,1.4
		c-1.1,0.3-2.2,0.6-4.6,0.8c-1.9,0.2-3.7,0.4-6.3,0.4c-3.9,0-6.7-0.4-9.3-0.7c0,0-2.9-0.3-12.1-1.2c-7.2-0.7-12.7-0.9-14-1
		c-5.9-0.3-10.3-0.5-16.2-0.4c-1.8,0-3.7,0.1-6.9,0.1c-3.6,0-6.5-0.1-8.5-0.2c-0.9,0.4-2.1,1.1-3.3,2.3c-1,0.9-2.5,2.4-2.8,4.7
		c-0.2,1.2,0.1,2.1,0.5,3.8c0.4,1.8,1.1,3,1.2,3.3C655.5,308.6,656,309.3,656.4,309.8z"/>
	<path fill="#878787" d="M318.9,319.4c-2.5,7-5.1,14.2-11.6,21.5c-4.7,5.3-11,12.5-20.7,14c-6.7,1.1-8.1-0.9-19,0.8
		c-9.9,1.6-13,4.1-14.2,5.1c-4.8,4.4-5.7,10.3-5.9,11.9c-0.8,6.1,1,13.7,6.2,18.1c6.4,5.3,15.3,3.4,24.6,1.3c3-0.7,15-3.2,30.6-14
		c15.8-11,25.5-22.5,28.1-25.6c4-4.9,13.3-16.9,20.7-34.7c4.1-10,8.3-23.4,9.9-39.7c0.5-5.6,1.6-20.3-1.7-38.8
		c-2.2-12.3-4-22.7-11.6-33.9c-6.9-10.3-15.4-15.7-18.2-17.4c-10-6.2-19.2-7.6-25.8-8.6c-6.2-0.9-23.6-3.3-42.6,4.9
		c-8.8,3.7-17.2,7.3-21.6,16.4c-2.9,6.1-4.8,16.1,0,23.2c3.8,5.6,11.9,7.5,28,11.2c8,1.8,16.9,3.6,27.7,9.5c0.7,0.4,1.3,0.8,2,1.3
		c9.7,6.7,13.3,17,15.7,23.1c4.5,11.7,4.3,21.7,4.1,26.4C323.5,306.5,320.6,314.6,318.9,319.4z"/>
</g>
<g id="lateralMeniscus">
	<path fill="#878787" d="M500.7,311.3c0.4,2.2,1.1,6.1,3.9,10.1c1.6,2.3,3.3,3.8,4.6,4.8c0.8-0.5,1.9-1.2,3.4-1.9
		c1.4-0.7,2.8-1.2,6.5-2.4c2.7-0.9,4.9-1.4,6.6-1.9c3.7-1,4.3-1.1,7-1.9c0.5-0.2,1.7-0.5,3.3-1c0.7-0.2,1.5-0.4,2.6-0.7
		c7.1-1.8,10.6-2.7,15.6-3.3c6.1-0.7,10.4-0.6,12.3-0.5c4,0.2,7.3,0.8,7.8,0.9c1,0.2,1.8,0.4,2.4,0.5c1.1-1.2,3.1-3.6,3.9-7.2
		c0.7-3,0.2-5.5,0-6.7c-0.1-0.5-0.2-1-0.3-1.5c-0.1-0.4-0.5-1.6-1.3-3.4c-1.3-2.8-3.3-5.7-3.7-6.4c-0.3,0.2-0.8,0.4-1.4,0.6
		c-5.7,2.6-10.4,3.7-14.8,4.8c-8.8,2.1-15.4,3.4-16.8,3.7c-8.8,1.8-11.9,2.3-13.6,2.5c-2.1,0.3-9.3,1.1-15.1,0.3
		c-3-0.4-5.1-1.2-5.7-1.5c-1.4-0.5-2.5-1.1-3.2-1.6c-1.1,0.9-3,2.6-4,5.2C499.7,305.7,500.1,308.1,500.7,311.3z"/>
	<path fill="#878787" d="M173.4,245.1c4.4-8.4,1.5-17,0-21.5c-5.2-15.5-18.9-23.2-24.8-26.4c-13.8-7.7-26.8-8.2-32.2-8.3
		c-16.1-0.3-27.8,4.8-33.9,7.4c-13.7,6.1-22.2,14.1-26.4,18.2c-5.8,5.6-13,12.5-18.2,24c-5.4,12-5.6,22.5-5.8,33.1
		c-0.1,6.7,0.3,17.6,3.5,30.6c3.8,15.4,7.2,28.9,19.1,40.4c2.8,2.7,16,15.4,35.6,15.9c15.4,0.4,27-6.8,35.9-12.4
		c7-4.4,11.1-8.5,14.8-12.1c8-7.9,12.6-12.6,12.1-18.9c-0.3-4.9-3.7-10.3-8.4-11.6c-4.9-1.3-8.2,2.9-18.3,8.6
		c-8.6,4.9-15.6,8.9-24,9.4c-1,0.1-16.5,0.8-26.2-10.5c-6.7-7.9-6.9-17.1-7-28c-0.2-11.4,2.6-20,4.1-24.7c3.1-9.4,5-15.3,10.7-20.7
		c1.3-1.2,10.4-9.4,23.1-9.1c10.4,0.2,18.2,6,28.1,13.2c12.7,9.3,14.5,14.9,21.5,14.9C164.1,256.6,170.5,250.7,173.4,245.1z"/>
</g>
<g id="medialCollateral">
	<path fill="#B2B2B2" d="M755.9,170.5c1.3,1.1,3.2,2.8,4.8,5.3c1.9,2.8,2.8,5.4,3.5,8c2.5,8.9,2.4,16.3,2.4,16.3
		c-0.1,14-2.2,23.1-3.9,43.1c0,0-1,11.3-1.5,25.2c-0.1,1.8-0.1,3.8-0.1,6c-0.2,11.4,0.6,12.4,0.3,21.6c-0.3,8.2-1,14.2-3.2,30.9
		c-1.4,10.5-1.9,13.5-3,21.6c-0.6,4.4-1,7.3-1.1,8.2c-2.5,18-8,44-9.4,51c-1.2,5.7-1.7,8-2.6,11.1c-3.1,11-6.6,18.9-7.4,20.6
		c-2.7,5.9-3.3,5.8-8.9,16.6c-3.2,6.2-5.2,10.4-7,14c-9.3,19-11.8,21.5-19.1,36.9c-7.9,16.7-11.9,25.1-15.1,36.4
		c-2.6,9.1-2.4,11.4-6.2,24.3c-3.3,11.2-6.3,18.7-10.5,26.4c-2.2,4-4.2,7.1-5.7,9.2c0.2-3.6,0.5-8.2,1-13.4
		c1.1-11.2,2.5-20.2,3.4-25.3c0.6-3.8,1.5-8.4,2.6-13.6c3.5-10.2,8.5-23.9,15.2-39.9c5.5-14.1,12.5-30.9,23.5-51.7
		c4.4-8.3,12.3-22.7,22.9-43.4c3.8-7.4,7.3-14.4,9.8-24.2c1.1-4.6,2.4-11.4,3.9-18.9c0.7-3.8,0.6-3.1,2.1-11.4
		c3-16.4,3.7-19.5,4.4-25.9c0.4-3.7,0.2-2.7,0.8-9.4c0.9-10.5,1.9-17.7,2.4-21.5c1.4-11.2,2.3-19.6,2.1-30.3
		c-0.2-10-1.2-11-1.5-23.7c0-1.1,0-2.8,0-5.1c0.1-11.1,1-17.7,1.4-23.3c0.7-9.1-0.5-9.7-0.9-24C755.1,191.7,755.1,182.2,755.9,170.5
		z"/>
	<path fill="#B2B2B2" d="M366.5,314.5c3.9-10.5,8.6-26.8,8.9-47.2c0.3-18.8-3.2-34.1-6.4-44.4c1.1,0.8,9.5,6.7,15.2,7.3
		c1.6,0.2,3.6,0.2,3.6,0.2c2.7-0.1,4.1-0.7,6.3-0.2c12.7,2.9,13.2,41.8,13.2,43.8c0,8.7,0.2,33.8-9.9,37.2c-3.7,1.3-5.9-1.1-14-0.8
		C376.2,310.6,370.4,312.6,366.5,314.5z"/>
</g>
<g id="lateralCollateral">
	<path fill="#B2B2B2" d="M14.2,187.5c-2.3,0.9-5.7,2.6-8.3,6c-2.1,2.8-3,5.8-4,16.5c-0.9,9.6-0.4,9-1.1,17.9
		c-0.7,9-1.6,13.6,0.6,19.6c1.7,4.8,3.5,5.7,4.5,6c2.4,0.6,5.1-1.1,6.5-2.8c1.7-2.1,1.1-3.7,2.5-6.9c1.2-2.6,2.9-4.3,4.2-5.3
		c-2.6-2.6-3.8-5.1-4.4-6.6c-0.9-2.5-1.1-4.7-1.1-8.5c-0.2-9.7,1-10.6,0.6-17.9c-0.1-2.3-0.4-4.2-0.5-6.8c0-0.7-0.1-2-0.1-3.5
		C13.6,193.3,13.7,190.7,14.2,187.5z"/>
	<path fill="#B2B2B2" d="M484.7,215.8c-1.1,1.2-2.5,3-3.7,5.4c-3.8,7.3-3,14.6-2.4,20.6c0.8,8.3,1.1,16.7,2,25.1
		c1.2,10.8,2.8,25.6,2.7,42.9c-0.1,13.4-1.2,21.9-1.5,24.1c-1.6,11.9-4.3,21.6-4.9,23.5c-1.8,6.2-2.5,7.6-4.6,15.4
		c0,0-1.7,6.3-3.1,17.3c-0.5,3.7-0.8,6.7,0.4,10.2c0.9,2.8,2.4,4.8,3.5,6.1c0.2-2.1,0.6-4.9,1.3-8.2c1-4.6,2.3-8,3.7-11.9
		c1.7-4.6,2.8-7.6,4.9-11.4c2.3-4.2,4.5-7,5.1-7.7c2.6-3.3,5.3-5.8,7.4-7.5c-0.7-2.4-1.7-6-2.6-10.5c-1-5.3-1.6-10-2.3-22.5
		c-0.5-9-0.4-9.1-0.9-18.9c-0.8-15.1-1.1-14.8-1.2-21.4c-0.1-8.5,0.2-15.8,0.4-20.2c0.2-4.9,0.5-9,0.8-12c-0.4-2-0.9-4.8-1.5-8
		c-0.4-2.1-0.8-4.4-1.2-7.3c-0.3-1.7-0.8-5.2-1.3-9.5C485.3,225.7,484.9,221.2,484.7,215.8z"/>
</g>
<g id="posteriorCruciate">
	<path fill="#B2B2B2" d="M606.9,290.5c-1.4,1.6-3.6,4.1-6.2,7.3c-1,1.2-1.2,1.5-4.9,6.3c-4.2,5.5-5.1,6.6-6.7,8.1
		c-2,1.9-3.8,3.2-5.1,4.1c1.4,0.6,3.3,1.4,5.7,2.3c2.2,0.8,3.3,1.2,4.8,1.7c1.2,0.3,3.5,1,6.7,1.5c1.4,0.2,2.7,0.4,3.6,0.5
		c-0.1-2.4,0-5.8,1.1-9.7c1.1-4,2.8-6.9,3.6-8.1c1.4-2.1,2.8-3.8,3.9-4.9c-0.8-1.4-1.8-2.9-2.9-4.4
		C609.4,293.4,608.1,291.8,606.9,290.5z"/>
	<path fill="#B2B2B2" d="M627.7,256.3c0.7,3.2,1.7,5.7,2.5,7.7c1,2.4,2,4.1,2.5,5.1c0.2,0.4,1.3,2.3,3,4.8c0.8,1.2,1.6,2.2,2.2,3
		c-1.9,1.3-3.5,2.4-4.6,3.4c-1.1,0.9-2,1.7-2.4,2.1c-1.1,1-1.9,1.8-2.5,2.4c-0.8,0.8-1.8,1.8-2.9,3c-0.4-0.6-0.9-1.4-1.6-2.4
		c-0.7-1.1-1-1.6-1.2-1.9c-1-1.6-1.6-3-2.1-3.8c-0.5-1-0.9-1.9-1.2-2.7c0.8-1.1,1.7-2.6,2.7-4.5c0.8-1.5,1.4-2.6,2-4.1
		c0.9-2.5,0.8-3.5,1.4-6.2C626,260.6,626.6,258.6,627.7,256.3z"/>
	<path fill="#B2B2B2" d="M267.2,158.1c-1.8-1.4-4.7-3.4-8.7-4.8c-2.6-0.9-7.2-2.5-13.2-1.7c-5.6,0.8-9.5,3.4-11.6,5
		c-2.9-1.5-8.4-4-15.7-4.1c-9.9-0.2-17.1,4-19.8,5.8c-3.5,2.3-5.9,4.8-7.4,6.6c-2.7-0.4-8.5-0.9-14.9,1.7
		c-2.3,0.9-8.8,3.6-13.2,10.7c-3.4,5.5-3.8,10.8-3.8,13.3c7.7,1.6,13.1,4.7,16.1,6.7c7,4.8,11.4,10.9,14.1,14.6
		c3.8,5.2,4.1,6.9,11.6,20.7c12.2,22.5,11,19,13.2,24c5,10.9,5.3,15.2,10.7,19.8c1.4,1.1,8.7,7.4,14.9,5c6.7-2.6,7.5-13.7,7.6-14.6
		c0.9-13.3-9.9-16.6-13.4-34.2c-1.4-7-0.8-12.5,0-20.7c0.9-8.4,1.9-18.6,7.3-28.9C248.4,169.3,260.2,161.7,267.2,158.1z"/>
</g>
<g id="patellarTendon">
	<path fill="#B2B2B2" d="M220.6,417.8c-11.4,4.2-21.2,7.3-28.8,9.5c-2.6,0.7-11.7,3.4-23.7,5.2c-9.1,1.4-11.9,1.1-14.4,0.5
		c-3.4-0.8-7.2-2.7-14.9-6.5c-2-1-3.8-1.9-5.3-2.7c-4.7-2.4-8.1-4.3-8.9-4.7c-3.5-1.9-9.5-4.9-20.9-9.9c-0.1,1.9,0,4.7,1.1,7.9
		c1.6,4.6,3.5,4.8,5,9.2c0.6,1.6,2.8,8,0,12.9c-1.1,1.9-2.3,2.6-2.7,4.9c-0.5,2.6,0.7,4.8,1.1,5.6c2.6,5.1,11.4,7.2,25.3,9.7
		c11.7,2.1,17.5,3.2,20.7,3.4c10.9,0.7,19.2-0.4,31.1-2c9.5-1.3,6.2-1.4,14.4-2.5c4.5-0.6,9.2-1,14.2-4c2.9-1.7,3.9-3.1,4.1-4.5
		c0.1-0.5,0.1-1.3-1.8-5.5c-1.6-3.4-1.7-3.1-2.1-4.2c-1.2-3.6,0-7.1,0.7-9c0.9-2.7,1.6-3,3.2-6.5C219.4,422,220.2,419.5,220.6,417.8
		z"/>
	<path fill="#B2B2B2" d="M585.3,358.9c-4.5,5.5-0.7,12.7,2.5,30.9c1.6,8.9,2.2,16.2,3.2,30.9c0.9,12.7,1.4,19.1,1.1,27.7
		c-0.3,8.2-1.2,19-4,31.6c2.1-2.4,5.4-2.9,7.6-1.4c2.2,1.5,2.2,4.4,2.2,4.7c2-3.1,6-3.6,8.3-1.8c1.8,1.5,2.3,4.3,1.1,6.8
		c1.1-1.5,3-2.2,4.7-1.8c2.1,0.5,3.7,2.6,3.6,5c0.9-1.5,2.6-2.3,4.3-2.2c2,0.2,3.6,1.8,4,4c-0.3-3.1,1.5-5.8,4-6.5
		c2.6-0.7,4.9,1.3,5,1.4c-0.1-2.1,0.8-4,2.5-5c2-1.2,4.6-0.9,6.5,0.7c-0.2-2.2,0.8-4.3,2.5-5.4c2.1-1.4,5.1-1.1,7.2,0.7
		c-2-4.8-4.4-11.7-6.1-20.1c-2.7-12.9-2.4-22.9-2.2-32.4c0.1-3.7,0.3-7.2,0.6-10.5c0.7-8.6,1.8-14.4,3-21.5c4.8-28.1,4.3-32,1.7-35
		c-2-2.3-4.7-3.3-9.9-5.2c-5.5-2.1-9.9-2.5-14.8-3c0,0-11.4-1.1-24.3,1.2c-0.9,0.2-1.7,0.3-2.7,0.6
		C591.5,354.9,587.8,355.9,585.3,358.9z"/>
</g>
<g id="quadricepsTendon">
	<path fill="#B2B2B2" d="M554.1,1.8c5.8,36,11.1,59.7,15,75c1.1,4.2,2.9,12.5,4.7,23.8c2.7,17,1.8,30.2,1,41.8
		c-1.5,21.5-3.2,35.2-8.4,51.6c-1.2,4-5.2,16-0.1,20.9c1.5,1.5,4.5,2.9,6.6,3.7c2.6,1,5.1,1.3,8.7,1.9c0.6,0.1,2.4,0.4,4.7,0.6
		c5.1,0.4,8.8,0.2,12.6,0.1c9.5-0.4,14.3-0.5,19.1-0.3c1.4,0.1,4.7,0.2,9.3,0c0,0,2.1-0.1,4-0.4c3.6-0.5,15.6-3,20.2-9.3
		c3.8-5.1,2.2-11.9-0.9-23.8c-11-42.1-11-41.7-11.5-44.5c-3.4-20.6-2.1-37.9-1.6-44.9c0.4-5.6,0.5-3.8,3.1-25.8
		c1.6-13.6,2-31.8,2.1-37.2c0.2-9.5,0.1-21.2-0.5-34.7c-11.3,0.2-22.6,0.4-34,0.6c-9.6,0.2-19.2,0.3-28.8,0.5
		C571,1.5,562.5,1.6,554.1,1.8z"/>
</g>
<g id="anteriorCruciate">
	<path fill="#B2B2B2" d="M248.6,359.9c-0.6-0.2-5.9-1.8-10.7,1.7c-5.3,3.8-5,10.4-5,10.7c-4-3.2-7-3.6-9.1-3.3
		c-3.8,0.5-13,8-9.9,5.8c-0.7-0.4-4.4-2.8-9.1-1.7c-5.9,1.4-8.1,7-8.3,7.4c-0.2-0.3-3.1-5.5-9.1-5.8c-5.4-0.3-8.8,3.7-9.1,4.1
		c1.6-3.4,0.4-7.3-2.5-9.1c-2.5-1.5-5.9-1.2-8.3,0.8c1.8-3.4,1.1-7.5-1.7-9.9c-2.5-2.1-6.1-2.5-9.1-0.8c7.8-6.8,13.2-13.4,16.5-18.2
		c4.8-6.8,8.7-12.3,10.7-20.7c0.6-2.3,2.6-11.3,0-22.3c-2-8.7-4.4-7.9-17.4-31.4c-10.3-18.7-5.8-13.8-10.7-21.5
		c-2.9-4.5-5.2-7.3-4.1-9.9c1.6-4,9.9-4.9,15.7-4.1c8.9,1.2,14.9,6.6,22.3,13.2c3.8,3.4,8.2,7.5,12.4,14c1.6,2.6,4,6.7,8.3,20.7
		c4.6,14.8,4.1,17.1,7.4,27.3c0.9,2.6,4.1,12.1,9.9,23.1C232.2,338.1,238.7,348.7,248.6,359.9z"/>
	<path fill="#B2B2B2" d="M604.9,248.6c-0.4,2.4-0.9,4.3-1.3,5.8c-0.4,1.4-0.6,2.3-1,3.5c-0.3,0.9-0.9,2.7-2,5
		c-1.2,2.5-2.4,4.3-3.2,5.5c-1,1.5-2.4,3.4-4.2,5.4c2.6,3.7,4.9,6.6,6.6,8.6c2.3,2.7,3.3,3.6,6.1,6.9c1.9,2.2,3.6,4.3,5.4,6.9
		c0.8,1.1,3.8,5.6,6.2,12.1c2.1,5.6,3,10.6,3.4,14.6c0.4-0.3,1.4-0.8,2.8-0.9c1.9,0,3.3,1,3.6,1.3c0.1-0.2,0.7-1.9,2.5-2.6
		c2-0.7,3.7,0.4,3.9,0.5c0.2-0.4,0.8-1.2,1.8-1.8c1.5-0.8,3-0.5,3.4-0.4c0.1-0.3,0.5-1.4,1.7-2.1c1.4-0.8,2.8-0.3,3-0.2
		c-0.2-1,0.2-2.1,1.1-2.7c0.8-0.5,1.9-0.4,2.7,0.2c0.1-0.5,0.4-1.5,1.3-2.5c1.1-1.2,2.5-1.4,2.9-1.5c-2.8-1.5-6.4-3.7-10.2-6.6
		c-7.2-5.5-11.7-10.9-13.2-12.8c-2-2.5-4.9-6.2-7.6-11.6c-3.5-7.1-3-9.9-5.7-16.2C613.4,259.5,610.5,254.2,604.9,248.6z"/>
</g>
<g>
	<path fill="none" stroke="#706F6F" stroke-linecap="round" stroke-miterlimit="10" d="M586.4,361.2c0.8,0.6,2.1,1.4,3.8,2.1
		c4.4,1.9,7.9,1.6,14.6,1.3c3.9-0.1,7.5-0.1,14.6-0.1c7.3,0,10.9,0,11.3,0c5.1,0.2,8.4,0.6,12.6-0.9c1.8-0.6,3.1-1.4,4-2"/>
	<path fill="none" stroke="#706F6F" stroke-linecap="round" stroke-miterlimit="10" d="M229.6,230.5c-0.2-0.5-2.3-8.5-9.2-8.9
		c-4.8-0.3-9.6,0.5-13.6,5c-3.5,3.9-0.6,9.6-0.3,10.3"/>
	<path fill="none" stroke="#706F6F" stroke-width="0.75" stroke-linecap="round" stroke-miterlimit="10" d="M607.5,290
		c0.7,0.7,1.5,1.5,2.4,2.6s1.6,2,1.7,2.2c0.7,1,1.5,2.3,2.2,3.9"/>
	<path fill="none" stroke="#706F6F" stroke-linecap="round" stroke-miterlimit="10" d="M198.1,258.3c-0.2,1-1.3,5.8-5.6,8.2
		c-4.1,2.3-8.4,1.1-10.7,0.4c-1.6-0.5-4.4-1.5-11.1-7.6c-2.6-2.4-6.2-5.8-10.1-10.4"/>
	<path fill="none" stroke="#706F6F" stroke-linecap="round" stroke-miterlimit="10" d="M395.5,308.2c-0.8-0.6-2.1-1.6-3.4-3.1
		c-6.5-8-0.8-16.9-0.8-33.8c-0.1-16.6-5.7-24.8,0.6-33.6c1.1-1.6,2.3-2.7,3.1-3.4"/>
	<path fill="none" stroke="#706F6F" stroke-linecap="round" stroke-miterlimit="10" d="M13.1,244.3c-0.9-1.7-2.1-4.3-2.6-7.7
		c-0.6-3.8-0.3-7.1,0.2-10.8c0.7-6.3,1.8-8,0.5-10.8c-0.4-0.8-1.6-3.6-4-3.9c-2.5-0.3-4.4,2.2-4.6,2.4"/>
	<path fill="none" stroke="#706F6F" stroke-linecap="round" stroke-miterlimit="10" d="M215.6,447.5c-1.5-0.4-3.8-0.9-6.7-0.9
		c-5.8,0-9.4,2.1-13.8,3.8c-4.8,1.8-8.8,2.3-16.9,3.2c-4.9,0.6-11.8,1.4-20.9,0.5c-3.9-0.4-10.3-1-18-3.6
		c-8.4-2.8-11.9-4.5-11.9-4.5c-3.2-1.5-5.6-2.9-9.3-3.4c-2.7-0.4-5.1-0.1-6.7,0.2"/>
	<path fill="none" stroke="#706F6F" stroke-linecap="round" stroke-miterlimit="10" d="M565.9,210.4c0.6-1,1.6-2.4,3.2-3.6
		c3.5-2.7,7.7-2.7,10.1-2.7c9.4-0.1,17.1,0.6,18.9,0.7c7.4,0.6,15.2,1.2,24.6-0.7c5.2-1,9.3-1.5,17.6-2.3c1.4-0.1,4.4-0.5,7.4,1.1
		c1.5,0.8,2.6,1.9,3.2,2.6"/>
	<path fill="none" stroke="#706F6F" stroke-width="0.75" stroke-linecap="round" stroke-miterlimit="10" d="M619,277.6
		c0.4,1,0.9,2.1,1.5,3.2c0.4,0.7,1,1.9,2,3.4c0.6,1,1.5,2.2,2.6,3.4"/>
</g>
</svg>
