<?xml version="1.0" encoding="UTF-8"?><svg id="a" xmlns="http://www.w3.org/2000/svg" viewBox="0 0 280.84 280.84">
    <path
        d="M.92,171.92c26.41-10.87,44.2-26.2,54-36,20.2-20.2,30.72-41.18,36-54-26.41,10.87-44.2,26.2-54,36C16.72,138.12,6.2,159.1,.92,171.92Z"
        style="fill:#575756; stroke:#575756; stroke-miterlimit:10;" />
    <path
        d="M27.92,198.92c26.41-10.87,44.2-26.2,54-36,20.2-20.2,30.72-41.18,36-54-26.41,10.87-44.2,26.2-54,36-20.2,20.2-30.72,41.18-36,54Z"
        style="fill:#575756; stroke:#575756; stroke-miterlimit:10;" />
    <path
        d="M81.92,27.92c10.87,26.41,26.2,44.2,36,54,20.2,20.2,41.18,30.72,54,36-10.87-26.41-26.2-44.2-36-54-20.2-20.2-41.18-30.72-54-36Z"
        style="fill:#575756; stroke:#575756; stroke-miterlimit:10;" />
    <path
        d="M108.92,.92c10.87,26.41,26.2,44.2,36,54,20.2,20.2,41.18,30.72,54,36-10.87-26.41-26.2-44.2-36-54C142.72,16.72,121.74,6.2,108.92,.92Z"
        style="fill:#575756; stroke:#575756; stroke-miterlimit:10;" />
    <path
        d="M108.92,162.92c10.87,26.41,26.2,44.2,36,54,20.2,20.2,41.18,30.72,54,36-10.87-26.41-26.2-44.2-36-54-20.2-20.2-41.18-30.72-54-36Z"
        style="fill:#575756; stroke:#575756; stroke-miterlimit:10;" />
    <path
        d="M81.92,189.92c10.87,26.41,26.2,44.2,36,54,20.2,20.2,41.18,30.72,54,36-10.87-26.41-26.2-44.2-36-54-20.2-20.2-41.18-30.72-54-36Z"
        style="fill:#575756; stroke:#575756; stroke-miterlimit:10;" />
    <path
        d="M162.92,171.92c26.41-10.87,44.2-26.2,54-36,20.2-20.2,30.72-41.18,36-54-26.41,10.87-44.2,26.2-54,36-20.2,20.2-30.72,41.18-36,54Z"
        style="fill:#575756; stroke:#575756; stroke-miterlimit:10;" />
    <path
        d="M189.92,198.92c26.41-10.87,44.2-26.2,54-36,20.2-20.2,30.72-41.18,36-54-26.41,10.87-44.2,26.2-54,36-20.2,20.2-30.72,41.18-36,54Z"
        style="fill:#575756; stroke:#575756; stroke-miterlimit:10;" />
</svg>