<svg xmlns="http://www.w3.org/2000/svg" viewBox="0 0 918.27 586.19">
    <metadata xmlns:med="http://www.medreporter.org/reference/image">
        <med:Title>
            <med:Trans lng="de">Cervical lymphnodes</med:Trans>
            <med:Trans lng="en">Cervicale Lymphknoten</med:Trans>
        </med:Title>
        <med:Option id="leftLevelVII">
            <med:Trans lng="de">Left Level VII</med:Trans>
            <med:Trans lng="en">Level VII links</med:Trans>
        </med:Option>
        <med:Option id="leftLevelVI">
            <med:Trans lng="de">Left Level VI</med:Trans>
            <med:Trans lng="en">Level VI links</med:Trans>
        </med:Option>
        <med:Option id="leftLevelVB">
            <med:Trans lng="de">Left Level VB</med:Trans>
            <med:Trans lng="en">Level VB links</med:Trans>
        </med:Option>
        <med:Option id="leftLevelVA">
            <med:Trans lng="de">Left Level VA</med:Trans>
            <med:Trans lng="en">Level VA links</med:Trans>
        </med:Option>
        <med:Option id="leftLevelIV">
            <med:Trans lng="de">Left Level IV</med:Trans>
            <med:Trans lng="en">Level IV links</med:Trans>
        </med:Option>
        <med:Option id="leftLevelIII">
            <med:Trans lng="de">Left Level III</med:Trans>
            <med:Trans lng="en">Level III links</med:Trans>
        </med:Option>
        <med:Option id="leftLevelIIB">
            <med:Trans lng="de">Left Level IIB</med:Trans>
            <med:Trans lng="en">Level IIB links</med:Trans>
        </med:Option>
        <med:Option id="leftLevelIA">
            <med:Trans lng="de">Left Level IA</med:Trans>
            <med:Trans lng="en">Level IA links</med:Trans>
        </med:Option>
        <med:Option id="leftLevelIB">
            <med:Trans lng="de">Left Level IB</med:Trans>
            <med:Trans lng="en">Level IB links</med:Trans>
        </med:Option>
        <med:Option id="leftLevelIIA">
            <med:Trans lng="de">Left Level IIA</med:Trans>
            <med:Trans lng="en">Level IIA links</med:Trans>
        </med:Option>
        <med:Option id="rightLevelVII">
            <med:Trans lng="de">Right Level VII</med:Trans>
            <med:Trans lng="en">Level VII rechts</med:Trans>
        </med:Option>
        <med:Option id="rightLevelVI">
            <med:Trans lng="de">Right Level VI</med:Trans>
            <med:Trans lng="en">Level VI rechts</med:Trans>
        </med:Option>
        <med:Option id="rightLevelVB">
            <med:Trans lng="de">Right Level VB</med:Trans>
            <med:Trans lng="en">Level VB rechts</med:Trans>
        </med:Option>
        <med:Option id="rightLevelVA">
            <med:Trans lng="de">Right Level VA</med:Trans>
            <med:Trans lng="en">Level VA rechts</med:Trans>
        </med:Option>
        <med:Option id="rightLevelIV">
            <med:Trans lng="de">Right Level IV</med:Trans>
            <med:Trans lng="en">Level IV rechts</med:Trans>
        </med:Option>
        <med:Option id="rightLevelIII">
            <med:Trans lng="de">Right Level III</med:Trans>
            <med:Trans lng="en">Level III rechts</med:Trans>
        </med:Option>
        <med:Option id="rightLevelIIB">
            <med:Trans lng="de">Right Level IIB</med:Trans>
            <med:Trans lng="en">Level IIB rechts</med:Trans>
        </med:Option>
        <med:Option id="rightLevelIA">
            <med:Trans lng="de">Right Level IA</med:Trans>
            <med:Trans lng="en">Level IA rechts</med:Trans>
        </med:Option>
        <med:Option id="rightLevelIB">
            <med:Trans lng="de">Right Level IB</med:Trans>
            <med:Trans lng="en">Level IB rechts</med:Trans>
        </med:Option>
        <med:Option id="rightLevelIIA">
            <med:Trans lng="de">Right Level IIA</med:Trans>
            <med:Trans lng="en">Level IIA rechts</med:Trans>
        </med:Option>
    </metadata>
    <g>
        <path d="M562.33,5.28c-6.73,19.06-13.47,38.12-20.2,57.17-6.77,19.16-13.65,39.24-10.86,59.36,4.61,33.26,34.35,58.61,39.99,91.71,2.79,16.35-8.76,44.17-12.14,60.41-5.47,26.24,.22,28.72-5.25,54.96-2.32,11.13-12.77,23.53-18.86,30.51-5.18,5.94-19.67,14.14-28.81,13.83-10.69-.37-19.42,1.55-25.31,1.77,1.9,5.23,2.68,15.56,1.06,28.73-1.73,14.12-5.64,24.14-8.91,28.71,13.48,15.03,31,37.84,45.38,68.86,14.78,31.87,20.84,60.72,23.5,81.03,53.4,.81,107.45,1.53,160.85,2.34,18.84-24.23,47.36-56.07,89.47-85.17,33.07-22.85,64.52-37.33,89.49-46.63-2.07-10.28-3.52-23.83-1.88-39.48,.61-5.77,1.62-11.55,3.08-17.39l-1.92,.46c-16.13-5.66-33.72-10.06-48-19.46s-32.38-18.75-36.68-35.3c-3.1-11.93-3.4-38-1.36-50.16,8.01-47.53,36.41-83.55,67.63-120.27,10.92-12.85,23.05-24.67,33.32-38.04,12.76-16.63,17.51-34.1,20.91-45.41" fill="none" stroke="#878787" stroke-miterlimit="10" stroke-width="3" />
        <path d="M784.16,328.89c-3.65-42.38,15.14-97.54,43.9-128.87" fill="none" stroke="#878787" stroke-miterlimit="10" />
        <path d="M869.28,151.61c20.73-24.13,35.49-47.73,42.06-83.84" fill="none" stroke="#878787" stroke-miterlimit="10" />
        <path d="M860.02,12.15c-6.9,1.41-13.16,5.71-16.96,11.63-3.8,5.92-21.63-3.36-20.04,3.5,3.97-14.03,16.99-25.02,31.48-26.59,14.49-1.56,29.56,6.4,36.43,19.26,8.44,15.8,4.12,35.97-6.05,50.71s-25.27,25.22-40.02,35.37" fill="none" stroke="#878787" stroke-miterlimit="10" />
        <path d="M832.2,44.02c3.46,2.57,5.59,6.83,5.56,11.14s-2.22,8.54-5.71,11.06" fill="none" stroke="#878787" stroke-miterlimit="10" />
        <path d="M878.7,23.45c4.18,3.4,4.05,9.77,2.99,15.06-3.41,17.02-12.81,32.77-26.18,43.84" fill="none" stroke="#878787" stroke-miterlimit="10" />
        <path d="M634.01,111.14c16.65,15.38,53.23,36.7,75.35,41.18,27.72-28.2,36.33-36.93,68.56-56.4" fill="none" stroke="#878787" stroke-miterlimit="10" />
        <path d="M540.91,97.45c4.13-10.77,9.89-14.06,21.42-14.06,7.1,0,24.99,1.4,35.63,5.86" fill="none" stroke="#878787" stroke-miterlimit="10" />
        <path d="M540.3,109.92c.23,18.45,6.86,36.77,18.5,51.09" fill="none" stroke="#878787" stroke-miterlimit="10" />
        <path d="M497.69,422.49c12.24,12.55,28.18,22.26,43.24,29.29,7.67,3.58,22.48,7.07,28.51,8.6,6.03,1.53,16.19,2.68,18.06,8.62,1.52,4.82,.78,8.36-2.36,12.32s-4.78,6.22-9.02,8.97l-11,7.14c-3.72,2.41-8.55,4.86-12.31,2.5-4.15-2.62-5.26-11.52-6.83-16.16-1.55-4.59-12.94-10.49-16.73-13.51-3.29-2.63-21.39-13.77-26.37-16.76" fill="none" stroke="#878787" stroke-miterlimit="10" />
        <path d="M555.12,493.17c6.49-14.78,10.07-17.93,24.53-22.92" fill="none" stroke="#878787" stroke-miterlimit="10" stroke-width=".75" />
        <path d="M568.9,554.47c.54-16.44-11.36-44.9-9.79-47.22,14.8-2.35,28.42-11.32,36.44-23.98,14.82,15.65,43.11,22.02,63.77,10.71,4.75,15.1,10.03,28.13,23.41,37.96-3.58,5.05-17.29,8.9-24.4,30.3" fill="none" stroke="#878787" stroke-miterlimit="10" />
        <path d="M569.44,512.47c22.35-2.83,24.63-5.22,31.4-19.3" fill="none" stroke="#878787" stroke-miterlimit="10" stroke-width=".75" />
        <path d="M651.84,502.47q3.36,19.4,17.98,30.19" fill="none" stroke="#878787" stroke-miterlimit="10" stroke-width=".75" />
        <path d="M848.34,440.53c-1.85,.07-4.65,.22-8.04,.55-21.33,2.09-35.24,8.39-52.65,14.96-9.18,3.47-1.57,.3-41.75,13.87-44.58,15.06-43.2,15.33-49.29,16.14-11.81,1.58-19.02,1.55-22.94,6.47-4.46,5.59,2.83,15.97,6,22.38,3.17,6.41,5.74,12.59,12.89,12.72,9.49,.18,11.92-12.94,20.05-17.26,4.12-2.19,18.11-8.15,22.47-9.81,15.22-5.79,9.03-3.92,27.54-11.23,12.44-4.92,30.46-11.87,53.45-20.19" fill="none" stroke="#878787" stroke-miterlimit="10" />
        <path d="M683.94,493.98c5.86,5.84,8.84,15.42,9.86,22.62" fill="none" stroke="#878787" stroke-miterlimit="10" stroke-width=".75" />
        <path d="M606.54,344.34c6.19,48.46,11.56,100.62,2.14,148.56" fill="none" stroke="#878787" stroke-miterlimit="10" stroke-width=".75" />
        <path d="M651.58,344.34l-1.07,55.14" fill="none" stroke="#878787" stroke-miterlimit="10" stroke-width=".75" />
        <path d="M612.87,352.87c9.98,4.09,21.65,3.83,31.43-.71" fill="none" stroke="#878787" stroke-miterlimit="10" stroke-width=".5" />
        <path d="M614.84,289.07c1.31,.03,1.6-3.8,4.75-10.12,2.66-5.33,5.52-8.75,6.33-9.7,3.98-4.63,6.76-7.87,10.86-8.53,6.58-1.06,9.18,5.69,15.38,4.49,4.21-.81,6.81-4.65,10.17-9.62,5.72-8.45,5.83-14.51,7.32-14.45,2.89,.12,4.37,23.03,4.55,40.96,.21,20.99-1.43,28.78-2.37,32.65-2.9,11.9-5.13,21.04-13.39,26.91-7.48,5.32-18.71,7.09-27.9,4.58-8.04-2.19-11.5-6.82-17.88-5.13-5.18,1.37-7.41,5.62-11.27,4.71-2.29-.54-4.09-2.64-5.65-6.16-6.59-14.9-4.16-44.89-3.43-57.61,1.3-22.66-.2-36.31,.77-36.36,.62-.03,1.81,5.69,4.32,32.73,.54-1.83,4.59-15.79,5.77-15.52,.64,.15,1.76,1,2.01,1.66l1.82,4.62c.92,2.32,.82,1.72,3.64,9.24,3.01,8.04,3.12,10.61,4.19,10.64Z" fill="#9d9d9c" opacity=".5" stroke="#1d1d1b" stroke-miterlimit="10" />
        <path d="M677.29,370.63c10.87,13.48,20.39,21.82,79.69,70.83,1.48,1.22,6.37,5.26,7.83,6.47,5.66-1.57,11.46-3.27,17.37-5.11,5.37-1.67,10.59-3.37,15.67-5.11-4.92-4.41-13.03-11.3-23.84-18.73-16.77-11.53-22.46-12.26-38.48-23.5-13.14-9.21-22.19-17.76-28.95-24.18-10.07-9.57-18.42-17.51-27.24-29.97-7.26-10.26-11.15-18.36-18.31-33.28-6.26-13.06-10.94-22.92-15.4-37.34-4.01-12.96-6.82-26.32-8.31-39.84-.18-1.6-.21-3.32-.54-4.87l-16.31-1.31c-.43,1.27,1.94,27.71,6.25,44.11,8.17,31.13,20.07,53.53,28.31,68,6.05,10.63,12.02,21.12,22.27,33.82Z" fill="#575756" opacity=".5" stroke="#1d1d1b" stroke-miterlimit="10" />
        <path d="M547.78,353.87c-2.53,14.15-2.64,28.73-.34,42.92" fill="none" stroke="#878787" stroke-miterlimit="10" />
        <path d="M790.09,347.16c15,23.69,39.52,41.17,66.81,47.62" fill="none" stroke="#878787" stroke-miterlimit="10" />
        <path d="M636.67,132.82h.38c-3.73,.24-7.13,3.5-8.19,6.61s.3,6.73,3.28,8.69c3,1.98,7.76,2.86,8.35,6.08,.11,.6,.04,1.23,.3,1.8,1.1,2.4,6.52,1.47,7.16,3.99,.17,.68-.12,1.43,.21,2.06,.85,1.64,3.74,.34,5.79,.67,4.03,.64,4,7.6,8.06,7.15,.59-.07,1.15-.31,1.74-.26,2.34,.19,1.54,3.87,3.58,4.88,1.62,.8,3.55-.72,5.41-.6,1.34,.09,2.37,1,3.55,1.56,2.24,1.05,4.96,.76,7.48,.44l2.64-.33c3.63-.45,7.49-1,10.24-3.1l2.05,1.99c2.18-2.53,5.17-4.54,8.54-5.74,1.69-.6,3.91-1.75,3.2-3.21-.37-.77-1.42-1.07-2.34-1.3-19.34-4.76-37.77-12.26-54.33-22.12-5.74-3.42-10.64-7.01-17.11-9.26Z" fill="#706f6f" opacity=".5" stroke="#1d1d1b" stroke-miterlimit="10" />
        <path d="M654.88,200.02s9.79-3.43,12.14-4.57c11.48-5.56,18.05-10.38,26.34-13.78-3.45-.45-12.21,3.46-14.4,3.73-1.65,.21-8.25-.44-9.86-.82-18.47-4.44-35.1-16.15-45.52-32.04-3.76-5.74-6.73-11.98-10.52-17.7-5.58-8.44-12.98-15.64-21.47-21.12-4.22-2.73-8.72-5.03-13.41-6.86-2.37-.92-4.78-1.72-7.23-2.39-.88-.24-2.92-1.16-3.79-.92-1.16,.31,.6,1.71,1.11,2.25,8.92,9.45,17.84,18.89,26.76,28.34,8.97,9.5,17.94,19,26.9,28.5,8.92,9.45,13.38,14.17,22.29,23.62,.37,.4,8.92,12.79,10.65,13.77Z" fill="#575756" opacity=".5" stroke="#1d1d1b" stroke-miterlimit="10" />
        <path d="M675.66,191.46c-5.5,3.04-11.07,6.11-17.15,7.75-6.54,1.76-13.41,1.8-20.18,1.82-7.2,.02-14.41,.05-21.61,.07-3.09,0-6.2,.02-9.24-.55-8.45-1.59-17.14-7.53-24.87-3.76,4.42,9.47,2.6,6.28,7.58,17.69,4.78,.96,13.99,7.82,22.53,9,1.79,.25,3.31,.46,5.45,.7,8.3,.96,16.83,1.37,25.92,.95,2.9-.13,5.83-.33,8.58-1.25,3.39-1.14,6.31-3.34,9.17-5.5,6.37-4.82,12.74-9.65,19.03-14.57,6.34-4.97,12.6-10.04,18.68-15.31,3.04-2.63,6.03-5.32,8.97-8.06,1.48-1.38,2.95-2.78,4.4-4.2,1.22-1.19,3-2.48,3.86-3.96,.4-.69,.77-2.41-.06-2.98-.97-.66-3.4,1.35-4.27,1.82-3.77,2.09-7.54,4.17-11.31,6.26-7.54,4.17-15.08,8.34-22.63,12.51l-2.85,1.58Z" fill="#9d9d9c" opacity=".5" stroke="#1d1d1b" stroke-miterlimit="10" />
        <path d="M555.84,37.81c1.96-1.44,3.38-3.48,4.67-5.54,3.85-6.1,6.99-12.64,9.34-19.46" fill="none" stroke="#878787" stroke-miterlimit="10" />
        <path d="M637.32,36.61c-16.6-9-37.67-14.12-56.35-12.09-10.86,1.18-17.08,6.72-25.33,16.02" fill="none" stroke="#878787" stroke-miterlimit="10" />
        <path d="M575.79,8.11c7.68,5.69,14.33-.54,15.25-1.39" fill="none" stroke="#878787" stroke-miterlimit="10" />
        <path d="M595.63,6.4c12.35,11.92,27.07,21.36,43.06,27.62" fill="none" stroke="#878787" stroke-miterlimit="10" />
        <path d="M573.33,41.98c7.76,4.6,17.83,2.03,25.48-1.04" fill="none" stroke="#878787" stroke-miterlimit="10" />
        <path d="M613.28,360.11c9.98,4.09,21.65,3.83,31.43-.71" fill="none" stroke="#878787" stroke-miterlimit="10" stroke-width=".5" />
        <path d="M613.07,367.25c9.98,4.09,21.65,3.83,31.43-.71" fill="none" stroke="#878787" stroke-miterlimit="10" stroke-width=".5" />
        <path d="M613.48,374.5c9.98,4.09,21.65,3.83,31.43-.71" fill="none" stroke="#878787" stroke-miterlimit="10" stroke-width=".5" />
        <path d="M614.17,381.39c9.98,4.09,21.65,3.83,31.43-.71" fill="none" stroke="#878787" stroke-miterlimit="10" stroke-width=".5" />
        <path d="M614.58,388.63c9.98,4.09,21.65,3.83,31.43-.71" fill="none" stroke="#878787" stroke-miterlimit="10" stroke-width=".5" />
        <path d="M614.91,396.32c9.98,4.09,21.65,3.83,31.43-.71" fill="none" stroke="#878787" stroke-miterlimit="10" stroke-width=".5" />
        <path d="M615.32,403.56c9.98,4.09,21.65,3.83,31.43-.71" fill="none" stroke="#878787" stroke-miterlimit="10" stroke-width=".5" />
        <path d="M615.9,410.47c9.98,4.09,21.65,3.83,31.43-.71" fill="none" stroke="#878787" stroke-miterlimit="10" stroke-width=".5" />
        <path d="M616.31,417.71c9.98,4.09,21.65,3.83,31.43-.71" fill="none" stroke="#878787" stroke-miterlimit="10" stroke-width=".5" />
        <path d="M616.1,424.86c9.98,4.09,21.65,3.83,31.43-.71" fill="none" stroke="#878787" stroke-miterlimit="10" stroke-width=".5" />
        <path d="M616.52,432.1c9.98,4.09,21.65,3.83,31.43-.71" fill="none" stroke="#878787" stroke-miterlimit="10" stroke-width=".5" />
        <path d="M617.04,439.15c9.98,4.09,21.65,3.83,31.43-.71" fill="none" stroke="#878787" stroke-miterlimit="10" stroke-width=".5" />
        <path d="M617.45,446.39c9.98,4.09,21.65,3.83,31.43-.71" fill="none" stroke="#878787" stroke-miterlimit="10" stroke-width=".5" />
        <path d="M617.78,454.08c9.98,4.09,21.65,3.83,31.43-.71" fill="none" stroke="#878787" stroke-miterlimit="10" stroke-width=".5" />
        <path d="M618.19,461.32c9.98,4.09,21.65,3.83,31.43-.71" fill="none" stroke="#878787" stroke-miterlimit="10" stroke-width=".5" />
        <path d="M617.78,468.73c9.98,4.09,21.65,3.83,31.43-.71" fill="none" stroke="#878787" stroke-miterlimit="10" stroke-width=".5" />
        <path d="M616.52,475.97c9.98,4.09,21.65,3.83,31.43-.71" fill="none" stroke="#878787" stroke-miterlimit="10" stroke-width=".5" />
        <path d="M615.32,484.03c9.98,4.09,21.65,3.83,31.43-.71" fill="none" stroke="#878787" stroke-miterlimit="10" stroke-width=".5" />
        <path d="M614.91,490.28c9.98,4.09,21.65,3.83,31.43-.71" fill="none" stroke="#878787" stroke-miterlimit="10" stroke-width=".5" />
        <path d="M637.38,442.69c30.63-123.55,80.58-242.66,164-338.81,4.51,1.56,9.72,3.72,15.26,6.74,4.73,2.58,10.79,5.62,14.17,8.16-26.58,27.9-42.3,53.04-55.16,74.1-24.29,39.78-41.1,74.35-43.73,81.97-11.06,32.01-15.62,57.08-17.6,73.67-5.23,43.91-.54,80.68,4.5,105.26,2.04,7.28,8.42,15.84,9.58,17.16-.32,1.33-19.61,7.05-25.91,9.13-14.41,4.75-6.68,3.2-32.92,7.82-17.6,2.64-33.41,1.01-36.02,.87-2.05-.11-3.85-1.12-3.72-2.86,.18-2.58-.57-3.99,.28-9.09,1.91-11.48,4.46-22.84,7.26-34.12Z" fill="#dadada" opacity=".5" stroke="#1d1d1b" stroke-miterlimit="10" />
        <path d="M653.56,489.57l.88,6.7" fill="none" stroke="#878787" stroke-miterlimit="10" stroke-width=".75" />
        <path d="M355.94,5.28c6.73,19.06,13.47,38.12,20.2,57.17,6.77,19.16,13.65,39.24,10.86,59.36-4.61,33.26-34.35,58.61-39.99,91.71-2.79,16.35,8.76,44.17,12.14,60.41,5.47,26.24-.22,28.72,5.25,54.96,2.32,11.13,12.77,23.53,18.86,30.51,5.18,5.94,19.67,14.14,28.81,13.83,10.69-.37,19.42,1.55,25.31,1.77-1.9,5.23-2.68,15.56-1.06,28.73,1.73,14.12,5.64,24.14,8.91,28.71-13.48,15.03-31,37.84-45.38,68.86-14.78,31.87-20.84,60.72-23.5,81.03-53.4,.81-107.45,1.53-160.85,2.34-18.84-24.23-47.36-56.07-89.47-85.17-33.07-22.85-64.52-37.33-89.49-46.63,2.07-10.28,3.52-23.83,1.88-39.48-.61-5.77-1.62-11.55-3.08-17.39l1.92,.46c16.13-5.66,33.72-10.06,48-19.46s32.38-18.75,36.68-35.3c3.1-11.93,3.4-38,1.36-50.16-8.01-47.53-36.41-83.55-67.63-120.27-10.92-12.85-23.05-24.67-33.32-38.04C9.58,116.62,4.84,99.14,1.44,87.83" fill="none" stroke="#878787" stroke-miterlimit="10" stroke-width="3" />
        <path d="M134.1,328.89c3.65-42.38-15.14-97.54-43.9-128.87" fill="none" stroke="#878787" stroke-miterlimit="10" />
        <path d="M48.99,151.61C28.27,127.47,13.5,103.88,6.93,67.77" fill="none" stroke="#878787" stroke-miterlimit="10" />
        <path d="M58.25,12.15c6.9,1.41,13.16,5.71,16.96,11.63,3.8,5.92,21.63-3.36,20.04,3.5C91.28,13.26,78.25,2.26,63.76,.69c-14.49-1.56-29.56,6.4-36.43,19.26-8.44,15.8-4.12,35.97,6.05,50.71,10.17,14.74,25.27,25.22,40.02,35.37" fill="none" stroke="#878787" stroke-miterlimit="10" />
        <path d="M86.07,44.02c-3.46,2.57-5.59,6.83-5.56,11.14s2.22,8.54,5.71,11.06" fill="none" stroke="#878787" stroke-miterlimit="10" />
        <path d="M39.57,23.45c-4.18,3.4-4.05,9.77-2.99,15.06,3.41,17.02,12.81,32.77,26.18,43.84" fill="none" stroke="#878787" stroke-miterlimit="10" />
        <path d="M284.26,111.14c-16.65,15.38-53.23,36.7-75.35,41.18-27.72-28.2-36.33-36.93-68.56-56.4" fill="none" stroke="#878787" stroke-miterlimit="10" />
        <path d="M377.36,97.45c-4.13-10.77-9.89-14.06-21.42-14.06-7.1,0-24.99,1.4-35.63,5.86" fill="none" stroke="#878787" stroke-miterlimit="10" />
        <path d="M377.97,109.92c-.23,18.45-6.86,36.77-18.5,51.09" fill="none" stroke="#878787" stroke-miterlimit="10" />
        <path d="M420.58,422.49c-12.24,12.55-28.18,22.26-43.24,29.29-7.67,3.58-22.48,7.07-28.51,8.6s-16.19,2.68-18.06,8.62c-1.52,4.82-.78,8.36,2.36,12.32s4.78,6.22,9.02,8.97l11,7.14c3.72,2.41,8.55,4.86,12.31,2.5,4.15-2.62,5.26-11.52,6.83-16.16,1.55-4.59,12.94-10.49,16.73-13.51,3.29-2.63,21.39-13.77,26.37-16.76" fill="none" stroke="#878787" stroke-miterlimit="10" />
        <path d="M363.15,493.17c-6.49-14.78-10.07-17.93-24.53-22.92" fill="none" stroke="#878787" stroke-miterlimit="10" stroke-width=".75" />
        <path d="M349.37,554.47c-.54-16.44,11.36-44.9,9.79-47.22-14.8-2.35-28.42-11.32-36.44-23.98-14.82,15.65-43.11,22.02-63.77,10.71-4.75,15.1-10.03,28.13-23.41,37.96,3.58,5.05,17.29,8.9,24.4,30.3" fill="none" stroke="#878787" stroke-miterlimit="10" />
        <path d="M348.83,512.47c-22.35-2.83-24.63-5.22-31.4-19.3" fill="none" stroke="#878787" stroke-miterlimit="10" stroke-width=".75" />
        <path d="M266.43,502.47q-3.36,19.4-17.98,30.19" fill="none" stroke="#878787" stroke-miterlimit="10" stroke-width=".75" />
        <path d="M69.93,440.53c1.85,.07,4.65,.22,8.04,.55,21.33,2.09,35.24,8.39,52.65,14.96,9.18,3.47,1.57,.3,41.75,13.87,44.58,15.06,43.2,15.33,49.29,16.14,11.81,1.58,19.02,1.55,22.94,6.47,4.46,5.59-2.83,15.97-6,22.38-3.17,6.41-5.74,12.59-12.89,12.72-9.49,.18-11.92-12.94-20.05-17.26-4.12-2.19-18.11-8.15-22.47-9.81-15.22-5.79-9.03-3.92-27.54-11.23-12.44-4.92-30.46-11.87-53.45-20.19" fill="none" stroke="#878787" stroke-miterlimit="10" />
        <path d="M234.33,493.98c-5.86,5.84-8.84,15.42-9.86,22.62" fill="none" stroke="#878787" stroke-miterlimit="10" stroke-width=".75" />
        <path d="M311.73,344.34c-6.19,48.46-11.56,104.24-2.14,152.18" fill="none" stroke="#878787" stroke-miterlimit="10" stroke-width=".75" />
        <path d="M266.69,344.34l1.07,55.14" fill="none" stroke="#878787" stroke-miterlimit="10" stroke-width=".75" />
        <path d="M305.4,352.87c-9.98,4.09-21.65,3.83-31.43-.71" fill="none" stroke="#878787" stroke-miterlimit="10" stroke-width=".5" />
        <path d="M303.43,289.07c-1.31,.03-1.6-3.8-4.75-10.12-2.66-5.33-5.52-8.75-6.33-9.7-3.98-4.63-6.76-7.87-10.86-8.53-6.58-1.06-9.18,5.69-15.38,4.49-4.21-.81-6.81-4.65-10.17-9.62-5.72-8.45-5.83-14.51-7.32-14.45-2.89,.12-4.37,23.03-4.55,40.96-.21,20.99,1.43,28.78,2.37,32.65,2.9,11.9,5.13,21.04,13.39,26.91,7.48,5.32,18.71,7.09,27.9,4.58,8.04-2.19,11.5-6.82,17.88-5.13,5.18,1.37,7.41,5.62,11.27,4.71,2.29-.54,4.09-2.64,5.65-6.16,6.59-14.9,4.16-44.89,3.43-57.61-1.3-22.66,.2-36.31-.77-36.36-.62-.03-1.81,5.69-4.32,32.73-.54-1.83-4.59-15.79-5.77-15.52-.64,.15-1.76,1-2.01,1.66l-1.82,4.62c-.92,2.32-.82,1.72-3.64,9.24-3.01,8.04-3.12,10.61-4.19,10.64Z" fill="#9d9d9c" opacity=".5" stroke="#1d1d1b" stroke-miterlimit="10" />
        <path d="M240.98,370.63c-10.87,13.48-20.39,21.82-79.69,70.83-1.48,1.22-6.37,5.26-7.83,6.47-5.66-1.57-11.46-3.27-17.37-5.11-5.37-1.67-10.59-3.37-15.67-5.11,4.92-4.41,13.03-11.3,23.84-18.73,16.77-11.53,22.46-12.26,38.48-23.5,13.14-9.21,22.19-17.76,28.95-24.18,10.07-9.57,18.42-17.51,27.24-29.97,7.26-10.26,11.15-18.36,18.31-33.28,6.26-13.06,10.94-22.92,15.4-37.34,4.01-12.96,6.82-26.32,8.31-39.84,.18-1.6,.21-3.32,.54-4.87l16.31-1.31c.43,1.27-1.94,27.71-6.25,44.11-8.17,31.13-20.07,53.53-28.31,68-6.05,10.63-12.02,21.12-22.27,33.82Z" fill="#575756" opacity=".5" stroke="#1d1d1b" stroke-miterlimit="10" />
        <path d="M370.49,353.87c2.53,14.15,2.64,28.73,.34,42.92" fill="none" stroke="#878787" stroke-miterlimit="10" />
        <path d="M128.18,347.16c-15,23.69-39.52,41.17-66.81,47.62" fill="none" stroke="#878787" stroke-miterlimit="10" />
        <path d="M281.59,132.82h-.38c3.73,.24,7.13,3.5,8.19,6.61s-.3,6.73-3.28,8.69c-3,1.98-7.76,2.86-8.35,6.08-.11,.6-.04,1.23-.3,1.8-1.1,2.4-6.52,1.47-7.16,3.99-.17,.68,.12,1.43-.21,2.06-.85,1.64-3.74,.34-5.79,.67-4.03,.64-4,7.6-8.06,7.15-.59-.07-1.15-.31-1.74-.26-2.34,.19-1.54,3.87-3.58,4.88-1.62,.8-3.55-.72-5.41-.6-1.34,.09-2.37,1-3.55,1.56-2.24,1.05-4.96,.76-7.48,.44l-2.64-.33c-3.63-.45-7.49-1-10.24-3.1l-2.05,1.99c-2.18-2.53-5.17-4.54-8.54-5.74-1.69-.6-3.91-1.75-3.2-3.21,.37-.77,1.42-1.07,2.34-1.3,19.34-4.76,37.77-12.26,54.33-22.12,5.74-3.42,10.64-7.01,17.11-9.26Z" fill="#706f6f" opacity=".5" stroke="#1d1d1b" stroke-miterlimit="10" />
        <path d="M263.39,200.02s-9.79-3.43-12.14-4.57c-11.48-5.56-18.05-10.38-26.34-13.78,3.45-.45,12.21,3.46,14.4,3.73,1.65,.21,8.25-.44,9.86-.82,18.47-4.44,35.1-16.15,45.52-32.04,3.76-5.74,6.73-11.98,10.52-17.7,5.58-8.44,12.98-15.64,21.47-21.12,4.22-2.73,8.72-5.03,13.41-6.86,2.37-.92,4.78-1.72,7.23-2.39,.88-.24,2.92-1.16,3.79-.92,1.16,.31-.6,1.71-1.11,2.25-8.92,9.45-17.84,18.89-26.76,28.34-8.97,9.5-17.94,19-26.9,28.5-8.92,9.45-13.38,14.17-22.29,23.62-.37,.4-8.92,12.79-10.65,13.77Z" fill="#575756" opacity=".5" stroke="#1d1d1b" stroke-miterlimit="10" />
        <path d="M242.61,191.46c5.5,3.04,11.07,6.11,17.15,7.75,6.54,1.76,13.41,1.8,20.18,1.82,7.2,.02,14.41,.05,21.61,.07,3.09,0,6.2,.02,9.24-.55,8.45-1.59,17.14-7.53,24.87-3.76-4.42,9.47-2.6,6.28-7.58,17.69-4.78,.96-13.99,7.82-22.53,9-1.79,.25-3.31,.46-5.45,.7-8.3,.96-16.83,1.37-25.92,.95-2.9-.13-5.83-.33-8.58-1.25-3.39-1.14-6.31-3.34-9.17-5.5-6.37-4.82-12.74-9.65-19.03-14.57-6.34-4.97-12.6-10.04-18.68-15.31-3.04-2.63-6.03-5.32-8.97-8.06-1.48-1.38-2.95-2.78-4.4-4.2-1.22-1.19-3-2.48-3.86-3.96-.4-.69-.77-2.41,.06-2.98,.97-.66,3.4,1.35,4.27,1.82,3.77,2.09,7.54,4.17,11.31,6.26,7.54,4.17,15.08,8.34,22.63,12.51l2.85,1.58Z" fill="#9d9d9c" opacity=".5" stroke="#1d1d1b" stroke-miterlimit="10" />
        <path d="M362.43,37.81c-1.96-1.44-3.38-3.48-4.67-5.54-3.85-6.1-6.99-12.64-9.34-19.46" fill="none" stroke="#878787" stroke-miterlimit="10" />
        <path d="M280.95,36.61c16.6-9,37.67-14.12,56.35-12.09,10.86,1.18,17.08,6.72,25.33,16.02" fill="none" stroke="#878787" stroke-miterlimit="10" />
        <path d="M342.48,8.11c-7.68,5.69-14.33-.54-15.25-1.39" fill="none" stroke="#878787" stroke-miterlimit="10" />
        <path d="M322.64,6.4c-12.35,11.92-27.07,21.36-43.06,27.62" fill="none" stroke="#878787" stroke-miterlimit="10" />
        <path d="M344.94,41.98c-7.76,4.6-17.83,2.03-25.48-1.04" fill="none" stroke="#878787" stroke-miterlimit="10" />
        <path d="M304.99,360.11c-9.98,4.09-21.65,3.83-31.43-.71" fill="none" stroke="#878787" stroke-miterlimit="10" stroke-width=".5" />
        <path d="M305.2,367.25c-9.98,4.09-21.65,3.83-31.43-.71" fill="none" stroke="#878787" stroke-miterlimit="10" stroke-width=".5" />
        <path d="M304.79,374.5c-9.98,4.09-21.65,3.83-31.43-.71" fill="none" stroke="#878787" stroke-miterlimit="10" stroke-width=".5" />
        <path d="M304.1,381.39c-9.98,4.09-21.65,3.83-31.43-.71" fill="none" stroke="#878787" stroke-miterlimit="10" stroke-width=".5" />
        <path d="M303.69,388.63c-9.98,4.09-21.65,3.83-31.43-.71" fill="none" stroke="#878787" stroke-miterlimit="10" stroke-width=".5" />
        <path d="M303.36,396.32c-9.98,4.09-21.65,3.83-31.43-.71" fill="none" stroke="#878787" stroke-miterlimit="10" stroke-width=".5" />
        <path d="M302.95,403.56c-9.98,4.09-21.65,3.83-31.43-.71" fill="none" stroke="#878787" stroke-miterlimit="10" stroke-width=".5" />
        <path d="M302.37,410.47c-9.98,4.09-21.65,3.83-31.43-.71" fill="none" stroke="#878787" stroke-miterlimit="10" stroke-width=".5" />
        <path d="M301.96,417.71c-9.98,4.09-21.65,3.83-31.43-.71" fill="none" stroke="#878787" stroke-miterlimit="10" stroke-width=".5" />
        <path d="M302.16,424.86c-9.98,4.09-21.65,3.83-31.43-.71" fill="none" stroke="#878787" stroke-miterlimit="10" stroke-width=".5" />
        <path d="M301.75,432.1c-9.98,4.09-21.65,3.83-31.43-.71" fill="none" stroke="#878787" stroke-miterlimit="10" stroke-width=".5" />
        <path d="M301.23,439.15c-9.98,4.09-21.65,3.83-31.43-.71" fill="none" stroke="#878787" stroke-miterlimit="10" stroke-width=".5" />
        <path d="M300.82,446.39c-9.98,4.09-21.65,3.83-31.43-.71" fill="none" stroke="#878787" stroke-miterlimit="10" stroke-width=".5" />
        <path d="M300.49,454.08c-9.98,4.09-21.65,3.83-31.43-.71" fill="none" stroke="#878787" stroke-miterlimit="10" stroke-width=".5" />
        <path d="M300.08,461.32c-9.98,4.09-21.65,3.83-31.43-.71" fill="none" stroke="#878787" stroke-miterlimit="10" stroke-width=".5" />
        <path d="M300.49,468.73c-9.98,4.09-21.65,3.83-31.43-.71" fill="none" stroke="#878787" stroke-miterlimit="10" stroke-width=".5" />
        <path d="M301.75,475.97c-9.98,4.09-21.65,3.83-31.43-.71" fill="none" stroke="#878787" stroke-miterlimit="10" stroke-width=".5" />
        <path d="M302.95,484.03c-9.98,4.09-21.65,3.83-31.43-.71" fill="none" stroke="#878787" stroke-miterlimit="10" stroke-width=".5" />
        <path d="M303.36,490.28c-9.98,4.09-21.65,3.83-31.43-.71" fill="none" stroke="#878787" stroke-miterlimit="10" stroke-width=".5" />
        <path d="M280.89,442.69c-30.63-123.55-80.58-242.66-164-338.81-4.51,1.56-9.72,3.72-15.26,6.74-4.73,2.58-10.79,5.62-14.17,8.16,26.58,27.9,42.3,53.04,55.16,74.1,24.29,39.78,41.1,74.35,43.73,81.97,11.06,32.01,15.62,57.08,17.6,73.67,5.23,43.91,.54,80.68-4.5,105.26-2.04,7.28-8.42,15.84-9.58,17.16,.32,1.33,19.61,7.05,25.91,9.13,14.41,4.75,6.68,3.2,32.92,7.82,17.6,2.64,33.41,1.01,36.02,.87,2.05-.11,3.85-1.12,3.72-2.86-.18-2.58,.57-3.99-.28-9.09-1.91-11.48-4.46-22.84-7.26-34.12Z" fill="#dadada" opacity=".5" stroke="#1d1d1b" stroke-miterlimit="10" />
        <path d="M264.71,489.57l-.88,6.7" fill="none" stroke="#878787" stroke-miterlimit="10" stroke-width=".75" />
    </g>
    <g>
        <path id="leftLevelVII" d="M622.6,498.15c.08,13.04,0,26.35-.24,39.93-.24,13.55-.65,26.84-1.19,39.83,3.62-.84,10.95-3.13,15.57-9.78,.5-.71,2.23-3.3,4.12-10.36,2.42-9.02,2.7-16.36,2.77-18.65,.35-11.05,.72-24.55,.85-40.2-15.74-.26-6.15-.52-21.89-.78Z" fill="rgba(112, 111, 111, .75)" stroke="#575756" stroke-miterlimit="10" stroke-width="3" />
        <path id="leftLevelVI" d="M675.05,227.43c-4,.2-10.08,.41-17.53,.34-5.68-.05,0,0-22.55-.87-8.89-.34-12.65-.92-14.06-.96-2.09,48.49-.67,70.69-.67,70.69,0,0,0,93.62,0,93.63,0,0,2.14,105.5,2.35,107.88,15.74,.26,6.15,.52,21.89,.78,.27-10.85,.88-19.65,1.38-25.69,.47-5.56,3.57-50.21,4.6-60.51,.61-6.12,2.62-32.43,5.23-55.94,2.04-18.34,4.87-36.98,5.46-44.8,.82-10.8,3.07-19.12,4.65-33.8,1.49-13.91,2.58-20.49,3.07-23.31,1.98-11.49,4.34-20.89,6.17-27.44Z" fill="rgba(112, 111, 111, .75)" stroke="#575756" stroke-miterlimit="10" stroke-width="3" />
        <path id="leftLevelVB" d="M712.45,356.4c8.38,.02,15.16,.03,19.71,.04,5.89,0,10.5,0,24.2,0,1.36,0,13.3,0,14.63,0,1.18,4.83,2.83,11.39,4.97,19.13,2.38,8.61,4.35,15.76,7.5,24.93,1.32,3.84,3.32,9.06,7.26,19.36,2.89,7.56,5.32,13.81,7.02,18.15-6.61,2-25.34,7.68-31.95,9.68-12.43,3.77-33.8,10.26-46.23,14.04-1.55-8.52-3.49-20.83-4.84-35.82-1-11.1-1.3-19.49-1.69-30.74-.34-9.72-.66-22.94-.59-38.77Z" fill="rgba(112, 111, 111, .75)" stroke="#575756" stroke-miterlimit="10" stroke-width="3" />
        <path id="leftLevelVA" d="M830.81,118.78c4.14,2.72,8.27,5.45,12.41,8.17-12.94,13.69-22.82,26.21-29.96,36.01-8.54,11.71-15.69,21.53-23,36.31-7.89,15.96-11.85,29.41-15.13,40.55-2.79,9.46-5.32,18.7-7.56,31.47-1.8,10.22-2.11,24.51-2.41,36.8-.51,20.82,4.65,45.9,5.84,48.36h-58.37c2.8-15.75,5.81-29.03,8.34-39.19,3.73-15.03,7.31-29.24,14.18-47.53,6.52-17.37,12.71-29.65,14.18-32.52,3.5-6.87,6.84-12.61,13.53-24.07,6.26-10.73,10.86-18.62,17.66-29.07,5.75-8.83,10.02-14.81,17.65-25.49,11.76-16.46,16.48-22.1,18.13-24.05,5.74-6.79,10.87-12.11,14.52-15.73Z" fill="rgba(112, 111, 111, .75)" stroke="#575756" stroke-miterlimit="10" stroke-width="3" />
        <path id="leftLevelIV" d="M655.94,354.64c17.83,.31,38.68,1.46,56.51,1.77-.07,13.08,.14,24.63,.44,34.3,.42,13.58,.74,23.94,2.06,37.55,1.25,12.98,2.97,24.27,4.62,33.48-9.95,2.98-21.33,5.77-34.01,7.87-14.66,2.42-28.05,3.41-39.69,3.63,1.78-17.27,2.18-32.8,3.11-42.19,2.16-21.74,2.01-29.88,3.78-44.51,1.61-13.33,2.19-25.13,3.19-31.89Z" fill="rgba(112, 111, 111, .75)" stroke="#575756" stroke-miterlimit="10" stroke-width="3" />
        <path id="leftLevelIII" d="M675.05,227.43c-4.45,16.26-6.72,29.7-7.97,39.08-.92,6.89-2.75,21.09-4.28,32.52s-3.05,24.18-3.47,28.71c-1.03,11.19-2.75,20.87-3.38,26.9,2.4,.04,15.58,1.05,17.98,1.09,12.14,.21,26.39,.46,38.53,.68,1.06-5.53,2.5-12.77,4.36-21.25,1.35-6.16,3.42-15.53,6.61-27.7,2.07-7.89,3.67-13.97,6.36-22.34,1.59-4.95,4.31-13.02,8.22-22.79,1.66-4.14,4.31-10.72,8.38-19.17,2.56-5.32,4.91-9.78,6.77-13.18-14.3-.54-28.66-1.05-43.1-1.51-11.71-.38-23.38-.72-35.01-1.04Z" fill="rgba(112, 111, 111, .75)" stroke="#575756" stroke-miterlimit="10" stroke-width="3" />
        <path id="leftLevelIIB" d="M753.16,229.92c8.11-15.99,16.59-29.07,22.59-38.58,5.16-8.18,10.1-15.24,19.97-29.35,11.4-16.3,16.09-22.25,20.58-27.53,5.75-6.77,10.87-12.1,14.52-15.73-8.98-5.35-17.95-10.69-26.93-16.04-6.76,6.16-14.91,15.18-24.59,27.05-8.59,10.53-9.1,11.6-16.66,22.53-9.18,13.28-12.52,18.73-23.16,35.06-5.29,8.11-13.09,24.69-24.58,41.09,14.63,.45,23.63,1.05,38.27,1.5Z" fill="rgba(112, 111, 111, .75)" stroke="#575756" stroke-miterlimit="10" stroke-width="3" />
        <path id="leftLevelIA" d="M564.64,102.69c-5.11-.19-4.76-.38-9.87-.57,8.52,13.84,14.1,26.82,18.15,33.34,11.94,19.23,47.84,85.16,47.99,90.48,10.1,.33,6.48,.98,16.67,1.06,29.33,.22,25.13-.1,37.46,.43-6.06-8.78-12.41-16.49-18.48-25.26-3.8-4.87-9.59-12.05-17.08-20.41-5.36-5.98-10.5-11.24-20.57-21.52-13.03-13.3-13.97-13.91-22.81-23.16-2.01-2.1-8.23-8.62-16.21-17.35-5.69-6.23-10.8-11.96-15.25-17.05Z" fill="rgba(112, 111, 111, .75)" stroke="#575756" stroke-miterlimit="10" stroke-width="3" />
        <path id="leftLevelIB" d="M711.31,165.03c-5.28-.86-13.3-2.51-22.64-5.86-7.56-2.72-12.84-5.43-34.34-17.88-22-12.74-33-19.11-33.77-19.58-11.15-6.76-16.93-10.56-26.68-13.91-8.33-2.86-15.57-4.01-20.43-4.54l-8.8-.57c6.72,7.68,16.83,18.99,29.52,32.35,16.9,17.8,25.26,25.41,35.19,35.76,12.03,12.53,28.32,31.1,45.7,56.62,3.61-12.13,8.13-21.84,11.99-28.94,1.14-2.1,6.23-11.34,14.79-22.31,3.59-4.6,6.89-8.34,9.48-11.14Z" fill="rgba(112, 111, 111, .75)" stroke="#575756" stroke-miterlimit="10" stroke-width="3" />
        <path id="leftLevelIIA" d="M675.05,227.43c8.81-27.49,19.66-42.96,29.39-54.39,25.47-29.93,19.37-20.78,50.61-47.39,12.64-10.77,19.79-17.91,32.13-26.51,4.81-3.36,13.66,1.12,16.71,3.61-7.68,7.49-18.8,19.13-31.03,35.11-10.49,13.7-13.53,18.75-29.19,42.65-6.53,9.96-16.75,30.57-28.77,47.97-12.72,.09-25.38-.77-39.84-1.05Z" fill="rgba(112, 111, 111, .75)" stroke="#575756" stroke-miterlimit="10" stroke-width="3" />
        <path id="rightLevelVII" d="M295.67,498.15c-.08,13.04,0,26.35,.24,39.93,.24,13.55,.65,26.84,1.19,39.83-3.62-.84-10.95-3.13-15.57-9.78-.5-.71-2.23-3.3-4.12-10.36-2.42-9.02-2.7-16.36-2.77-18.65-.35-11.05-.72-24.55-.85-40.2,15.74-.26,6.15-.52,21.89-.78Z" fill="rgba(112, 111, 111, .75)" stroke="#575756" stroke-miterlimit="10" stroke-width="3" />
        <path id="rightLevelVI" d="M243.22,227.43c4,.2,10.08,.41,17.53,.34,5.68-.05,0,0,22.55-.87,8.89-.34,12.65-.92,14.06-.96,2.09,48.49,.67,70.69,.67,70.69,0,0,0,93.62,0,93.63,0,0-2.14,105.5-2.35,107.88-15.74,.26-6.15,.52-21.89,.78-.27-10.85-.88-19.65-1.38-25.69-.47-5.56-3.57-50.21-4.6-60.51-.61-6.12-2.62-32.43-5.23-55.94-2.04-18.34-4.87-36.98-5.46-44.8-.82-10.8-3.07-19.12-4.65-33.8-1.49-13.91-2.58-20.49-3.07-23.31-1.98-11.49-4.34-20.89-6.17-27.44Z" fill="rgba(112, 111, 111, .75)" stroke="#575756" stroke-miterlimit="10" stroke-width="3" />
        <path id="rightLevelVB" d="M205.82,356.4c-8.38,.02-15.16,.03-19.71,.04-5.89,0-10.5,0-24.2,0-1.36,0-13.3,0-14.63,0-1.18,4.83-2.83,11.39-4.97,19.13-2.38,8.61-4.35,15.76-7.5,24.93-1.32,3.84-3.32,9.06-7.26,19.36-2.89,7.56-5.32,13.81-7.02,18.15,6.61,2,25.34,7.68,31.95,9.68,12.43,3.77,33.8,10.26,46.23,14.04,1.55-8.52,3.49-20.83,4.84-35.82,1-11.1,1.3-19.49,1.69-30.74,.34-9.72,.66-22.94,.59-38.77Z" fill="rgba(112, 111, 111, .75)" stroke="#575756" stroke-miterlimit="10" stroke-width="3" />
        <path id="rightLevelVA" d="M87.46,118.78c-4.14,2.72-8.27,5.45-12.41,8.17,12.94,13.69,22.82,26.21,29.96,36.01,8.54,11.71,15.69,21.53,23,36.31,7.89,15.96,11.85,29.41,15.13,40.55,2.79,9.46,5.32,18.7,7.56,31.47,1.8,10.22,2.11,24.51,2.41,36.8,.51,20.82-4.65,45.9-5.84,48.36h58.37c-2.8-15.75-5.81-29.03-8.34-39.19-3.73-15.03-7.31-29.24-14.18-47.53-6.52-17.37-12.71-29.65-14.18-32.52-3.5-6.87-6.84-12.61-13.53-24.07-6.26-10.73-10.86-18.62-17.66-29.07-5.75-8.83-10.02-14.81-17.65-25.49-11.76-16.46-16.48-22.1-18.13-24.05-5.74-6.79-10.87-12.11-14.52-15.73Z" fill="rgba(112, 111, 111, .75)" stroke="#575756" stroke-miterlimit="10" stroke-width="3" />
        <path id="rightLevelIV" d="M262.32,354.64c-17.83,.31-38.68,1.46-56.51,1.77,.07,13.08-.14,24.63-.44,34.3-.42,13.58-.74,23.94-2.06,37.55-1.25,12.98-2.97,24.27-4.62,33.48,9.95,2.98,21.33,5.77,34.01,7.87,14.66,2.42,28.05,3.41,39.69,3.63-1.78-17.27-2.18-32.8-3.11-42.19-2.16-21.74-2.01-29.88-3.78-44.51-1.61-13.33-2.19-25.13-3.19-31.89Z" fill="rgba(112, 111, 111, .75)" stroke="#575756" stroke-miterlimit="10" stroke-width="3" />
        <path id="rightLevelIII" d="M243.22,227.43c4.45,16.26,6.72,29.7,7.97,39.08,.92,6.89,2.75,21.09,4.28,32.52s3.05,24.18,3.47,28.71c1.03,11.19,2.75,20.87,3.38,26.9-2.4,.04-15.58,1.05-17.98,1.09-12.14,.21-26.39,.46-38.53,.68-1.06-5.53-2.5-12.77-4.36-21.25-1.35-6.16-3.42-15.53-6.61-27.7-2.07-7.89-3.67-13.97-6.36-22.34-1.59-4.95-4.31-13.02-8.22-22.79-1.66-4.14-4.31-10.72-8.38-19.17-2.56-5.32-4.91-9.78-6.77-13.18,14.3-.54,28.66-1.05,43.1-1.51,11.71-.38,23.38-.72,35.01-1.04Z" fill="rgba(112, 111, 111, .75)" stroke="#575756" stroke-miterlimit="10" stroke-width="3" />
        <path id="rightLevelIIB" d="M165.11,229.92c-8.11-15.99-16.59-29.07-22.59-38.58-5.16-8.18-10.1-15.24-19.97-29.35-11.4-16.3-16.09-22.25-20.58-27.53-5.75-6.77-10.87-12.1-14.52-15.73,8.98-5.35,17.95-10.69,26.93-16.04,6.76,6.16,14.91,15.18,24.59,27.05,8.59,10.53,9.1,11.6,16.66,22.53,9.18,13.28,12.52,18.73,23.16,35.06,5.29,8.11,13.09,24.69,24.58,41.09-14.63,.45-23.63,1.05-38.27,1.5Z" fill="rgba(112, 111, 111, .75)" stroke="#575756" stroke-miterlimit="10" stroke-width="3" />
        <path id="rightLevelIA" d="M353.63,102.69c5.11-.19,4.76-.38,9.87-.57-8.52,13.84-14.1,26.82-18.15,33.34-11.94,19.23-47.84,85.16-47.99,90.48-10.1,.33-6.48,.98-16.67,1.06-29.33,.22-25.13-.1-37.46,.43,6.06-8.78,12.41-16.49,18.48-25.26,3.8-4.87,9.59-12.05,17.08-20.41,5.36-5.98,10.5-11.24,20.57-21.52,13.03-13.3,13.97-13.91,22.81-23.16,2.01-2.1,8.23-8.62,16.21-17.35,5.69-6.23,10.8-11.96,15.25-17.05Z" fill="rgba(112, 111, 111, .75)" stroke="#575756" stroke-miterlimit="10" stroke-width="3" />
        <path id="rightLevelIB" d="M206.96,165.03c5.28-.86,13.3-2.51,22.64-5.86,7.56-2.72,12.84-5.43,34.34-17.88,22-12.74,33-19.11,33.77-19.58,11.15-6.76,16.93-10.56,26.68-13.91,8.33-2.86,15.57-4.01,20.43-4.54l8.8-.57c-6.72,7.68-16.83,18.99-29.52,32.35-16.9,17.8-25.26,25.41-35.19,35.76-12.03,12.53-28.32,31.1-45.7,56.62-3.61-12.13-8.13-21.84-11.99-28.94-1.14-2.1-6.23-11.34-14.79-22.31-3.59-4.6-6.89-8.34-9.48-11.14Z" fill="rgba(112, 111, 111, .75)" stroke="#575756" stroke-miterlimit="10" stroke-width="3" />
        <path id="rightLevelIIA" d="M243.12,227.43c-8.81-27.49-19.66-42.96-29.39-54.39-25.47-29.93-19.37-20.78-50.61-47.39-12.64-10.77-19.79-17.91-32.13-26.51-4.81-3.36-13.66,1.12-16.71,3.61,7.68,7.49,18.8,19.13,31.03,35.11,10.49,13.7,13.53,18.75,29.19,42.65,6.53,9.96,16.75,30.57,28.77,47.97,12.72,.09,25.38-.77,39.84-1.05Z" fill="rgba(112, 111, 111, .75)" stroke="#575756" stroke-miterlimit="10" stroke-width="3" />
    </g>
    <g>
        <g>
            <path d="M629.16,532.66l-2.64-8.08h1.13l1.26,3.98c.35,1.09,.65,2.07,.86,3.02h.02c.23-.94,.56-1.96,.92-3.01l1.37-3.99h1.12l-2.89,8.08h-1.15Z" fill="#1d1d1b" />
            <path d="M635.12,524.58v8.08h-1.04v-8.08h1.04Z" fill="#1d1d1b" />
            <path d="M637.99,524.58v8.08h-1.04v-8.08h1.04Z" fill="#1d1d1b" />
        </g>
        <g>
            <path d="M637.96,321.17l-2.64-8.08h1.13l1.26,3.98c.35,1.09,.65,2.07,.86,3.02h.02c.23-.94,.56-1.96,.92-3.01l1.37-3.99h1.12l-2.89,8.08h-1.15Z" fill="#1d1d1b" />
            <path d="M643.93,313.08v8.08h-1.04v-8.08h1.04Z" fill="#1d1d1b" />
        </g>
        <g>
            <path d="M745.24,405.85l-2.64-8.08h1.13l1.26,3.98c.35,1.09,.65,2.07,.86,3.02h.02c.23-.94,.56-1.96,.92-3.01l1.37-3.99h1.12l-2.89,8.08h-1.15Z" fill="#1d1d1b" />
            <path d="M750.16,397.87c.46-.1,1.18-.17,1.91-.17,1.04,0,1.71,.18,2.22,.59,.42,.31,.67,.79,.67,1.43,0,.78-.52,1.46-1.37,1.78v.02c.77,.19,1.67,.83,1.67,2.03,0,.7-.28,1.22-.68,1.62-.56,.52-1.48,.76-2.79,.76-.72,0-1.27-.05-1.62-.1v-7.95Zm1.04,3.31h.95c1.1,0,1.75-.58,1.75-1.36,0-.95-.72-1.32-1.78-1.32-.48,0-.75,.04-.92,.07v2.6Zm0,3.87c.2,.04,.5,.05,.88,.05,1.08,0,2.08-.4,2.08-1.57,0-1.1-.95-1.56-2.09-1.56h-.86v3.08Z" fill="#1d1d1b" />
        </g>
        <g>
            <path d="M744.1,295.73l-2.64-8.08h1.13l1.26,3.98c.35,1.09,.65,2.07,.86,3.02h.02c.23-.94,.56-1.95,.92-3.01l1.37-3.99h1.12l-2.89,8.08h-1.15Z" fill="#1d1d1b" />
            <path d="M749.65,293.19l-.84,2.54h-1.08l2.75-8.08h1.26l2.76,8.08h-1.12l-.86-2.54h-2.87Zm2.65-.82l-.79-2.33c-.18-.53-.3-1.01-.42-1.48h-.02c-.12,.48-.25,.97-.41,1.46l-.79,2.34h2.43Z" fill="#1d1d1b" />
        </g>
        <g>
            <path d="M674.73,405.85v8.08h-1.04v-8.08h1.04Z" fill="#1d1d1b" />
            <path d="M678.32,413.93l-2.64-8.08h1.13l1.26,3.98c.35,1.09,.65,2.07,.86,3.02h.02c.23-.94,.56-1.96,.92-3.01l1.37-3.99h1.12l-2.89,8.08h-1.15Z" fill="#1d1d1b" />
        </g>
        <g>
            <path d="M693.17,286.18v8.08h-1.04v-8.08h1.04Z" fill="#1d1d1b" />
            <path d="M696.03,286.18v8.08h-1.04v-8.08h1.04Z" fill="#1d1d1b" />
            <path d="M698.9,286.18v8.08h-1.04v-8.08h1.04Z" fill="#1d1d1b" />
        </g>
        <g>
            <path d="M759.51,173.68v8.08h-1.04v-8.08h1.04Z" fill="#1d1d1b" />
            <path d="M762.38,173.68v8.08h-1.04v-8.08h1.04Z" fill="#1d1d1b" />
            <path d="M764.2,173.79c.46-.1,1.18-.17,1.91-.17,1.04,0,1.71,.18,2.22,.59,.42,.31,.67,.79,.67,1.43,0,.78-.52,1.46-1.37,1.77v.02c.77,.19,1.67,.83,1.67,2.03,0,.7-.28,1.22-.68,1.62-.56,.52-1.48,.76-2.79,.76-.72,0-1.27-.05-1.62-.1v-7.95Zm1.04,3.31h.95c1.1,0,1.75-.58,1.75-1.35,0-.95-.72-1.32-1.77-1.32-.48,0-.76,.04-.92,.07v2.6Zm0,3.87c.2,.04,.5,.05,.88,.05,1.08,0,2.08-.4,2.08-1.57,0-1.1-.95-1.56-2.09-1.56h-.86v3.08Z" fill="#1d1d1b" />
        </g>
        <g>
            <path d="M725.73,164.45v8.08h-1.04v-8.08h1.04Z" fill="#1d1d1b" />
            <path d="M728.6,164.45v8.08h-1.04v-8.08h1.04Z" fill="#1d1d1b" />
            <path d="M731.73,169.99l-.84,2.54h-1.08l2.75-8.08h1.26l2.76,8.08h-1.12l-.86-2.54h-2.87Zm2.65-.82l-.79-2.33c-.18-.53-.3-1.01-.42-1.48h-.02c-.12,.48-.25,.97-.41,1.46l-.79,2.34h2.43Z" fill="#1d1d1b" />
        </g>
        <g>
            <path d="M649.37,161.07v8.08h-1.04v-8.08h1.04Z" fill="#1d1d1b" />
            <path d="M651.19,161.18c.46-.1,1.18-.17,1.91-.17,1.04,0,1.72,.18,2.22,.59,.42,.31,.67,.79,.67,1.43,0,.78-.52,1.46-1.37,1.77v.02c.77,.19,1.67,.83,1.67,2.03,0,.7-.28,1.22-.68,1.62-.56,.52-1.48,.76-2.79,.76-.72,0-1.27-.05-1.62-.1v-7.95Zm1.04,3.31h.95c1.1,0,1.75-.58,1.75-1.35,0-.95-.72-1.32-1.77-1.32-.48,0-.76,.04-.92,.07v2.6Zm0,3.87c.2,.04,.5,.05,.88,.05,1.08,0,2.07-.4,2.07-1.57,0-1.1-.95-1.56-2.09-1.56h-.86v3.08Z" fill="#1d1d1b" />
        </g>
        <g>
            <path d="M618.66,184.27v8.08h-1.04v-8.08h1.04Z" fill="#1d1d1b" />
            <path d="M621.79,189.81l-.84,2.54h-1.08l2.75-8.08h1.26l2.76,8.08h-1.12l-.86-2.54h-2.87Zm2.65-.82l-.79-2.33c-.18-.53-.3-1.01-.42-1.48h-.02c-.12,.48-.25,.97-.41,1.46l-.79,2.34h2.43Z" fill="#1d1d1b" />
        </g>
        <g>
            <path d="M282.05,532.66l-2.64-8.08h1.13l1.26,3.98c.35,1.09,.65,2.07,.86,3.02h.02c.23-.94,.56-1.96,.92-3.01l1.37-3.99h1.12l-2.89,8.08h-1.15Z" fill="#1d1d1b" />
            <path d="M288.02,524.58v8.08h-1.04v-8.08h1.04Z" fill="#1d1d1b" />
            <path d="M290.89,524.58v8.08h-1.04v-8.08h1.04Z" fill="#1d1d1b" />
        </g>
        <g>
            <path d="M276.12,321.17l-2.64-8.08h1.13l1.26,3.98c.35,1.09,.65,2.07,.86,3.02h.02c.23-.94,.56-1.96,.92-3.01l1.37-3.99h1.12l-2.89,8.08h-1.15Z" fill="#1d1d1b" />
            <path d="M282.08,313.08v8.08h-1.04v-8.08h1.04Z" fill="#1d1d1b" />
        </g>
        <g>
            <path d="M165.2,405.85l-2.64-8.08h1.13l1.26,3.98c.35,1.09,.65,2.07,.86,3.02h.02c.23-.94,.56-1.96,.92-3.01l1.37-3.99h1.12l-2.89,8.08h-1.15Z" fill="#1d1d1b" />
            <path d="M170.13,397.87c.46-.1,1.18-.17,1.91-.17,1.04,0,1.71,.18,2.22,.59,.42,.31,.67,.79,.67,1.43,0,.78-.52,1.46-1.37,1.78v.02c.77,.19,1.67,.83,1.67,2.03,0,.7-.28,1.22-.68,1.62-.56,.52-1.48,.76-2.79,.76-.72,0-1.27-.05-1.62-.1v-7.95Zm1.04,3.31h.95c1.1,0,1.75-.58,1.75-1.36,0-.95-.72-1.32-1.78-1.32-.48,0-.75,.04-.92,.07v2.6Zm0,3.87c.2,.04,.5,.05,.88,.05,1.08,0,2.08-.4,2.08-1.57,0-1.1-.95-1.56-2.09-1.56h-.86v3.08Z" fill="#1d1d1b" />
        </g>
        <g>
            <path d="M166.18,295.73l-2.64-8.08h1.13l1.26,3.98c.35,1.09,.65,2.07,.86,3.02h.02c.23-.94,.56-1.95,.92-3.01l1.37-3.99h1.12l-2.89,8.08h-1.15Z" fill="#1d1d1b" />
            <path d="M171.73,293.19l-.84,2.54h-1.08l2.75-8.08h1.26l2.76,8.08h-1.12l-.86-2.54h-2.87Zm2.65-.82l-.79-2.33c-.18-.53-.3-1.01-.42-1.48h-.02c-.12,.48-.25,.97-.41,1.46l-.79,2.34h2.43Z" fill="#1d1d1b" />
        </g>
        <g>
            <path d="M237.85,405.85v8.08h-1.04v-8.08h1.04Z" fill="#1d1d1b" />
            <path d="M241.45,413.93l-2.64-8.08h1.13l1.26,3.98c.35,1.09,.65,2.07,.86,3.02h.02c.23-.94,.56-1.96,.92-3.01l1.37-3.99h1.12l-2.89,8.08h-1.15Z" fill="#1d1d1b" />
        </g>
        <g>
            <path d="M220.41,286.18v8.08h-1.04v-8.08h1.04Z" fill="#1d1d1b" />
            <path d="M223.28,286.18v8.08h-1.04v-8.08h1.04Z" fill="#1d1d1b" />
            <path d="M226.14,286.18v8.08h-1.04v-8.08h1.04Z" fill="#1d1d1b" />
        </g>
        <g>
            <path d="M150.43,173.68v8.08h-1.04v-8.08h1.04Z" fill="#1d1d1b" />
            <path d="M153.29,173.68v8.08h-1.04v-8.08h1.04Z" fill="#1d1d1b" />
            <path d="M155.12,173.79c.46-.1,1.18-.17,1.91-.17,1.04,0,1.71,.18,2.22,.59,.42,.31,.67,.79,.67,1.43,0,.78-.52,1.46-1.37,1.77v.02c.77,.19,1.67,.83,1.67,2.03,0,.7-.28,1.22-.68,1.62-.56,.52-1.48,.76-2.79,.76-.72,0-1.27-.05-1.62-.1v-7.95Zm1.04,3.31h.95c1.1,0,1.75-.58,1.75-1.35,0-.95-.72-1.32-1.77-1.32-.48,0-.76,.04-.92,.07v2.6Zm0,3.87c.2,.04,.5,.05,.88,.05,1.08,0,2.08-.4,2.08-1.57,0-1.1-.95-1.56-2.09-1.56h-.86v3.08Z" fill="#1d1d1b" />
        </g>
        <g>
            <path d="M183.37,164.45v8.08h-1.04v-8.08h1.04Z" fill="#1d1d1b" />
            <path d="M186.24,164.45v8.08h-1.04v-8.08h1.04Z" fill="#1d1d1b" />
            <path d="M189.37,169.99l-.84,2.54h-1.08l2.75-8.08h1.26l2.76,8.08h-1.12l-.86-2.54h-2.87Zm2.65-.82l-.79-2.33c-.18-.53-.3-1.01-.42-1.48h-.02c-.12,.48-.25,.97-.41,1.46l-.79,2.34h2.43Z" fill="#1d1d1b" />
        </g>
        <g>
            <path d="M263.44,161.07v8.08h-1.04v-8.08h1.04Z" fill="#1d1d1b" />
            <path d="M265.26,161.18c.46-.1,1.18-.17,1.91-.17,1.04,0,1.72,.18,2.22,.59,.42,.31,.67,.79,.67,1.43,0,.78-.52,1.46-1.37,1.77v.02c.77,.19,1.67,.83,1.67,2.03,0,.7-.28,1.22-.68,1.62-.56,.52-1.48,.76-2.79,.76-.72,0-1.27-.05-1.62-.1v-7.95Zm1.04,3.31h.95c1.1,0,1.75-.58,1.75-1.35,0-.95-.72-1.32-1.77-1.32-.48,0-.76,.04-.92,.07v2.6Zm0,3.87c.2,.04,.5,.05,.88,.05,1.08,0,2.07-.4,2.07-1.57,0-1.1-.95-1.56-2.09-1.56h-.86v3.08Z" fill="#1d1d1b" />
        </g>
        <g>
            <path d="M293.31,184.27v8.08h-1.04v-8.08h1.04Z" fill="#1d1d1b" />
            <path d="M296.44,189.81l-.84,2.54h-1.08l2.75-8.08h1.26l2.76,8.08h-1.12l-.86-2.54h-2.87Zm2.65-.82l-.79-2.33c-.18-.53-.3-1.01-.42-1.48h-.02c-.12,.48-.25,.97-.41,1.46l-.79,2.34h2.43Z" fill="#1d1d1b" />
        </g>
    </g>
</svg>