<svg xmlns="http://www.w3.org/2000/svg" viewBox="0 0 285.18 362.89">
    <metadata xmlns:med="http://www.medreporter.org/reference/image">
        <med:MedReporter lngs="de,en">
            <med:Title>
                <med:Trans lng="de">Ventrikelsystem des Gehirns</med:Trans>
                <med:Trans lng="en">Ventricles brain</med:Trans>
            </med:Title>
            <med:Option id="rightLateralAperture">
                <med:Trans lng="de">Recessus lateralis rechts</med:Trans>
                <med:Trans lng="en">Right lateral aperture</med:Trans>
            </med:Option>
            <med:Option id="leftLateralAperture">
                <med:Trans lng="de">Recessus lateralis rechts</med:Trans>
                <med:Trans lng="en">Left lateral aperture</med:Trans>
            </med:Option>
            <med:Option id="fourth">
                <med:Trans lng="de">Ventriculus quartus</med:Trans>
                <med:Trans lng="en">Fourth ventricle</med:Trans>
            </med:Option>
            <med:Option id="cerebralAqueduct">
                <med:Trans lng="de">Aqueductus mesencephali</med:Trans>
                <med:Trans lng="en">Cerebral aqueduct</med:Trans>
            </med:Option>
            <med:Option id="third">
                <med:Trans lng="de">Ventriculus tertius</med:Trans>
                <med:Trans lng="en">Third ventricle</med:Trans>
            </med:Option>
            <med:Option id="rightInterventricularForamen">
                <med:Trans lng="de">Foramen interventriculare rechts</med:Trans>
                <med:Trans lng="en">Right interventricular foramen</med:Trans>
            </med:Option>
            <med:Option id="rightTemporalHorn">
                <med:Trans lng="de">Cornu temporale, Ventriculus lateralis rechts</med:Trans>
                <med:Trans lng="en">Right temporal horn of lateral ventricle</med:Trans>
            </med:Option>
            <med:Option id="rightOccipitalHorn">
                <med:Trans lng="de">Cornu occipitale, Ventriculus lateralis rechts</med:Trans>
                <med:Trans lng="en">Right occipital horn of lateral ventricle</med:Trans>
            </med:Option>
            <med:Option id="rightFrontalHorn">
                <med:Trans lng="de">Cornu frontale, Ventriculus lateralis rechts</med:Trans>
                <med:Trans lng="en">Right frontal horn of lateral ventricle</med:Trans>
            </med:Option>
            <med:Option id="leftInterventricularForamen">
                <med:Trans lng="de">Foramen interventriculare links</med:Trans>
                <med:Trans lng="en">Left interventricular foramen</med:Trans>
            </med:Option>
            <med:Option id="leftTemporalHorn">
                <med:Trans lng="de">Cornu temporale, Ventriculus lateralis links</med:Trans>
                <med:Trans lng="en">Left temporal horn of lateral ventricle</med:Trans>
            </med:Option>
            <med:Option id="leftOccipitalHorn">
                <med:Trans lng="de">Cornu occipitale, Ventriculus lateralis links</med:Trans>
                <med:Trans lng="en">Left occipital horn of lateral ventricle</med:Trans>
            </med:Option>
            <med:Option id="leftFrontalHorn">
                <med:Trans lng="de">Cornu frontale, Ventriculus lateralis links</med:Trans>
                <med:Trans lng="en">Left frontal horn of lateral ventricle</med:Trans>
            </med:Option>
        </med:MedReporter>
    </metadata>
    <g>
        <path id="rightLateralAperture" d="M112.1,285.09c-.91,0-2.21-.04-3.75-.16-3.71-.28-7.04-.54-10.48-1.88-.93-.36-6.44-2.59-10.16-8.13-.68-1.02-2.13-3.36-2.5-6.57-.15-1.28-.42-3.64,.78-4.38,1.11-.68,2.86,.37,3.28,.63,2.23,1.34,2.34,3.14,3.75,5,2.49,3.28,6.88,3.92,10.01,4.38,3.42,.5,6.36,.06,8.44-.47l.63,11.57Z" fill="#f6f6f6" />
        <path id="leftLateralAperture" d="M173.68,273.52c2.08,.53,5.02,.97,8.44,.47,3.13-.46,7.51-1.1,10.01-4.38,1.42-1.87,1.52-3.67,3.75-5,.42-.25,2.18-1.31,3.28-.63,1.21,.74,.93,3.1,.78,4.38-.37,3.2-1.82,5.55-2.5,6.57-3.73,5.54-9.24,7.77-10.16,8.13-3.44,1.34-6.77,1.59-10.48,1.88-1.54,.12-2.84,.15-3.75,.16l.63-11.57Z" fill="#f6f6f6" />
        <path id="fourth" d="M150.81,234.89c3.48,7.09,7.25,11.92,10.05,15.02,4.19,4.63,7.04,6.3,7.82,10.63,.56,3.1-.3,5.56,1.56,9.07,.54,1.02,1.49,2.76,3.44,3.91l-.63,11.57c-2.3,.76-3.55,2.66-3.75,2.97-.91,1.41-1.17,2.71-1.41,4.07-.45,2.57,.11,3.12-.47,5.18-.27,.98-.9,3.21-2.08,3.39-1.17,.18-5.67-4.59-7.35-6.4-1.17-1.26-1.85-2.06-2.78-2.94-2.07-1.96-2.66-2.42-3.32-2.69-.44-.18-2.15-.88-3.82-.32-2.97,.99-2.96,5.03-4.66,5.12-1.85,.1-2.21-4.68-5.59-5.59-1.93-.52-3.94,.47-4.59,.79-1.08,.53-1.83,1.27-3.32,2.69-.93,.88-1.61,1.68-2.78,2.94-1.68,1.81-6.18,6.58-7.35,6.4-1.18-.18-1.81-2.42-2.08-3.39-.58-2.05-.01-2.61-.47-5.18-.24-1.35-.5-2.65-1.41-4.07-.2-.31-1.45-2.21-3.75-2.97l-.63-11.57c1.95-1.15,2.9-2.89,3.44-3.91,1.87-3.51,1.01-5.97,1.56-9.07,.78-4.33,3.63-6,7.82-10.63,2.81-3.1,6.57-7.93,10.05-15.02h16.46Z" fill="#ededed" />
        <path id="cerebralAqueduct" d="M134.35,234.89c.58-6,1.02-12.37,1.25-19.08,.24-7.16,.22-13.95,0-20.33h13.96c-.22,6.38-.24,13.17,0,20.33,.23,6.71,.67,13.08,1.25,19.08h-16.46Z" fill="#dadada" />
        <path id="third" d="M135.6,195.49c-1.85-5.91-2.98-11.13-3.7-15.33-1.34-7.77-.6-6.37-1.83-17.9-.02-.2-.95-11.8-.57-15.53,.02-.2,.03-.34,.05-.49,.11-1.64,.08-2.83,.08-3.02-.04-1.17,.26-11.99,3.04-32.75,.56-4.19,1.35-9.71,2.41-16.22l.62-12.91c-.46-3.03,.2-5.96,.46-7.62,.22-1.41,1.05-3.81,2.3-5.84,1.31-2.13,3.16-3.26,4.13-4.16,.97,.9,2.82,2.03,4.13,4.16,1.25,2.03,2.09,4.43,2.3,5.84,.26,1.66,.91,4.59,.46,7.62l1.05,12.81c1.19,6.39,1.98,11.84,2.52,16,2.22,17.21,2.54,31.64,2.49,33.07,0,.21-.04,1.39,.08,3.02,.01,.15,.02,.29,.05,.49,.39,3.73-.54,15.33-.57,15.53-1.22,11.53-.49,10.13-1.83,17.9-.72,4.2-1.86,9.42-3.7,15.33h-13.96Z" fill="#c6c6c6" />
        <path id="rightInterventricularForamen" d="M126.25,96.59c1.34-.71,7.48-1.64,8.82-2.35l.62-12.91c-.57,.25-3.99-.73-4.75-1.07l-4.69,16.33Z" fill="#cac9ca" />
        <path id="rightTemporalHorn" d="M18.43,230.83c-1.09-4.54-2.94-12.09-7.04-21.11-2.95-6.51-4.47-8.04-6.72-14.54-2.05-5.9-2.94-10.77-3.28-12.98-.71-4.59-.3-4.96-.94-17.83-.42-8.59-.69-10.1-.16-13.6,.54-3.59,1.29-5.09,3.28-10.95,2.5-7.32,1.66-5.91,5.94-19.39,3.69-11.62,4.67-13.78,7.04-16.11,2.3-2.27,5.32-4.11,7.82-5.63,4.02-2.45,6.03-3.68,8.13-3.91,.88-.1,2.49-.16,4.38-1.09,1.14-.56,1.61-1.06,2.5-1.72,.98-.72,3.7-2.74,6.88-2.97,.4-.03,4.13-.25,6.88,2.35,1.99,1.87,2.42,4.23,2.97,7.19,.62,3.38-.11,3.49,.47,7.04,.66,4.03,1.67,4.25,2.03,7.97,.25,2.51-.23,2.23,0,5.79,.22,3.36,.69,4.36,.16,6.1-.62,2.04-2.06,3.24-2.81,3.91-3.81,3.35-6.43,7.85-9.69,11.73-4.68,5.57-3.28,4.91-9.38,12.67-6.17,7.84-8,9-9.23,13.21-1.42,4.87-.63,9.04-.31,10.63,1.51,7.59,6.34,12.14,8.44,14.07,5.42,4.98,11.35,6.61,14.23,7.19,1.88,10.17,3.76,20.34,5.64,30.51l-37.23,1.47Z" fill="#878787" />
        <path id="rightOccipitalHorn" d="M94.04,242.48c-5.16,3.95-7.01,2.77-14.85,8.29-4.05,2.85-7.94,5.59-11.02,10.01-3.14,4.51-2.81,8.23-5.47,20.01-1.56,6.89-3.45,15.39-4.38,26.74-.67,8.24-1.3,15.9,0,25.49,1.29,9.47,1.93,14.21,2.81,16.26,.94,2.19,2.49,5.1,1.72,8.6-.45,2.05-1.82,4.84-3.75,5-1.58,.13-2.93-1.56-4.07-2.97-1.94-2.42-2.65-4.81-2.7-4.99-2.3-7.71-6.43-14.76-9.02-22.38-.17-.5-3.24-8.88-9.38-25.64-3.95-10.78-5.71-15.48-7.97-23.06-2.93-9.79-3.54-13.74-3.75-15.48-.9-7.18-.05-9.57-.63-17.98-.18-2.67-.73-5.37-1.25-8.68-.71-4.51-1.38-8.25-1.87-10.86l37.23-1.47,38.37,13.12Z" fill="#9d9d9c" />
        <path id="rightFrontalHorn" d="M94.04,242.48c3-2.3,3.55-3.59,13.45-19.55,7.75-12.49,8.76-13.86,10.16-17.67,1.84-5,2.18-8.39,3.28-17.51,3.47-28.72,3.35-24.3,3.75-30.02,.61-8.72,.22-30.09,1.25-54.11,.13-2.98,.24-5.43,.31-7.04l4.69-16.33c-.95-.43-1.43-1.62-1.72-4.22-.38-3.37-.1-5.96,0-7.04,.12-1.29,.03-3.88-.16-9.07-.24-6.73-.36-10.1-1.09-13.29-1.9-8.25-6.73-13.81-8.76-16.11-4.15-4.68-8.88-7.81-11.26-9.38-4.3-2.84-7.45-4.19-10.79-8.13-1.78-2.1-2.8-3.31-3.75-5.32-1.27-2.69-1.15-4.14-2.81-5.79-.47-.46-2.25-2.21-4.38-1.88-1.72,.27-2.74,1.76-3.5,2.9-1.78,2.67-2.02,5.43-2.11,6.64-.51,6.84-.87,11.61,1.07,18.29,1.4,4.79,2.22,4.51,3.6,9.54,1.37,5,1.57,8.94,1.72,12.51,.64,14.98,.94,22.47,.94,24.86-.01,6.44-.03,14.26-.7,24.63-.58,8.88-1.46,21.71-4.69,38-2.61,13.11-4.94,20.63-9.07,33.46-3.29,10.23-5.71,15.07-10.48,19.86-4.55,4.57-9.58,6.9-12.98,8.13,1.88,10.17,3.76,20.34,5.64,30.51l38.37,13.12Z" fill="#b2b2b2" />
        <path id="leftInterventricularForamen" d="M158.93,96.59c-1.34-.71-7.48-1.64-8.82-2.35l-.62-12.91c.57,.25,3.99-.73,4.75-1.07l4.69,16.33Z" fill="#cac9ca" />
        <path id="leftTemporalHorn" d="M266.74,230.83c1.09-4.54,2.94-12.09,7.04-21.11,2.95-6.51,4.47-8.04,6.72-14.54,2.05-5.9,2.94-10.77,3.28-12.98,.71-4.59,.3-4.96,.94-17.83,.42-8.59,.69-10.1,.16-13.6-.54-3.59-1.29-5.09-3.28-10.95-2.5-7.32-1.66-5.91-5.94-19.39-3.69-11.62-4.67-13.78-7.04-16.11-2.3-2.27-5.32-4.11-7.82-5.63-4.02-2.45-6.03-3.68-8.13-3.91-.88-.1-2.49-.16-4.38-1.09-1.14-.56-1.61-1.06-2.5-1.72-.98-.72-3.7-2.74-6.88-2.97-.4-.03-4.13-.25-6.88,2.35-1.99,1.87-2.42,4.23-2.97,7.19-.62,3.38,.11,3.49-.47,7.04-.66,4.03-1.67,4.25-2.03,7.97-.25,2.51,.23,2.23,0,5.79-.22,3.36-.69,4.36-.16,6.1,.62,2.04,2.06,3.24,2.81,3.91,3.81,3.35,6.43,7.85,9.69,11.73,4.68,5.57,3.28,4.91,9.38,12.67,6.17,7.84,8,9,9.23,13.21,1.42,4.87,.63,9.04,.31,10.63-1.51,7.59-6.34,12.14-8.44,14.07-5.42,4.98-11.35,6.61-14.23,7.19-1.88,10.17-3.76,20.34-5.64,30.51l37.23,1.47Z" fill="#878787" />
        <path id="leftOccipitalHorn" d="M191.14,242.48c5.16,3.95,7.01,2.77,14.85,8.29,4.05,2.85,7.94,5.59,11.02,10.01,3.14,4.51,2.81,8.23,5.47,20.01,1.56,6.89,3.45,15.39,4.38,26.74,.67,8.24,1.3,15.9,0,25.49-1.29,9.47-1.93,14.21-2.81,16.26-.94,2.19-2.49,5.1-1.72,8.6,.45,2.05,1.82,4.84,3.75,5,1.58,.13,2.93-1.56,4.07-2.97,1.94-2.42,2.65-4.81,2.7-4.99,2.3-7.71,6.43-14.76,9.02-22.38,.17-.5,3.24-8.88,9.38-25.64,3.95-10.78,5.71-15.48,7.97-23.06,2.93-9.79,3.54-13.74,3.75-15.48,.9-7.18,.05-9.57,.63-17.98,.18-2.67,.73-5.37,1.25-8.68,.71-4.51,1.38-8.25,1.87-10.86l-37.23-1.47-38.37,13.12Z" fill="#9d9d9c" />
        <path id="leftFrontalHorn" d="M191.14,242.48c-3-2.3-3.55-3.59-13.45-19.55-7.75-12.49-8.76-13.86-10.16-17.67-1.84-5-2.18-8.39-3.28-17.51-3.47-28.72-3.35-24.3-3.75-30.02-.61-8.72-.22-30.09-1.25-54.11-.13-2.98-.24-5.43-.31-7.04l-4.69-16.33c.95-.43,1.43-1.62,1.72-4.22,.38-3.37,.1-5.96,0-7.04-.12-1.29-.03-3.88,.16-9.07,.24-6.73,.36-10.1,1.09-13.29,1.9-8.25,6.73-13.81,8.76-16.11,4.15-4.68,8.88-7.81,11.26-9.38,4.3-2.84,7.45-4.19,10.79-8.13,1.78-2.1,2.8-3.31,3.75-5.32,1.27-2.69,1.15-4.14,2.81-5.79,.47-.46,2.25-2.21,4.38-1.88,1.72,.27,2.74,1.76,3.5,2.9,1.78,2.67,2.02,5.43,2.11,6.64,.51,6.84,.87,11.61-1.07,18.29-1.4,4.79-2.22,4.51-3.6,9.54-1.37,5-1.57,8.94-1.72,12.51-.64,14.98-.94,22.47-.94,24.86,.01,6.44,.03,14.26,.7,24.63,.58,8.88,1.46,21.71,4.69,38,2.61,13.11,4.94,20.63,9.07,33.46,3.29,10.23,5.71,15.07,10.48,19.86,4.55,4.57,9.58,6.9,12.98,8.13-1.88,10.17-3.76,20.34-5.64,30.51l-38.37,13.12Z" fill="#b2b2b2" />
    </g>
    <g>
        <path d="M138.63,192.16c.83-1.64,2.5-2.69,4.32-2.72,2.79-.05,4.26,2.3,4.32,2.4" fill="none" stroke="#b2b2b2" stroke-linecap="round" stroke-linejoin="round" />
        <path d="M192.97,15.79c0,2.39-.16,6.02-.92,10.34-1.19,6.79-2.91,9.76-4.18,15.21-.85,3.69-1.64,9.1-.99,16.09" fill="none" stroke="#9d9d9c" stroke-linecap="round" stroke-linejoin="round" />
        <path d="M240,98.63c.12,2.55,1.71,4.82,3.62,6.51s4.17,2.93,6.22,4.45c6.27,4.63,10.39,11.6,13.6,18.7,5.76,12.74,9.16,26.54,9.97,40.5" fill="none" stroke="#706f6f" stroke-linecap="round" stroke-linejoin="round" />
        <path d="M273.02,182.65c-1.28,7.81-6.05,14.7-11.93,19.99s-12.86,9.18-19.77,13.03" fill="none" stroke="#878787" stroke-linecap="round" stroke-linejoin="round" />
        <path d="M224.52,267.12c8.55,14.2,12.17,31.3,10.11,47.74" fill="none" stroke="#878787" stroke-linecap="round" stroke-linejoin="round" />
        <path d="M227.9,354.16c2.85-7.36,5.08-14.97,6.66-22.7" fill="none" stroke="#878787" stroke-linecap="round" stroke-linejoin="round" />
        <path d="M190.41,117.38c-3.1-16.12-4.05-32.65-2.81-49.02" fill="none" stroke="#9d9d9c" stroke-linecap="round" stroke-linejoin="round" />
        <path d="M205.86,178.7c-7.53-13.97-11.98-29.59-12.92-45.44" fill="none" stroke="#9d9d9c" stroke-linecap="round" stroke-linejoin="round" />
        <path d="M92.57,15.79c0,2.39,.16,6.02,.92,10.34,1.19,6.79,2.91,9.76,4.18,15.21,.85,3.69,1.64,9.1,.99,16.09" fill="none" stroke="#9d9d9c" stroke-linecap="round" stroke-linejoin="round" />
        <path d="M45.54,98.63c-.12,2.55-1.71,4.82-3.62,6.51s-4.17,2.93-6.22,4.45c-6.27,4.63-10.39,11.6-13.6,18.7-5.76,12.74-9.16,26.54-9.97,40.5" fill="none" stroke="#706f6f" stroke-linecap="round" stroke-linejoin="round" />
        <path d="M12.53,182.65c1.28,7.81,6.05,14.7,11.93,19.99,5.88,5.29,12.86,9.18,19.77,13.03" fill="none" stroke="#878787" stroke-linecap="round" stroke-linejoin="round" />
        <path d="M61.03,267.12c-8.55,14.2-12.17,31.3-10.11,47.74" fill="none" stroke="#878787" stroke-linecap="round" stroke-linejoin="round" />
        <path d="M57.65,354.16c-2.85-7.36-5.08-14.97-6.66-22.7" fill="none" stroke="#878787" stroke-linecap="round" stroke-linejoin="round" />
        <path d="M95.13,117.38c3.1-16.12,4.05-32.65,2.81-49.02" fill="none" stroke="#9d9d9c" stroke-linecap="round" stroke-linejoin="round" />
        <path d="M79.68,178.7c7.53-13.97,11.98-29.59,12.92-45.44" fill="none" stroke="#9d9d9c" stroke-linecap="round" stroke-linejoin="round" />
        <path d="M135.41,285.15c1.46-1.37,2.87-2.09,3.79-2.48,1.04-.44,2.09-.87,3.5-.82,1.45,.05,2.51,.59,3.54,1.12,1.29,.66,2.24,1.42,2.85,1.99" fill="none" stroke="#c6c6c6" stroke-linecap="round" stroke-linejoin="round" />
        <path d="M127.4,94.1c.45-1.27,.88-2.78,1.19-4.5,.43-2.39,.49-4.52,.42-6.23" fill="none" stroke="#9d9d9c" stroke-linecap="round" stroke-linejoin="round" />
        <path d="M135.87,91.97c.29-2.35,.39-4.73,.3-7.09" fill="none" stroke="#b2b2b2" stroke-linecap="round" stroke-linejoin="round" />
        <path d="M149.74,91.75c-.29-2.35-.39-4.73-.3-7.09" fill="none" stroke="#b2b2b2" stroke-linecap="round" stroke-linejoin="round" />
        <path d="M156.13,82.95c-.04,1.38,0,2.97,.21,4.72,.28,2.26,.77,4.21,1.29,5.79" fill="none" stroke="#9d9d9c" stroke-linecap="round" stroke-linejoin="round" />
    </g>
</svg>