<svg version="1.1" xmlns="http://www.w3.org/2000/svg" xmlns:xlink="http://www.w3.org/1999/xlink" x="0px" y="0px" viewBox="0 0 598.8 766.9" enable-background="new 0 0 598.8 766.9" xml:space="preserve">
  <metadata xmlns:med="http://www.medreporter.org/reference/figure">
    <med:Figure lngs="de,en">
      <med:Title>
        <med:Trans lng="de">Knochen des Fuß</med:Trans>
        <med:Trans lng="en">Bones of the foot</med:Trans>
      </med:Title>
      <med:Option id="rightTalus">
        <med:Trans lng="de">Talus rechts</med:Trans>
        <med:Trans lng="en">Right talus</med:Trans>
      </med:Option>
      <med:Option id="rightCalcaneus">
        <med:Trans lng="de">Calcaneus rechts</med:Trans>
        <med:Trans lng="en">Right calcaneus</med:Trans>
      </med:Option>
      <med:Option id="rightNavicular">
        <med:Trans lng="de">Os naviculare rechts</med:Trans>
        <med:Trans lng="en">Right navicular</med:Trans>
      </med:Option>
      <med:Option id="rightCuboid">
        <med:Trans lng="de">Os cuboideum rechts</med:Trans>
        <med:Trans lng="en">Right cuboid</med:Trans>
      </med:Option>
      <med:Option id="rightLateralCuneiform">
        <med:Trans lng="de">Os cuneiforme laterale rechts</med:Trans>
        <med:Trans lng="en">Right lateral cuneiform</med:Trans>
      </med:Option>
      <med:Option id="rightIntermediateCuneiform">
        <med:Trans lng="de">Os cuneiforme intermedium rechts</med:Trans>
        <med:Trans lng="en">Right intermediate cuneiform</med:Trans>
      </med:Option>
      <med:Option id="rightMedialCuneiform">
        <med:Trans lng="de">Os cuneiforme mediale rechts</med:Trans>
        <med:Trans lng="en">Right medial cuneiform</med:Trans>
      </med:Option>
      <med:Option id="rightSesamoid">
        <med:Trans lng="de">Os sesamoideum rechts</med:Trans>
        <med:Trans lng="en">Right sesamoid</med:Trans>
      </med:Option>
      <med:Option id="rightMetatarsal1">
        <med:Trans lng="de">Os metatarsale I rechts</med:Trans>
        <med:Trans lng="en">Right metatarsal 1</med:Trans>
      </med:Option>
      <med:Option id="rightMetatarsal2">
        <med:Trans lng="de">Os metatarsale II rechts</med:Trans>
        <med:Trans lng="en">Right metatarsal 2</med:Trans>
      </med:Option>
      <med:Option id="rightMetatarsal3">
        <med:Trans lng="de">Os metatarsale III rechts</med:Trans>
        <med:Trans lng="en">Right metatarsal 3</med:Trans>
      </med:Option>
      <med:Option id="rightMetatarsal4">
        <med:Trans lng="de">Os metatarsale IV rechts</med:Trans>
        <med:Trans lng="en">Right metatarsal 4</med:Trans>
      </med:Option>
      <med:Option id="rightMetatarsal5">
        <med:Trans lng="de">Os metatarsale V rechts</med:Trans>
        <med:Trans lng="en">Right metatarsal 5</med:Trans>
      </med:Option>
      <med:Option id="rightProximalPhalanx1">
        <med:Trans lng="de">Phalanx proximalis I rechts</med:Trans>
        <med:Trans lng="en">Right proximal phalanx 1</med:Trans>
      </med:Option>
      <med:Option id="rightProximalPhalanx2">
        <med:Trans lng="de">Phalanx proximalis II rechts</med:Trans>
        <med:Trans lng="en">Right proximal phalanx 2</med:Trans>
      </med:Option>
      <med:Option id="rightProximalPhalanx3">
        <med:Trans lng="de">Phalanx proximalis III rechts</med:Trans>
        <med:Trans lng="en">Right proximal phalanx 3</med:Trans>
      </med:Option>
      <med:Option id="rightProximalPhalanx4">
        <med:Trans lng="de">Phalanx proximalis IV rechts</med:Trans>
        <med:Trans lng="en">Right proximal phalanx 4</med:Trans>
      </med:Option>
      <med:Option id="rightProximalPhalanx5">
        <med:Trans lng="de">Phalanx proximalis V rechts</med:Trans>
        <med:Trans lng="en">Right proximal phalanx 5</med:Trans>
      </med:Option>
      <med:Option id="rightMiddlePhalanx2">
        <med:Trans lng="de">Phalanx media II rechts</med:Trans>
        <med:Trans lng="en">Right middle phalanx 2</med:Trans>
      </med:Option>
      <med:Option id="rightMiddlePhalanx3">
        <med:Trans lng="de">Phalanx media III rechts</med:Trans>
        <med:Trans lng="en">Right middle phalanx 3</med:Trans>
      </med:Option>
      <med:Option id="rightMiddlePhalanx4">
        <med:Trans lng="de">Phalanx media IV rechts</med:Trans>
        <med:Trans lng="en">Right middle phalanx 4</med:Trans>
      </med:Option>
      <med:Option id="rightMiddlePhalanx5">
        <med:Trans lng="de">Phalanx media V rechts</med:Trans>
        <med:Trans lng="en">Right middle phalanx 5</med:Trans>
      </med:Option>
      <med:Option id="rightDistalPhalanx1">
        <med:Trans lng="de">Phalanx distalis I rechts</med:Trans>
        <med:Trans lng="en">Right distal phalanx 1</med:Trans>
      </med:Option>
      <med:Option id="rightDistalPhalanx2">
        <med:Trans lng="de">Phalanx distalis II rechts</med:Trans>
        <med:Trans lng="en">Right distal phalanx 2</med:Trans>
      </med:Option>
      <med:Option id="rightDistalPhalanx3">
        <med:Trans lng="de">Phalanx distalis III rechts</med:Trans>
        <med:Trans lng="en">Right distal phalanx 3</med:Trans>
      </med:Option>
      <med:Option id="rightDistalPhalanx4">
        <med:Trans lng="de">Phalanx distalis IV rechts</med:Trans>
        <med:Trans lng="en">Right distal phalanx 4</med:Trans>
      </med:Option>
      <med:Option id="rightDistalPhalanx5">
        <med:Trans lng="de">Phalanx distalis V rechts</med:Trans>
        <med:Trans lng="en">Right distal phalanx 5</med:Trans>
      </med:Option>
      <med:Option id="leftTalus">
        <med:Trans lng="de">Talus links</med:Trans>
        <med:Trans lng="en">Left talus</med:Trans>
      </med:Option>
      <med:Option id="leftCalcaneus">
        <med:Trans lng="de">Calcaneus links</med:Trans>
        <med:Trans lng="en">Left calcaneus</med:Trans>
      </med:Option>
      <med:Option id="leftNavicular">
        <med:Trans lng="de">Os naviculare links</med:Trans>
        <med:Trans lng="en">Left navicular</med:Trans>
      </med:Option>
      <med:Option id="leftCuboid">
        <med:Trans lng="de">Os cuboideum links</med:Trans>
        <med:Trans lng="en">Left cuboid</med:Trans>
      </med:Option>
      <med:Option id="leftLateralCuneiform">
        <med:Trans lng="de">Os cuneiforme laterale links</med:Trans>
        <med:Trans lng="en">Left lateral cuneiform</med:Trans>
      </med:Option>
      <med:Option id="leftIntermediateCuneiform">
        <med:Trans lng="de">Os cuneiforme intermedium links</med:Trans>
        <med:Trans lng="en">Left intermediate cuneiform</med:Trans>
      </med:Option>
      <med:Option id="leftMedialCuneiform">
        <med:Trans lng="de">Os cuneiforme mediale links</med:Trans>
        <med:Trans lng="en">Left medial cuneiform</med:Trans>
      </med:Option>
      <med:Option id="leftSesamoid">
        <med:Trans lng="de">Os sesamoideum links</med:Trans>
        <med:Trans lng="en">Left sesamoid</med:Trans>
      </med:Option>
      <med:Option id="leftMetatarsal1">
        <med:Trans lng="de">Os metatarsale I links</med:Trans>
        <med:Trans lng="en">Left metatarsal 1</med:Trans>
      </med:Option>
      <med:Option id="leftMetatarsal2">
        <med:Trans lng="de">Os metatarsale II links</med:Trans>
        <med:Trans lng="en">Left metatarsal 2</med:Trans>
      </med:Option>
      <med:Option id="leftMetatarsal3">
        <med:Trans lng="de">Os metatarsale III links</med:Trans>
        <med:Trans lng="en">Left metatarsal 3</med:Trans>
      </med:Option>
      <med:Option id="leftMetatarsal4">
        <med:Trans lng="de">Os metatarsale IV links</med:Trans>
        <med:Trans lng="en">Left metatarsal 4</med:Trans>
      </med:Option>
      <med:Option id="leftMetatarsal5">
        <med:Trans lng="de">Os metatarsale V links</med:Trans>
        <med:Trans lng="en">Left metatarsal 5</med:Trans>
      </med:Option>
      <med:Option id="leftProximalPhalanx1">
        <med:Trans lng="de">Phalanx proximalis I links</med:Trans>
        <med:Trans lng="en">Left proximal phalanx 1</med:Trans>
      </med:Option>
      <med:Option id="leftProximalPhalanx2">
        <med:Trans lng="de">Phalanx proximalis II links</med:Trans>
        <med:Trans lng="en">Left proximal phalanx 2</med:Trans>
      </med:Option>
      <med:Option id="leftProximalPhalanx3">
        <med:Trans lng="de">Phalanx proximalis III links</med:Trans>
        <med:Trans lng="en">Left proximal phalanx 3</med:Trans>
      </med:Option>
      <med:Option id="leftProximalPhalanx4">
        <med:Trans lng="de">Phalanx proximalis IV links</med:Trans>
        <med:Trans lng="en">Left proximal phalanx 4</med:Trans>
      </med:Option>
      <med:Option id="leftProximalPhalanx5">
        <med:Trans lng="de">Phalanx proximalis V links</med:Trans>
        <med:Trans lng="en">Left proximal phalanx 5</med:Trans>
      </med:Option>
      <med:Option id="leftMiddlePhalanx2">
        <med:Trans lng="de">Phalanx media II links</med:Trans>
        <med:Trans lng="en">Left middle phalanx 2</med:Trans>
      </med:Option>
      <med:Option id="leftMiddlePhalanx3">
        <med:Trans lng="de">Phalanx media III links</med:Trans>
        <med:Trans lng="en">Left middle phalanx 3</med:Trans>
      </med:Option>
      <med:Option id="leftMiddlePhalanx4">
        <med:Trans lng="de">Phalanx media IV links</med:Trans>
        <med:Trans lng="en">Left middle phalanx 4</med:Trans>
      </med:Option>
      <med:Option id="leftMiddlePhalanx5">
        <med:Trans lng="de">Phalanx media V links</med:Trans>
        <med:Trans lng="en">Left middle phalanx 5</med:Trans>
      </med:Option>
      <med:Option id="leftDistalPhalanx1">
        <med:Trans lng="de">Phalanx distalis I links</med:Trans>
        <med:Trans lng="en">Left distal phalanx 1</med:Trans>
      </med:Option>
      <med:Option id="leftDistalPhalanx2">
        <med:Trans lng="de">Phalanx distalis II links</med:Trans>
        <med:Trans lng="en">Left distal phalanx 2</med:Trans>
      </med:Option>
      <med:Option id="leftDistalPhalanx3">
        <med:Trans lng="de">Phalanx distalis III links</med:Trans>
        <med:Trans lng="en">Left distal phalanx 3</med:Trans>
      </med:Option>
      <med:Option id="leftDistalPhalanx4">
        <med:Trans lng="de">Phalanx distalis IV links</med:Trans>
        <med:Trans lng="en">Left distal phalanx 4</med:Trans>
      </med:Option>
      <med:Option id="leftDistalPhalanx5">
        <med:Trans lng="de">Phalanx distalis V links</med:Trans>
        <med:Trans lng="en">Left distal phalanx 5</med:Trans>
      </med:Option>
    </med:Figure>
  </metadata>
  <g>
    <path id="rightTalus" fill="#878787" d="M364,510.5c3.4-4.6,7.6-8.9,13.4-13.3c6.5-4.9,12.9-9.8,22.4-12.1   c8.9-2.2,15.9-1.1,25.6,0.4c8.3,1.3,19,3.1,30.1,10.6c4.4,3,9,4.6,10.4,8.8c0.8,2.5,0.1,3.7-0.5,10.1c-0.4,4.2-0.9,9.4-0.2,14.4   c0.3,1.9,1.2,8.5,5.6,14.6c4,5.6,6.5,4.5,14.5,11.4c6,5.1,11.6,9.9,13.6,17.4c1.4,5.3-0.4,6.3,1.4,12.4c1.9,6.2,4.2,6.5,6.8,12.9   c1.3,3.1,4.3,10.5,2.1,17.2c-1.7,5.2-5.7,7-11.5,11.3c-3.6,2.7-10.1,9.8-23,24c-16.7,18.3-20,22.1-20,22.1   c-8.5,9.8-11.1,13.3-16.4,14.1c-6.4,1-12.3-2.7-18.5-6.7c-7-4.4-6.7-6.4-14.5-11.4c-4.2-2.7-5.4-2.8-14.5-7.4   c-11.1-5.5-16.6-8.3-18.3-9.9c-10.8-10.3-9.8-27.4-9.6-30.1c0.2-4.1,1.3-8,3.6-15.9c4.2-14.8,6.4-15.4,7.9-23.8   c1.6-9.3,0.3-16.7-1.1-24.6c-2-11-2.9-16.6-7.5-22c-4-4.8-7.3-5.2-8.2-9.4C356.5,520.6,359.9,516,364,510.5z" />
    <path id="rightCalcaneus" fill="#878787" d="M394.8,665.6c-2,3.8-4.2,9.2-5.4,15.9c-0.5,3-0.5,4.3-0.5,18.7   c0,14.2-0.1,15.1,0.6,17.4c1.6,5,3.2,5.1,9.2,14.9c5.7,9.4,4.8,10.3,7.8,14c2.5,3.2,5.6,5.5,21.4,11.6c16.9,6.6,25.5,9.9,32.1,8.6   c1.7-0.3,10.2-2.2,16.3-9.4c5.2-6.1,5.7-12.4,7.3-21.4c1.5-8.3,4.3-17.5,10-35.9c5.9-19.2,8.9-28.9,13.7-36.7   c5.2-8.5,9.2-12,10.1-20c0.9-8.5-2.8-12-0.1-19.1c2.5-6.7,6.4-5.7,10.2-13.5c0.9-1.9,4.6-9.6,2.7-18.2c-1.5-6.6-5-8-4.3-13   c0.6-4.2,3.2-4.4,5.9-10c2.6-5.3,2.5-10.5,2.6-17.1c0-6.3-0.8-6-0.3-10.5c0.7-6.4,2.7-9.8,1-11.5c-1.1-1-2.6-0.3-6.1-0.2   c-3.1,0.1-5.7-0.5-10.7-1.7c-6.8-1.6-6.8-2.5-14-4.5c-7.2-1.9-7-1-12-2.7c-5.9-2-7.1-3.6-12.9-5.6c-4.5-1.6-8.4-2.2-10.9-2.5   c-0.6,2.3-1.4,5.8-1.3,10.1c0,2.4,0.2,12.7,7.1,20.8c0.8,1,0.3,0.2,12,9.3c6.7,5.2,8.7,6.8,10.8,9.9c2.9,4.2,4.1,8.2,4.5,9.8   c1.5,5.8-0.2,6.4,1.1,11.1c1.6,5.9,4.6,5.9,7.7,13.6c1,2.3,2.1,5.3,2.3,9.2c0.1,2.1,0.5,8.4-3.3,13.6c-2.4,3.3-4,2.9-9.9,7.8   c-0.7,0.6-2.5,2.1-8,7.9c-5.4,5.7-7.7,8.5-13.6,15c-8.3,9.2-7.8,8.4-12.8,14c-4,4.6-8.1,9.1-12,13.8c-5.3,6.3-7,8.7-10.9,10   c-3.9,1.2-7.5,0.4-10.5-0.3c-5.4-1.3-9-3.8-13.3-6.8c-5.9-4.1-6.5-5.9-12-9.8C401.7,668.9,397.6,666.8,394.8,665.6z" />
    <path id="rightNavicular" fill="#878787" d="M361,439.6c-3.8,3.5-6.3,7.5-11.5,15.6c-4.3,6.7-6.5,10.2-7.4,14.5   c-0.5,2.2-1.8,8.5,0.8,15.6c0.6,1.6,3.8,10.5,12.8,14.5c1.9,0.8,3.6,1.6,6,1.6c7.5,0.1,9.8-7.1,21.5-14.4c2.6-1.6,7.1-4.4,13.5-6   c6.1-1.6,10.9-1.4,17.8-1c6.2,0.4,14,0.8,23.8,3.9c12.2,3.8,20.2,9.4,21.8,10.6c3.9,2.8,7,5.5,9.1,7.6c0.9-1.8,2.4-4.7,4-8.3   c2.8-6.5,2.5-7.3,4.6-11.1c2.9-5.5,4.5-5.7,5.5-9.6c0.3-1.3,1.2-4.7,0-8.3c-1.5-4.6-4.8-4.4-9.6-10.2c-4.6-5.5-3.3-7.7-7.4-10.8   c-2-1.5-2.9-1.4-10.1-3.8c-4-1.3-7.9-2.9-11.9-4.3c-13.8-5-14.5-5.3-15.7-6.1c-2.5-1.5-4.3-3-7.9-4.3c-1.4-0.5-3.9-1.3-7.1-1.3   c-3.4,0-5.1,0.9-8.5,1.8c-4.1,1.1-4.9,0.6-12.8,1.4c-7,0.7-10.5,1.1-13.9,2C369.5,431.8,363.6,437.2,361,439.6z" />
    <path id="rightCuboid" fill="#878787" d="M469.2,510.1c-0.6-1.2,0.6-2.5,4.5-10.4c0.4-0.7,0.9-1.8,1.5-3.3c0.9-2.4,1.1-3.8,3.6-9.2   c1.8-4.1,3.3-7.4,6-11.4c1.3-2,3.4-4.9,6.8-8.1c3.3-3,4.3-2.9,7-5.2c4.3-3.6,3.6-5.4,9.1-13.3c5.6-8,8.1-8.7,8.3-13   c0.2-2.5-0.5-6-1-8.8c-0.5-2.6-1.1-4.5-0.8-7.3c0.2-2,0.7-3.6,1.1-4.6c2.4-0.4,6.1-0.8,10.5-0.2c2.8,0.4,11.2,1.7,18.4,8.5   c6.2,5.9,8.1,12.9,9.6,18.2c0.4,1.3,1,5,2.2,12.5c1.2,7.5,1.4,9.8,1,12.7c-0.4,3.5-0.8,6.6-3,9.5c-2.9,3.7-6,3.3-7.5,6.9   c-0.5,1.2-0.4,3.1-0.2,6.8c0.3,6.8,1,7.1,0.9,10.5c-0.1,1.7-0.4,6.1-3.1,10.2c-2.6,3.9-4.4,3.2-6,6.7c-1.6,3.7-0.4,6.3-2.5,8.1   c-0.3,0.2-1.1,0.8-4.4,1.1c-3,0.2-5.7,0-9.3-0.6c-5.2-0.9-9.1-2.2-9.9-2.5c-4.7-1.6-4.4-2.1-7.9-3c-4-1.1-4.7-0.6-9-1.7   c-2.6-0.7-4.4-1.4-7.5-2.7c-6.8-2.8-6.6-3.6-10.2-4.6C472.3,510.6,470,511.6,469.2,510.1z" />
    <path id="rightLateralCuneiform" fill="#878787" d="M467.4,439.8c0.9,0.9,2.1,2.2,3.4,4.1c2.5,3.6,2.2,5,3.9,7.8   c3.1,5.2,6,3.9,9.2,9.1c2.1,3.5,2,6,3.7,6.3c1.1,0.2,1.9-0.7,5.6-3.9c4.9-4.3,4.5-3.7,5.4-4.7c2.8-3.1,1.8-4,5.1-9.3   c1-1.6,2.6-3.7,5.7-7.8c3-4,3-3.7,3.3-4.3c2-4.4-1-6.9-1.1-13.6c0-4.8,1.5-8.7,3-12.6c0.8-2,1.1-2.4,4.2-9.3   c2.9-6.5,3.1-7.2,2.8-8.1c-0.9-3-4.5-2.6-12.8-6.9c-5.7-3-6.3-4.3-11.3-6.4c-3.7-1.5-7-2.2-9.2-2.6c-0.4,1.2-1.5,3.4-3.7,5.5   c-1.9,1.7-3.8,2.5-4.9,2.8c0.4,2.1,0.9,5.3,1,9.1c0.1,3.5,0,6.6-0.9,14.4c-1,9.2-1.6,13.8-2.1,15.3   C476.6,428.2,474,433.9,467.4,439.8z" />
    <path id="rightIntermediateCuneiform" fill="#878787" d="M440,371.8c-2.1,1-2.8,2.9-4.3,5.9c0,0-2.8,4.6-8.1,13.9   c-4.9,8.6-5.8,7.4-7.9,12.5c-0.7,1.8-4.9,12.6-0.5,16.9c0.6,0.6,0.6,0.3,4.5,2.2c4.2,2.1,5.1,2.8,9,4.8c2.5,1.2,4.2,2,6.9,3.1   c4.1,1.7,7.1,3,10.8,4.2c7.5,2.4,11.2,3.6,14.6,2c2.7-1.2,4-3.5,6-6.7c1-1.6,2.8-4.9,4.3-11.5c0.5-2.2,0.5-3,1.5-17.5   c0.4-6,0.6-9.5-0.6-14.1c-0.9-3.6-2-5.2-2.7-6c-1.1-1.3-2.7-2.6-9-4.8c-5-1.7-5.6-1.5-15.2-3.9C443.9,371.3,442.1,370.7,440,371.8z   " />
    <path id="rightMedialCuneiform" fill="#878787" d="M371.3,358.3c0.9-1.3,1.9-2.1,11-5.5c10.1-3.8,10.9-3.5,16-5.8   c6-2.7,6.3-3.6,12.1-5.8c6.3-2.4,9.5-3.5,12.5-2.2c5,2.3,6.4,9.9,6.7,11.3c0.5,2.7,0,3.2,0.7,7.4c0.4,2.5,0.8,4.9,2.2,7.8   c1.3,2.7,2.2,3.1,2.5,4.9c0.4,2.4-0.8,4.4-2.4,7.2c-5.3,8.8-7.6,12.1-7.6,12.1c-4.1,5.1-5.5,8.1-6.2,9.6c-2.2,4.3-3.9,7.7-4.5,12.4   c-0.5,4.3,0.3,6.1-1.4,8.2c-0.4,0.5-1.6,1.8-7,2.8c-5,0.9-7.3,0.4-13.4,0.6c-3.8,0.1-6.2,0.2-9.5,1c-6.3,1.5-11.6,4.7-12.7,5.4   c-4,2.4-5.5,4.1-6.4,3.5c-1.2-0.8,0-4.4,0.9-9c0.6-3.5,0.3-3.7,0.6-15.9c0.3-13,0.4-19.5,1.4-23.7c1.5-6.3,2.6-7,3.3-12.7   C370.6,364.4,369,361.6,371.3,358.3z" />
    <path id="rightMetatarsal1" fill="#9D9D9C" d="M369.4,353.8c2.1,0.8,4-0.5,8.5-2.7c9.4-4.5,8.5-2.3,19.8-7.3   c8.6-3.8,10.4-5.7,16.9-7c4-0.8,7.3-1.4,10.5,0.2c6.4,3.2,7,12.9,7,14.3c0.2-1.5,0.7-3.8,2-6.1c0.8-1.5,1.7-2.7,2.5-3.6   c-1.1-2.2-2.5-5.5-4.2-9.4c-3.9-9-6.4-16-9.4-24.6c-5.6-15.9-8.4-23.8-8.6-24.9c-3.4-13-4-23.5-4.9-38.7   c-0.6-9.9-0.9-15.1-0.5-22.8c0.3-6.3,1.4-17.8,3.5-31.5c1.4-9,2.3-13.7-0.1-19.5c-0.7-1.7-3.1-6.7-8.5-10.1   c-3.2-2-7.1-2.5-14.9-3.5c-9.6-1.2-15.8-0.8-18.4-0.5c-5.4,0.5-8,1.3-9.2,1.7c-2.5,0.9-6.3,2.2-9.5,5.7c-0.8,0.8-3.6,4-4.9,10   c-1.9,9.1,1.2,17,2.5,20.8c4,11.2,4.1,23.5,6.3,35.2c2.9,15.4,4.3,27.5,7,51.9c2.6,23.4,4,35.2,2.5,41.4c-0.2,0.8-1.8,7.6-1.1,16.5   C364.5,343.9,365.1,352.1,369.4,353.8z" />
    <path id="rightSesamoid" fill="#9D9D9C" d="M413.6,192.3c-0.8,4.6-1.1,8-1.6,11.8c-0.4,3.4-0.9,7.9-1.2,13.2c1.8-0.2,4.7-0.8,7.2-3   c4.2-3.6,4.3-9.3,4.4-14.7c0.1-3.9,0.1-7.9-2.6-11.9c-1.5-2.2-3.2-3.6-4.5-4.4C414.9,185.6,414.2,188.7,413.6,192.3z" />
    <path id="rightMetatarsal2" fill="#9D9D9C" d="M437.8,343.3c-1.2,2.5-2.1,3.4-3.1,6.6c-1.7,5.5-0.7,10.9-0.7,10.9   c0.6,2.9,1.2,6,3.7,7.5c1.5,0.9,2.6,0.4,5.5,0.5c3.3,0,3.1,0.7,11.2,2.3c6,1.2,7,1.1,10.5,2.3c1.8,0.6,3.7,1.3,5.9,2.6   c2,1.2,5.1,3.5,7.8,7.5c1.7-0.9,4.8-2.9,6.9-6.6c1.9-3.4,2-6.5,2.1-10c0.2-5.8-1.1-10.4-1.9-13.1c-2.3-7.1-5.5-10.9-8.1-15   c-4.1-6.5-5.6-12.7-8.6-25.1c-2.4-10-1.6-16.3-5-41.9c-2.6-19.8-3.1-35.9-3.1-47.6c0.1-16.4,0.1-24.6,2.9-32.6   c0.7-2.1,3-6.8,3.3-13.4c0.2-3.1-0.2-3.5-0.5-10.5c-0.4-9.6,0.3-10.1-0.7-12.3c-2.5-5.5-9.2-7.4-12.3-8.3c-1.3-0.4-7.4-2-14.8,0.1   c-3.4,1-9.3,2.7-12.2,7.9c-1.4,2.5-1.5,5.6-1.8,11.8c-0.1,4.1-0.3,7.9,0.7,12.3c1.2,5.5,3.2,7.8,5.1,12c2.3,4.9,3.1,9.4,4,20.2   c1.4,17.4,1.4,32.5,1.8,46c0.4,14.6,0.7,25,2,39.1c1,10.8,0.3,21.8,1.1,32.6C439.7,333.3,440.3,338.2,437.8,343.3z" />
    <path id="rightMetatarsal3" fill="#9D9D9C" d="M489.1,165.2c-2,0.4-4.9,1-7.5,3.3c-3.1,2.6-4,5.9-5.3,11.1   c-1.1,4.3-2.4,9.2-1.4,15.4c1,6.2,3.1,6,4.3,12.3c0.9,4.9,0.2,7.3-0.7,15.8c-0.1,1-0.3,6.3-0.8,16.9c-0.4,9.9-0.3,18.2-0.1,34.3   c0.2,18.8,0.5,20.7,0.6,34c0.1,11.9-0.1,21.5-0.3,27.8c1.8,2,4,4.8,6.1,8.5c2.7,4.8,3.9,9,4.3,10.4c1.5,5.4,1.5,9.7,1.5,11.2   c0,3.5-0.5,6.5-0.9,8.7c2.4,0.5,6.1,1.4,10.3,3.2c3.8,1.7,5.4,3,12.4,6.9c7.3,4,9.5,4.7,11,3.8c0.3-0.2,1.2-0.8,2-4.9   c0.8-3.6,1.2-6.8,0.8-9.7c-1.2-10.1-3-15.1-3-15.1c-4.3-11.9-8.4-16.9-11.6-24.1c-1.4-3.2-2.3-5.9-4.8-39.8   c-1.9-25.6-1.3-21.7-2.1-29.4c-0.1-0.7-1.8-16.5-3-35.3c-0.4-6.6-0.8-13.8,3.2-20.6c1.9-3.2,3.9-3.6,5.7-7.4c2-4.3,0.8-6,2-14.6   c1.2-8.3,2.6-9.4,1.5-12.5c-1.6-4.4-6-6.5-9.4-8C501.6,166.1,496,163.7,489.1,165.2z" />
    <path id="rightMetatarsal4" fill="#9D9D9C" d="M527,386c-0.7,3-1.9,6.2-2.8,8.8c-0.4,1.1-1,2.8-3.3,8.2c-1,2.5-2.5,5.8-4.2,9.7   c2-0.2,4.6-0.3,7.7,0c2.3,0.2,8.3,0.9,14.1,4.1c8.2,4.6,10.1,11.4,12.8,10.5c1.3-0.4,1.3-2.1,2.9-8c2.3-8.5,3.1-8.3,3.5-11.6   c0.3-2.2,0.3-5.5-4-15.9c-4.2-10.2-5.7-10.7-7.9-16.6c-2.7-7.2-3-12.9-3.4-23.4c-0.5-13,0.5-22.8,0.8-25.9   c2-21.7-0.7-41.1-1.5-49.2c-0.7-7.5-2-18.6-0.5-30.9c1-8,1.6-13,5.5-17.2c1.7-1.8,3.9-3.4,4.9-6.8c1.2-3.9,0.2-7.9,0-8.7   c-0.8-2.9-1.8-3.5-2.3-6.7c-0.5-3,0.2-3.3-0.3-5.1c-1.1-3.8-5.2-5.8-9.1-7.6c-2.8-1.3-5.1-2.4-8.4-2.5c-4.7-0.1-8.1,1.8-9.2,2.4   c-4.7,2.7-6.8,6.7-8,9c-0.6,1.1-3.2,6.3-3,13.4c0,2,0.3,3.5,2.3,11c1.9,7.1,3.4,12.4,3.6,12.9c2.2,7.6,1.3,12,1.3,26.8   c-0.1,19.5,1.3,17.1,0.8,32.2c-0.4,10.3-1.3,20.1-1.9,25.8c-0.6,5.7-1.1,10.5-1.6,13.9c2,3.5,4.6,8.4,7,14.7   c1.8,4.5,3.2,8.3,4.2,13.7C527.6,371.5,528.9,378.1,527,386z" />
    <path id="rightMetatarsal5" fill="#9D9D9C" d="M555.5,421.7c-0.8,2.9-1.2,4-1.7,5.1c-0.8,1.7-1.6,3.1-2.2,4   c0.9,1.7,2.1,4.4,3.1,7.7c0.5,1.5,0.9,3.2,2.4,11.8c0.9,5.3,1.4,8,1.6,10.4c0.7,7.2,0.1,10,0,10.8c-0.4,1.9-1.3,5.1-4.1,7.8   c-1.1,1.1-2.3,1.8-3.1,2.2c0.5,1.2,1.8,3.7,4.6,5.5c0.6,0.4,4.6,3.1,8.8,2.2c1.2-0.3,4.6-1.3,9-9.7c5.7-10.9,6.3-21.1,6.3-22.9   c0.1-2.9,0.1-7.7-2.8-21.4c-3.7-17.1-6-17.2-7.5-27.9c-0.6-3.9-0.3-12,0.3-28.1c0.3-8.6,0.6-16.3,1.3-26.8   c0.5-8.1,0.5-5.8,2.2-27.2c0.8-10.4,3-20.7,3.4-31.1c0.2-4.2,0.2-8.9,3.3-13.2c2.9-4,5.5-3.5,8.6-7.9c2.7-3.8,3.2-7.6,4.1-13.5   c0.8-5.8,1.3-9.3-0.1-13.7c-0.5-1.7-2.5-8.1-8.7-11.9c-2.5-1.6-4.8-2.2-6.5-2.6c-1.9-0.5-6.7-1.6-12.5,0.2   c-5.4,1.6-8.6,4.8-10.1,6.3c-0.9,0.9-4.8,5-6.6,11.5c-0.9,3.1-1.7,5.9-0.8,9.1c1,4,3.4,4.5,5.2,8.8c0.5,1.2,1.2,3.4,1.1,10   c-0.1,5.7-0.8,9.5-2,16.6c-2,12.1-2,11.8-3,18.3c-0.5,3.4-1.1,6.8-1.6,10.2c-0.5,3.1-0.9,6.3-2.1,10.5c-0.4,1.3-0.7,2.4-1,3.2   c-0.5,5.6-0.5,10.3-0.5,13.9c0.1,5.1,0.2,10,1.4,16.3c0.6,3.2,1.1,5.8,2.4,9.1c1.7,4.4,2.8,5.4,6.2,12.5c1.6,3.3,2.3,5,3.2,7.5   c1.8,5,3,8.7,2.2,13c-0.3,1.9-0.6,1.4-2,6.3C556.7,417.1,556.5,418.2,555.5,421.7z" />
    <path id="rightProximalPhalanx1" fill="#B2B2B2" d="M343.5,158.6c-0.7-2.9-0.3-5.5,0.1-7c1.1-4.8,3.4-7.6,5.5-10.7   c2.9-4.5,4.2-8.1,6.5-14.8c1.3-3.8,3.3-10.2,4.3-18.4c1-8.4,1.6-12.6,0.2-16.8c-1.7-5.4-4.5-7.2-4-11.9c0.5-4.4,3.5-7.2,3.9-7.6   c1.3-1.2,3.3-2.5,7.7-3.3c5.3-0.9,8.3,0,15.4,1c1.9,0.3,7.3,0.8,18.1,1.8c7.3,0.7,10.3,0.9,12.7,3.5c2.4,2.5,2.7,5.9,2.8,7.1   c0.3,3.2-0.6,5.7-2.8,10.8c-4.1,9.7-4.4,9.3-5.4,12.3c-1.7,4.9-1.9,8.7-2.3,16.2c-0.5,8.2-0.7,12.3,0.5,16.6   c2.5,8.9,4.8,13.8,4.8,13.8c0.2,0.4,1.1,2.3,1.4,5c0.2,2.1,0.3,5.9-1.1,6.4c-0.9,0.3-1.9-1-3.6-2.5c-3.5-3-7.2-4.1-10.9-5.1   c-2.1-0.6-4.9-0.8-10.5-1.3c-3.2-0.3-5.5-0.4-10.1-0.5c-5-0.2-7.6-0.3-9-0.1c-3.6,0.5-6.1,1.7-9.7,3.3c-3.7,1.7-5.6,2.5-7.2,4.2   c-2,2.1-2.4,3.7-3.6,3.7C345.4,164.3,344,160.6,343.5,158.6z" />
    <path id="rightProximalPhalanx2" fill="#B2B2B2" d="M425.3,145.5c1.1-3.3,2.3-3.7,5.8-9.1c2.5-3.7,4.6-6.9,6-11.2   c0.6-1.8,0.9-3.9,1.6-8c0.9-5.4,1.6-9.8,1.9-15.9c0.4-6.6,0.5-9.9-0.1-13c-0.4-2-0.7-2.3-3.6-12.1c-1.3-4.2-1.8-6-0.9-8   c1.4-3.3,5.1-4.5,5.5-4.6c1.4-0.4,2.1-0.2,7,0.2c4.1,0.4,6.1,0.6,7.5,0.7c5.9,0.2,7.2-0.7,8.8,0.6c1.8,1.4,2.1,3.8,2.3,6.5   c0.5,4.9-0.6,8.6-1.1,10.4c-0.3,1,0.1-0.2-1.9,17.3c-1.3,11.4-1.7,14.3-1.9,20c-0.4,8,0.1,10.5,0.5,12.3c1.2,4.7,2.7,5.6,4.1,11   c1.5,5.9,1.6,11.6,0.8,11.8c-0.5,0.1-0.9-2-2.9-4.4c-2.7-3.4-6.3-4.8-8-5.4c-4-1.5-7.3-1.4-11.5-1.2c-3.3,0.1-6,0.2-9.3,1.5   c-1.9,0.7-5.2,2-8,5.1c-1.9,2.1-2.4,3.9-3,3.7C424.1,153.7,424,149.5,425.3,145.5z" />
    <path id="rightProximalPhalanx3" fill="#B2B2B2" d="M477.6,163c1.4-3.9,3-5.2,5.7-10c2.1-3.6,3.2-6.5,3.5-7.3   c2.1-5.5,2.7-10.1,3.3-14.7c0.5-4.1,0.6-7.1,0.6-9.1c0.1-4.9,0.2-7.4-0.5-10.5c-0.9-4.1-1.8-3.6-3.2-8.6c-1.1-3.9-2.3-8.1-0.5-12.3   c0.5-1.3,1.3-3.3,3.3-4.2c2.1-1,3.5,0.2,8.4,0.9c1.8,0.3,3.9,0.4,8.1,0.5c5.9,0.2,7.2-0.1,8.6,1.1c2.1,1.7,2.2,4.8,2.2,5.6   c0.1,2.7-1,4.4-2,6.7c-1,2.2-1.7,5.1-3.1,10.7c-1.4,5.7-1.7,10.1-2.2,17.1c-0.4,4.9-0.4,8.7-0.4,11.1c-0.1,7.4-0.1,11.1,0.3,12.8   c1.3,5.3,4.1,8.6,4.9,15.8c0.1,0.7,0.3,2.5-0.4,2.9c-1,0.4-2.6-2.7-6.4-5.4c-2.6-1.8-5-2.6-6.8-3.1c-2.1-0.7-5.4-1.6-9.6-1.2   c-2,0.2-7,0.7-10.8,4.3c-2.2,2-3,4.1-3.6,3.8C476,169.7,476.5,166.1,477.6,163z" />
    <path id="rightProximalPhalanx4" fill="#B2B2B2" d="M516.7,193.8c-1.4-0.8-0.3-5.4,1-8.8c2.2-5.5,4.5-6,7.9-11.8   c2.9-4.9,4-9.3,4.9-12.6c0.3-1.1,0.9-4.9,2-12.3c1.3-8.4,1.4-9.2,0.9-10.8c-1.2-4-3.6-4.6-4.8-9.4c-0.1-0.6-1.4-4.2,0.3-7.9   c0.2-0.4,1.8-3.6,5.2-4.9c1.3-0.5,2-0.4,8,0.2c6.1,0.7,7.2,0.8,9.3,1.3c3,0.8,4.5,1.3,5.4,2.5c0.7,0.9,1.8,2.9-0.4,10.8   c-1.5,5.3-2.5,6.5-3.8,10.3c-1.1,3.4-1.4,7.4-1.9,15.4c-0.5,8.1-0.8,12.1-0.4,17.1c0.4,5.2,1.1,7,1.5,14.2c0.6,10.1-0.5,11-1,11.1   c-1,0.3-1.7-2-5-4.6c-3-2.3-6-3.3-8.1-4c-2.5-0.8-4.1-1.3-6.4-1.3c-3.8,0-6.8,1.5-8.9,2.5C518.7,192.8,517.6,194.3,516.7,193.8z" />
    <path id="rightProximalPhalanx5" fill="#B2B2B2" d="M555.4,226.7c0.5-2,1.3-3.4,1.6-3.8c2.9-4.6,5.6-5.6,8.2-8.7   c2-2.5,2.9-5.7,4.5-12.2c0.9-3.6,1.2-6.2,1.9-11.2c0.6-4.8,0.9-7.3,0.5-9.3c-0.8-3.9-2.5-4.1-3.2-8.2c-0.4-1.9-1.2-6.2,1.1-8.6   c1.4-1.4,3.5-1.5,7.2-1.5c4.7-0.1,5.4,1.1,8.8,0.4c2.7-0.5,2.9-1.4,5.4-1.5c1-0.1,4.3-0.3,6.2,1.4c2.2,2.1,1.5,6,0.5,11.2   c-1.3,6.8-2.9,7.9-4,14.3c-0.1,0.6-0.3,3.5-0.6,9.1c-0.7,11.4-0.7,12.9-0.6,15.1c0.1,2.4,0.3,5.6,1.1,9.7c0.9,4.4,1.9,6.4,2,10.6   c0,0.3,0.1,6.5-1.3,6.7c-0.9,0.2-1.3-2.1-3.7-4.8c-2.3-2.7-5-4-7.7-5.4c-2.8-1.4-4.9-2.5-7.9-2.9c-6.1-0.8-11.5,1.9-13,2.6   c-3.5,1.8-5,3.6-6.2,2.9C554.3,231.8,555.3,227,555.4,226.7z" />
    <path id="rightMiddlePhalanx2" fill="#C6C6C6" d="M436,62.2c-0.7-0.7-0.2-2,1.6-7.6c1.6-5.2,1.6-5.6,1.6-6.2   c-0.2-3.2-2.2-3.6-4-8.1c-1-2.5-2.2-5.8-0.7-8.2c1.7-2.8,6.1-2.9,7.7-2.9c2.4-0.1,2.4,0.5,6.2,0.9c3.6,0.3,4.1-0.1,7.4,0.3   c3.3,0.4,5,0.6,6,1.8c1.3,1.5,0.9,3.9,0.2,8.5c-1,6-2.1,6.5-1.5,8.9c0.5,1.8,1.8,3.4,4.5,6.7c1.5,1.8,2.7,3,3.2,5.2   c0.3,1.2,0.5,3.2-0.3,3.6c-0.8,0.4-1.7-1.5-4.1-2.5c-1.9-0.8-2.9-0.3-7-0.2c-0.9,0-0.3,0-6.1-0.3c-5.4-0.3-8.1-0.4-9.4-0.3   C437.8,62,436.7,62.9,436,62.2z" />
    <path id="rightMiddlePhalanx3" fill="#C6C6C6" d="M490.1,47.8c-2,1.6-1.8,4.8-1.8,6c0.1,2.9,1.3,3.1,2.1,6.5c0.6,2.7,0.5,5,0.1,9.6   c-0.2,2.8-0.3,4.2-0.8,5.2c-1.2,2.6-3.1,3.1-3.8,5.8c-0.1,0.3-0.6,2.7,0.4,3.5c0.8,0.6,1.8-0.1,3.9-0.3c1.8-0.2,2.8,0.2,4.7,0.7   c2.5,0.6,4.5,0.8,8.5,1.1c7.5,0.7,9.2-0.3,11.8,1.5c0.8,0.6,1.6,1.4,2.2,1.1c1.2-0.5,0.8-3.9,0.7-4.7c-0.6-5.5-3.2-6.6-4.2-11.2   c-0.7-3-0.3-5.5,0.4-10.4c0.9-6.2,2.4-8.7,0.8-10.8c-1-1.3-2.6-1.7-4.9-2.2c-2.2-0.5-3-0.2-6.5-0.6c-2.6-0.2-2.3-0.5-5.3-0.8   C493.7,47,491.4,46.8,490.1,47.8z" />
    <path id="rightMiddlePhalanx4" fill="#C6C6C6" d="M529.9,83.2c-0.2,0.2-2.5,2.4-2.3,5.4c0.2,2.6,2.2,2.8,3.6,6.3   c0.9,2.2,0.9,4.2,1,7.5c0,3.3,0,5-0.9,6.6c-1,1.7-2.2,1.8-3,3.7c-0.7,1.8-0.6,3.9-0.1,4.1c0.4,0.1,0.8-0.8,1.9-1.7   c1.4-1.3,3-1.6,4.7-1.9c2.6-0.5,4.7-0.2,8.8,0.3c4,0.6,5.9,0.9,8.2,1.7c2.7,1,4.2,2,4.8,1.3c0.2-0.2,0.3-0.5-0.5-4.6   c-0.5-2.5-0.8-3.8-1-4.4c-0.5-1.7-0.7-2.2-0.8-3.5c-0.4-4.2,1.6-4.6,1.8-9.9c0.1-2.8,0.2-5.6-1.7-7.7c-0.6-0.7-1.3-1.2-7.9-3   c-4.5-1.2-6.7-1.8-8.9-1.9C534.8,81.3,532,81.3,529.9,83.2z" />
    <path id="rightMiddlePhalanx5" fill="#C6C6C6" d="M568.9,158.3c0.3-3.3,0.7-5,0.9-6.6c0.6-4.3-0.4-4.9,0.5-6.3   c1.3-1.8,3.8-2.1,6.3-2.3c2.7-0.3,3.1,0.2,7.5,0.5c5.3,0.3,6.2-0.4,8.2,0.7c0.5,0.2,3.1,1.7,3.8,4.3c0.4,1.8-0.4,2.4,0.1,5.2   c0.2,1.2,0.5,1.7,0.5,2.9c0,0.9,0,2.6-1,3.2c-0.9,0.6-1.7-0.4-3.8-0.5c-1.6-0.1-1.8,0.5-4.8,1.4c-1.6,0.4-2.9,0.8-4.6,0.9   c-2.7,0.1-2.7-0.8-5.4-0.6c-0.8,0-0.8,0.1-5.3,0.6c-1.4,0.2-2.2,0.2-2.7-0.2C568.7,160.8,568.8,159.7,568.9,158.3z" />
    <path id="rightDistalPhalanx1" fill="#DADADA" d="M355.2,72c0.3-1.7,1-6.6,5.2-10.2c3.7-3.2,5.7-1.5,9.9-4.2c5.2-3.3,7.3-9,8.7-13   c2.6-7.3,0.5-9,3.4-15.8c1.2-2.9,3-7.2,7.4-10.5c1.2-0.9,8.7-6.3,17.6-3.3c6.3,2.1,11.2,7.6,12.2,13.5c0.6,3.6-0.3,6.7-0.7,8.2   c-1.4,5-3.6,5.5-5.2,10.4c-0.6,1.8-2.1,6.3-0.8,11.1c0.6,2.2,2.3,4.7,5.8,9.9c2.6,3.8,3.8,5.2,3.5,7.3c-0.4,2.7-2.9,4.9-3.8,4.5   c-0.6-0.3-0.1-1.8-0.6-3.7c-0.9-3.3-4.3-5-6.2-5.9c-1.4-0.7-3.3-1.5-11-2.2c-7.2-0.7-7.4-0.2-12.5-0.9c-4.6-0.6-5.1-1.1-9.6-1.6   c-5.2-0.5-8-0.2-8.8-0.1c-3.1,0.4-5.3,0.7-7.6,2c-4.4,2.6-5.9,7.2-6.7,6.8C354.8,74.3,355,72.7,355.2,72z" />
    <path id="rightDistalPhalanx2" fill="#DADADA" d="M433.6,27.7c-0.5-0.9,1.3-2.3,2.9-4.4c1-1.3,3.5-4.6,3.6-8.3   c0.1-3.4-1.8-3.9-1.4-6.8c0.5-3.3,3.5-5.4,4.3-6c4.9-3.4,10.8-1.7,11.9-1.4c1.4,0.4,5.8,1.7,7.8,5.7c0.3,0.6,1.7,3.3,0.8,5.8   c-0.4,1.2-1,1.2-2.2,2.9c-1.2,1.5-3.9,5-3,7.7c0.4,1.2,1.1,1,2.6,3.5c0.7,1.2,1.4,2.4,1,3c-0.4,0.5-1.5,0.1-3.6-0.3   c-1.8-0.3-1.2,0-5.5-0.5c-3.5-0.4-3.7-0.5-6.4-0.7c-2.5-0.2-3.7-0.3-4.5-0.2c-2.5,0.3-3.8,1.2-6.4,0.9   C433.8,28.2,433.6,27.8,433.6,27.7z" />
    <path id="rightDistalPhalanx3" fill="#DADADA" d="M488.9,44.1c0.7-2.4,3.1-2.4,4.6-4.7c0.9-1.4,0.9-2.7,1-4.8   c0.1-3.9-1.4-4.5-1.1-7.7c0.1-0.8,0.3-3.5,2.3-5.9c0.5-0.5,2.2-2.6,5.3-3.1c3.5-0.6,6.2,1,6.9,1.5c0.5,0.4,4,2.7,4.3,6.3   c0.3,3-1.7,3.6-1.8,7.6c0,1,0,3.2,1.2,5.3c1.5,2.7,3.4,2.5,4.8,5.3c1,2,1.4,4.6,0.4,5.3c-0.8,0.5-1.9-0.8-4.7-1.7   c-1.9-0.6-2.2-0.3-6.4-0.7c-2.2-0.2-4.1-0.6-7-1.1c-4-0.7-4.9-1-6.4-0.5c-1.5,0.5-2.5,1.4-3.2,1C488.5,45.9,488.7,44.8,488.9,44.1z   " />
    <path id="rightDistalPhalanx4" fill="#DADADA" d="M526.7,78.5c0.1-0.9,0.2-2.1,0.8-3.4c1.1-2.2,2.3-2,2.8-3.5   c0.4-1.2-0.3-1.7-1-5.1c-0.5-2.4-0.8-3.6-0.5-5.1c0.5-2.7,2.5-4.3,2.9-4.6c2.9-2.3,7-2.2,9.8-0.9c4.5,1.9,6,6.6,6.2,7.4   c1.1,3.7-0.7,4.8,0.5,8.2c1,2.6,2.3,2.5,4.9,6.4c2,2.9,3.7,6.7,3,7.3c-0.4,0.3-1.4-0.7-3.8-2c-2.1-1.1-3.8-1.6-6.3-2.3   c-2.6-0.8-4.8-1.4-7.8-1.6c-2.9-0.2-4.7-0.3-6.7,0.7c-2.5,1.2-3.5,3.1-4.4,2.7C526.3,82.1,526.5,79.8,526.7,78.5z" />
    <path id="rightDistalPhalanx5" fill="#DADADA" d="M570.3,142.5c-0.8-0.6,0.1-4,1.8-6.7c1.6-2.5,3-2.8,3.3-4.8   c0.2-1.3-0.3-1.8-0.9-4c-0.7-2.5-1.5-5.6-0.4-8.2c1-2.2,3.4-4,6.2-4.3c3.3-0.4,6.3,1.4,7.6,3.7c1,1.9,0.9,4,0.5,8.4   c-0.2,3.1-0.7,3.5-0.2,4.8c0.8,2.4,2.5,2.3,4.6,5.3c1.8,2.5,2.8,5.7,2.1,6.3c-0.5,0.4-1.2-0.5-3.2-1.1c-2.9-1-3.8,0.2-8-0.2   c-3-0.3-3.2-0.9-5.7-0.9c-2.5,0.1-4.6,0.7-4.6,0.7C571.4,142.2,570.8,142.8,570.3,142.5z" />
    <path id="leftTalus" fill="#878787" d="M234.8,510.5c-3.4-4.6-7.6-8.9-13.4-13.3c-6.5-4.9-12.9-9.8-22.4-12.1   c-8.9-2.2-15.9-1.1-25.6,0.4c-8.3,1.3-19,3.1-30.1,10.6c-4.4,3-9,4.6-10.4,8.8c-0.8,2.5-0.1,3.7,0.5,10.1c0.4,4.2,0.9,9.4,0.2,14.4   c-0.3,1.9-1.2,8.5-5.6,14.6c-4,5.6-6.5,4.5-14.5,11.4c-6,5.1-11.6,9.9-13.6,17.4c-1.4,5.3,0.4,6.3-1.4,12.4   c-1.9,6.2-4.2,6.5-6.8,12.9c-1.3,3.1-4.3,10.5-2.1,17.2c1.7,5.2,5.7,7,11.4,11.3c3.6,2.7,10.1,9.8,23,24c16.7,18.3,20,22.1,20,22.1   c8.5,9.8,11.1,13.3,16.4,14.1c6.4,1,12.3-2.7,18.5-6.7c7-4.4,6.7-6.4,14.5-11.4c4.2-2.7,5.4-2.8,14.5-7.4   c11.1-5.5,16.6-8.3,18.3-9.9c10.7-10.3,9.8-27.4,9.6-30.1c-0.2-4.1-1.3-8-3.6-15.9c-4.2-14.8-6.4-15.4-7.9-23.8   c-1.6-9.3-0.3-16.7,1.1-24.6c1.9-11,2.9-16.6,7.5-22c4-4.8,7.3-5.2,8.2-9.4C242.3,520.6,238.9,516,234.8,510.5z" />
    <path id="leftCalcaneus" fill="#878787" d="M204,665.6c2,3.8,4.2,9.2,5.4,15.9c0.5,3,0.5,4.3,0.6,18.7c0,14.2,0.1,15.1-0.6,17.4   c-1.6,5-3.2,5.1-9.2,14.9c-5.7,9.4-4.8,10.3-7.8,14c-2.6,3.2-5.6,5.5-21.4,11.6c-16.9,6.6-25.5,9.9-32.1,8.6   c-1.7-0.3-10.2-2.2-16.3-9.4c-5.2-6.1-5.7-12.4-7.3-21.4c-1.5-8.3-4.3-17.5-10-35.9c-5.9-19.2-8.9-28.9-13.7-36.7   c-5.2-8.5-9.2-12-10.1-20c-0.9-8.5,2.8-12,0.1-19.1c-2.5-6.7-6.4-5.7-10.2-13.5c-0.9-1.9-4.6-9.6-2.7-18.2c1.5-6.6,5-8,4.3-13   c-0.6-4.2-3.2-4.4-5.9-10c-2.6-5.3-2.5-10.5-2.6-17.1c-0.1-6.3,0.8-6,0.3-10.5c-0.7-6.4-2.7-9.8-1-11.5c1.1-1,2.6-0.3,6.1-0.2   c3.1,0.1,5.7-0.5,10.7-1.7c6.8-1.6,6.8-2.5,14.1-4.5c7.2-1.9,7-1,12-2.7c5.9-2,7.1-3.6,12.9-5.6c4.5-1.6,8.4-2.2,10.9-2.5   c0.6,2.3,1.4,5.8,1.3,10.1c0,2.4-0.2,12.7-7.1,20.8c-0.8,1-0.3,0.2-12,9.3c-6.7,5.2-8.7,6.8-10.8,9.9c-2.9,4.2-4.1,8.2-4.5,9.8   c-1.5,5.8,0.2,6.4-1.1,11.1c-1.6,5.9-4.6,5.9-7.7,13.6c-1,2.3-2.1,5.3-2.3,9.2c-0.1,2.1-0.5,8.4,3.3,13.6c2.4,3.3,4,2.9,9.9,7.8   c0.7,0.6,2.5,2.1,8,7.9c5.4,5.7,7.7,8.5,13.6,15c8.3,9.2,7.8,8.4,12.8,14c4,4.6,8.1,9.1,12,13.8c5.3,6.3,7,8.7,10.9,10   c3.9,1.2,7.5,0.4,10.5-0.3c5.4-1.3,9.1-3.8,13.3-6.8c5.9-4.1,6.6-5.9,12-9.8C197.1,668.9,201.2,666.8,204,665.6z" />
    <path id="leftNavicular" fill="#878787" d="M237.8,439.6c3.8,3.5,6.3,7.5,11.5,15.6c4.3,6.7,6.5,10.2,7.4,14.5   c0.5,2.2,1.8,8.5-0.8,15.6c-0.6,1.6-3.8,10.5-12.8,14.5c-1.9,0.8-3.6,1.6-6,1.6c-7.5,0.1-9.8-7.1-21.5-14.4   c-2.6-1.6-7.1-4.4-13.5-6c-6.1-1.6-10.9-1.4-17.8-1c-6.2,0.4-14,0.8-23.8,3.9c-12.2,3.8-20.2,9.4-21.8,10.6c-3.9,2.8-7,5.5-9.1,7.6   c-0.9-1.8-2.4-4.7-4-8.3c-2.8-6.5-2.5-7.3-4.6-11.1c-2.9-5.5-4.5-5.7-5.5-9.6c-0.3-1.3-1.2-4.7,0-8.3c1.5-4.6,4.8-4.4,9.6-10.2   c4.6-5.5,3.3-7.7,7.4-10.8c2-1.5,2.9-1.4,10.1-3.8c4-1.3,7.9-2.9,11.9-4.3c13.8-5,14.5-5.3,15.7-6.1c2.5-1.5,4.3-3,7.9-4.3   c1.4-0.5,3.9-1.3,7.1-1.3c3.4,0,5.1,0.9,8.5,1.8c4.1,1.1,4.9,0.6,12.8,1.4c7,0.7,10.6,1.1,13.9,2   C229.3,431.8,235.2,437.2,237.8,439.6z" />
    <path id="leftCuboid" fill="#878787" d="M129.6,510.1c0.6-1.2-0.6-2.5-4.5-10.4c-0.4-0.7-0.9-1.8-1.5-3.3c-0.9-2.4-1.1-3.8-3.6-9.2   c-1.8-4.1-3.3-7.4-6.1-11.4c-1.4-2-3.4-4.9-6.8-8.1c-3.3-3-4.3-2.9-6.9-5.2c-4.3-3.6-3.6-5.4-9.1-13.3c-5.6-8-8.1-8.7-8.3-13   c-0.2-2.5,0.5-6,1-8.8c0.5-2.6,1.1-4.5,0.8-7.3c-0.2-2-0.7-3.6-1.1-4.6c-2.4-0.4-6.1-0.8-10.5-0.2c-2.8,0.4-11.3,1.7-18.4,8.5   c-6.2,5.9-8.1,12.9-9.6,18.2c-0.4,1.3-1,5-2.2,12.5c-1.2,7.5-1.4,9.8-1.1,12.7c0.4,3.5,0.8,6.6,3,9.5c2.9,3.7,5.9,3.3,7.5,6.9   c0.5,1.2,0.4,3.1,0.2,6.8c-0.3,6.8-1.1,7.1-0.9,10.5c0.1,1.7,0.4,6.1,3.1,10.2c2.6,3.9,4.4,3.2,6,6.7c1.6,3.7,0.4,6.3,2.5,8.1   c0.3,0.2,1.1,0.8,4.4,1.1c3,0.2,5.7,0,9.3-0.6c5.2-0.9,9.1-2.2,9.9-2.5c4.7-1.6,4.4-2.1,7.9-3c4-1.1,4.7-0.6,9-1.7   c2.6-0.7,4.4-1.4,7.5-2.7c6.8-2.8,6.6-3.6,10.2-4.6C126.5,510.6,128.8,511.6,129.6,510.1z" />
    <path id="leftLateralCuneiform" fill="#878787" d="M131.4,439.8c-0.9,0.9-2.1,2.2-3.4,4.1c-2.5,3.6-2.2,5-3.9,7.8   c-3.1,5.2-6,3.9-9.2,9.1c-2.1,3.5-2,6-3.7,6.3c-1.1,0.2-1.9-0.7-5.6-3.9c-4.9-4.3-4.5-3.7-5.4-4.7c-2.8-3.1-1.8-4-5.1-9.3   c-1-1.6-2.6-3.7-5.7-7.8c-3-4-3-3.7-3.3-4.3c-2-4.4,1-6.9,1.1-13.6c0-4.8-1.5-8.7-3-12.6c-0.8-2-1.1-2.4-4.2-9.3   c-2.9-6.5-3.1-7.2-2.8-8.1c0.9-3,4.6-2.6,12.8-6.9c5.7-3,6.3-4.3,11.4-6.4c3.7-1.5,7-2.2,9.2-2.6c0.4,1.2,1.5,3.4,3.7,5.5   c1.9,1.7,3.8,2.5,4.9,2.8c-0.4,2.1-0.9,5.3-1,9.1c-0.1,3.5,0,6.6,0.9,14.4c1,9.2,1.6,13.8,2.1,15.3   C122.2,428.2,124.8,433.9,131.4,439.8z" />
    <path id="leftIntermediateCuneiform" fill="#878787" d="M158.8,371.8c2.1,1,2.8,2.9,4.3,5.9c0,0,2.8,4.6,8.1,13.9   c4.9,8.6,5.8,7.4,7.9,12.5c0.7,1.8,4.9,12.6,0.5,16.9c-0.6,0.6-0.6,0.3-4.5,2.2c-4.2,2.1-5.1,2.8-9,4.8c-2.4,1.2-4.2,2-6.9,3.1   c-4.1,1.7-7.1,3-10.8,4.2c-7.5,2.4-11.2,3.6-14.6,2c-2.7-1.2-4-3.5-6-6.7c-1-1.6-2.8-4.9-4.3-11.5c-0.5-2.2-0.6-3-1.5-17.5   c-0.4-6-0.6-9.5,0.6-14.1c0.9-3.6,2-5.2,2.7-6c1.1-1.3,2.7-2.6,9-4.8c5-1.7,5.6-1.5,15.2-3.9C154.9,371.3,156.7,370.7,158.8,371.8z   " />
    <path id="leftMedialCuneiform" fill="#878787" d="M227.5,358.3c-0.9-1.3-1.9-2.1-10.9-5.5c-10.1-3.8-10.9-3.5-16-5.8   c-6.1-2.7-6.3-3.6-12.1-5.8c-6.3-2.4-9.5-3.5-12.5-2.2c-5,2.3-6.4,9.9-6.7,11.3c-0.5,2.7,0,3.2-0.7,7.4c-0.4,2.5-0.8,4.9-2.2,7.8   c-1.3,2.7-2.2,3.1-2.5,4.9c-0.4,2.4,0.8,4.4,2.4,7.2c5.3,8.8,7.6,12.1,7.6,12.1c4.1,5.1,5.5,8.1,6.2,9.6c2.2,4.3,3.9,7.7,4.5,12.4   c0.5,4.3-0.3,6.1,1.4,8.2c0.4,0.5,1.6,1.8,7,2.8c5,0.9,7.3,0.4,13.4,0.6c3.8,0.1,6.2,0.2,9.5,1c6.3,1.5,11.6,4.7,12.7,5.4   c4,2.4,5.5,4.1,6.4,3.5c1.2-0.8,0-4.4-0.9-9c-0.6-3.5-0.3-3.7-0.6-15.9c-0.3-13-0.4-19.5-1.4-23.7c-1.5-6.3-2.6-7-3.3-12.7   C228.2,364.4,229.8,361.6,227.5,358.3z" />
    <path id="leftMetatarsal1" fill="#9D9D9C" d="M229.4,353.8c-2.1,0.8-4-0.5-8.5-2.7c-9.4-4.5-8.6-2.3-19.8-7.3   c-8.6-3.8-10.4-5.7-16.9-7c-4-0.8-7.3-1.4-10.4,0.2c-6.4,3.2-7,12.9-7.1,14.3c-0.2-1.5-0.7-3.8-2-6.1c-0.8-1.5-1.7-2.7-2.5-3.6   c1.1-2.2,2.6-5.5,4.2-9.4c3.9-9,6.4-16,9.4-24.6c5.6-15.9,8.4-23.8,8.6-24.9c3.4-13,4-23.5,4.9-38.7c0.6-9.9,0.9-15.1,0.5-22.8   c-0.3-6.3-1.4-17.8-3.5-31.5c-1.4-9-2.3-13.7,0.1-19.5c0.7-1.7,3.1-6.7,8.5-10.1c3.2-2,7.1-2.5,14.9-3.5c9.6-1.2,15.8-0.8,18.4-0.5   c5.4,0.5,8,1.3,9.2,1.7c2.5,0.9,6.3,2.2,9.5,5.7c0.8,0.8,3.6,4,4.9,10c1.9,9.1-1.2,17-2.5,20.8c-4,11.2-4.1,23.5-6.3,35.2   c-2.9,15.4-4.3,27.5-7,51.9c-2.6,23.4-4,35.2-2.5,41.4c0.2,0.8,1.8,7.6,1.1,16.5C234.3,343.9,233.7,352.1,229.4,353.8z" />
    <path id="leftSesamoid" fill="#9D9D9C" d="M185.2,192.3c0.8,4.6,1.1,8,1.6,11.8c0.4,3.4,0.9,7.9,1.2,13.2c-1.8-0.2-4.7-0.8-7.2-3   c-4.2-3.6-4.3-9.3-4.4-14.7c-0.1-3.9-0.1-7.9,2.6-11.9c1.5-2.2,3.2-3.6,4.5-4.4C184,185.6,184.6,188.7,185.2,192.3z" />
    <path id="leftMetatarsal2" fill="#9D9D9C" d="M161,343.3c1.2,2.5,2.1,3.4,3.1,6.6c1.7,5.5,0.7,10.9,0.7,10.9   c-0.6,2.9-1.2,6-3.7,7.5c-1.5,0.9-2.6,0.4-5.5,0.5c-3.3,0-3.1,0.7-11.2,2.3c-6,1.2-7,1.1-10.4,2.3c-1.8,0.6-3.7,1.3-5.9,2.6   c-2,1.2-5.1,3.5-7.8,7.5c-1.7-0.9-4.8-2.9-6.9-6.6c-1.9-3.4-2-6.5-2.1-10c-0.2-5.8,1.1-10.4,1.9-13.1c2.3-7.1,5.5-10.9,8.1-15   c4.1-6.5,5.6-12.7,8.6-25.1c2.4-10,1.6-16.3,5-41.9c2.6-19.8,3.1-35.9,3.1-47.6c-0.1-16.4-0.1-24.6-2.9-32.6   c-0.7-2.1-3-6.8-3.3-13.4c-0.2-3.1,0.2-3.5,0.5-10.5c0.4-9.6-0.3-10.1,0.7-12.3c2.6-5.5,9.2-7.4,12.3-8.3c1.3-0.4,7.4-2,14.8,0.1   c3.4,1,9.3,2.7,12.2,7.9c1.4,2.5,1.5,5.6,1.8,11.8c0.1,4.1,0.3,7.9-0.7,12.3c-1.2,5.5-3.2,7.8-5.1,12c-2.3,4.9-3.1,9.4-4,20.2   c-1.4,17.4-1.4,32.5-1.8,46c-0.4,14.6-0.7,25-2,39.1c-1,10.8-0.3,21.8-1.1,32.6C159.1,333.3,158.5,338.2,161,343.3z" />
    <path id="leftMetatarsal3" fill="#9D9D9C" d="M109.7,165.2c2,0.4,4.9,1,7.5,3.3c3.1,2.6,4,5.9,5.3,11.1c1.1,4.3,2.4,9.2,1.4,15.4   c-1,6.2-3.1,6-4.3,12.3c-0.9,4.9-0.2,7.3,0.7,15.8c0.1,1,0.3,6.3,0.8,16.9c0.4,9.9,0.3,18.2,0.1,34.3c-0.2,18.8-0.6,20.7-0.6,34   c-0.1,11.9,0.1,21.5,0.3,27.8c-1.8,2-4.1,4.8-6.1,8.5c-2.7,4.8-3.9,9-4.3,10.4c-1.5,5.4-1.6,9.7-1.5,11.2c0,3.5,0.5,6.5,0.9,8.7   c-2.4,0.5-6.1,1.4-10.3,3.2c-3.8,1.7-5.4,3-12.4,6.9c-7.3,4-9.5,4.7-10.9,3.8c-0.3-0.2-1.2-0.8-2.1-4.9c-0.8-3.6-1.2-6.8-0.8-9.7   c1.2-10.1,3-15.1,3-15.1c4.3-11.9,8.4-16.9,11.6-24.1c1.4-3.2,2.3-5.9,4.8-39.8c1.9-25.6,1.3-21.7,2.1-29.4   c0.1-0.7,1.8-16.5,3.1-35.3c0.4-6.6,0.8-13.8-3.2-20.6c-1.9-3.2-3.9-3.6-5.7-7.4c-2-4.3-0.8-6-2-14.6c-1.2-8.3-2.6-9.4-1.4-12.5   c1.6-4.4,6-6.5,9.4-8C97.2,166.1,102.8,163.7,109.7,165.2z" />
    <path id="leftMetatarsal4" fill="#9D9D9C" d="M71.8,386c0.7,3,1.9,6.2,2.8,8.8c0.4,1.1,1,2.8,3.3,8.2c1,2.5,2.4,5.8,4.2,9.7   c-2-0.2-4.6-0.3-7.7,0c-2.3,0.2-8.3,0.9-14.1,4.1c-8.2,4.6-10.1,11.4-12.8,10.5c-1.3-0.4-1.3-2.1-2.9-8c-2.3-8.5-3.1-8.3-3.5-11.6   c-0.3-2.2-0.3-5.5,4-15.9c4.2-10.2,5.7-10.7,7.9-16.6c2.7-7.2,3-12.9,3.4-23.4c0.5-13-0.5-22.8-0.8-25.9c-2-21.7,0.7-41.1,1.5-49.2   c0.7-7.5,2-18.6,0.5-30.9c-1-8-1.6-13-5.5-17.2c-1.7-1.8-3.9-3.4-4.9-6.8c-1.2-3.9-0.2-7.9,0-8.7c0.8-2.9,1.8-3.5,2.3-6.7   c0.5-3-0.2-3.3,0.3-5.1c1.1-3.8,5.2-5.8,9.1-7.6c2.8-1.3,5.1-2.4,8.4-2.5c4.7-0.1,8.1,1.8,9.2,2.4c4.7,2.7,6.8,6.7,8,9   c0.6,1.1,3.2,6.3,3,13.4c-0.1,2-0.3,3.5-2.3,11c-1.9,7.1-3.4,12.4-3.6,12.9c-2.2,7.6-1.3,12-1.3,26.8c0.1,19.5-1.3,17.1-0.8,32.2   c0.4,10.3,1.3,20.1,1.9,25.8c0.6,5.7,1.1,10.5,1.6,13.9c-2,3.5-4.6,8.4-7,14.7c-1.8,4.5-3.2,8.3-4.2,13.7   C71.2,371.5,69.9,378.1,71.8,386z" />
    <path id="leftMetatarsal5" fill="#9D9D9C" d="M43.3,421.7c0.8,2.9,1.2,4,1.7,5.1c0.8,1.7,1.6,3.1,2.2,4c-0.9,1.7-2.1,4.4-3.1,7.7   c-0.5,1.5-0.9,3.2-2.4,11.8c-0.9,5.3-1.4,8-1.6,10.4c-0.7,7.2-0.1,10,0,10.8c0.4,1.9,1.3,5.1,4.1,7.8c1.1,1.1,2.3,1.8,3.1,2.2   c-0.5,1.2-1.8,3.7-4.6,5.5c-0.6,0.4-4.6,3.1-8.8,2.2c-1.2-0.3-4.6-1.3-9-9.7c-5.7-10.9-6.3-21.1-6.3-22.9   c-0.1-2.9-0.1-7.7,2.8-21.4c3.7-17.1,6-17.2,7.5-27.9c0.6-3.9,0.3-12-0.3-28.1c-0.3-8.6-0.6-16.3-1.3-26.8   c-0.5-8.1-0.5-5.8-2.2-27.2c-0.8-10.4-3-20.7-3.4-31.1c-0.2-4.2-0.2-8.9-3.3-13.2c-2.9-4-5.5-3.5-8.6-7.9   c-2.7-3.8-3.2-7.6-4.1-13.5c-0.8-5.8-1.3-9.3,0.1-13.7c0.5-1.7,2.5-8.1,8.7-11.9c2.5-1.6,4.8-2.2,6.5-2.6c1.9-0.5,6.7-1.6,12.5,0.2   c5.4,1.6,8.6,4.8,10.1,6.3c0.9,0.9,4.8,5,6.6,11.5c0.9,3.1,1.7,5.9,0.8,9.1c-1,4-3.4,4.5-5.2,8.8c-0.5,1.2-1.2,3.4-1.1,10   c0.1,5.7,0.8,9.5,2,16.6c2,12.1,2.1,11.8,3.1,18.3c0.5,3.4,1.1,6.8,1.6,10.2c0.5,3.1,0.9,6.3,2.1,10.5c0.4,1.3,0.7,2.4,1,3.2   c0.5,5.6,0.6,10.3,0.5,13.9c-0.1,5.1-0.2,10-1.4,16.3c-0.6,3.2-1.1,5.8-2.4,9.1c-1.7,4.4-2.8,5.4-6.2,12.5c-1.6,3.3-2.3,5-3.2,7.5   c-1.8,5-3,8.7-2.2,13c0.3,1.9,0.6,1.4,2,6.3C42.1,417.1,42.3,418.2,43.3,421.7z" />
    <path id="leftProximalPhalanx1" fill="#B2B2B2" d="M255.3,158.6c0.7-2.9,0.3-5.5-0.1-7c-1.1-4.8-3.4-7.6-5.5-10.7   c-2.9-4.5-4.2-8.1-6.5-14.8c-1.3-3.8-3.3-10.2-4.3-18.4c-1-8.4-1.6-12.6-0.2-16.8c1.7-5.4,4.5-7.2,4-11.9c-0.5-4.4-3.5-7.2-3.9-7.6   c-1.3-1.2-3.3-2.5-7.7-3.3c-5.3-0.9-8.3,0-15.4,1c-1.9,0.3-7.3,0.8-18.1,1.8c-7.3,0.7-10.3,0.9-12.7,3.5c-2.4,2.5-2.7,5.9-2.8,7.1   c-0.3,3.2,0.6,5.7,2.8,10.8c4.1,9.7,4.4,9.3,5.4,12.3c1.7,4.9,1.9,8.7,2.3,16.2c0.5,8.2,0.7,12.3-0.5,16.6   c-2.5,8.9-4.8,13.8-4.8,13.8c-0.2,0.4-1.1,2.3-1.4,5c-0.2,2.1-0.3,5.9,1.1,6.4c0.9,0.3,1.9-1,3.6-2.5c3.5-3,7.2-4.1,10.9-5.1   c2.1-0.6,4.9-0.8,10.5-1.3c3.2-0.3,5.5-0.4,10.1-0.5c5-0.2,7.6-0.3,9-0.1c3.6,0.5,6.1,1.7,9.7,3.3c3.7,1.7,5.6,2.5,7.2,4.2   c2,2.1,2.4,3.7,3.6,3.7C253.5,164.3,254.8,160.6,255.3,158.6z" />
    <path id="leftProximalPhalanx2" fill="#B2B2B2" d="M173.5,145.5c-1.1-3.3-2.3-3.7-5.8-9.1c-2.5-3.7-4.6-6.9-6-11.2   c-0.6-1.8-0.9-3.9-1.6-8c-0.9-5.4-1.6-9.8-1.9-15.9c-0.4-6.6-0.6-9.9,0.1-13c0.4-2,0.7-2.3,3.6-12.1c1.3-4.2,1.8-6,0.9-8   c-1.4-3.3-5.1-4.5-5.4-4.6c-1.4-0.4-2.1-0.2-7,0.2c-4.1,0.4-6.1,0.6-7.5,0.7c-5.9,0.2-7.2-0.7-8.8,0.6c-1.8,1.4-2.1,3.8-2.3,6.5   c-0.5,4.9,0.6,8.6,1.1,10.4c0.3,1-0.1-0.2,1.9,17.3c1.3,11.4,1.7,14.3,1.9,20c0.4,8-0.1,10.5-0.6,12.3c-1.2,4.7-2.7,5.6-4.1,11   c-1.5,5.9-1.6,11.6-0.8,11.8c0.5,0.1,0.9-2,2.9-4.4c2.7-3.4,6.3-4.8,8-5.4c4-1.5,7.3-1.4,11.4-1.2c3.3,0.1,5.9,0.2,9.3,1.5   c1.9,0.7,5.2,2,8,5.1c1.9,2.1,2.4,3.9,3,3.7C174.7,153.7,174.8,149.5,173.5,145.5z" />
    <path id="leftProximalPhalanx3" fill="#B2B2B2" d="M121.2,163c-1.4-3.9-3-5.2-5.7-10c-2.1-3.6-3.2-6.5-3.5-7.3   c-2.1-5.5-2.7-10.1-3.3-14.7c-0.5-4.1-0.6-7.1-0.6-9.1c-0.1-4.9-0.2-7.4,0.5-10.5c0.9-4.1,1.8-3.6,3.2-8.6   c1.1-3.9,2.3-8.1,0.6-12.3c-0.5-1.3-1.3-3.3-3.3-4.2c-2.1-1-3.5,0.2-8.4,0.9c-1.8,0.3-3.9,0.4-8.1,0.5c-5.9,0.2-7.2-0.1-8.6,1.1   c-2.1,1.7-2.2,4.8-2.2,5.6c-0.1,2.7,1,4.4,2,6.7c1,2.2,1.7,5.1,3.1,10.7c1.4,5.7,1.7,10.1,2.2,17.1c0.4,4.9,0.4,8.7,0.4,11.1   c0.1,7.4,0.1,11.1-0.3,12.8c-1.3,5.3-4.1,8.6-4.9,15.8c-0.1,0.7-0.3,2.5,0.4,2.9c1,0.4,2.6-2.7,6.4-5.4c2.6-1.8,5-2.6,6.8-3.1   c2.1-0.7,5.4-1.6,9.6-1.2c2,0.2,7,0.7,10.8,4.3c2.2,2,3,4.1,3.6,3.8C122.8,169.7,122.3,166.1,121.2,163z" />
    <path id="leftProximalPhalanx4" fill="#B2B2B2" d="M82.1,193.8c1.4-0.8,0.3-5.4-0.9-8.8c-2.2-5.5-4.5-6-7.9-11.8   c-2.9-4.9-4-9.3-4.9-12.6c-0.3-1.1-0.9-4.9-2-12.3c-1.3-8.4-1.4-9.2-0.9-10.8c1.2-4,3.6-4.6,4.8-9.4c0.1-0.6,1.4-4.2-0.3-7.9   c-0.2-0.4-1.8-3.6-5.2-4.9c-1.3-0.5-2-0.4-8,0.2c-6.1,0.7-7.2,0.8-9.3,1.3c-3,0.8-4.4,1.3-5.4,2.5c-0.7,0.9-1.8,2.9,0.4,10.8   c1.5,5.3,2.6,6.5,3.8,10.3c1.1,3.4,1.4,7.4,1.9,15.4c0.5,8.1,0.8,12.1,0.4,17.1c-0.4,5.2-1.1,7-1.5,14.2c-0.6,10.1,0.5,11,1,11.1   c1,0.3,1.7-2,5-4.6c3-2.3,6-3.3,8.1-4c2.4-0.8,4.1-1.3,6.4-1.3c3.8,0,6.8,1.5,8.9,2.5C80.1,192.8,81.2,194.3,82.1,193.8z" />
    <path id="leftProximalPhalanx5" fill="#B2B2B2" d="M43.4,226.7c-0.4-2-1.3-3.4-1.6-3.8c-2.9-4.6-5.6-5.6-8.2-8.7   c-2-2.5-2.9-5.7-4.5-12.2c-0.9-3.6-1.2-6.2-1.9-11.2c-0.6-4.8-0.9-7.3-0.5-9.3c0.8-3.9,2.5-4.1,3.2-8.2c0.4-1.9,1.2-6.2-1.1-8.6   c-1.4-1.4-3.5-1.5-7.2-1.5c-4.7-0.1-5.4,1.1-8.8,0.4c-2.7-0.5-2.9-1.4-5.4-1.5c-1-0.1-4.3-0.3-6.2,1.4c-2.2,2.1-1.5,6-0.5,11.2   c1.3,6.8,2.9,7.9,4,14.3c0.1,0.6,0.3,3.5,0.6,9.1c0.7,11.4,0.7,12.9,0.6,15.1c-0.1,2.4-0.3,5.6-1.1,9.7c-0.9,4.4-1.9,6.4-2,10.6   c0,0.3-0.1,6.5,1.3,6.7c0.9,0.2,1.3-2.1,3.7-4.8c2.3-2.7,5-4,7.7-5.4c2.8-1.4,4.9-2.5,7.9-2.9c6.1-0.8,11.5,1.9,13,2.6   c3.5,1.8,5,3.6,6.2,2.9C44.5,231.8,43.5,227,43.4,226.7z" />
    <path id="leftMiddlePhalanx2" fill="#C6C6C6" d="M162.9,62.2c0.7-0.7,0.2-2-1.6-7.6c-1.6-5.2-1.6-5.6-1.6-6.2   c0.2-3.2,2.2-3.6,4-8.1c1-2.5,2.2-5.8,0.7-8.2c-1.7-2.8-6.1-2.9-7.7-2.9c-2.4-0.1-2.4,0.5-6.2,0.9c-3.6,0.3-4.1-0.1-7.4,0.3   c-3.3,0.4-5,0.6-6,1.8c-1.3,1.5-0.9,3.9-0.2,8.5c1,6,2.1,6.5,1.5,8.9c-0.4,1.8-1.8,3.4-4.5,6.7c-1.5,1.8-2.7,3-3.2,5.2   c-0.3,1.2-0.4,3.2,0.3,3.6c0.8,0.4,1.7-1.5,4.1-2.5c1.9-0.8,2.9-0.3,7-0.2c0.9,0,0.3,0,6.1-0.3c5.4-0.3,8.1-0.4,9.4-0.3   C161,62,162.1,62.9,162.9,62.2z" />
    <path id="leftMiddlePhalanx3" fill="#C6C6C6" d="M108.7,47.8c2,1.6,1.8,4.8,1.8,6c-0.1,2.9-1.3,3.1-2.1,6.5c-0.6,2.7-0.4,5-0.1,9.6   c0.2,2.8,0.4,4.2,0.8,5.2c1.2,2.6,3.1,3.1,3.8,5.8c0.1,0.3,0.6,2.7-0.4,3.5c-0.8,0.6-1.8-0.1-3.9-0.3c-1.8-0.2-2.8,0.2-4.7,0.7   c-2.5,0.6-4.5,0.8-8.5,1.1c-7.5,0.7-9.2-0.3-11.8,1.5c-0.8,0.6-1.6,1.4-2.2,1.1c-1.2-0.5-0.8-3.9-0.7-4.7c0.6-5.5,3.2-6.6,4.2-11.2   c0.7-3,0.3-5.5-0.4-10.4c-0.9-6.2-2.4-8.7-0.8-10.8c1-1.3,2.6-1.7,4.9-2.2c2.2-0.5,3-0.2,6.4-0.6c2.6-0.2,2.3-0.5,5.3-0.8   C105.1,47,107.4,46.8,108.7,47.8z" />
    <path id="leftMiddlePhalanx4" fill="#C6C6C6" d="M68.9,83.2c0.2,0.2,2.5,2.4,2.3,5.4c-0.2,2.6-2.2,2.8-3.6,6.3   c-0.9,2.2-0.9,4.2-1,7.5c0,3.3,0,5,0.9,6.6c1,1.7,2.2,1.8,3,3.7c0.7,1.8,0.6,3.9,0.1,4.1c-0.4,0.1-0.8-0.8-1.9-1.7   c-1.4-1.3-3-1.6-4.7-1.9c-2.6-0.5-4.7-0.2-8.8,0.3c-4,0.6-5.9,0.9-8.2,1.7c-2.7,1-4.2,2-4.8,1.3c-0.2-0.2-0.3-0.5,0.5-4.6   c0.5-2.5,0.8-3.8,1-4.4c0.5-1.7,0.7-2.2,0.8-3.5c0.4-4.2-1.6-4.6-1.8-9.9c-0.1-2.8-0.2-5.6,1.7-7.7c0.6-0.7,1.3-1.2,7.9-3   c4.4-1.2,6.7-1.8,8.9-1.9C64.1,81.3,66.8,81.3,68.9,83.2z" />
    <path id="leftMiddlePhalanx5" fill="#C6C6C6" d="M29.9,158.3c-0.3-3.3-0.7-5-0.9-6.6c-0.6-4.3,0.4-4.9-0.5-6.3   c-1.3-1.8-3.8-2.1-6.3-2.3c-2.7-0.3-3.1,0.2-7.5,0.5c-5.3,0.3-6.2-0.4-8.2,0.7c-0.5,0.2-3.1,1.7-3.8,4.3c-0.4,1.8,0.4,2.4-0.1,5.2   c-0.2,1.2-0.5,1.7-0.5,2.9c0,0.9,0,2.6,1,3.2c0.9,0.6,1.7-0.4,3.7-0.5c1.6-0.1,1.8,0.5,4.8,1.4c1.6,0.4,2.9,0.8,4.6,0.9   c2.7,0.1,2.7-0.8,5.4-0.6c0.8,0,0.8,0.1,5.3,0.6c1.4,0.2,2.2,0.2,2.7-0.2C30.1,160.8,30,159.7,29.9,158.3z" />
    <path id="leftDistalPhalanx1" fill="#DADADA" d="M243.7,72c-0.3-1.7-1-6.6-5.2-10.2c-3.7-3.2-5.7-1.5-9.9-4.2   c-5.2-3.3-7.3-9-8.7-13c-2.6-7.3-0.5-9-3.4-15.8c-1.2-2.9-3-7.2-7.4-10.5c-1.2-0.9-8.7-6.3-17.6-3.3c-6.3,2.1-11.2,7.6-12.2,13.5   c-0.6,3.6,0.3,6.7,0.7,8.2c1.4,5,3.6,5.5,5.2,10.4c0.6,1.8,2.1,6.3,0.8,11.1c-0.6,2.2-2.3,4.7-5.8,9.9c-2.6,3.8-3.8,5.2-3.5,7.3   c0.4,2.7,2.9,4.9,3.8,4.5c0.6-0.3,0.1-1.8,0.6-3.7c0.9-3.3,4.3-5,6.2-5.9c1.4-0.7,3.3-1.5,11-2.2c7.2-0.7,7.4-0.2,12.6-0.9   c4.6-0.6,5.1-1.1,9.6-1.6c5.2-0.5,8-0.2,8.8-0.1c3.1,0.4,5.3,0.7,7.6,2c4.4,2.6,5.9,7.2,6.7,6.8C244,74.3,243.8,72.7,243.7,72z" />
    <path id="leftDistalPhalanx2" fill="#DADADA" d="M165.3,27.7c0.4-0.9-1.3-2.3-2.9-4.4c-1-1.3-3.5-4.6-3.6-8.3   c-0.1-3.4,1.8-3.9,1.4-6.8c-0.5-3.3-3.5-5.4-4.3-6c-4.9-3.4-10.8-1.7-11.9-1.4c-1.4,0.4-5.8,1.7-7.8,5.7c-0.3,0.6-1.7,3.3-0.8,5.8   c0.4,1.2,0.9,1.2,2.2,2.9c1.2,1.5,3.9,5,3,7.7c-0.4,1.2-1.1,1-2.6,3.5c-0.7,1.2-1.4,2.4-1,3c0.4,0.5,1.5,0.1,3.6-0.3   c1.8-0.3,1.2,0,5.6-0.5c3.5-0.4,3.7-0.5,6.4-0.7c2.5-0.2,3.7-0.3,4.5-0.2c2.5,0.3,3.8,1.2,6.4,0.9C165,28.2,165.2,27.8,165.3,27.7z   " />
    <path id="leftDistalPhalanx3" fill="#DADADA" d="M109.9,44.1c-0.7-2.4-3.1-2.4-4.6-4.7c-0.9-1.4-0.9-2.7-1-4.8   c-0.1-3.9,1.4-4.5,1.1-7.7c-0.1-0.8-0.3-3.5-2.3-5.9c-0.5-0.5-2.2-2.6-5.3-3.1c-3.5-0.6-6.2,1-6.9,1.5c-0.5,0.4-3.9,2.7-4.3,6.3   c-0.3,3,1.7,3.6,1.8,7.6c0,1,0,3.2-1.2,5.3c-1.5,2.7-3.4,2.5-4.8,5.3c-1,2-1.4,4.6-0.4,5.3c0.8,0.5,1.9-0.8,4.7-1.7   c1.9-0.6,2.2-0.3,6.4-0.7c2.2-0.2,4.1-0.6,7-1.1c4-0.7,4.9-1,6.4-0.5c1.5,0.5,2.5,1.4,3.1,1C110.3,45.9,110.1,44.8,109.9,44.1z" />
    <path id="leftDistalPhalanx4" fill="#DADADA" d="M72.2,78.5c-0.1-0.9-0.2-2.1-0.8-3.4c-1.1-2.2-2.3-2-2.8-3.5   c-0.4-1.2,0.3-1.7,1-5.1c0.5-2.4,0.8-3.6,0.5-5.1c-0.5-2.7-2.5-4.3-2.9-4.6c-2.9-2.3-7-2.2-9.8-0.9c-4.6,1.9-6,6.6-6.2,7.4   c-1.1,3.7,0.7,4.8-0.6,8.2c-1,2.6-2.3,2.5-4.9,6.4c-1.9,2.9-3.7,6.7-3,7.3c0.4,0.3,1.4-0.7,3.8-2c2.1-1.1,3.8-1.6,6.3-2.3   c2.6-0.8,4.8-1.4,7.8-1.6c2.9-0.2,4.7-0.3,6.7,0.7c2.5,1.2,3.5,3.1,4.4,2.7C72.5,82.1,72.3,79.8,72.2,78.5z" />
    <path id="leftDistalPhalanx5" fill="#DADADA" d="M28.5,142.5c0.8-0.6-0.1-4-1.8-6.7c-1.6-2.5-3-2.8-3.3-4.8c-0.2-1.3,0.3-1.8,0.9-4   c0.7-2.5,1.5-5.6,0.4-8.2c-1-2.2-3.4-4-6.2-4.3c-3.3-0.4-6.3,1.4-7.6,3.7c-1,1.9-0.9,4-0.5,8.4c0.2,3.1,0.7,3.5,0.2,4.8   c-0.8,2.4-2.5,2.3-4.6,5.3c-1.8,2.5-2.9,5.7-2.1,6.3c0.5,0.4,1.2-0.5,3.2-1.1c2.9-1,3.8,0.2,8-0.2c3-0.3,3.2-0.9,5.7-0.9   c2.5,0.1,4.6,0.7,4.6,0.7C27.4,142.2,28,142.8,28.5,142.5z" />
  </g>
  <g>
    <path fill="none" stroke="#706F6F" stroke-linecap="round" stroke-miterlimit="10" d="M370.7,536.7c1.7-2,6.2-7.1,12.9-7.5   c7.7-0.5,13.9,5.2,17.6,8.8c3.9,3.7,3.5,4.8,6.6,7.4c4.6,4,10,5.4,20,6.4c16.5,1.8,21.8,0.4,32,1.4c6.1,0.6,15.3,2,26.5,6.3" />
    <path fill="none" stroke="#706F6F" stroke-linecap="round" stroke-miterlimit="10" d="M373.6,590.4c-0.1,7.5-0.4,13.9-0.5,18.7   c-0.3,6.7-0.5,12.8-1.1,20.8c-0.4,5.9-0.9,10.8-1.2,14.3" />
    <path fill="none" stroke="#706F6F" stroke-linecap="round" stroke-miterlimit="10" d="M400.8,663.1c4.6-0.2,9.8-0.2,15.5,0.3   c12.1,1,15.5,3.2,23,1.7c2.4-0.5,6-2.2,13.1-5.7c4.7-2.3,9.3-4.5,14.8-8.1c3.3-2.2,7.3-5,11.6-8.7" />
    <path fill="none" stroke="#706F6F" stroke-linecap="round" stroke-miterlimit="10" d="M228.1,536.7c-1.7-2-6.2-7.1-12.9-7.5   c-7.7-0.5-13.9,5.2-17.6,8.8c-3.9,3.7-3.5,4.8-6.6,7.4c-4.6,4-10,5.4-20,6.4c-16.5,1.8-21.8,0.4-32,1.4c-6.1,0.6-15.3,2-26.5,6.3" />
    <path fill="none" stroke="#706F6F" stroke-linecap="round" stroke-miterlimit="10" d="M225.2,590.4c0.1,7.5,0.4,13.9,0.6,18.7   c0.3,6.7,0.5,12.8,1.1,20.8c0.4,5.9,0.9,10.8,1.2,14.3" />
    <path fill="none" stroke="#706F6F" stroke-linecap="round" stroke-miterlimit="10" d="M198,663.1c-4.6-0.2-9.8-0.2-15.5,0.3   c-12.1,1-15.6,3.2-23,1.7c-2.4-0.5-6-2.2-13.1-5.7c-4.7-2.3-9.3-4.5-14.8-8.1c-3.3-2.2-7.3-5-11.6-8.7" />
  </g>
</svg>
