<svg version="1.1" xmlns="http://www.w3.org/2000/svg" xmlns:xlink="http://www.w3.org/1999/xlink" x="0px" y="0px" viewBox="0 0 649.19 798.69" enable-background="new 0 0 649.19 798.69" xml:space="preserve">
    <metadata xmlns:med="http://www.medreporter.org/reference/image">
        <med:Figure lngs="de,en">
            <med:Title>
                <med:Trans lng="de">Knochen des Fußes</med:Trans>
                <med:Trans lng="en">Bones feet</med:Trans>
            </med:Title>
            <med:Option id="rightTalus">
                <med:Trans lng="de">Talus rechts</med:Trans>
                <med:Trans lng="en">Right talus</med:Trans>
            </med:Option>
            <med:Option id="rightCalcaneus">
                <med:Trans lng="de">Calcaneus rechts</med:Trans>
                <med:Trans lng="en">Right calcaneus</med:Trans>
            </med:Option>
            <med:Option id="rightNavicular">
                <med:Trans lng="de">Os naviculare rechts</med:Trans>
                <med:Trans lng="en">Right navicular</med:Trans>
            </med:Option>
            <med:Option id="rightCuboid">
                <med:Trans lng="de">Os cuboideum rechts</med:Trans>
                <med:Trans lng="en">Right cuboid</med:Trans>
            </med:Option>
            <med:Option id="rightLateralCuneiform">
                <med:Trans lng="de">Os cuneiforme laterale rechts</med:Trans>
                <med:Trans lng="en">Right lateral cuneiform</med:Trans>
            </med:Option>
            <med:Option id="rightIntermediateCuneiform">
                <med:Trans lng="de">Os cuneiforme intermedium rechts</med:Trans>
                <med:Trans lng="en">Right intermediate cuneiform</med:Trans>
            </med:Option>
            <med:Option id="rightMedialCuneiform">
                <med:Trans lng="de">Os cuneiforme mediale rechts</med:Trans>
                <med:Trans lng="en">Right medial cuneiform</med:Trans>
            </med:Option>
            <med:Option id="rightMetatarsal1">
                <med:Trans lng="de">Os metatarsale I rechts</med:Trans>
                <med:Trans lng="en">Right metatarsal 1</med:Trans>
            </med:Option>
            <med:Option id="rightSesamoid">
                <med:Trans lng="de">Os sesamoideum rechts</med:Trans>
                <med:Trans lng="en">Right sesamoid</med:Trans>
            </med:Option>
            <med:Option id="rightMetatarsal2">
                <med:Trans lng="de">Os metatarsale II rechts</med:Trans>
                <med:Trans lng="en">Right metatarsal 2</med:Trans>
            </med:Option>
            <med:Option id="rightMetatarsal3">
                <med:Trans lng="de">Os metatarsale III rechts</med:Trans>
                <med:Trans lng="en">Right metatarsal 3</med:Trans>
            </med:Option>
            <med:Option id="rightMetatarsal4">
                <med:Trans lng="de">Os metatarsale IV rechts</med:Trans>
                <med:Trans lng="en">Right metatarsal 4</med:Trans>
            </med:Option>
            <med:Option id="rightMetatarsal5">
                <med:Trans lng="de">Os metatarsale V rechts</med:Trans>
                <med:Trans lng="en">Right metatarsal 5</med:Trans>
            </med:Option>
            <med:Option id="rightProximalPhalanx1">
                <med:Trans lng="de">Phalanx proximalis I rechts</med:Trans>
                <med:Trans lng="en">Right proximal phalanx 1</med:Trans>
            </med:Option>
            <med:Option id="rightProximalPhalanx2">
                <med:Trans lng="de">Phalanx proximalis II rechts</med:Trans>
                <med:Trans lng="en">Right proximal phalanx 2</med:Trans>
            </med:Option>
            <med:Option id="rightProximalPhalanx3">
                <med:Trans lng="de">Phalanx proximalis III rechts</med:Trans>
                <med:Trans lng="en">Right proximal phalanx 3</med:Trans>
            </med:Option>
            <med:Option id="rightProximalPhalanx4">
                <med:Trans lng="de">Phalanx proximalis IV rechts</med:Trans>
                <med:Trans lng="en">Right proximal phalanx 4</med:Trans>
            </med:Option>
            <med:Option id="rightProximalPhalanx5">
                <med:Trans lng="de">Phalanx proximalis V rechts</med:Trans>
                <med:Trans lng="en">Right proximal phalanx 5</med:Trans>
            </med:Option>
            <med:Option id="rightMiddlePhalanx2">
                <med:Trans lng="de">Phalanx media II rechts</med:Trans>
                <med:Trans lng="en">Right middle phalanx 2</med:Trans>
            </med:Option>
            <med:Option id="rightMiddlePhalanx3">
                <med:Trans lng="de">Phalanx media III rechts</med:Trans>
                <med:Trans lng="en">Right middle phalanx 3</med:Trans>
            </med:Option>
            <med:Option id="rightMiddlePhalanx4">
                <med:Trans lng="de">Phalanx media IV rechts</med:Trans>
                <med:Trans lng="en">Right middle phalanx 4</med:Trans>
            </med:Option>
            <med:Option id="rightMiddlePhalanx5">
                <med:Trans lng="de">Phalanx media V rechts</med:Trans>
                <med:Trans lng="en">Right middle phalanx 5</med:Trans>
            </med:Option>
            <med:Option id="rightDistalPhalanx1">
                <med:Trans lng="de">Phalanx distalis I rechts</med:Trans>
                <med:Trans lng="en">Right distal phalanx 1</med:Trans>
            </med:Option>
            <med:Option id="rightDistalPhalanx2">
                <med:Trans lng="de">Phalanx distalis II rechts</med:Trans>
                <med:Trans lng="en">Right distal phalanx 2</med:Trans>
            </med:Option>
            <med:Option id="rightDistalPhalanx3">
                <med:Trans lng="de">Phalanx distalis III rechts</med:Trans>
                <med:Trans lng="en">Right distal phalanx 3</med:Trans>
            </med:Option>
            <med:Option id="rightDistalPhalanx4">
                <med:Trans lng="de">Phalanx distalis IV rechts</med:Trans>
                <med:Trans lng="en">Right distal phalanx 4</med:Trans>
            </med:Option>
            <med:Option id="rightDistalPhalanx5">
                <med:Trans lng="de">Phalanx distalis V rechts</med:Trans>
                <med:Trans lng="en">Right distal phalanx 5</med:Trans>
            </med:Option>
            <med:Option id="leftTalus">
                <med:Trans lng="de">Talus links</med:Trans>
                <med:Trans lng="en">Left talus</med:Trans>
            </med:Option>
            <med:Option id="leftCalcaneus">
                <med:Trans lng="de">Calcaneus links</med:Trans>
                <med:Trans lng="en">Left calcaneus</med:Trans>
            </med:Option>
            <med:Option id="leftNavicular">
                <med:Trans lng="de">Os naviculare links</med:Trans>
                <med:Trans lng="en">Left navicular</med:Trans>
            </med:Option>
            <med:Option id="leftCuboid">
                <med:Trans lng="de">Os cuboideum links</med:Trans>
                <med:Trans lng="en">Left cuboid</med:Trans>
            </med:Option>
            <med:Option id="leftLateralCuneiform">
                <med:Trans lng="de">Os cuneiforme laterale links</med:Trans>
                <med:Trans lng="en">Left lateral cuneiform</med:Trans>
            </med:Option>
            <med:Option id="leftIntermediateCuneiform">
                <med:Trans lng="de">Os cuneiforme intermedium links</med:Trans>
                <med:Trans lng="en">Left intermediate cuneiform</med:Trans>
            </med:Option>
            <med:Option id="leftMedialCuneiform">
                <med:Trans lng="de">Os cuneiforme mediale links</med:Trans>
                <med:Trans lng="en">Left medial cuneiform</med:Trans>
            </med:Option>
            <med:Option id="leftMetatarsal1">
                <med:Trans lng="de">Os metatarsale I links</med:Trans>
                <med:Trans lng="en">Left metatarsal 1</med:Trans>
            </med:Option>
            <med:Option id="leftSesamoid">
                <med:Trans lng="de">Os sesamoideum links</med:Trans>
                <med:Trans lng="en">Left sesamoid</med:Trans>
            </med:Option>
            <med:Option id="leftMetatarsal2">
                <med:Trans lng="de">Os metatarsale II links</med:Trans>
                <med:Trans lng="en">Left metatarsal 2</med:Trans>
            </med:Option>
            <med:Option id="leftMetatarsal3">
                <med:Trans lng="de">Os metatarsale III links</med:Trans>
                <med:Trans lng="en">Left metatarsal 3</med:Trans>
            </med:Option>
            <med:Option id="leftMetatarsal4">
                <med:Trans lng="de">Os metatarsale IV links</med:Trans>
                <med:Trans lng="en">Left metatarsal 4</med:Trans>
            </med:Option>
            <med:Option id="leftMetatarsal5">
                <med:Trans lng="de">Os metatarsale V links</med:Trans>
                <med:Trans lng="en">Left metatarsal 5</med:Trans>
            </med:Option>
            <med:Option id="leftProximalPhalanx1">
                <med:Trans lng="de">Phalanx proximalis I links</med:Trans>
                <med:Trans lng="en">Left proximal phalanx 1</med:Trans>
            </med:Option>
            <med:Option id="leftProximalPhalanx2">
                <med:Trans lng="de">Phalanx proximalis II links</med:Trans>
                <med:Trans lng="en">Left proximal phalanx 2</med:Trans>
            </med:Option>
            <med:Option id="leftProximalPhalanx3">
                <med:Trans lng="de">Phalanx proximalis III links</med:Trans>
                <med:Trans lng="en">Left proximal phalanx 3</med:Trans>
            </med:Option>
            <med:Option id="leftProximalPhalanx4">
                <med:Trans lng="de">Phalanx proximalis IV links</med:Trans>
                <med:Trans lng="en">Left proximal phalanx 4</med:Trans>
            </med:Option>
            <med:Option id="leftProximalPhalanx5">
                <med:Trans lng="de">Phalanx proximalis V links</med:Trans>
                <med:Trans lng="en">Left proximal phalanx 5</med:Trans>
            </med:Option>
            <med:Option id="leftMiddlePhalanx2">
                <med:Trans lng="de">Phalanx media II links</med:Trans>
                <med:Trans lng="en">Left middle phalanx 2</med:Trans>
            </med:Option>
            <med:Option id="leftMiddlePhalanx3">
                <med:Trans lng="de">Phalanx media III links</med:Trans>
                <med:Trans lng="en">Left middle phalanx 3</med:Trans>
            </med:Option>
            <med:Option id="leftMiddlePhalanx4">
                <med:Trans lng="de">Phalanx media IV links</med:Trans>
                <med:Trans lng="en">Left middle phalanx 4</med:Trans>
            </med:Option>
            <med:Option id="leftMiddlePhalanx5">
                <med:Trans lng="de">Phalanx media V links</med:Trans>
                <med:Trans lng="en">Left middle phalanx 5</med:Trans>
            </med:Option>
            <med:Option id="leftDistalPhalanx1">
                <med:Trans lng="de">Phalanx distalis I links</med:Trans>
                <med:Trans lng="en">Left distal phalanx 1</med:Trans>
            </med:Option>
            <med:Option id="leftDistalPhalanx2">
                <med:Trans lng="de">Phalanx distalis II links</med:Trans>
                <med:Trans lng="en">Left distal phalanx 2</med:Trans>
            </med:Option>
            <med:Option id="leftDistalPhalanx3">
                <med:Trans lng="de">Phalanx distalis III links</med:Trans>
                <med:Trans lng="en">Left distal phalanx 3</med:Trans>
            </med:Option>
            <med:Option id="leftDistalPhalanx4">
                <med:Trans lng="de">Phalanx distalis IV links</med:Trans>
                <med:Trans lng="en">Left distal phalanx 4</med:Trans>
            </med:Option>
            <med:Option id="leftDistalPhalanx5">
                <med:Trans lng="de">Phalanx distalis V links</med:Trans>
                <med:Trans lng="en">Left distal phalanx 5</med:Trans>
            </med:Option>
        </med:Figure>
    </metadata>
    <g>
        <path id="rightTalus" fill="#878787" d="M392.53,519.36c3.43-4.6,7.64-8.9,13.43-13.26c6.53-4.92,12.92-9.79,22.35-12.12   c8.92-2.2,15.85-1.11,25.59,0.43c8.28,1.31,19.01,3.12,30.11,10.57c4.44,2.98,9.01,4.56,10.41,8.85c0.82,2.49,0.07,3.73-0.52,10.06   c-0.39,4.21-0.87,9.38-0.18,14.42c0.26,1.9,1.25,8.51,5.58,14.56c4.02,5.61,6.48,4.55,14.52,11.38   c5.99,5.09,11.61,9.86,13.63,17.43c1.4,5.26-0.41,6.31,1.44,12.4c1.89,6.18,4.18,6.46,6.81,12.87c1.27,3.1,4.33,10.52,2.11,17.15   c-1.73,5.15-5.7,7.01-11.45,11.27c-3.58,2.65-10.07,9.76-23.03,23.97c-16.73,18.34-19.98,22.07-19.98,22.07   c-8.5,9.77-11.12,13.28-16.39,14.09c-6.39,0.97-12.27-2.73-18.54-6.68c-6.96-4.38-6.72-6.36-14.52-11.38   c-4.19-2.69-5.36-2.83-14.51-7.41c-11.06-5.53-16.58-8.29-18.26-9.9c-10.75-10.31-9.79-27.36-9.64-30.08   c0.23-4.11,1.34-8.05,3.56-15.93c4.16-14.79,6.4-15.41,7.86-23.85c1.61-9.31,0.31-16.69-1.09-24.64   c-1.95-11.05-2.93-16.57-7.46-21.95c-4.01-4.75-7.29-5.23-8.2-9.38C385.1,529.46,388.43,524.87,392.53,519.36z" />
        <path id="rightCalcaneus" fill="#878787" d="M423.36,674.45c-1.98,3.85-4.21,9.21-5.36,15.86c-0.51,2.95-0.54,4.33-0.55,18.72   c-0.01,14.23-0.08,15.08,0.64,17.38c1.58,5,3.22,5.08,9.17,14.88c5.73,9.44,4.8,10.33,7.8,14.04c2.55,3.15,5.62,5.46,21.36,11.61   c16.93,6.62,25.53,9.9,32.09,8.58c1.7-0.34,10.19-2.21,16.34-9.4c5.23-6.1,5.69-12.44,7.28-21.38c1.47-8.26,4.32-17.48,10-35.94   c5.93-19.25,8.9-28.88,13.68-36.7c5.21-8.52,9.2-11.97,10.06-20.05c0.91-8.55-2.78-12.01-0.13-19.14   c2.47-6.66,6.44-5.67,10.21-13.54c0.9-1.88,4.58-9.57,2.67-18.17c-1.47-6.61-4.96-8.04-4.28-13.01c0.58-4.2,3.24-4.41,5.92-9.95   c2.58-5.33,2.52-10.5,2.58-17.1c0.05-6.28-0.81-5.99-0.34-10.5c0.67-6.41,2.72-9.84,1-11.46c-1.08-1.02-2.56-0.29-6.12-0.17   c-3.13,0.1-5.65-0.48-10.68-1.66c-6.79-1.58-6.8-2.51-14.05-4.48c-7.17-1.94-6.97-0.97-12.04-2.68c-5.89-1.98-7.08-3.61-12.86-5.64   c-4.51-1.58-8.39-2.2-10.88-2.49c-0.64,2.28-1.39,5.78-1.33,10.08c0.03,2.43,0.16,12.71,7.11,20.83c0.81,0.95,0.29,0.21,12,9.26   c6.66,5.15,8.66,6.81,10.78,9.88c2.9,4.2,4.07,8.23,4.47,9.77c1.5,5.8-0.2,6.41,1.1,11.1c1.64,5.92,4.61,5.91,7.74,13.58   c0.96,2.35,2.12,5.26,2.35,9.23c0.12,2.11,0.49,8.37-3.27,13.61c-2.36,3.29-4.02,2.93-9.89,7.8c-0.71,0.59-2.53,2.13-8,7.87   c-5.4,5.68-7.69,8.52-13.59,15.05c-8.32,9.22-7.84,8.43-12.78,14.04c-4.02,4.57-8.12,9.08-12.03,13.75   c-5.28,6.29-7.02,8.74-10.89,9.97c-3.94,1.25-7.51,0.42-10.53-0.29c-5.41-1.26-9.05-3.77-13.3-6.76c-5.87-4.12-6.55-5.9-11.96-9.8   C430.3,677.76,426.14,675.69,423.36,674.45z" />
        <path id="rightNavicular" fill="#878787" d="M389.53,448.53c-3.78,3.52-6.34,7.54-11.47,15.6c-4.29,6.74-6.45,10.19-7.41,14.51   c-0.5,2.25-1.78,8.45,0.8,15.59c0.58,1.62,3.81,10.55,12.81,14.47c1.88,0.82,3.6,1.57,6,1.61c7.55,0.12,9.77-7.09,21.47-14.36   c2.63-1.64,7.12-4.38,13.52-6.04c6.13-1.59,10.88-1.36,17.77-0.97c6.18,0.35,13.96,0.78,23.84,3.89   c12.19,3.83,20.17,9.4,21.81,10.57c3.94,2.8,6.96,5.55,9.08,7.65c0.94-1.79,2.39-4.67,3.98-8.31c2.84-6.54,2.54-7.33,4.58-11.15   c2.93-5.47,4.53-5.68,5.53-9.62c0.33-1.31,1.2-4.7,0-8.3c-1.54-4.64-4.75-4.39-9.57-10.22c-4.58-5.54-3.32-7.74-7.36-10.75   c-2-1.48-2.88-1.37-10.14-3.77c-4-1.32-7.93-2.86-11.9-4.29c-13.81-4.98-14.52-5.33-15.71-6.07c-2.49-1.54-4.3-3.05-7.92-4.3   c-1.35-0.47-3.87-1.32-7.1-1.34c-3.4-0.02-5.09,0.89-8.46,1.79c-4.12,1.09-4.9,0.6-12.76,1.41c-7.04,0.73-10.55,1.09-13.89,2.03   C398.08,440.69,392.18,446.06,389.53,448.53z" />
        <path id="rightCuboid" fill="#878787" d="M497.77,519c-0.62-1.23,0.59-2.51,4.52-10.43c0.37-0.74,0.91-1.82,1.5-3.32   c0.94-2.4,1.14-3.8,3.57-9.23c1.84-4.13,3.32-7.4,6.05-11.38c1.35-1.96,3.41-4.93,6.84-8.06c3.26-2.97,4.29-2.93,6.95-5.17   c4.28-3.6,3.58-5.38,9.1-13.28c5.59-8,8.09-8.73,8.35-12.98c0.16-2.55-0.51-6.01-1.04-8.75c-0.51-2.64-1.06-4.53-0.81-7.29   c0.18-1.98,0.71-3.57,1.12-4.59c2.43-0.41,6.11-0.76,10.48-0.17c2.76,0.38,11.25,1.66,18.39,8.47c6.18,5.89,8.12,12.86,9.6,18.16   c0.37,1.32,0.97,5.04,2.16,12.46c1.2,7.49,1.4,9.76,1.05,12.72c-0.42,3.55-0.78,6.62-3,9.48c-2.87,3.71-5.95,3.32-7.46,6.93   c-0.52,1.23-0.43,3.12-0.24,6.84c0.35,6.8,1.05,7.14,0.88,10.54c-0.08,1.72-0.37,6.09-3.06,10.2c-2.56,3.91-4.44,3.18-6,6.69   c-1.63,3.69-0.36,6.31-2.51,8.08c-0.27,0.22-1.07,0.81-4.42,1.06c-2.96,0.22-5.73,0.01-9.33-0.64c-5.23-0.93-9.06-2.21-9.89-2.49   c-4.65-1.57-4.4-2.07-7.94-3.04c-4.01-1.1-4.69-0.56-8.97-1.69c-2.63-0.69-4.4-1.43-7.52-2.73c-6.76-2.82-6.64-3.64-10.25-4.6   C500.84,519.45,498.54,520.53,497.77,519z" />
        <path id="rightLateralCuneiform" fill="#878787" d="M495.98,448.73c0.89,0.88,2.15,2.24,3.43,4.09c2.5,3.62,2.19,4.97,3.92,7.83   c3.13,5.18,6.03,3.87,9.22,9.11c2.13,3.49,1.99,5.97,3.69,6.28c1.08,0.2,1.87-0.66,5.58-3.93c4.92-4.34,4.53-3.72,5.37-4.67   c2.79-3.15,1.85-4.05,5.14-9.29c1.03-1.64,2.6-3.69,5.74-7.8c3.04-3.98,3-3.73,3.27-4.32c1.97-4.35-1.02-6.91-1.06-13.63   c-0.03-4.83,1.47-8.71,3-12.64c0.79-2.03,1.09-2.39,4.15-9.29c2.88-6.51,3.06-7.2,2.79-8.15c-0.86-2.98-4.55-2.62-12.75-6.89   c-5.73-2.99-6.29-4.34-11.35-6.41c-3.74-1.52-7.01-2.24-9.16-2.61c-0.44,1.18-1.47,3.44-3.73,5.45c-1.87,1.67-3.79,2.45-4.94,2.82   c0.39,2.15,0.85,5.3,1.01,9.11c0.14,3.55-0.02,6.64-0.9,14.36c-1.04,9.19-1.56,13.79-2.06,15.34   C505.19,437.05,502.6,442.8,495.98,448.73z" />
        <path id="rightIntermediateCuneiform" fill="#878787" d="M468.55,380.65c-2.08,1.04-2.84,2.89-4.3,5.85   c-0.02,0.04-2.79,4.62-8.07,13.91c-4.91,8.63-5.81,7.38-7.86,12.49c-0.74,1.84-4.85,12.57-0.49,16.92c0.6,0.6,0.58,0.3,4.5,2.2   c4.25,2.06,5.07,2.81,8.97,4.75c2.45,1.22,4.21,1.97,6.94,3.13c4.08,1.73,7.11,3.02,10.82,4.2c7.5,2.37,11.25,3.56,14.62,2   c2.67-1.23,4.04-3.47,6-6.69c0.99-1.62,2.81-4.94,4.26-11.54c0.48-2.2,0.55-3.05,1.54-17.55c0.41-5.97,0.62-9.52-0.57-14.13   c-0.93-3.63-2.04-5.19-2.72-6.01c-1.08-1.3-2.67-2.62-8.97-4.75c-5.02-1.7-5.63-1.48-15.18-3.85   C472.45,380.18,470.64,379.6,468.55,380.65z" />
        <path id="rightMedialCuneiform" fill="#878787" d="M399.9,367.15c0.87-1.28,1.94-2.14,10.95-5.54c10.1-3.82,10.89-3.55,16.03-5.82   c6.05-2.67,6.3-3.63,12.06-5.8c6.29-2.37,9.51-3.51,12.46-2.16c5.04,2.3,6.43,9.94,6.68,11.32c0.5,2.73-0.04,3.2,0.71,7.37   c0.44,2.45,0.8,4.93,2.21,7.77c1.33,2.7,2.17,3.11,2.46,4.91c0.39,2.42-0.75,4.38-2.43,7.19c-5.27,8.77-7.56,12.15-7.56,12.15   c-4.1,5.12-5.53,8.15-6.25,9.56c-2.23,4.34-3.94,7.68-4.52,12.42c-0.52,4.26,0.31,6.13-1.35,8.18c-0.38,0.47-1.6,1.82-7.01,2.82   c-5.01,0.92-7.26,0.42-13.41,0.63c-3.75,0.13-6.21,0.22-9.47,0.98c-6.27,1.46-11.64,4.71-12.74,5.38c-3.96,2.4-5.47,4.1-6.44,3.5   c-1.25-0.78,0.03-4.37,0.87-8.95c0.65-3.52,0.31-3.68,0.58-15.92c0.29-12.99,0.39-19.5,1.35-23.7c1.45-6.33,2.63-6.97,3.28-12.71   C399.18,373.25,397.6,370.53,399.9,367.15z" />
        <path id="rightMetatarsal1" fill="#9D9D9C" d="M397.94,362.65c2.14,0.83,3.97-0.48,8.54-2.68c9.42-4.55,8.55-2.29,19.77-7.29   c8.57-3.82,10.42-5.73,16.85-7.01c3.99-0.79,7.27-1.39,10.45,0.19c6.42,3.2,6.98,12.88,7.05,14.33c0.21-1.54,0.71-3.76,1.98-6.14   c0.8-1.5,1.69-2.69,2.48-3.57c-1.06-2.25-2.55-5.47-4.23-9.39c-3.87-8.99-6.36-15.98-9.39-24.64c-5.57-15.89-8.36-23.84-8.65-24.94   c-3.37-13.02-4-23.47-4.92-38.69c-0.6-9.94-0.91-15.14-0.53-22.78c0.31-6.33,1.42-17.77,3.47-31.46c1.35-9,2.34-13.71-0.1-19.5   c-0.7-1.66-3.09-6.72-8.5-10.13c-3.25-2.04-7.12-2.52-14.86-3.47c-9.6-1.18-15.77-0.76-18.36-0.52c-5.42,0.49-7.99,1.31-9.17,1.72   c-2.49,0.87-6.31,2.22-9.52,5.66c-0.75,0.8-3.56,3.97-4.85,10.04c-1.93,9.08,1.16,17.01,2.51,20.79c4,11.23,4.11,23.48,6.3,35.2   c2.88,15.38,4.26,27.54,7.01,51.86c2.65,23.42,3.95,35.25,2.52,41.37c-0.19,0.8-1.81,7.63-1.08,16.51   C393.1,352.78,393.68,361,397.94,362.65z" />
        <path id="rightSesamoid" fill="#9D9D9C" d="M442.2,201.22c-0.75,4.56-1.14,7.98-1.57,11.77c-0.39,3.44-0.85,7.94-1.25,13.24   c1.8-0.2,4.73-0.81,7.21-2.98c4.17-3.65,4.26-9.28,4.35-14.69c0.07-3.89,0.08-7.94-2.57-11.86c-1.47-2.18-3.25-3.56-4.49-4.36   C443.41,194.53,442.8,197.57,442.2,201.22z" />
        <path id="rightMetatarsal2" fill="#9D9D9C" d="M466.35,352.21c-1.22,2.52-2.12,3.39-3.1,6.59c-1.71,5.53-0.68,10.86-0.68,10.86   c0.58,2.9,1.21,6.03,3.68,7.45c1.53,0.88,2.61,0.44,5.46,0.48c3.31,0.05,3.07,0.66,11.17,2.33c6.01,1.24,7,1.08,10.45,2.27   c1.76,0.61,3.69,1.27,5.91,2.59c2.04,1.22,5.09,3.46,7.83,7.45c1.71-0.92,4.8-2.91,6.89-6.62c1.89-3.36,2.03-6.47,2.14-10.01   c0.18-5.79-1.06-10.41-1.92-13.07c-2.32-7.1-5.51-10.9-8.07-14.96c-4.09-6.48-5.6-12.69-8.63-25.12   c-2.43-9.99-1.65-16.26-4.99-41.94c-2.57-19.75-3.12-35.91-3.06-47.55c0.08-16.38,0.12-24.57,2.85-32.59   c0.72-2.12,2.99-6.82,3.34-13.42c0.17-3.13-0.24-3.47-0.52-10.51c-0.38-9.56,0.32-10.1-0.73-12.33c-2.55-5.47-9.17-7.4-12.27-8.29   c-1.33-0.38-7.42-2.03-14.81,0.15c-3.41,1-9.27,2.73-12.25,7.95c-1.44,2.52-1.54,5.6-1.75,11.76c-0.14,4.12-0.27,7.86,0.73,12.33   c1.21,5.47,3.16,7.82,5.09,11.99c2.28,4.95,3.13,9.43,4.01,20.2c1.42,17.42,1.39,32.46,1.75,45.99   c0.39,14.61,0.67,24.96,1.99,39.15c1,10.82,0.27,21.75,1.12,32.58C468.3,342.18,468.82,347.09,466.35,352.21z" />
        <path id="rightMetatarsal3" fill="#9D9D9C" d="M517.67,174.07c-2.01,0.44-4.87,1.04-7.51,3.31c-3.07,2.65-3.97,5.93-5.3,11.09   c-1.11,4.28-2.38,9.23-1.35,15.4c1.04,6.18,3.14,6.04,4.34,12.29c0.94,4.88,0.22,7.32-0.66,15.82c-0.1,0.97-0.32,6.28-0.76,16.9   c-0.41,9.92-0.32,18.18-0.11,34.28c0.25,18.83,0.55,20.66,0.64,33.98c0.07,11.87-0.11,21.53-0.26,27.77   c1.83,2.02,4.05,4.83,6.12,8.48c2.73,4.83,3.93,8.95,4.32,10.39c1.47,5.39,1.55,9.72,1.54,11.23c-0.01,3.53-0.47,6.49-0.94,8.67   c2.39,0.46,6.08,1.36,10.27,3.24c3.75,1.69,5.43,3.05,12.39,6.86c7.34,4.02,9.46,4.69,10.95,3.76c0.29-0.18,1.15-0.8,2.05-4.87   c0.78-3.57,1.19-6.81,0.85-9.67c-1.22-10.13-3.01-15.06-3.01-15.06c-4.33-11.91-8.41-16.92-11.61-24.11   c-1.42-3.2-2.26-5.91-4.82-39.76c-1.94-25.61-1.28-21.7-2.12-29.42c-0.07-0.69-1.79-16.55-3.05-35.28   c-0.44-6.61-0.83-13.82,3.25-20.65c1.92-3.2,3.93-3.61,5.7-7.44c2-4.33,0.81-5.97,2-14.62c1.15-8.34,2.61-9.39,1.45-12.51   c-1.62-4.37-6.01-6.51-9.4-8.04C530.13,174.97,524.55,172.55,517.67,174.07z" />
        <path id="rightMetatarsal4" fill="#9D9D9C" d="M555.56,394.85c-0.71,2.99-1.88,6.16-2.84,8.77c-0.42,1.14-1.04,2.77-3.33,8.19   c-1.04,2.45-2.45,5.77-4.19,9.74c1.96-0.21,4.59-0.34,7.67-0.05c2.29,0.22,8.28,0.88,14.08,4.12c8.18,4.57,10.13,11.4,12.8,10.5   c1.26-0.43,1.27-2.1,2.87-8.05c2.3-8.55,3.14-8.32,3.54-11.6c0.27-2.25,0.26-5.5-4.03-15.87c-4.2-10.18-5.69-10.68-7.93-16.57   c-2.73-7.17-2.99-12.87-3.37-23.39c-0.47-12.99,0.53-22.8,0.82-25.91c2.04-21.74-0.7-41.09-1.47-49.21   c-0.71-7.5-2.02-18.62-0.54-30.91c0.96-7.96,1.63-13.02,5.48-17.21c1.67-1.82,3.86-3.4,4.92-6.79c1.22-3.9,0.23-7.91,0.04-8.66   c-0.75-2.89-1.75-3.46-2.3-6.7c-0.52-3.04,0.23-3.26-0.28-5.08c-1.07-3.8-5.19-5.78-9.08-7.65c-2.78-1.34-5.08-2.44-8.44-2.54   c-4.66-0.14-8.06,1.76-9.24,2.44c-4.7,2.71-6.8,6.74-8.01,9.04c-0.56,1.08-3.18,6.28-2.98,13.45c0.05,1.97,0.31,3.51,2.28,11.03   c1.88,7.14,3.41,12.44,3.56,12.94c2.19,7.62,1.35,12,1.26,26.82c-0.12,19.53,1.31,17.15,0.79,32.19   c-0.36,10.33-1.33,20.11-1.9,25.82c-0.56,5.68-1.14,10.45-1.58,13.94c1.97,3.46,4.57,8.43,7.02,14.69   c1.77,4.52,3.24,8.33,4.21,13.72C556.17,380.34,557.42,387.03,555.56,394.85z" />
        <path id="rightMetatarsal5" fill="#9D9D9C" d="M584.1,430.55c-0.83,2.9-1.22,3.99-1.71,5.08c-0.76,1.72-1.57,3.07-2.15,3.96   c0.88,1.73,2.08,4.35,3.12,7.67c0.47,1.51,0.93,3.22,2.4,11.76c0.91,5.3,1.37,8,1.61,10.43c0.71,7.18,0.14,9.98-0.04,10.82   c-0.41,1.86-1.29,5.09-4.11,7.76c-1.13,1.08-2.26,1.75-3.08,2.17c0.54,1.2,1.84,3.66,4.57,5.54c0.59,0.41,4.61,3.14,8.83,2.22   c1.25-0.27,4.59-1.31,8.97-9.68c5.72-10.94,6.26-21.09,6.34-22.91c0.12-2.87,0.12-7.72-2.82-21.36   c-3.69-17.14-5.96-17.25-7.48-27.9c-0.56-3.91-0.28-12.03,0.3-28.13c0.31-8.62,0.59-16.26,1.26-26.78   c0.52-8.14,0.49-5.75,2.2-27.24c0.83-10.4,3.05-20.68,3.44-31.1c0.16-4.23,0.19-8.92,3.32-13.24c2.93-4.04,5.49-3.53,8.63-7.91   c2.72-3.79,3.25-7.61,4.07-13.54c0.8-5.79,1.29-9.26-0.06-13.72c-0.52-1.72-2.55-8.1-8.7-11.95c-2.54-1.59-4.85-2.16-6.45-2.55   c-1.92-0.46-6.73-1.55-12.47,0.17c-5.39,1.62-8.64,4.83-10.12,6.33c-0.94,0.95-4.76,4.97-6.6,11.51c-0.87,3.09-1.65,5.86-0.8,9.13   c1.04,4,3.4,4.51,5.19,8.76c0.49,1.16,1.25,3.36,1.11,10.02c-0.12,5.66-0.79,9.46-1.99,16.61c-2.03,12.1-2.05,11.75-3.05,18.32   c-0.52,3.41-1.12,6.82-1.62,10.24c-0.46,3.15-0.89,6.34-2.1,10.55c-0.38,1.33-0.74,2.42-1,3.16c-0.48,5.59-0.55,10.34-0.5,13.94   c0.08,5.07,0.17,9.96,1.37,16.27c0.62,3.25,1.1,5.79,2.36,9.14c1.65,4.4,2.84,5.39,6.21,12.54c1.56,3.3,2.34,4.95,3.22,7.5   c1.75,5.01,2.98,8.68,2.2,13.01c-0.34,1.92-0.62,1.4-2,6.32C585.28,426.02,585.09,427.08,584.1,430.55z" />
        <path id="rightProximalPhalanx1" fill="#B2B2B2" d="M372.07,167.47c-0.71-2.93-0.29-5.47,0.07-7.03c1.13-4.83,3.43-7.6,5.45-10.71   c2.9-4.48,4.16-8.06,6.53-14.77c1.33-3.78,3.3-10.21,4.32-18.39c1.04-8.37,1.56-12.56,0.2-16.77c-1.73-5.38-4.55-7.22-4.01-11.9   c0.5-4.38,3.48-7.2,3.91-7.6c1.28-1.17,3.32-2.53,7.69-3.3c5.3-0.93,8.31,0.02,15.43,0.99c1.88,0.26,7.28,0.76,18.07,1.76   c7.27,0.68,10.31,0.9,12.69,3.46c2.36,2.54,2.69,5.9,2.81,7.1c0.32,3.25-0.59,5.67-2.75,10.77c-4.11,9.73-4.38,9.35-5.41,12.34   c-1.69,4.91-1.9,8.68-2.32,16.22c-0.46,8.23-0.69,12.34,0.53,16.65c2.51,8.89,4.75,13.77,4.75,13.77c0.16,0.35,1.06,2.29,1.37,4.99   c0.24,2.09,0.29,5.91-1.1,6.4c-0.92,0.32-1.88-1.01-3.57-2.48c-3.49-3.02-7.16-4.05-10.92-5.11c-2.13-0.6-4.93-0.83-10.54-1.28   c-3.25-0.26-5.52-0.35-10.06-0.52c-5.04-0.19-7.59-0.28-9.02-0.07c-3.56,0.53-6.07,1.67-9.67,3.3c-3.71,1.68-5.57,2.53-7.23,4.24   c-1.99,2.05-2.37,3.68-3.57,3.66C373.91,173.17,372.55,169.45,372.07,167.47z" />
        <path id="rightProximalPhalanx2" fill="#B2B2B2" d="M453.88,154.42c1.09-3.28,2.26-3.72,5.84-9.05c2.48-3.69,4.58-6.85,6.03-11.2   c0.59-1.76,0.93-3.86,1.6-7.98c0.87-5.37,1.59-9.84,1.93-15.89c0.37-6.58,0.55-9.86-0.13-13c-0.44-2.04-0.73-2.33-3.64-12.05   c-1.27-4.23-1.76-6-0.92-8.02c1.36-3.29,5.1-4.47,5.45-4.58c1.39-0.42,2.07-0.24,7.02,0.25c4.06,0.4,6.1,0.6,7.52,0.66   c5.87,0.23,7.16-0.65,8.79,0.59c1.8,1.37,2.07,3.84,2.32,6.52c0.46,4.88-0.63,8.64-1.09,10.37c-0.26,0.97,0.08-0.18-1.88,17.34   c-1.28,11.44-1.68,14.29-1.93,20.04c-0.35,8.01,0.08,10.49,0.55,12.32c1.19,4.69,2.66,5.56,4.09,11.01   c1.54,5.85,1.62,11.6,0.77,11.8c-0.52,0.12-0.9-1.96-2.86-4.4c-2.73-3.41-6.31-4.75-8.01-5.39c-3.98-1.5-7.26-1.36-11.45-1.18   c-3.27,0.14-5.95,0.25-9.34,1.53c-1.9,0.72-5.23,1.97-8.02,5.07c-1.92,2.13-2.44,3.87-3.03,3.7   C452.62,162.62,452.57,158.35,453.88,154.42z" />
        <path id="rightProximalPhalanx3" fill="#B2B2B2" d="M506.13,171.89c1.36-3.94,3.03-5.25,5.74-9.96c2.06-3.56,3.22-6.5,3.52-7.27   c2.14-5.5,2.71-10.11,3.27-14.69c0.5-4.09,0.58-7.15,0.62-9.15c0.11-4.94,0.16-7.41-0.52-10.51c-0.9-4.08-1.8-3.64-3.22-8.58   c-1.11-3.88-2.26-8.09-0.55-12.32c0.54-1.34,1.34-3.31,3.26-4.23c2.06-0.98,3.5,0.17,8.4,0.92c1.84,0.28,3.92,0.36,8.07,0.53   c5.94,0.23,7.17-0.06,8.57,1.11c2.08,1.74,2.19,4.77,2.22,5.61c0.1,2.68-1,4.44-2.03,6.68c-1.02,2.23-1.72,5.06-3.1,10.74   c-1.39,5.7-1.71,10.08-2.22,17.13c-0.36,4.95-0.41,8.7-0.43,11.15c-0.08,7.39-0.13,11.08,0.32,12.84   c1.34,5.28,4.11,8.61,4.94,15.77c0.08,0.7,0.27,2.54-0.43,2.85c-0.99,0.45-2.56-2.73-6.38-5.43c-2.6-1.84-5.01-2.58-6.77-3.12   c-2.13-0.66-5.39-1.63-9.64-1.2c-1.97,0.2-6.97,0.69-10.84,4.28c-2.18,2.02-2.99,4.08-3.58,3.84   C504.58,178.56,505.06,174.98,506.13,171.89z" />
        <path id="rightProximalPhalanx4" fill="#B2B2B2" d="M545.3,202.66c-1.38-0.81-0.35-5.43,0.95-8.76c2.15-5.52,4.46-5.96,7.89-11.76   c2.88-4.88,4.03-9.29,4.89-12.57c0.29-1.11,0.86-4.85,1.98-12.28c1.27-8.41,1.39-9.25,0.94-10.75c-1.21-4.01-3.64-4.61-4.77-9.44   c-0.14-0.58-1.41-4.24,0.33-7.91c0.2-0.43,1.76-3.58,5.21-4.87c1.29-0.48,2-0.39,8.01,0.25c6.07,0.65,7.23,0.77,9.27,1.35   c2.97,0.85,4.45,1.28,5.38,2.46c0.71,0.9,1.77,2.93-0.4,10.79c-1.47,5.3-2.55,6.52-3.79,10.32c-1.1,3.36-1.36,7.36-1.88,15.35   c-0.53,8.09-0.79,12.14-0.41,17.11c0.4,5.22,1.06,7.02,1.46,14.2c0.57,10.06-0.47,10.96-0.97,11.1c-1.01,0.29-1.68-1.98-5.01-4.59   c-2.99-2.34-6.01-3.28-8.14-3.96c-2.45-0.78-4.09-1.3-6.38-1.28c-3.75,0.03-6.8,1.47-8.88,2.47   C547.26,201.69,546.18,203.17,545.3,202.66z" />
        <path id="rightProximalPhalanx5" fill="#B2B2B2" d="M583.92,235.63c0.45-1.98,1.3-3.36,1.6-3.83c2.89-4.58,5.64-5.61,8.16-8.67   c2.04-2.47,2.86-5.73,4.5-12.24c0.92-3.64,1.25-6.22,1.88-11.2c0.61-4.81,0.91-7.26,0.46-9.34c-0.85-3.88-2.45-4.14-3.25-8.22   c-0.37-1.88-1.23-6.25,1.11-8.57c1.44-1.43,3.48-1.47,7.17-1.54c4.71-0.09,5.41,1.06,8.81,0.41c2.66-0.51,2.89-1.35,5.37-1.52   c1.02-0.07,4.32-0.3,6.19,1.44c2.2,2.05,1.49,5.96,0.46,11.23c-1.33,6.84-2.91,7.9-3.96,14.27c-0.1,0.61-0.27,3.47-0.62,9.15   c-0.69,11.36-0.72,12.88-0.6,15.11c0.13,2.45,0.3,5.58,1.14,9.66c0.9,4.36,1.87,6.45,1.96,10.64c0.01,0.29,0.1,6.48-1.31,6.74   c-0.87,0.16-1.33-2.1-3.73-4.84c-2.35-2.69-4.95-4-7.65-5.36c-2.79-1.41-4.9-2.47-7.87-2.85c-6.12-0.79-11.51,1.87-13.04,2.65   c-3.5,1.78-5.02,3.59-6.21,2.89C582.81,240.65,583.86,235.9,583.92,235.63z" />
        <path id="rightMiddlePhalanx2" fill="#C6C6C6" d="M464.51,71.07c-0.68-0.68-0.17-2,1.57-7.62c1.62-5.24,1.65-5.63,1.62-6.17   c-0.19-3.18-2.25-3.59-3.98-8.11c-0.96-2.51-2.22-5.78-0.73-8.18c1.71-2.77,6.13-2.9,7.66-2.94c2.36-0.07,2.36,0.54,6.24,0.91   c3.58,0.34,4.08-0.13,7.37,0.28c3.32,0.42,4.98,0.63,5.98,1.79c1.31,1.52,0.94,3.87,0.16,8.5c-1.01,5.97-2.1,6.52-1.5,8.89   c0.45,1.75,1.79,3.41,4.47,6.71c1.49,1.83,2.66,3,3.16,5.15c0.29,1.25,0.45,3.21-0.31,3.58c-0.81,0.39-1.68-1.51-4.11-2.53   c-1.9-0.79-2.91-0.27-7.02-0.25c-0.94,0-0.32-0.03-6.1-0.35c-5.39-0.31-8.11-0.45-9.36-0.28   C466.37,70.89,465.22,71.79,464.51,71.07z" />
        <path id="rightMiddlePhalanx3" fill="#C6C6C6" d="M518.64,56.68c-1.99,1.58-1.84,4.85-1.79,5.98c0.13,2.86,1.31,3.08,2.14,6.5   c0.64,2.65,0.45,4.96,0.07,9.57c-0.23,2.79-0.35,4.18-0.81,5.16c-1.24,2.63-3.1,3.05-3.76,5.81c-0.08,0.35-0.63,2.65,0.42,3.47   c0.79,0.61,1.84-0.12,3.91-0.29c1.78-0.15,2.83,0.25,4.72,0.68c2.48,0.57,4.48,0.75,8.48,1.1c7.5,0.66,9.25-0.34,11.78,1.48   c0.79,0.57,1.59,1.37,2.25,1.1c1.17-0.49,0.78-3.91,0.68-4.72c-0.63-5.47-3.18-6.6-4.25-11.2c-0.69-2.97-0.34-5.46,0.37-10.43   c0.88-6.18,2.37-8.7,0.76-10.76c-1-1.28-2.64-1.69-4.86-2.23c-2.2-0.54-2.98-0.22-6.45-0.56c-2.56-0.25-2.34-0.45-5.34-0.83   C522.3,55.91,519.95,55.64,518.64,56.68z" />
        <path id="rightMiddlePhalanx4" fill="#C6C6C6" d="M558.49,92.11c-0.16,0.15-2.52,2.4-2.28,5.4c0.21,2.6,2.15,2.76,3.6,6.27   c0.93,2.25,0.94,4.15,0.97,7.48c0.03,3.31,0.04,4.96-0.94,6.6c-1.03,1.72-2.23,1.75-3.03,3.7c-0.73,1.79-0.63,3.87-0.08,4.05   c0.4,0.13,0.81-0.8,1.87-1.73c1.44-1.27,3.03-1.61,4.68-1.94c2.64-0.53,4.73-0.25,8.81,0.32c3.96,0.55,5.93,0.88,8.24,1.71   c2.67,0.97,4.16,1.96,4.85,1.33c0.19-0.18,0.34-0.49-0.5-4.56c-0.52-2.53-0.84-3.78-1.01-4.42c-0.46-1.71-0.7-2.23-0.82-3.5   c-0.42-4.21,1.63-4.55,1.77-9.95c0.08-2.75,0.15-5.6-1.67-7.73c-0.57-0.67-1.32-1.25-7.86-3.03c-4.45-1.21-6.71-1.82-8.86-1.86   C563.31,90.21,560.6,90.16,558.49,92.11z" />
        <path id="rightMiddlePhalanx5" fill="#C6C6C6" d="M597.49,167.16c0.34-3.31,0.73-5.02,0.94-6.6c0.58-4.26-0.43-4.87,0.55-6.27   c1.26-1.8,3.82-2.07,6.34-2.33c2.71-0.28,3.1,0.23,7.54,0.48c5.31,0.29,6.22-0.36,8.24,0.72c0.46,0.25,3.11,1.67,3.77,4.3   c0.44,1.77-0.44,2.38,0.08,5.24c0.22,1.21,0.49,1.71,0.47,2.93c-0.02,0.93-0.05,2.56-1,3.16c-0.92,0.58-1.71-0.45-3.75-0.51   c-1.57-0.05-1.79,0.54-4.81,1.38c-1.56,0.44-2.89,0.8-4.59,0.86c-2.73,0.09-2.7-0.75-5.36-0.65c-0.83,0.03-0.85,0.12-5.29,0.62   c-1.43,0.16-2.16,0.23-2.69-0.24C597.27,169.67,597.35,168.58,597.49,167.16z" />
        <path id="rightDistalPhalanx1" fill="#DADADA" d="M383.71,80.87c0.26-1.65,1.04-6.57,5.22-10.19c3.74-3.24,5.67-1.52,9.93-4.18   c5.23-3.27,7.28-8.97,8.71-12.95c2.62-7.28,0.54-8.97,3.36-15.77c1.19-2.87,3.01-7.23,7.42-10.54c1.21-0.91,8.68-6.28,17.62-3.33   c6.27,2.07,11.16,7.55,12.17,13.52c0.61,3.59-0.29,6.74-0.72,8.24c-1.44,5.04-3.56,5.45-5.24,10.37   c-0.61,1.79-2.14,6.28-0.79,11.12c0.6,2.15,2.34,4.73,5.81,9.89c2.59,3.84,3.8,5.24,3.51,7.34c-0.37,2.66-2.93,4.92-3.83,4.54   c-0.64-0.28-0.06-1.75-0.58-3.66c-0.91-3.29-4.33-5.03-6.16-5.95c-1.35-0.69-3.31-1.47-10.99-2.23c-7.24-0.71-7.41-0.2-12.55-0.92   c-4.56-0.64-5.1-1.14-9.61-1.56c-5.17-0.49-7.98-0.16-8.84-0.05c-3.12,0.4-5.29,0.68-7.58,2.04c-4.38,2.61-5.86,7.19-6.73,6.81   C383.35,83.2,383.59,81.62,383.71,80.87z" />
        <path id="rightDistalPhalanx2" fill="#DADADA" d="M462.11,36.57c-0.45-0.92,1.28-2.27,2.91-4.44c0.98-1.3,3.49-4.61,3.62-8.35   c0.12-3.38-1.81-3.91-1.39-6.8c0.49-3.34,3.47-5.42,4.3-6c4.9-3.43,10.77-1.69,11.89-1.36c1.42,0.42,5.75,1.7,7.78,5.67   c0.33,0.65,1.69,3.29,0.75,5.84c-0.43,1.18-0.95,1.23-2.24,2.87c-1.17,1.49-3.93,5.01-3.02,7.68c0.41,1.19,1.14,1.03,2.58,3.47   c0.68,1.15,1.43,2.42,1,2.98c-0.39,0.51-1.51,0.07-3.58-0.31c-1.77-0.33-1.17-0.04-5.55-0.49c-3.49-0.36-3.67-0.52-6.43-0.74   c-2.49-0.2-3.74-0.31-4.49-0.21c-2.48,0.31-3.81,1.22-6.39,0.88C462.39,37.08,462.17,36.69,462.11,36.57z" />
        <path id="rightDistalPhalanx3" fill="#DADADA" d="M517.43,52.96c0.72-2.38,3.08-2.37,4.56-4.65c0.88-1.36,0.91-2.71,0.96-4.79   c0.09-3.86-1.36-4.46-1.13-7.68c0.06-0.85,0.29-3.55,2.32-5.93c0.47-0.55,2.25-2.57,5.33-3.14c3.51-0.65,6.19,1.04,6.91,1.51   c0.54,0.35,3.95,2.66,4.32,6.33c0.3,2.96-1.7,3.64-1.75,7.61c-0.01,0.99-0.04,3.17,1.16,5.33c1.51,2.73,3.36,2.55,4.77,5.29   c1.02,1.98,1.38,4.63,0.44,5.27c-0.78,0.53-1.86-0.77-4.73-1.68c-1.92-0.61-2.18-0.26-6.43-0.74c-2.23-0.25-4.12-0.57-7.03-1.07   c-4.03-0.68-4.9-0.95-6.37-0.47c-1.51,0.5-2.54,1.43-3.15,0.99C517.09,54.77,517.22,53.67,517.43,52.96z" />
        <path id="rightDistalPhalanx4" fill="#DADADA" d="M555.21,87.4c0.08-0.91,0.19-2.07,0.83-3.36c1.08-2.16,2.31-1.98,2.84-3.54   c0.42-1.25-0.28-1.68-0.99-5.14c-0.5-2.42-0.75-3.63-0.46-5.09c0.54-2.65,2.51-4.28,2.93-4.62c2.94-2.34,7.01-2.15,9.83-0.94   c4.55,1.94,5.98,6.6,6.21,7.4c1.06,3.69-0.73,4.79,0.55,8.17c0.99,2.63,2.26,2.47,4.86,6.38c1.95,2.94,3.7,6.73,2.97,7.3   c-0.42,0.33-1.36-0.67-3.8-1.96c-2.14-1.13-3.82-1.63-6.29-2.35c-2.6-0.77-4.79-1.42-7.8-1.58c-2.93-0.16-4.72-0.26-6.74,0.67   c-2.54,1.18-3.5,3.1-4.39,2.68C554.87,91,555.08,88.7,555.21,87.4z" />
        <path id="rightDistalPhalanx5" fill="#DADADA" d="M598.87,151.4c-0.85-0.63,0.1-4.03,1.85-6.7c1.64-2.49,2.99-2.82,3.3-4.76   c0.22-1.33-0.31-1.83-0.91-4.05c-0.69-2.54-1.5-5.58-0.37-8.15c0.99-2.25,3.42-4.03,6.15-4.33c3.26-0.37,6.31,1.43,7.61,3.73   c1.05,1.86,0.88,4.02,0.53,8.35c-0.25,3.15-0.67,3.54-0.24,4.85c0.77,2.35,2.48,2.33,4.59,5.27c1.76,2.46,2.85,5.68,2.06,6.32   c-0.47,0.38-1.25-0.46-3.15-1.09c-2.94-0.96-3.75,0.18-8.01-0.25c-3.04-0.3-3.17-0.91-5.7-0.86c-2.52,0.05-4.57,0.68-4.57,0.68   C599.95,151.05,599.32,151.73,598.87,151.4z" />
        <path id="leftTalus" fill="#878787" d="M263.39,519.36c-3.43-4.6-7.64-8.9-13.43-13.26c-6.53-4.92-12.92-9.79-22.35-12.12   c-8.92-2.2-15.85-1.11-25.59,0.43c-8.28,1.31-19.01,3.12-30.11,10.57c-4.44,2.98-9.01,4.56-10.41,8.85   c-0.82,2.49-0.07,3.73,0.52,10.06c0.39,4.21,0.87,9.38,0.18,14.42c-0.26,1.9-1.25,8.51-5.58,14.56   c-4.02,5.61-6.48,4.55-14.52,11.38c-5.99,5.09-11.61,9.86-13.63,17.43c-1.4,5.26,0.41,6.31-1.44,12.4   c-1.89,6.18-4.18,6.46-6.81,12.87c-1.27,3.1-4.33,10.52-2.11,17.15c1.73,5.15,5.7,7.01,11.45,11.27   c3.58,2.65,10.07,9.76,23.03,23.97c16.73,18.34,19.98,22.07,19.98,22.07c8.5,9.77,11.12,13.28,16.39,14.09   c6.39,0.97,12.27-2.73,18.54-6.68c6.96-4.38,6.72-6.36,14.52-11.38c4.19-2.69,5.36-2.83,14.51-7.41   c11.06-5.53,16.58-8.29,18.26-9.9c10.75-10.31,9.79-27.36,9.64-30.08c-0.23-4.11-1.34-8.05-3.56-15.93   c-4.16-14.79-6.4-15.41-7.86-23.85c-1.61-9.31-0.31-16.69,1.09-24.64c1.95-11.05,2.93-16.57,7.46-21.95   c4.01-4.75,7.29-5.23,8.2-9.38C270.82,529.46,267.49,524.87,263.39,519.36z" />
        <path id="leftCalcaneus" fill="#878787" d="M232.56,674.45c1.98,3.85,4.21,9.21,5.36,15.86c0.51,2.95,0.54,4.33,0.55,18.72   c0.01,14.23,0.08,15.08-0.64,17.38c-1.58,5-3.22,5.08-9.17,14.88c-5.73,9.44-4.8,10.33-7.8,14.04c-2.55,3.15-5.62,5.46-21.36,11.61   c-16.93,6.62-25.53,9.9-32.09,8.58c-1.7-0.34-10.19-2.21-16.34-9.4c-5.23-6.1-5.69-12.44-7.28-21.38   c-1.47-8.26-4.32-17.48-10-35.94c-5.93-19.25-8.9-28.88-13.68-36.7c-5.21-8.52-9.2-11.97-10.06-20.05   c-0.91-8.55,2.78-12.01,0.13-19.14c-2.47-6.66-6.44-5.67-10.21-13.54c-0.9-1.88-4.58-9.57-2.67-18.17   c1.47-6.61,4.96-8.04,4.28-13.01c-0.58-4.2-3.24-4.41-5.92-9.95c-2.58-5.33-2.52-10.5-2.58-17.1c-0.05-6.28,0.81-5.99,0.34-10.5   c-0.67-6.41-2.72-9.84-1-11.46c1.08-1.02,2.56-0.29,6.12-0.17c3.13,0.1,5.65-0.48,10.68-1.66c6.79-1.58,6.8-2.51,14.05-4.48   c7.17-1.94,6.97-0.97,12.04-2.68c5.89-1.98,7.08-3.61,12.86-5.64c4.51-1.58,8.39-2.2,10.88-2.49c0.64,2.28,1.39,5.78,1.33,10.08   c-0.03,2.43-0.16,12.71-7.11,20.83c-0.81,0.95-0.29,0.21-12,9.26c-6.66,5.15-8.66,6.81-10.78,9.88c-2.9,4.2-4.07,8.23-4.47,9.77   c-1.5,5.8,0.2,6.41-1.1,11.1c-1.64,5.92-4.61,5.91-7.74,13.58c-0.96,2.35-2.12,5.26-2.35,9.23c-0.12,2.11-0.49,8.37,3.27,13.61   c2.36,3.29,4.02,2.93,9.89,7.8c0.71,0.59,2.53,2.13,8,7.87c5.4,5.68,7.69,8.52,13.59,15.05c8.32,9.22,7.84,8.43,12.78,14.04   c4.02,4.57,8.12,9.08,12.03,13.75c5.28,6.29,7.02,8.74,10.89,9.97c3.94,1.25,7.51,0.42,10.53-0.29c5.41-1.26,9.05-3.77,13.3-6.76   c5.87-4.12,6.55-5.9,11.96-9.8C225.62,677.76,229.78,675.69,232.56,674.45z" />
        <path id="leftNavicular" fill="#878787" d="M266.39,448.53c3.78,3.52,6.34,7.54,11.47,15.6c4.29,6.74,6.45,10.19,7.41,14.51   c0.5,2.25,1.78,8.45-0.8,15.59c-0.58,1.62-3.81,10.55-12.81,14.47c-1.88,0.82-3.6,1.57-6,1.61c-7.55,0.12-9.77-7.09-21.47-14.36   c-2.63-1.64-7.12-4.38-13.52-6.04c-6.13-1.59-10.88-1.36-17.77-0.97c-6.18,0.35-13.96,0.78-23.84,3.89   c-12.19,3.83-20.17,9.4-21.81,10.57c-3.94,2.8-6.96,5.55-9.08,7.65c-0.94-1.79-2.39-4.67-3.98-8.31   c-2.84-6.54-2.54-7.33-4.58-11.15c-2.93-5.47-4.53-5.68-5.53-9.62c-0.33-1.31-1.2-4.7,0-8.3c1.54-4.64,4.75-4.39,9.57-10.22   c4.58-5.54,3.32-7.74,7.36-10.75c2-1.48,2.88-1.37,10.14-3.77c4-1.32,7.93-2.86,11.9-4.29c13.81-4.98,14.52-5.33,15.71-6.07   c2.49-1.54,4.3-3.05,7.92-4.3c1.35-0.47,3.87-1.32,7.1-1.34c3.4-0.02,5.09,0.89,8.46,1.79c4.12,1.09,4.9,0.6,12.76,1.41   c7.04,0.73,10.55,1.09,13.89,2.03C257.84,440.69,263.74,446.06,266.39,448.53z" />
        <path id="leftCuboid" fill="#878787" d="M158.14,519c0.62-1.23-0.59-2.51-4.52-10.43c-0.37-0.74-0.91-1.82-1.5-3.32   c-0.94-2.4-1.14-3.8-3.57-9.23c-1.84-4.13-3.32-7.4-6.05-11.38c-1.35-1.96-3.41-4.93-6.84-8.06c-3.26-2.97-4.29-2.93-6.95-5.17   c-4.28-3.6-3.58-5.38-9.1-13.28c-5.59-8-8.09-8.73-8.35-12.98c-0.16-2.55,0.51-6.01,1.04-8.75c0.51-2.64,1.06-4.53,0.81-7.29   c-0.19-1.98-0.71-3.57-1.12-4.59c-2.43-0.41-6.11-0.76-10.48-0.17c-2.76,0.38-11.25,1.66-18.39,8.47   c-6.18,5.89-8.12,12.86-9.6,18.16c-0.37,1.32-0.97,5.04-2.16,12.46c-1.2,7.49-1.4,9.76-1.05,12.72c0.42,3.55,0.78,6.62,3,9.48   c2.87,3.71,5.95,3.32,7.46,6.93c0.52,1.23,0.43,3.12,0.24,6.84c-0.35,6.8-1.05,7.14-0.88,10.54c0.08,1.72,0.37,6.09,3.06,10.2   c2.56,3.91,4.44,3.18,6,6.69c1.63,3.69,0.36,6.31,2.51,8.08c0.27,0.22,1.07,0.81,4.42,1.06c2.96,0.22,5.73,0.01,9.33-0.64   c5.23-0.93,9.06-2.21,9.89-2.49c4.65-1.57,4.4-2.07,7.94-3.04c4.01-1.1,4.69-0.56,8.97-1.69c2.63-0.69,4.4-1.43,7.52-2.73   c6.76-2.82,6.64-3.64,10.25-4.6C155.08,519.45,157.38,520.53,158.14,519z" />
        <path id="leftLateralCuneiform" fill="#878787" d="M159.94,448.73c-0.89,0.88-2.15,2.24-3.43,4.09c-2.5,3.62-2.19,4.97-3.92,7.83   c-3.13,5.18-6.03,3.87-9.22,9.11c-2.13,3.49-1.99,5.97-3.69,6.28c-1.08,0.2-1.87-0.66-5.58-3.93c-4.92-4.34-4.53-3.72-5.37-4.67   c-2.79-3.15-1.85-4.05-5.14-9.29c-1.03-1.64-2.6-3.69-5.74-7.8c-3.04-3.98-3-3.73-3.27-4.32c-1.97-4.35,1.02-6.91,1.06-13.63   c0.03-4.83-1.47-8.71-3-12.64c-0.79-2.03-1.09-2.39-4.15-9.29c-2.88-6.51-3.06-7.2-2.79-8.15c0.86-2.98,4.55-2.62,12.75-6.89   c5.73-2.99,6.29-4.34,11.35-6.41c3.74-1.52,7.01-2.24,9.16-2.61c0.44,1.18,1.47,3.44,3.73,5.45c1.87,1.67,3.79,2.45,4.94,2.82   c-0.39,2.15-0.85,5.3-1.01,9.11c-0.14,3.55,0.02,6.64,0.9,14.36c1.04,9.19,1.56,13.79,2.06,15.34   C150.73,437.05,153.32,442.8,159.94,448.73z" />
        <path id="leftIntermediateCuneiform" fill="#878787" d="M187.37,380.65c2.08,1.04,2.84,2.89,4.3,5.85   c0.02,0.04,2.79,4.62,8.07,13.91c4.91,8.63,5.81,7.38,7.86,12.49c0.74,1.84,4.85,12.57,0.49,16.92c-0.6,0.6-0.58,0.3-4.5,2.2   c-4.25,2.06-5.07,2.81-8.97,4.75c-2.45,1.22-4.21,1.97-6.94,3.13c-4.08,1.73-7.11,3.02-10.82,4.2c-7.5,2.37-11.25,3.56-14.62,2   c-2.67-1.23-4.04-3.47-6-6.69c-0.99-1.62-2.81-4.94-4.26-11.54c-0.48-2.2-0.55-3.05-1.54-17.55c-0.41-5.97-0.62-9.52,0.57-14.13   c0.93-3.63,2.04-5.19,2.72-6.01c1.08-1.3,2.67-2.62,8.97-4.75c5.02-1.7,5.63-1.48,15.18-3.85   C183.47,380.18,185.28,379.6,187.37,380.65z" />
        <path id="leftMedialCuneiform" fill="#878787" d="M256.02,367.15c-0.87-1.28-1.94-2.14-10.95-5.54   c-10.1-3.82-10.89-3.55-16.03-5.82c-6.05-2.67-6.3-3.63-12.06-5.8c-6.29-2.37-9.51-3.51-12.46-2.16c-5.04,2.3-6.43,9.94-6.68,11.32   c-0.5,2.73,0.04,3.2-0.71,7.37c-0.44,2.45-0.8,4.93-2.21,7.77c-1.33,2.7-2.17,3.11-2.46,4.91c-0.39,2.42,0.75,4.38,2.43,7.19   c5.27,8.77,7.56,12.15,7.56,12.15c4.1,5.12,5.53,8.15,6.25,9.56c2.23,4.34,3.94,7.68,4.52,12.42c0.52,4.26-0.31,6.13,1.35,8.18   c0.38,0.47,1.6,1.82,7.01,2.82c5.01,0.92,7.26,0.42,13.41,0.63c3.75,0.13,6.21,0.22,9.47,0.98c6.27,1.46,11.64,4.71,12.74,5.38   c3.96,2.4,5.47,4.1,6.44,3.5c1.25-0.78-0.03-4.37-0.87-8.95c-0.65-3.52-0.31-3.68-0.58-15.92c-0.29-12.99-0.39-19.5-1.35-23.7   c-1.45-6.33-2.63-6.97-3.28-12.71C256.73,373.25,258.32,370.53,256.02,367.15z" />
        <path id="leftMetatarsal1" fill="#9D9D9C" d="M257.98,362.65c-2.14,0.83-3.97-0.48-8.54-2.68c-9.42-4.55-8.55-2.29-19.77-7.29   c-8.57-3.82-10.42-5.73-16.85-7.01c-3.99-0.79-7.27-1.39-10.45,0.19c-6.42,3.2-6.98,12.88-7.05,14.33   c-0.21-1.54-0.71-3.76-1.98-6.14c-0.8-1.5-1.69-2.69-2.48-3.57c1.06-2.25,2.55-5.47,4.23-9.39c3.87-8.99,6.36-15.98,9.39-24.64   c5.57-15.89,8.36-23.84,8.65-24.94c3.37-13.02,4-23.47,4.92-38.69c0.6-9.94,0.91-15.14,0.53-22.78   c-0.31-6.33-1.42-17.77-3.47-31.46c-1.35-9-2.34-13.71,0.1-19.5c0.7-1.66,3.09-6.72,8.5-10.13c3.25-2.04,7.12-2.52,14.86-3.47   c9.6-1.18,15.77-0.76,18.36-0.52c5.42,0.49,7.99,1.31,9.17,1.72c2.49,0.87,6.31,2.22,9.52,5.66c0.75,0.8,3.56,3.97,4.85,10.04   c1.93,9.08-1.16,17.01-2.51,20.79c-4,11.23-4.11,23.48-6.3,35.2c-2.88,15.38-4.26,27.54-7.01,51.86   c-2.65,23.42-3.95,35.25-2.52,41.37c0.19,0.8,1.81,7.63,1.08,16.51C262.82,352.78,262.24,361,257.98,362.65z" />
        <path id="leftSesamoid" fill="#9D9D9C" d="M213.72,201.22c0.75,4.56,1.14,7.98,1.57,11.77c0.39,3.44,0.85,7.94,1.25,13.24   c-1.8-0.2-4.73-0.81-7.21-2.98c-4.17-3.65-4.26-9.28-4.35-14.69c-0.07-3.89-0.08-7.94,2.57-11.86c1.47-2.18,3.25-3.56,4.49-4.36   C212.51,194.53,213.12,197.57,213.72,201.22z" />
        <path id="leftMetatarsal2" fill="#9D9D9C" d="M189.57,352.21c1.22,2.52,2.12,3.39,3.1,6.59c1.71,5.53,0.68,10.86,0.68,10.86   c-0.58,2.9-1.21,6.03-3.68,7.45c-1.53,0.88-2.61,0.44-5.46,0.48c-3.31,0.05-3.07,0.66-11.17,2.33c-6.01,1.24-7,1.08-10.45,2.27   c-1.76,0.61-3.69,1.27-5.91,2.59c-2.04,1.22-5.09,3.46-7.83,7.45c-1.71-0.92-4.8-2.91-6.89-6.62c-1.89-3.36-2.03-6.47-2.14-10.01   c-0.18-5.79,1.06-10.41,1.92-13.07c2.32-7.1,5.51-10.9,8.07-14.96c4.09-6.48,5.6-12.69,8.63-25.12c2.43-9.99,1.65-16.26,4.99-41.94   c2.57-19.75,3.12-35.91,3.06-47.55c-0.08-16.38-0.12-24.57-2.85-32.59c-0.72-2.12-2.99-6.82-3.34-13.42   c-0.17-3.13,0.24-3.47,0.52-10.51c0.38-9.56-0.32-10.1,0.73-12.33c2.55-5.47,9.17-7.4,12.27-8.29c1.33-0.38,7.42-2.03,14.81,0.15   c3.41,1,9.27,2.73,12.25,7.95c1.44,2.52,1.54,5.6,1.75,11.76c0.14,4.12,0.27,7.86-0.73,12.33c-1.21,5.47-3.16,7.82-5.09,11.99   c-2.28,4.95-3.13,9.43-4.01,20.2c-1.42,17.42-1.39,32.46-1.75,45.99c-0.39,14.61-0.67,24.96-1.99,39.15   c-1,10.82-0.27,21.75-1.12,32.58C187.62,342.18,187.1,347.09,189.57,352.21z" />
        <path id="leftMetatarsal3" fill="#9D9D9C" d="M138.25,174.07c2.01,0.44,4.87,1.04,7.51,3.31c3.07,2.65,3.97,5.93,5.3,11.09   c1.11,4.28,2.38,9.23,1.35,15.4c-1.04,6.18-3.14,6.04-4.34,12.29c-0.94,4.88-0.22,7.32,0.66,15.82c0.1,0.97,0.32,6.28,0.76,16.9   c0.41,9.92,0.32,18.18,0.11,34.28c-0.25,18.83-0.55,20.66-0.64,33.98c-0.07,11.87,0.11,21.53,0.26,27.77   c-1.83,2.02-4.05,4.83-6.12,8.48c-2.73,4.83-3.93,8.95-4.32,10.39c-1.47,5.39-1.55,9.72-1.54,11.23c0.01,3.53,0.47,6.49,0.94,8.67   c-2.39,0.46-6.08,1.36-10.27,3.24c-3.75,1.69-5.43,3.05-12.39,6.86c-7.34,4.02-9.46,4.69-10.95,3.76c-0.29-0.18-1.15-0.8-2.05-4.87   c-0.78-3.57-1.19-6.81-0.85-9.67c1.22-10.13,3.01-15.06,3.01-15.06c4.33-11.91,8.41-16.92,11.61-24.11   c1.42-3.2,2.26-5.91,4.82-39.76c1.94-25.61,1.28-21.7,2.12-29.42c0.07-0.69,1.79-16.55,3.05-35.28c0.44-6.61,0.83-13.82-3.25-20.65   c-1.92-3.2-3.93-3.61-5.7-7.44c-2-4.33-0.81-5.97-2-14.62c-1.15-8.34-2.61-9.39-1.45-12.51c1.62-4.37,6.01-6.51,9.4-8.04   C125.79,174.97,131.36,172.55,138.25,174.07z" />
        <path id="leftMetatarsal4" fill="#9D9D9C" d="M100.36,394.85c0.71,2.99,1.88,6.16,2.84,8.77c0.42,1.14,1.04,2.77,3.33,8.19   c1.04,2.45,2.45,5.77,4.19,9.74c-1.96-0.21-4.59-0.34-7.67-0.05c-2.29,0.22-8.28,0.88-14.08,4.12c-8.18,4.57-10.13,11.4-12.8,10.5   c-1.26-0.43-1.27-2.1-2.87-8.05c-2.3-8.55-3.14-8.32-3.54-11.6c-0.27-2.25-0.26-5.5,4.03-15.87c4.2-10.18,5.69-10.68,7.93-16.57   c2.73-7.17,2.99-12.87,3.37-23.39c0.47-12.99-0.53-22.8-0.82-25.91c-2.04-21.74,0.7-41.09,1.47-49.21   c0.71-7.5,2.02-18.62,0.54-30.91c-0.96-7.96-1.63-13.02-5.48-17.21c-1.67-1.82-3.86-3.4-4.92-6.79c-1.22-3.9-0.23-7.91-0.04-8.66   c0.75-2.89,1.75-3.46,2.3-6.7c0.52-3.04-0.23-3.26,0.28-5.08c1.07-3.8,5.19-5.78,9.08-7.65c2.78-1.34,5.08-2.44,8.44-2.54   c4.66-0.14,8.06,1.76,9.24,2.44c4.7,2.71,6.8,6.74,8.01,9.04c0.56,1.08,3.18,6.28,2.98,13.45c-0.05,1.97-0.31,3.51-2.28,11.03   c-1.88,7.14-3.41,12.44-3.56,12.94c-2.19,7.62-1.35,12-1.26,26.82c0.12,19.53-1.31,17.15-0.79,32.19   c0.36,10.33,1.33,20.11,1.9,25.82c0.56,5.68,1.14,10.45,1.58,13.94c-1.97,3.46-4.56,8.43-7.02,14.69   c-1.77,4.52-3.24,8.33-4.21,13.72C99.75,380.34,98.5,387.03,100.36,394.85z" />
        <path id="leftMetatarsal5" fill="#9D9D9C" d="M71.81,430.55c0.83,2.9,1.22,3.99,1.71,5.08c0.76,1.72,1.57,3.07,2.15,3.96   c-0.88,1.73-2.08,4.35-3.12,7.67c-0.47,1.51-0.93,3.22-2.4,11.76c-0.91,5.3-1.37,8-1.61,10.43c-0.71,7.18-0.14,9.98,0.04,10.82   c0.41,1.86,1.29,5.09,4.11,7.76c1.13,1.08,2.26,1.75,3.08,2.17c-0.54,1.2-1.84,3.66-4.57,5.54c-0.59,0.41-4.61,3.14-8.83,2.22   c-1.25-0.27-4.59-1.31-8.97-9.68c-5.72-10.94-6.26-21.09-6.34-22.91c-0.12-2.87-0.12-7.72,2.82-21.36   c3.69-17.14,5.96-17.25,7.48-27.9c0.56-3.91,0.28-12.03-0.3-28.13c-0.31-8.62-0.59-16.26-1.26-26.78   c-0.52-8.14-0.49-5.75-2.2-27.24c-0.83-10.4-3.05-20.68-3.44-31.1c-0.16-4.23-0.19-8.92-3.32-13.24c-2.93-4.04-5.5-3.53-8.63-7.91   c-2.72-3.79-3.25-7.61-4.07-13.54c-0.8-5.79-1.29-9.26,0.06-13.72c0.52-1.72,2.55-8.1,8.7-11.95c2.54-1.59,4.85-2.16,6.45-2.55   c1.92-0.46,6.73-1.55,12.47,0.17c5.39,1.62,8.64,4.83,10.12,6.33c0.94,0.95,4.76,4.97,6.6,11.51c0.87,3.09,1.65,5.86,0.8,9.13   c-1.04,4-3.4,4.51-5.19,8.76c-0.49,1.16-1.25,3.36-1.11,10.02c0.12,5.66,0.79,9.46,1.99,16.61c2.03,12.1,2.05,11.75,3.05,18.32   c0.52,3.41,1.12,6.82,1.62,10.24c0.46,3.15,0.89,6.34,2.1,10.55c0.38,1.33,0.74,2.42,1,3.16c0.48,5.59,0.55,10.34,0.5,13.94   c-0.08,5.07-0.17,9.96-1.37,16.27c-0.62,3.25-1.1,5.79-2.36,9.14c-1.65,4.4-2.84,5.39-6.21,12.54c-1.56,3.3-2.34,4.95-3.22,7.5   c-1.75,5.01-2.98,8.68-2.2,13.01c0.34,1.92,0.62,1.4,2,6.32C70.64,426.02,70.82,427.08,71.81,430.55z" />
        <path id="leftProximalPhalanx1" fill="#B2B2B2" d="M283.85,167.47c0.71-2.93,0.29-5.47-0.07-7.03c-1.13-4.83-3.43-7.6-5.45-10.71   c-2.9-4.48-4.16-8.06-6.53-14.77c-1.33-3.78-3.3-10.21-4.32-18.39c-1.04-8.37-1.56-12.56-0.2-16.77c1.73-5.38,4.55-7.22,4.01-11.9   c-0.5-4.38-3.48-7.2-3.91-7.6c-1.28-1.17-3.32-2.53-7.69-3.3c-5.3-0.93-8.31,0.02-15.43,0.99c-1.88,0.26-7.28,0.76-18.07,1.76   c-7.27,0.68-10.31,0.9-12.69,3.46c-2.36,2.54-2.69,5.9-2.81,7.1c-0.32,3.25,0.59,5.67,2.75,10.77c4.11,9.73,4.38,9.35,5.41,12.34   c1.69,4.91,1.9,8.68,2.32,16.22c0.46,8.23,0.69,12.34-0.53,16.65c-2.51,8.89-4.75,13.77-4.75,13.77c-0.16,0.35-1.06,2.29-1.37,4.99   c-0.24,2.09-0.29,5.91,1.1,6.4c0.92,0.32,1.88-1.01,3.57-2.48c3.49-3.02,7.16-4.05,10.92-5.11c2.13-0.6,4.93-0.83,10.54-1.28   c3.25-0.26,5.52-0.35,10.06-0.52c5.04-0.19,7.59-0.28,9.02-0.07c3.56,0.53,6.07,1.67,9.67,3.3c3.71,1.68,5.57,2.53,7.23,4.24   c1.99,2.05,2.37,3.68,3.57,3.66C282.01,173.17,283.37,169.45,283.85,167.47z" />
        <path id="leftProximalPhalanx2" fill="#B2B2B2" d="M202.04,154.42c-1.09-3.28-2.26-3.72-5.84-9.05c-2.48-3.69-4.58-6.85-6.03-11.2   c-0.59-1.76-0.93-3.86-1.6-7.98c-0.87-5.37-1.59-9.84-1.93-15.89c-0.37-6.58-0.55-9.86,0.13-13c0.44-2.04,0.73-2.33,3.64-12.05   c1.27-4.23,1.76-6,0.92-8.02c-1.36-3.29-5.1-4.47-5.45-4.58c-1.39-0.42-2.07-0.24-7.02,0.25c-4.06,0.4-6.1,0.6-7.52,0.66   c-5.87,0.23-7.16-0.65-8.79,0.59c-1.8,1.37-2.07,3.84-2.32,6.52c-0.46,4.88,0.63,8.64,1.09,10.37c0.26,0.97-0.08-0.18,1.88,17.34   c1.28,11.44,1.68,14.29,1.93,20.04c0.35,8.01-0.08,10.49-0.55,12.32c-1.19,4.69-2.66,5.56-4.09,11.01   c-1.54,5.85-1.62,11.6-0.77,11.8c0.52,0.12,0.9-1.96,2.86-4.4c2.73-3.41,6.31-4.75,8.01-5.39c3.98-1.5,7.26-1.36,11.45-1.18   c3.27,0.14,5.95,0.25,9.34,1.53c1.9,0.72,5.23,1.97,8.02,5.07c1.92,2.13,2.44,3.87,3.03,3.7   C203.3,162.62,203.35,158.35,202.04,154.42z" />
        <path id="leftProximalPhalanx3" fill="#B2B2B2" d="M149.79,171.89c-1.36-3.94-3.03-5.25-5.74-9.96c-2.06-3.56-3.22-6.5-3.52-7.27   c-2.14-5.5-2.71-10.11-3.27-14.69c-0.5-4.09-0.58-7.15-0.62-9.15c-0.11-4.94-0.16-7.41,0.52-10.51c0.9-4.08,1.8-3.64,3.22-8.58   c1.11-3.88,2.26-8.09,0.55-12.32c-0.54-1.34-1.34-3.31-3.26-4.23c-2.06-0.98-3.5,0.17-8.4,0.92c-1.84,0.28-3.92,0.36-8.07,0.53   c-5.94,0.23-7.17-0.06-8.57,1.11c-2.08,1.74-2.19,4.77-2.22,5.61c-0.1,2.68,1,4.44,2.03,6.68c1.02,2.23,1.72,5.06,3.1,10.74   c1.39,5.7,1.71,10.08,2.22,17.13c0.36,4.95,0.41,8.7,0.43,11.15c0.08,7.39,0.13,11.08-0.32,12.84c-1.34,5.28-4.11,8.61-4.94,15.77   c-0.08,0.7-0.27,2.54,0.43,2.85c0.99,0.45,2.56-2.73,6.38-5.43c2.6-1.84,5.01-2.58,6.77-3.12c2.13-0.66,5.39-1.63,9.64-1.2   c1.97,0.2,6.97,0.69,10.84,4.28c2.18,2.02,2.99,4.08,3.58,3.84C151.34,178.56,150.86,174.98,149.79,171.89z" />
        <path id="leftProximalPhalanx4" fill="#B2B2B2" d="M110.62,202.66c1.38-0.81,0.35-5.43-0.95-8.76c-2.15-5.52-4.46-5.96-7.89-11.76   c-2.88-4.88-4.03-9.29-4.89-12.57c-0.29-1.11-0.86-4.85-1.98-12.28c-1.27-8.41-1.39-9.25-0.94-10.75c1.21-4.01,3.64-4.61,4.77-9.44   c0.14-0.58,1.41-4.24-0.33-7.91c-0.2-0.43-1.76-3.58-5.21-4.87c-1.29-0.48-2-0.39-8.01,0.25c-6.07,0.65-7.23,0.77-9.27,1.35   c-2.97,0.85-4.45,1.28-5.38,2.46c-0.71,0.9-1.77,2.93,0.4,10.79c1.47,5.3,2.55,6.52,3.79,10.32c1.1,3.36,1.36,7.36,1.88,15.35   c0.53,8.09,0.79,12.14,0.41,17.11c-0.4,5.22-1.06,7.02-1.46,14.2c-0.57,10.06,0.47,10.96,0.97,11.1c1.01,0.29,1.68-1.98,5.01-4.59   c2.99-2.34,6.01-3.28,8.14-3.96c2.45-0.78,4.09-1.3,6.38-1.28c3.75,0.03,6.8,1.47,8.88,2.47   C108.66,201.69,109.74,203.17,110.62,202.66z" />
        <path id="leftProximalPhalanx5" fill="#B2B2B2" d="M72,235.63c-0.45-1.98-1.3-3.36-1.6-3.83c-2.89-4.58-5.64-5.61-8.16-8.67   c-2.04-2.47-2.86-5.73-4.5-12.24c-0.92-3.64-1.25-6.22-1.88-11.2c-0.61-4.81-0.91-7.26-0.46-9.34c0.85-3.88,2.45-4.14,3.25-8.22   c0.37-1.88,1.23-6.25-1.11-8.57c-1.44-1.43-3.48-1.47-7.17-1.54c-4.71-0.09-5.41,1.06-8.81,0.41c-2.66-0.51-2.89-1.35-5.37-1.52   c-1.02-0.07-4.32-0.3-6.19,1.44c-2.2,2.05-1.49,5.96-0.46,11.23c1.33,6.84,2.91,7.9,3.96,14.27c0.1,0.61,0.27,3.47,0.62,9.15   c0.69,11.36,0.72,12.88,0.6,15.11c-0.13,2.45-0.3,5.58-1.14,9.66c-0.9,4.36-1.87,6.45-1.96,10.64c-0.01,0.29-0.1,6.48,1.31,6.74   c0.87,0.16,1.33-2.1,3.73-4.84c2.35-2.69,4.95-4,7.65-5.36c2.79-1.41,4.9-2.47,7.87-2.85c6.12-0.79,11.51,1.87,13.04,2.65   c3.5,1.78,5.02,3.59,6.21,2.89C73.1,240.65,72.06,235.9,72,235.63z" />
        <path id="leftMiddlePhalanx2" fill="#C6C6C6" d="M191.41,71.07c0.68-0.68,0.17-2-1.57-7.62c-1.62-5.24-1.65-5.63-1.62-6.17   c0.19-3.18,2.25-3.59,3.98-8.11c0.96-2.51,2.22-5.78,0.73-8.18c-1.71-2.77-6.13-2.9-7.66-2.94c-2.36-0.07-2.36,0.54-6.24,0.91   c-3.58,0.34-4.08-0.13-7.37,0.28c-3.32,0.42-4.98,0.63-5.98,1.79c-1.31,1.52-0.94,3.87-0.16,8.5c1.01,5.97,2.1,6.52,1.5,8.89   c-0.45,1.75-1.79,3.41-4.47,6.71c-1.49,1.83-2.66,3-3.16,5.15c-0.29,1.25-0.45,3.21,0.31,3.58c0.81,0.39,1.68-1.51,4.11-2.53   c1.9-0.79,2.91-0.27,7.02-0.25c0.94,0,0.32-0.03,6.1-0.35c5.39-0.31,8.11-0.45,9.36-0.28C189.55,70.89,190.7,71.79,191.41,71.07z" />
        <path id="leftMiddlePhalanx3" fill="#C6C6C6" d="M137.28,56.68c1.99,1.58,1.84,4.85,1.79,5.98c-0.13,2.86-1.31,3.08-2.14,6.5   c-0.64,2.65-0.45,4.96-0.07,9.57c0.23,2.79,0.35,4.18,0.81,5.16c1.24,2.63,3.1,3.05,3.76,5.81c0.08,0.35,0.63,2.65-0.42,3.47   c-0.79,0.61-1.84-0.12-3.91-0.29c-1.78-0.15-2.83,0.25-4.72,0.68c-2.48,0.57-4.48,0.75-8.48,1.1c-7.5,0.66-9.25-0.34-11.78,1.48   c-0.79,0.57-1.59,1.37-2.25,1.1c-1.17-0.49-0.78-3.91-0.68-4.72c0.63-5.47,3.18-6.6,4.25-11.2c0.69-2.97,0.34-5.46-0.37-10.43   c-0.88-6.18-2.37-8.7-0.76-10.76c1-1.28,2.64-1.69,4.86-2.23c2.2-0.54,2.98-0.22,6.45-0.56c2.56-0.25,2.34-0.45,5.34-0.83   C133.62,55.91,135.97,55.64,137.28,56.68z" />
        <path id="leftMiddlePhalanx4" fill="#C6C6C6" d="M97.43,92.11c0.16,0.15,2.52,2.4,2.28,5.4c-0.21,2.6-2.15,2.76-3.6,6.27   c-0.93,2.25-0.94,4.15-0.97,7.48c-0.03,3.31-0.04,4.96,0.94,6.6c1.03,1.72,2.23,1.75,3.03,3.7c0.73,1.79,0.63,3.87,0.08,4.05   c-0.4,0.13-0.81-0.8-1.87-1.73c-1.44-1.27-3.03-1.61-4.68-1.94c-2.64-0.53-4.73-0.25-8.81,0.32c-3.96,0.55-5.93,0.88-8.24,1.71   c-2.67,0.97-4.16,1.96-4.85,1.33c-0.19-0.18-0.34-0.49,0.5-4.56c0.52-2.53,0.84-3.78,1.01-4.42c0.46-1.71,0.7-2.23,0.82-3.5   c0.42-4.21-1.63-4.55-1.77-9.95c-0.07-2.75-0.15-5.6,1.67-7.73c0.57-0.67,1.32-1.25,7.86-3.03c4.45-1.21,6.71-1.82,8.86-1.86   C92.61,90.21,95.32,90.16,97.43,92.11z" />
        <path id="leftMiddlePhalanx5" fill="#C6C6C6" d="M58.43,167.16c-0.34-3.31-0.73-5.02-0.94-6.6c-0.58-4.26,0.43-4.87-0.55-6.27   c-1.26-1.8-3.82-2.07-6.34-2.33c-2.71-0.28-3.1,0.23-7.54,0.48c-5.31,0.29-6.22-0.36-8.24,0.72c-0.46,0.25-3.11,1.67-3.77,4.3   c-0.44,1.77,0.44,2.38-0.08,5.24c-0.22,1.21-0.49,1.71-0.47,2.93c0.02,0.93,0.05,2.56,1,3.16c0.92,0.58,1.71-0.45,3.75-0.51   c1.57-0.05,1.79,0.54,4.81,1.38c1.56,0.44,2.89,0.8,4.59,0.86c2.73,0.09,2.7-0.75,5.36-0.65c0.83,0.03,0.85,0.12,5.29,0.62   c1.43,0.16,2.16,0.23,2.69-0.24C58.65,169.67,58.57,168.58,58.43,167.16z" />
        <path id="leftDistalPhalanx1" fill="#DADADA" d="M272.21,80.87c-0.26-1.65-1.04-6.57-5.22-10.19c-3.74-3.24-5.67-1.52-9.93-4.18   c-5.23-3.27-7.28-8.97-8.71-12.95c-2.62-7.28-0.54-8.97-3.36-15.77c-1.19-2.87-3.01-7.23-7.42-10.54   c-1.21-0.91-8.68-6.28-17.62-3.33c-6.27,2.07-11.16,7.55-12.17,13.52c-0.61,3.59,0.29,6.74,0.72,8.24   c1.44,5.04,3.56,5.45,5.24,10.37c0.61,1.79,2.14,6.28,0.79,11.12c-0.6,2.15-2.34,4.73-5.81,9.89c-2.59,3.84-3.8,5.24-3.51,7.34   c0.37,2.66,2.93,4.92,3.83,4.54c0.64-0.28,0.06-1.75,0.58-3.66c0.91-3.29,4.33-5.03,6.16-5.95c1.35-0.69,3.31-1.47,10.99-2.23   c7.24-0.71,7.41-0.2,12.55-0.92c4.56-0.64,5.1-1.14,9.61-1.56c5.17-0.49,7.98-0.16,8.84-0.05c3.12,0.4,5.29,0.68,7.58,2.04   c4.38,2.61,5.86,7.19,6.73,6.81C272.57,83.2,272.33,81.62,272.21,80.87z" />
        <path id="leftDistalPhalanx2" fill="#DADADA" d="M193.81,36.57c0.45-0.92-1.28-2.27-2.91-4.44c-0.98-1.3-3.49-4.61-3.62-8.35   c-0.12-3.38,1.81-3.91,1.39-6.8c-0.49-3.34-3.47-5.42-4.3-6c-4.9-3.43-10.77-1.69-11.89-1.36c-1.42,0.42-5.75,1.7-7.78,5.67   c-0.33,0.65-1.69,3.29-0.75,5.84c0.43,1.18,0.95,1.23,2.24,2.87c1.17,1.49,3.93,5.01,3.02,7.68c-0.41,1.19-1.14,1.03-2.58,3.47   c-0.68,1.15-1.43,2.42-1,2.98c0.39,0.51,1.51,0.07,3.58-0.31c1.77-0.33,1.17-0.04,5.55-0.49c3.49-0.36,3.67-0.52,6.43-0.74   c2.49-0.2,3.74-0.31,4.49-0.21c2.48,0.31,3.81,1.22,6.39,0.88C193.52,37.08,193.75,36.69,193.81,36.57z" />
        <path id="leftDistalPhalanx3" fill="#DADADA" d="M138.49,52.96c-0.72-2.38-3.08-2.37-4.56-4.65c-0.88-1.36-0.91-2.71-0.96-4.79   c-0.09-3.86,1.36-4.46,1.13-7.68c-0.06-0.85-0.29-3.55-2.32-5.93c-0.47-0.55-2.25-2.57-5.33-3.14c-3.51-0.65-6.19,1.04-6.91,1.51   c-0.54,0.35-3.95,2.66-4.32,6.33c-0.3,2.96,1.7,3.64,1.75,7.61c0.01,0.99,0.04,3.17-1.16,5.33c-1.51,2.73-3.36,2.55-4.77,5.29   c-1.02,1.98-1.38,4.63-0.44,5.27c0.78,0.53,1.86-0.77,4.73-1.68c1.92-0.61,2.18-0.26,6.43-0.74c2.23-0.25,4.12-0.57,7.03-1.07   c4.03-0.68,4.9-0.95,6.37-0.47c1.51,0.5,2.54,1.43,3.15,0.99C138.83,54.77,138.7,53.67,138.49,52.96z" />
        <path id="leftDistalPhalanx4" fill="#DADADA" d="M100.71,87.4c-0.08-0.91-0.19-2.07-0.83-3.36c-1.08-2.16-2.31-1.98-2.84-3.54   c-0.42-1.25,0.28-1.68,0.99-5.14c0.5-2.42,0.75-3.63,0.46-5.09c-0.54-2.65-2.51-4.28-2.93-4.62c-2.94-2.34-7.01-2.15-9.83-0.94   c-4.55,1.94-5.98,6.6-6.21,7.4c-1.06,3.69,0.73,4.79-0.55,8.17c-0.99,2.63-2.26,2.47-4.86,6.38c-1.95,2.94-3.7,6.73-2.97,7.3   c0.42,0.33,1.36-0.67,3.8-1.96c2.14-1.13,3.82-1.63,6.29-2.35c2.6-0.77,4.79-1.42,7.8-1.58c2.93-0.16,4.72-0.26,6.74,0.67   c2.54,1.18,3.5,3.1,4.39,2.68C101.05,91,100.83,88.7,100.71,87.4z" />
        <path id="leftDistalPhalanx5" fill="#DADADA" d="M57.05,151.4c0.85-0.63-0.1-4.03-1.85-6.7c-1.64-2.49-2.99-2.82-3.3-4.76   c-0.22-1.33,0.31-1.83,0.91-4.05c0.69-2.54,1.5-5.58,0.37-8.15c-0.99-2.25-3.42-4.03-6.15-4.33c-3.26-0.37-6.31,1.43-7.61,3.73   c-1.05,1.86-0.88,4.02-0.53,8.35c0.25,3.15,0.67,3.54,0.24,4.85c-0.77,2.35-2.48,2.33-4.59,5.27c-1.76,2.46-2.85,5.68-2.06,6.32   c0.47,0.38,1.25-0.46,3.15-1.09c2.94-0.96,3.75,0.18,8.01-0.25c3.04-0.3,3.17-0.91,5.7-0.86c2.52,0.05,4.57,0.68,4.57,0.68   C55.97,151.05,56.6,151.73,57.05,151.4z" />
    </g>
    <g>
        <path fill="none" stroke="#706F6F" stroke-linecap="round" stroke-miterlimit="10" d="M399.26,545.57   c1.67-2.05,6.24-7.06,12.93-7.53c7.7-0.55,13.86,5.23,17.64,8.76c3.91,3.66,3.49,4.77,6.57,7.43c4.59,3.97,10.01,5.37,20.01,6.44   c16.53,1.77,21.78,0.42,32,1.36c6.13,0.56,15.34,2.02,26.52,6.29" />
        <path fill="none" stroke="#706F6F" stroke-linecap="round" stroke-miterlimit="10" d="M402.15,599.24   c-0.15,7.5-0.36,13.87-0.55,18.72c-0.27,6.7-0.52,12.8-1.1,20.84c-0.43,5.92-0.9,10.84-1.25,14.33" />
        <path fill="none" stroke="#706F6F" stroke-linecap="round" stroke-miterlimit="10" d="M429.35,672c4.58-0.22,9.78-0.21,15.5,0.27   c12.1,1.03,15.55,3.25,22.95,1.65c2.42-0.52,5.99-2.25,13.13-5.71c4.73-2.29,9.27-4.5,14.78-8.09c3.34-2.17,7.32-5.03,11.59-8.73" />
        <path fill="none" stroke="#706F6F" stroke-linecap="round" stroke-miterlimit="10" d="M256.66,545.57   c-1.67-2.05-6.24-7.06-12.93-7.53c-7.7-0.55-13.86,5.23-17.64,8.76c-3.91,3.66-3.49,4.77-6.57,7.43   c-4.59,3.97-10.01,5.37-20.01,6.44c-16.53,1.77-21.78,0.42-32,1.36c-6.13,0.56-15.34,2.02-26.52,6.29" />
        <path fill="none" stroke="#706F6F" stroke-linecap="round" stroke-miterlimit="10" d="M253.77,599.24   c0.15,7.5,0.36,13.87,0.55,18.72c0.27,6.7,0.52,12.8,1.1,20.84c0.43,5.92,0.9,10.84,1.25,14.33" />
        <path fill="none" stroke="#706F6F" stroke-linecap="round" stroke-miterlimit="10" d="M226.57,672c-4.58-0.22-9.78-0.21-15.5,0.27   c-12.1,1.03-15.55,3.25-22.96,1.65c-2.42-0.52-5.99-2.25-13.13-5.71c-4.73-2.29-9.27-4.5-14.78-8.09   c-3.34-2.17-7.32-5.03-11.59-8.73" />
    </g>
</svg>