<svg xmlns="http://www.w3.org/2000/svg" viewBox="0 0 880.27 580.72">
    <metadata xmlns:med="http://www.medreporter.org/reference/image">
        <med:Figure lngs="de,en">
            <med:Title>
                <med:Trans lng="de">Circulus arteriosus cerebri</med:Trans>
                <med:Trans lng="en">Circulus arteriosus cerebri</med:Trans>
            </med:Title>
            <med:Option id="leftM2Superior">
                <med:Trans lng="de">superiores M2-Segment links</med:Trans>
                <med:Trans lng="en">Left superior M2-segment</med:Trans>
            </med:Option>
            <med:Option id="leftM2Inferior">
                <med:Trans lng="de">inferiores M2-Segment links</med:Trans>
                <med:Trans lng="en">Left inferior M2-segment</med:Trans>
            </med:Option>
            <med:Option id="leftM1Bifurcation">
                <med:Trans lng="de">Mediabifurkation links</med:Trans>
                <med:Trans lng="en">Bifurcation of left MCA</med:Trans>
            </med:Option>
            <med:Option id="leftM1Distal">
                <med:Trans lng="de">distales M1-Segment links</med:Trans>
                <med:Trans lng="en">Left distal M1-segment</med:Trans>
            </med:Option>
            <med:Option id="leftM1Proximal">
                <med:Trans lng="de">proximales M1-Segment links</med:Trans>
                <med:Trans lng="en">Left proximal M1-segment</med:Trans>
            </med:Option>
            <med:Option id="leftACMT">
                <med:Trans lng="de">Carotis-T links</med:Trans>
                <med:Trans lng="en">Terminal segment of left ACI</med:Trans>
            </med:Option>
            <med:Option id="leftA1">
                <med:Trans lng="de">A1-Segment links</med:Trans>
                <med:Trans lng="en">Left A1-segment</med:Trans>
            </med:Option>
            <med:Option id="leftA2">
                <med:Trans lng="de">A2-Segment links</med:Trans>
                <med:Trans lng="en">Left A2-segment</med:Trans>
            </med:Option>
            <med:Option id="leftACI">
                <med:Trans lng="de">A. carotis interna links</med:Trans>
                <med:Trans lng="en">Left internal carotid artery</med:Trans>
            </med:Option>
            <med:Option id="leftACP">
                <med:Trans lng="de">A. communicans posterior links</med:Trans>
                <med:Trans lng="en">Left posterior communicating artery</med:Trans>
            </med:Option>
            <med:Option id="leftP2">
                <med:Trans lng="de">P2-Segment links</med:Trans>
                <med:Trans lng="en">Left P2-segment</med:Trans>
            </med:Option>
            <med:Option id="leftP1">
                <med:Trans lng="de">P1-Segment links</med:Trans>
                <med:Trans lng="en">Left P1-segment</med:Trans>
            </med:Option>
            <med:Option id="leftSCA">
                <med:Trans lng="de">A. superior cerebelli links</med:Trans>
                <med:Trans lng="en">Left superior cerebellar artery</med:Trans>
            </med:Option>
            <med:Option id="leftAICA">
                <med:Trans lng="de">A. inferior anterior cerebelli links</med:Trans>
                <med:Trans lng="en">Left anterior inferior cerebellar artery</med:Trans>
            </med:Option>
            <med:Option id="leftPICA">
                <med:Trans lng="de">A. inferior posterior cerebelli links</med:Trans>
                <med:Trans lng="en">Left posterior inferior cerebellar artery</med:Trans>
            </med:Option>
            <med:Option id="leftV4">
                <med:Trans lng="de">V4-Segment links</med:Trans>
                <med:Trans lng="en">Left V4-segment</med:Trans>
            </med:Option>
            <med:Option id="rightM2Superior">
                <med:Trans lng="de">superiores M2-Segment rechts</med:Trans>
                <med:Trans lng="en">Right superior M2-segment</med:Trans>
            </med:Option>
            <med:Option id="rightM2Inferior">
                <med:Trans lng="de">inferiores M2-Segment rechts</med:Trans>
                <med:Trans lng="en">Right inferior M2-segment</med:Trans>
            </med:Option>
            <med:Option id="rightM1Bifurcation">
                <med:Trans lng="de">Mediabifurkation rechts</med:Trans>
                <med:Trans lng="en">Bifucation of right MCA</med:Trans>
            </med:Option>
            <med:Option id="rightM1Distal">
                <med:Trans lng="de">distales M1-Segment rechts</med:Trans>
                <med:Trans lng="en">Right distal M1-segment</med:Trans>
            </med:Option>
            <med:Option id="rightM1Proximal">
                <med:Trans lng="de">proximales M1-Segment rechts</med:Trans>
                <med:Trans lng="en">Right proximal M1-segment</med:Trans>
            </med:Option>
            <med:Option id="rightACMT">
                <med:Trans lng="de">Carotis-T rechts</med:Trans>
                <med:Trans lng="en">Terminal segment of right ACI</med:Trans>
            </med:Option>
            <med:Option id="rightA1">
                <med:Trans lng="de">A1-Segment rechts</med:Trans>
                <med:Trans lng="en">Right A1-segment</med:Trans>
            </med:Option>
            <med:Option id="rightA2">
                <med:Trans lng="de">A2-Segment rechts</med:Trans>
                <med:Trans lng="en">Right A2-segment</med:Trans>
            </med:Option>
            <med:Option id="rightACI">
                <med:Trans lng="de">A. carotis interna rechts</med:Trans>
                <med:Trans lng="en">Right internal carotid artery</med:Trans>
            </med:Option>
            <med:Option id="rightACP">
                <med:Trans lng="de">A. communicans posterior rechts</med:Trans>
                <med:Trans lng="en">Right posterior communicating artery</med:Trans>
            </med:Option>
            <med:Option id="rightP2">
                <med:Trans lng="de">P2-Segment rechts</med:Trans>
                <med:Trans lng="en">Right P2-segment</med:Trans>
            </med:Option>
            <med:Option id="rightP1">
                <med:Trans lng="de">P1-Segment rechts</med:Trans>
                <med:Trans lng="en">Right P1-segment</med:Trans>
            </med:Option>
            <med:Option id="rightSCA">
                <med:Trans lng="de">A. superior cerebelli rechts</med:Trans>
                <med:Trans lng="en">Right superior cerebellar artery</med:Trans>
            </med:Option>
            <med:Option id="rightAICA">
                <med:Trans lng="de">A. inferior anterior cerebelli rechts</med:Trans>
                <med:Trans lng="en">Right anterior inferior cerebellar artery</med:Trans>
            </med:Option>
            <med:Option id="rightPICA">
                <med:Trans lng="de">A. inferior posterior cerebelli rechts</med:Trans>
                <med:Trans lng="en">Right posterior inferior cerebellar artery</med:Trans>
            </med:Option>
            <med:Option id="rightV4">
                <med:Trans lng="de">V4-Segment rechts</med:Trans>
                <med:Trans lng="en">Right V4-segment</med:Trans>
            </med:Option>
            <med:Option id="ACA">
                <med:Trans lng="de">A. communicans anterior</med:Trans>
                <med:Trans lng="en">Anterior communicating artery</med:Trans>
            </med:Option>
            <med:Option id="basilarisHead">
                <med:Trans lng="de">Basilariskopf</med:Trans>
                <med:Trans lng="en">Head of basilar artery</med:Trans>
            </med:Option>
            <med:Option id="basilaris">
                <med:Trans lng="de">A. basilaris</med:Trans>
                <med:Trans lng="en">Basilar artery</med:Trans>
            </med:Option>
        </med:Figure>
    </metadata>
    <path id="leftM2Superior" d="M768.33,116.7c17.38-7.16,36.43-14.2,57.08-20.71,17.46-5.5,34.18-10.03,49.96-13.77,.92-1.62,5.03-9.28,2.64-19.01-2.47-10.03-10.05-14.93-11.57-15.87-7.18,1.52-17.14,3.81-28.89,7.09-14.77,4.12-25.65,7.93-37.54,12.1-12.79,4.48-23.43,8.56-37.26,13.86-6.47,2.48-11.82,4.56-15.5,6.01,7.03,10.1,14.06,20.2,21.09,30.3Z" fill="#c6c6c6" />
    <path id="leftM2Inferior" d="M768.33,116.7c-5.54,10.52-11.09,21.04-16.63,31.56,9.54,3.54,20.41,8.31,31.94,14.79,15.92,8.95,27,17.8,33.41,22.96,6.41,5.16,11.58,9.79,15.31,13.28,.8,.22,10.74,2.78,18.88-4.19,8.3-7.11,7.09-17.6,6.99-18.35-4.66-5.11-10.48-11.01-17.52-17.21-8.45-7.45-16.26-13.2-22.53-17.45-6.4-4.34-14.84-9.58-25.17-14.77-9.05-4.55-17.42-8-24.69-10.62Z" fill="#c6c6c6" />
    <path id="leftM1Bifurcation" d="M751.71,148.25c5.54-10.52,11.09-21.04,16.63-31.56-7.03-10.1-14.06-20.2-21.09-30.3-3.6,1.49-7.56,2.97-11.86,4.34-4.39,1.4-8.56,2.5-12.44,3.38,.06,15.66,.11,31.31,.17,46.97,4.3,.52,9.13,1.35,14.33,2.65,5.35,1.34,10.12,2.92,14.25,4.53Z" fill="#b2b2b2" />
    <path id="leftM1Distal" d="M722.95,94.11c.06,15.66,.11,31.31,.17,46.97-7.3-.51-15.38-.67-24.11-.23-15.07,.76-28.28,3.11-39.21,5.85-1.78-13.13-3.57-26.25-5.35-39.38,12.29-1.89,25-4.09,38.07-6.67,10.46-2.06,20.61-4.25,30.43-6.54Z" fill="#9d9d9c" />
    <path id="leftM1Proximal" d="M654.45,107.31c1.78,13.13,3.57,26.25,5.35,39.38-9.85,2.04-19.97,4.31-30.33,6.82-10.56,2.56-20.77,5.23-30.64,7.98-3.39-13.06-6.78-26.12-10.17-39.18,11.11-2.68,22.35-5.32,33.74-7.91,10.78-2.45,21.46-4.81,32.04-7.08Z" fill="#878787" />
    <path id="leftACMT" d="M588.66,122.31c3.39,13.06,6.78,26.12,10.17,39.18-10.55,4.15-19.36,6.86-25.62,8.6-8.87,2.46-15.9,3.88-26.7,7.91-4.97,1.86-8.99,3.61-11.67,4.83-7.07-11.49-14.14-22.98-21.2-34.47,4.23-2.56,9.3-5.24,15.18-7.67,4.83-1.99,9.36-3.47,13.45-4.57-3.09-.6-6.46-1.42-10.01-2.56-1.81-.58-3.53-1.2-5.15-1.83,12.86-5.31,25.73-10.63,38.59-15.94,3.36,1.21,6.96,2.39,10.79,3.49,4.26,1.23,8.33,2.22,12.17,3.03Z" fill="#706f6f" />
    <path id="leftA1" d="M527.11,131.72c12.86-5.31,25.73-10.63,38.59-15.94-7.16-2.12-12.87-4.73-16.98-6.91-5.08-2.69-11.74-6.29-18.42-13.19-3.43-3.54-5.85-6.91-7.44-9.39-11.99,1.4-23.99,2.8-35.98,4.19,5.24,8.83,10.47,17.66,15.71,26.48,3.05,2.62,6.84,5.5,11.4,8.27,4.76,2.89,9.25,4.97,13.11,6.49Z" fill="#878787" />
    <path id="leftA2" d="M486.89,90.48c11.99-1.4,23.99-2.8,35.98-4.19-2.1-3.25-4.78-7.91-7.15-13.82-5.22-13.02-5.74-24.08-5.81-28.15-.09-4.9,.24-12.85,2.83-22.17,1.36-4.89,2.99-8.91,4.38-11.9-1.31-1.42-7.77-8.13-18.37-8.71-9.4-.52-15.98,4.12-17.73,5.45-1.24,3.77-2.62,8.64-3.69,14.42-1.83,9.89-1.98,18.22-1.8,23.82,.2,6.03,.98,14.68,3.65,24.72,2.22,8.37,5.11,15.27,7.71,20.53Z" fill="#9d9d9c" />
    <path id="leftACI" d="M534.84,182.83c-2.65,1.65-6.34,4.32-9.95,8.36-7.23,8.09-9.63,16.65-11.09,22.11-1.28,4.78-2.69,12.27-2.01,21.6-2.44,1.41-11.43,6.21-23.22,4.15-10.61-1.85-17.09-8.16-19.14-10.34-.24-10.63,1.29-19.4,2.84-25.61,1.5-6.01,4.32-16.87,12.38-28.51,6.52-9.41,13.6-15.21,17.2-18.11,4.48-3.61,8.6-6.26,11.79-8.12,7.07,11.49,14.14,22.98,21.2,34.47Z" fill="#575756" />
    <path id="leftACP" d="M546.51,177.99c8.9-2.64,17.8-5.27,26.7-7.91,.97,6.22,1.88,14.85,1.59,25.14-.12,4.17-.81,21.49-8.2,43.14-4.67,13.69-10,23.22-16.21,34.32-6.29,11.25-12.33,20.32-17.01,26.9l-32.47-2.15c6.8-9.59,12.3-17.71,16.26-23.65,12.46-18.7,15.84-25.17,17.27-28,3.77-7.42,7.16-14.2,9.76-24.01,.69-2.62,2.87-11.27,3.36-22.9,.35-8.3-.27-15.41-1.06-20.88Z" fill="#878787" />
    <path id="leftP2" d="M541.35,310.75c-1.26,7.29-2.52,14.58-3.78,21.86,5.46,.79,11.24,1.83,17.3,3.19,12.49,2.81,21.98,6.05,26.65,7.74,4.47,1.61,11.55,4.33,19.97,8.35,6.43,3.07,12,6.11,16.66,8.84,1.31-.52,6.12-2.6,9.02-8.04,3.12-5.85,1.81-11.44,1.48-12.7-4.25-2.43-9.52-5.25-15.68-8.17-9.32-4.41-17.25-7.42-22.62-9.3-10.75-3.76-19.11-5.8-24.15-7.01-6.94-1.67-15.29-3.39-24.84-4.76Z" fill="#b2b2b2" />
    <path id="leftP1" d="M541.35,310.75c-1.26,7.29-2.52,14.58-3.78,21.86-8.45-1.47-15.6-2.11-20.88-2.41-11.04-.63-20.72-1.11-32.5,1.68-7.53,1.78-13.46,4.32-17.42,6.27l-12.81-19.54c5.14-2.55,11.38-5.2,18.66-7.41,7.97-2.43,15.22-3.74,21.31-4.45l6.99-9.32,32.47,2.15c-2.36,3.11-4.71,6.23-7.07,9.34,5.01,.6,10.02,1.21,15.03,1.81Z" fill="#9d9d9c" />
    <path id="leftSCA" d="M455.44,383.41c.59-7.18,1.18-14.36,1.78-21.54,3.96-.75,8.91-1.57,14.65-2.2,8.78-.97,16.43-1.2,22.49-1.14,6.45,.05,14.75,.45,24.32,1.77,6.76,.93,14.5,2.37,22.93,4.61,.62,1.34,2.53,5.9,1.18,11.63-1.37,5.78-5.18,9.01-6.34,9.92-3.08-1.1-6.96-2.37-11.52-3.56-6.87-1.79-12.83-2.76-17.34-3.32-6.98-.86-13.15-1.07-18.22-1-4.1,.05-9.4,.31-15.54,1.11-5.24,.68-11.48,1.81-18.38,3.72Z" fill="#dadada" />
    <path id="leftAICA" d="M454.98,439.66c-.22-7.46-.43-14.93-.65-22.39,4.1-.83,9.41-1.69,15.65-2.13,11.33-.8,20.82,.11,27.45,1.13,5.17,.8,13.72,2.46,23.79,6.18,5.49,2.02,10.07,4.15,13.6,5.96,.37,.81,2.54,5.87,.11,11.55-2.45,5.73-7.68,7.63-8.51,7.92-2.95-1.77-6.78-3.84-11.44-5.77-7.42-3.09-13.7-4.51-17.17-5.17-8.16-1.55-15.25-1.68-20.53-1.41-9.06,.46-16.65,2.29-22.31,4.13Z" fill="#dadada" />
    <path id="leftPICA" d="M515.31,537.63c-.31-5.24-.62-10.47-.94-15.71,6.19-.68,11.91-1.11,17.06-1.37,4.08-.21,9.61-.41,16.17-.39,3.02,0,5.62,.06,7.65,.12,.22,.1,4.57,2.07,5.2,6.84,.42,3.16-.95,6.33-3.56,8.21-5-.16-9.4-.14-13.05-.06-6.1,.14-11.66,.5-16.58,.95-4.68,.43-8.72,.94-11.95,1.41Z" fill="#ededed" />
    <path id="leftV4" d="M448.34,486.12c4.86-5.48,9.71-10.96,14.57-16.44,4.47,4.1,8.37,7.06,11.05,8.98,4.54,3.24,6.27,3.97,14.9,9.62,5.69,3.73,8.57,5.62,10.55,7.41,5.44,4.91,8.25,10.08,9.72,12.75,1.71,3.11,3.81,7.65,5.24,13.47,.31,5.24,.62,10.47,.94,15.71,.09,5.24,.07,10.17-.03,14.75-.09,4.25-.26,9.11-.58,14.46-.18,3.13-.38,5.81-.54,7.88-1.55,1.16-6.45,4.51-13.54,4.5-7.54-.02-12.64-3.84-14.1-5.01,.51-7.23,.83-13.32,1.05-17.88,0,0,.33-7.13,.47-18.24,.12-8.96-.02-11.29-.76-14.37-1.21-5.02-3.25-8.87-4.79-11.29-3.73-5.89-8.28-9.17-12.48-12.17-4.34-3.1-5.36-3.02-11.99-7.31-4.18-2.7-7.48-5.13-9.67-6.81Z" fill="#dadada" />
    <path id="rightM2Superior" d="M111.94,116.7c-17.38-7.16-36.43-14.2-57.08-20.71-17.46-5.5-34.18-10.03-49.96-13.77-.92-1.62-5.03-9.28-2.64-19.01,2.47-10.03,10.05-14.93,11.57-15.87,7.18,1.52,17.14,3.81,28.89,7.09,14.77,4.12,25.65,7.93,37.54,12.1,12.79,4.48,23.43,8.56,37.26,13.86,6.47,2.48,11.82,4.56,15.5,6.01-7.03,10.1-14.06,20.2-21.09,30.3Z" fill="#c6c6c6" />
    <path id="rightM2Inferior" d="M111.94,116.7c5.54,10.52,11.09,21.04,16.63,31.56-9.54,3.54-20.41,8.31-31.94,14.79-15.92,8.95-27,17.8-33.41,22.96-6.41,5.16-11.58,9.79-15.31,13.28-.8,.22-10.74,2.78-18.88-4.19-8.3-7.11-7.09-17.6-6.99-18.35,4.66-5.11,10.48-11.01,17.52-17.21,8.45-7.45,16.26-13.2,22.53-17.45,6.4-4.34,14.84-9.58,25.17-14.77,9.05-4.55,17.42-8,24.69-10.62Z" fill="#c6c6c6" />
    <path id="rightM1Bifurcation" d="M128.56,148.25c-5.54-10.52-11.09-21.04-16.63-31.56,7.03-10.1,14.06-20.2,21.09-30.3,3.6,1.49,7.56,2.97,11.86,4.34,4.39,1.4,8.56,2.5,12.44,3.38-.06,15.66-.11,31.31-.17,46.97-4.3,.52-9.13,1.35-14.33,2.65-5.35,1.34-10.12,2.92-14.25,4.53Z" fill="#b2b2b2" />
    <path id="rightM1Distal" d="M157.31,94.11c-.06,15.66-.11,31.31-.17,46.97,7.3-.51,15.38-.67,24.11-.23,15.07,.76,28.28,3.11,39.21,5.85,1.78-13.13,3.57-26.25,5.35-39.38-12.29-1.89-25-4.09-38.07-6.67-10.46-2.06-20.61-4.25-30.43-6.54Z" fill="#9d9d9c" />
    <path id="rightM1Proximal" d="M225.82,107.31c-1.78,13.13-3.57,26.25-5.35,39.38,9.85,2.04,19.97,4.31,30.33,6.82,10.56,2.56,20.77,5.23,30.64,7.98,3.39-13.06,6.78-26.12,10.17-39.18-11.11-2.68-22.35-5.32-33.74-7.91-10.78-2.45-21.46-4.81-32.04-7.08Z" fill="#878787" />
    <path id="rightACMT" d="M291.61,122.31c-3.39,13.06-6.78,26.12-10.17,39.18,10.55,4.15,19.36,6.86,25.62,8.6,8.87,2.46,15.9,3.88,26.7,7.91,4.97,1.86,8.99,3.61,11.67,4.83,7.07-11.49,14.14-22.98,21.2-34.47-4.23-2.56-9.3-5.24-15.18-7.67-4.83-1.99-9.36-3.47-13.45-4.57,3.09-.6,6.46-1.42,10.01-2.56,1.81-.58,3.53-1.2,5.15-1.83-12.86-5.31-25.73-10.63-38.59-15.94-3.36,1.21-6.96,2.39-10.79,3.49-4.26,1.23-8.33,2.22-12.17,3.03Z" fill="#706f6f" />
    <path id="rightA1" d="M353.16,131.72c-12.86-5.31-25.73-10.63-38.59-15.94,7.16-2.12,12.87-4.73,16.98-6.91,5.08-2.69,11.74-6.29,18.42-13.19,3.43-3.54,5.85-6.91,7.44-9.39,11.99,1.4,23.99,2.8,35.98,4.19-5.24,8.83-10.47,17.66-15.71,26.48-3.05,2.62-6.84,5.5-11.4,8.27-4.76,2.89-9.25,4.97-13.11,6.49Z" fill="#878787" />
    <path id="rightA2" d="M393.38,90.48c-11.99-1.4-23.99-2.8-35.98-4.19,2.1-3.25,4.78-7.91,7.15-13.82,5.22-13.02,5.74-24.08,5.81-28.15,.09-4.9-.24-12.85-2.83-22.17-1.36-4.89-2.99-8.91-4.38-11.9,1.31-1.42,7.77-8.13,18.37-8.71,9.4-.52,15.98,4.12,17.73,5.45,1.24,3.77,2.62,8.64,3.69,14.42,1.83,9.89,1.98,18.22,1.8,23.82-.2,6.03-.98,14.68-3.65,24.72-2.22,8.37-5.11,15.27-7.71,20.53Z" fill="#9d9d9c" />
    <path id="rightACI" d="M345.43,182.83c2.65,1.65,6.34,4.32,9.95,8.36,7.23,8.09,9.63,16.65,11.09,22.11,1.28,4.78,2.69,12.27,2.01,21.6,2.44,1.41,11.43,6.21,23.22,4.15,10.61-1.85,17.09-8.16,19.14-10.34,.24-10.63-1.29-19.4-2.84-25.61-1.5-6.01-4.32-16.87-12.38-28.51-6.52-9.41-13.6-15.21-17.2-18.11-4.48-3.61-8.6-6.26-11.79-8.12-7.07,11.49-14.14,22.98-21.2,34.47Z" fill="#575756" />
    <path id="rightACP" d="M333.76,177.99c-8.9-2.64-17.8-5.27-26.7-7.91-.97,6.22-1.88,14.85-1.59,25.14,.12,4.17,.81,21.49,8.2,43.14,4.67,13.69,10,23.22,16.21,34.32,6.29,11.25,12.33,20.32,17.01,26.9l32.47-2.15c-6.8-9.59-12.3-17.71-16.26-23.65-12.46-18.7-15.84-25.17-17.27-28-3.77-7.42-7.16-14.2-9.76-24.01-.69-2.62-2.87-11.27-3.36-22.9-.35-8.3,.27-15.41,1.06-20.88Z" fill="#878787" />
    <path id="rightP2" d="M338.92,310.75c1.26,7.29,2.52,14.58,3.78,21.86-5.46,.79-11.24,1.83-17.3,3.19-12.49,2.81-21.98,6.05-26.65,7.74-4.47,1.61-11.55,4.33-19.97,8.35-6.43,3.07-12,6.11-16.66,8.84-1.31-.52-6.12-2.6-9.02-8.04-3.12-5.85-1.81-11.44-1.48-12.7,4.25-2.43,9.52-5.25,15.68-8.17,9.32-4.41,17.25-7.42,22.62-9.3,10.75-3.76,19.11-5.8,24.15-7.01,6.94-1.67,15.29-3.39,24.84-4.76Z" fill="#b2b2b2" />
    <path id="rightP1" d="M338.92,310.75c1.26,7.29,2.52,14.58,3.78,21.86,8.45-1.47,15.6-2.11,20.88-2.41,11.04-.63,20.72-1.11,32.5,1.68,7.53,1.78,13.46,4.32,17.42,6.27l12.81-19.54c-5.14-2.55-11.38-5.2-18.66-7.41-7.97-2.43-15.22-3.74-21.31-4.45l-6.99-9.32-32.47,2.15c2.36,3.11,4.71,6.23,7.07,9.34-5.01,.6-10.02,1.21-15.03,1.81Z" fill="#9d9d9c" />
    <path id="rightSCA" d="M424.83,383.41c-.59-7.18-1.18-14.36-1.78-21.54-3.96-.75-8.91-1.57-14.65-2.2-8.78-.97-16.43-1.2-22.49-1.14-6.45,.05-14.75,.45-24.32,1.77-6.76,.93-14.5,2.37-22.93,4.61-.62,1.34-2.53,5.9-1.18,11.63,1.37,5.78,5.18,9.01,6.34,9.92,3.08-1.1,6.96-2.37,11.52-3.56,6.87-1.79,12.83-2.76,17.34-3.32,6.98-.86,13.15-1.07,18.22-1,4.1,.05,9.4,.31,15.54,1.11,5.24,.68,11.48,1.81,18.38,3.72Z" fill="#dadada" />
    <path id="rightAICA" d="M425.29,439.66c.22-7.46,.43-14.93,.65-22.39-4.1-.83-9.41-1.69-15.65-2.13-11.33-.8-20.82,.11-27.45,1.13-5.17,.8-13.72,2.46-23.79,6.18-5.49,2.02-10.07,4.15-13.6,5.96-.37,.81-2.54,5.87-.11,11.55,2.45,5.73,7.68,7.63,8.51,7.92,2.95-1.77,6.78-3.84,11.44-5.77,7.42-3.09,13.7-4.51,17.17-5.17,8.16-1.55,15.25-1.68,20.53-1.41,9.06,.46,16.65,2.29,22.31,4.13Z" fill="#dadada" />
    <path id="rightPICA" d="M364.96,537.63c.31-5.24,.62-10.47,.94-15.71-6.19-.68-11.91-1.11-17.06-1.37-4.08-.21-9.61-.41-16.17-.39-3.02,0-5.62,.06-7.65,.12-.22,.1-4.57,2.07-5.2,6.84-.42,3.16,.95,6.33,3.56,8.21,5-.16,9.4-.14,13.05-.06,6.1,.14,11.66,.5,16.58,.95,4.68,.43,8.72,.94,11.95,1.41Z" fill="#ededed" />
    <path id="rightV4" d="M431.92,486.12c-4.86-5.48-9.71-10.96-14.57-16.44-4.47,4.1-8.37,7.06-11.05,8.98-4.54,3.24-6.27,3.97-14.9,9.62-5.69,3.73-8.57,5.62-10.55,7.41-5.44,4.91-8.25,10.08-9.72,12.75-1.71,3.11-3.81,7.65-5.24,13.47-.31,5.24-.62,10.47-.94,15.71-.09,5.24-.07,10.17,.03,14.75,.09,4.25,.26,9.11,.58,14.46,.18,3.13,.38,5.81,.54,7.88,1.55,1.16,6.45,4.51,13.54,4.5,7.54-.02,12.64-3.84,14.1-5.01-.51-7.23-.83-13.32-1.05-17.88,0,0-.33-7.13-.47-18.24-.12-8.96,.02-11.29,.76-14.37,1.21-5.02,3.25-8.87,4.79-11.29,3.73-5.89,8.28-9.17,12.48-12.17,4.34-3.1,5.36-3.02,11.99-7.31,4.18-2.7,7.48-5.13,9.67-6.81Z" fill="#dadada" />
    <path id="ACA" d="M377.67,116.97c5.24-8.83,10.47-17.66,15.71-26.48,12.75-2.47,28.58-4.49,46.75-4.49s34,2.02,46.75,4.49c5.24,8.83,10.47,17.66,15.71,26.48-15.04-4.35-36.3-8.79-61.98-8.85-26.14-.06-47.75,4.45-62.95,8.85Z" fill="#9d9d9c" />
    <path id="basilarisHead" d="M413.5,338.16l12.81-19.54c4.61,2.68,9.22,5.35,13.83,8.03,4.61-2.68,9.22-5.35,13.83-8.03l12.81,19.54c-2.53,1.43-5.05,2.85-7.58,4.28-.66,6.48-1.32,12.95-1.97,19.43h-34.17c-.66-6.48-1.32-12.95-1.97-19.43-2.53-1.43-5.05-2.85-7.58-4.28Z" fill="#b2b2b2" />
    <path id="basilaris" d="M417.35,469.68c3.03-3.12,4.67-6.16,5.57-8.24,1.81-4.16,2.09-7.75,2.42-11.91,.31-3.92,.18-7.29-.05-9.88,.22-7.46,.43-14.93,.65-22.39-.37-11.29-.74-22.57-1.11-33.86-.59-7.18-1.18-14.36-1.78-21.54h34.17c-.59,7.18-1.18,14.36-1.78,21.54-.37,11.29-.74,22.57-1.11,33.86,.22,7.46,.43,14.93,.65,22.39-.4,4.39-.23,8.02,0,10.6,.39,4.13,.72,7.72,2.64,11.85,1.66,3.58,3.81,6.08,5.29,7.57-4.86,5.48-9.71,10.96-14.57,16.44-2.74-2.35-5.47-4.7-8.21-7.05-2.74,2.35-5.47,4.7-8.21,7.05-4.86-5.48-9.71-10.96-14.57-16.44Z" fill="#c6c6c6" />
</svg>