<svg version="1.1" xmlns="http://www.w3.org/2000/svg" xmlns:xlink="http://www.w3.org/1999/xlink" x="0px" y="0px" viewBox="0 0 521 443.1" enable-background="new 0 0 521 443.1" xml:space="preserve">
    <metadata xmlns:med="http://www.medreporter.org/reference/figure">
        <med:Figure lngs="de,en">
            <med:Title>
                <med:Trans lng="de">Lungensegmente</med:Trans>
                <med:Trans lng="en">Pulmonary segments</med:Trans>
            </med:Title>
            <med:Option id="rightSegment1">
                <med:Trans lng="de">Segment 1 rechts</med:Trans>
                <med:Trans lng="en">Right Segment 1</med:Trans>
            </med:Option>
            <med:Option id="rightSegment2">
                <med:Trans lng="de">Segment 2 rechts</med:Trans>
                <med:Trans lng="en">Right Segment 2</med:Trans>
            </med:Option>
            <med:Option id="rightSegment3">
                <med:Trans lng="de">Segment 3 rechts</med:Trans>
                <med:Trans lng="en">Right Segment 3</med:Trans>
            </med:Option>
            <med:Option id="rightSegment4">
                <med:Trans lng="de">Segment 4 rechts</med:Trans>
                <med:Trans lng="en">Right Segment 4</med:Trans>
            </med:Option>
            <med:Option id="rightSegment5">
                <med:Trans lng="de">Segment 5 rechts</med:Trans>
                <med:Trans lng="en">Right Segment 5</med:Trans>
            </med:Option>
            <med:Option id="rightSegment6">
                <med:Trans lng="de">Segment 6 rechts</med:Trans>
                <med:Trans lng="en">Right Segment 6</med:Trans>
            </med:Option>
            <med:Option id="rightSegment7">
                <med:Trans lng="de">Segment 7 rechts</med:Trans>
                <med:Trans lng="en">Right Segment 7</med:Trans>
            </med:Option>
            <med:Option id="rightSegment8">
                <med:Trans lng="de">Segment 8 rechts</med:Trans>
                <med:Trans lng="en">Right Segment 8</med:Trans>
            </med:Option>
            <med:Option id="rightSegment9">
                <med:Trans lng="de">Segment 9 rechts</med:Trans>
                <med:Trans lng="en">Right Segment 9</med:Trans>
            </med:Option>
            <med:Option id="rightSegment10">
                <med:Trans lng="de">Segment 10 rechts</med:Trans>
                <med:Trans lng="en">Right Segment 10</med:Trans>
            </med:Option>
            <med:Option id="leftSegment12">
                <med:Trans lng="de">Segment 1/2 links</med:Trans>
                <med:Trans lng="en">Left Segment 1/2</med:Trans>
            </med:Option>
            <med:Option id="leftSegment3">
                <med:Trans lng="de">Segment 3 links</med:Trans>
                <med:Trans lng="en">Left Segment 3</med:Trans>
            </med:Option>
            <med:Option id="leftSegment4">
                <med:Trans lng="de">Segment 4 links</med:Trans>
                <med:Trans lng="en">Left Segment 4</med:Trans>
            </med:Option>
            <med:Option id="leftSegment5">
                <med:Trans lng="de">Segment 5 links</med:Trans>
                <med:Trans lng="en">Left Segment 5</med:Trans>
            </med:Option>
            <med:Option id="leftSegment6">
                <med:Trans lng="de">Segment 6 links</med:Trans>
                <med:Trans lng="en">Left Segment 6</med:Trans>
            </med:Option>
            <med:Option id="leftSegment7">
                <med:Trans lng="de">Segment 7 links</med:Trans>
                <med:Trans lng="en">Left Segment 7</med:Trans>
            </med:Option>
            <med:Option id="leftSegment8">
                <med:Trans lng="de">Segment 8 links</med:Trans>
                <med:Trans lng="en">Left Segment 8</med:Trans>
            </med:Option>
            <med:Option id="leftSegment9">
                <med:Trans lng="de">Segment 9 links</med:Trans>
                <med:Trans lng="en">Left Segment 9</med:Trans>
            </med:Option>
            <med:Option id="leftSegment10">
                <med:Trans lng="de">Segment 10 links</med:Trans>
                <med:Trans lng="en">Left Segment 10</med:Trans>
            </med:Option>
        </med:Figure>
    </metadata>
    <g>
        <path fill="#CDCCCC" fill-opacity="0.5" d="M235.2,220.1c-0.4,7.9-1,17.8-2,30.8c-0.2,2.8-1.1,13.8-6.2,23c-0.8,1.4-2,3.4-4.2,5   c-5.1,3.8-11.4,3-13.4,2.8c-2.7-0.3-6.2-1.5-12.1-5.5c-4.1-2.8-4.8-4.4-5.1-5.1c-0.8-2.1-0.3-3.5,0-7.4c0.1-2,0.2-4.8-0.1-8.2   c-0.1-0.1-1.1-1.8-3.2-1.8c-2.1,0-3.3,1.8-3.3,1.8c0.1,2.1,0.2,4.3,0.3,6.4c0.1,2.6,0.3,5.2,0.6,7.6c-1.2-1.4-2.6-2.9-4.2-4.3   c-1.1-1-2.1-1.9-3.1-2.7c-0.3,0-1.9,0.2-3,1.7c-1.2,1.6-0.9,3.3-0.8,3.6c0.5,0.7,1.3,1.7,2.3,2.9c2.2,2.6,3.2,3.4,4.5,5.2   c0.9,1.1,2,2.8,3.1,5.2c-1.3,0-2.9,0.2-4.6,0.6c-1.9,0.4-3.5,1-4.8,1.6c-1.4,1.2-2,3.1-1.6,4.7c0.6,2.2,3,3.8,5.7,3.3   c1.3-0.7,2.9-1.5,4.9-2.2c1.5-0.5,2.9-0.9,4.1-1.1c0.9,0.9,2.4,2.3,4.4,3.8c3.1,2.2,4.7,2.8,7.6,4.9c2.4,1.8,3.8,3,5,4.4   c1.1,1.3,1.9,2.2,2.3,3.5c0.7,2.3,0,4.4-0.9,6.8c-2.9,7.7-4.3,10.7-4.3,10.7c-2.5,5.2-3.7,7.7-5.3,10.4c-2.4,3.9-3.7,6.1-6.3,8.7   c-1.5,1.5-3.5,3.4-6.6,4.8c-2.4,1.1-5,1.4-10.1,1.9c-4,0.4-6.9,0.5-8.2,0.6c-3,0.1-5.6,0-7.7-0.2c-0.2,0.3-1.9,2.1-1.6,4.7   c0.2,2,1.5,3.3,1.8,3.6c1.4,0.1,3.6,0.3,6.2,0.1c4-0.3,6.6-1.2,6.8-0.7c0.1,0.3-0.7,1-4.8,3c-0.9,1.5-0.7,3.3,0.3,4.7   c1.1,1.4,3,2,4.7,1.5c1-0.6,2.5-1.7,4.3-2.9c3.2-2.3,4.3-3.1,6.4-4.3c1.1-0.7,2.8-1.6,5-2.6c-1.1,0.9-2.6,2.3-4.3,4.1   c-3.5,3.7-4,5.4-6.4,8.1c-3.3,3.7-6.7,5.6-9.7,7.3c-4.3,2.4-8.3,3.7-11.2,4.4c-0.2,0.4-0.9,2.5,0.1,4.8s2.9,3.2,3.3,3.4   c2.1-0.7,4.6-1.8,7.4-3.3c2.8-1.6,5-3.3,6.7-4.8c-1.7,2.3-3.5,4.6-5.5,7c-2.2,2.7-4,4.6-4.6,5.2c-2,2.2-3.8,4-5.3,5.5   c-0.5,1.4-0.3,3,0.6,4.1c1,1.3,2.7,1.8,4.3,1.4c1.5-1.5,3.1-3.1,4.6-4.8c0.8-0.9,1.7-1.8,2.4-2.7c-0.1,1.4-0.3,2.9-0.5,4.5   c-0.3,1.8-0.6,3.5-1,5c0.1,0.2,1.1,1.9,3.1,2c1.5,0.1,3-0.6,3.8-1.9c0.1-1.4,0.1-3.5,0.1-6.1c-0.1-2.9-0.2-3.6-0.1-5.3   c0.2-2.9,0.9-5.1,1.6-6.8c0.7-2,1.7-3.9,3.8-7.6c2.1-3.9,3.2-5.5,3.8-6.3c1.1-1.5,2-2.7,2.8-3.5c0.2,2.2,0.4,4.6,0.6,7.1   c0.1,2.7,0.1,5.2,0.1,7.6c0.6,1.9,2.3,3.1,4.2,3.1c2.1,0,3.9-1.5,4.4-3.6c-0.5-2.5-1.2-6.1-1.7-10.4c-1-7.9-0.7-9.9-0.5-10.6   c0.4-2.1,1.8-6.4,7.2-10.6c0.1,1.6,0.1,3.3,0.2,4.9c0.1,0.1,1.4,1,3,0.6c1.5-0.4,2.2-1.8,2.2-1.9c-0.3-2.8-0.5-5.6-0.8-8.4   c2.2-2,4.7-4.4,7.2-7.4c3-3.7,13.2-20.7,15.2-23.7c4.2-6.5,13.4-23.5,14.4-26.2c0.1-0.1,1.4-2.1,3.8-2.2c2.2,0,3.5,1.6,3.6,1.8   c3.3,4.4,4.6,5.8,7.7,9.2c1.8,2,1.8,2.5,15.7,14.6c6.4,5.6,12.1,10.5,17.1,15.2c8.3,7.7,12.1,11,16.5,16.1c2.9,3.4,5.2,6.4,6.7,8.4   c-0.7,0.9-1.5,1.8-2.5,2.8c-1.2,1.1-2.4,2.1-3.4,2.8c-0.1,0.2-0.4,1.7,0.5,3c0.8,1.2,2.4,1.8,4,1.5c1-1.1,2-2.2,3-3.3   c0.7-0.6,1.3-1.2,2-1.8c1.2,1.7,2.7,3.9,4.1,6.8c0.4,0.7,1.6,3.1,2.9,6.7s0.9,3.4,2.6,8.7c0.7,2.1,1.2,3.4,2.2,6.6   c0.4,1.4,0.8,2.6,1,3.3c-1.8,1.1-3.7,2.1-5.5,3.2c-0.1,0.2-1,1.8-0.2,3.4c0.6,1.5,2.2,2.4,3.9,2.3c1.2-0.8,2.5-1.5,3.7-2.3   c-0.2,2-0.5,4.1-0.8,6.2c-0.3,2.2-0.7,4.4-1.1,6.4c0.1,0.2,1.1,1.7,3,2c2,0.3,3.3-1,3.4-1.1c0.3-2.2,0.6-4.5,0.9-6.8   c0.4-3.3,0.7-6.4,1-9.5c0.9,2.2,1.7,4.6,2.5,7.1c0.6,1.7,1,3.4,1.5,5.1c0.3,0.2,2,1.2,4.1,0.6c1.8-0.5,2.7-1.8,2.9-2.2   c-1.3-2.4-2-4.5-2.4-5.9c-0.4-1.2-0.7-2.6-1.7-4.3c-0.6-1-1.3-1.8-1.7-2.3c1.3,0.8,2.5,1.6,3.8,2.4c0.3-0.1,2-0.5,3.1-2.2   c1-1.7,0.7-3.4,0.6-3.7c-1.5-0.7-3.5-1.7-5.6-3.3c-2.6-2-4.1-3.9-4.5-4.4c-1.8-2.2-2.4-3.9-4-7.6c-1.4-3.1-2.9-6.2-4.4-9.3   c-4.2-9.1-0.2-0.4-5.3-11.7c-1.9-4.2-2.4-5.2-2.8-7.1c-0.7-3.5-0.3-6.6,0.1-8.6c1.6-0.1,5.3-0.1,9.3,2c3.5,1.8,5.5,4.4,6.4,5.7   c1.7,2.7,3.7,5.5,6.1,8.3c1,1.2,1.9,2.3,2.9,3.3c0.1,0,2.3,0.6,3.9-0.9c1.2-1.1,1.6-2.9,0.9-4.5c-2.2-2.6-4.4-5.2-6.6-7.8   c2,0.7,4,1.4,6.1,2.2c2.4,0.9,4.8,1.8,7.1,2.6c1.7-0.4,3-1.7,3.4-3.3c0.4-1.7-0.2-3.4-1.5-4.5c-1.5-0.3-3.8-0.8-6.4-1.6   c-4.6-1.5-7.7-3.1-10.5-4.4c-3.2-1.5-7.8-3.5-13.8-5.5c3-1.5,6-3.2,9.1-4.9c3.4-2,6.7-3.9,9.9-5.9c1.3-1.6,1.6-3.9,0.6-5.6   c-1.1-1.9-3.4-3-5.6-2.4c-2.8,1.6-5.7,3.3-8.5,4.9c1.3-1.8,3.1-4.6,4.6-8.3c1.4-3.4,1.8-6.1,2.4-9.9c0.6-3.4,1.5-8.8,2.8-16.2   c-0.4-1.9-2-3.3-3.8-3.3c-1.6-0.1-3.1,0.8-3.8,2.3c0,2.5,0,4.9,0,7.4c-1.1-2.3-2.1-4.7-3.2-7c-1.3-0.4-2.7-0.1-3.7,0.8   c-1.1,1-1.4,2.6-0.9,4c0.8,1.1,1.8,2.7,2.5,4.8c1.2,3.6,0.9,6.6,0.3,11.3c-0.5,4.2-0.7,6.3-2,9.1c-0.9,2.2-2.4,5.5-5.7,7.7   c-1.3,0.9-4.8,2.8-12.5,1.6c-2.3-0.3-10.5-1.8-24-11.7c-6.6-4.9-12.3-9-17.9-16.7c-1.2-1.7-6.8-9.4-10.2-21.1   c-1.9-6.4-2.4-11.3-3-18.2c-0.7-7.1-1.1-17.2-0.2-29.4c-0.5-0.7-4.3-6-11.4-6.6C240.4,213.8,235.6,219.5,235.2,220.1z" />
    </g>
    <g id="rightSegment1">
        <path id="rightSegment1Lateral" fill="#F8F7F7" d="M179.2,50.5c4.5-2.1,7.9-4.1,10.3-5.6c4.7-2.9,6.6-4.7,11.4-7.6   c3.4-2,6.4-3.4,8.3-4.3c-6.3-6.4-11-11.6-14.1-15.2c-2.3-2.6-4.6-5.3-8.6-8.3c-2.3-1.8-5.2-3.8-9.4-5.3c-2.1-0.7-7.5-2.5-14.1-1.3   c-5.7,1-9.3,3.7-13.2,6.6c-3,2.2-7.4,5.9-11.5,11.7c5.8,3.2,10.2,6.3,13.1,8.4c6.2,4.5,8.8,7.2,15.9,12.6   C172.3,45.9,176.6,48.8,179.2,50.5z" />
        <path id="rightSegment1Medial" fill="#F8F7F7" d="M110.4,264.2c-2.5,3.3-5.6,7.9-8.7,13.9c-1.2,2.3-3.7,7.5-7.1,18.3   c-2.1,6.8-4.6,16-6.7,27c-3.5-6.6-6.8-11.8-9.3-15.5c-3.8-5.8-5.9-8.9-9.4-12.7c-3.1-3.4-6.9-7.4-13-10.6c-4-2.1-7.6-3.2-10.2-3.8   c2.1-2.6,5.3-6.7,8.9-12c4.6-6.7,5.3-8.6,8.4-11.5c5.1-4.5,10.6-6.1,14.1-7.1c5-1.4,9.1-2.6,14.4-1.4c5.8,1.4,9.6,4.9,12.1,7.3   C107.2,259,109.2,262.1,110.4,264.2z" />
        <path id="rightSegment1Bronchus" fill="#F8F7F7" d="M185.6,255.5c0-0.1,1.2-1.9,3.4-1.8c2,0.1,3.1,1.7,3.1,1.9   c0.1,1.1,0.2,2.2,0.2,3.4c0,0.4,0,1.3,0,2.5c0,2.2-0.2,3-0.3,4.9c-0.1,2.2-0.2,3.3-0.1,4c0.3,1.3,1,2.2,1.5,2.8   c-0.4-0.1-1.6-0.4-3,0.1s-2.2,1.4-2.4,1.8c-0.1-0.3-0.2-0.6-0.3-1.1c-0.3-0.9-0.8-2.5-1.1-4.3c-0.4-1.8-0.5-3.3-0.6-5.1   c0-0.4-0.1-1-0.2-3.1C185.7,259.9,185.7,257.9,185.6,255.5z" />
    </g>
    <g id="rightSegment2">
        <path id="rightSegment2Lateral" fill="#F0F0F0" d="M179.4,90.4c-0.4-5.8-0.5-10.5-0.6-13.7c0-3.5,0-5.6,0.2-14.7   c0.1-5,0.2-9,0.2-11.4c-2.6-1.7-6.8-4.5-11.8-8.3c-7.1-5.4-9.7-8.1-15.9-12.6c-2.9-2.1-7.3-5.1-13.1-8.4c-2.2,3.9-4.5,8-6.7,12.3   c-2.8,5.5-5.2,10.5-7.4,15.6c0.5,2.2,1,5.2,2,9.1c0.7,2.6,2.1,7,5.3,11.9c3.6,5.6,4.8,7.2,7.6,10.8c0.1,0.1,0.2,0.3,0.4,0.5   c2.5,3.1,7.8,7.6,8.6,8.2c1.5,1.3,3.8,3.2,6.5,5.6c2.9-1.3,5.5-2.2,7.6-2.8c4-1.2,7.5-1.6,9.8-1.9C175,90.3,177.5,90.3,179.4,90.4z   " />
        <path id="rightSegment2Medial" fill="#F0F0F0" d="M110.4,264.2c-2.4,3.2-5.6,7.8-8.6,13.7c-1.2,2.3-3.7,7.5-7.2,18.4   c-2.1,6.8-4.7,16-6.7,27c2.4-6.8,5.7-11.1,8.3-13.7c1-1,3.9-3.3,9.6-7.8c6.9-5.4,7.9-6.1,9.8-8.1c2.6-2.7,4.9-6,6.9-10.1   c-1.7-3.5-3.3-6.5-4.7-8.8c-2-3.3-3.7-5.8-4.7-7.1S111.1,265.1,110.4,264.2z" />
        <path id="rightSegment2Bronchus" fill="#F0F0F0" d="M187.7,273.9c-0.4-1.4-0.7-2.9-1.1-4.3c-1-1-1.9-1.9-2.5-2.5   c-1.1-1.1-2-1.9-3.1-2.9c-0.8-0.7-1.4-1.2-1.9-1.5c-0.3,0-1.9,0.2-3,1.7c-1.2,1.6-0.9,3.3-0.8,3.6c0.5,0.7,1.3,1.7,2.3,2.9   c2.3,2.8,3.3,3.6,4.7,5.4c0.8,1.1,1.9,2.8,2.9,5.1c0.1-0.5,0.3-1.6,1.1-2.6c0.9-1.1,2-1.6,2.5-1.7   C188.3,275.9,188,274.9,187.7,273.9z" />
    </g>
    <g id="rightSegment3">
        <path id="rightSegment3Lateral" fill="#E0E0E0" d="M179.2,50.5c4.2-2,7.5-3.9,9.6-5.2c5.1-3.1,7.1-5,12.1-8c3.5-2,6.4-3.4,8.3-4.3   c2.8,2.3,6.9,5.8,11.6,10.1c6.3,5.7,9.5,8.6,11.7,11.5c5.5,7.2,7.5,14.3,8.9,19.7c2,7.3,2.4,13.3,3,23.1c0.2,3,0.4,7.8,1,16.5   c0.2,2.5,0.3,4.6,0.4,6c-2.3-2-4.5-4.5-8.3-7.6c-7.5-6.3-10.1-7.5-11.7-8.1c-4.4-1.7-3.9-1-12.2-1.9c-4.8-0.5-9.6-2.7-12-4.4   c-6-4.2-6.9-4.4-11.9-6c-4.2-1.4-8-1.5-10.5-1.4c-0.4-5.8-0.5-10.5-0.6-13.7c0-3.5,0-5.6,0.2-14.7   C179.1,56.9,179.2,52.9,179.2,50.5z" />
        <path id="rightSegment3Medial" fill="#E0E0E0" d="M3.4,363.1c3.2,0.3,7.7,0.2,12.6-1.6c6.4-2.4,9.8-6.4,13.9-10.3   c0,0,5.1-4.9,20.9-15c7.4-4.8,19.2-10.4,37.2-12.8c-3.4-6.6-6.9-11.8-9.3-15.5c-5.5-8.8-12.5-18.1-22.4-23.3   c-4.1-2.1-7.8-3.2-10.2-3.8c-1.6,1.9-4.1,4.8-7.2,8.2c-7.8,8.4-11.1,10.3-16,16.1c-6.1,7-9.3,13.5-10.2,15.2   c-4.1,8.3-5.3,15.2-7.1,25.5C4.3,353,3.7,359.1,3.4,363.1z" />
        <path id="rightSegment3Bronchus" fill="#E0E0E0" d="M188.1,281c-0.5,0.2-1.4,0.4-2.5,0.5c-1.9,0.2-2.4-0.2-4.2,0   c-0.8,0.1-1.5,0.3-2.9,0.8c-1.1,0.3-2,0.7-2.7,1c-0.1,0.1-2.1,2-1.7,4.3c0.4,2.3,2.9,4.1,5.9,3.8c1.2-0.7,2.3-1.1,3.1-1.5   c0.9-0.4,1.9-0.8,3.1-1.2c1.1-0.3,2.1-0.5,2.8-0.7c0.6-0.1,1.2-0.2,1.8-0.3c0.2-0.4,0.7-2,0-3.8C189.9,282.1,188.4,281.2,188.1,281   z" />
    </g>
    <g id="rightSegment4">
        <path id="rightSegment4Lateral" fill="#D1D1D1" d="M155,95.3c2.9-1.4,7.2-3,12.5-4c4.6-0.9,11.5-2.2,19.5-0.1   c1.9,0.5,6.1,2.4,14.3,6.3c1.3,0.6,4,2.7,8.3,3.9c1.7,0.5,3.2,0.7,4.1,0.9c0.4,2.1,0.9,5.3,1.1,9.2c0.5,6.3,0.1,10.3-0.3,17.5   c-0.6,10.7-0.9,16.1-0.9,20.8c0.1,6.6,0.6,12.1-1.5,19.7c-0.4,1.5-0.9,2.8-1.2,3.6c-2.9,0.8-5.8,1.5-8.7,2.3   c-1.7-4.6-3.3-9.6-4.9-14.9c-1.9-6.4-1.6-8.3-3.4-13.1c-1.8-4.9-3.8-8.1-6.4-12.5c-2.4-3.9-5.1-7.6-10.6-15.1   c-3.8-5.1-5.7-7.7-7.8-10c-2.3-2.5-3.7-3.7-8.2-8.3C158.4,98.9,156.3,96.7,155,95.3z" />
        <path id="rightSegment4Medial" fill="#D1D1D1" d="M29.6,411.6c-1.4,5.4-2.8,10.8-4.2,16.3c-2.1-0.5-4.6-0.9-7.6-1   c-3.9-0.1-7.2,0.4-9.7,1c0.1-0.8,0.9-9.8,8.7-14.4C22.5,410.2,28.2,411.3,29.6,411.6z" />
        <path id="rightSegment4Bronchus" fill="#D1D1D1" d="M171.9,348.2c-0.3,0-0.6,0.1-1,0.1c-0.6,0-1.7,0.1-3.5,0.2c-1.9,0-2.7,0-3.7,0   c-1.2,0-2.9-0.1-4.9-0.2c-0.3,0.3-1.7,1.8-1.6,4.3c0.1,2.4,1.5,4,1.9,4c2,0.2,3.5,0.2,4.6,0.2c2-0.1,2.9-0.2,4.7-0.4   c0.2,0,2.6-0.5,2.9-0.5c0.1,0,0.2,0,0.3,0c0.2,0,0.4,0,0.6,0.1c0.6-0.5,1-0.9,1.4-1.2c0.7-0.6,1-0.9,1.2-1c0.2-0.2,0.3-0.3,0.6-0.6   c1.7-1.5,2.3-2.1,3.3-3c0.3-0.3,0.3-0.5,0.4-0.8c0.2-0.8-0.2-1.6-0.4-1.9C177.2,347.6,174.1,348,171.9,348.2z" />
    </g>
    <g id="rightSegment5">
        <path id="rightSegment5Lateral" fill="#C3C2C2" d="M213.7,102.2c2.1-0.1,5.2-0.1,8.8,0.9c4.1,1.1,7,2.8,8.7,3.9   c0.9,0.5,2.6,1.7,8.2,6.8c2.8,2.5,5,4.6,6.5,6.1c-0.6,8.6-0.1,15.4,0.4,20.2c0.4,3.8,1.2,9,0.3,16c-0.7,5.9-2,8.2-3.3,9.7   c-3,3.7-7.4,4.8-9,5.2c-2.1,0.5-4.5,0.6-9.2,0.6c-3.9,0-5.4-0.2-8.4,0.2c-2.5,0.3-4.5,0.9-5.8,1.3c0.3-0.8,0.7-2.1,1.2-3.6   c2.1-7.6,1.6-13.2,1.5-19.7c-0.1-4.7,0.2-10,0.9-20.8c0.4-7.2,0.8-11.2,0.3-17.5C214.6,107.5,214.1,104.3,213.7,102.2z" />
        <path id="rightSegment5Medial" fill="#C3C2C2" d="M88,323.4c-2.5,13.1-7.6,21-11.8,25.8c-2.2,2.5-3.7,3.6-6.9,6.6   c-3.5,3.2-5.1,5-6.1,6c-4.6,5-7.7,9.4-9.7,12.4c-1,1.5-2.3,3.5-4.8,7.6c-3.5,5.7-6,9.8-6.9,11.3c-2.6,4.3-6.5,10.5-12.1,18.4   c-1.4-0.3-7.1-1.4-12.8,1.9c-7.8,4.6-8.7,13.5-8.7,14.4c-1.4,0.1-6.2-3.4-6.6-4c-1.8-2.8-1.6-5.9-1.5-8c0.2-5.6,1-8.6,1.8-13.1   c1.1-6.8,1.3-12.2,1.4-16.5c0.1-4.1-0.1-4.6,0-11.8c0-4.8,0.1-8.8,0.2-11.3c3.2,0.3,7.7,0.2,12.6-1.6c6.4-2.4,9.8-6.4,13.9-10.3   c0,0,5.1-4.9,20.9-15C58.2,331.4,70,325.7,88,323.4z" />
        <path id="rightSegment5Bronchus" fill="#C3C2C2" d="M179.1,349.7c-2.4,2.1-4.7,4.2-7.1,6.3c-0.4,0.5-0.9,0.8-1.2,1   c-0.6,0.4-3.3,1.8-3.7,2c-0.8,1.5-0.8,3.4,0.3,4.7c1.1,1.4,3,2,4.7,1.5c0.7-0.5,1.6-1.1,2.7-1.8c3.8-2.6,5.1-3.8,7.9-5.4   c0.8-0.5,1.7-1,2.8-1.6c0-0.5,0.2-2.5-1.3-4.4C182.3,349.6,179.4,349.7,179.1,349.7z" />
    </g>
    <g id="rightSegment6">
        <path id="rightSegment6Lateral" fill="#B4B4B4" d="M124.3,49.1c0.3,2.3,0.9,5.5,2,9.1c1.8,5.7,4,9.6,5.3,11.9   c1.5,2.6,3.6,5.9,6.6,9.4c1.2,1.7,2.9,3.8,5.1,5.9c1.6,1.6,2.7,2.3,5.4,4.6c1.6,1.4,3.7,3.1,6,5.2c-4,4.3-6.5,8.1-8,10.9   c-1.8,3.2-2,4.5-4.3,8.2c-3,5-3.2,4.9-5.2,7c-2.8,3-5.5,3.7-9.9,3.8c-6.1,0.2-12.6,0.9-16.2,2.3c-1.6,0.6-2.8,1.2-3.6,1.7   c-0.1-2.4-0.2-5.7-0.2-9.7c0-4.4,0.1-10.2,1-17.2c0.8-6.5,2-11.1,3.7-17.6c2-8,4-13.9,5.4-17.8C119.2,62,121.4,55.9,124.3,49.1z" />
        <path id="rightSegment6Medial" fill="#B4B4B4" d="M122.5,283.8c-2,4.1-4.3,7.4-6.9,10.1c-1.8,1.9-2.9,2.6-9.8,8.1   c-5.7,4.5-8.6,6.8-9.6,7.8c-2.6,2.7-5.9,6.9-8.3,13.7c0.1,4.2,0.2,8.3,0.2,12.5c1.5,1.3,3.8,3.1,7.1,4.4c5.6,2.2,7.4,0.3,17.7,0.9   c7.5,0.4,10.4,1.6,18.9,1.2c1.6-0.1,2.9-0.2,3.7-0.3c-0.3-7.5-1-14.1-1.9-19.5c-1.6-10.6-3.9-18.5-4.8-21.3   C126.9,294.4,124.6,288.5,122.5,283.8z" />
        <path id="rightSegment6Bronchus" fill="#B4B4B4" fill-opacity="0.5" d="M201.6,351.8c1.3-1.4,3.3-3.4,4.7-4.9   c0.3,1.4,0.3,2.8,0.5,4.4c0.2,1.4,0.3,2.8,0.3,4.1c-0.1,0.1-0.8,1.7-2.5,2c-1.5,0.3-2.6-0.6-2.8-0.7   C201.9,354.8,201.6,353.7,201.6,351.8z" />
    </g>
    <g id="rightSegment7">
        <path id="rightSegment7Medial" fill="#A3A3A2" d="M88.2,335.9c1.3,9,4.5,16.2,8.8,24.2c4.1,7.3,4.4,7.1,5.6,10.9   c2.3,7,1.8,12.9,1.1,20.1c-0.5,4.9-1.5,11.7-4.2,19.7c-2.8,2.7-5.6,5.3-8.4,8c-6.3-0.2-12.7-0.3-19-0.5c-2.6-0.6-6.8-1.4-12-2   c-8.4-1.1-12-0.4-19.1-1.6c-4.8-0.8-8.7-2-11.4-3c5.5-7.8,9.5-14.1,12.1-18.4c4.4-7.2,6.9-11.3,6.9-11.3c4.1-6.7,4.4-7.3,5.5-8.9   c1.7-2.4,4.7-6.5,9-11.1c1.1-1.2,2.7-2.9,6.1-6c3.2-3,4.7-4.1,6.9-6.6c4.2-4.8,9.3-12.7,11.8-25.8   C87.4,328.6,87.8,332.9,88.2,335.9z" />
        <path id="rightSegment7Bronchus" fill="#A3A3A2" d="M187.1,366.7c0.2-0.6,1.2-1.5,2.5-2.5c2-1.5,4.1-1.3,4.7-1.3   c-0.1,0.7-0.1,1.8-0.1,3.1c0,1.4,0.1,2.5,0.4,4.9c0.3,2.1,0.5,3.6,0.8,6c0.3,1.8,0.7,4,1.2,6.6c-0.4,2-2,3.5-4,3.6   c-2.1,0.2-4-1.1-4.6-3.2c0-2.2,0-4.1,0-5.5c0-1.1,0-0.5-0.1-3.6C187.8,371.9,187.1,367.1,187.1,366.7z" />
    </g>
    <g id="rightSegment8">
        <path id="rightSegment8ILateral" fill="#949494" d="M154.7,95.3c-2,2-3.4,3.8-4.4,5.1c-2.1,2.9-3.4,5.5-3.8,6.3   c-1,2-1.9,4.4-4.3,8.2c-1.6,2.5-3,4.8-5.4,7c-1.9,1.6-3.2,2.3-3.7,2.5c-2.4,1-4.6,1.1-5.8,1c-0.1,0.5,0.9,10.6,2.8,19.8   c1.5,7.3,2.1,9.8,3.6,16.1c0.2,1.1,2,8.4,3.5,14.5c0.7,3,2.4,11.5,2.6,13.6c0,0.3,0.1,1.3,0.2,2.7c0.1,0.7,0.2,1.3,0.2,1.8   c2.3-0.5,4.6-1,6.9-1.5c1.8-0.4,4.6-1.1,7.8-2c2.9-0.8,4.4-1.3,10.5-3.3c9.4-3.1,7.4-2.4,10.4-3.4c7.5-2.5,8.4-2.8,12-3.9   c6-1.9,9.4-2.9,10.3-3.2c1.7-0.5,3.1-0.9,4.2-1.2c-0.5-1.5-0.9-3.1-1.4-4.6c-0.5-1.6-1-3.2-1.4-4.8c-0.5-1.8-1.8-5.9-1.8-5.9   c-2.4-8-2.7-8.9-3.4-11c-0.8-2.3-1.3-3.7-1.9-5.2c-0.3-0.8-1.1-2.4-2.2-4.5c-0.8-1.5-2.2-4.1-6.7-10.5c-0.5-0.7,0,0-4.8-6.7   c-1.8-2.4-2.7-3.7-4.1-5.6c-2.5-3.4-3.7-5.1-4.4-5.9c-1.4-1.7-3-3.2-6.1-6.3c-1.8-1.7-2.5-2.4-3.6-3.5c-0.5-0.5-0.8-0.8-1.2-1.2   C158.2,98.7,156.7,97.2,154.7,95.3z" />
        <path id="rightSegment8Medial" fill="#949494" d="M29.6,411.6c-1.4,5.4-2.8,10.8-4.2,16.3c7.3,1.5,7,2.1,11,3.2   c10.2,2.9,14.8,5,24.5,7.3c5.4,1.3,10,2,12.9,2.5c-0.3-3.7-0.6-7.4-0.8-11.1c-0.3-3.9-0.6-7.7-0.9-11.6c-2.6-0.6-6.8-1.4-12-2   c-8.7-1.1-14.6-0.6-20.8-1.9C33.5,413,37.7,413.9,29.6,411.6z" />
        <path id="rightSegment8Bronchus" fill="#949494" d="M176.9,367.7c-0.6,0.7-1.6,1.6-2.7,2.6c-2.5,2.1-5,3.5-6.9,4.6   c-1.8,1-3.5,1.9-7.1,3.2c-2.1,0.8-3,0.9-4.1,1.2c-0.2,0.4-0.9,2.4,0.1,4.8c0.9,2.3,2.9,3.2,3.3,3.4c1.4-0.5,3.1-1.1,5-2   c1.2-0.6,3.1-1.5,5.3-3.2c1.4-1.1,1.5-1,3.7-2.9c1.9-1.6,5.4-4.8,7.4-6.4c0-0.5-0.1-2-1.2-3.4C178.7,368.2,177.4,367.8,176.9,367.7   z" />
    </g>
    <g id="rightSegment9">
        <path id="rightSegment9Lateral" fill="#868686" d="M127.3,125.2c0.8,8.3,1.9,15,2.8,19.8c1,5.5,2.2,10.5,3.6,16.1   c1,4.4,1.7,6.9,3.5,14.5c0.9,4,1.9,8.1,2.6,13.6c0.2,1.9,0.4,3.4,0.5,4.5c-1.8,0.7-4.5,1.4-7.8,1.8c-2,0.2-5.4,0.5-9.6-0.4   c-3.7-0.8-7-1.6-8.6-4.3c-0.3-0.4-0.6-1.2-1-6.4c-0.3-3.5-0.3-5.9-0.3-7c-0.1-4.1-0.6-5-1.7-12c-0.4-2.6-0.8-6.3-1.7-13.6   c-0.7-5.9-1-8.9-1.3-12.3c-0.3-4.3-0.5-7.8-0.6-10.2c1.1-0.6,2.3-1.3,3.6-1.7C118.3,125.2,122.7,125.6,127.3,125.2z" />
        <path id="rightSegment9Medial" fill="#868686" d="M72.1,418.2c6.3,0.2,12.7,0.3,19,0.5c3.5,0.6,8.9,2.1,14.4,5.9   c1.3,0.9,5.5,3.8,9.4,9.1c2.3,3,3.7,5.9,4.7,8.1c-2.9,0.2-7,0.4-12.1,0.7c-8.9,0.5-10.7,0.5-12,0.5c-1.5,0-6.6-0.1-13.2-0.9   c-3.4-0.4-6.3-0.9-8.5-1.3C73.3,433.3,72.7,425.8,72.1,418.2z" />
        <path id="rightSegment9Bronchus" fill="#868686" fill-opacity="0.5" d="M171.7,381.7c-1.8,2.3-3.1,4-4.5,5.6   c-0.9,1-2.9,3.5-6.3,6.9c-0.9,1-2.3,2.3-2.9,2.8c0,0.1-0.8,2.2,0.6,4c1,1.3,2.8,2,4.4,1.5c1.8-1.7,3.1-3.1,4.1-4.1   c1.1-1.3,1.7-1.7,3-3.3c0.8-1,1.7-2.5,2.8-3.8c1-1.2,1.7-2.3,2.3-3c0.1-0.3,0.6-2.3-0.6-4.3C173.7,382.4,172.2,381.8,171.7,381.7z" />
    </g>
    <g id="rightSegment10">
        <path id="rightSegment10Medial" fill="#767676" d="M88.2,335.9c1.5,1.3,3.8,3.1,7.1,4.4c5.6,2.2,7.4,0.3,17.7,0.9   c7.5,0.4,10.4,1.6,18.9,1.2c1.6-0.1,2.9-0.2,3.7-0.3c0.4,4.7,1,11.5,1.3,19.8c0.6,15.2-0.3,14.2-0.4,41c0,7.5-1.2,15-1.5,22.6   c-0.2,4.9-0.3,8.6-2.9,11.7c-3.5,4.2-9.5,4.7-12.4,4.8c-0.9-2.2-2.4-5-4.7-8.1c-3.9-5.3-8.2-8.3-9.4-9.1c-5.6-3.8-11-5.3-14.4-5.9   c2.8-2.7,5.6-5.3,8.4-8c2.8-8.4,3.8-15.5,4.2-20.6c0.6-6.7,1.1-12.4-1.2-19.2c-0.3-0.9-3.2-6.6-5.6-10.9   C94.1,354.8,90,347.1,88.2,335.9z" />
        <path id="rightSegment10Bronchus" fill="#767676" d="M176.1,390.2c-0.1-0.1-0.5-0.4-1-0.5s-0.8,0-1,0.1c-0.8,1.1-3.5,4.8-3.9,5.3   c-0.2,1.3-0.2,2.2-0.4,3.5c-0.2,1.2-0.4,2.3-0.6,3.5c-0.2,0.9-0.4,1.7-0.6,2.6c0.1,0.1,1.2,1.9,3.4,2c2.3,0.1,3.6-1.8,3.6-1.9   c0.1-1.7,0.1-3.5,0.1-5.4c0-0.9-0.2-2.1-0.2-4c0-1.1,0-1.8,0.1-2.6C175.7,391.6,175.9,390.8,176.1,390.2z" />
    </g>
    <g id="leftSegment12">
        <path id="leftSegment12Lateral" fill="#F0F0F0" d="M296.1,24.8c1.3-1.1,3.3-2.8,5.7-4.9c6.9-6.1,7.9-7.2,11.3-9.9   c5.8-4.8,8.7-7.1,12.1-8.4c6.1-2.3,11.6-1.6,14-1.3c7.3,1,12.3,4.3,15.4,6.3c5.2,3.5,8.2,7.4,11.8,12.2c3.8,4.9,6.4,9.3,8.1,12.6   c-1.2,4.6-3,10.8-5.2,18c-2.6,8.3-4.5,14.3-7.9,22.3c-0.9,2.1-3.8,9-8.4,17.7c-1.2,2.3-2.3,4.3-3.1,5.7c-0.2-2.5-0.6-6.1-1.4-10.3   c-1.8-10.2-2.8-15.9-5.9-21.4c-2.5-4.3-7.4-8-17.3-15.3c-7.6-5.7-9.9-6.5-16.4-11.7C303.2,31.7,298.8,27.5,296.1,24.8z" />
        <path id="leftSegment12Medial" fill="#F0F0F0" d="M400.3,287.5c1.9-3.7,3.6-7,5.1-9.7c3.9-7.1,5.2-9,5.7-9.7c2.6-3.6,5.1-6,7.3-8.1   c3.7-3.5,7-6.7,12.2-9.4c3.2-1.7,6.9-3.7,12.3-4.2c2.6-0.2,8.3-0.7,13.4,2.5c1.8,1.1,3.1,2.7,5.8,5.7c2.9,3.3,4.2,5.4,6.2,8.1   c1.9,2.6,4.8,6.2,8.8,10.4c-2.8,2.3-6.4,5.5-10.2,9.7c-8.2,9.1-12.8,17.6-14.7,21.5c-4.4,8.9-6.7,17-7.9,23.4   c-7.1-2.8-12-6.2-15.1-8.7c-2.6-2.1-5.2-4.9-10.2-10.3c-3.1-3.3-5.3-5.8-8.9-9.8C407.6,296,404.3,292.1,400.3,287.5z" />
        <path id="leftSegment12Bronchus" fill="#F0F0F0" d="M337.1,314.6c2.3-2.6,3.6-5.1,4.4-6.8c1.7-3.7,2.5-7.5,3.3-11   c0.7-3.4,0.6-4,1.8-11c0.5-2.8,0.9-5,1.1-6.5c-0.5-1.6-1.8-2.8-3.5-3c-1.6-0.2-3.2,0.6-4,2.1c-0.1,1.6-0.2,3.3-0.2,5.2   c0,0.9,0.1,1.8,0.2,2.6c-0.6-1.4-1.2-2.9-1.9-4.3c-0.5-1.1-1-2.2-1.5-3.2c-0.1,0-2.1-0.6-3.7,0.8c-1.1,1-1.5,2.7-0.9,4.1   c0.7,1,1.7,2.4,2.4,4.3c0.6,1.6,0.8,3,0.9,4c0,1.9,0,4-0.2,6.3c-0.2,2.5-0.6,4.9-1,6.9c-0.2,1.5-0.8,4.2-2.8,7   c-1.7,2.5-3.7,3.9-5,4.7c-0.1,0.3-0.4,0.9-0.3,1.8s0.5,1.5,0.7,1.7c0.8-0.5,1.5-0.9,2-1.2c0,0,1.5-0.9,3.2-1.8   c1.3-0.7,1.4-0.8,2.2-1.2C335.5,315.5,336.5,315,337.1,314.6z" />
    </g>
    <g id="leftSegment3">
        <path id="leftSegment3Lateral" fill="#E0E0E0" d="M296.1,24.8c2.8,2.8,7.1,7,12.9,11.5c6.7,5.3,8.8,6,16.4,11.7   c10,7.5,15,11.3,17.6,15.9c2.9,5.2,3.9,10.7,5.6,20.8c0.7,4.3,1.1,7.9,1.4,10.3c-1.9-1.9-5.2-4.8-10.2-6.1   c-2.5-0.6-4.9-0.7-11.7,0.4c-7.7,1.3-13.2,2.2-20.3,5.1c-5.1,2.1-8.9,4.4-16.4,8.9c-2.8,1.7-6.2,4-12.3,8c-2.7,1.8-5,3.3-6.5,4.3   c-0.9-1.3-2.2-3.2-4.1-5.5c-4.3-5.4-6-6.3-7.7-9.2c-0.8-1.4-1.8-3.5-2.4-12.7c-0.6-7.9-1.1-12-0.2-17.9c0.5-3.4,1.3-8.8,4.3-15   c0.7-1.4,3.3-6.6,8.4-11.9c2.9-3,5.6-5,7-6c4.4-3.2,6.2-3.6,10.7-6.7C290.4,29.6,293.1,27.6,296.1,24.8z" />
        <path id="leftSegment3Medial" fill="#E0E0E0" d="M477.2,273.1c-2.8,2.3-6.4,5.5-10.2,9.7c-8.2,9.1-12.8,17.6-14.7,21.5   c-4.4,8.9-6.7,17-7.9,23.4c3.9-1,10.1-1.9,17.4-1c3.4,0.5,6.5,1.1,16.5,5.6c5.5,2.5,9.5,4.8,21.5,12c4.8,2.9,10.8,6.6,17.8,10.9   c1-3.3,2.1-6.5,3.1-9.8c0.2-1.8,0.4-4.6,0.3-8c-0.1-4-0.5-8.1-2.9-19.3c-2-9.9-2.5-12-3.1-14.1c-2.1-6.7-4-9.8-5-11.3   c-1.6-2.4-3.3-4.9-6.5-7.1c-2.6-1.8-3.2-1.2-10.5-4c-3.2-1.2-5.8-2.3-9-4C481,276,478.7,274.3,477.2,273.1z" />
        <path id="leftSegment3Bronchus" fill="#E0E0E0" d="M332.7,327.6c2.9-1.6,5.2-2.9,6.8-3.8c3.2-1.7,4.8-2.6,7.3-4   c2-1.2,3.6-2.2,4.7-3c1.3-1.7,1.4-3.9,0.3-5.7c-1.1-1.8-3.3-2.8-5.4-2.3c-2.4,1.3-4.4,2.5-6,3.5c-1.4,0.9-1.6,1.1-3,2   c-1.9,1.2-3,1.7-5.9,3.4c-1.1,0.6-2.7,1.5-4.6,2.6c-0.1,0.5-0.3,2.7,1.3,4.8C329.9,327.3,332.2,327.6,332.7,327.6z" />
    </g>
    <g id="leftSegment4">
        <path id="leftSegment4Lateral" fill="#D1D1D1" d="M350,95c-1.2,2.2-3.1,5.4-5.4,9.2c-4.2,6.8-8.4,13.6-14.7,21.1   c-4.6,5.5-5.6,5.7-11,12.3c-3.4,4.2-6,7.8-7.7,10.2c-0.6-2.3-1.6-5.5-3.5-9c-2.3-4.3-3.7-6.7-6.3-7.8c-1-0.4-3.4-1.1-13.3,3.4   c-4.4,2-8,4-10.4,5.4c-0.8-5.3-1.3-9.2-1.6-12.1c-0.3-2.5-0.6-5.3-2-8.9c-0.5-1.4-1-2.4-1.4-3.2c1.5-1,3.8-2.5,6.5-4.3   c6-3.9,9.5-6.2,12.3-8c6.4-3.9,10.5-6.5,16.4-8.9c7.3-3,12.7-3.9,20.8-5.2c6-1,8.5-1,11.2-0.3C344.7,90.1,348.1,93,350,95z" />
        <path id="leftSegment4Medial" fill="#D1D1D1" d="M517.5,355.2c-1.2,3.8-2,7-2.5,9.2c-0.7,3-0.9,4.8-2.5,13.2   c-0.4,2.1-0.7,3.8-0.9,4.9c-7.2-7.2-13.7-12.9-18.5-17c-7-5.9-10.9-9.2-17.1-12.9c-4.5-2.7-10.3-6.2-18.8-8.6   c-5.9-1.7-11-2.2-14.6-2.4c0.6-4.7,1.2-9.3,1.8-14c3.7-0.9,9.9-2,17.4-1c5.8,0.8,9.8,2.6,16.5,5.6c5.5,2.5,9.5,4.8,21.5,12   C504.5,347.2,510.6,350.9,517.5,355.2z" />
        <path id="leftSegment4Bronchus" fill="#D1D1D1" d="M347.3,341.7c-0.1-0.5-0.4-2.1,0.5-3.8c0.8-1.7,2.2-2.5,2.7-2.7   c0.7,0.3,1.7,0.8,2.8,1.2c0.4,0.2,2,0.8,4,1.4c1.6,0.5,2.9,0.8,4.3,1.1c0.7,0.2,1.3,0.3,1.7,0.4c0.2,0.1,1.8,1.6,1.6,3.9   c-0.2,1.9-1.7,3.5-3.6,3.9c-2-0.8-3.6-1.4-4.7-1.8c-2.4-0.9-3.5-1.3-5.3-2S348.1,342,347.3,341.7z" />
    </g>
    <g id="leftSegment5">
        <path id="leftSegment5Lateral" fill="#C3C2C2" d="M311.2,147.7c-1,1.5-2.3,3.5-3.9,5.8c-1.5,2.1-3.8,5.6-6.9,9.7   c-2.3,3.1-5.4,7-9.1,11.4c-3.6,1-6.7,1.5-8.9,1.8c-6,0.8-7.2,0.2-7.9-0.4c-1.8-1.5-1.8-4.2-1.8-6.7c0-2.1,0.4-3.9,2.2-9.3   c1.7-5,2.5-5.2,3-8.3c0.5-2.7,0.4-5.1,0.4-6.5c-0.1-2.3-0.3-4.2-0.6-5.6c2.4-1.4,6-3.4,10.4-5.4c9.9-4.5,12.3-3.8,13.3-3.4   c2.6,1,4,3.5,6.3,7.8C309.6,142.2,310.6,145.5,311.2,147.7z" />
        <path id="leftSegment5Medial" fill="#C3C2C2" d="M442.6,341.7c3.6,0.2,8.7,0.8,14.6,2.4c8.5,2.4,14.3,5.9,18.8,8.6   c6.2,3.8,10.2,7.1,17.1,12.9c4.8,4.1,11.3,9.8,18.5,17c-1.5,4.5-1.8,8.2-1.8,10.7c0,3.9,0.7,5.4,0.2,9.6c-0.4,3.3-0.8,6.4-3.2,8.3   c-1.4,1.1-3.3,1.2-5.1,1.4c-2.1,0.2-3.8,0-5-0.3c-1.5-4.3-3.1-8.6-4.6-12.9c-2.4-2.9-4.3-4.7-7.3-8l0,0c0,0-4-4.4-9.4-8.4   c-1.4-1.1-2.5-1.8-3.5-2.4c-1.6-1-2.8-1.7-3.6-2.1c-0.3-0.2-0.6-0.3-0.7-0.4c-7.3-4-11.4-7.4-11.4-7.4c-2-1.7-2.1-2.2-6.6-7.7   c-3.5-4.3-6.5-7.6-8.4-9.8C441.6,349.3,442.1,345.5,442.6,341.7z" />
        <path id="leftSegment5Bronchus" fill="#C3C2C2" d="M349.8,355.4c1.5,0.5,3.1,0.1,4.2-1.1c1.1-1.1,1.3-2.8,0.7-4.2   c-0.6-0.7-1.3-1.5-2.2-2.6c-1.3-1.7-1.8-2.3-2.8-3.4c-0.6-0.7-1.4-1.5-2.4-2.4c-0.7,0.1-1.9,0.3-3.2,1c-1.3,0.7-2.1,1.6-2.6,2.1   c1,1.6,1.9,2.8,2.6,3.8c1.1,1.4,1.9,2.5,2.8,3.5C348,353.5,349,354.6,349.8,355.4z" />
    </g>
    <g id="leftSegment6">
        <path id="leftSegment6Lateral" fill="#B4B4B4" d="M350,95c1.4-2.5,3.2-5.8,5.2-9.7c4.2-8.5,6.9-15.1,7.6-16.7   c1.6-4.1,4.6-11.8,7.3-21.8c1.8-6.4,3-12.1,3.9-16.6c1.8,3.1,4.1,7.4,6.2,12.8c2.5,6.3,3.8,11.4,5,16.2c1.5,6.2,1.3,6.5,3.5,17.2   c1.9,9.3,2.5,10.8,4.5,20.5c1.3,6.2,2.2,11.3,2.8,14.6c-7.5-1.7-15.8-4.1-24.6-7.3c-5.1-1.8-9.3-3.6-10.5-4.1   C356.9,98.2,353.2,96.6,350,95z" />
        <path id="leftSegment6Medial" fill="#B4B4B4" d="M442.6,341.7c0.6-4.7,1.2-9.3,1.8-14c-4.1-1.6-9.5-4.3-15.1-8.7   c-4.5-3.6-7.9-7.2-10.2-10.3c-2.9-3.2-5.9-6.5-8.9-9.8c-3.4-3.8-6.7-7.6-9.9-11.4c-1.7,2.6-3.9,6-6.1,10.3   c-1.7,3.2-4.1,8.2-6.2,14.8c-1.8,5.8-2.3,10.1-3.4,17.8c-0.7,5.1-1.2,9.1-1.3,14.7c-0.1,6.5,0.5,11.9,1.1,15.8   c8.8-2.2,16-2.7,21.1-2.9c9.2-0.2,14.7,0.9,23.8-1c5.1-1.1,9.1-2.7,11.8-3.9C441.6,349.3,442.1,345.5,442.6,341.7z" />
        <path id="leftSegment6Bronchus" fill="#B4B4B4" d="M314.6,352.7c0.4,0.6,0.8,1.3,1.3,2c0.6,0.9,1.3,1.6,1.9,2.3c-0.9,1-1.8,2-2.7,3   c-0.8,0.9-1.6,1.8-2.4,2.7c-1.3,0.4-2.8-0.1-3.7-1.1c-1.3-1.5-0.8-3.3-0.8-3.4c0.9-0.7,1.8-1.4,2.8-2.2   C312.4,354.9,313.6,353.8,314.6,352.7z" />
    </g>
    <g id="leftSegment7">
        <path id="leftSegment7Medial" fill="#A3A3A2" d="M441.1,353.1c2,2.2,4.9,5.5,8.4,9.8c4,4.9,4.5,5.8,6.6,7.7   c1.7,1.5,2.5,1.9,11.4,7.4c6.5,4,7.1,4.4,7.7,4.9c3.9,2.8,6.5,5.4,9.4,8.4c2,2,4.5,4.7,7.3,8c1,2.6,1.9,5.3,2.9,7.9   c-2.6-0.7-6.3-1.5-10.9-1.7c-6.3-0.4-11,0.3-16.2,1.1c-4,0.6-9.2,1.6-15.3,3.5c-3.4,0.2-7.9,0.9-12.9,2.6c-3.3,1.2-6,2.6-8.3,3.9   c1.2-3.5,2.4-7,3.5-10.5c-1.4-10.3-1.6-18.9-1.6-25.2c0-7.9,0.6-12.1,2.1-16.7C437.1,359.2,439.4,355.5,441.1,353.1z" />
        <path id="leftSegment7Bronchus" fill="#A3A3A2" d="M329.5,375.3c0.6,0.7,1.4,1.8,2,3.3c0.7,1.8,0.8,3.2,0.9,5.7   c0.1,2.7-0.2,3.6-0.7,4.3c-0.4,0.5-0.8,0.8-1.1,1c-1.1,0.7-2.9,1.9-5.7,3.3c-0.1,0.1-1,1.9,0,3.8c0.7,1.3,2.2,2,3.7,1.9   c1.4-0.9,2.7-1.8,4.1-2.7c1.4-1.3,2.4-2.5,3-3.4c0.6-1,1.7-2.7,2.3-5.2c0.2-1,0.3-1.9,0.3-2.6c-0.8-1.6-1.5-3.2-2.3-4.8   c-1.2-2.5-2.5-4.9-3.7-7.3c-0.5,0.2-1.3,0.7-1.9,1.5C329.9,374.5,329.6,375,329.5,375.3z" />
    </g>
    <g id="leftSegment8">
        <path id="leftSegment8Lateral" fill="#949494" d="M291.3,174.7c4-4.6,7.2-8.7,9.6-12.1c4.1-5.5,7.2-10.3,8-11.4   c1.1-1.7,1.3-2.1,2.3-3.5c1.6-2.3,3.8-5.5,7.1-9.4c3.3-4,3.5-3.8,7.6-8.6c4.9-5.6,8.2-10.1,9-11.1c3.5-4.7,5.9-8.4,7.4-10.7   c2.2-3.5,4.9-7.8,7.7-12.8c3.7,1.7,7.3,3.3,11,5c0.6,3.6,1.2,8.5,1.4,14.3c0.1,2,0.4,10.3-0.9,21.8c-0.6,4.9-1.3,8.7-2.7,16.2   c-2,11-4.1,19.4-5.2,23.8c-1,4-1.9,7.4-2.7,10c-6.1-0.7-10.9-1.7-14.1-2.4c-1.5-0.3-2.5-0.6-14.8-3.8c-5.1-1.3-8-2.1-12.2-3.1   c-5.3-1.2-8.2-1.8-11.7-2.1C295.3,174.6,292.9,174.6,291.3,174.7z" />
        <path id="leftSegment8Medial" fill="#949494" d="M457.8,427.8c-1.7-5.9-3.5-11.8-5.2-17.7c6.1-1.8,11.3-2.9,15.3-3.5   c5.1-0.8,9.9-1.5,16.2-1.1c4.6,0.3,8.3,1.1,10.9,1.7c0.6,1.7,1.2,3.3,1.7,5c-1.9,0.5-4.9,1.3-8.4,2.7c-3.5,1.4-4.5,2.2-7.7,3.4   c-4.7,1.9-6.6,1.8-10.3,3C467.1,422.3,462.7,424.1,457.8,427.8z" />
        <path id="leftSegment8Bronchus" fill="#949494" d="M332.2,372.5c0.8,1.4,1.9,3.5,3.2,6.2c1.4,3,1.8,4.1,2.9,6   c0.9,1.5,2.2,3.5,4.4,5.7c1,0.7,2,1.5,3.1,2.2c0.7,0.5,1.4,1,2.1,1.4c0.3-0.1,2.1-0.4,3.2-2.2c1.1-1.7,0.7-3.5,0.6-3.8   c-0.9-0.4-2.1-0.9-3.4-1.7c-0.9-0.6-2.9-1.8-4.9-3.9c-1.5-1.6-2.8-2.9-3.8-4.9c-0.4-1-0.7-1.8-1.7-3.9c-0.4-0.9-0.8-1.7-1.1-2.2   c-0.6,0-1.4,0-2.3,0.2C333.5,371.9,332.7,372.2,332.2,372.5z" />
    </g>
    <g id="leftSegment9">
        <path id="leftSegment9Lateral" fill="#868686" d="M360.9,100c3.3,1.4,6.8,2.8,10.5,4.1c8.7,3.1,16.9,5.5,24.6,7.3   c0.6,5.9,0.9,11,1,15.3c0.3,9.8-0.1,17.2-0.3,19.3c-0.3,4.4-0.7,8.5-1.2,13.2c-0.3,2.9-0.5,4.8-1.1,9.9c-0.6,5.9-0.2,6.4-0.8,8.3   c-1.5,4.9-4.9,7.8-6.2,8.8c-4.3,3.5-8.9,3.9-10.5,4.1c-1.3,0.1-3.8-0.3-8.7-1.1c-3.8-0.6-5.5-1-10-1.8c-3.1-0.5-5.7-1-7.3-1.2   c0.7-2.5,1.6-5.9,2.7-10c1.1-4.4,3.1-12.8,5.2-23.8c1.4-7.6,2.1-11.3,2.7-16.2c1.3-11.5,1-19.9,0.9-21.8   C362.1,108.5,361.5,103.6,360.9,100z" />
        <path id="leftSegment9Medial" fill="#868686" d="M405.8,441c1.8-3.2,4.2-6.8,7.5-10.5c6.4-7.2,13.2-11.5,18.1-14   c2.2-1.3,5-2.7,8.3-3.9c5-1.8,9.5-2.4,12.9-2.6c1.7,5.9,3.5,11.8,5.2,17.7c-2.4,2.2-6,5-10.7,7.7c-3.9,2.2-12,6.7-23.3,7.5   C419.7,443.3,413.4,443.3,405.8,441z" />
        <path id="leftSegment9Bronchus" fill="#868686" d="M338.2,384.7c0.2,0.4,0.5,0.9,0.9,1.5c0.1,0.1,0.4,0.7,0.9,1.3   c0.4,0.6,0.8,1,1.1,1.3c0.5,0.5,0.4,0.4,0.7,0.8c0,0,0.5,0.5,0.7,0.8c0,0,0.1,0.1,0.2,0.2c0,0,0.1,0.1,0.2,0.1   c0.3,0.3,0.8,0.7,1.3,1.2c0.4,0.5,1,1.1,1.5,1.9c0.2,0.3,0.7,1.1,1.4,2.9c0.5,1.5,0.6,2.1,1,3.2c0.3,1,0.9,2.5,1.9,4.2   c-0.2,0.3-1.1,1.7-3,2.2c-2.1,0.6-3.8-0.5-4.1-0.7c-0.5-1.7-1-3.5-1.6-5.4c-0.7-2.3-0.9-2.3-1.3-3.8c-0.1-0.3-0.6-2.3-1.2-4   c-0.1-0.4-0.3-0.7-0.5-1.1c-0.1-0.1-0.2-0.4-0.4-0.7c-0.3-0.3-0.5-0.6-0.7-0.8c0.2-0.5,0.5-1.2,0.7-1.9   C338.1,386.7,338.2,385.5,338.2,384.7z" />
    </g>
    <g id="leftSegment10">
        <path id="leftSegment10Medial" fill="#767676" d="M441.1,353.1c-1.7,2.4-4,6.1-5.7,11c-1.5,4.5-2.1,8.8-2.1,16.7   c0,6.3,0.3,14.9,1.6,25.2c-1.2,3.5-2.4,7-3.5,10.5c-4.9,2.5-11.8,6.9-18.1,14c-3.3,3.7-5.7,7.3-7.5,10.5c-2.4-0.1-7.8-0.8-12.1-4.9   c-3.1-3-4.2-6.4-5.2-9.8c-1.2-3.6-1.1-5.4-1.8-12.6c-1-9.2-1.3-8.2-1.9-15.2c-0.5-5.4-0.9-9.6-0.7-15.4c0.2-4.9,0.6-6.6,0.7-12.3   c0.1-4.2-0.1-7.7-0.2-9.9c9.1-2.2,16.6-2.8,21.7-2.9c8.7-0.2,14.2,0.9,23.1-1C434.4,355.9,438.5,354.3,441.1,353.1z" />
        <path id="leftSegment10Bronchus1" fill="#767676" d="M337,389.8c-0.4,0.9-0.8,1.7-1.2,2.3c-0.3,0.5-0.8,1.3-1.6,2.2   c-0.6,0.7-1.1,1.2-1.5,1.5c-0.1,0.6-0.3,1.5-0.5,2.7c-0.3,1.7-0.2,2.2-0.5,4.2c-0.1,0.8-0.3,1.6-0.6,3.2c-0.2,1.3-0.5,2.4-0.6,3.1   c0.1,0.2,1.1,1.7,3.1,2c2,0.2,3.3-1,3.4-1.2c0.3-2.1,0.5-3.7,0.6-4.9c0.3-2.3,0.5-3.3,0.6-4.9c0.2-1.7,0.3-3.3,0.4-4.4   s0.2-2,0.2-2.7c-0.1-0.1-0.1-0.3-0.2-0.4c0-0.1-0.1-0.3-0.2-0.4c0-0.1-0.1-0.3-0.2-0.5c-0.3-0.5-0.6-0.9-0.7-1.1   C337.5,390.2,337.3,390,337,389.8z" />
        <path id="leftSegment10Bronchus2" fill="#767676" d="M326.4,376.6c0.2-0.2,0.6-0.7,1.3-1c0.8-0.3,1.5-0.3,1.8-0.3   c0.2,0.2,0.6,0.7,0.7,1c0.1,0.1,0.6,0.9,0.8,1.3c0.2,0.4,0.6,1.2,0.6,1.4c0,0.1,0.5,1.8,0.5,1.8c0.2,0.9,0.2,1.7,0.2,3.2   c0.1,1.4,0.1,1.8,0.1,2.7c-0.1,0.9-0.3,1.3-0.4,1.5c-0.4,0.8-1.1,1.2-1.4,1.4c-0.2-0.6-0.5-1.5-0.9-2.6c-0.8-2.4-1-3.1-1.6-4.9   s-0.9-2.7-1-3.3C326.8,377.9,326.6,377.2,326.4,376.6z" />
    </g>
    <g>

        <path display="none" fill="none" stroke="#020203" stroke-width="2" stroke-linecap="round" stroke-linejoin="round" stroke-miterlimit="10" d="   M235.2,220.1c-0.4,7.9-1,17.8-2,30.8c-0.2,2.8-1.1,13.8-6.2,23c-0.8,1.4-2,3.4-4.2,5c-5.1,3.8-11.4,3-13.4,2.8   c-2.7-0.3-6.2-1.5-12.1-5.5c-4.1-2.8-4.8-4.4-5.1-5.1c-0.8-2.1-0.3-3.5,0-7.4c0.1-2,0.2-4.8-0.1-8.2c-0.1-0.1-1.1-1.8-3.2-1.8   c-2.1,0-3.3,1.8-3.3,1.8c0.1,2.1,0.2,4.3,0.3,6.4c0.1,2.6,0.3,5.2,0.6,7.6c-1.2-1.4-2.6-2.9-4.2-4.3c-1.1-1-2.1-1.9-3.1-2.7   c-0.3,0-1.9,0.2-3,1.7c-1.2,1.6-0.9,3.3-0.8,3.6c0.5,0.7,1.3,1.7,2.3,2.9c2.2,2.6,3.2,3.4,4.5,5.2c0.9,1.1,2,2.8,3.1,5.2   c-1.3,0-2.9,0.2-4.6,0.6c-1.9,0.4-3.5,1-4.8,1.6c-1.4,1.2-2,3.1-1.6,4.7c0.6,2.2,3,3.8,5.7,3.3c1.3-0.7,2.9-1.5,4.9-2.2   c1.5-0.5,2.9-0.9,4.1-1.1c0.9,0.9,2.4,2.3,4.4,3.8c3.1,2.2,4.7,2.8,7.6,4.9c2.4,1.8,3.8,3,5,4.4c1.1,1.3,1.9,2.2,2.3,3.5   c0.7,2.3,0,4.4-0.9,6.8c-2.9,7.7-4.3,10.7-4.3,10.7c-2.5,5.2-3.7,7.7-5.3,10.4c-2.4,3.9-3.7,6.1-6.3,8.7c-1.5,1.5-3.5,3.4-6.6,4.8   c-2.4,1.1-5,1.4-10.1,1.9c-4,0.4-6.9,0.5-8.2,0.6c-3,0.1-5.6,0-7.7-0.2c-0.2,0.3-1.9,2.1-1.6,4.7c0.2,2,1.5,3.3,1.8,3.6   c1.4,0.1,3.6,0.3,6.2,0.1c4-0.3,6.6-1.2,6.8-0.7c0.1,0.3-0.7,1-4.8,3c-0.9,1.5-0.7,3.3,0.3,4.7c1.1,1.4,3,2,4.7,1.5   c1-0.6,2.5-1.7,4.3-2.9c3.2-2.3,4.3-3.1,6.4-4.3c1.1-0.7,2.8-1.6,5-2.6c-1.1,0.9-2.6,2.3-4.3,4.1c-3.5,3.7-4,5.4-6.4,8.1   c-3.3,3.7-6.7,5.6-9.7,7.3c-4.3,2.4-8.3,3.7-11.2,4.4c-0.2,0.4-0.9,2.5,0.1,4.8s2.9,3.2,3.3,3.4c2.1-0.7,4.6-1.8,7.4-3.3   c2.8-1.6,5-3.3,6.7-4.8c-1.7,2.3-3.5,4.6-5.5,7c-2.2,2.7-4,4.6-4.6,5.2c-2,2.2-3.8,4-5.3,5.5c-0.5,1.4-0.3,3,0.6,4.1   c1,1.3,2.7,1.8,4.3,1.4c1.5-1.5,3.1-3.1,4.6-4.8c0.8-0.9,1.7-1.8,2.4-2.7c-0.1,1.4-0.3,2.9-0.5,4.5c-0.3,1.8-0.6,3.5-1,5   c0.1,0.2,1.1,1.9,3.1,2c1.5,0.1,3-0.6,3.8-1.9c0.1-1.4,0.1-3.5,0.1-6.1c-0.1-2.9-0.2-3.6-0.1-5.3c0.2-2.9,0.9-5.1,1.6-6.8   c0.7-2,1.7-3.9,3.8-7.6c2.1-3.9,3.2-5.5,3.8-6.3c1.1-1.5,2-2.7,2.8-3.5c0.2,2.2,0.4,4.6,0.6,7.1c0.1,2.7,0.1,5.2,0.1,7.6   c0.6,1.9,2.3,3.1,4.2,3.1c2.1,0,3.9-1.5,4.4-3.6c-0.5-2.5-1.2-6.1-1.7-10.4c-1-7.9-0.7-9.9-0.5-10.6c0.4-2.1,1.8-6.4,7.2-10.6   c0.1,1.6,0.1,3.3,0.2,4.9c0.1,0.1,1.4,1,3,0.6c1.5-0.4,2.2-1.8,2.2-1.9c-0.3-2.8-0.5-5.6-0.8-8.4c2.2-2,4.7-4.4,7.2-7.4   c3-3.7,13.2-20.7,15.2-23.7c4.2-6.5,13.4-23.5,14.4-26.2c0.1-0.1,1.4-2.1,3.8-2.2c2.2,0,3.5,1.6,3.6,1.8c3.3,4.4,4.6,5.8,7.7,9.2   c1.8,2,1.8,2.5,15.7,14.6c6.4,5.6,12.1,10.5,17.1,15.2c8.3,7.7,12.1,11,16.5,16.1c2.9,3.4,5.2,6.4,6.7,8.4   c-0.7,0.9-1.5,1.8-2.5,2.8c-1.2,1.1-2.4,2.1-3.4,2.8c-0.1,0.2-0.4,1.7,0.5,3c0.8,1.2,2.4,1.8,4,1.5c1-1.1,2-2.2,3-3.3   c0.7-0.6,1.3-1.2,2-1.8c1.2,1.7,2.7,3.9,4.1,6.8c0.4,0.7,1.6,3.1,2.9,6.7s0.9,3.4,2.6,8.7c0.7,2.1,1.2,3.4,2.2,6.6   c0.4,1.4,0.8,2.6,1,3.3c-1.8,1.1-3.7,2.1-5.5,3.2c-0.1,0.2-1,1.8-0.2,3.4c0.6,1.5,2.2,2.4,3.9,2.3c1.2-0.8,2.5-1.5,3.7-2.3   c-0.2,2-0.5,4.1-0.8,6.2c-0.3,2.2-0.7,4.4-1.1,6.4c0.1,0.2,1.1,1.7,3,2c2,0.3,3.3-1,3.4-1.1c0.3-2.2,0.6-4.5,0.9-6.8   c0.4-3.3,0.7-6.4,1-9.5c0.9,2.2,1.7,4.6,2.5,7.1c0.6,1.7,1,3.4,1.5,5.1c0.3,0.2,2,1.2,4.1,0.6c1.8-0.5,2.7-1.8,2.9-2.2   c-1.3-2.4-2-4.5-2.4-5.9c-0.4-1.2-0.7-2.6-1.7-4.3c-0.6-1-1.3-1.8-1.7-2.3c1.3,0.8,2.5,1.6,3.8,2.4c0.3-0.1,2-0.5,3.1-2.2   c1-1.7,0.7-3.4,0.6-3.7c-1.5-0.7-3.5-1.7-5.6-3.3c-2.6-2-4.1-3.9-4.5-4.4c-1.8-2.2-2.4-3.9-4-7.6c-1.4-3.1-2.9-6.2-4.4-9.3   c-4.2-9.1-0.2-0.4-5.3-11.7c-1.9-4.2-2.4-5.2-2.8-7.1c-0.7-3.5-0.3-6.6,0.1-8.6c1.6-0.1,5.3-0.1,9.3,2c3.5,1.8,5.5,4.4,6.4,5.7   c1.7,2.7,3.7,5.5,6.1,8.3c1,1.2,1.9,2.3,2.9,3.3c0.1,0,2.3,0.6,3.9-0.9c1.2-1.1,1.6-2.9,0.9-4.5c-2.2-2.6-4.4-5.2-6.6-7.8   c2,0.7,4,1.4,6.1,2.2c2.4,0.9,4.8,1.8,7.1,2.6c1.7-0.4,3-1.7,3.4-3.3c0.4-1.7-0.2-3.4-1.5-4.5c-1.5-0.3-3.8-0.8-6.4-1.6   c-4.6-1.5-7.7-3.1-10.5-4.4c-3.2-1.5-7.8-3.5-13.8-5.5c3-1.5,6-3.2,9.1-4.9c3.4-2,6.7-3.9,9.9-5.9c1.3-1.6,1.6-3.9,0.6-5.6   c-1.1-1.9-3.4-3-5.6-2.4c-2.8,1.6-5.7,3.3-8.5,4.9c1.3-1.8,3.1-4.6,4.6-8.3c1.4-3.4,1.8-6.1,2.4-9.9c0.6-3.4,1.5-8.8,2.8-16.2   c-0.4-1.9-2-3.3-3.8-3.3c-1.6-0.1-3.1,0.8-3.8,2.3c0,2.5,0,4.9,0,7.4c-1.1-2.3-2.1-4.7-3.2-7c-1.3-0.4-2.7-0.1-3.7,0.8   c-1.1,1-1.4,2.6-0.9,4c0.8,1.1,1.8,2.7,2.5,4.8c1.2,3.6,0.9,6.6,0.3,11.3c-0.5,4.2-0.7,6.3-2,9.1c-0.9,2.2-2.4,5.5-5.7,7.7   c-1.3,0.9-4.8,2.8-12.5,1.6c-2.3-0.3-10.5-1.8-24-11.7c-6.6-4.9-12.3-9-17.9-16.7c-1.2-1.7-6.8-9.4-10.2-21.1   c-1.9-6.4-2.4-11.3-3-18.2c-0.7-7.1-1.1-17.2-0.2-29.4c-0.5-0.7-4.3-6-11.4-6.6C240.4,213.8,235.6,219.5,235.2,220.1z" />
        <path fill="none" stroke="#676767" stroke-miterlimit="10" d="M447.2,358.8c1.1,2.4,3.1,6,6.4,9.6c4.5,4.9,7.3,4.8,16,10.6   c3.9,2.6,9.4,6.7,15.2,12.3c3.2,3.1,5.6,6,7.3,8c1.5,4.3,3.1,8.6,4.6,12.9" />
        <path fill="none" stroke="#676767" stroke-miterlimit="10" d="M96.3,309.7c1.8-1.5,4.6-3.9,8.1-6.6c6.2-4.9,8.4-6.2,11.2-9.2   c2-2.1,4.6-5.3,6.9-10.1" />
        <path fill="none" stroke="#676767" stroke-miterlimit="10" d="M25.4,427.9c1.4-5.4,2.8-10.8,4.2-16.3c3.6-5.2,6.6-9.8,9-13.6   c2.4-3.8,5.9-9,10-16.1c3.6-6.2,8.2-12.5,10.6-15.5c3.6-4.6,2.9-3.5,11.8-12.1c3.5-3.4,6.3-6.2,8-8" />
        <path fill="none" stroke="#676767" stroke-miterlimit="10" d="M400.3,287.5c3.9,4.6,7.3,8.5,9.9,11.4c4.6,5.2,7.7,8.7,12,13.2   c3.2,3.2,5.9,5.9,7.8,7.7" />
        <path fill="none" stroke="#676767" stroke-miterlimit="10" d="M124.3,49.1c3,15.9,5,18,14.9,31.8c4.3,6,10.9,9.6,15.6,14.4   c2.8,2.8,14.2,13.5,16.5,16.7c3.4,4.6,6.8,9.3,10.1,13.9c3.7,5.1,7.4,10.2,10.1,15.9c2,4.3,3.4,8.8,4.7,13.4c2.1,7.1,3.9,13,6,20.1   " />
        <path fill="none" stroke="#676767" stroke-miterlimit="10" d="M155,95.3c3.5-1.7,9.1-3.8,16.2-4.6c4-0.4,7.1-0.4,8.1-0.3   c3.9,0.2,9.7,0.4,15.8,3.4c4.7,2.3,5.9,4,12,6.7c1.3,0.6,2.7,1,4.6,1.4c5.8,1.2,12.7,1,16.4,3.2c5.2,3.1,5.2,3.1,17.8,14.7" />
        <path display="none" fill="none" stroke="#676767" stroke-width="2" stroke-miterlimit="10" d="M124.3,49.1   c3.1-7.4,5.6-12.2,8.2-17.1c4.9-9.2,1.8-4.5,5.9-10.8c2.5-3.9,14-16,22.6-17.9c10.1-2.3,18.4,1.6,21.1,3c3.1,1.7,6.2,4.6,12.1,10.6   c8.6,8.6,8.4,9.8,15.1,16.2c5.6,5.4,6.4,5.2,14.2,12.5c5.4,5,8,7.5,10.1,10.4c5,6.7,6.9,13.5,8.2,19.6c2.9,13.5,2.2,18.2,4.1,44.3   c0.7,9.9,0.1,19.8,0.6,29.7c0.3,5.1,0.7,12.3-3.9,17c-2.1,2.2-4.6,3.1-6.3,3.8c-6,2.3-10.6,1.1-15.5,1.1c-4.2,0-7.5,1.1-10.2,1.7   c-3.9,0.9-6.8,1.8-8.5,2.2c-21.9,6.7-31.4,9.8-31.4,9.8c-10.9,3.5-13.9,5-30.7,8.5c-3.5,0.7-10,3.3-17.4,1.4   c-2.1-0.6-6.9-1.8-8.8-5.6c-1.1-2.2-0.6-3.9-0.9-9.1c-0.2-3.3-0.5-4.5-1.3-9.9c0,0-1.1-7.2-3-24.6c-0.5-4.3-1-9.9-1.2-16.7   c-0.2-5-0.5-14.9,0.8-26.2C108.3,103,110.7,81.4,124.3,49.1z" />
        <path display="none" fill="none" stroke="#676767" stroke-width="2" stroke-miterlimit="10" d="M260.5,60   c4.1-11.2,11.6-17.8,14.2-20.1c4.4-3.8,4.9-2.9,12.3-8c1-0.7,3.8-2.8,9.1-7.2c7.6-6.3,8.7-7.9,13.3-11.8c8.9-7.4,13.3-11.2,19-12.5   c9.8-2.2,18.4,1.7,21.1,3c2.4,1.1,7.9,4.1,15.7,13.8c4.2,5.2,6.7,9.6,9.2,14c0.7,1.2,4.8,8.7,8.1,18.1c0.7,1.9,1.1,3.2,1.2,3.6   c1.2,4.3,1.6,8.7,7,33.3c3.9,17.7,4.4,18.9,5.2,25c1.3,10.7,1.2,18.7,0.9,31.3c-0.5,20.7-2.3,15-2.4,28c0,2.1,0,5.6-1.9,9.5   c-3.1,6-9,8.6-10.1,9.1c-4.9,2-8,1-23.5-1.7c-5.2-0.9-13.2-2.1-13.2-2.1s-5-0.7-11.5-2.2c-2.2-0.5-2.9-0.7-7.5-2   c-2.6-0.7-6.3-1.7-11.7-3c-16.2-4.1-21.6-3.7-23.8-3.5c-6.1,0.5-6.5,2-13,2.2c-1.8,0.1-4.2,0.5-5.4-2.5c-0.6-1.5-0.3-7.1,0.8-10.9   c2.2-6.9,3.3-8.7,4.1-11.6c0.5-2.1,0.8-4.3-0.2-12.1c-1.7-13.2-2.5-19.7-5-24.2c-4.6-8.3-9.3-7.9-12.5-16.6   c-1.3-3.5-1.4-6.4-1.7-12.1C257.8,75.2,257.5,68.4,260.5,60z" />
        <path fill="none" stroke="#676767" stroke-miterlimit="10" d="M373.9,30.1c-2,10.5-5.2,22.8-10.3,36.2c-1.3,3.3-5.7,14.6-13.6,28.6   c-2.5,4.5-7.9,13.8-16.1,24.9c-12.1,16.4-13.7,14.3-22.7,27.9c-2.9,4.3-7.1,11.1-14.5,20.4c-2.2,2.8-4.1,5.1-5.4,6.6" />
        <path fill="#EAE9EA" d="M91.7,303c-2.9-1.3-6.2,0.1-7.3,0.6c-3,1.3-2.7,2.7-5.7,4.2c-3.8,1.9-5.7,0.6-7.3,2.4   c-0.9,1.1-0.5,1.8-0.9,7c-0.3,3.5-0.5,5.6-1.2,8.2c-1.1,3.7-2,3.8-1.8,5.4c0.3,2.7,2.7,2.8,6.4,7.3c0,0,1.7,2.1,5.1,8.2   c0,0,2.7,1.5,4.2,2.1c2.4,0.9,6.1,1,8.5-0.6c1.4-0.9,2.3-2.5,3.3-9.7c0.8-5.8,0.7-7.7,1.2-14.8c0.6-7.9,1.1-9.9,0-13.6   C95.6,307.5,94.6,304.3,91.7,303z" />
        <path fill="#B4B4B4" d="M84,314.1c0.4,1.6,1.6,3,2.3,4.5c0.8,1.5,1.1,3.2,1.7,4.8c0.5,1.3,1.3,2.5,2,3.6c0.3,0.5,0.7,1.1,1.3,1.1   c0.3,0,0.6-0.2,0.9-0.4c1.4-1.1,1.6-3.1,1.8-4.8c0.1-1.8,0.3-3.6,0.4-5.4c0.1-1.7,0.3-3.4-0.1-5.1c-0.3-1.5-1.2-2.9-2.3-4   c-0.8-0.8-1.7-0.9-2.7-0.8c-1.6,0.2-3.1,0.8-4.1,2c-1,1.1-1.5,2.6-1.4,4C83.9,313.8,83.9,314,84,314.1z" />
        <path fill="#B4B4B4" d="M74.5,311.9c-1.3,1-2,2.7-2.1,4.3c-0.1,1.6,0.2,3.3,0.7,4.8c0.6,2,1.5,4.1,3.1,5.4c0.5,0.4,1,0.7,1.6,0.9   c0.5,0.2,1.1,0.5,1.7,0.5c1.5,0,2.7-1.3,3.1-2.7c0.4-1.4,0.1-2.9-0.1-4.3c-0.4-2.2-0.8-4.4-1.7-6.5c-0.4-0.9-0.8-1.8-1.4-2.5   c-0.4-0.5-1-0.6-1.6-0.7C76.6,310.9,75.4,311.1,74.5,311.9z" />
        <path fill="#B4B4B4" d="M70.5,331.2c1.3,1.9,3.1,3.3,4.9,4.7c0.7,0.5,1.4,1,2.2,0.9c0.5-0.1,0.9-0.4,1.3-0.6   c0.6-0.4,1.2-0.9,1.3-1.6c0.3-1.1-0.6-2.1-1.4-2.8c-0.9-0.9-1.9-1.9-2.8-2.8c-0.6-0.6-1-1.2-1.6-1.8c-1.2-1.1-3.6-0.8-4.4,0.6   C69.3,328.9,69.8,330.2,70.5,331.2z" />
        <path fill="#B4B4B4" d="M81.8,337.4c-1,1.6-1.3,3.6-0.7,5.3c0.6,1.7,2.2,3.1,4,3.4c0.8,0.1,1.5,0,2.3-0.2c2-0.5,4.1-1.5,5-3.4   c0.8-1.5,0.7-3.4,0-5c-0.4-0.9-1-1.8-1.8-2.5c-0.5-0.5-0.9-1.1-1.5-1.3c-0.8-0.3-1.8-0.1-2.5,0.1c-0.9,0.3-1.8,0.7-2.6,1.3   C83.1,335.7,82.3,336.5,81.8,337.4z" />
        <path display="none" fill="none" stroke="#676767" stroke-width="2" stroke-miterlimit="10" d="M0.5,414.1   c0.5-1.6,1.2-9.8,2.6-26.2c1.1-12.6-0.7-11.3,0.3-24.8C4.2,351.8,6,343.5,6.6,341c2.3-10.3,3.9-17.9,9.2-26.5   c3.6-5.8,7.6-10.1,11.8-14.7c6.5-7,7.7-6.8,13.8-13.5c2.3-2.5,4.1-4.7,4.8-5.6c3.1-3.8,5-6.5,7.9-10.5c5.9-8.2,8.8-12.3,9.5-12.9   c6-5.2,12.6-6.8,15.5-7.5c4.5-1,10.6-2.4,17,0c5,1.9,8.1,6.1,14.4,14.4c3,4,7.7,10.2,12.1,19.6c3.6,7.7,5.4,13.8,6.9,19.3   c1.2,4.1,3.4,12.5,4.8,23.6c0.4,3.4,0.7,7.4,1.3,15.4c1,14.7,1.5,22,1.6,30c0.1,10.4-0.4,8.8-0.6,22.4c-0.1,8.6-0.1,12.8-0.3,21.3   c0,0-0.1,3.8-2.9,17.6c-0.3,1.5-0.7,2.7-1.3,3.7c0,0-0.4,0.7-1,1.2c-3.2,3.3-11.4,3.5-11.4,3.5c-8.6,0.8-6.2,0.3-19.1,1.1   c-12.1,0.7-21.3-1.2-26.8-2c-11.8-1.8-20.8-4.4-23.3-5.2c-5.1-1.5-6.2-2.2-14.1-4.6c-9.4-2.9-14.2-4.3-17.2-4.3   c-7,0-10.2,2.4-14.4,0c-0.5-0.3-3.5-2-4.6-5.5C-0.9,418.2,0.1,415.2,0.5,414.1z" />
        <path fill="#EAE9EA" d="M430,319.8c0.5-1.5,1.6-4.4,4.5-6.9c1.3-1.1,2.5-1.8,3.6-2.2l0,0c0,0,1.4-0.6,9.2-1.2   c3.8-0.2,3.5,1.9,3.7,2.3c0.8,1.8,0.6,3.5,2.1,4.9c3.8,3.5,5.2,5.7,5.5,6.3c1,2.5-0.8,3.9-3.2,10.6c-1.2,3.5-0.7,3.1-3.2,12.4   c-1.5,5.8-0.9,7-2.4,9.5c-1,1.8-2.2,2.9-2.5,3.2c-0.9,0.9-5.2,4.9-10.1,3.4c-2.4-0.7-4.7-2.7-5.5-5.2c-0.9-2.9,0.9-4.1,0.3-8.1   c-0.4-2.3-1.2-2.8-2.6-6c-1.6-3.6-2.3-7.1-2.6-9.2C426.5,331.4,426.4,326.3,430,319.8z" />
        <path fill="#B4B4B4" d="M435.7,349c-0.4,0.5-0.6,1.1-0.9,1.6c-0.4,0.9-0.7,2-0.6,3c0.2,1.2,1.1,2.2,2.1,2.8   c1.1,0.6,2.3,0.8,3.5,0.9c0.6,0.1,1.2,0.1,1.8,0c1.9-0.3,3.2-2,4.1-3.6c0.5-0.9,0.9-1.9,1-3s-0.3-2.2-1.1-2.9   c-0.5-0.4-1.1-0.6-1.7-0.7c-0.6-0.2-1.3-0.5-2-0.6c-0.6-0.1-1.2-0.1-1.7-0.1c-1.2,0.1-2.3,0.5-3.2,1.1   C436.6,348,436.1,348.5,435.7,349z" />
        <path fill="#B4B4B4" d="M443.5,312.9c-1.1-0.2-3.8-0.7-6.6,0.9c-0.9,0.5-3,1.7-3.9,4.3c-0.1,0.5-0.9,3.1,0.6,5.3   c1.8,2.7,5.7,2.8,8,2.2c3.9-1.1,5.5-4.7,5.9-5.5c0.5-1.2,1.2-2.7,0.5-4.3C447.3,313.8,444.8,313.2,443.5,312.9z" />
        <path fill="#B4B4B4" d="M453.1,321.5c-0.9,0-3.1,0-4.8,1.4c-2.3,1.8-2.3,4.8-2.2,7.8c0,2.1,0.1,4,1.5,5.1c0.8,0.6,2.1,1,3,0.5   c0.4-0.2,0.9-0.6,1.9-3.9c0.9-3.1,0.7-3.4,1.4-4.6c0.8-1.3,1.5-1.3,1.8-2.5c0.3-1,0.4-2.5-0.5-3.3   C455,321.9,454.5,321.5,453.1,321.5z" />
        <path fill="#B4B4B4" d="M438.3,328c-0.6,0-2.5-0.1-4.3,1.1c-1.7,1.1-2.4,2.8-3,4.6c-0.6,1.5-1.1,3-0.8,4.8c0.1,0.6,0.5,3,2.7,4.5   c1.5,1,4,1.6,5.5,0.5c0.6-0.4,1-1.5,1.8-3.5c0.9-2.3,0.7-2.6,1.4-3.5c0.9-1.2,1.5-1.2,2.1-2.4c0.3-0.6,0.8-1.5,0.5-2.6   c-0.3-1.3-1.5-1.9-2.6-2.5C441,328.7,439.9,328.1,438.3,328z" />
        <path display="none" fill="none" stroke="#676767" stroke-width="2" stroke-miterlimit="10" d="M400.3,287.5   c6.7-12.1,6.2-13,10.1-18.3c1.5-2.1,6-8,13.3-13.7c4.3-3.3,8.2-6.3,14.2-8c2.6-0.7,6.7-1.8,11.9-0.8c1.8,0.4,5.5,1.1,8.9,3.9   c1.6,1.3,1.7,1.9,6.5,8.2c0.6,0.8,2.7,3.5,4.8,6.1c3.8,4.6,5.7,7,7.2,8.3c4,3.4,7.7,5.1,13.3,7.5c8.8,3.8,9.3,2.6,12.9,5   c5.1,3.4,7.3,8.3,9.7,13.7c2.4,5.3,3.3,10,5,19.4c0.7,3.7,1.3,7.2,1.8,10.8c0.9,7.1,1.4,10.8,0.8,14.7c-0.5,3.2-0.9,2.8-3.3,10.9   c-0.8,2.6-2.1,7.2-3.3,12.8c-1.2,5.7-1,6.3-2.6,14.5c-1.4,6.9-1.5,6.1-1.6,8.1c-0.6,6.5,1,8.7-0.2,14.1c-0.7,2.8-1.3,5.2-3.4,6.7   c-2.7,1.9-5.3,0.6-9.7,0.7c-4.8,0.2-6.1,1.9-14.4,5.4c-7.3,3.1-9.9,2.9-13.7,4.2c-1.6,0.6-2.8,1.2-3.6,1.6   c-3.7,1.8-6.2,3.7-7.2,4.4c-3,2.2-8.7,6.4-11.7,8.4c-1.2,0.7-7.1,4.5-15.2,6.2c-6.5,1.4-12.6,0.1-25-1.4c-3.7-0.4-7.6-1-11-3.9   c-0.8-0.7-3-2.8-5.3-8c-2.4-5.8-2.6-10.4-2.9-15.5c-0.8-12.9-2-10.6-2.5-22.3c-0.7-14.3,1.3-15.6,0.4-30.5   c-0.5-7.6-1.1-8.3-1.1-14.4c0-8.7,1.1-15.3,2.2-21.2c1.5-8.6,2.5-14.2,5.4-21.2C393.2,298.6,393.7,299.3,400.3,287.5z" />
        <path fill="none" stroke="#676767" stroke-width="0.25" stroke-linecap="round" stroke-miterlimit="10" d="M186.7,255.9   c0.4,0.2,1.2,0.5,2.2,0.5c1.1,0,2-0.4,2.4-0.6" />
        <path fill="none" stroke="#676767" stroke-width="0.25" stroke-linecap="round" stroke-miterlimit="10" d="M176.3,283.8   c0.2,0,2.3,0.5,3.2,2.4c1.1,2.1,0,4.2-0.1,4.3" />
        <path fill="none" stroke="#676767" stroke-width="0.25" stroke-linecap="round" stroke-miterlimit="10" d="M159.3,349.1   c0.3,0.4,1.1,1.6,1.1,3.3c0,1.8-0.8,3-1.1,3.4" />
        <path fill="none" stroke="#676767" stroke-width="0.25" stroke-linecap="round" stroke-miterlimit="10" d="M168,359.4   c0.3,0,1.8,0,3,1.3c1.5,1.6,0.9,3.7,0.9,3.8" />
        <path fill="none" stroke="#676767" stroke-width="0.25" stroke-linecap="round" stroke-miterlimit="10" d="M156.9,379.8   c0.2,0.1,2.2,0.6,3.1,2.7c0.9,2.1-0.1,3.9-0.3,4.1" />
        <path fill="none" stroke="#676767" stroke-width="0.25" stroke-linecap="round" stroke-miterlimit="10" d="M188.9,383.3   c0.1-0.2,1.3-1.7,3.3-1.8c2.1-0.1,3.4,1.3,3.5,1.5" />
        <path fill="none" stroke="#676767" stroke-width="0.25" stroke-linecap="round" stroke-miterlimit="10" d="M201.9,351.3   c1.4-1.5,2.8-3,4.1-4.5" />
        <path fill="none" stroke="#676767" stroke-width="0.25" stroke-linecap="round" stroke-miterlimit="10" d="M314.4,352.4   c1.1,1.6,2.3,3.2,3.4,4.8" />
        <path fill="none" stroke="#676767" stroke-width="0.25" stroke-linecap="round" stroke-miterlimit="10" d="M325.6,393.2   c0.3,0,1.5,0.1,2.4,1.2c1.3,1.5,0.7,3.4,0.7,3.5" />
        <path fill="none" stroke="#676767" stroke-width="0.25" stroke-linecap="round" stroke-miterlimit="10" d="M350.7,388.5   c-0.2,0-1.6,0-2.6,1.2c-0.7,0.9-0.8,2.2-0.3,3.3" />
        <path fill="none" stroke="#676767" stroke-width="0.25" stroke-linecap="round" stroke-miterlimit="10" d="M350.1,354.6   c0-0.2-0.3-1.7,0.9-2.9c1.2-1.2,2.7-1,2.9-1" />
        <path fill="none" stroke="#676767" stroke-width="0.25" stroke-linecap="round" stroke-miterlimit="10" d="M361.1,346.1   c-0.1-0.1-1.3-1.4-1-3.2c0.2-1.4,1.3-2.5,2.7-2.9" />
        <path fill="none" stroke="#676767" stroke-width="0.25" stroke-linecap="round" stroke-miterlimit="10" d="M347.1,309.5   c-1,1.4-1,3.2-0.2,4.7c0.8,1.4,2.4,2.3,4.1,2.2" />
        <path fill="none" stroke="#676767" stroke-width="0.25" stroke-linecap="round" stroke-miterlimit="10" d="M189.3,354.3   c1.6-1,3.3-2.2,5.2-3.7c1.7-1.4,3.2-2.9,4.5-4.2" />
        <path fill="none" stroke="#676767" stroke-width="0.25" stroke-linecap="round" stroke-miterlimit="10" d="M175.2,377.6   c0.3-0.3,0.5-0.5,0.8-0.8c2.5-2.4,5.1-4.4,7.6-6.3" />
        <path fill="none" stroke="#676767" stroke-width="0.25" stroke-linecap="round" stroke-miterlimit="10" d="M170.4,394.4   c1-1.2,1.9-2.5,2.9-3.7c0.6-0.8,1.2-1.6,1.9-2.4" />
        <path fill="none" stroke="#676767" stroke-width="0.25" stroke-linecap="round" stroke-miterlimit="10" d="M187.4,368.9   c0-0.4-0.1-0.8-0.1-1.3c-0.1-0.5-0.2-0.9-0.3-1.2" />
        <path fill="none" stroke="#676767" stroke-width="0.25" stroke-linecap="round" stroke-miterlimit="10" d="M186.5,269.3   c0.4,1.9,0.9,3.8,1.5,5.7c0.2,0.7,0.4,1.3,0.6,1.9" />
        <path fill="none" stroke="#020203" stroke-width="0.25" stroke-linecap="round" stroke-miterlimit="10" d="M185.4,281.5   c0.4,0,0.8,0,1.2-0.1c0.6-0.1,1.1-0.2,1.5-0.3" />
        <path fill="none" stroke="#020203" stroke-width="0.25" stroke-linecap="round" stroke-miterlimit="10" d="M171.9,355.9   c1.1-0.9,2.2-1.8,3.4-2.8c1.3-1.2,2.6-2.3,3.8-3.5" />
        <path fill="none" stroke="#020203" stroke-width="0.25" stroke-linecap="round" stroke-miterlimit="10" d="M330.8,389.5   c0.4-0.3,1-0.9,1.4-1.7c0.3-0.7,0.3-1.3,0.3-2.2c-0.1-2.4-0.1-3.7-0.3-4.7c-0.2-0.8-0.5-2-1.2-3.4c-0.5-0.9-1-1.5-1.4-2" />
        <path fill="none" stroke="#020203" stroke-width="0.25" stroke-linecap="round" stroke-miterlimit="10" d="M332.7,395.8   c1.4-1.3,2.3-2.5,3-3.4c0.6-0.9,1.4-2.2,2-4.1c0.5-1.5,0.6-2.8,0.6-3.7c0.6,1,1.3,2.1,2.2,3.2c0.6,0.8,1.3,1.5,1.9,2.2   c0.8,0.6,1.5,1.1,2.3,1.7" />
        <path fill="none" stroke="#020203" stroke-width="0.25" stroke-linecap="round" stroke-miterlimit="10" d="M338.9,392.8   c-0.1-0.3-0.2-0.7-0.4-1.1c-0.2-0.4-0.5-0.8-0.7-1.1" />
        <path fill="none" stroke="#020203" stroke-width="0.25" stroke-linecap="round" stroke-miterlimit="10" d="M337.2,314.5   c-1.8,1.1-3.2,1.9-4.2,2.4c-1.3,0.7-2.4,1.3-4.3,2.4c-0.7,0.4-1.3,0.7-1.7,1" />
        <path fill="none" stroke="#020203" stroke-width="0.25" stroke-linecap="round" stroke-miterlimit="10" d="M340.3,285.5   c0.1,1.8,0.1,3.7,0,5.8c-0.1,1.6-0.2,3.1-0.4,4.5" />
        <path fill="none" stroke="#676767" stroke-linecap="round" stroke-miterlimit="10" d="M498,401.5c2.4,0.6,4.7,1.6,6.9,2.9" />
        <path fill="none" stroke="#676767" stroke-linecap="round" stroke-miterlimit="10" d="M102.8,411.7c14.6,5.3,23.4,14.1,26.8,19" />
        <path fill="none" stroke="#676767" stroke-linecap="round" stroke-miterlimit="10" d="M41.8,404.8c19.1-3.6,38.8-1.6,52.3,5" />
        <path fill="none" stroke="#676767" stroke-linecap="round" stroke-miterlimit="10" d="M6.4,421.9c3.5-8.3,8.2-11.1,16.4-12.9" />
        <path fill="none" stroke="#676767" stroke-linecap="round" stroke-miterlimit="10" d="M392.9,426.8c9.2-9.6,20.9-16.9,33.7-20.9" />
        <path fill="none" stroke="#676767" stroke-linecap="round" stroke-miterlimit="10" d="M439.3,402c14.1-3.3,32.4-4.2,46.6-2.1" />
    </g>
</svg>