<svg version="1.1" xmlns="http://www.w3.org/2000/svg" xmlns:xlink="http://www.w3.org/1999/xlink" x="0px" y="0px" viewBox="0 0 643.2 852.8" enable-background="new 0 0 643.2 852.8" xml:space="preserve">
    <metadata xmlns:med="http://www.medreporter.org/reference/figure">
        <med:Figure lngs="de,en">
            <med:Title>
                <med:Trans lng="de">Mediastinale Lymphknoten</med:Trans>
                <med:Trans lng="en">Mediastinal lymph nodes</med:Trans>
            </med:Title>
            <med:Option id="level3P">
                <med:Trans lng="de">Level 3P</med:Trans>
                <med:Trans lng="en">Level 3P</med:Trans>
            </med:Option>
            <med:Option id="level11L">
                <med:Trans lng="de">Level 11L</med:Trans>
                <med:Trans lng="en">Level 11L</med:Trans>
            </med:Option>
            <med:Option id="level11R">
                <med:Trans lng="de">Level 11R</med:Trans>
                <med:Trans lng="en">Level 11R</med:Trans>
            </med:Option>
            <med:Option id="level10L">
                <med:Trans lng="de">Level 10L</med:Trans>
                <med:Trans lng="en">Level 10L</med:Trans>
            </med:Option>
            <med:Option id="level10R">
                <med:Trans lng="de">Level 10R</med:Trans>
                <med:Trans lng="en">Level 10R</med:Trans>
            </med:Option>
            <med:Option id="level9">
                <med:Trans lng="de">Level 9</med:Trans>
                <med:Trans lng="en">Level 9</med:Trans>
            </med:Option>
            <med:Option id="level8">
                <med:Trans lng="de">Level 8</med:Trans>
                <med:Trans lng="en">Level 8</med:Trans>
            </med:Option>
            <med:Option id="level7">
                <med:Trans lng="de">Level 7</med:Trans>
                <med:Trans lng="en">Level 7</med:Trans>
            </med:Option>
            <med:Option id="level6">
                <med:Trans lng="de">Level 6</med:Trans>
                <med:Trans lng="en">Level 6</med:Trans>
            </med:Option>
            <med:Option id="level5">
                <med:Trans lng="de">Level 5</med:Trans>
                <med:Trans lng="en">Level 5</med:Trans>
            </med:Option>
            <med:Option id="level4L">
                <med:Trans lng="de">Level 4L</med:Trans>
                <med:Trans lng="en">Level 4L</med:Trans>
            </med:Option>
            <med:Option id="level4R">
                <med:Trans lng="de">Level 4R</med:Trans>
                <med:Trans lng="en">Level 4R</med:Trans>
            </med:Option>
            <med:Option id="level3A">
                <med:Trans lng="de">Level 3A</med:Trans>
                <med:Trans lng="en">Level 3A</med:Trans>
            </med:Option>
            <med:Option id="level2L">
                <med:Trans lng="de">Level 2L</med:Trans>
                <med:Trans lng="en">Level 2L</med:Trans>
            </med:Option>
            <med:Option id="level2R">
                <med:Trans lng="de">Level 2R</med:Trans>
                <med:Trans lng="en">Level 2R</med:Trans>
            </med:Option>
            <med:Option id="level1">
                <med:Trans lng="de">Level 1</med:Trans>
                <med:Trans lng="en">Level 1</med:Trans>
            </med:Option>
        </med:Figure>
    </metadata>
    <g>
        <path fill="#F2F2F2" d="M285.9,393.8c-1-24.1-1.8-44.5-2.3-59.5c-0.8-22.9-1.7-51.5-2.6-84.6c-0.7-28.2-1.3-56.4-1.8-84.6   c-0.5-28.2-0.8-56.4-1-84.6c0-4.9-0.2-11.5-0.1-20.5c0.2-21.9,1.3-39.6,2.3-51.1c5.6-3.1,17.3-8.8,33.2-8.9   c16.3-0.1,28.4,5.7,33.9,8.9c-0.2,7.9-0.5,19.5-0.9,33.6c-5.1,203.9-7.6,305.9-2.4,411.4" />
        <path fill="#B3B3B3" d="M356.6,209.6c3.2-29.3,1.8-22.5,10.7-52.1c7.1-23.7,5.1-16.5,13.9-40c2.9-7.8,15.8-5.6,22.9-1.1   c3.1,2,6.8,3.3,7.7,9.8c0.4,3.1-1.8,8.8-2.5,10.5c-2.8,6.2-5.2,12.4-5.2,12.4s-1.2,2.4-5.9,14.2c-8.6,22.8-7.9,20.4-11.5,45.3   c-3.1,21.6,0.8,44.7,13.3,62.6c-1.7-2.5-5.1-4.6-7.6-6.2c-2.7-1.8-5.6-3.4-8.7-4.6c-6.1-2.6-12.6-4-19.2-4.3   c-3.3-0.1-6.6,0-9.8,0.5c-1.1,0.2-8.2,2.3-8.4,0.9c-0.1-0.7,2.3-3.2,2.8-3.9c0.9-1.4,1.8-2.9,2.5-4.5c1.5-3.1,3.5-6.3,3.4-9.7   C354.6,224.7,355.3,222.1,356.6,209.6z" />
        <path fill="#E2E2E2" d="M385.6,117.8c1.1-3,7.1-3.4,13.5-1.1c6.3,2.4,10.6,6.7,9.5,9.6c-1.1,3-7.1,3.4-13.5,1.1   C388.7,125,384.5,120.7,385.6,117.8z" />
        <path fill="none" stroke="#999999" stroke-linecap="round" stroke-miterlimit="10" d="M383,122.1c1.1,1.7,3.8,5.5,8.9,8   c5.4,2.7,10.4,2.4,12.4,2.2" />
        <path fill="#B3B3B3" d="M368.9,834.6c9.3-42.4,18.5-85.1,32.5-168.5c10.2-61,18-64.2,28.2-160.5c3-28,4.1-95.9,4.1-124   c0-24.2-0.1-48.8-7.7-71.7c-2.7-8.3-6.6-16.2-11.5-23.5c-5.1-7.5-11.4-14.3-18.8-19.5c-3.7-2.6-7.6-4.8-11.8-6.5   c-1-0.4-2.1-0.8-3.2-1.2c-1-0.3-1.9-0.4-2.9-0.6c-3.3-1-6.3-2.3-9.7-2.9c-3.1-0.6-6.3-0.8-9.5-0.6c-6.7,0.4-13.2,2.5-19,5.8   c-11.8,6.6-18.1,17.6-21.5,30.6c-3.5,13.1-2.7,27,0.4,40.1c2.5,11,6.9,21.9,14.3,30.6c3.4,4,7.5,7.8,12.3,10.2   c0.9,0.5,1.8,0.7,2.8,0.7c4.6,0.1,8.3,3.6,10.5,7.5c0.5,0.9,0.9,1.8,1.3,2.7c1.9,5.1,2,10.6,2.1,16c0.4,21.9-20.1,169.4-23.9,194.8   l-14.4,71.4c-19.2,104.2-15.5,73.7-32.2,163.8c10.1,15.5,26.3,25.5,44.3,21.6C349.4,847.9,357.9,843.1,368.9,834.6z" />
        <path fill="#E2E2E2" d="M328.1,289.1c-4.6,11.8-4.4,25-2.2,37.4c1.6,9.1,4.3,18.4,10.4,25.5c9.7,11.4,29.4,15.3,44.3,7.4   c16.4-8.6,18.9-27.5,19.9-34.7c3.1-22.6-9.3-40.7-17.3-48.1c-5.9-5.5-12.6-8.3-12.6-8.3c-4.4-1.9-9-2.4-13.7-2.9   c-7.9-0.9-15.6,4.8-20.6,10.4C332.8,279.7,330,284.2,328.1,289.1z" />
        <path fill="none" stroke="#999999" stroke-width="2" stroke-linecap="round" stroke-miterlimit="10" d="M368.8,373.6   c5.9-1.3,22-5.9,31.6-20.5c5.4-8.1,6.8-16.4,7.9-23c1.1-6.4,2.7-16.3-0.5-28.3c-3.6-13.6-11.5-22.7-16.1-27.1" />
        <path fill="#B3B3B3" d="M554.5,440.4c-5.9,0.3-13.3,0.1-21.7-1.4c-13.3-2.4-23.5-7.3-30.4-11.2c15.3-9.2,30.8-18.6,46.3-28.2   c4.8-3,9.7-6,14.5-9c2.6-6.7,1.2-14.2-3.6-19.5c-4.6-5.1-11.8-7.3-18.5-5.7c-12.3,7.9-23.2,13.6-31.4,17.6   c-22.6,10.9-30.8,11.2-34,11.2c-5.8,0-9.3-1.4-26.8-8.1c-14.5-5.6-26.3-10.2-34.3-13.3c-1.6-0.8-15.7-7.8-30.3-0.7   c-10.7,5.2-15.1,14.7-16.2,17.3c-2.7,3.6-4.6,9.8-6.2,18.9c-0.8,4.6-2.9,24,11,37.9c16.1,16.2,39.8,10.6,41,10.3   c22.9,3.9,46.2,8.1,69.7,12.5c20.5,3.9,40.8,7.8,60.7,11.9c9.1-2.3,16-9.5,17.7-18.4C564.6,449.7,555,440.9,554.5,440.4z" />
        <path fill="#E2E2E2" d="M370.5,403.6c-2.7,11.2-0.3,24.3,1.2,27.6c1.1,2.9,3.8,8.4,10.6,13.4c2.8,2.1,11.3,4.6,20.1,3.2   c6.6-1.1,12.1-5.9,15.9-11.5c6.8-10.2,8.8-23.5,5.1-35.2c-2.2-6.8-5.7-11.4-7.5-13.7c-3.7-4.8-6.8-8.7-12.3-10.1   c-5.8-1.5-10.8,0.6-13.5,1.8c-6,2.5-9.4,6.6-11.8,9.5C376.5,390.6,372.4,395.7,370.5,403.6z" />
        <path fill="none" stroke="#999999" stroke-width="2" stroke-linecap="round" stroke-miterlimit="10" d="M416.9,451.2   c1.5-1.2,19.6-16.2,17.7-40.2c-1.7-20.7-16.9-32.2-19.2-33.9" />
        <path fill="#CCCCCC" d="M292.9,662.4c-0.2,11.9-0.5,23.9-0.7,35.8c-22.8,2.6-45.5,5.2-68.3,7.9c2.1-5.6,4.7-14.2,5-25   c0.3-12.8-2.7-23-5-29C246.9,655.5,269.9,659,292.9,662.4z" />
        <path fill="#CCCCCC" d="M347,699.4c0.2-11.9,0.5-23.9,0.7-35.8c22.8-2.6,45.5-5.2,68.3-7.9c-2.5,3.9-7.4,12.6-7.9,24.7   c-0.7,14.8,5.5,25.5,7.9,29.3C392.9,706.2,370,702.8,347,699.4z" />
        <path fill="#F2F2F2" d="M344.2,453.8c6.3,127,1.8,158.2,6.3,330.4c0.6,22.4,3.8,46.6,4,59c-3.3,2.1-11.2,6.7-18.7,7.6   c-2.9,0.4-5,0.4-6.9,0.3c0,0-11.6-2-16-4.3c-4.7-2.5-10.4-8-21.3-17.6c0.1-7.6,0.2-12.5,0-22.9c-0.1-4,0-82.2,1.3-137.8   c0.7-28.1,0.1-56.1-1.3-88.1c-1.5-34.4,1-52.4-0.3-77.5c-1.4-26.5-3.4-64.1-5.3-109.2" />
    </g>
    <g id="level3P">
        <ellipse fill="#808080" cx="313.3" cy="97.6" rx="17.9" ry="11.1" />

        <ellipse transform="matrix(0.4692 -0.8831 0.8831 0.4692 -2.0853 378.9786)" fill="#808080" cx="314.2" cy="191.2" rx="11.1" ry="16.7" />
    </g>
    <g>
        <path fill="#E2E2E2" d="M390,540c-3,4.4-6.7,9.3-11,14.2c-5.5,6.2-10.9,11.3-15.9,15.4c4.5,4.5,9.1,9.1,13.6,13.6   c3-4,8.3-10.2,16.7-15c4.8-2.7,9.3-4.3,12.9-5.2" />
        <path fill="#E2E2E2" d="M186.5,563.8c3.2,4.7,6.7,9.5,10.4,14.4c4.1,5.5,8.3,10.6,12.3,15.4c5.1-3.1,10.3-6.2,15.4-9.2   c-4-6-8.5-13.8-12.3-23.3c-3.9-9.7-6.1-18.6-7.4-25.8" />
        <path fill="#E2E2E2" d="M242.2,49c1.6,10.1,1.2,128.5,1.1,148.5c-0.1,32.9-8.5,130.4-10.7,145.2c-3.5,23.8-5.4,36-10.7,48.7   c-10.6,25.5-17.1,31.3-20.5,33.1c-9.6,5.3-20.4,4.4-26.3,3.9c-9.1-0.8-9.8-2.9-27.3-7.8c-18.7-5.2-19.7-6.7-27.3-7.8   c-18.7-2.8-19.7-21.9-20.4-24.4c-3.4-11.7,3-20.8,7.7-39c2-7.8,4.2-14.2,5.9-18.4c-6.2-2-12.4-4-18.5-5.9   c-4.7,11.3-20.2,62.2-21.4,64.3c-3.7-0.7-9.1-2.6-15.7-7c-6.7-4.6-12.5-9.1-14.4-12.3c-4.3,6.7-7.5,12.7-11.8,19.3   c2.5,0.9,4.7,1.8,6.6,2.8c2.5,1.3,4.2,2.5,4.9,3c7.9,5.4,11.4,6.8,15.4,9.9c3.5,2.8,8.2,7.5,12.1,15.9c-8.5,1.3-17.3,2.5-26.4,3.5   c-5.4,0.6-10.8,1.1-16.1,1.6c0.5,8.6,1,17.1,1.4,25.7c6.1-0.6,51.7-6,60.4-5.8c13.6,0.2,49.4,9.5,58.5,14.6   c21.4,12.1,21.7,27.1,18.5,42.9c-1.4,6.8-9.7,31.1-33.1,43.9c-5.9,3.2-38.8,10.1-50.7,9.7c-10-0.3-41.6-3.2-46.8-2.9l0.5,15.6   c4.6,0.4,9.3,0.9,14,1.4c7.6,0.9,15,1.8,22.2,2.9c-5,2.8-10.7,5.7-17.1,8.4c-8.5,3.5-16.4,5.9-23.3,7.5c3.4,8.3,2.1,5.2,5.5,13.5   c8.5-4,15.6-6.7,20.4-8.5c13.6-5,48.9-22.6,63.1-11.7c10.9,13.4-14.4,54.9-17.2,60.5c-6.7,13.4-6.7,13.4-37.9,51   c-19.3,10.5-35,11.8-37.3,11.9c-2.3,0.1-4.2,0.1-5.6,0.1c0.4,6.8,0.8,13.5,1.3,20.3c3.5-0.4,12.4-2.9,24.6-6.4   c11.9-3.4,17.9-7.5,21.9-9.8c1.6-1,3-1.8,3.9-2.4c-2.3,4-13.3,20.1-15.5,23c-4,5.3-10.5,15.2-13.8,20.6c-1.2,2-2.2,3.6-2.9,4.6   c4.8,3.1,9.7,6.2,14.5,9.3c3.5-7.6,8.6-16.8,16-26.3c5.7-7.4,11.5-13.3,16.7-18c-0.2,3.1-4.5,47.4-4.7,49.8   c6.5,0.7,13.1,1.5,19.6,2.2c0.3-3.1,0.5-49.2,0.5-55.7c4.6,4.4,14.3,18.5,16.7,24.7c1.6,4,8.3,15,10.2,16.5   c5.7-5.1,11.5-10.2,17.2-15.3c-5.1-5.1-25.5-17.6-29.8-45.3c-4.1-26.1,18.6-53.8,30.8-77c10.9-20.7,25.2-43.5,32.5-53.6   c10.2-14.1,47.9-75.1,54.3-87.7c3.3-6.6,35.4-57.4,39-60.4c4.6,3.6,32.7,32.3,45.7,46.5c8.7,9.6,7.3,7.3,24.2,25   c6.4,6.7,9.5,10,27.6,29.6c16.2,17.4,45.5,60.9,55,79.4c10.6,20.4,11.8,20.8,14.8,29.1c1.5,4.2,5.1,14.8,6.5,28.6   c0.9,8.5,0.8,16.5,0.7,28.1c0,4.7-0.1,8.6-0.2,11.4c6.2,0.3,12.4,0.6,18.7,1c-0.1-4.1-0.3-10.4-0.5-18.2   c-0.2-10.3-0.2-11.9-0.5-16.2c-0.5-9.6-0.8-14.4-1.7-18.9c-1.2-5.8-2.2-7.7-1.2-8.5c2.8-2.2,16.5,10.6,20.6,14.5   c8,7.5,5.9,7.2,12.6,13.1c0.5,0.4,2.6,2.5,4.2,4.1c2.9,2.9,3.6,4,6.9,7.8c1.2,1.4,3.1,3.5,5.6,6c6.3-4.5,8.3-7.2,14.6-11.8   c-2.5-2.4-6.1-5.8-10.4-9.9c-7.6-7.3-9.6-9.6-11.4-11.6c-5.3-6.2-2-3.6-8.7-12.4c-1.1-1.5-2.1-2.7-1.7-3.4   c0.9-1.6,8.5,0.6,12.8,2.4c2.9,1.2,4.2,2.1,8.5,3.6c2.1,0.8,3.9,1.3,5.1,1.7c3.6-6.6,7.1-13.2,10.7-19.9c-3.5-1-8.6-2.5-14.8-4.4   c-7.1-2.2-10.9-3.4-16-5.3c-7.2-2.8-10.8-4-15-7c-19.7-14.2-30.6-32.3-31.8-33.4c-5.8-5.9-22.2-36.5-25.8-47.6   c-2.2-7-3.9-9.6-6.5-19.1c-0.4-1.5-0.8-2.8-1-3.6c3.5,0.5,9,1.3,15.8,1.9c7.7,0.8,11,0.8,17.2,1.5c4.8,0.5,51.9,7.8,66.7,13.1   c17.8,6.4,20.6,6.5,30.1,10.7c2.5,1.1,10.7,5.4,18.7,9.7c5.3,2.9,8.7,4.2,12.7,5.6c2,0.7,3.7,1.1,4.8,1.5c3-5.9,6-11.8,9-17.7   c-3.7-2.3-7.4-4.7-11.1-7c-3.2-2-6.9-4-11.1-5.8c-1.8-0.7-3.5-1.4-5.1-1.9c5.8-0.2,11.6-0.3,17.5-0.5c3.9-0.8,8.9-1.4,14.5-1   c1.9,0.2,3.7,0.4,5.3,0.7l-1.5-19.6c-3.9,0.6-23.1,1.2-34.2,0c-38.4-0.2-66.4-7.7-89.7-18.7c-0.9-0.4-4.8-3.3-5.9-8.7   c-1.1-5.3,1.2-9.3,1.7-10.2c2.3-5.1,5.6-12.9,9.3-22.4c7.9-20.2,7.6-23.8,9.2-27.1c0,0,0.8-1.4,1.8-2.8   c4.1-5.2,44.7-43.1,47.3-45.5c-5.3-3.1-10.6-6.2-15.9-9.3c-1.4,2.4-3.5,5.7-6.4,9.4c-4.8,6.1-9.8,10.7-14.1,14.1   c-5.6,4.6-11.3,9.2-16.9,13.8c-1.1-4,0-19.5,0.6-22.6c0.1-0.3-0.1-0.5-0.4-0.5c-7.8-0.4-14.7-0.2-22.5-0.7   c-0.5,3.8,0.1,28.2,0.2,38.3c0,3,0.1,9.7-0.7,18.2c-1,10-8.5,27.8-14.8,35.4c-9.5,11.4-12.7,13-14.1,13.6c-5,2.2-9.4,1.8-15.3,1.2   c-2.7-0.3-43.7-15.5-50.2-19.8c-5.2-3.4-36-29.5-39-32.7c-9.6-10.3-12.6-23.1-18.7-48.6c-2.4-10.1-5.6-23.8-6.8-42.2   c-1.1-16.9-1.7-31-1.7-37.3c0-10.7,1.3-231.7,1.9-238.6C288.9,45.6,266.6,46.9,242.2,49z" />
        <path fill="#C6C5C5" d="M318.2,42.3c-0.8,5.4-4.6,10-9.2,12.8c-4.6,2.8-10,4.1-15.4,5.1c-10.7,1.9-21.5,2.7-32.4,2.2   c-6.1-0.3-12.5-1.1-17.3-4.8c-4.8-3.8-7-11.4-3-16.1c3-1.8,7.5-4.1,13.4-5.8c5.8-1.7,8.2-1.3,17.9-2.2c10.2-1,13.7-2.3,26.2-3   c5.5-0.3,12.2-1.2,15.8,2.9C318.9,38.8,316.7,37.2,318.2,42.3z" />
        <path fill="#C6C5C5" d="M243.3,89c2.6,1.4,5.7,0.7,8.7,0.7s6.5,1.3,6.9,4.2c0.3,2.3-1.7,4.4-3.9,5.2c-2.2,0.8-4.6,0.5-7,0.6   s-4.9,0.5-6.5,2.3c-2.9,3.1-0.8,8.7,3.1,10.7c3.8,1.9,8.4,1.2,12.6,0.2c20.6-5.1,38.8-17,56.2-29.2c2.7-1.9,5.5-4,6.9-6.9   s1-7.1-1.8-8.8c-3.3-2-7.4,0.3-10.7,2.2c-5.3,3-11.1,5.1-17.1,6.2c-6,1.2-12.3,1.4-18.4,0.6c-2.8-0.4-5.6-0.9-8.4-1.7   c-1.8-0.5-3.6-1.2-5.4-1.6c-4.7-1-10.7-0.5-14.6,2.3c-3.8,2.7-5.5,8.7-1.8,12.3C242.4,88.4,242.8,88.7,243.3,89z" />
        <path fill="#C6C5C5" d="M309.7,102.5c-2.8,0.5-5.4,1.9-8,3.1c-13.1,6.5-27.3,10.8-41.8,12.6c-4.4,0.5-9,0.9-12.8,3.1   c-3.9,2.1-6.9,6.7-5.7,10.9c0.8,2.7,3.1,4.8,5.8,5.9c2.6,1.1,5.5,1.3,8.4,1.5c17.8,0.8,35.8-2.6,52.2-9.7c3.1-1.3,6.2-2.9,8.3-5.5   c2.5-3.1,3.1-7.2,3-11.1c-0.1-2.1-0.3-4.1-0.7-6.2c-0.3-1.6-0.7-2.4-2.1-3.4C314.4,102.5,312,102.2,309.7,102.5z" />
        <path fill="#C6C5C5" d="M254.2,148.8c-4.3,0.1-9.2,0.4-12.1,3.5c-2.8,3-2.9,7.9-0.8,11.5c2.1,3.6,5.9,5.8,9.9,6.9   c4,1,8.2,1,12.3,0.8c13.7-0.6,27.3-2.3,40.6-5.1c3.7-0.8,7.6-1.7,10.7-4c4-2.9,6.1-8,3.6-12.5c-1.7-3.1-4.8-3.1-7.9-2.7   c-5.1,0.7-10.2,0.8-15.3,0.8c-6.4,0.1-12.8,0.2-19.3,0.3c-6.4,0.1-12.8,0.2-19.2,0.3C255.8,148.7,255,148.8,254.2,148.8z" />
        <path fill="#C6C5C5" d="M253.8,197.4c0.4,0,0.8,0.1,1.3,0.1c5.3,0.5,10.6,1,15.8,1.5c1.3,0.1,2.6,0.2,4,0.4   c0.9,0.1,1.8,0.4,2.8,0.5c2.6,0.1,5.3-0.1,7.9-0.2c5.1-0.2,10.1-0.7,15.1-1.4c6.4-0.9,8.7-2.7,13.5-7.1c3.1-2.8,5.1-6.9,4.9-11   c-0.3-4.1-3.2-8.2-7.3-9c-2.8-0.6-5.6,0.3-8.3,1c-11.2,3.2-18.3,5.5-29.9,6.2c-6.1,0.4-12.2,0.4-18.3,0.1c-1.7-0.1-3.4,0-4.9-0.7   c-3.3-1.7-7.7-0.1-9.9,2.7c-2.3,2.8-2.7,7.1-0.9,10.2c1.4,2.6,4.1,4.4,6.9,5.4C248.7,196.8,251.3,197.1,253.8,197.4z" />
        <path fill="#C6C5C5" d="M314.6,206c-2.5-1.5-6-1.4-8.7-0.6c-1.3,0.4-2.5,1.1-3.8,1.5c-2,0.6-4.1,0.3-6.1,0.2   c-5.3-0.4-10.6-0.7-15.9-1.1c-3.4-0.2-6.9-0.5-10.3-0.6c-5-0.2-10-0.2-14.9,0.3c-2.5,0.2-4.9,0.6-7.3,1.1c-1.2,0.2-2.4,0.5-3.6,0.9   c-1.7,0.5-2.9,1-4.3,2.2c-2.5,2.2-4.2,5.6-3.5,8.8c0.6,2.7,2.7,4.9,5.1,6.3s5.2,1.9,8,2.4c16.8,2.9,34.2,2.9,51,0   c3.7-0.6,7.5-1.4,10.8-3.2c3.3-1.8,6.2-4.7,7.2-8.3S317.8,207.9,314.6,206z" />
        <path fill="#C6C5C5" d="M276,236.5c9.4-0.6,18.9-1.2,28.3-1.8c3.7-0.2,7.6-0.5,11.1,0.7c3.5,1.2,6.8,4.2,7.1,7.9   c0.4,5.3-4.9,9.3-9.9,11.2c-4.6,1.8-9.4,2.9-14.3,3.9c-13.1,2.9-26.2,5.8-39.2,8.7c-3.4,0.7-6.8,1.5-10.2,1.1   c-6.2-0.7-11.8-5.3-13.5-11.3c-1.8-6,0.4-12.9,5.2-16.8c5.4-4.4,13-4.7,20-4.2c7,0.5,14.1,1.7,20.8-0.3" />
        <path fill="#C6C5C5" d="M242.3,276.7c-3.5,0.8-7.5,2.2-8.7,5.6c-1.1,3.2,1.2,6.7,4.2,8.3c3,1.6,6.5,1.7,9.9,1.8   c16.3,0.4,32.6,0.7,49,1.1c3.5,0.1,7.1,0.2,10.5-0.7c3.4-0.9,6.7-2.8,8.3-5.9c2.6-4.8,0.5-10.8-3-14.7c-2.4-2.8-5.7-3.1-9.2-3   c-6.3,0.1-12.6,0.4-18.9,0.9c-6.7,0.5-13.4,1.3-20.1,2.4s-13.3,2.3-19.8,3.8C243.9,276.3,243.1,276.5,242.3,276.7z" />
        <path fill="#C6C5C5" d="M254.1,299.3c-3.9,0-7.9,0.1-11.7,1.3c-3.7,1.2-7.3,3.8-8.7,7.6c-2.4,6.2,1.7,13.5,7.3,16.7   c5.6,3.2,12.3,3.4,18.7,3.6c9.7,0.2,19.4,0.4,29.1,0.6c5.9,0.1,12,0.2,17.5-2.1c5.5-2.3,10.3-7.5,10.3-13.7c0-4.3-2.4-8.2-5.6-10.7   c-3.8-3.1-8.5-4.2-13.2-4.2c-4,0-8,0.5-12,0.6c-4.1,0.1-8.2,0.1-12.3,0.1c-5.8,0-11.5,0.1-17.3,0.1   C255.6,299.2,254.8,299.3,254.1,299.3z" />
        <path fill="#C6C5C5" d="M255.1,333c-5.5,0-11.1-0.1-16.1,2c-5,2.1-9.4,6.9-9.1,12.4c0.2,4.6,3.5,8.6,7.5,10.8   c4,2.2,8.7,2.9,13.2,3.4c13.3,1.6,26.7,2,40.1,1.4c5.1-0.2,10.4-0.6,15.2-2.3s9.5-4.6,12.2-9c2.7-4.4,3.2-10.3,0.4-14.7   c-2-3.2-5.7-4.9-9.5-4.9c-1.4,0-2.6,0.3-3.9,0.7c-1.8,0.5-3.5,0.5-5.3,0.5c-9.6-0.1-19.2-0.2-28.7-0.3   C265.9,333.1,260.5,333,255.1,333z" />
        <path fill="#C6C5C5" d="M225.5,371.8c4.1-3.5,9.8-4.6,15.2-4.8c24-0.8,47.9,12.2,71.4,6.9c3.3-0.7,6.5-1.8,9.9-2   c3.4-0.2,7,0.6,9.3,3.1c3.7,4.1,2.1,11-1.7,15.1c-3.8,4.1-9.1,6.3-13.8,9.3c-7.8,4.9-14.1,12.1-17.9,20.4c-2,4.3-3.3,8.9-6.1,12.7   c-2.8,3.8-7.4,6.7-12,5.7c-3.6-0.9-6.3-4-7.8-7.5c-1.5-3.4-2-7.2-2.9-10.8c-2.7-10.2-9-19.4-17.5-25.6c-5.4-3.9-11.6-6.6-18.1-7.9   c-3-0.6-6.1-0.5-9.1-1c-2.5-0.4-3.1-2.4-3-4.7C221.4,377.3,223,374,225.5,371.8z" />
        <path fill="#C6C5C5" d="M226.5,395.8c-6.1-2.6-13.9-2.1-18.4,2.6c-4.8,5-4.7,13.1-1.7,19.3s8.3,10.9,13.5,15.4   c4.2,3.7,8.4,7.3,12.6,11c4.5,3.9,9.7,8.1,15.6,7.7c2.9-0.2,4.8-1.7,7.1-3.2c0.4-0.3,0.9-0.5,1.3-0.8c1.1-0.9,1.8-2.6,2.3-3.9   c1-3.1,0.9-6.5,0-9.6c-1.4-4.7-4.5-8.8-7.6-12.6c-1.4-1.7-2.9-3.4-4.3-5.2c-1.4-1.8-2.5-3.7-3.8-5.7c-0.4-0.6-1-1-1.5-1.5   c-0.7-0.7-1.2-1.6-1.8-2.3c-1.3-1.6-2.7-3.2-4.1-4.7C233,399.7,230,397.3,226.5,395.8z" />
        <path fill="#C6C5C5" d="M300,432.7c-1.5,2.4-3,5.1-3.3,8c-0.3,2.9,0.9,6.2,3.4,7.4c3.2,1.4,6.6-1,9.3-3.4c3.8-3.3,7.7-6.7,11.5-10   c0.9-0.8,1.7-1.2,2.7-1.8c1.5-0.9,2.9-1.9,4.3-2.9c2.8-2.1,5.4-4.4,7.9-6.9c2.7-2.7,5.1-5.6,7.3-8.8c1.1-1.5,2.1-3.2,2.6-5   c0.5-1.9,0.2-4.1-1-5.5c-1.7-2-4.6-1.7-7.1-1.2c-6.5,1.6-12.7,4.6-18.2,8.7c-2.7,2.1-5,4.6-7.5,6.9c-2.7,2.4-5.2,5.1-7.4,8   C303,428.3,301.4,430.5,300,432.7z" />
        <path fill="#C6C5C5" d="M321.2,455.1c-1.6,1.6-3.1,3.3-4,5.3s-1.3,4.5-0.3,6.6c1.1,2.5,4,3.9,6.7,4c2.7,0.1,5.4-0.9,7.9-2   c14-6.2,25.8-17.3,33.2-30.9c0.9-1.6,1.7-3.4,1.9-5.3c0.2-1.9-0.4-3.9-2-5c-2-1.4-4.8-0.6-7,0.4c-3,1.3-5.8,2.9-8.5,4.8   c-2.2,1.5-4.2,3.2-6.4,4.7c-4.4,3.2-8.9,6.1-13.1,9.6C326.6,449.8,323.8,452.4,321.2,455.1z" />
        <path fill="#C6C5C5" d="M353,473.3c-0.7,2.5-1.1,5.2-2.5,7.4c-1.7,2.9-4.9,4.7-6.3,7.8c-1.2,2.6-0.8,5.9,0.8,8.3   c1.6,2.4,4.3,3.8,7,4c4.9,0.4,9.4-3,13.2-6.3c8.4-7.5,16-15.9,22.6-25.2c2.2-3.1,4.3-6.5,4.1-10.4c-0.2-4.2-3.5-7.8-7.4-9   c-3.8-1.2-8-0.3-11.6,1.6c-3.5,1.8-6.3,4.6-9.6,6.8c-3.1,2.1-5.7,5.2-7.7,8.6C354.6,468.8,353.7,471,353,473.3z" />
        <path fill="#C6C5C5" d="M374.6,503.8c-2.9,3.3-5.7,6.9-6.3,11.1s1.8,9.1,6.4,10.1c4.8,1.1,9.4-2,12.9-5.1   c15-13.1,27.7-28.3,37.4-44.9c1.3-2.1,2.5-4.4,2.8-6.8c0.3-2.4-0.6-5.1-2.9-6.5c-2-1.3-4.8-1.3-7.1-0.6c-2.3,0.7-4.3,2.1-6.1,3.6   c-5.7,4.5-10.5,9.7-15,15.2c-3.9,4.9-8.6,9.1-13,13.7C380.5,497,377.5,500.3,374.6,503.8z" />
        <path fill="#C6C5C5" d="M435.2,469.1c-2.9,8.7-2.6,18.2,0.7,26.8c1.5,3.9,3.9,7.9,7.9,10.2c4,2.4,10,2.6,13.4-0.4   c2.5-2.2,3.1-5.4,3.3-8.4c0.2-4,0-8-0.8-11.9c-0.7-4-2-7.9-3.7-11.6c-1.5-3.3-3.2-6.8-5.7-9.6c-1.8-2.1-4.2-3.6-7.3-3   c-4,0.8-6.2,3.5-7.5,6.7C435.5,468.2,435.4,468.7,435.2,469.1z" />
        <path fill="#C6C5C5" d="M465.2,471.5c4.3,6.3,8.5,13.2,8.4,20.8c-0.1,3.1-0.9,6.1-0.7,9.2c0.2,3.1,1.6,6.4,4.5,7.5   c3.8,1.4,7.8-1.8,10-5.2c4.8-7.4,5.7-17.2,2.5-25.4c-2.3-5.8-6.4-10.6-10.4-15.4c-3.2-3.8-6.5-7.6-9.7-11.4c-2.2-2.6-4.6-5.3-7.9-6   c-3.6-0.8-7.7,2.2-6.7,6.1c1.2,4.7,2.9,8.9,5.5,13C462,467,463.6,469.2,465.2,471.5z" />
        <path fill="#C6C5C5" d="M425.9,504.6c-2.3,0.2-4.5,1.5-6.6,2.9c-10.5,7.2-20,17-27.8,28.5c-1.3,1.9-2.6,3.9-3.1,6.4   c-0.5,2.4,0,5.4,1.7,6.7c1.8,1.5,4.2,0.6,6.2-0.5c9.2-4.6,18.1-10.4,26.5-17.1c3.4-2.7,6.8-5.7,8.8-10c1.4-2.9,2-6.4,1.5-9.8   c-0.4-2.6-1.1-4.4-2.9-5.8C428.9,505,427.4,504.5,425.9,504.6z" />
        <path fill="#C6C5C5" d="M406.8,551.3c-1.8,1.3-3.6,2.8-4.8,4.8c-1.2,2-1.5,4.6-0.4,6.6c2.1,3.5,7.1,2.8,10.9,1.6   c16.8-5.6,14.4-3.1,28.6-14c2-1.5,2.1-3.2,3.2-5.5c1.1-2.3,1.1-5.4-0.7-7.2c-2.1-2.1-5.2-3.6-8-2.7c-6.9,2.1-4,1.4-10.3,5   c-5.9,3.4-1.8,0.7-7.6,4.2C414,546.3,410.3,548.7,406.8,551.3z" />
        <path fill="#C6C5C5" d="M420.5,569c-2.2,1.9-4.3,4.2-4.9,7.1c-0.6,2.9,0.7,6.3,3.4,7.2c2.4,0.8,4.9-0.4,7.1-1.6   c12-6.5,7.8-5,18.5-13.4c1.6-1.3,3.3-2.6,4.3-4.5c1-1.8,1.5-4.6-0.1-5.9c-2.8-2.4-3.8-2.3-5.3-1.7c-1.8,0.7-3.6,1.3-5.3,2.3   c-5,2.9-7.9,4-9.3,4.7C426.8,564.2,422.8,567,420.5,569z" />
        <path fill="#C6C5C5" d="M454.3,572c-0.2,0.1-0.3,0.2-0.5,0.3c-1.5,0.8-3,1.6-4.4,2.3c-1.5,0.8-3,1.7-4.5,2.4   c-3,1.6-6.1,3.2-9.1,4.8c-0.8,0.4-1.5,0.8-2.3,1.2c-0.7,0.4-1.5,0.7-2.2,1.2c-0.4,0.3-0.6,0.7-1,1c-1.2,1.1-2.4,2.1-3.5,3.4   c-1.1,1.3-2.1,2.7-2.9,4.2c-1.1,2-1.6,4.8,0.5,5.9c1.2,0.6,2.6,0.3,3.9,0c11.9-2.9,22.9-8.5,31.9-16.1c1.9-1.6,3.8-3.4,4.6-5.7   c0.8-2.3,0-5.2-2.3-6.2C459.9,569.3,456.8,570.6,454.3,572z" />
        <path fill="#C6C5C5" d="M439.1,605.6c-1.2,1-2.4,2.1-3.1,3.4c-0.7,1.4-0.8,3.1,0.1,4.3c1,1.4,3,1.8,4.7,1.4   c1.7-0.3,3.2-1.3,4.7-2.2c7.5-4.7,14.9-9.5,22.4-14.2c2.8-1.8,5.7-3.6,7.4-6.3c0.9-1.3,1.4-2.9,1.5-4.5c0-1.1,0-3.1-1.3-3.5   c-1.2-0.4-2.8,0.5-3.8,1c-1.6,0.7-3.2,1.5-4.8,2.3c-6.4,3.2-12.6,6.8-18.4,10.9C445.3,600.5,442.1,603,439.1,605.6z" />
        <path fill="#C6C5C5" d="M471.4,628.5c10.2-4,17.3-14.8,16.8-25.7c-0.1-2.3-0.7-4.9-2.6-6.1c-1.6-1-3.7-0.7-5.4,0.1s-3,2.3-4.2,3.6   c-2.6,2.9-5.3,5.7-7.9,8.6c-2.6,2.8-5.2,5.7-6.2,9.3c-1,3.6,0.2,8.2,3.6,9.7c2,0.9,4.4,0.6,6.5-0.3c2-0.9,3.8-2.3,5.5-3.8" />
        <path fill="#C6C5C5" d="M458.2,627.7c2.2,0.7,4.4,2,4.9,4.2c0.5,2.3-1,4.4-2.5,6.2c-1.4,1.8-2.9,3.6-4.9,4.8s-4.4,1.8-6.5,1   c-2.4-0.9-3.8-3.3-5-5.5c-1.1-2-2.2-3.9-3.2-5.9c-0.7-1.3-2.1-2.9-0.4-4c1.5-1,3.6-1.4,5.3-1.7c1.9-0.4,3.9-0.5,5.9-0.4   C453.8,626.6,456.4,626.8,458.2,627.7z" />
        <path fill="#C6C5C5" d="M461.1,648.1c-3.4,1.6-5.5,5.6-4.9,9.3c0.5,2.9,2.5,5.4,5.2,6.4c2.7,1,6,0.2,7.9-2   c2.3-2.6,2.7-6.9,2.6-10.2c0-1.2-0.2-2.5-1.3-3.2c-1-0.6-2.3-0.7-3.4-0.9C465.2,647,463.1,647.1,461.1,648.1z" />
        <path fill="#C6C5C5" d="M457.1,665.7c2.6,0.5,5.1,2,6.3,4.4c1,2.1,0.8,4.6-0.1,6.8c-1.1,2.8-3.3,5.3-6.2,6.1   c-2.9,0.8-6.4-0.6-7.5-3.3c-0.5-1.4-0.5-2.9-0.5-4.3c0.1-1.6,0.1-3.2,0.2-4.8c0-0.8,0.1-1.6,0.1-2.4c0-0.5-0.1-1.3,0.2-1.8   c0.5-0.9,2.1-0.8,3-0.8C454.1,665.4,455.6,665.5,457.1,665.7z" />
        <path fill="#C6C5C5" d="M464,683.5c-1.2,2-1.1,4.8,0.3,6.7c1.4,1.9,3.9,2.9,6.2,2.5c0.3-0.1,0.7-1.6,0.8-1.9   c0.2-0.7,0.4-1.4,0.5-2.1c0.2-1.5,0.2-2.9-0.1-4.4c-0.2-1-0.5-2.4-1.2-3.1c-0.8-0.7-2.1-0.5-3-0.3C466,681.2,464.7,682.2,464,683.5   z" />
        <path fill="#C6C5C5" d="M516.8,676.4c-1.3,1.5-2.5,3.6-1.8,5.5c0.5,1.3,1.8,2.2,3.1,2.4c1.3,0.2,2.7-0.1,4-0.5   c2.8-0.8,5.7-2.1,7.7-4.3c1.3-1.4,2.2-3.1,2.6-5c0.2-1.1,0.5-3.3-0.7-4c-1.2-0.8-3.7-0.1-5,0.2c-1.8,0.4-3.5,1-5.1,1.9   C519.9,673.5,518.2,674.8,516.8,676.4z" />
        <path fill="#C6C5C5" d="M457.7,701.9c3.3,0.6,7,0.4,10.1-0.5c1.7-0.5,3.4-1.4,3.4-2.6c0.1-1.4-2-2.4-4.1-2.9   c-3.3-0.8-7.1-0.8-10.5-0.1c-1.7,0.4-3.4,0.9-4.7,1.6c-0.6,0.3-1.3,0.7-1.2,1.2c0.1,0.5,1,1,1.6,1.3   C453.8,700.8,455.6,701.5,457.7,701.9z" />
        <path fill="#C6C5C5" d="M523.7,637.6c-0.1,1.7,0.1,3.6,1.5,4.4c1.3,0.8,2.9-0.1,4.1-1c2.6-2,4.8-4.6,6.5-7.6c0.9-1.5,1.6-3,2.2-4.7   c0.5-1.5,1.2-3.2,1.2-4.9c0-3-2.9-4.3-5.2-3.3c-2.7,1.2-5.2,3.9-6.9,6.5C525.2,630.1,523.9,633.8,523.7,637.6z" />
        <path fill="#C6C5C5" d="M510,661.8c-0.1,2.3,0.6,4.7,2.2,6.4s4.1,2.6,6.3,1.9c2.2-0.7,3.9-3,3.5-5.3c-0.2-1.4-1.1-2.6-1.9-3.7   c-0.9-1.2-1.8-2.5-2.8-3.6c-1.9-2-4.1-2.2-5.9,0.1C510.4,658.8,510,660.3,510,661.8z" />
        <path fill="#C6C5C5" d="M503.4,655.8c1.2,1.9,1.7,4.2,2,6.5c0.1,1.1,0.2,2.4-0.6,3.2c-1,1-2.7,0.6-4,0c-2.9-1.3-6.2-4-7.2-7   c-1.1-3.1,2.6-6.2,5.5-5.7C500.8,653,502.4,654.3,503.4,655.8z" />
        <path fill="#C6C5C5" d="M494.9,638.7c-1.7,1.7-2.8,4.3-2,6.5c0.7,2,2.9,3.3,5,3.7c2.1,0.4,4.3,0,6.5-0.4c1.2-0.2,2.6-0.7,2.7-1.9   c0-0.5-0.2-1-0.5-1.5c-0.8-1.5-1.6-2.9-2.4-4.4c-0.6-1.1-1.1-2.1-1.8-3.1c-0.4-0.6-1-2.2-1.9-2.2c-0.8,0-2.3,0.9-3,1.3   C496.6,637.3,495.7,637.9,494.9,638.7z" />
        <path fill="#C6C5C5" d="M478,631.2c2.9-1.8,7.2-1.9,9.4,0.7c1.3,1.5,1.6,3.6,1.4,5.5c-0.2,1.9-1,3.8-1.7,5.6   c-0.9,2.2-2.3,4.8-4.7,4.9c-1.5,0-2.8-1-4-2c-1.2-1-2.4-2-3.5-3c-1-0.8-2.6-1.7-3.1-2.9c-0.5-1,0.2-2,0.7-2.8   c0.7-1.1,1.4-2.2,2.3-3.2C475.7,632.9,476.8,631.9,478,631.2z" />
        <path fill="#C6C5C5" d="M490.6,614.1c-0.6,3.4,0.9,7.5,4.2,8.7c1.8,0.6,3.8,0.3,5.5-0.4c1.7-0.7,3.2-1.9,4.7-3   c1.2-0.9,2.3-1.8,3.2-3c0.9-1.2,1.3-2.8,0.9-4.2c-0.6-2-2.6-3.1-4.5-4c-1.5-0.7-3-1.5-4.6-2.2c-1.1-0.6-2.7-1.7-4-1.5   c-0.9,0.1-1.4,0.9-1.8,1.7c-0.7,1.2-1.4,2.3-2.1,3.4C491.5,611,490.9,612.5,490.6,614.1z" />
        <path fill="#C6C5C5" d="M508.4,626.4c1.2-1.3,2.3-2.6,3.9-3.5s3.5-1.2,5-0.3c1.4,0.7,2.2,2.2,2.5,3.7c0.3,1.5,0.1,3.1-0.1,4.6   c-0.2,1.4-0.3,2.8-0.9,4.2c-0.6,1.3-1.6,2.5-2.9,2.9c-2.6,0.8-5.7-1.3-8.1-2.1c-2.3-0.8-2.9-3-2.2-5.3   C506.1,629,507.3,627.7,508.4,626.4z" />
        <path fill="#C6C5C5" d="M497.2,502c-0.6,2.5-0.8,5.7,1.3,7.3c1.5,1.1,3.6,0.9,5.2-0.2s2.6-2.6,3.5-4.2c3.6-6.7,5.1-14.5,4.4-22.1   c-0.2-1.9-0.7-4.5-2.8-5.2c-1.8-0.7-3.3,1.1-4.1,2.5c-1.2,2.1-2,4.5-2.9,6.7c-0.9,2.3-1.7,4.7-2.4,7.1   C498.5,496.5,497.8,499.2,497.2,502z" />
        <path fill="#C6C5C5" d="M519.6,484c-2.4,2-2.7,5.6-2.7,8.8c0,5.6-0.1,11.2-0.1,16.8c0,1.8,0,3.6,0.9,5.1c1.4,2.2,4.5,2.8,6.9,1.9   s4.1-3.2,5-5.6s1.1-5,1.3-7.6c0.2-2.7,0.4-5.4,0.6-8.2c0.2-2.3,0.6-4.7,0.4-7c-0.3-3.2-2.4-4.8-5.5-5.4c-1.1-0.2-2.3-0.3-3.5-0.2   c-0.6,0.1-1.2,0.2-1.8,0.5C520.9,483.2,519.6,483.7,519.6,484z" />
        <path fill="#C6C5C5" d="M536.4,509.1c-0.7,3.8-1.4,7.7-0.4,11.4c1,3.7,4.4,7,8.2,6.7c2.2-0.2,4.2-1.6,5.5-3.5   c1.3-1.8,2-4.1,2.4-6.3c0.8-4.6,0.8-9.3,0.5-13.9c-0.2-2.3-0.4-4.7-0.6-7c-0.2-1.9-0.3-3.7-1.1-5.4c-1.1-2.4-3.4-5-6.2-5.1   c-3.7-0.1-4.7,4.4-5.3,7.2C538.4,498.5,537.4,503.8,536.4,509.1z" />
        <path fill="#C6C5C5" d="M560.3,488.8c-2.5,1.9-3.1,5.4-2.9,8.5c0.2,4.7,1.6,9.3,4.2,13.3c1.3,2.1,3.4,4.2,5.9,3.9   c1.5-0.2,2.7-1.4,3.4-2.7s0.9-2.9,1.1-4.4c0.5-4.7,0.5-9.4,0-14c-0.1-1.3-0.1-3-0.9-4.1c-0.9-1.2-3-1.6-4.4-1.8   C564.5,487.1,562.1,487.4,560.3,488.8z" />
        <path fill="#C6C5C5" d="M604,499.2c-0.2,2.6-0.2,5.1,0.2,7.7c0.2,1.4,0.6,2.9,2,3.6c1.4,0.8,3,2.1,4.2,1.2c1.3-0.9,2.4-3.9,2.9-5.2   c1.5-3.8,1.8-8.3,0.2-12.2c-0.5-1.3-1.4-3-3.1-3.5c-1.9-0.6-3.6,1-4.5,2.2C604.7,494.9,604.2,497.1,604,499.2z" />
        <path fill="#C6C5C5" d="M588.1,544.2c2.9,3.1,7.4-1,9.7-3.3c1.6-1.5,3-3.3,4.3-5.2c0.9-1.3,1.4-2.7,1.2-4.5c-0.4-3.2-3-5.5-5.4-6   c-3.3-0.6-6.2,3-8,6c-1.9,2.9-4.2,8.1-2.5,11.8C587.6,543.5,587.8,543.9,588.1,544.2z" />
        <path fill="#C6C5C5" d="M562.1,519.2c2,0.6,3.4,2.3,4.1,4.2c0.7,1.9,0.7,4,0.7,6.1c0,1.7-0.2,3.6-1.7,4.5c-1.3,0.8-3,0.2-4.4-0.4   c-1.9-0.8-3.9-1.6-5.8-2.5c-1.1-0.6-2.1-1.4-2.2-2.7c-0.4-2.7,1.9-6.3,4-7.9C558.3,519.4,560.2,518.7,562.1,519.2z" />
        <path fill="#C6C5C5" d="M573.7,534.1c3.7-3,7.3-5.9,11-8.9c0.8-0.7,1.7-1.3,2.2-2.2s0.8-2,0.4-3c-0.7-1.6-3.3-2.9-4.8-3.5   c-1.6-0.6-2.9-0.3-4.2,0.8c-3,2.5-5,6.4-5.4,10.3c-0.1,1.1-0.1,2.2,0,3.3C573,531.2,573.7,534.1,573.7,534.1z" />
        <path fill="#C6C5C5" d="M579.4,501.9c1,2.1,3.4,3.6,5.7,3.2c0.8-0.1,1.5-0.5,2.1-0.9c2.2-1.3,3.9-3.5,4.5-6   c0.5-2.5-0.3-5.3-2.4-6.9c-1.2-0.9-2.7-1.4-4.3-1.6c-0.7-0.1-1.5-0.4-2.2,0c-0.5,0.2-1,0.7-1.4,1.1c-1.8,1.4-2.4,3.7-2.8,5.9   C578.5,498.3,578.6,500.2,579.4,501.9z" />
        <path fill="#C6C5C5" d="M591,511.5c0-2.2,0-4.6,1-6.5c1-2,3.5-3.4,5.6-2.4c1.6,0.7,2.3,2.5,2.7,4.2c0.3,1.3,0.4,2.7,0,4   c-0.4,1.3-1.2,2.5-2.5,3c-2.2,0.9-4.6-0.5-6.5-1.8" />
        <path fill="#C6C5C5" d="M482.5,448.7c1.7,0.5,3.4,0.9,5.1,0.6s3.4-1.1,4.3-2.6c0.9-1.6,0.9-3.6,0.2-5.3c-0.7-1.7-1.9-3.1-3.2-4.4   c-4-4.1-9-7.2-14.3-9.2c-2.4-0.9-5.7-1.5-7.4,1c-1.2,1.7-1.4,4.6-1,6.6c0.7,3.8,4.9,6.1,7.6,8.4   C476.4,446.1,479.3,447.7,482.5,448.7z" />
        <path fill="#C6C5C5" d="M481.6,415.4c2.1-0.5,4.1-1.4,5.6-2.9c1.5-1.5,2.5-3.6,2.3-5.7c-0.2-2.9-2.7-5.3-5.4-6.2   c-2.8-0.9-5.8-0.6-8.6,0.2c-2.2,0.6-4.5,1.6-5.8,3.5c-1.6,2.3-1.6,6.1-0.6,8.7c1,2.4,3.8,2.8,6.1,3   C477.3,416.1,479.5,416,481.6,415.4z" />
        <path fill="#C6C5C5" d="M488.4,416.4c-1.7,1.3-2.3,3.5-2.4,5.6c-0.1,2.6,0.6,5.4,2.5,7.2s5.1,2.4,7.1,0.8c1.5-1.1,2.1-3.1,2.1-5   c0-1.9-0.6-3.7-1.2-5.5c-0.3-0.8-0.6-1.7-1.2-2.3c-0.6-0.5-1.4-0.6-2.1-0.9C491.6,415.8,490,415.2,488.4,416.4z" />
        <path fill="#C6C5C5" d="M487.2,371.4c-2.2,1.2-3.6,3.6-4.2,6.1c-0.5,2.5-0.3,5.1-0.1,7.6c0.2,2.1,0.3,4.2,0.5,6.2   c0.1,1.1,0.2,2.2,0.6,3.3s1.3,1.9,2.3,2.2c1.8,0.4,3.4-1.1,4.5-2.6c2.4-3.3,3.9-7.4,4.3-11.5c0.2-2.1,0.1-4.1-0.2-6.2   c-0.2-1.3-0.4-3.6-1.5-4.6C491.8,370.5,489,370.5,487.2,371.4z" />
        <path fill="#C6C5C5" d="M484.7,354c-2.9,0.1-7.9,0.3-10.4,1.5s-4.1,3.9-2.8,6c0.7,1.1,2,1.8,3.4,2.2c1.4,0.4,2.9,0.4,4.4,0.4   c3.1,0,6.2-0.3,9.3-0.8c2.3-0.4,6.2-0.3,7-2.1c0.6-1.3-0.1-3.2-1.2-4.3S488.5,353.8,484.7,354z" />
        <path fill="#C6C5C5" d="M478,383c-0.5,2.4-1.7,4.6-3.2,6.6c-0.9,1.3-2.5,2.6-3.9,2c-1-0.4-1.4-1.5-1.7-2.6   c-0.7-2.4-1.2-4.8-1.4-7.3c-0.2-2.1-0.6-4.9,0.5-6.9c1.8-3.2,7-0.7,8.5,1.5C478.2,378.2,478.5,380.7,478,383z" />
        <path fill="#C6C5C5" d="M532,345c-0.6,0.7-0.8,1.7-0.6,2.6c0.2,0.9,0.6,1.7,1.1,2.4c1.2,1.9,2.6,3.6,4.2,5.2   c1.3,1.3,2.7,2.4,4.4,3.1c1.6,0.7,3.6,0.8,5.2,0.1c1.6-0.7,2.9-2.5,2.8-4.4c-0.1-1.8-1.5-3.5-2.8-4.7c-0.9-0.8-1.9-1.2-3-1.6   c-1.8-0.7-3.4-1.6-5.1-2.3C536.5,344.7,533.5,343.3,532,345z" />
        <path fill="#C6C5C5" d="M521.2,356.4c-0.9,2-1.3,4.1-1.6,6.3c-0.2,1.1-0.3,2.4,0.4,3.3c0.9,1.2,2.8,1,4.3,0.6c2-0.4,4.1-1,5.4-2.6   c1.4-1.8,1.4-4.4,0.5-6.4c-0.8-1.7-2-3.3-3.4-4.6c-0.5-0.5-1.1-0.9-1.8-0.7c-0.8,0.2-1.5,1-2.1,1.6   C522.2,354.7,521.6,355.5,521.2,356.4z" />
        <path fill="#C6C5C5" d="M519.8,373.8c-1.9,3.2-1,6.7,1.7,7.3c1.4,0.3,3.1,0,4.8-0.9c2.4-1.3,4.5-3.9,5-6.2c0.5-2.5-0.8-3.8-2.3-5   c-1.3-1-4.2,0.2-6,1.5C521.8,371.3,520.6,372.5,519.8,373.8z" />
        <path fill="#C6C5C5" d="M515.8,377.4c-0.5,2-2.1,3.7-4.1,4.3c-3,0.8-6.4-1.4-6.9-4.4c-0.5-2.8,1.8-5.6,4.1-7   c2.4-1.5,5.1,0.2,6.3,2.5C516,374.2,516.2,375.9,515.8,377.4z" />
        <path fill="#C6C5C5" d="M506.2,384.9c-2.7,0.3-5,1.9-6.9,3.5c-1.9,1.6-3.6,3.5-4.1,5.6s0.6,4.7,3.1,5.6c1.6,0.6,3.5,0.5,5.1,0   c1.6-0.5,3-1.4,4.3-2.4c2.4-1.8,4.5-4,6.1-6.3c0.3-0.5,0.8-1,0.7-1.6c-0.1-0.5-0.5-1-0.8-1.5c-0.7-1-1.7-1.8-2.9-2.3   C509.4,385,507.7,384.7,506.2,384.9z" />
        <path fill="#C6C5C5" d="M242.8,468.4c-1.6-1.1-3.1-2.3-4.7-3.4c-1.2-0.8-2.5-1.2-3.6-2c-3.1-2.4-6-4.9-8.9-7.4   c-8.6-7.7-16.3-16.2-24.3-24.5c-1.8-1.9-3.8-3.9-6.3-4.6c-2.5-0.8-5.8,0.1-6.7,2.5c-0.5,1.4-0.3,2.9,0,4.3   c4.2,20.8,19.5,39,39.2,46.9c4,1.6,8.5,2.8,12.7,1.6c4-1.2,7.8-5.9,6.3-10.2c-0.2-0.6-0.6-0.9-1.1-1.2   C244.5,469.6,243.6,469,242.8,468.4z" />
        <path fill="#C6C5C5" d="M161,432.2c-2.4,3.4-3.2,7.6-4,11.7c-0.7,3.8-1.4,7.5-2.1,11.3c-0.5,2.8-0.8,6.2,1.4,8   c1.6,1.3,4,1.2,5.8,0.2c1.8-1,3.1-2.7,4.3-4.4c5.5-8.2,8.4-18.1,8.4-28c0-1.1-0.1-2.5-0.9-3.4c-0.7-0.8-1.9-1-2.9-0.6   c-2.2,0.8-4.6,0.8-6.7,2.1C163,429.9,161.8,431,161,432.2z" />
        <path fill="#C6C5C5" d="M180.3,465.2c4.2-0.3,9,0.1,11.4,3.5c1.8,2.6,1.5,6.2,0.1,9.1s-3.8,5.1-6.1,7.2c-2.8,2.6-5.6,5.2-8.4,7.8   c-2.4,2.2-5.3,4.6-8.5,4.1c-3.5-0.6-5.5-4.4-6.5-7.8c-1.5-5.3-2.2-11-1.7-16.5c0.1-1.6,0.7-2.8,2.2-3.5c2.4-1.2,5.3-1.8,7.9-2.4   C173.8,466,177,465.5,180.3,465.2z" />
        <path fill="#C6C5C5" d="M233.3,496.3c0.4,1.4,0.6,2.7,0.2,4c-1.9,6.7-5.4,12.9-10,18.1c-1.5,1.7-3.2,3.3-5.4,3.9   c-2.1,0.6-3.8-0.2-5.7-0.9c-3.1-1.1-5.5-3.5-7.8-5.7c-3.9-3.9-7.9-7.9-10.3-12.8c-2.4-5-3.1-11.1-0.4-15.9c3.1-5.5,10-8,16.3-7.2   s11.9,4.2,16.7,8.2C229.6,490.3,232.3,492.9,233.3,496.3z" />
        <path fill="#C6C5C5" d="M175,509.7c-3.8-0.6-7.8-0.6-11.5,0.8c-3.6,1.4-6.8,4.3-7.9,8c-1.3,4.5,0.5,9.4,3.6,12.9   c3.1,3.4,7.4,5.6,11.8,7.3c5.1,2,10.7,3.6,16.1,2.5c5.4-1.1,10.5-5.5,10.7-11c0.2-4.8-3.1-8.2-5.8-11.7c-2.3-2.9-5.3-4.7-8.7-6.2   C180.6,511,177.9,510.2,175,509.7z" />
        <path fill="#C6C5C5" d="M171.8,586.5c2,1.5,4.3,3.1,6.8,2.9c3.1-0.2,5.5-3.4,5.6-6.6c0-3.2-1.8-6.1-4.2-8.1c-2.4-2-5.4-3.3-8.3-4.5   c3.2,1,6.4,2,9.6,3c2.1,0.7,4.3,1.3,6.5,1.1s4.5-1.4,5.3-3.5c0.8-2.3-0.4-4.9-2.3-6.5s-4.3-2.3-6.6-3.2c-9-3.3-17.2-8.5-24.1-15.2   c-4.5-4.3-8.7-9.4-14.7-11c-5.1-1.4-10.8,0.2-14.4,4c-3,3.2-5.4,7.6-3.2,11.9c1.2,2.3,3.2,3.9,5.2,5.5c2.4,2,4.9,3.9,7.3,5.8   c4.9,3.9,9.8,7.7,14.7,11.6c4.9,3.8,9.9,7.6,14.8,11.3C170.6,585.6,171.2,586,171.8,586.5z" />
        <path fill="#C6C5C5" d="M207.2,525.1c-3,1.7-5.2,4.7-6.5,7.9s-2,6.7-2.6,10.1c-0.2,1.1-0.4,2.2-0.1,3.3c0.3,1.1,1.1,2.1,2.2,2.3   c0.9,0.1,1.8-0.4,2.6-0.9c4.2-2.7,7.7-6.5,10.2-10.8c1.3-2.2,2.3-4.5,3-6.9c0.5-1.6,1.9-4.7-0.2-5.7   C213.1,523.2,209.7,523.7,207.2,525.1z" />
        <path fill="#C6C5C5" d="M102.6,553.1c-1.1,2.1-0.6,4.7,0,7c1.8,7.4,3.7,14.8,5.5,22.2c0.4,1.4,0.7,2.9,1.8,3.9   c1.2,1.2,3.2,1.4,4.8,0.8c1.6-0.5,3-1.7,4.1-2.9c4.2-4.5,6.4-10.8,6-17c-0.4-4.9-2.5-10.2-6-13.7c-1.1-1-2.3-1.6-3.7-1.9   c-2-0.5-4.2-1.4-6.3-1.5C106.4,549.9,103.7,550.9,102.6,553.1z" />
        <path fill="#C6C5C5" d="M150.4,587.6c-2.2-1.4-4.4-2.8-6.8-3.5c-2.5-0.8-5.2-0.9-7.5,0.3c-3.9,2-5.3,7.2-4.3,11.5s3.8,7.9,6.6,11.3   c3.5,4.3,7.7,9,13.2,9.1c4.1,0.1,7.9-2.7,10.3-6.1c1.2-1.8,2.1-3.7,2.8-5.7c0.6-1.7,1.4-3.6,1.6-5.4c0.1-1.8-1.8-2.5-3-3.3   c-2-1.3-4-2.5-6.1-3.8C154.9,590.4,152.7,589,150.4,587.6z" />
        <path fill="#C6C5C5" d="M31.2,565.3c0.1,1.3,0.5,2.5,1.2,3.5c0.7,1,1.8,1.8,2.9,1.7c1.2,0,2.3-0.9,3-2s1.1-2.4,1.5-3.7   c0.5-1.7,1-3.5,1-5.3c0.1-2.9-1.5-6.3-4.5-6.2c-1.1,0-1.8,0.9-2.5,1.8c-0.9,1.3-1.7,2.8-2.1,4.4C31.2,561.4,31,563.4,31.2,565.3z" />
        <path fill="#C6C5C5" d="M31.7,601.3c0.9,2,2.5,4,4.7,4c1.3,0,2.5-0.7,3.2-1.7c0.8-1,1.2-2.2,1.5-3.4c0.5-2.2,0.5-4.5-0.2-6.6   c-1-2.8-3.9-5.8-7.2-5.2c-2.8,0.5-3.2,4-3.3,6.3C30.4,596.9,30.8,599.2,31.7,601.3z" />
        <path fill="#C6C5C5" d="M47.5,560.7c0.6,2.3,2.5,4.5,4.9,4.8c1.8,0.2,3.6-0.6,5-1.8c1.3-1.1,2.4-2.7,2.8-4.4c0.4-1.7,0-3.7-1.1-5   c-1.3-1.5-3.4-2.2-5.5-2.1c-1.8,0.1-3.6,0.6-5.4,1.2c-0.7,0.3-0.8,0.6-0.9,1.3c-0.1,0.9-0.2,1.9-0.2,2.8   C47.2,558.7,47.3,559.7,47.5,560.7z" />
        <path fill="#C6C5C5" d="M60.6,563.7c0.3-0.5,0.6-1.1,1.1-1.5s1.1-0.6,1.7-0.4c0.5,0.2,0.8,0.8,1,1.3c0.7,2,0.2,4.4-1.2,6   c-1,1-3.1,2.3-4.6,1.8c-1.9-0.7-0.4-2.9,0.2-4C59.4,565.9,60,564.8,60.6,563.7z" />
        <path fill="#C6C5C5" d="M51.4,588.2c1.9,1.6,5,2.1,6.7,0.4c1.3-1.3,1.5-3.4,1.3-5.2c-0.1-1.6-0.5-3.3-1.7-4.3   c-1.4-1.2-3.5-1.1-5.1-0.4c-1.4,0.6-3,1.9-3.9,3.1c-1,1.3,0.1,2.9,0.8,4.1C50,586.7,50.6,587.5,51.4,588.2z" />
        <path fill="#C6C5C5" d="M72.2,579.3c1.6,0.7,2.9,1.8,4.1,3c0.9,0.8,2,1.8,2.2,3.1c0.3,1.3-0.6,2.5-1.5,3.3   c-1.6,1.5-3.5,2.7-5.7,2.7c-4.8,0.2-7.2-4.9-6.1-9.1C66.2,579.2,69.3,578.1,72.2,579.3z" />
        <path fill="#C6C5C5" d="M71.7,557.2c-0.8,1.8-0.8,3.9-0.4,5.8c0.5,1.9,1.3,3.7,2.2,5.5c0.7,1.3,1.6,2.8,3,2.9   c1,0.1,1.9-0.5,2.6-1.2c2.6-2.1,4.9-4.9,5.6-8.3c0.5-2.6-0.3-6.2-2.5-7.9c-0.7-0.6-1.7-0.7-2.6-0.7c-1.5-0.1-3-0.1-4.4,0.4   C73.7,554.4,72.4,555.6,71.7,557.2z" />
        <path fill="#C6C5C5" d="M88.1,578.4c-0.9-2-1.2-4.4-0.5-6.5c0.7-2.1,2.6-3.9,4.8-4c1.7-0.1,3.4,0.8,4.6,2c1.2,1.2,2.1,2.7,2.9,4.3   c0.9,1.7,1.9,3.6,1.1,5.4c-0.5,1.3-1.8,2.1-3.1,2.7c-1.7,0.8-3.6,1.7-5.4,2c-0.7,0.1-1-0.2-1.3-0.8c-0.6-0.7-1.1-1.5-1.6-2.3   C89,580.3,88.5,579.4,88.1,578.4z" />
        <path fill="#C6C5C5" d="M133.4,615.7c2,1.7,3.9,4.2,3,6.6c-0.5,1.5-1.8,2.5-3.3,3c-1.5,0.5-3,0.5-4.5,0.5c-3.5,0-6.9-0.1-10.4-0.3   c-2.4-0.1-5.2-0.6-6.2-2.7c-0.6-1.4-0.3-2.9,0.1-4.4c0.6-2.3,1.1-4.6,1.7-6.8c0.4-1.4,1.1-2.1,2.5-2.1c3.8-0.2,7.9,1,11.4,2.6   C129.7,613,131.6,614.2,133.4,615.7z" />
        <path fill="#C6C5C5" d="M122.1,589.4c1.5,2,1.6,4.7,1,7.1c-0.3,1-0.7,2.1-1.4,2.9c-0.7,0.8-1.8,1.4-2.8,1.3c-1.1-0.1-2-0.8-2.6-1.7   s-0.8-2-1-3c-0.2-1.3-0.3-2.5-0.3-3.8c0-1-0.1-2.3,0.3-3.2c0.6-1.5,3.1-1.5,4.3-1.1C120.6,588,121.5,588.6,122.1,589.4z" />
        <path fill="#C6C5C5" d="M135.2,634.1c-3.5,0.3-6.8,2.5-8.6,5.6s-2,6.9-1,10.3c0.7,2.1,2,4.3,4.2,4.9c1.7,0.5,3.5,0,4.9-0.9   c1.4-0.9,2.6-2.3,3.6-3.7c1.1-1.5,2.2-3,3.2-4.5c0.9-1.4,2-2.9,2.5-4.5c0.9-2.7-1.2-4.6-3.4-5.8C139,634.4,137.1,634,135.2,634.1z" />
        <path fill="#C6C5C5" d="M119.1,646.1c-0.2,1.8-1.7,3.2-3.2,4.2c-2.8,2-6,3.4-9.4,4c-2.1,0.4-4.6,0.4-6.2-1.2   c-1.7-1.7-1.4-4.5-0.8-6.6c0.8-2.8,2.1-5.6,3.6-8.1c1.1-1.8,2.6-3.8,4.9-3.9c2.5-0.1,4.6,2,6.3,3.6   C116.5,640,119.5,642.9,119.1,646.1z" />
        <path fill="#C6C5C5" d="M119.9,683.3c1.5,0.8,3.3,1.6,4.8,0.8c1.4-0.7,1.8-2.6,1.4-4.1c-0.4-1.5-1.4-2.7-2.5-3.9   c-3.6-4.2-7.3-8.3-11.8-11.4c-4.5-3.1-10.1-5.1-15.5-4.3c-2.4,0.3-5.5,1.5-6.1,4.2c-0.5,2.1,0.3,3.8,2.1,4.7   c5.7,2.8,11.3,5.7,17,8.6C112.9,679.7,116.4,681.5,119.9,683.3z" />
        <path fill="#C6C5C5" d="M91.4,679.8c-1.9-0.3-3.8-0.5-5.7-0.1c-1.8,0.5-3.6,1.7-4.3,3.4c-0.7,1.8-0.3,3.9,0.8,5.6   c1,1.7,2.6,2.9,4.2,4c8.1,5.7,18,8.8,27.8,8.8c1.8,0,3.6-0.1,5.3-0.9c1.6-0.8,2.9-2.4,2.8-4.2c-0.1-2.2-2.2-3.6-4.1-4.3   c-2.4-0.9-5.1-0.6-7.4-1.6c-1.6-0.7-2.5-2.1-3.6-3.3c-1.9-1.9-4.4-3.3-6.8-4.5C97.5,681.4,94.5,680.3,91.4,679.8z" />
        <path fill="#C6C5C5" d="M70.8,705.1c1.4,1.7,3.4,3.4,5.6,3.1c2.1-0.3,3.5-2.4,3.8-4.6s-0.5-4.2-1.2-6.2c-0.9-2.5-1.8-5.1-4-6.7   c-1.5-1.1-3.5-1.5-5.4-1c-1.8,0.5-4.4,2.2-4.5,4.3c0,1.1,0.5,2.3,0.9,3.2c0.6,1.3,1.2,2.6,2,3.8C68.8,702.6,69.8,703.9,70.8,705.1z   " />
        <path fill="#C6C5C5" d="M18.3,713c-0.4,3.6,0.7,7.1,2,10.5c0.4,1.1,0.9,2.1,1.6,3c0.7,0.9,1.8,1.5,2.9,1.5c1.3,0,2.4-0.9,3.1-1.9   c0.7-1.1,1.1-2.3,1.4-3.6c0.7-3.2,1.1-6.5,0.3-9.7c-0.6-2.7-2.2-5-4.3-6.6c-2.1-1.5-4.2,0.7-5.4,2.5   C19.1,709.9,18.5,711.4,18.3,713z" />
        <path fill="#C6C5C5" d="M140.1,745.5c-3.3,1.5-6.4,3.6-8.4,6.7c-1.4,2.1-2.1,5.1-0.5,7c1.6,1.8,4.3,1.5,6.6,0.8   c3.9-1.2,7.5-3.2,10.6-5.9c2.5-2.1,4.9-5.2,3.6-8.8c-1-2.6-3.4-2.5-5.7-1.9C144.2,744,142.1,744.7,140.1,745.5z" />
        <path fill="#C6C5C5" d="M41.9,756.7c-0.6,1.2,0.1,2.7,0.8,3.8c2.2,3.2,5.6,5.7,9.4,6.8c1.4,0.4,2.8,0.7,4.2,0.4   c1.4-0.3,2.7-1.2,3.1-2.5c0.4-1.1,0-2.3-0.6-3.3c-0.6-1-1.6-1.7-2.5-2.4c-1.9-1.4-4-2.6-6.2-3.6c-1-0.5-2.1-1.1-3.2-1.2   c-0.8-0.1-1.7,0.2-2.5,0.4C43.4,755.3,42.4,755.7,41.9,756.7z" />
        <path fill="#C6C5C5" d="M99.1,777.2c2.6-0.5,5.2-0.4,6.7-2.5c0.7-0.9,1.2-3.3,0.7-4.4c-0.4-1-1.3-1.7-2.4-2.1   c-1-0.4-2.2-0.4-3.3-0.5c-2.3-0.1-4.8-0.5-7.1-0.1c-0.7,0.1-6.5,0.7-8,2c-0.9,0.8-0.9,2.3-0.5,3.5c0.9,2.3,2.2,2.9,4.8,3.5   C92.7,777,96.5,777.7,99.1,777.2z" />
        <path fill="#C6C5C5" d="M98.7,755.3c-1.5,1.4-2.2,3.8-1.4,5.7s3,3.3,5,2.7c1.9-0.5,3.2-2.5,3.5-4.5c0.1-1,0.1-2-0.1-3   c-0.1-0.7-0.2-1.7-0.7-2.3c-0.8-1-2.8-0.5-3.8-0.2C100.3,754.1,99.4,754.6,98.7,755.3z" />
        <path fill="#C6C5C5" d="M90.3,759.5c1.1-1.1,1.5-2.6,2-4.1c0.6-1.9,1.1-3.9,0.6-5.9s-2.5-3.6-4.4-3c-1.9,0.6-2.5,2.8-2.7,4.8   c-0.2,2.1-0.1,4.2,0.2,6.4c0.2,1.1,0.2,2.8,1.7,2.9C88.6,760.7,89.6,760.1,90.3,759.5z" />
        <path fill="#C6C5C5" d="M99.4,729.8c-1.8,1.2-3.2,3.1-3.5,5.2c-0.4,2.1,0.4,4.5,2.1,5.8c1.7,1.3,4.3,1.4,6,0c1.5-1.3,1.9-3.5,2-5.5   c0.1-2-0.1-3.9-0.6-5.9c-0.1-0.5-0.2-1.3-0.8-1.5c-0.7-0.2-1.8,0.2-2.4,0.5C101.2,728.8,100.3,729.2,99.4,729.8z" />
        <path fill="#C6C5C5" d="M131.4,732.2c1.4-0.6,3.2-1,4.5-0.2c1.2,0.8,1.5,2.5,1.1,3.9c-0.4,1.4-1.4,2.5-2.4,3.6   c-1.4,1.6-2.8,3.2-4.7,4.3c-1.8,1.1-4.1,1.6-6.1,0.7c-1.2-0.5-2.1-1.4-2.9-2.5c-0.8-1-1.6-2-0.5-3c2-1.9,4.4-3.6,6.8-5   C128.6,733.5,130,732.8,131.4,732.2z" />
        <path fill="#C6C5C5" d="M119.6,723.5c-1.4,1.4-2.8,3.3-2,5.1c0.5,1.2,2,1.8,3.3,1.8c1.3,0,2.6-0.6,3.8-1.2c1.6-0.8,3.2-1.6,4.5-2.7   c1.9-1.7,3.6-5,1.7-7.4c-1.9-2.3-4.7-1-6.7,0.4C122.7,720.7,121.1,722.1,119.6,723.5z" />
        <path fill="#C6C5C5" d="M64.8,728.4c0.6,1.6,1.8,2.9,3.1,4.1c2.3,2,5,3.6,7.9,4.6c2.1,0.7,4.9,0.9,6.3-0.8c0.9-1.2,0.9-3,0.2-4.4   c-0.6-1.4-1.8-2.5-2.9-3.6c-1.6-1.6-3.2-3.1-4.8-4.7c-1.4-1.4-3.4-3.2-5.5-2.8c-0.9,0.2-1.9,0.8-2.7,1.3c-1,0.6-1.6,1.5-1.9,2.6   C64.2,725.9,64.3,727.2,64.8,728.4z" />
        <path fill="#C6C5C5" d="M67,748.3c1.6,0.7,3.9,1,4.9-0.4c0.6-0.8,0.6-1.9,0.2-2.8c-0.4-0.9-1-1.7-1.7-2.4c-1.6-1.7-3.4-3.2-5.3-4.5   c-1-0.6-1.9-1.2-3-1.8c-0.9-0.5-1.9-1.1-2.9-1c-1.9,0.3-2.2,2.5-1.5,4c0.9,1.9,2.1,3.6,3.6,5C63,746.1,64.9,747.4,67,748.3z" />
        <path fill="#C6C5C5" d="M58.8,755.8c0.6,0.3,1.3,0.6,1.9,0.4c0.7-0.3,1.1-1.2,1-1.9s-0.6-1.4-1.1-2c-2-2.5-4.2-4.8-6.7-6.9   c-1.3-1-2.8-2.1-4.6-1.7c-1.4,0.4-2.7,1.7-2.9,3.1c-0.5,3.3,3.9,4.9,6.2,6.1C54.7,753.8,56.7,754.8,58.8,755.8z" />
        <path fill="#C6C5C5" d="M38.2,716.7c1.2,1.1,2.6,2.2,4.2,2c1.5-0.2,2.7-1.4,3.2-2.7c0.6-1.4,0.6-2.9,0.7-4.4   c0.1-1.5,0.1-3.1-0.3-4.6c-0.4-1.5-1.4-2.9-2.8-3.5c-1.7-0.7-3.6,0-5.2,0.4c-1.4,0.4-3.2,0.5-4.2,1.5c-1.9,1.8-0.1,5.1,1,6.9   C35.7,713.9,36.9,715.4,38.2,716.7z" />
        <path fill="#C6C5C5" d="M52,709.7c0.1-2.1,1.1-4.6,3.1-5.1c1.9-0.5,3.7,0.8,5.2,2c1.4,1.2,2.9,2.3,4.3,3.5c0.8,0.6,1.6,1.4,1.7,2.4   c0.1,1.4-1.1,2.4-2.2,3.2c-1.3,1-2.7,1.9-4,2.9c-1,0.7-2,1.6-3.3,1.4c-2.3-0.3-3.6-3.6-4.2-5.5C52.2,712.9,52,711.3,52,709.7z" />
        <path fill="#C6C5C5" d="M103,719.6c4.9,0.2,9.9-0.2,14.6-1.7c1.7-0.5,3.4-1.2,5-2c1.1-0.6,2.2-1.3,2.8-2.4c0.5-1.1,1-2.3,1.5-3.4   c0.6-1.4,0.8-3.1-0.2-4.4c-1-1.3-2.9-1.6-4.5-1.2c-1.6,0.4-3,1.3-4.5,2c-1.6,0.7-3.2,1.2-4.9,1.5c-1.6,0.2-3.1,0.1-4.7,0.3   c-1,0.1-2,0.4-3,0.4c-2.8-0.1-5.7-0.8-8.5-1.2c-4.1-0.6-8.3-1-12.4-0.2c-1.5,0.3-3.1,0.7-4.3,1.8c-1.2,1-2,2.7-1.6,4.2   c0.6,2.3,3.4,3.2,5.7,3.6C90.3,718.1,96.6,719.4,103,719.6z" />
        <path fill="#C6C5C5" d="M137.3,437.1c1.9-1.8,4.2-3.4,6.8-3.3c3.9,0.1,6.9,4.1,7.3,8c0.4,3.9-1.2,7.8-2.7,11.4   c-0.7,1.7-1.6,3.5-3.2,4.2c-1.6,0.7-3.4,0-5.1-0.6c-2.1-0.8-4.1-1.6-6.2-2.4c-1-0.4-2-0.8-3-1.2c-0.7-0.3-2-0.4-1.9-1.3   c0.2-1.7,0.9-3.6,1.6-5.2c0.7-1.7,1.6-3.3,2.6-4.8c0.6-0.8,1.2-1.7,1.8-2.4c0.3-0.4,0.7-0.8,1-1.2   C136.4,437.9,137.3,437.3,137.3,437.1z" />
        <path fill="#C6C5C5" d="M118.5,430.1c0.2,2.3,0.9,4.9,3,6c2.1,1.1,4.7,0.3,6.8-0.9c4.3-2.4,7.9-6.1,10.2-10.4   c1.2-2.4,2.1-5.2,1.2-7.6c-0.9-2.3-3.1-3.7-5.3-4.4c-1.8-0.6-3.7-1.5-5.6-1.4c-2,0.1-3.9,1.6-5.1,3c-1.8,2-3.1,4.5-3.9,7   C118.7,424.2,118.3,427.2,118.5,430.1z" />
        <path fill="#C6C5C5" d="M97.6,430.3c1.2-1.7,2.9-3.4,5-3.2c2.3,0.2,3.7,2.6,4.5,4.8c0.9,2.8,1.5,5.7,1.6,8.6   c0.1,2.4-0.3,5.2-2.3,6.7c-1.6,1.2-3.8,1.2-5.7,1c-1.1-0.1-2.2-0.3-3.3-0.4c-0.6-0.1-1.3-0.2-1.9-0.5c-1.4-0.8-1.3-2.9-1.4-4.2   c-0.1-2.1,0.1-4.2,0.7-6.3C95.3,434.5,96.3,432.3,97.6,430.3z" />
        <path fill="#C6C5C5" d="M79.6,421.3c-0.9,2.1-1.6,4.3-1.2,6.6c0.4,2.2,2.2,4.4,4.5,4.3c1.7,0,3.1-1.1,4.4-2.2   c6.9-5.5,13.7-11,20.6-16.5c1.8-1.4,3.6-2.9,4.7-4.9c1.8-3.1,1.1-7.3-1.1-10c-0.9-1.1-2-2-3.5-1.9c-1.5,0.2-2.9,1.1-4.3,1.6   c-3.4,1.3-6.6,3-9.6,5.2c-3,2.1-5.7,4.6-8,7.4c-2.3,2.8-4.3,5.9-5.9,9.1C79.9,420.5,79.7,420.9,79.6,421.3z" />
        <path fill="#C6C5C5" d="M57.5,435.2c0.1-1.8,0.5-3.6,1.3-5.3c0.8-1.6,2.2-3,4-3.5c2.6-0.8,5.4,0.5,7.2,2.4c1.8,1.9,2.9,4.5,3.9,7   c1.2,2.9,2.3,6.1,1.1,8.9c-0.8,1.9-2.7,3.2-4.5,4c-1.8,0.9-4.1,1.8-6.1,1.9c-3.9,0.2-5.3-3.9-6.1-7   C57.6,440.9,57.4,438.1,57.5,435.2z" />
        <path fill="#C6C5C5" d="M22.4,433c-0.6,2.1-0.4,10.2,0.5,13.7c0.7,2.6,2.1,5.9,4.6,6.1c2.3,0.2,5.4-3,6.4-6.1   c1.8-5.5,1.8-11.6-0.1-17c-0.7-1.9-1.9-3.7-3.9-4.2c-1.7-0.4-3.5,0.5-4.7,1.9C23.3,429.4,23.2,430.2,22.4,433z" />
        <path fill="#C6C5C5" d="M29.9,384.3c-0.3,2.2-0.2,4.8,1.5,6c1.6,1,3.5,0.2,5-0.8c2.7-1.9,5-4.4,6.8-7.3c1.7-2.9,3.7-7,2.4-10.6   c-2.4-6.6-8.7-1.8-11.2,1.7C32.1,376.4,30.5,380.2,29.9,384.3z" />
        <path fill="#C6C5C5" d="M105.9,322.8c-2.2-0.6-5.7-1.5-8-1.2s-4.4,2.3-4.3,4.7c0.1,1.3,0.8,2.6,1.8,3.4c1,0.9,2.2,1.4,3.4,1.9   c2.3,0.9,4.6,1.5,7,2c1.6,0.3,3.3,0.6,4.9,0.2c1.6-0.3,3.2-1.3,3.9-2.9c0.9-2,0.1-4.5-1.8-5.6C111.4,324.5,107.9,323.4,105.9,322.8   z" />
        <path fill="#C6C5C5" d="M91.1,347.4c1.8,0.5,3.9,0.1,5-1.4c1.1-1.5,0.8-3.6,0.2-5.4c-0.4-1.5-1.1-3.1-2.5-3.9   c-1.9-1.1-4.5,0.1-5.7,2c-0.5,0.8-0.9,1.8-1.1,2.8c-0.1,0.5-0.2,1.1-0.3,1.6c0,0.4-0.2,0.8-0.3,1.1c-0.1,0.8,1.2,1.4,1.8,1.8   C89.2,346.6,90.1,347.2,91.1,347.4z" />
        <path fill="#C6C5C5" d="M93.8,351.3c-1.5,0.4-3.2,1.1-3.4,2.7c-0.2,1.2,0.7,2.3,1.6,3.2c1.8,1.7,3.9,3.1,6.1,4.1   c1.8,0.8,3.9,1.4,5.7,0.8c2-0.7,3.4-2.6,3.9-4.6c0.4-1.3,0.5-2.8,0.4-4.2c-0.1-0.9-0.4-1.4-1.2-1.7c-2.5-0.9-5.6-1-8.2-0.9   C97.1,350.7,95.4,350.9,93.8,351.3z" />
        <path fill="#C6C5C5" d="M90.2,374.2c1-0.3,1.9-0.7,2.7-1.4c0.8-0.8,1.4-1.9,1.5-3.2c0.1-1.9-1.1-3.5-2.1-4.9   c-1.3-1.7-2.8-3.5-4.7-3.9c-2.1-0.4-4.2,1.3-5.4,3.5c-0.7,1.3-1.2,2.7-1.6,4.2c-0.3,0.9-0.9,2.6-0.7,3.6c0.3,1.1,2,1.5,2.7,1.8   c1.2,0.4,2.4,0.7,3.6,0.8C87.5,374.7,88.8,374.6,90.2,374.2z" />
        <path fill="#C6C5C5" d="M95.6,383.1c-1.8,2.1-2.2,5.3-0.8,7.7c0.9,1.7,2.8,3,4.7,2.7c1.7-0.2,3-1.6,3.9-3.1c1.2-2.2,1.9-5.4,1-7.8   c-0.8-1.9-3.2-2-4.9-1.6C97.9,381.3,96.5,382,95.6,383.1z" />
        <path fill="#C6C5C5" d="M76.5,392c2.1,1.3,4.6,2,7,1.2s4.1-3.2,3.6-5.6c-0.4-1.7-1.8-3-3.1-4.1c-1.4-1.2-3-2.5-4.9-2.6   c-2.4-0.1-4.2,1.7-5.5,3.5c-1.3,1.7-1.7,3.3-0.1,5C74.3,390.3,75.3,391.2,76.5,392z" />
        <path fill="#C6C5C5" d="M58,381.7c-2-0.5-4.6,0.1-5.5,2c-0.7,1.3-0.5,2.9-0.2,4.3c0.3,2,0.8,4.3,2.6,5.4c2,1.2,4.8,0.2,6.2-1.7   c1.1-1.4,1.6-3.2,1.9-4.9c0.1-0.8,0.5-1.6-0.1-2.2c-0.7-0.6-1.4-1.2-2.2-1.7C59.9,382.4,59,381.9,58,381.7z" />
        <path fill="#C6C5C5" d="M44.3,390.3c1.8,0.1,3.4,1.2,4.6,2.5c1.1,1.3,2,3.1,1.3,4.7c-0.6,1.4-2.3,2.2-3.8,1.9   c-1.5-0.2-2.8-1.3-3.7-2.5c-0.5-0.8-0.9-1.6-1.3-2.4c-0.3-0.6-0.8-1.3-0.8-1.9C40.5,391,43.1,390.2,44.3,390.3z" />
        <path fill="#C6C5C5" d="M73.9,396.8c1.1-0.1,2.3-0.2,3.4,0.2c1.1,0.3,2.1,1.1,2.5,2.2c0.5,1.7-0.7,3.5-1.9,4.9   c-1.6,1.9-3.2,3.8-4.7,5.8c-1.4,1.7-2.9,3.5-5,4c-2.1,0.6-4.4-0.2-6.1-1.6c-1.5-1.2-3.5-3.2-3.9-5.1c-0.4-2.1,1.6-3.7,3-4.9   c1.7-1.4,3.6-2.6,5.6-3.5C69,397.7,71.4,397,73.9,396.8z" />
        <path fill="#C6C5C5" d="M42.2,438.7c0.5,2,1.2,3.9,2.1,5.8c0.6,1.2,1.7,2.5,3,2.4c0.9-0.1,1.7-0.8,2.1-1.6c0.4-0.8,0.4-1.8,0.5-2.7   c0.3-4.6,0.5-9.2,0.8-13.8c0.1-1.3,0.1-2.5-0.2-3.7c-0.5-1.6-1.8-2.9-3.5-2.7c-1.2,0.2-2.7,0.9-3.7,1.7c-2.1,1.7-1.8,5.1-1.8,7.5   C41.5,434,41.7,436.4,42.2,438.7z" />
        <path fill="#C6C5C5" d="M242,28.4" />
        <path fill="#B3B3B3" d="M169.7,169c27.1,11.8,24.5,9.5,50.2,26.8c20.5,13.8,14.2,9.8,34.1,25.2c6.6,5.1,0.7,16.8-5.7,22.2   c-2.8,2.3-5.1,5.5-11.7,4.4c-3.1-0.5-7.9-4.3-9.3-5.6c-5.1-4.5-10.3-8.7-10.3-8.7s-2-1.9-11.8-9.9c-13-10.5-18.5-13.3-22-14.7   c-8.2-3.3-15.6-2.6-20-2.1c-7.1,0.7-12.4,2.9-22.5,7.4c-14.9,6.5-24.4,10.7-28.8,12.6c-1.1-1-4.5,2.4-6-11.6   c-1-9.3,1.4-11.7,2.8-12.4c19.2-10.7,26.9-12.6,26.4-14.6c-0.8-3.5-18.3-0.5-21.8-8.3c-1.3-2.9-0.7-7-0.3-9.5   c0.5-2.7,1.4-4.8,2.6-8.1c1.1-3.1,4.2-7,9.9-9c1.1-0.4,12.9,4.4,16.2,5.3C155.9,162.5,158.2,164,169.7,169z" />
        <path fill="#E2E2E2" d="M252.6,224.8c2.5,1.9,1.1,7.8-3,13.2c-4.2,5.3-9.5,8.1-12,6.2c-2.5-1.9-1.1-7.8,3-13.2   C244.7,225.6,250.1,222.8,252.6,224.8z" />
        <path fill="none" stroke="#999999" stroke-linecap="round" stroke-miterlimit="10" d="M249.4,220.7c-2,0.6-7,2.5-11.1,7.7   c-4.2,5.2-4.9,10.7-5,12.8" />
        <path fill="#C6C5C5" d="M383.4,559.4c0.5,0,3.7,0.2,4-0.1c1.6-1.1,2.2-3.1,1.8-5c-0.4-1.8-1.5-3.4-2.9-4.7c-0.8-0.8-1.8-1.6-3-1.7   s-5.9,4.7-5.8,5.9C377.4,553.8,377.8,559.1,383.4,559.4z" />
        <path fill="#C6C5C5" d="M384.1,563.1c-1.8,1.5-2.1,4.1-1.3,6.2c0.8,2.1,2.6,3.7,4.6,4.9c0.4,0.2,0.8,0.4,1.2,0.4   c0.6,0,1.1-0.5,1.5-0.9c1.3-1.2,2.5-2.4,3.8-3.6c0.8-0.8,1.7-1.6,2.1-2.6c0.4-1,0.3-2.3-0.5-3.1c-1.6-1.4-2.8-1.2-5.9-1.8   C389.6,562.5,385.6,561.8,384.1,563.1z" />

        <ellipse transform="matrix(0.7329 -0.6804 0.6804 0.7329 -293.5186 405.3617)" fill="#C6C5C5" cx="369.5" cy="576.5" rx="3.5" ry="10.5" />
        <path fill="#C6C5C5" d="M204.7,551.2c-0.9,0.7-1.5,1.7-2.1,2.7c-0.3,0.6-0.7,1.3-0.7,2c-0.1,0.9,0.1,1.8,0.3,2.7   c0.5,1.8,1,3.8,2.4,5.1c1.4,1.3,3.3,1.8,5.2,2.2c0.4,0.1,0.8,0.2,1.2,0.1c0.4-0.1,0.8-0.2,1.1-0.4c1.3-0.8,2.5-1.8,3-3.2   c0.3-0.9,0.3-1.9,0.2-2.9c-0.3-2.4-1.1-4.8-2.4-6.9c-0.4-0.7-0.9-1.7-1.8-2c-0.9-0.4-2-0.6-3-0.6   C206.9,550,205.6,550.4,204.7,551.2z" />
        <path fill="#C6C5C5" d="M193.8,572.7c0.4-0.7,1.2-1.2,2-1.5c1.5-0.5,3.3-0.3,4.7,0.5c0.8,0.4,1.4,1.1,2,1.7   c1.5,1.6,2.9,3.3,4.1,5.1c0.3,0.5,0.6,1,0.6,1.5c0,0.6-0.3,1.1-0.6,1.6c-0.5,0.9-3.1,3.5-4,4c-1.7,1.1-6-5.6-6.7-6.2   C193.9,577.6,193.2,573.7,193.8,572.7z" />
        <ellipse transform="matrix(0.866 -0.5 0.5 0.866 -265.5788 187.704)" fill="#C6C5C5" cx="217.5" cy="589.4" rx="9.8" ry="3.2" />
    </g>
    <g id="level11L">
        <ellipse id="level11LGraphic1" fill="#808080" cx="440.7" cy="570" rx="20.5" ry="12.8" />
        <ellipse id="level11LGraphic2" fill="#808080" cx="479.4" cy="473.9" rx="18.2" ry="13.8" />
    </g>
    <g id="level11R">

        <ellipse id="level11RGraphic2" transform="matrix(0.3172 -0.9484 0.9484 0.3172 -310.9799 449.7339)" fill="#808080" cx="156.8" cy="440.8" rx="9.2" ry="16.8" />

        <ellipse id="level11RGraphic1" transform="matrix(0.7906 -0.6123 0.6123 0.7906 -274.2173 223.5763)" fill="#808080" cx="189.8" cy="512.7" rx="21" ry="13.3" />
    </g>
    <g id="level10L">
        <ellipse id="level10LGraphic2" fill="#808080" cx="367.6" cy="493.7" rx="16.5" ry="10.9" />
        <ellipse id="level10LGraphic1" fill="#808080" cx="356" cy="453.6" rx="14.1" ry="10.3" />
    </g>
    <g id="level10R">

        <ellipse id="level10RGraphic" transform="matrix(0.3745 -0.9272 0.9272 0.3745 -245.4892 458.8454)" fill="#808080" cx="217.3" cy="411.4" rx="13.3" ry="20.6" />
    </g>
    <g id="level9">

        <ellipse id="level9Graphic2" transform="matrix(0.9652 -0.2616 0.2616 0.9652 -166.7837 90.9892)" fill="#808080" cx="258.4" cy="672" rx="11.1" ry="17.9" />
        <ellipse id="level9Graphic1" fill="#808080" cx="373.9" cy="690.5" rx="10.8" ry="18.6" />
    </g>
    <g id="level8">
        <ellipse id="level8Graphic2" fill="#808080" cx="308.9" cy="564.4" rx="11.4" ry="17.6" />
        <ellipse id="level8Graphic1" fill="#808080" cx="331.9" cy="767.5" rx="11.4" ry="19" />
    </g>
    <g id="level7">
        <ellipse id="level7Graphic" fill="#808080" cx="278.7" cy="466.9" rx="21.3" ry="15.1" />
    </g>
    <g id="level6">

        <ellipse id="level6Graphic2" transform="matrix(0.7071 -0.7071 0.7071 0.7071 -72.6066 371.2258)" fill="#808080" cx="411.8" cy="273.3" rx="10" ry="15.5" />
        <ellipse id="level6Graphic1" fill="#808080" cx="425.2" cy="311.2" rx="9" ry="16" />
    </g>
    <g id="level5">

        <ellipse id="level5Graphic" transform="matrix(0.9967 -8.128045e-02 8.128045e-02 0.9967 -27.7845 34.9526)" fill="#808080" cx="415.4" cy="358.7" rx="16" ry="9.2" />
    </g>
    <g id="level4L">
        <ellipse id="level4LGraphic2" fill="#808080" cx="302.7" cy="291.2" rx="11" ry="18.4" />

        <ellipse id="level4LGraphic1" transform="matrix(0.866 -0.5 0.5 0.866 -134.3491 199.5928)" fill="#808080" cx="305.3" cy="350.5" rx="8.7" ry="17.6" />
    </g>
    <g id="level4R">
        <ellipse id="level4RGraphic2" fill="#808080" cx="247.4" cy="282.7" rx="9.2" ry="15.5" />
        <ellipse id="level4RGraphic1" fill="#808080" cx="237.1" cy="329.9" rx="10.3" ry="18.2" />
    </g>
    <g id="level3A">
        <ellipse fill="#808080" cx="201.5" cy="190.1" rx="9.8" ry="14.9" />
        <ellipse transform="matrix(0.5 -0.866 0.866 0.5 -90.3369 314.5973)" fill="#808080" cx="227.3" cy="235.5" rx="9.1" ry="12.7" />
    </g>
    <g id="level2L">

        <ellipse id="level2LGraphic3" transform="matrix(0.9478 -0.3188 0.3188 0.9478 -31.7782 105.2812)" fill="#808080" cx="305.7" cy="149.7" rx="11.9" ry="20.9" />

        <ellipse id="level2LGraphic2" transform="matrix(0.9044 -0.4266 0.4266 0.9044 -64.6014 151.6831)" fill="#808080" cx="306.3" cy="220" rx="11.4" ry="20.8" />
        <ellipse id="level2LGraphic1" fill="#808080" cx="389.9" cy="230.7" rx="9.5" ry="17" />
    </g>
    <g id="level2R">

        <ellipse id="level2RGraphic2" transform="matrix(0.2795 -0.9601 0.9601 0.2795 -3.018 387.6249)" fill="#808080" cx="256.8" cy="195.8" rx="10.6" ry="16.5" />

        <ellipse id="level2RGraphic1" transform="matrix(0.8393 -0.5437 0.5437 0.8393 -39.9917 161.8869)" fill="#808080" cx="253.8" cy="148.6" rx="9.8" ry="16.3" />
    </g>
    <g id="level1">
        <ellipse id="level1Graphic1" fill="#808080" cx="297.3" cy="53" rx="20.6" ry="12.5" />
        <ellipse id="level1Graphic2" fill="#808080" cx="262.1" cy="89" rx="12.3" ry="17.8" />
    </g>
    <g>
        <path fill="none" stroke="#898787" stroke-width="7" stroke-linecap="round" stroke-miterlimit="10" d="M278.5,413   c-17.1,30.6-34.2,61.2-51.3,91.8c-24.4,42.7-48.9,85.3-73.3,128c-7.1,12.4-14.2,24.9-21.4,37.3" />
        <path fill="none" stroke="#898787" stroke-width="7" stroke-linecap="round" stroke-miterlimit="10" d="M276.7,116.8   c0.2,76.7,0.5,83.7,0.7,160.3c0.1,42.4,1.1,96.5,1.3,138.9" />

        <line fill="none" stroke="#898787" stroke-width="7" stroke-linecap="round" stroke-miterlimit="10" x1="280.7" y1="397.8" x2="360.3" y2="397.8" />
        <path fill="none" stroke="#898787" stroke-width="7" stroke-linecap="round" stroke-miterlimit="10" d="M478,397.5l-89.1,140.1   c-58.9-0.1-117.7-0.2-176.6-0.2" />

        <line fill="none" stroke="#898787" stroke-width="7" stroke-linecap="round" stroke-miterlimit="10" x1="207.4" y1="356.6" x2="275.5" y2="356.6" />

        <line fill="none" stroke="#898787" stroke-width="7" stroke-linecap="round" stroke-miterlimit="10" x1="156.8" y1="404.3" x2="247.6" y2="463.9" />

        <line fill="none" stroke="#898787" stroke-width="7" stroke-linecap="round" stroke-miterlimit="10" x1="433.7" y1="397.3" x2="561.3" y2="397.5" />
        <path fill="none" stroke="#898787" stroke-width="4" stroke-miterlimit="10" d="M0.9,833.9c46.4-22.1,95.1-41.3,146.3-45.8   s110.9,2,144.3,41.1c9.8,11.5,18.1,17.6,30,20.6c19.5,4.9,37.9-9.3,54.5-20.6c42.5-28.9,73.3-40.2,124.6-37.8   c51.3,2.4,101.7,22,141.3,54.8" />
        <path fill="none" stroke="#898787" stroke-width="7" stroke-linecap="round" stroke-miterlimit="10" d="M278.7,411.4   c17.1,30.6,63.9,112.6,71,125.1" />
        <path fill="none" stroke="#898787" stroke-width="7" stroke-linecap="round" stroke-miterlimit="10" d="M182.1,114.1   c63.6-0.1,127.2-0.2,190.8-0.3" />

        <line fill="none" stroke="#898787" stroke-width="7" stroke-linecap="round" stroke-miterlimit="10" x1="115.2" y1="253.1" x2="475.3" y2="254" />
    </g>
</svg>