<svg xmlns="http://www.w3.org/2000/svg" viewBox="0 0 474.18 439.24">
    <metadata xmlns:med="http://www.medreporter.org/reference/image">
        <med:MedReporter lngs="de,en">
            <med:Title>
                <med:Trans lng="de">Pulmonalarterien</med:Trans>
                <med:Trans lng="en">Pulmonalarteries</med:Trans>
            </med:Title>
            <med:Option id="LLLBasalAnterior">
                <med:Trans lng="de">A. segmentalis basalis anterior links (VIII)</med:Trans>
                <med:Trans lng="en">Left anterior basal segmental artery (8)</med:Trans>
            </med:Option>
            <med:Option id="LLLBasalLateral">
                <med:Trans lng="de">A. segmentalis basalis lateralis links (IX)</med:Trans>
                <med:Trans lng="en">Left lateral basal segmental artery (9)</med:Trans>
            </med:Option>
            <med:Option id="LLLBasalAnteriorLateral">
                <med:Trans lng="de">(VIII/IX)</med:Trans>
                <med:Trans lng="en">(8/9)</med:Trans>
            </med:Option>
            <med:Option id="LLLBasalPosterior">
                <med:Trans lng="de">A. segmentalis basalis posterior links (X)</med:Trans>
                <med:Trans lng="en">Left posterior basal segmental artery (10)</med:Trans>
            </med:Option>
            <med:Option id="LLLBasalMedial">
                <med:Trans lng="de">A. segmentalis basalis medialis links (VII)</med:Trans>
                <med:Trans lng="en">Left medial basal segmental artery (7)</med:Trans>
            </med:Option>
            <med:Option id="LLLBasalPosteriorMedial">
                <med:Trans lng="de">(VII/X)</med:Trans>
                <med:Trans lng="en">(7/10)</med:Trans>
            </med:Option>
            <med:Option id="LLLSuperior">
                <med:Trans lng="de">A. segmentalis superior links (VI)</med:Trans>
                <med:Trans lng="en">Left superior segmental artery (6)</med:Trans>
            </med:Option>
            <med:Option id="LLL">
                <med:Trans lng="de">Unterlappenarterie links</med:Trans>
                <med:Trans lng="en">Left lower lobe artery</med:Trans>
            </med:Option>
            <med:Option id="Lingula">
                <med:Trans lng="de">A. lingularis (IV/V)</med:Trans>
                <med:Trans lng="en">Lingular artery (4/5)</med:Trans>
            </med:Option>
            <med:Option id="LULAnterior">
                <med:Trans lng="de">A. segmentalis anterior links (III)</med:Trans>
                <med:Trans lng="en">Left anterior segmental artery (3)</med:Trans>
            </med:Option>
            <med:Option id="LULPosterior">
                <med:Trans lng="de">A. segmentalis posterior links (I/II)</med:Trans>
                <med:Trans lng="en">Left posterior segmental artery (1/2)</med:Trans>
            </med:Option>
            <med:Option id="LULApicoposteriorTrunk">
                <med:Trans lng="de">Apicoposteriorer Truncus (I/II)</med:Trans>
                <med:Trans lng="en">Apicoposterior trunk (1/2)</med:Trans>
            </med:Option>
            <med:Option id="LULApical">
                <med:Trans lng="de">A. segmentalis apicalis (I/II)</med:Trans>
                <med:Trans lng="en">Left apical segmental artery (1/2)</med:Trans>
            </med:Option>
            <med:Option id="LeftUpperLobe">
                <med:Trans lng="de">Oberlappenarterie</med:Trans>
                <med:Trans lng="en">Left upper lobe artery</med:Trans>
            </med:Option>
            <med:Option id="LeftMain">
                <med:Trans lng="de">Hauptstamm links</med:Trans>
                <med:Trans lng="en">Left pulmonary artery</med:Trans>
            </med:Option>
            <med:Option id="RLLSuperior">
                <med:Trans lng="de">A. segmentalis superior rechts (VI)</med:Trans>
                <med:Trans lng="en">Right superior segmental artery (6)</med:Trans>
            </med:Option>
            <med:Option id="RLLBasalLateral">
                <med:Trans lng="de">A. segmentalis basalis lateralis rechts (IX)</med:Trans>
                <med:Trans lng="en">Right basal lateral segmental artery (9)</med:Trans>
            </med:Option>
            <med:Option id="RLLBasalPosterior">
                <med:Trans lng="de">A. segmentalis basalis posterior rechts (X)</med:Trans>
                <med:Trans lng="en">Right basal posterior segmental artery (10)</med:Trans>
            </med:Option>
            <med:Option id="RLLBasalLateralPosterior">
                <med:Trans lng="de">(IX/X)</med:Trans>
                <med:Trans lng="en">(9/10)</med:Trans>
            </med:Option>
            <med:Option id="RLLBasalMedial">
                <med:Trans lng="de">A. segmentalis basalis medialis (VII)</med:Trans>
                <med:Trans lng="en">Right basal medial segmental artery (7)</med:Trans>
            </med:Option>
            <med:Option id="RLLBasalAnterior">
                <med:Trans lng="de">A. segmentalis basalis anterior (VIII)</med:Trans>
                <med:Trans lng="en">Right basal anterior segmental artery (8)</med:Trans>
            </med:Option>
            <med:Option id="RLL">
                <med:Trans lng="de">Unterlappenarterie rechts</med:Trans>
                <med:Trans lng="en">Right lower lobe artery</med:Trans>
            </med:Option>
            <med:Option id="RMLMedial">
                <med:Trans lng="de">A. segmentalis medialis (V)</med:Trans>
                <med:Trans lng="en">Right medial segmental artery (5)</med:Trans>
            </med:Option>
            <med:Option id="RMLLateral">
                <med:Trans lng="de">A. segmentalis lateralis (IV)</med:Trans>
                <med:Trans lng="en">Right lateral segmental artery (4)</med:Trans>
            </med:Option>
            <med:Option id="RML">
                <med:Trans lng="de">Mittellappenarterie</med:Trans>
                <med:Trans lng="en">Middle lobe artery</med:Trans>
            </med:Option>
            <med:Option id="RULPosterior">
                <med:Trans lng="de">A. segmentalis posterior rechts (II)</med:Trans>
                <med:Trans lng="en">Right posterior segmental artery (2)</med:Trans>
            </med:Option>
            <med:Option id="RULApical">
                <med:Trans lng="de">A. segmentalis apicalis rechts (I)</med:Trans>
                <med:Trans lng="en">Right apical segmental artery (1)</med:Trans>
            </med:Option>
            <med:Option id="RULAnterior">
                <med:Trans lng="de">A. segmentalis anterior rechts (III)</med:Trans>
                <med:Trans lng="en">Right anterior segmental artery (3)</med:Trans>
            </med:Option>
            <med:Option id="RUL">
                <med:Trans lng="de">Oberlappenarterie rechts</med:Trans>
                <med:Trans lng="en">Right upper lobe artery</med:Trans>
            </med:Option>
            <med:Option id="RightMain">
                <med:Trans lng="de">Hauptstamm rechts</med:Trans>
                <med:Trans lng="en">Right pulmonary artery</med:Trans>
            </med:Option>
            <med:Option id="PulmonaryTrunk">
                <med:Trans lng="de">Truncus pulmonalis</med:Trans>
                <med:Trans lng="en">Pulmonary trunk</med:Trans>
            </med:Option>
        </med:MedReporter>
    </metadata>
    <g>
        <path id="LLLBasalAnterior" d="M376.7,353.06c4.9,4.8,9.87,9.62,14.93,14.46,8.22,7.85,16.39,15.5,24.51,22.94,1.19-.6,4.38-2.39,6.52-6.26,2.14-3.88,1.96-7.54,1.83-8.87-12.31-9.67-25.58-21.91-38.33-37.29-3.84-4.63-7.36-9.22-10.59-13.72-3.89,5.33-7.77,10.66-11.66,16,4.27,4.24,8.53,8.49,12.8,12.73Z" fill="#d6d6d6" />
        <path id="LLLBasalLateral" d="M354.09,330.57c.8,1.96,1.58,4.12,2.34,6.57,4.57,14.65,4.51,26.1,4.43,43.41-.06,13.04-1.22,31.35-6.19,53,1.58,3.25,4.74,5.42,8.28,5.66,3.92,.27,7.68-1.87,9.54-5.43,2.47-10.32,4.63-22.61,5.58-36.55,1.17-17.03,.22-32.01-1.37-44.18l-22.61-22.49Z" fill="#d6d6d6" />
        <path id="LLLBasalAnteriorLateral" d="M375.57,324.34c-7.74-10.73-15.07-23.25-19.66-39.73-5.02-18.04-4.77-33.68-3.89-43.53l-20.09,25.67c1.21,7.85,3.59,19.98,8.6,34.16,5.74,16.22,8.48,23.33,13.56,29.67,3.6,4.49,7.21,7.69,9.81,9.76l11.66-16Z" fill="#c2c2c2" />
        <path id="LLLBasalPosterior" d="M319.67,349.79c.58,7.87,2.05,17.63,5.48,28.42,2.19,6.89,4.76,12.9,7.3,17.99,.99,.21,4.75,.86,8.6-1.3,4.65-2.61,5.82-7.31,6-8.08-3.33-7.53-7.5-18.35-10.69-31.81-2.09-8.85-3.26-16.71-3.98-24.43l-12.71,19.22Z" fill="#d6d6d6" />
        <path id="LLLBasalMedial" d="M307.89,331.25c-1.82,9.01-3.91,16.7-4.85,20.11-1.86,6.72-3.6,12.94-6.83,21.11-3.78,9.54-7.82,17.27-11.13,22.96,.16,3.51,2.25,6.64,5.39,8.07,3.45,1.57,7.6,.81,10.37-1.92,3.47-6.66,6.99-14.29,10.23-22.85,3.97-10.51,6.7-20.3,8.6-28.94l-11.78-18.54Z" fill="#d6d6d6" />
        <path id="LLLBasalPosteriorMedial" d="M332.38,330.57c-.58-6.92-1-14.12-1.24-21.59-.48-15.05-.12-29.18,.78-42.24l-16.28-30.23c-.32,5.03-.68,9.08-.93,11.72-.93,9.74-2.36,20.94-2.62,28.31-.3,8.25-.08,8.66-.45,18.51-.19,5.14-.42,11.23-.84,16.41-.4,4.86-1.19,11.59-2.92,19.79,3.93,6.18,7.85,12.36,11.78,18.54,4.24-6.41,8.47-12.81,12.71-19.22Z" fill="#c2c2c2" />
        <path id="LLLSuperior" d="M316.49,207.21c-.61,2.87-1.97,5.69-5.17,11.06-5.69,9.54-8.19,13.35-10.17,16.67-2.61,4.4-5.89,10.93-8.34,19.82,.19,.58,1.5,4.33,5.48,6,4.77,2,9.04-.8,9.35-1.01,.46-2.47,1.06-5.1,1.86-7.85,1.73-6.01,3.95-11.14,6.15-15.37l.84-29.31Z" fill="#d6d6d6" />
        <path id="LLL" d="M357.52,213.82c-1.91-4.63-3.83-10.31-5.2-16.93-1.01-4.87-1.55-9.36-1.8-13.33l-3.96-.63c-3.45,.27-7.69,.21-12.4-.72-1.35-.27-5.29-1.11-10.07-3.24-3.2-1.43-5.79-2.99-7.73-4.31l-2.52,18c3.72,7.08,3.14,12.23,2.65,14.54-.28,9.77-.56,19.54-.84,29.31l16.28,30.23c6.7-8.56,13.4-17.11,20.09-25.67,1.83-9.08,3.67-18.17,5.5-27.25Z" fill="#adadad" />
        <path id="Lingula" d="M352.02,241.07c2.24,4.34,6.07,10.81,12.24,17.46,7,7.55,10.43,8.22,17.47,15.9,6.82,7.45,10.52,14.38,13.56,20.08,3.3,6.19,7.27,14.96,10.17,26.07,.67,.27,5.68,2.22,10.43-.52,2.65-1.53,3.95-3.79,4.48-4.85-2.32-6.75-5.1-13.95-8.43-21.49-3.04-6.86-6.18-13.2-9.3-18.99,3.94,1.5,10.58,3.48,18.99,3.32,8.08-.15,14.44-2.2,18.28-3.77,.69-.98,1.93-3.04,2.06-5.85,.26-5.6-4.1-9.21-4.63-9.63-4.47,1.49-11.55,3.27-20.23,2.91-18.45-.77-31.07-10.66-36.67-15.18-13.87-11.19-19.56-24.63-22.9-32.72l-5.5,27.25Z" fill="#d6d6d6" />
        <path id="LULAnterior" d="M346.43,152.3c5.94,.08,14.36,.09,24.47-.28,13.03-.47,19.55-.71,25.81-2.09,7.12-1.57,17.93-5.21,29.93-14.81,.89,0,6.18,.11,9.96,4.38,2.42,2.73,2.97,5.77,3.13,7.04-3.87,3.98-9.97,9.34-18.57,13.85-8.21,4.31-15.75,6.28-21.08,7.25,9.64,1.66,21.72,2.9,35.61,2.44,12.96-.43,24.22-2.24,33.32-4.32,1.13,1.18,4.78,5.28,5.14,11.55,.22,3.78-.85,6.75-1.56,8.34-15.91,4.5-29.12,5.63-38.31,5.8-20.11,.38-30.49-5.59-57.77-7.48-11.17-.77-20.29-.63-26-.41l-4.08-31.26Z" fill="#d6d6d6" />
        <path id="LULPosterior" d="M395.64,83.24c3.55-2.69,7.73-5.53,12.55-8.27,5.83-3.31,11.33-5.76,16.17-7.59,.67,.39,4.06,2.46,5.21,6.81,1.03,3.88-.4,7.02-.79,7.82-6.33,3.24-15.14,8.16-25.02,15.12-12.41,8.75-21.27,17.02-29.6,25.21l21.49-39.11Z" fill="#d6d6d6" />
        <path id="LULApicoposteriorTrunk" d="M363.08,99.48c-7.11,9.02-18.38,21.74-35.03,35.16l18.38,17.66c9.23-11.15,17.66-20,24.21-26.48,1.17-1.15,2.33-2.31,3.51-3.47l-11.07-22.87Z" fill="#c2c2c2" />
        <path id="LULApical" d="M395.64,83.24c2.48-4.06,5.49-10.22,6.81-18.18,.55-3.33,.71-6.39,.67-9.05-.46-.6-3.57-4.44-9.01-4.77-5.84-.36-9.54,3.62-9.99,4.13-.84,4.64-2.38,11.17-5.4,18.56-2.74,6.7-6.77,14.29-15.64,25.55l11.07,22.87c7.16-13.04,14.33-26.07,21.49-39.11Z" fill="#d6d6d6" />
        <path id="LeftUpperLobe" d="M315.21,154.42c-.28-4.94-.56-9.88-.84-14.82,2.78,0,4.99-.47,6.47-.9,1.14-.33,2.61-.76,4.31-1.8,1.29-.79,2.25-1.63,2.89-2.27,6.13,5.89,12.26,11.77,18.38,17.66,1.36,10.42,2.72,20.84,4.08,31.26-1.32-.21-2.64-.42-3.96-.63-3.45,.27-7.69,.21-12.4-.72-1.35-.27-5.29-1.11-10.07-3.24-3.2-1.43-5.79-2.99-7.73-4.31-.38-6.75-.76-13.49-1.14-20.24Z" fill="#adadad" />
        <path id="LeftMain" d="M259.28,129.88c2.46-1.1,6.08-2.55,10.61-3.76,3.78-1.01,19.24-4.8,38.31,.21,4.98,1.31,12.04,3.69,19.86,8.3-.64,.64-1.59,1.49-2.89,2.27-1.7,1.04-3.17,1.47-4.31,1.8-1.48,.43-3.69,.9-6.47,.9,.66,11.69,1.32,23.37,1.98,35.06l-2.52,18c-3.15-3.36-8.4-4.61-12.62-3.73-4.87,1.02-8.45,5.02-11.28,10.27l-30.66-69.32Z" fill="#999" />
        <path id="RLLSuperior" d="M137.15,191.52c1.78,3.25,4.29,7.08,7.82,10.95,6.55,7.18,13.64,11.22,18.44,13.43,.27,.67,1.71,4.5-.19,8.73-1.93,4.31-5.85,5.76-6.52,6-5.3-2.21-13.02-6.19-20.6-13.3-5.46-5.12-9.2-10.32-11.7-14.43,.55-1.54,1.95-4.82,5.27-7.63,2.91-2.46,5.9-3.38,7.47-3.75Z" fill="#d6d6d6" />
        <path id="RLLBasalLateral" d="M115.51,361.52c-.82,9.02-2.73,20.35-7.04,32.85-2.84,8.23-6.16,15.32-9.37,21.22-2.46,2.29-6.02,2.96-9.14,1.72-3.09-1.23-5.21-4.13-5.44-7.45,3.32-7.82,5.79-14.48,7.53-19.4,6.55-18.59,7.77-26.96,8.15-30.05,.6-4.83,.74-8.85,.76-11.55l14.21,5.06,.35,7.6Z" fill="#d6d6d6" />
        <path id="RLLBasalPosterior" d="M128.49,344.08c2.69,9.68,5.15,21.14,6.58,34.13,1.85,16.79,1.48,31.63,.35,43.69-.89,3.7-3.87,6.45-7.39,6.89-4.21,.53-8.45-2.37-9.61-6.89,1.28-9.58,2.02-21.4,1.01-34.83-.72-9.62-2.2-18.2-3.91-25.55l-.35-7.6c4.44-3.28,8.88-6.56,13.33-9.84Z" fill="#d6d6d6" />
        <path id="RLLBasalLateralPosterior" d="M100.96,348.86c-.04-1.47-.14-2.98-.31-4.55-1.06-9.77-4.56-17.78-8.08-23.73l15.85-19.68c7.61,11.78,14.27,25.08,19.09,40.02,.34,1.06,.67,2.11,.99,3.16-4.44,3.28-8.88,6.56-13.33,9.84l-14.21-5.06Z" fill="#c2c2c2" />
        <path id="RLLBasalMedial" d="M114.72,280.51c2.77,4.57,7.34,10.94,15.13,20,16.71,19.44,22.27,26.51,27.12,38.07,1.76,4.19,.4,8.99-3.13,11.47-3.11,2.19-7.39,2.21-10.69,0-5.12-9.11-11.29-18.95-18.74-29.15-5.38-7.37-10.77-14.03-16-20l6.31-20.39Z" fill="#d6d6d6" />
        <path id="RLLBasalAnterior" d="M91.1,314.28c-.05-2.54-.21-5.31-.54-8.27-.32-2.86-.76-5.5-1.26-7.91l-16.44-4.02c.15,1.53,.33,3.36,.5,5.44,0,0,.25,3.07,.44,6.2,.39,6.51,.76,12.72,.53,20.58-.18,5.99-.55,16.64-3.66,30-1.77,7.63-3.97,14.13-6,19.29,.29,.65,2.29,4.99,7.3,6.52,5.51,1.68,9.95-1.47,10.42-1.82,1.96-7.72,3.79-15.94,5.39-24.64,2.29-12.44,3.81-24.19,4.78-35.07l-1.47-6.3Z" fill="#d6d6d6" />
        <path id="RLL" d="M89.3,298.1c.5,2.41,.94,5.05,1.26,7.91,.33,2.96,.49,5.73,.54,8.27l1.47,6.3,15.85-19.68c2.1-6.8,4.2-13.59,6.31-20.39-1.07-1.65-2.53-4.16-3.73-7.49,0,0-.31-.85-.58-1.74-2.89-9.35-2.62-17.35-2.45-22.39,.52-15.63,5.56-27.49,8.66-33.6,2.72-5.35,5.59-9.5,7.8-12.38,.55-1.54,1.95-4.82,5.27-7.63,2.91-2.46,5.9-3.38,7.47-3.75-4.98-12.6-9.96-25.21-14.94-37.81-1.42-.95-2.97-1.92-4.67-2.88-2.02-1.13-3.95-2.08-5.75-2.88l-3.67-.33c-5.15,3.59-11.98,9.09-18.67,17.04-6.49,7.71-10.13,14.49-11,16.14-8.05,15.33-9.43,30.64-9.3,40.76,.81-.68,1.93-1.68,3.21-2.95,1.4-1.4,3.86-4.03,7.98-10.26,1.89-2.85,4.19-6.56,6.61-11.06,3.61,5.54,7.22,11.08,10.83,16.62-3.95,7.6-7.75,13.05-10.56,16.69-1.67,2.16-15.43,21.46-16.14,22.58-.39,14.93,.36,26.63,1.17,34.81,.19,1.86,.4,3.83,.63,6.09l16.44,4.02Z" fill="#adadad" />
        <path id="RMLMedial" d="M58.78,244.32c1.6-1.25,3.41-2.87,5.22-4.96,1.26-1.46,2.29-2.88,3.13-4.17,1.31,6,2.62,12,3.93,18-4.47,5.02-10.87,11.21-19.56,16.95-7.08,4.68-13.78,7.8-19.29,9.91-.85-.5-3.85-2.38-5.21-6.26-1.69-4.81,.45-8.92,.81-9.59,2.97-1.05,6.29-2.45,9.78-4.37,6.99-3.84,12.15-8.36,15.73-12.08l5.48-3.43Z" fill="#d6d6d6" />
        <path id="RMLLateral" d="M69.14,221.57c-3.5,2.73-10.27,7.28-19.98,9.45-8.9,1.99-16.35,1.09-20.6,.26-.75,.95-3.29,4.4-3.13,9.39,.13,3.86,1.81,6.59,2.58,7.69,3.22,.28,6.7,.44,10.41,.42,5.47-.03,10.46-.44,14.89-1.03l5.48-3.43c1.6-1.25,3.41-2.87,5.22-4.96,1.26-1.46,2.29-2.88,3.13-4.17l2.01-13.62Z" fill="#d6d6d6" />
        <path id="RML" d="M71.06,253.19l3.11-4.75c4.28-5.44,8.66-11.38,13.03-17.83,3.89-5.73,7.4-11.32,10.56-16.69-3.61-5.54-7.22-11.08-10.83-16.62-2.42,4.5-4.72,8.2-6.61,11.06-4.12,6.23-6.58,8.86-7.98,10.26-1.27,1.27-2.4,2.27-3.21,2.95-.67,4.54-1.34,9.08-2.01,13.62,1.31,6,2.62,12,3.93,18Z" fill="#adadad" />
        <path id="RULPosterior" d="M90.54,113.42c-4.2-15.46-8.85-28.06-12.7-37.4-5.81-14.1-9.56-20.23-16.17-24.77-5.93-4.07-12.05-5.46-16.17-6-.48-.69-3.32-4.92-2.09-10.43,1.05-4.7,4.37-7.22,5.21-7.82,2.99,.17,8.48,.88,14.34,4.17,7.14,4.01,10.89,9.63,12.43,12.29-2.8-6.37-5.65-14.45-7.48-24.02-1.05-5.48-1.59-10.57-1.83-15.12,.96-.92,3.92-3.53,8.6-4.17,4.85-.67,8.5,1.18,9.65,1.83,.48,6.53,1.31,13.51,2.61,20.86,3.38,19.12,9.02,35.37,14.79,48.4,.56,2.52,1.11,5.03,1.67,7.55,.06,3.6,.42,7.94,1.44,12.76,1.25,5.91,3.11,10.82,4.85,14.56l-19.18,7.31Z" fill="#d6d6d6" />
        <path id="RULApical" d="M130.62,103.07c-2.46-3.66-9.34-15.16-5.85-27.97,2.29-8.38,7.97-13.47,10.17-15.38,9.64-8.4,20.88-8.86,24.25-8.86,.69-.87,2.34-3.15,2.61-6.52,.34-4.27-1.76-7.31-2.34-8.11-4.63,.22-10.69,.97-17.47,3.15-5.02,1.61-9.21,3.61-12.52,5.48,1.09-2.99,3.49-8.33,8.6-13.3,4.37-4.25,8.9-6.45,11.73-7.56,.08-.5,.8-5.42-2.87-9.13-3.27-3.31-7.51-3.11-8.15-3.07-5.68,3.11-17.99,10.83-27.05,26.01-8.26,13.84-9.7,26.97-9.98,33.41,.56,2.52,1.11,5.03,1.67,7.55,.06,3.6,.42,7.94,1.44,12.76,1.25,5.91,3.11,10.82,4.85,14.56l20.91-3.03Z" fill="#d6d6d6" />
        <path id="RULAnterior" d="M90.54,113.42c-15.45-3.34-27.55-3.11-35.81-2.26-8.3,.86-16.58,2.75-28,.45-6.42-1.29-11.46-3.43-14.7-5.02-1.13,.28-6.26,1.7-9.55,6.85C-.52,118.12-.04,122.85,.14,124.12c2.78,1.85,6.54,3.93,11.26,5.46,9.21,2.98,17.28,2.33,21.85,1.58-3.39,2.2-8.47,6.1-13,12.36-3.91,5.42-5.97,10.62-7.08,14.24,1.57,4.3,5.26,7.27,9.39,7.56,3.82,.27,6.6-1.86,7.34-2.47,1.52-4.77,5.61-15.08,15.86-21.7,11.98-7.74,25.03-5.71,34.41-4.25,4.52,.7,8.67,1.8,12.43,3.12l-2.07-26.61Z" fill="#d6d6d6" />
        <path id="RUL" d="M92.61,140.02c6.27,2.2,11.47,5.01,15.5,7.61l3.67,.33c1.8,.8,3.74,1.75,5.75,2.88,1.7,.95,3.26,1.92,4.67,2.88,13.57-10.53,27.14-21.07,40.71-31.6-2.31-.33-4.12-.75-5.2-1.02-4.02-1.01-17.87-5.04-26.48-17.11-.29-.41-.52-.74-.63-.91-6.97,1.01-13.94,2.02-20.91,3.03-6.39,2.44-12.78,4.87-19.18,7.31l2.07,26.61Z" fill="#adadad" />
        <path id="RightMain" d="M162.92,122.11c3.84,.51,7.67,.48,13.21,.42,14.09-.16,16.04-2.35,29.11-3.36,10.95-.85,28.82-2.01,45.77,7.32,2.31,1.27,4.1,2.46,5.21,3.24l-40.18,61.71c-7.71-16.32-40.95-14-42.78-13.86-17.56,1.41-30.21,9.55-36.11,13.95-4.98-12.6-9.96-25.21-14.94-37.81l40.71-31.6Z" fill="#999" />
        <path id="PulmonaryTrunk" d="M259.28,129.88c-1.02-.05-2.04-.11-3.06-.16l-40.18,61.71c.89,1.89,1.87,4.93-4.04,29.12-4.53,18.52-6.85,23.88-9.17,35.6-2.2,11.14-3.01,20.97-3.24,28.85,2.75,3.54,7.85,9.17,15.91,13.48,9.57,5.13,18.2,5.67,23.19,5.93,14.44,.75,25.9-3.71,32.21-6.81,2.97-16.94,4.74-30.9,5.82-40.64,1.8-16.29,2.14-25.18,6.2-38.83,1.89-6.34,4.02-13.34,7.02-18.92l-30.66-69.32Z" fill="gray" />
    </g>
    <g>
        <path d="M72.34,218.62c2.56-2.9,5.28-6.31,7.98-10.26,2.67-3.91,4.84-7.65,6.61-11.06" fill="none" stroke="#9d9d9c" stroke-linecap="round" stroke-miterlimit="10" />
        <path d="M74.16,248.44c4.28-5.44,8.66-11.38,13.03-17.83,3.89-5.73,7.4-11.32,10.56-16.69" fill="none" stroke="#9d9d9c" stroke-linecap="round" stroke-miterlimit="10" />
        <path d="M103.42,78.78c.06,3.6,.42,7.94,1.44,12.76,1.25,5.91,3.11,10.82,4.85,14.56" fill="none" stroke="#b2b2b2" stroke-linecap="round" stroke-miterlimit="10" />
        <path d="M111.78,147.96c1.8,.8,3.74,1.75,5.75,2.88,1.7,.95,3.26,1.92,4.67,2.88" fill="none" stroke="#9d9d9c" stroke-linecap="round" stroke-miterlimit="10" />
        <path d="M325.16,136.91c-1.13,.62-2.58,1.28-4.31,1.8-2.56,.76-4.82,.92-6.47,.9" fill="none" stroke="#9d9d9c" stroke-linecap="round" stroke-miterlimit="10" />
        <path d="M316.36,174.67c1.94,1.33,4.53,2.89,7.73,4.31,4.78,2.13,8.72,2.97,10.07,3.24,4.71,.93,8.96,.99,12.4,.72" fill="none" stroke="#9d9d9c" stroke-linecap="round" stroke-miterlimit="10" />
        <path d="M368.13,340.51c.52,.99,1.16,2.09,1.98,3.24,1.04,1.46,2.1,2.65,3.06,3.6" fill="none" stroke="#b2b2b2" stroke-linecap="round" stroke-miterlimit="10" />
        <path d="M91.1,314.28c-.05-2.54-.21-5.31-.54-8.27-.32-2.86-.76-5.5-1.26-7.91" fill="none" stroke="#9d9d9c" stroke-linecap="round" stroke-miterlimit="10" />
        <path d="M4.8,122.9c.6-.14,4.29-1.09,6.29-4.78,1.65-3.04,1.07-5.97,.9-6.73" fill="none" stroke="#b2b2b2" stroke-linecap="round" stroke-miterlimit="10" />
        <path d="M16.76,157.05c.64-.35,2.79-1.4,5.57-.9,3.26,.59,5.02,2.91,5.39,3.42" fill="none" stroke="#b2b2b2" stroke-linecap="round" stroke-miterlimit="10" />
        <path d="M29.68,266.72c.68,.65,1.94,2,2.7,4.13,.75,2.1,.65,3.92,.54,4.85" fill="none" stroke="#b2b2b2" stroke-linecap="round" stroke-miterlimit="10" />
        <path d="M68.89,374.76c.49-.28,2.81-1.52,5.75-.8,3.1,.76,4.58,3.14,4.85,3.6" fill="none" stroke="#b2b2b2" stroke-linecap="round" stroke-miterlimit="10" />
        <path d="M415.95,385.99c-.11-.71-.45-3.45,1.26-6.11,1.28-1.99,3.02-2.9,3.78-3.24" fill="none" stroke="#b2b2b2" stroke-linecap="round" stroke-miterlimit="10" />
        <path d="M407.32,318.14c.27-.53,1.41-2.59,3.96-3.6,2.8-1.11,5.26-.13,5.75,.08" fill="none" stroke="#b2b2b2" stroke-linecap="round" stroke-miterlimit="10" />
        <path d="M467.82,169.27c-.52,1.01-1.44,3.15-1.26,5.93,.29,4.52,3.27,7.3,3.96,7.91" fill="none" stroke="#b2b2b2" stroke-linecap="round" stroke-miterlimit="10" />
        <path d="M427.37,137.81c.53,1.14,1.55,2.97,3.42,4.67,2.2,2.01,4.49,2.86,5.75,3.24" fill="none" stroke="#b2b2b2" stroke-linecap="round" stroke-miterlimit="10" />
        <path d="M58.78,244.32c1.6-1.25,3.41-2.87,5.22-4.96,1.26-1.46,2.29-2.88,3.13-4.17" fill="none" stroke="#b2b2b2" stroke-linecap="round" stroke-miterlimit="10" />
        <path d="M125.34,199.21c.56-.91,1.3-1.97,2.29-3.06,.96-1.06,1.91-1.89,2.74-2.52" fill="none" stroke="#9d9d9c" stroke-linecap="round" stroke-miterlimit="10" />
        <path d="M317.52,227.95c.18-2.09,.3-4.34,.31-6.73,0-1.66-.03-3.25-.11-4.76" fill="none" stroke="#9d9d9c" stroke-linecap="round" stroke-miterlimit="10" />
        <path d="M398.87,271.25c-.62-1.57-1.49-3.37-2.7-5.26-.72-1.12-1.45-2.11-2.16-2.97" fill="none" stroke="#b2b2b2" stroke-linecap="round" stroke-miterlimit="10" />
        <path d="M390.18,90.92c-1.38,3.52-3.02,7.28-4.98,11.21-2.41,4.84-4.93,9.15-7.37,12.94" fill="none" stroke="#b2b2b2" stroke-linecap="round" stroke-miterlimit="10" />
    </g>
</svg>