<svg version="1.1" xmlns="http://www.w3.org/2000/svg" xmlns:xlink="http://www.w3.org/1999/xlink" x="0px" y="0px" viewBox="0 0 135.5 809.2" enable-background="new 0 0 135.5 809.2" xml:space="preserve">
    <metadata xmlns:med="http://www.medreporter.org/reference/figure">
        <med:Figure lngs="de,en">
            <med:Title>
                <med:Trans lng="de">Wirbelsäule</med:Trans>
                <med:Trans lng="en">Spine</med:Trans>
            </med:Title>
            <med:Option id="C">
                <med:Trans lng="de">Os coccygis</med:Trans>
                <med:Trans lng="en">Coccyx</med:Trans>
            </med:Option>
            <med:Option id="S">
                <med:Trans lng="de">Os sakrum</med:Trans>
                <med:Trans lng="en">Sacrum</med:Trans>
            </med:Option>
            <med:Option id="L5">
                <med:Trans lng="de">LWK 5</med:Trans>
                <med:Trans lng="en">L 5</med:Trans>
            </med:Option>
            <med:Option id="L4">
                <med:Trans lng="de">LWK 4</med:Trans>
                <med:Trans lng="en">L 4</med:Trans>
            </med:Option>
            <med:Option id="L3">
                <med:Trans lng="de">LWK 3</med:Trans>
                <med:Trans lng="en">L 3</med:Trans>
            </med:Option>
            <med:Option id="L2">
                <med:Trans lng="de">LWK 2</med:Trans>
                <med:Trans lng="en">L 2</med:Trans>
            </med:Option>
            <med:Option id="L1">
                <med:Trans lng="de">LWK 1</med:Trans>
                <med:Trans lng="en">L 1</med:Trans>
            </med:Option>
            <med:Option id="Th12">
                <med:Trans lng="de">BWK 12</med:Trans>
                <med:Trans lng="en">Th 12</med:Trans>
            </med:Option>
            <med:Option id="Th11">
                <med:Trans lng="de">BWK 11</med:Trans>
                <med:Trans lng="en">Th 11</med:Trans>
            </med:Option>
            <med:Option id="Th10">
                <med:Trans lng="de">BWK 10</med:Trans>
                <med:Trans lng="en">Th 10</med:Trans>
            </med:Option>
            <med:Option id="Th9">
                <med:Trans lng="de">BWK 9</med:Trans>
                <med:Trans lng="en">Th 9</med:Trans>
            </med:Option>
            <med:Option id="Th8">
                <med:Trans lng="de">BWK 8</med:Trans>
                <med:Trans lng="en">Th 8</med:Trans>
            </med:Option>
            <med:Option id="Th7">
                <med:Trans lng="de">BWK 7</med:Trans>
                <med:Trans lng="en">Th 7</med:Trans>
            </med:Option>
            <med:Option id="Th6">
                <med:Trans lng="de">BWK 6</med:Trans>
                <med:Trans lng="en">Th 6</med:Trans>
            </med:Option>
            <med:Option id="Th5">
                <med:Trans lng="de">BWK 5</med:Trans>
                <med:Trans lng="en">Th 5</med:Trans>
            </med:Option>
            <med:Option id="Th4">
                <med:Trans lng="de">BWK 4</med:Trans>
                <med:Trans lng="en">Th 4</med:Trans>
            </med:Option>
            <med:Option id="Th3">
                <med:Trans lng="de">BWK 3</med:Trans>
                <med:Trans lng="en">Th 3</med:Trans>
            </med:Option>
            <med:Option id="Th2">
                <med:Trans lng="de">BWK 2</med:Trans>
                <med:Trans lng="en">Th 2</med:Trans>
            </med:Option>
            <med:Option id="Th1">
                <med:Trans lng="de">BWK 1</med:Trans>
                <med:Trans lng="en">Th 1</med:Trans>
            </med:Option>
            <med:Option id="C7">
                <med:Trans lng="de">HWK 7</med:Trans>
                <med:Trans lng="en">C 7</med:Trans>
            </med:Option>
            <med:Option id="C6">
                <med:Trans lng="de">HWK 6</med:Trans>
                <med:Trans lng="en">C 6</med:Trans>
            </med:Option>
            <med:Option id="C5">
                <med:Trans lng="de">HWK 5</med:Trans>
                <med:Trans lng="en">C 5</med:Trans>
            </med:Option>
            <med:Option id="C4">
                <med:Trans lng="de">HWK 4</med:Trans>
                <med:Trans lng="en">C 4</med:Trans>
            </med:Option>
            <med:Option id="C3">
                <med:Trans lng="de">HWK 3</med:Trans>
                <med:Trans lng="en">C 3</med:Trans>
            </med:Option>
            <med:Option id="C2">
                <med:Trans lng="de">HWK 2 (Axis)</med:Trans>
                <med:Trans lng="en">C 2</med:Trans>
            </med:Option>
            <med:Option id="C1">
                <med:Trans lng="de">HWK 1 (Atlas)</med:Trans>
                <med:Trans lng="en">C 1</med:Trans>
            </med:Option>
        </med:Figure>
    </metadata>
    <path id="C" fill="#3C3C3B" stroke="#3C3C3B" stroke-linejoin="round" stroke-miterlimit="10" d="M103.7,770  c-0.9,1.3-1.9,3.4-2.4,6.2c-0.3,2-0.1,3-0.1,4.9c0,1.3-0.1,6.2-2.6,11.1c-0.8,1.6-2.5,4.8-6,7.2c-2,1.4-3.3,1.6-5.4,3.5  c-0.6,0.5-3.8,3.7-3.1,5.1c0.5,0.9,2.5,0.7,3.5,0.6c4.4-0.5,7.7-2.7,10.3-4.8c2.4-1.9,6-5.1,9.8-10.1c2.5-3.2,5-6.6,6.9-11.7  c1.4-3.8,2-7.1,2.3-9.4C112.6,771.7,108.2,770.9,103.7,770z" />
    <path id="S" fill="#4D4D4C" stroke="#575756" stroke-linejoin="round" stroke-miterlimit="10" d="M9.6,651.2  c0.8-1.6,2.3-2.6,5.4-3.8c5.1-2,8.7-2.4,15.5-3.4c10.9-1.7,8.2-1.7,12.6-2.2c1.4-0.2,4.6-0.5,8.4-1.8c2.7-0.9,4-1.8,5-2.7  c1.8-1.6,2.6-3.6,3-4.7c3.2,2.6,6.4,5.1,9.6,7.7c-0.5,3.4,0.6,4.9,1.1,5.3c0.5,0.5,1.5,1.3,7.9,1.8c3,0.2,2.7,0,4.8,0.2  c5.9,0.5,9.2,2,9.9,2.3c2.8,1.2,3.7,2.2,4.1,3.1c0.8,1.3,0.8,2.8,0.9,5c0.1,2.5-0.3,2.8,0,4.3c0.4,2.3,1.7,4,2.2,4.5  c2,2.4,3.9,2.2,7.2,4.1c1.1,0.7,4.5,2.7,6.8,6.5c2.7,4.5,2.7,9.5,2.7,9.9c0,1.5-0.3,2.6,0,4.7c0.3,2.7,1.2,4.6,1.4,5.2  c1,2.2,1.6,2.3,2.5,4.3c0.4,0.8,0.9,2,1.4,5.6c0.8,4.7,0.3,4.8,0.9,8.6c0.6,3.7,1.6,7.3,2,8.4c0.6,2,0.8,2.6,1.1,4  c0.2,1.3,0.5,3.4,0.2,6.7c-0.4,3.6-1.2,6.2-2.7,10.6c-1.9,5.7-2.6,5.5-3.1,8.4c-0.5,2.8-1.7,9.7-2.2,11.9c-0.4,2-0.7,3.7-0.8,4.8  c-4.5-0.8-8.9-1.5-13.4-2.3c0-1.6-0.2-4-0.8-6.8c-1.4-6.6-3.9-7.6-5-13.5c-0.4-2.2-0.6-5.6-0.9-12.6c-0.3-6.6-0.2-8.5-1.8-10.4  c-2-2.3-3.4-0.9-7.6-3.8c-2.2-1.5-2.1-2.1-7.2-6.8c-2.1-2-3.2-3-4.1-3.4c-3.4-1.7-4.8,0.1-8.8-1.1c-4.4-1.2-7.1-4.5-7.6-5  c-1.7-2.1-1.3-2.8-3.2-5.2c-0.7-0.9-2.6-3.1-5.6-4.5c-3.4-1.6-4.3-0.4-8.1-2c-1.4-0.6-4.1-1.7-6.1-4.3c-2.1-2.8-1.4-4.5-3.6-6.7  c-1.6-1.6-3.2-1.8-5.2-2.5c-6.7-2.3-11-7.3-12.4-9c-3.5-4.2-4.9-8.1-5.9-11.3C8.5,653.8,9.2,652,9.6,651.2z" />
    <path id="L5" fill="#878787" stroke="#878787" stroke-linejoin="round" stroke-miterlimit="10" d="M3.3,612.5c1.1-1.8,3-2.3,14-3.6  c0.7-0.1,7.5-0.9,18.2-1.4c2.8-0.2,5.9-1,8.8,0.5c0.8,0.4,1.5,1,2.9,1.3c2.7,0.6,5-0.8,5.3-0.9c1.4-0.9,2.1-2,2.6-2.8  c1.2-2,1.4-3.9,1.5-4.9c3.7,2,7.5,4,11.2,6.1c0,0.7,0.1,1.8,0.9,2.4c1.1,0.9,3,0.3,4.1,0c6.8-2.3,8.9-3.9,12.8-4.7  c2.7-0.6,5.4-1.1,7.9,0.4c3.1,1.8,3.9,5.5,4.3,7.6c0.3,1.5,1,4.9-0.7,8.4c-0.6,1.2-1.3,2.7-2.9,3.6c-1.3,0.7-2.4,0.5-6.3,0  c0,0-2.1-0.3-10.4-0.9c-1.1-0.1-2.8-0.2-4.5,0.7c-0.5,0.3-1.5,0.8-2.2,2c-0.4,0.6-0.5,1.3-0.6,2.2c-0.2,2.2,0.1,3.7,0.2,4.6  c0.2,1.4,0.2,3.4-0.6,5.9c-3.2-2.6-6.4-5.1-9.6-7.7c0.2-0.5,0.9-3.3-0.7-5.7c-0.4-0.5-1.4-2.1-3-2.3c-2.3-0.3-4.3,1.9-5.1,3.6  c-0.7,1.5-0.7,3.1-0.7,4c0,1.5,0.4,1.9,0.2,2.5c-0.6,2.1-4.3,2.8-6.7,3.2c-9.5,1.7-15.6,2.2-15.6,2.2s-4.4,0.3-12.6,0.6  c-6.4,0.2-8.3,0.1-9.7-1.3c-1.3-1.2-1.6-3.6-2.3-8.4c-0.4-3.1-0.6-5.3-0.7-8.4C2.8,616,2.7,613.5,3.3,612.5z" />
    <path id="L4" fill="#878787" stroke="#878787" stroke-linejoin="round" stroke-miterlimit="10" d="M0.7,586.1  c-0.2-5.3-0.6-6.3,0.4-7.7c0.9-1.4,2.3-2,3.8-2.7c2.7-1.2,4.9-1.3,8.4-1.4c5.6-0.2,9.8-0.2,9.9-0.2c6.7-0.1,10.1-0.2,10.4-0.2  c5.3-0.2,7.9,0.2,9.3,0.7c1.4,0.5,2.9,1.3,4.9,0.9c1.5-0.3,2.5-1.1,3.2-1.8c1.7-1.4,2.7-3.1,3.3-4.4c3.2,1.9,6.4,3.7,9.6,5.6  c0.1,1,0.3,2.2,1.1,2.7c1,0.6,2.2,0.1,5.2-1c1.6-0.6,3.3-1.1,4.9-1.7c1.6-0.6,5.7-2,10.4-1.6c2.5,0.2,5.6,0.4,7.7,2.7  c1.6,1.8,1.9,3.8,2.3,6.8c0.3,2.5,0.7,5.1-0.7,7.7c-0.4,0.8-1.4,2.7-3.4,3.4c-1.6,0.6-2.6,0.1-6.1-0.5c-2.4-0.4-4.1-0.5-6.3-0.7  c-4.8-0.4-6-0.1-6.6,0.1c-1.1,0.4-3.1,1-4.1,2.8c-0.6,1.1-0.4,1.9-0.5,6.1c0,1.6,0,2.9-0.1,3.8c-3.7-2-7.3-4.1-11-6.1  c0.5-0.7,1.3-2.1,1.3-4c0-0.7,0-1.7-0.7-2.6c-1-1.3-2.6-1.5-3.6-1.7c-0.7-0.1-2.1-0.2-3.7,0.6c-1.6,0.8-2.3,2.2-2.6,2.7  c-1,2.2-0.1,3.5-1.2,5.1c-0.5,0.6-1,1.1-2,1.4c-6.1,2.3-14,2.5-14,2.5c-5.5,0.1-11-0.1-16.5,0.4c-2.7,0.2-5.4-0.4-8.1-0.4  c-0.9,0-2.4,0-3.4-1c-0.6-0.6-0.9-1.4-1.1-2.7c-0.5-2.9-0.4-5.3-0.4-5.8C1,592.2,0.9,590.2,0.7,586.1z" />
    <path id="L3" fill="#878787" stroke="#878787" stroke-linejoin="round" stroke-miterlimit="10" d="M3.7,542.2  c-0.9,5.4-1.1,3.2-1.6,7.7c-0.1,1-0.1,0.9-0.4,10.2c-0.1,2-0.1,3.2,0.7,4.3c0.6,0.8,1.6,1.5,4.5,2.2c3.1,0.7,5.5,0.7,7,0.7  c6.1,0.1,5.1,0.5,10.4,0.5c7.2,0,6.1-0.8,9.7-0.4c2.9,0.3,5.2,1,7.4-0.4c0.4-0.2,1.4-0.9,2-2.2c0.6-1.3,0.2-1.9,0.7-3.2  c0.6-1.4,1.8-2.1,2.7-2.6c0.7-0.4,2.6-1.6,4.8-1.1c0.9,0.2,1.5,0.6,1.8,0.7c0.4,0.2,1.2,0.7,1.8,1.6c0.6,1,0.7,1.9,0.8,2.6  c0.2,2.2-0.5,3.9-1,4.9c3.2,1.9,6.3,3.8,9.5,5.7c0.1-1,0.4-3,1.8-5c0.5-0.7,1.4-2,3.1-2.8c1.9-0.9,6.8-1,7.5-1c0.5,0,1.1,0,2.1,0.1  c5.5,0.7,9,1.8,9,1.8c1.3,0.4,2.5,0.9,3.8,0.4c1.4-0.6,2-2,2.5-3.2c0.4-1,0.8-2.3,1.1-5.8c0.2-3.3,0.4-5,0-5.9  c-1.1-3-4.4-4.2-6.1-4.9c-3-1.2-5.9-0.8-9.9-0.4c-2.5,0.3-3.8,0.4-4.7,0.6c-2,0.5-3.4,1.1-5.2,0.6c-1.3-0.3-1.6-0.9-1.8-1.1  c-0.6-1-0.1-2.1,0-2.3c-3.5-2.6-6.9-5.2-10.4-7.8c-0.2,0.8-0.7,2-1.5,3.3c-0.7,1-1.4,2.1-2.9,2.9c-0.3,0.1-1.7,0.9-3.6,0.7  c-0.9-0.1-1.5-0.4-3.2-1.3c-1.3-0.7-2.6-1.3-4-2c-1.8-0.9-3.2-1.1-8.1-1.4c-4.8-0.4-7.5-0.5-10.4-0.7c-5.5-0.4-6.7-0.5-9.7-0.5  c0,0-2.2-0.3-6.1,0.2c-0.9,0.1-1.7,0.2-2.5,0.9C4,540.1,3.8,541.4,3.7,542.2z" />
    <path id="L2" fill="#878787" stroke="#878787" stroke-linejoin="round" stroke-miterlimit="10" d="M9.2,510.8  c-0.6,2.9-0.4,1.5-1.6,6.7c-1.6,7.2-0.9,5.1-1.4,6.8c-0.6,2.2-1.2,3.5-0.5,4.5c0.6,0.9,1.8,1.1,2.5,1.3c3,0.5,5.8,1.7,8.7,2.1  c9.6,1.3,9.1,1.4,13.7,1.9c4.1,0.4,2.4,0,7.2,0.4c5.1,0.4,8.1,0.8,8.9-0.6c0.4-0.6-0.1-0.9,0.2-2.2c0.6-2.5,3.3-3.7,3.7-3.9  c0.8-0.3,2.1-0.9,3.6-0.5c2.3,0.6,3.3,2.8,3.5,3.3c1.1,2.5,0.2,4.9,0,5.4c3.3,2.5,6.7,5,10,7.6c-0.1-0.7-0.4-4.6,2.3-7.6  c0.5-0.5,2.1-2.3,4.6-2.6c1.5-0.2,2.7,0.3,5.2,1.2c2.5,0.9,2.5,1.3,5.4,2.5c2.9,1.2,4.5,1.5,5.9,1.6c2,0.2,2.8-0.1,3.2-0.4  c1.5-0.8,1.9-2.6,2.3-4.5c0.1-0.5,0.3-1.6,0.4-6.5c0-3.5-0.1-4-0.4-4.5c-0.8-1.7-2.4-2.4-4.3-3.2c-2.8-1.3-5.2-1.5-7-1.6  c-1-0.1-2.7,0-6.1,0.2c-1.8,0.1-3.7,0.3-7.6,0.4c-0.5,0-1.5,0-2.1-0.6c-0.6-0.6-0.5-1.5-0.5-2.2c0.1-1.7,0.9-3.1,1.5-4  c-2.7-3.1-5.4-6.2-8-9.3c-0.8,1.6-1.6,2.8-2.3,3.7c-0.7,1-1.4,1.8-2.5,2.6c-0.6,0.4-1.3,0.9-2.4,1.3c-1,0.3-2.4,0.7-3.6,0  c-0.8-0.5-0.9-1.1-2.4-2.1c0,0-0.3-0.2-0.7-0.4c-1.9-1.1-4.5-1.8-5.3-2c-1.9-0.5-3.5-0.9-5.8-1.2c-0.3-0.1-1.9-0.3-5-0.7  c-5.3-0.7-4.9-0.8-7.6-1.1c-4.8-0.5-7.1-0.3-8.6-0.2c-1.1,0.1-2.2-0.1-3.2,0.5c-1.4,0.8-2.1,2.3-2.7,3.6  C9.8,507.8,9.7,508.8,9.2,510.8z" />
    <path id="L1" fill="#878787" stroke="#878787" stroke-linejoin="round" stroke-miterlimit="10" d="M20.2,470.3  c-1.4,3.4-1.9,6.1-2.5,8.8c-0.8,3.5-1.7,7.1-2.5,10.6c-0.2,0.9-0.5,2,0,3.1c0.8,1.7,2.8,2.4,5.6,3.1c4.3,1.1,7.7,1.6,9.2,1.8  c6.6,1,9.9,1.5,12.6,2.2c0,0,2.1,0.5,7.2,0.5c1.3,0,2.1-0.2,2.9-0.7c1.1-0.8,0.9-1.6,2.2-3.2c0.5-0.7,1.7-2.1,3.5-2.7  c0.6-0.2,1.8-0.6,3.1-0.1c1.6,0.6,2.7,2.1,3,3.6c0.4,2-0.7,3.5-0.9,3.8c2.7,3.1,5.3,6.2,8,9.4c0.6-2.7,1.7-4.6,2.4-5.7  c0.5-0.8,0.9-1.1,1.3-1.4c2-1.3,4.6-0.1,4.9,0c1.1,0.5,1.2,0.9,2.8,2.4c2.2,2,4,2.9,6.8,4.7c0.4,0.2,1.3,0.8,2.7,1.1  c0.9,0.2,1.9,0.4,2.9,0c0.8-0.3,1.3-1,2.7-4.5c1.1-2.8,1.6-4.2,1.6-5c0-2.9-1.8-5-2.9-6.3c-0.2-0.2-4.5-5.2-10.4-5.9  c-0.6-0.1-2-0.2-4-0.7c-2.7-0.7-3.6-1.4-4-1.8c-0.6-0.5-1.6-1.4-1.8-2.9c-0.2-1.6,0.7-2.8,0.9-3.1c-2.5-3.3-4.9-6.6-7.4-9.9  c-0.4,0.8-1.2,2.1-2.5,3.2c-0.8,0.7-1.7,1.4-3.1,1.8c-1.9,0.5-3.5-0.1-4.2-0.4c-1.6-0.6-2.4-1.5-3.3-2.2c-2.1-1.7-3.9-1.5-8.5-2.3  c-0.8-0.1-3.6-0.8-9.3-2.2c-1.6-0.4-5.5-0.9-13.3-2.2c-0.6-0.1-1.8-0.3-3.1,0.4C21.1,468.2,20.5,469.6,20.2,470.3z" />
    <path id="Th12" fill="#B2B2B2" stroke="#B2B2B2" stroke-linejoin="round" stroke-miterlimit="10" d="M32.4,440.8  c-1.6,3.3-2.6,7-2.7,7.4c-1.4,5.5-1.2,7.5-0.9,8.8c0.2,0.8,0.4,1.3,0.7,1.8c1.2,1.8,3.2,2.4,4.7,2.9c5.3,1.5,7.9,2.3,8.1,2.3  c4.4,1.1,9.1,2.6,10.1,2.9c3.2,1,5.4,1.8,8.1,1.1c0.7-0.2,2-0.5,2.9-1.6c0.6-0.8,0.4-1.4,1-2.4c0.8-1.5,2.3-2.2,2.9-2.5  c1.1-0.5,3-1.4,4.8-0.4c1.6,0.9,2,2.8,2,3c0.2,1.4-0.4,2.5-1,3.5c-0.7,1.3-1.7,2.1-2.3,2.6c2.5,3.3,5,6.7,7.4,10  c0.6-0.5,1.4-1.3,2.4-2.3c1.8-1.7,2-2.1,2.7-2.4c0.4-0.2,2.3-1.1,4.2-0.4c0.7,0.3,1.2,0.7,1.6,1.1c1.5,1.4,1.4,2.6,2.9,4.9  c0.3,0.5,0.7,1,1.2,1.5c1.6,1.7,3,2.3,4,2.5c0.7,0.2,1.6,0.4,2.5,0.2c1.9-0.5,2.9-2.4,4.1-5c1.3-2.8,2-4.2,1.8-5.8  c-0.4-2.6-2.7-4.3-4.1-5.4c-2.1-1.5-2.5-1-5-2.8c-1.5-1.1-3.1-2.3-4-4.3c-0.5-1.1-0.8-2.3-1-3.2c-0.4-1.7-0.4-2.3-0.9-3.4  c-0.2-0.4-0.6-1.3-1.5-2.2c-1.1-1.1-1.8-1.2-2.1-2c-0.2-0.5-0.3-1.3,0.4-2.6c-2.6-2.6-5.1-5.2-7.7-7.8c-0.9,0.8-2.4,1.9-4.5,2.6  c-1,0.4-2.9,0.9-7.6,0.7c-4.5-0.2-8.1-0.9-9.7-1.3c-1-0.2-4.8-1.2-9.5-2.9c-2.5-0.9-5.1-1.4-7.6-2.5c-1.3-0.6-2.6-1.3-4.1-0.9  c-1.3,0.4-2.2,1.4-2.7,2C33.1,439.6,32.6,440.4,32.4,440.8z" />
    <path id="Th11" fill="#B2B2B2" stroke="#B2B2B2" stroke-linejoin="round" stroke-miterlimit="10" d="M42.7,410.4  c-0.5,0.7-1.5,2.1-2.9,6.7c-1.5,4.9-0.6,4.1-1.8,9.2c-0.1,0.5-0.4,1.5,0,2.5c0.5,1.3,1.6,2.1,2.3,2.5c3.1,1.8,6.5,2.4,8.1,2.7  c1.2,0.2,4.1,0.9,9.9,2.3c0,0,3.5,0.9,9.2,1.4c2.1,0.2,3,0,3.8-0.5c1-0.6,1.2-1.4,3.4-5.3c1-1.7,1.3-2.2,2-2.4  c1.6-0.5,3.4,1.1,3.6,1.3c0.1,0.1,1.5,1.5,1.6,3.6c0,0.8-0.2,1.5-0.6,3c-0.3,1-0.6,1.8-0.8,2.3c2.6,2.6,5.1,5.2,7.7,7.8  c0.6-0.5,1.5-1.3,2.8-1.8c1-0.4,1.7-0.7,2.7-0.7c1.6,0.1,2.6,1.2,3.8,2.6c0.4,0.5,1.3,1.4,2.8,4c1.8,3.1,1.9,3.8,3.2,5.3  c1.1,1.2,2,2.3,3.4,2.3c2,0.1,3.5-2.1,3.8-2.5c1.1-1.6,1.2-3.3,1.3-5.4c0.1-1.7,0.1-2.9-0.4-4.3c-0.5-1.6-1.3-2.2-4-5  c-2.9-3.1-3.6-3.6-4.5-5.2c-0.3-0.5-0.9-1.7-1.3-3.3c-0.6-2.8,0.2-3.3-0.4-5.3c-0.5-1.6-1.7-2.8-3.2-4.4c-1.2-1.2-1.8-1.6-2.2-2.7  c-0.4-1.2-0.2-2.4,0-3.2c-2.9-2.5-5.8-5-8.7-7.6c-1,1-2.9,2.5-5.6,3.3c-0.5,0.2-2.1,0.6-5.6,0.5c-1.2,0-3.2-0.1-8.8-1.3  c-3.9-0.8-6.3-1.3-9.5-2.3c-2.5-0.8-5.1-1.4-7.6-2.2c-1.7-0.6-3.1-1-4.7-0.5C45.3,408.1,44.2,408.5,42.7,410.4z" />
    <path id="Th10" fill="#B2B2B2" stroke="#B2B2B2" stroke-linejoin="round" stroke-miterlimit="10" d="M51.7,385.1  c-0.7,2.6-1.1,4.2-1.4,6.8c0,0-0.5,1.6-0.4,4.7c0.1,1.7,0,2.4,0.4,3.1c0.7,1.2,1.9,1.7,2.7,2c4.1,1.5,8.2,2.1,8.6,2.2  c5.2,0.7,3.6,0.2,9,0.9c1.7,0.2,3.4,0.5,5.6,0c1.3-0.3,2.6-0.6,3.6-1.6c0.9-0.9,0.7-1.6,1.1-2.8c0.1-0.1,0.3-0.9,0.7-1.4  c0.9-1.1,2.8-1.5,4.2-0.9c1.4,0.6,2,1.9,2.5,3c1.4,3.2,0.6,6.4,0.1,8c2.9,2.5,5.8,5,8.7,7.6c0.8-0.5,2.8-1.6,5.3-1.4  c3,0.2,5,2.3,6.9,4.3c2.1,2.3,2.4,3.5,5.7,8.6c4.4,7.1,5.3,7.2,5.7,7.1c2.2-0.2,3.9-6.2,3.4-10.9c-0.3-3.2-2.1-7.2-4.1-9.3  c-1.6-1.7-2.7-2-4.3-4.3c-0.9-1.3-1.8-2.6-2-4.5c-0.2-2.2,0.8-2.7,0.9-5.4c0.1-1.4,0.1-3.3-1-4.8c-1.8-2.6-5.9-3-7.2-3.1  c-2.3-0.2-3.1,0.3-4.1-0.5c-1.5-1.3-1.1-4-1.1-4.3c0.3-1.8,1.3-2.9,1.8-3.4c-2.4-1.8-4.8-3.6-7.1-5.5c-1.4,1.4-3.7,3.1-6.7,4.1  c-1.9,0.6-3.4,0.8-3.8,0.8c-0.9,0.1-1.8,0.1-4.6-0.3c-2.8-0.3-4.2-0.5-6.1-0.9c-2.5-0.5-3.7-0.9-5.7-1.2c-1.5-0.2-1.8-0.2-4.2-0.8  c-0.5-0.1-4.5-1.2-8.6-0.9c-0.6,0-1.5,0.1-2.3,0.7C52.7,381.5,52.3,382.5,51.7,385.1z" />
    <path id="Th9" fill="#B2B2B2" stroke="#B2B2B2" stroke-linejoin="round" stroke-miterlimit="10" d="M59.8,356.6  c-0.7,2.3-1,3.5-1.3,5.1c-0.4,1.7-0.6,3.1-1,6c-0.4,2.7-0.4,3.3,0,4c0.6,1,1.6,1.4,3.5,1.9c4.5,1.4,7.1,1.8,7.1,1.8  c2.5,0.4,1.9,0.3,8,1.2c0,0,2.6,0.4,7.7,0.5c0.7,0,1.7,0,2.7-0.6c1.1-0.7,1.2-1.7,1.9-3.3c0.4-0.9,2.1-4.3,4.5-4.6  c1.7-0.2,3.2,1.2,3.9,2.3c1.3,2,1.2,4.7-0.3,7.1c2.4,1.9,4.9,3.7,7.3,5.6c1.4-0.5,3.7-1.1,6.3-0.4c1.4,0.4,2.5,1.1,5,3.2  c3.1,2.7,4.7,4,6.7,6.3c5.3,5.9,5.8,8.6,7.6,8.4c2.1-0.2,3.5-4.4,3.5-7.4c0-3-1.4-5.5-1.8-6.2c-0.3-0.4-0.9-1.3-2.1-3  c-1.7-2.3-2.4-3-2.8-3.5c-0.5-0.5-1-1-1.8-1.8c-0.9-1-1.8-2.2-2.7-4.1c-0.7-1.7-0.5-2.1-1.5-4.5c-0.8-2.2-1.2-3.2-2.1-4.2  c-1.4-1.7-3.3-2.3-4.1-2.6c-2.1-0.8-2.9-0.3-5-1.3c-1.6-0.8-2.2-1.5-2.4-1.7c-0.9-1.2-0.9-2.5-0.9-3.1c0-1.8,0.9-3.2,1.2-3.7  c-2.1-1.7-4.1-3.5-6.2-5.2c-1.8,2-3.5,2.9-4.6,3.3c-1.3,0.5-3.1,0.8-6.7,1.1c-1.6,0.1-2.8,0.4-4.6,0.2c-5.8-0.5-3.5,0.1-9.2-0.5  c-1-0.1-5-0.5-10-0.6c-1.7,0-3.6-0.1-4.8,1.2C60.6,354.1,60.4,354.5,59.8,356.6z" />
    <path id="Th8" fill="#B2B2B2" stroke="#B2B2B2" stroke-linejoin="round" stroke-miterlimit="10" d="M65.1,329.1  c-0.3,0.6-0.6,2.1-1.3,5.1c-0.2,0.8-0.5,2.2-0.5,4c0,0-0.1,1.2-0.1,5.2c0.3,0.5,0.9,1.3,1.8,1.9c1.2,0.9,2.4,1.1,3.1,1.2  c5,0.9,6.9,1,6.9,1c8.7,0.4,7.4-0.2,10.3,0.2c1.9,0.3,4,0.8,6.4,0c1.4-0.5,2-1.1,2.3-1.5c0.9-1.1,0.6-1.9,1.2-3.6  c0.3-0.8,1.3-3.6,3.2-3.9c1.5-0.2,3,1.2,3.6,2.3c0.6,1,0.5,2,0.5,3c0,1.6-0.5,2.9-0.9,3.6c2.1,1.8,4.2,3.6,6.3,5.4  c1.1-0.6,2.8-1.2,4.8-1c0.9,0.1,2,0.5,7.9,5.9c2.4,2.2,3.2,3.1,3.6,3.5c0.9,0.9,1.9,2.1,3.8,4.6c4.1,5.4,4.4,6.7,5.3,6.6  c1.7-0.3,2-6.2,1.8-9.8c-0.2-2.2-0.4-4.6-1.9-6.9c-0.6-1-1.7-2.3-3.1-3.6c-1-1-2.1-1.8-3.3-3.4c-0.3-0.4-0.5-0.8-0.8-1.3  c-1.3-2.4-1.8-5-1.9-6.3c0-0.4,0.1-1-0.1-1.8c-0.3-1.3-1-2.2-1.5-2.8c-0.4-0.6-1.6-2.1-3.8-3.1c-0.6-0.3-0.4-0.1-3.6-1.1  c-2.3-0.7-2.8-0.9-3.4-1.3c-0.3-0.2-1-0.7-2.4-1.8c-1.9-1.5-2.3-1.8-2.4-2.4c-0.1-0.7,0.4-1.4,0.8-1.8c-2.3-1.5-4.7-3-7-4.6  c-0.4,0.7-1.1,1.7-2.2,2.6c-1.5,1.2-2.9,1.7-3.7,1.9c-1.7,0.5-3.4,0.5-6.8,0.6c-2,0-2,0-3.7,0c-2.5,0-3.4,0.2-5.7,0  c-0.6,0-3.5-0.3-7.1-0.4c-1.3,0-2.4,0-3.6,0.6C66.3,326.9,65.6,328.2,65.1,329.1z" />
    <path id="Th7" fill="#B2B2B2" stroke="#B2B2B2" stroke-linejoin="round" stroke-miterlimit="10" d="M67.7,299  c-0.3,0.2-1,0.8-1.5,3.1c-0.4,2.2-0.1,3-0.1,6.3c0,2.9-0.3,3.4,0,5.2c0.2,1.2,0.4,2.5,1.3,3.6c0.4,0.5,1.2,1.4,3.3,2.2  c2.3,0.9,4.1,0.8,6.9,0.8c0.9,0-3.2,0,8.2,0.4c6.1,0.2,7.6,0.2,8.9-1c1.1-1,1.5-2.4,1.7-2.9c0-0.1,0-0.1,0.1-0.2  c0.6-2.3-0.5-3.9,0.1-5.1c0.5-1.1,2.4-1.8,3.8-1.3c2.2,0.7,2.4,4,2.4,4.6c0.1,2.5-1.2,4.3-1.6,4.8c2.3,1.5,4.6,3,7,4.6  c0.7-0.9,1.9-2.1,3.4-2.2c2.1-0.2,3.7,1.4,7,4.7c5.5,5.5,6.5,6.1,7.6,7.2c0.4,0.4,0.7,0.8,1.3,1.4c0.5,0.5,0.9,1,1.2,1.4  c0.4,0.5,0.5,0.6,0.6,0.8c0.5,0.6,2,2,3,1.8c1.2-0.3,1.3-3,1.3-3.6c0.1-0.9,0.1-2.9-1.9-7.7c-1.6-3.9-3.2-6.6-3.8-7.4  c-1-1.6-1.5-2.3-2.3-3.4c-1.1-1.4-1.9-2.2-2.9-3.9c-0.1-0.1-0.5-0.7-0.7-1.5c-0.9-2.5-1.1-3.6-1.5-4.5c-1-2.3-3-3.5-3.6-3.8  c-1.6-0.9-1.8-0.4-4.7-1.7c-1.4-0.7-1.2-0.7-3.1-1.6c-1.5-0.7-1.9-0.8-2.3-1.3c-0.9-1.3-0.3-3.1-0.1-3.6c-2.3-1.3-4.6-2.5-6.9-3.8  c-0.6,1-1.6,2.5-3.3,3.8c-1.5,1.1-2.8,1.6-4.5,2.2c-0.6,0.2-3,1-6.6,1.5c-0.7,0.1-3.4,0.4-6.9,0.2c-6.2-0.3-7-0.4-7-0.4  C69.1,298.5,68.4,298.5,67.7,299z" />
    <path id="Th6" fill="#B2B2B2" stroke="#B2B2B2" stroke-linejoin="round" stroke-miterlimit="10" d="M66.7,277.8c0,0.2,0,1.6,0,4.4  c0,2.1,0,3.1,0.2,4.5c0.2,1.2,0.4,1.9,0.8,2.5c0.2,0.3,0.7,1,1.8,1.6c1.6,0.9,3.1,0.8,6.4,0.8c4.1,0,3.5,0.2,6.2,0.1  c3.4-0.1,2.6-0.4,6.2-0.5c2.4-0.1,3.6,0,4.9-0.9c0.3-0.2,1.2-0.8,1.7-2c0.1-0.1,0.1-0.3,0.1-0.4c0.3-1.2,0-2.2,0-2.7  c-0.2-1.6,1.6-4.2,3.7-4.3c1.4-0.1,2.8,0.8,3.3,2c0.4,0.9,0.3,1.8-0.1,3.4c-0.4,1.6-0.9,2.9-1.4,3.8c2.3,1.3,4.6,2.6,6.9,3.8  c0.3-0.4,1-1,2-1.3c1.8-0.6,3.4,0.3,3.8,0.5c0.4,0.2,0.6,0.4,0.7,0.5c5.1,3.9,3.4,2.4,6.6,5c0,0,0,0,0,0c5.6,6,10.8,11.5,12.4,10.6  c1.6-0.9-0.5-8.3-3-13.1c-1.7-3.2-3.9-5.9-4-6.1c-1.5-1.8-2.2-2.7-3.5-3.8c-1-0.8-1.8-1.4-2.9-2.7c-0.4-0.5-1-1.2-1.4-2.2  c-0.8-1.9-0.2-2.5-0.9-4.4c-0.3-0.8-0.9-2.6-2.5-3.4c-0.4-0.2-1-0.4-2.2-0.7c-1.7-0.5-1.5-0.3-2.1-0.5c-0.7-0.4-1.4-0.9-2.6-2  c0,0-0.1-0.1-0.1-0.1c-1-0.9-1.3-2-1.4-2.5c-2.5-1.4-5.1-2.8-7.6-4.2c-1,1.4-2,2.3-2.6,2.9c-0.7,0.6-1.2,1-1.4,1.1  c-0.7,0.5-1.3,0.8-1.7,1c-1.7,0.9-3.2,1.3-4.1,1.5c-1,0.3-2.3,0.4-4.9,0.6c-4.9,0.3-4.5,0.4-5.7,0.4c-1.7,0-2.3-0.1-4.9,0  c-2.6,0.1-3.2,0.2-3.9,0.5c-0.2,0.1-2.1,1.1-2.7,3C66.4,275.2,66.6,275.5,66.7,277.8z" />
    <path id="Th5" fill="#B2B2B2" stroke="#B2B2B2" stroke-linejoin="round" stroke-miterlimit="10" d="M65.7,249.1c0,1.9,0,2.8,0.1,4.3  c0.1,2.6-0.1,2.3,0,4.4c0,0.8,0.2,2.6,0.9,4.9c0.5,1.5,0.8,2,1.3,2.4c0.8,0.6,1.8,0.7,2.6,0.7c3.9,0.1,5.9,0.1,6.2,0.1  c1.4-0.1,3.5-0.3,6.8-0.7c2.2-0.3,4.4-0.6,7-1.4c2-0.6,3.3-1.2,3.5-2.2c0.1-0.5-0.2-0.6-0.4-1.8c-0.3-1.2-0.5-2.1-0.1-3  c0.5-1.4,2.2-2,2.4-2.1c1.2-0.4,3.2-0.4,4.1,0.8c0.6,0.7,0.5,1.5,0.5,2.6c0,0.9-0.2,2.5-1.2,4.4c2.5,1.4,5,2.7,7.5,4.1  c0.4-0.2,1.1-0.5,1.9-0.7c0,0,0.4-0.1,0.8-0.1c0.6,0,1.8,0,3.8,0.9c1.8,0.8,2.6,1.8,4.8,4.1c1.8,1.8,2.1,2,3,2.8  c0.5,0.5,1,0.9,1.3,1.2c0.2,0.2,0.3,0.3,0.3,0.4c0.4,0.5,8.1,8.1,9.9,6.9c0.9-0.6,0.2-2.9-1.1-7.3c-0.7-2.4-1.5-5.1-3.2-8.4  c-2.4-4.5-5.2-7.4-5.8-8.1c-1.4-1.4-1.5-1.6-2.7-2.7c-1.3-1.1-3.1-4.6-4.1-6.2c-0.5-0.8-1-1.6-1.8-2.4c-2.2-2.2-5.4-3-6.4-3.2  c-0.1,0-0.3-0.1-0.6-0.2c-0.4-0.1-1.5-0.6-2.4-1.8c-0.9-1.4-0.8-2.9-0.7-3.3c-2.2-0.9-4.4-1.9-6.7-2.8c-1,2-2.1,3.5-2.9,4.4  c-0.8,0.8-1.4,1.6-2.6,2.2c-0.5,0.3-1.4,0.8-4.3,1.3c-0.7,0.1-1.9,0.3-5,0.6c-2.3,0.2-4.1,0.3-5.6,0.4c-3.4,0.2-5.1,0.3-5.2,0.3  c-1.7-0.1-2.7-0.3-3.8,0.3c-0.2,0.1-1.3,0.7-1.8,1.9C65.7,247.5,65.7,248.1,65.7,249.1z" />
    <path id="Th4" fill="#B2B2B2" stroke="#B2B2B2" stroke-linejoin="round" stroke-miterlimit="10" d="M63,226.9  c0.2,2.2,0.3,4.4,0.4,6.6c0.1,1.5,0.1,2.4,0.6,3.7c0.3,0.8,0.6,1.6,1.3,2.2c1.1,1,2.6,0.9,3.7,0.9c5.6-0.2,8.1-0.6,8.1-0.6  c6.4-0.9,7.8-1.4,8.8-1.7c0,0,0.6-0.1,4.3-1.8c0.2-0.1,0.6-0.3,0.9-0.7c0.4-0.6,0.3-1.2,0.3-1.8c-0.1-1.9-0.3-2.1-0.3-2.9  c0-0.6-0.1-2.1,0.9-3.4c0.2-0.2,1.3-1.6,2.7-1.5c1.7,0.2,2.6,2.4,2.9,3.2c0.8,2.1,0.4,4.2,0.1,5.1c2.2,0.9,4.4,1.9,6.7,2.8  c0.8-0.5,2-1,3.2-0.7c0.9,0.2,1.2,0.7,2.4,1.6c0.9,0.6,1.1,0.6,2.2,1.1c0,0,0,0,0,0c0,0,0.8,0.4,1.7,0.8c3.6,1.8,6.2,3.6,6.2,3.6  c1.1,0.8,3.3,2.3,5.7,4.7c0.9,0.9,1.9,2,3.7,3.1c1.4,0.8,2.4,1.3,2.9,1c1.5-1-1.1-8.8-5.5-14.6c-2.9-3.9-6.6-6.7-8.3-7.5  c-2.1-0.9-2.8-1.5-4.3-2.8c-0.8-0.7-1.3-1.5-1.5-1.8c-2.3-3.4-3.5-5-4.8-5.8c-1.9-1.2-4.1-1.3-4.1-1.3c-1.5-0.1-2.8,0.3-4.5-0.4  c-0.5-0.2-0.9-0.5-1.1-0.9c-0.4-0.9,0.3-1.9,0.4-2c-2.1-1.1-4.3-2.2-6.4-3.4c-0.4,0.8-1.1,1.8-1.9,2.8c-0.4,0.4-1.6,1.9-3.1,3  c-1.5,1.1-3.5,1.5-7.3,2.4c-2.6,0.6-4.4,1-7.1,1.2c-3.1,0.3-4.7,0.4-4.7,0.4c-1.4,0-2.6-0.2-3.7,0.5c-0.7,0.5-1.1,1.2-1.2,1.4  C62.7,224.5,62.8,225.6,63,226.9z" />
    <path id="Th3" fill="#B2B2B2" stroke="#B2B2B2" stroke-linejoin="round" stroke-miterlimit="10" d="M58.3,208  c0.6,2.9,0.8,4.5,1.7,7.2c0.3,1,0.5,1.6,1.1,2.1c1.1,1,2.6,1.1,4,1.1c2.8,0,4.7-0.2,7.3-0.5c3.4-0.4,4.3-0.3,6.6-0.8  c0.2-0.1,2.7-0.6,4.8-2.1c0.6-0.4,1-0.9,1.3-1.5c0.2-0.5,0.2-1,0.1-2.3c-0.2-2.2-0.4-2.2-0.3-3c0.1-0.6,0.3-1.7,1.2-2.7  c0.3-0.3,1.2-1.3,2.7-1.5c1.5-0.2,3.1,0.5,4,1.8c0.9,1.3,1,3.1,0.3,4.5c2.1,1.2,4.3,2.4,6.4,3.6c0.4-0.4,1.1-0.9,2.1-1.3  c0.1,0,1.1-0.4,2-0.4c1.8-0.1,2.8,1.2,4.6,2.5c2.1,1.5,2.2,0.8,5.8,2.9c1.7,1,1.6,1,5.6,3.7c2,1.3,3.3,2.2,4.2,2.7  c0.9,0.5,1.3,1.4,2.2,1.4c0.2,0,0.8,0.1,1.3-0.3c0.7-0.5,0.8-1.3,0.8-1.7c0.4-3.2-4.4-7.9-4.4-7.9c-3.2-3.1-6.7-5.4-8.4-6.5  c-1.4-0.9-3.3-2-5.4-4.1c-1-1-1.8-1.7-2.4-2.9c-1.4-2.6-0.6-3.9-1.9-5.7c-1-1.4-3.1-2.6-5-2.4c-1.7,0.2-2.3,1.5-5,1.8  c-0.6,0.1-1.1,0.1-1.7-0.2c-1.1-0.6-1.4-1.9-1.5-2.3c-2.2-1.2-4.4-2.3-6.6-3.5c-0.3,1-1,2.4-2.3,3.9c-0.4,0.4-1.3,1.4-3.3,2.5  c-0.8,0.4-2.5,1.3-6.3,2.3c-3.2,0.8-7.4,1.6-10.1,1.8c-0.9,0.1-1.8,0.3-2.7,0.4c-1.4,0.2-2,0.2-2.5,0.7c-0.5,0.5-0.5,1.2-0.5,1.9  C57.8,205.7,58.2,207.7,58.3,208z" />
    <path id="Th2" fill="#B2B2B2" stroke="#B2B2B2" stroke-linejoin="round" stroke-miterlimit="10" d="M52.5,185.2  c0.2,2.3,0.2,3.8,0.7,5.7c0.3,1.4,0.5,2.1,1,2.9c0.2,0.4,1.1,1.8,2.9,2.6c0.7,0.3,1.6,0.5,3.9,0.4c2.1-0.1,3.6-0.4,5.9-0.9  c4.8-1,5-0.9,6.6-1.4c3.8-1.2,4.7-2.1,5.1-3c0.2-0.4,0.3-1,0.4-2.2c0.4-3.4-0.1-4,0.5-5.3c0.5-1,1.7-2.2,3.1-2.2  c1.7,0.1,2.7,2.1,3,2.7c0.8,1.7,0.6,3.2,0.5,3.9c2.2,1.2,4.4,2.5,6.7,3.7c0.4-0.5,1.1-1.3,2.2-2c1.1-0.7,1.8-1.1,2.7-1.1  c1.6-0.1,2.7,1.1,4.1,2.2c1.2,0.9,1.1,0.2,6.8,3.1c5.2,2.6,6.2,2.8,7.2,3.4c0.5,0.3,0.8,0.5,1.1,0.7c1.6,1.2,3.1,2.3,4.1,1.9  c1-0.4,1.2-2.4,1.2-3.4c-0.2-2.6-2.4-4.6-2.9-5c-0.1-0.1-0.1-0.1-0.2-0.1c-5.5-4.6-8.2-7-10.8-8.1c-0.7-0.3-2.7-1.1-5-2.7  c-1-0.7-1.7-1.3-2.7-2.1c-1.7-1.5-2.6-2.2-3.1-3.2c-0.6-1.2-0.2-1.5-0.8-2.6c-0.1-0.2-1.1-1.8-2.7-2.2c-1.3-0.3-1.7,0.5-4.5,1.1  c-1.7,0.4-2.5,0.6-3.4,0.2c-1.4-0.6-1.9-2.1-2.2-2.8c-2-1-3.9-2-5.9-3c-0.7,1.1-1.8,2.5-3.3,4c-2.5,2.4-4.8,3.6-6.3,4.3  c0,0-4.1,2-8.9,3c-1.1,0.2-2.2,0.5-3.3,0.8c-2.3,0.4-3.1,0.4-3.6,1c-0.2,0.3-0.3,0.6-0.2,3.2C52.5,184,52.5,184.8,52.5,185.2z" />
    <path id="Th1" fill="#B2B2B2" stroke="#B2B2B2" stroke-linejoin="round" stroke-miterlimit="10" d="M45.4,163.4  c1.2,3.7,0.7,3.8,1.8,6.4c0.9,2.2,1.6,3.1,2.5,3.7c0.8,0.5,1.5,0.7,1.9,0.8c1.5,0.4,2.8,0.1,4.1-0.2c4-0.9,5.9-1.4,6.6-1.6  c2.8-1,2.9-1.5,5.6-2.5c0,0,0.9-0.3,2.2-1.1c1.1-0.6,1.3-1,1.5-1.2c0.4-0.7,0.3-1.5,0.2-2.3c-0.6-4.4-0.7-4.6-0.5-5  c0.5-1.6,2.7-2.8,4.3-2.3c1,0.4,1.5,1.5,2.1,3.1c0.6,1.5,0.8,2.8,0.9,3.7c2,1,3.9,2,5.9,3c2.2-3,3.9-3.5,5-3.4  c2.3,0.2,3.4,3,8.5,4.5c0,0,0,0,0,0c4.5,0.7,7.4,2.3,9.3,3.7c1.2,0.9,2.2,1.6,4.5,3c1.1,0.6,1.9,1.1,2.7,0.7c0.9-0.4,1.2-1.6,1.3-2  c0.4-1.8-0.6-3.3-1-4.1c-1-1.6-2.6-2.6-5.6-4.7c-3.1-2.1-3.6-2-8.6-4.8c-3.6-2-5.4-3.1-7.7-5c-2.6-2.2-3.9-3.2-4.8-4.9  c-1.3-2.4-1.3-4.4-3.2-5.3c-0.6-0.3-1.5-0.5-2.4-0.3c-1.6,0.3-2,1.5-3.2,1.5c-1.3,0-2.3-1.4-2.6-1.9c-0.6-0.9-0.8-1.8-0.9-2.2  c-2-0.6-3.9-1.2-5.9-1.8c-0.4,1.3-1.2,3.8-2,5c-0.1,0.1-0.2,0.2-0.2,0.2s-0.8,1.2-1.7,2.2c-1.8,1.9-7.5,4.2-7.5,4.2  c-3.7,1.5-5.6,2.2-6.9,2.5c-1.9,0.5-3.9,0.8-5.7,2.4c-0.7,0.6-0.9,1-1.1,1.4C44.3,160.1,44.8,161.3,45.4,163.4z" />
    <path id="C7" fill="#C6C6C6" stroke="#C6C6C6" stroke-linecap="round" stroke-linejoin="round" stroke-miterlimit="10" d="  M38.1,137.4c0.9,4,1.7,4.5,2.6,8.1c0,0,0.4,1.6,1.5,3.5c0.3,0.5,0.5,0.8,0.9,1.1c0.9,0.7,2.1,0.6,2.7,0.6c4.1-0.3,6.5-1,6.5-1  c3.9-1.2,6.7-2.6,7.6-3.1c0,0,2.3-0.8,4-2.5c0.3-0.3,0.4-0.5,0.6-0.9c1-2.2-1.2-4-0.5-5.6c0.7-1.6,4.2-2.7,5.7-1.2  c1.1,1.1,0.7,2.9,0.7,3.2c1.9,0.6,3.9,1.3,5.8,1.9c0.3-0.8,1-2.2,2.4-2.9c1.7-0.8,3.4-0.3,5,0.1c0.7,0.2,1.5,0.6,3.1,1.4  c2.6,1.3,3.5,1.9,5.4,2.7c1.2,0.5,1.2,0.4,3.5,1.9c3,1.9,6.1,3.5,9.1,5.5c0.4,0.3,2.1,1.4,4.5,1.6c1,0.1,2.1,0.1,2.9-0.7  c0.7-0.8,0.5-2.1,0.4-2.9c-1.1-6.3-1.6-9.4-3.6-10.8c-1.8-1.2-2.4-0.1-6.6-1.5c-1.7-0.6-3.2-1.3-6-2.8c-5.7-3-5.1-3.2-7.6-4.2  c-2.3-0.9-5.1-2-8.7-1.7c-1.4,0.1-2.3,0.4-4,0.2c-1.3-0.1-3.3-0.4-5-1.9c-1-0.9-1.5-1.9-1.8-2.5c-2.2-0.7-4.3-1.5-6.5-2.2  c-0.1,0.9-0.5,2.3-1.6,3.5c-0.4,0.5-1,1-4.7,2.3c-2.3,0.8-3.5,1.3-5.1,1.7c-1.8,0.5-3.3,0.9-4.6,1.2c-1.9,0.4-3.7,1.1-5.6,1.4  c-0.9,0.2-2.4,0.3-3,1.4c-0.2,0.3-0.3,0.7-0.3,1.3C37.7,135.8,38.1,137.4,38.1,137.4z" />
    <path id="C6" fill="#C6C6C6" stroke="#C6C6C6" stroke-linecap="round" stroke-linejoin="round" stroke-miterlimit="10" d="  M32.6,114.3c0.4,1.7,0,1.5,0.4,4.6c0.3,2,0.5,3.1,0.6,3.4c0.5,2.1,1.1,3,1.8,3.6c0.4,0.4,0.9,0.6,1.1,0.7c1.1,0.5,2.1,0.5,3.3,0.5  c2.3-0.1,4.1-0.4,4.2-0.4c1.9-0.3,1.8-0.5,5.1-1.2c0.1,0,2.4-0.6,5.2-1.5c0.6-0.2,1.5-0.5,2.1-1.4c0.3-0.5,0.3-0.9,0.5-1.8  c0.3-1.8,0.5-2.7,0.9-3.3c1-1.4,3.9-2,5-0.7c0.8,0.9,0.5,2.4,0.4,2.7c2.2,0.7,4.3,1.4,6.5,2.1c0.5-0.4,1.4-1,2.5-1.4  c2.1-0.7,3.9-0.2,7.6,1.1c5.7,1.9,9.6,3.4,10,3.6c2.9,1.1,4.8,1.9,5.9,2.3c4.1,1.6,6.2,2.4,6.7,2c1-0.8,0.6-3.1-0.2-4.5  c-0.7-1.4-1.9-2-4.1-3.2c-1.8-1-3.8-1.8-4.8-2.1c-0.2-0.1-1.2-0.4-2.5-1c-0.1,0-0.3-0.1-0.6-0.3c-0.9-0.3-3.9-2.1-4.7-2.6  c-2.1-1.3-1.6-0.8-6-3.3c-2.2-1.3-2.9-1.7-4.2-2.1c-2.2-0.7-4.5-0.6-4.7-0.6c-1.2,0-2.1,0.2-3.7-0.1c-1-0.2-1.7-0.3-2.1-0.8  c-0.7-0.8-0.2-2.3-0.1-2.5c-2-0.8-4-1.5-6-2.3c-1.5,1.7-3,2.5-4,2.9c-1.2,0.5-2.7,0.7-5.5,1.1c-1.7,0.2-1.9,0.2-4.5,0.5  c-6.2,0.7-4.9,0.8-6.4,0.8c-1.4,0-3-0.1-4.7,0.8c-1,0.5-1.3,1-1.5,1.3C31.9,112,32.3,112.7,32.6,114.3z" />
    <path id="C5" fill="#C6C6C6" stroke="#C6C6C6" stroke-linecap="round" stroke-linejoin="round" stroke-miterlimit="10" d="  M30.1,91.9c0.1,2.4,0,2.3,0,5.5c0.1,3.9,0.2,1.1,0.4,4.7c0,0.4,0.1,1.3,0.7,2c0.2,0.2,0.5,0.4,1.1,0.7c0.7,0.3,1.4,0.4,3.4,0.4  c1.2,0,1.7,0,1.7,0c3.9-0.2,6.3-0.4,6.3-0.4c0.4,0,5.5-0.6,8.5-1.9c0.4-0.2,1.2-0.5,1.5-1.3c0.2-0.5,0.1-0.9,0-1.8  c-0.2-1.5-0.5-1.7-0.4-2.4c0.2-1.1,1.3-1.7,1.4-1.7c1.5-0.7,3.5,0.1,4.2,1.3c0.3,0.6,0.2,1,0.3,3.3c0.1,0.9,0.1,1.7,0.2,2.2  c2,0.8,4.1,1.5,6.1,2.3c0.7-0.3,1.7-0.7,2.9-0.9c0.7-0.1,2.5-0.5,4.9-0.2c2.7,0.3,4.6,1.1,7.2,2.3c2.7,1.2,4.2,1.9,6.1,3.2  c2.5,1.7,4.1,3.5,6.3,3.2c0.7-0.1,1-0.4,1.1-0.5c0.9-1-0.4-3.5-0.9-4.5c-1.7-3.2-8.3-7.9-10.2-9.3c-4.6-3.6-7.9-6.4-12-6.6  c-1.9-0.1-2.9-0.3-4.9-0.6c0,0-1.5-0.3-3.5-1.1c-0.9-0.4-1.4-0.7-1.7-1.3c-0.4-0.7-0.2-1.5,0-1.9c-1.5-1.1-2.9-2.3-4.4-3.4  c-0.9,0.5-2.1,1.2-3.6,1.7c-1.7,0.6-3,0.8-3.3,0.8c-1.2,0.2-2.2,0.2-5,0.1c-3.5-0.2-3.2-0.2-5-0.3c0,0-2.5,0.1-6.4,0.4  c-1.1,0.1-2.2,0.2-2.7,1c-0.2,0.4-0.3,0.8-0.3,2.8C30.1,90.9,30.1,91.6,30.1,91.9z" />
    <path id="C4" fill="#C6C6C6" stroke="#C6C6C6" stroke-linecap="round" stroke-linejoin="round" stroke-miterlimit="10" d="  M30.3,70.9c0,1.6,0,2.8-0.1,4.4c-0.2,2.4-0.5,3,0,4.2c0.4,1.1,1.1,1.6,1.2,1.7c0.8,0.7,1.8,0.8,2.3,0.8c3.3,0.3,6.1,0.2,6.1,0.2  c3-0.1,3.1,0,6-0.1c0,0,1.4-0.1,4.8-1c0.5-0.1,1.3-0.4,1.7-1.1c0.2-0.3,0.2-0.6,0.2-1.2c0-1.2-0.3-1.5-0.1-2.1  c0.3-0.8,1.2-1.2,1.4-1.3c1.3-0.5,2.8,0,3.7,1c0.9,1,0.7,2.4,0.6,3.6c-0.1,1-0.4,1.8-0.6,2.3c1.4,1.1,2.8,2.2,4.2,3.3  c3.1-1.2,5.7-1.8,7.6-2.1c1.9-0.3,3.7-0.5,6.2-0.2c2.4,0.3,4,0.6,5.8,1.7c1.7,1.1,4.3,3.7,6.1,3.7c0.8,0,1.1-0.3,1.2-0.4  c0.5-0.6,0.4-1.5,0.3-1.9c-0.5-2.6-6.2-6.8-7.3-7.5c-4.9-3.4-7.3-5-9.1-5.6C67.5,71.8,65,71,63,71.2c-0.4,0-1.7,0.2-2.4-0.6  c-0.4-0.4-0.4-0.9-0.5-1.7c-0.1-1-0.1-1.8,0-2.5c-1.4-1.2-2.8-2.3-4.1-3.5c-0.6,0.6-1.5,1.3-2.8,1.7c-1.2,0.3-1.9,0.1-3.9,0  c-1.7-0.1-2.9-0.1-4.8,0c-2.9,0.1-2.7,0.4-5.2,0.4c-3,0-4.5,0.1-5.4-0.1c0,0-1.1-0.2-2.9,0c-0.6,0.1-0.9,0.2-1.1,0.4  c-0.4,0.5,0,1.3,0.2,2.5C30.3,68.2,30.3,69.1,30.3,70.9z" />
    <path id="C3" fill="#C6C6C6" stroke="#C6C6C6" stroke-linecap="round" stroke-linejoin="round" stroke-miterlimit="10" d="  M30.3,49.7c0.2,0.9,0.1,2.3-0.2,5.2c-0.2,2.2-0.5,3.2,0.2,4.2c0.3,0.4,0.6,0.6,0.9,0.8c1.4,0.9,3.1,0.7,3.8,0.6c0,0,2.8-0.1,8.3-0.2  c2.2-0.1,4.4-0.5,6.6-0.5c0.4,0,2.3,0,2.6-0.8c0.1-0.3,0-0.5,0-1.3c0-0.4,0-0.8,0.2-1.2c0.4-1,1.5-1.4,1.6-1.5  c1.1-0.4,2.5-0.2,3.4,0.8c0.7,0.8,0.6,1.7,0.6,2.6c-0.1,1.6-0.7,2.9-1.2,3.6c0.6,0.5,1.3,1.1,2,1.6c0.7,0.6,1.4,1.1,2.1,1.6  c1.2-0.3,1.7-0.5,2.9-0.8c2.9-0.8,4.3-1.2,4.4-1.2c2.7-0.5,6.6-0.1,9.6,2c0.2,0.2,2.8,2,5,3c0.2,0.1,0.8,0.4,1.6,0.4  c0.8,0,2-0.2,2.4-0.8c0.2-0.4,0.3-1.4-3.3-5.1c-1.9-2-4.1-4.1-7.9-6.5c-4.9-3.1-7.3-4.6-10-4.2c-0.5,0.1-1.8,0.3-3.6,0  c-1-0.2-2.6-0.5-3.1-1.6c-0.5-1.1,0.2-2.4,0.6-3.4c0.2-0.5,0.5-0.9,0.7-1.2c-1.4-1-2.7-1.9-4.1-2.9c-0.5,0.8-1.4,1.8-2.7,2.5  c-0.8,0.4-1.7,0.6-5.6,0.6c-3,0-5.6-0.2-6.7-0.2c-1.6-0.1-3.3,0-4.9-0.2c-2.6-0.3-4.5-0.7-5.6,0.4c-0.5,0.4-0.7,1-0.7,1.1  C29.8,48.2,30.1,49.1,30.3,49.7z" />
    <path id="C2" fill="#DADADA" stroke="#DADADA" stroke-linecap="round" stroke-linejoin="round" stroke-miterlimit="10" d="M31,29.8  c-0.3,1.3-0.1,1.3-0.4,5.3c-0.2,2.9-0.4,4,0.4,5c0.4,0.4,0.8,0.8,1.2,1c1.1,0.8,2.2,1,2.8,1.1c2.3,0.5,4.9,0.5,7.2,0.6  c2.4,0.1,6.2,0.5,8.5-0.2c0.7-0.2,1.2-0.5,1.6-1c0.4-0.5,0.3-0.8,0.6-1.8c0.3-0.9,0.6-1.6,1.2-2c0.8-0.5,2-0.4,2.8,0.1  c0.3,0.2,1.1,0.7,1.3,1.7c0.2,1.3-0.8,2.1-0.9,2.2c1.3,0.9,2.7,1.9,4,2.8c0.5-0.1,1.2-0.3,2.1-0.5c0.6-0.1,3-0.7,3.8-0.8  c2.3-0.4,4.3,0.8,7,2.3c4.6,2.6,5.5,4.6,7.4,4.2c1.4-0.3,2.1-1.7,2.8-3.1c1.9-3.5,1.1-7,0.8-8.1c-0.5-2-0.9-3.9-2.6-4.9  c-2.5-1.5-6.4-0.1-8.1,0.5c0,0-4.3,1.6-5.6,1.2c-0.1,0-0.9-0.2-1.5-0.5c-0.9-0.4-0.2-0.2-4.9-3c-1.2-0.7-2.4-1.4-3-2.8  c-0.2-0.5-0.3-1-0.3-1.4c-1.7-0.4-3.4-0.9-5.1-1.3c-0.5,0.4-1.3,1-2.4,1.3c-2.7,0.9-5.1-0.2-5.8-0.5c0-0.8-0.1-1.7-0.1-2.5  c-4.3-0.5-8.6-1-13-1.5c-0.2,0.7-0.4,1.8-0.8,3.1C31.6,28.3,31.3,28.6,31,29.8z" />
    <path id="C1" fill="#EDEDED" stroke="#EDEDED" stroke-linecap="round" stroke-linejoin="round" stroke-miterlimit="10" d="M28.3,5.5  c-1,0.8-0.8,2.6-0.7,3.5c0.1,0.9,0.4,1.8,1.5,3.8c1.6,2.8,2.2,3.1,2.9,4.6c0.5,1.1,1.1,2.8,1,5.4c4.3,0.7,8.6,1.4,13,2.1  c1.1,0,2.5,0,4.3-0.1c0,0,1.9-0.1,2.9-0.6c0.6-0.3,0.9-0.5,1.1-0.8c0.1-0.1,0.1-0.2,0.2-0.2c0.3-0.1,0.7,0.5,0.8,1.1  c0,0.5-0.2,0.8-0.3,1c1.5,0.4,3,0.7,4.5,1.1c0-0.4,0.1-1.1,0.6-1.9c0.7-1,1.8-1.3,2.1-1.4c1.4-0.4,2.6,0.3,4.9,1.4  c2.4,1.1,3.6,1.7,4.9,2.1c1.9,0.6,4.9,1.5,7.5,0.1c0.4-0.2,2-1.1,2.5-2.9c0.5-1.9-0.3-4.1-1.8-5.1c-0.9-0.6-1.5-0.5-6.2-0.4  c-3.6,0-4.6,0-5.4-0.1c-2-0.2-3.3-0.3-4.8-1c-0.9-0.4-3.8-1.7-3.8-3.4c0-1.3,1.8-1.7,2-3.7c0-0.4,0.2-1.5-0.5-2.2  c-0.9-0.8-2.1,0.1-4.6-0.5c-1-0.2-1.7-0.4-2.3-0.9c-1.7-1.4-1-3.6-2.4-4.2c-0.6-0.3-1.5-0.1-1.9,0.3c-0.6,0.6-0.1,1.6-0.7,2.5  C49.1,5.8,48.2,6,48,6c-1.3,0.3-2.3-0.9-5.2-3.1c-2.6-2-3.5-2.3-4.5-2.4c-1-0.1-2.4,0-2.8,0.8c-0.2,0.5,0.2,0.9,0.4,2.3  c0.1,1,0.3,2-0.2,2.4c-0.5,0.5-1.4-0.2-3.5-0.6C30.5,5.1,29.2,4.8,28.3,5.5z" />
</svg>