<svg version="1.1" xmlns="http://www.w3.org/2000/svg" xmlns:xlink="http://www.w3.org/1999/xlink" x="0px" y="0px" viewBox="0 0 285.2 362.9" enable-background="new 0 0 285.2 362.9" xml:space="preserve">
    <metadata xmlns:med="http://www.medreporter.org/reference/figure">
        <med:Figure lngs="de,en">
            <med:Title>
                <med:Trans lng="de">Ventrikelsystem des Gehirns</med:Trans>
                <med:Trans lng="en">Ventricular system of the brain</med:Trans>
            </med:Title>
            <med:Option id="rightLateralAperture">
                <med:Trans lng="de">Recessus lateralis rechts</med:Trans>
                <med:Trans lng="en">Right lateral aperture</med:Trans>
            </med:Option>
            <med:Option id="leftLateralAperture">
                <med:Trans lng="de">Recessus lateralis rechts</med:Trans>
                <med:Trans lng="en">Left lateral aperture</med:Trans>
            </med:Option>
            <med:Option id="fourth">
                <med:Trans lng="de">Ventriculus quartus</med:Trans>
                <med:Trans lng="en">Fourth ventricle</med:Trans>
            </med:Option>
            <med:Option id="cerebralAqueduct">
                <med:Trans lng="de">Aqueductus mesencephali</med:Trans>
                <med:Trans lng="en">Cerebral aqueduct</med:Trans>
            </med:Option>
            <med:Option id="third">
                <med:Trans lng="de">Ventriculus tertius</med:Trans>
                <med:Trans lng="en">Third ventricle</med:Trans>
            </med:Option>
            <med:Option id="rightInterventricularForamen">
                <med:Trans lng="de">Foramen interventriculare rechts</med:Trans>
                <med:Trans lng="en">Right interventricular foramen</med:Trans>
            </med:Option>
            <med:Option id="rightTemporalHorn">
                <med:Trans lng="de">Cornu temporale, Ventriculus lateralis rechts</med:Trans>
                <med:Trans lng="en">Right temporal horn of lateral ventricle</med:Trans>
            </med:Option>
            <med:Option id="rightOccipitalHorn">
                <med:Trans lng="de">Cornu occipitale, Ventriculus lateralis rechts</med:Trans>
                <med:Trans lng="en">Right occipital horn of lateral ventricle</med:Trans>
            </med:Option>
            <med:Option id="rightFrontalHorn">
                <med:Trans lng="de">Cornu frontale, Ventriculus lateralis rechts</med:Trans>
                <med:Trans lng="en">Right frontal horn of lateral ventricle</med:Trans>
            </med:Option>
            <med:Option id="leftInterventricularForamen">
                <med:Trans lng="de">Foramen interventriculare links</med:Trans>
                <med:Trans lng="en">Left interventricular foramen</med:Trans>
            </med:Option>
            <med:Option id="leftTemporalHorn">
                <med:Trans lng="de">Cornu temporale, Ventriculus lateralis links</med:Trans>
                <med:Trans lng="en">Left temporal horn of lateral ventricle</med:Trans>
            </med:Option>
            <med:Option id="leftOccipitalHorn">
                <med:Trans lng="de">Cornu occipitale, Ventriculus lateralis links</med:Trans>
                <med:Trans lng="en">Left occipital horn of lateral ventricle</med:Trans>
            </med:Option>
            <med:Option id="leftFrontalHorn">
                <med:Trans lng="de">Cornu frontale, Ventriculus lateralis links</med:Trans>
                <med:Trans lng="en">Left frontal horn of lateral ventricle</med:Trans>
            </med:Option>
        </med:Figure>
    </metadata>
    <g>
        <path id="rightLateralAperture" fill="#F6F6F6" d="M112.1,285.1c-0.9,0-2.2,0-3.8-0.2c-3.7-0.3-7-0.5-10.5-1.9   c-0.9-0.4-6.4-2.6-10.2-8.1c-0.7-1-2.1-3.4-2.5-6.6c-0.1-1.3-0.4-3.6,0.8-4.4c1.1-0.7,2.9,0.4,3.3,0.6c2.2,1.3,2.3,3.1,3.8,5   c2.5,3.3,6.9,3.9,10,4.4c3.4,0.5,6.4,0.1,8.4-0.5C111.7,277.4,111.9,281.2,112.1,285.1z" />
        <path id="leftLateralAperture" fill="#F6F6F6" d="M173.7,273.5c2.1,0.5,5,1,8.4,0.5c3.1-0.5,7.5-1.1,10-4.4c1.4-1.9,1.5-3.7,3.8-5   c0.4-0.3,2.2-1.3,3.3-0.6c1.2,0.7,0.9,3.1,0.8,4.4c-0.4,3.2-1.8,5.6-2.5,6.6c-3.7,5.5-9.2,7.8-10.2,8.1c-3.4,1.3-6.8,1.6-10.5,1.9   c-1.5,0.1-2.8,0.2-3.8,0.2C173.3,281.2,173.5,277.4,173.7,273.5z" />
        <path id="fourth" fill="#EDEDED" d="M150.8,234.9c3.5,7.1,7.2,11.9,10.1,15c4.2,4.6,7,6.3,7.8,10.6c0.6,3.1-0.3,5.6,1.6,9.1   c0.5,1,1.5,2.8,3.4,3.9l-0.6,11.6c-2.3,0.8-3.6,2.7-3.8,3c-0.9,1.4-1.2,2.7-1.4,4.1c-0.5,2.6,0.1,3.1-0.5,5.2   c-0.3,1-0.9,3.2-2.1,3.4c-1.2,0.2-5.7-4.6-7.4-6.4c-1.2-1.3-1.8-2.1-2.8-2.9c-2.1-2-2.7-2.4-3.3-2.7c-0.4-0.2-2.2-0.9-3.8-0.3   c-3,1-3,5-4.7,5.1c-1.8,0.1-2.2-4.7-5.6-5.6c-1.9-0.5-3.9,0.5-4.6,0.8c-1.1,0.5-1.8,1.3-3.3,2.7c-0.9,0.9-1.6,1.7-2.8,2.9   c-1.7,1.8-6.2,6.6-7.4,6.4c-1.2-0.2-1.8-2.4-2.1-3.4c-0.6-2.1,0-2.6-0.5-5.2c-0.2-1.4-0.5-2.7-1.4-4.1c-0.2-0.3-1.5-2.2-3.8-3   l-0.6-11.6c1.9-1.1,2.9-2.9,3.4-3.9c1.9-3.5,1-6,1.6-9.1c0.8-4.3,3.6-6,7.8-10.6c2.8-3.1,6.6-7.9,10.1-15   C139.8,234.9,145.3,234.9,150.8,234.9z" />
        <path id="cerebralAqueduct" fill="#DADADA" d="M134.3,234.9c0.6-6,1-12.4,1.3-19.1c0.2-7.2,0.2-13.9,0-20.3h14   c-0.2,6.4-0.2,13.2,0,20.3c0.2,6.7,0.7,13.1,1.3,19.1C145.3,234.9,139.8,234.9,134.3,234.9z" />
        <path id="third" fill="#C6C6C6" d="M135.6,195.5c-1.8-5.9-3-11.1-3.7-15.3c-1.3-7.8-0.6-6.4-1.8-17.9c0-0.2-1-11.8-0.6-15.5   c0-0.2,0-0.3,0-0.5c0.1-1.6,0.1-2.8,0.1-3c0-1.2,0.3-12,3-32.7c0.6-4.2,1.3-9.7,2.4-16.2l0.6-12.9c-0.5-3,0.2-6,0.5-7.6   c0.2-1.4,1.1-3.8,2.3-5.8c1.3-2.1,3.2-3.3,4.1-4.2c1,0.9,2.8,2,4.1,4.2c1.3,2,2.1,4.4,2.3,5.8c0.3,1.7,0.9,4.6,0.5,7.6l1.1,12.8   c1.2,6.4,2,11.8,2.5,16c2.2,17.2,2.5,31.6,2.5,33.1c0,0.2,0,1.4,0.1,3c0,0.2,0,0.3,0,0.5c0.4,3.7-0.5,15.3-0.6,15.5   c-1.2,11.5-0.5,10.1-1.8,17.9c-0.7,4.2-1.9,9.4-3.7,15.3C144.9,195.5,140.3,195.5,135.6,195.5z" />
        <path id="rightInterventricularForamen" fill="#CAC9CA" d="M126.2,96.6c1.3-0.7,7.5-1.6,8.8-2.3l0.6-12.9c-0.6,0.2-4-0.7-4.7-1.1   L126.2,96.6z" />
        <path id="rightTemporalHorn" fill="#878787" d="M18.4,230.8c-1.1-4.5-2.9-12.1-7-21.1c-3-6.5-4.5-8-6.7-14.5   c-2.1-5.9-2.9-10.8-3.3-13c-0.7-4.6-0.3-5-0.9-17.8c-0.4-8.6-0.7-10.1-0.2-13.6c0.5-3.6,1.3-5.1,3.3-10.9c2.5-7.3,1.7-5.9,5.9-19.4   c3.7-11.6,4.7-13.8,7-16.1c2.3-2.3,5.3-4.1,7.8-5.6c4-2.5,6-3.7,8.1-3.9c0.9-0.1,2.5-0.2,4.4-1.1c1.1-0.6,1.6-1.1,2.5-1.7   c1-0.7,3.7-2.7,6.9-3c0.4,0,4.1-0.2,6.9,2.3c2,1.9,2.4,4.2,3,7.2c0.6,3.4-0.1,3.5,0.5,7c0.7,4,1.7,4.2,2,8c0.2,2.5-0.2,2.2,0,5.8   c0.2,3.4,0.7,4.4,0.2,6.1c-0.6,2-2.1,3.2-2.8,3.9c-3.8,3.4-6.4,7.8-9.7,11.7c-4.7,5.6-3.3,4.9-9.4,12.7c-6.2,7.8-8,9-9.2,13.2   c-1.4,4.9-0.6,9-0.3,10.6c1.5,7.6,6.3,12.1,8.4,14.1c5.4,5,11.3,6.6,14.2,7.2c1.9,10.2,3.8,20.3,5.6,30.5   C43.3,229.9,30.8,230.3,18.4,230.8z" />
        <path id="rightOccipitalHorn" fill="#9D9D9C" d="M94,242.5c-5.2,3.9-7,2.8-14.9,8.3c-4.1,2.8-7.9,5.6-11,10   c-3.1,4.5-2.8,8.2-5.5,20c-1.6,6.9-3.4,15.4-4.4,26.7c-0.7,8.2-1.3,15.9,0,25.5c1.3,9.5,1.9,14.2,2.8,16.3c0.9,2.2,2.5,5.1,1.7,8.6   c-0.5,2-1.8,4.8-3.8,5c-1.6,0.1-2.9-1.6-4.1-3c-1.9-2.4-2.6-4.8-2.7-5c-2.3-7.7-6.4-14.8-9-22.4c-0.2-0.5-3.2-8.9-9.4-25.6   c-4-10.8-5.7-15.5-8-23.1c-2.9-9.8-3.5-13.7-3.8-15.5c-0.9-7.2-0.1-9.6-0.6-18c-0.2-2.7-0.7-5.4-1.3-8.7c-0.7-4.5-1.4-8.2-1.9-10.9   c12.4-0.5,24.8-1,37.2-1.5L94,242.5z" />
        <path id="rightFrontalHorn" fill="#B2B2B2" d="M94,242.5c3-2.3,3.5-3.6,13.4-19.5c7.8-12.5,8.8-13.9,10.2-17.7   c1.8-5,2.2-8.4,3.3-17.5c3.5-28.7,3.4-24.3,3.8-30c0.6-8.7,0.2-30.1,1.3-54.1c0.1-3,0.2-5.4,0.3-7l4.7-16.3   c-0.9-0.4-1.4-1.6-1.7-4.2c-0.4-3.4-0.1-6,0-7c0.1-1.3,0-3.9-0.2-9.1c-0.2-6.7-0.4-10.1-1.1-13.3c-1.9-8.2-6.7-13.8-8.8-16.1   c-4.1-4.7-8.9-7.8-11.3-9.4c-4.3-2.8-7.4-4.2-10.8-8.1c-1.8-2.1-2.8-3.3-3.8-5.3c-1.3-2.7-1.1-4.1-2.8-5.8   c-0.5-0.5-2.3-2.2-4.4-1.9c-1.7,0.3-2.7,1.8-3.5,2.9c-1.8,2.7-2,5.4-2.1,6.6c-0.5,6.8-0.9,11.6,1.1,18.3c1.4,4.8,2.2,4.5,3.6,9.5   c1.4,5,1.6,8.9,1.7,12.5c0.6,15,0.9,22.5,0.9,24.9c0,6.4,0,14.3-0.7,24.6c-0.6,8.9-1.5,21.7-4.7,38c-2.6,13.1-4.9,20.6-9.1,33.5   c-3.3,10.2-5.7,15.1-10.5,19.9c-4.5,4.6-9.6,6.9-13,8.1c1.9,10.2,3.8,20.3,5.6,30.5L94,242.5z" />
        <path id="leftInterventricularForamen" fill="#CAC9CA" d="M158.9,96.6c-1.3-0.7-7.5-1.6-8.8-2.3l-0.6-12.9c0.6,0.2,4-0.7,4.7-1.1   L158.9,96.6z" />
        <path id="leftTemporalHorn" fill="#878787" d="M266.7,230.8c1.1-4.5,2.9-12.1,7-21.1c3-6.5,4.5-8,6.7-14.5c2.1-5.9,2.9-10.8,3.3-13   c0.7-4.6,0.3-5,0.9-17.8c0.4-8.6,0.7-10.1,0.2-13.6c-0.5-3.6-1.3-5.1-3.3-10.9c-2.5-7.3-1.7-5.9-5.9-19.4   c-3.7-11.6-4.7-13.8-7-16.1c-2.3-2.3-5.3-4.1-7.8-5.6c-4-2.5-6-3.7-8.1-3.9c-0.9-0.1-2.5-0.2-4.4-1.1c-1.1-0.6-1.6-1.1-2.5-1.7   c-1-0.7-3.7-2.7-6.9-3c-0.4,0-4.1-0.2-6.9,2.3c-2,1.9-2.4,4.2-3,7.2c-0.6,3.4,0.1,3.5-0.5,7c-0.7,4-1.7,4.2-2,8   c-0.2,2.5,0.2,2.2,0,5.8c-0.2,3.4-0.7,4.4-0.2,6.1c0.6,2,2.1,3.2,2.8,3.9c3.8,3.4,6.4,7.8,9.7,11.7c4.7,5.6,3.3,4.9,9.4,12.7   c6.2,7.8,8,9,9.2,13.2c1.4,4.9,0.6,9,0.3,10.6c-1.5,7.6-6.3,12.1-8.4,14.1c-5.4,5-11.3,6.6-14.2,7.2c-1.9,10.2-3.8,20.3-5.6,30.5   C241.9,229.9,254.3,230.3,266.7,230.8z" />
        <path id="leftOccipitalHorn" fill="#9D9D9C" d="M191.1,242.5c5.2,3.9,7,2.8,14.9,8.3c4.1,2.8,7.9,5.6,11,10c3.1,4.5,2.8,8.2,5.5,20   c1.6,6.9,3.4,15.4,4.4,26.7c0.7,8.2,1.3,15.9,0,25.5c-1.3,9.5-1.9,14.2-2.8,16.3c-0.9,2.2-2.5,5.1-1.7,8.6c0.5,2,1.8,4.8,3.8,5   c1.6,0.1,2.9-1.6,4.1-3c1.9-2.4,2.6-4.8,2.7-5c2.3-7.7,6.4-14.8,9-22.4c0.2-0.5,3.2-8.9,9.4-25.6c4-10.8,5.7-15.5,8-23.1   c2.9-9.8,3.5-13.7,3.8-15.5c0.9-7.2,0.1-9.6,0.6-18c0.2-2.7,0.7-5.4,1.3-8.7c0.7-4.5,1.4-8.2,1.9-10.9c-12.4-0.5-24.8-1-37.2-1.5   L191.1,242.5z" />
        <path id="leftFrontalHorn" fill="#B2B2B2" d="M191.1,242.5c-3-2.3-3.5-3.6-13.4-19.5c-7.8-12.5-8.8-13.9-10.2-17.7   c-1.8-5-2.2-8.4-3.3-17.5c-3.5-28.7-3.4-24.3-3.8-30c-0.6-8.7-0.2-30.1-1.3-54.1c-0.1-3-0.2-5.4-0.3-7l-4.7-16.3   c0.9-0.4,1.4-1.6,1.7-4.2c0.4-3.4,0.1-6,0-7c-0.1-1.3,0-3.9,0.2-9.1c0.2-6.7,0.4-10.1,1.1-13.3c1.9-8.2,6.7-13.8,8.8-16.1   c4.1-4.7,8.9-7.8,11.3-9.4c4.3-2.8,7.4-4.2,10.8-8.1c1.8-2.1,2.8-3.3,3.8-5.3c1.3-2.7,1.1-4.1,2.8-5.8c0.5-0.5,2.3-2.2,4.4-1.9   c1.7,0.3,2.7,1.8,3.5,2.9c1.8,2.7,2,5.4,2.1,6.6c0.5,6.8,0.9,11.6-1.1,18.3c-1.4,4.8-2.2,4.5-3.6,9.5c-1.4,5-1.6,8.9-1.7,12.5   c-0.6,15-0.9,22.5-0.9,24.9c0,6.4,0,14.3,0.7,24.6c0.6,8.9,1.5,21.7,4.7,38c2.6,13.1,4.9,20.6,9.1,33.5   c3.3,10.2,5.7,15.1,10.5,19.9c4.5,4.6,9.6,6.9,13,8.1c-1.9,10.2-3.8,20.3-5.6,30.5L191.1,242.5z" />
    </g>
    <g>
        <path display="none" fill="none" stroke="#878787" stroke-width="3" stroke-linejoin="round" stroke-miterlimit="10" d="   M143.4,293.5c-1.8,0.1-2.2-4.7-5.6-5.6c-1.9-0.5-3.9,0.5-4.6,0.8c-1.1,0.5-1.8,1.3-3.3,2.7c-0.9,0.9-1.6,1.7-2.8,2.9   c-1.7,1.8-6.2,6.6-7.4,6.4c-1.2-0.2-1.8-2.4-2.1-3.4c-0.6-2.1,0-2.6-0.5-5.2c-0.2-1.4-0.5-2.7-1.4-4.1c-0.2-0.3-1.5-2.2-3.8-3   c-1.6-0.5-3-0.3-3.8-0.2c-4.1,0.6-7.9-0.9-10.5-1.9c-0.9-0.4-6.4-2.6-10.2-8.1c-0.7-1-2.1-3.4-2.5-6.6c-0.1-1.3-0.4-3.6,0.8-4.4   c1.1-0.7,2.9,0.4,3.3,0.6c2.2,1.3,2.3,3.1,3.8,5c2.3,3,6.1,3.7,10,4.4c3.2,0.6,5.9,1,8.4-0.5c1.9-1.1,2.9-2.9,3.4-3.9   c1.9-3.5,1-6,1.6-9.1c0.8-4.3,3.5-5.4,7.8-10.6c0.8-1,7.8-6.7,10.1-15c1.1-4,1.2-7.1,1.3-19.1c0-8,0-14.8,0-20.3   c-0.5-2.5-3.2-12.8-3.7-15.3c-1.4-7.1-1.5-15.1-1.8-17.9c0-0.2-1-11.8-0.6-15.5c0-0.2,0-0.3,0-0.5c0.1-1.6,0.1-2.8,0.1-3   c0-1.2,0.3-12,3-32.7c0.6-4.2,1.3-9.7,2.4-16.2c-1.3,0.7-7.5,1.6-8.8,2.3c-0.1,1.6-0.2,4.1-0.3,7c-1,24-0.6,45.4-1.3,54.1   c-0.4,5.7-0.3,1.3-3.8,30c-1.1,9.1-1.4,12.5-3.3,17.5c-1.4,3.8-2.4,5.2-10.2,17.7c-9.9,16-10.4,17.2-13.4,19.5   c-5.2,3.9-7,2.8-14.9,8.3c-4.1,2.8-7.9,5.6-11,10c-3.1,4.5-2.8,8.2-5.5,20c-1.6,6.9-3.4,15.4-4.4,26.7c-0.7,8.2-1.3,15.9,0,25.5   c1.3,9.5,1.9,14.2,2.8,16.3c0.9,2.2,2.5,5.1,1.7,8.6c-0.5,2-1.8,4.8-3.8,5c-1.6,0.1-2.9-1.6-4.1-3c-1.9-2.4-2.6-4.8-2.7-5   c-2.3-7.7-6.4-14.8-9-22.4c-0.2-0.5-3.2-8.9-9.4-25.6c-4-10.8-5.7-15.5-8-23.1c-2.9-9.8-3.5-13.7-3.8-15.5c-0.9-7.2-0.1-9.6-0.6-18   c-0.6-8.9-2.2-15.7-3.1-19.5c-1.1-4.5-2.9-12.1-7-21.1c-3-6.5-4.5-8-6.7-14.5c-2.1-5.9-2.9-10.8-3.3-13c-0.7-4.6-0.3-5-0.9-17.8   c-0.4-8.6-0.7-10.1-0.2-13.6c0.5-3.6,1.3-5.1,3.3-10.9c2.5-7.3,1.7-5.9,5.9-19.4c3.7-11.6,4.7-13.8,7-16.1c2.3-2.3,5.3-4.1,7.8-5.6   c4-2.5,6-3.7,8.1-3.9c0.9-0.1,2.5-0.2,4.4-1.1c1.1-0.6,1.6-1.1,2.5-1.7c1-0.7,3.7-2.7,6.9-3c0.4,0,4.1-0.2,6.9,2.3   c2,1.9,2.4,4.2,3,7.2c0.6,3.4-0.1,3.5,0.5,7c0.7,4,1.7,4.2,2,8c0.2,2.5-0.2,2.2,0,5.8c0.2,3.4,0.7,4.4,0.2,6.1   c-0.6,2-2.1,3.2-2.8,3.9c-3.8,3.4-6.4,7.8-9.7,11.7c-4.7,5.6-3.3,4.9-9.4,12.7c-6.2,7.8-8,9-9.2,13.2c-1.4,4.9-0.6,9-0.3,10.6   c1.5,7.5,6.1,11.9,8.4,14.1c3.4,3.2,8.1,7.5,14.2,7.2c5.8-0.3,9.7-4.5,13-8.1c6-6.6,8.4-13.6,10.5-19.9c4.1-12.8,6.5-20.4,9.1-33.5   c3.2-16.3,4.1-29.1,4.7-38c0.7-10.4,0.7-18.2,0.7-24.6c0-2.4-0.3-9.9-0.9-24.9c-0.2-3.6-0.3-7.5-1.7-12.5c-1.4-5-2.2-4.7-3.6-9.5   c-1.9-6.7-1.6-11.5-1.1-18.3c0.1-1.2,0.3-4,2.1-6.6c0.8-1.1,1.8-2.6,3.5-2.9c2.1-0.3,3.9,1.4,4.4,1.9c1.7,1.6,1.5,3.1,2.8,5.8   c0.9,2,2,3.2,3.8,5.3c3.3,3.9,6.5,5.3,10.8,8.1c2.4,1.6,7.1,4.7,11.3,9.4c2,2.3,6.9,7.9,8.8,16.1c0.7,3.2,0.9,6.6,1.1,13.3   c0.2,5.2,0.3,7.8,0.2,9.1c-0.1,1.1-0.4,3.7,0,7c0.3,2.6,0.8,3.8,1.7,4.2c0.8,0.3,4.2,1.3,4.7,1.1c-0.5-3,0.2-6,0.5-7.6   c0.2-1.4,1.1-3.8,2.3-5.8c1.3-2.1,3.2-3.3,4.1-4.2c1,0.9,2.8,2,4.1,4.2c1.3,2,2.1,4.4,2.3,5.8c0.3,1.7,0.9,4.6,0.5,7.6   c0.6,0.2,4-0.7,4.7-1.1c0.9-0.4,1.4-1.6,1.7-4.2c0.4-3.4,0.1-6,0-7c-0.1-1.3,0-3.9,0.2-9.1c0.2-6.7,0.4-10.1,1.1-13.3   c1.9-8.2,6.7-13.8,8.8-16.1c4.1-4.7,8.9-7.8,11.3-9.4c4.3-2.8,7.4-4.2,10.8-8.1c1.8-2.1,2.8-3.3,3.8-5.3c1.3-2.7,1.1-4.1,2.8-5.8   c0.5-0.5,2.3-2.2,4.4-1.9c1.7,0.3,2.7,1.8,3.5,2.9c1.8,2.7,2,5.4,2.1,6.6c0.5,6.8,0.9,11.6-1.1,18.3c-1.4,4.8-2.2,4.5-3.6,9.5   c-1.4,5-1.6,8.9-1.7,12.5c-0.6,15-0.9,22.5-0.9,24.9c0,6.4,0,14.3,0.7,24.6c0.6,8.9,1.5,21.7,4.7,38c2.6,13.1,4.9,20.6,9.1,33.5   c2,6.3,4.4,13.2,10.5,19.9c3.3,3.6,7.2,7.8,13,8.1c6.2,0.3,10.8-4,14.2-7.2c2.3-2.1,7-6.6,8.4-14.1c0.3-1.6,1.1-5.8-0.3-10.6   c-1.2-4.2-3.1-5.4-9.2-13.2c-6.1-7.8-4.7-7.1-9.4-12.7c-3.3-3.9-5.9-8.4-9.7-11.7c-0.8-0.7-2.2-1.9-2.8-3.9   c-0.5-1.7-0.1-2.7,0.2-6.1c0.2-3.6-0.2-3.3,0-5.8c0.4-3.7,1.4-3.9,2-8c0.6-3.6-0.2-3.7,0.5-7c0.5-3,1-5.3,3-7.2   c2.7-2.6,6.5-2.4,6.9-2.3c3.2,0.2,5.9,2.2,6.9,3c0.9,0.7,1.4,1.2,2.5,1.7c1.9,0.9,3.5,1,4.4,1.1c2.1,0.2,4.1,1.5,8.1,3.9   c2.5,1.5,5.5,3.4,7.8,5.6c2.4,2.3,3.3,4.5,7,16.1c4.3,13.5,3.4,12.1,5.9,19.4c2,5.9,2.7,7.4,3.3,10.9c0.5,3.5,0.3,5-0.2,13.6   c-0.6,12.9-0.2,13.2-0.9,17.8c-0.3,2.2-1.2,7.1-3.3,13c-2.3,6.5-3.8,8-6.7,14.5c-4.1,9-5.9,16.6-7,21.1c-0.9,3.9-2.5,10.6-3.1,19.5   c-0.6,8.4,0.3,10.8-0.6,18c-0.2,1.7-0.8,5.7-3.8,15.5c-2.3,7.6-4,12.3-8,23.1c-6.1,16.8-9.2,25.1-9.4,25.6   c-2.6,7.6-6.7,14.7-9,22.4c-0.1,0.2-0.8,2.6-2.7,5c-1.1,1.4-2.5,3.1-4.1,3c-1.9-0.2-3.3-3-3.8-5c-0.8-3.5,0.8-6.4,1.7-8.6   c0.9-2.1,1.5-6.8,2.8-16.3c1.3-9.6,0.7-17.2,0-25.5c-0.9-11.4-2.8-19.8-4.4-26.7c-2.7-11.8-2.3-15.5-5.5-20c-3.1-4.4-7-7.2-11-10   c-7.8-5.5-9.7-4.3-14.9-8.3c-3-2.3-3.5-3.6-13.4-19.5c-7.8-12.5-8.8-13.9-10.2-17.7c-1.8-5-2.2-8.4-3.3-17.5   c-3.5-28.7-3.4-24.3-3.8-30c-0.6-8.7-0.2-30.1-1.3-54.1c-0.1-3-0.2-5.4-0.3-7c-1.4-0.7-7-1.7-8.4-2.4c1.2,6.4,2,11.8,2.5,16   c2.2,17.2,2.5,31.6,2.5,33.1c0,0.2,0,1.4,0.1,3c0,0.2,0,0.3,0,0.5c0.4,3.7-0.5,15.3-0.6,15.5c-0.3,2.8-0.5,10.8-1.8,17.9   c-0.5,2.6-3.2,12.8-3.7,15.3c0,5.5,0,12.4,0,20.3c0,12,0.1,15,1.3,19.1c2.3,8.3,9.2,14,10.1,15c4.3,5.2,7,6.3,7.8,10.6   c0.6,3.1-0.3,5.6,1.6,9.1c0.5,1,1.5,2.8,3.4,3.9c2.6,1.5,5.2,1,8.4,0.5c3.9-0.7,7.7-1.4,10-4.4c1.4-1.9,1.5-3.7,3.8-5   c0.4-0.3,2.2-1.3,3.3-0.6c1.2,0.7,0.9,3.1,0.8,4.4c-0.4,3.2-1.8,5.6-2.5,6.6c-3.7,5.5-9.2,7.8-10.2,8.1c-2.5,1-6.4,2.5-10.5,1.9   c-0.7-0.1-2.1-0.4-3.8,0.2c-2.3,0.8-3.6,2.7-3.8,3c-0.9,1.4-1.2,2.7-1.4,4.1c-0.5,2.6,0.1,3.1-0.5,5.2c-0.3,1-0.9,3.2-2.1,3.4   c-1.2,0.2-5.7-4.6-7.4-6.4c-1.2-1.3-1.8-2.1-2.8-2.9c-2.1-2-2.7-2.4-3.3-2.7c-0.4-0.2-2.2-0.9-3.8-0.3   C145.1,289.3,145.1,293.4,143.4,293.5z" />
        <path fill="none" stroke="#B2B2B2" stroke-linecap="round" stroke-linejoin="round" stroke-miterlimit="10" d="M138.6,192.2   c0.8-1.6,2.5-2.7,4.3-2.7c2.8,0,4.3,2.3,4.3,2.4" />
        <path fill="none" stroke="#9D9D9C" stroke-linecap="round" stroke-linejoin="round" stroke-miterlimit="10" d="M193,15.8   c0,2.4-0.2,6-0.9,10.3c-1.2,6.8-2.9,9.8-4.2,15.2c-0.9,3.7-1.6,9.1-1,16.1" />
        <path fill="none" stroke="#706F6F" stroke-linecap="round" stroke-linejoin="round" stroke-miterlimit="10" d="M240,98.6   c0.1,2.5,1.7,4.8,3.6,6.5s4.2,2.9,6.2,4.5c6.3,4.6,10.4,11.6,13.6,18.7c5.8,12.7,9.2,26.5,10,40.5" />
        <path fill="none" stroke="#878787" stroke-linecap="round" stroke-linejoin="round" stroke-miterlimit="10" d="M273,182.7   c-1.3,7.8-6.1,14.7-11.9,20c-5.9,5.3-12.9,9.2-19.8,13" />
        <path fill="none" stroke="#878787" stroke-linecap="round" stroke-linejoin="round" stroke-miterlimit="10" d="M224.5,267.1   c8.5,14.2,12.2,31.3,10.1,47.7" />
        <path fill="none" stroke="#878787" stroke-linecap="round" stroke-linejoin="round" stroke-miterlimit="10" d="M227.9,354.2   c2.8-7.4,5.1-15,6.7-22.7" />
        <path fill="none" stroke="#9D9D9C" stroke-linecap="round" stroke-linejoin="round" stroke-miterlimit="10" d="M190.4,117.4   c-3.1-16.1-4.1-32.7-2.8-49" />
        <path fill="none" stroke="#9D9D9C" stroke-linecap="round" stroke-linejoin="round" stroke-miterlimit="10" d="M205.9,178.7   c-7.5-14-12-29.6-12.9-45.4" />
        <path fill="none" stroke="#9D9D9C" stroke-linecap="round" stroke-linejoin="round" stroke-miterlimit="10" d="M92.6,15.8   c0,2.4,0.2,6,0.9,10.3c1.2,6.8,2.9,9.8,4.2,15.2c0.9,3.7,1.6,9.1,1,16.1" />
        <path fill="none" stroke="#706F6F" stroke-linecap="round" stroke-linejoin="round" stroke-miterlimit="10" d="M45.5,98.6   c-0.1,2.5-1.7,4.8-3.6,6.5s-4.2,2.9-6.2,4.5c-6.3,4.6-10.4,11.6-13.6,18.7c-5.8,12.7-9.2,26.5-10,40.5" />
        <path fill="none" stroke="#878787" stroke-linecap="round" stroke-linejoin="round" stroke-miterlimit="10" d="M12.5,182.7   c1.3,7.8,6.1,14.7,11.9,20c5.9,5.3,12.9,9.2,19.8,13" />
        <path fill="none" stroke="#878787" stroke-linecap="round" stroke-linejoin="round" stroke-miterlimit="10" d="M61,267.1   c-8.5,14.2-12.2,31.3-10.1,47.7" />
        <path fill="none" stroke="#878787" stroke-linecap="round" stroke-linejoin="round" stroke-miterlimit="10" d="M57.6,354.2   c-2.8-7.4-5.1-15-6.7-22.7" />
        <path fill="none" stroke="#9D9D9C" stroke-linecap="round" stroke-linejoin="round" stroke-miterlimit="10" d="M95.1,117.4   c3.1-16.1,4.1-32.7,2.8-49" />
        <path fill="none" stroke="#9D9D9C" stroke-linecap="round" stroke-linejoin="round" stroke-miterlimit="10" d="M79.7,178.7   c7.5-14,12-29.6,12.9-45.4" />
        <path fill="none" stroke="#C6C6C6" stroke-linecap="round" stroke-linejoin="round" stroke-miterlimit="10" d="M135.4,285.2   c1.5-1.4,2.9-2.1,3.8-2.5c1-0.4,2.1-0.9,3.5-0.8c1.4,0.1,2.5,0.6,3.5,1.1c1.3,0.7,2.2,1.4,2.9,2" />
        <path fill="none" stroke="#9D9D9C" stroke-linecap="round" stroke-linejoin="round" stroke-miterlimit="10" d="M127.4,94.1   c0.5-1.3,0.9-2.8,1.2-4.5c0.4-2.4,0.5-4.5,0.4-6.2" />
        <path fill="none" stroke="#B2B2B2" stroke-linecap="round" stroke-linejoin="round" stroke-miterlimit="10" d="M135.9,92   c0.3-2.4,0.4-4.7,0.3-7.1" />
        <path fill="none" stroke="#B2B2B2" stroke-linecap="round" stroke-linejoin="round" stroke-miterlimit="10" d="M149.7,91.8   c-0.3-2.4-0.4-4.7-0.3-7.1" />
        <path fill="none" stroke="#9D9D9C" stroke-linecap="round" stroke-linejoin="round" stroke-miterlimit="10" d="M156.1,82.9   c0,1.4,0,3,0.2,4.7c0.3,2.3,0.8,4.2,1.3,5.8" />
    </g>
</svg>